<?xml version="1.0" encoding="UTF-8"?>
<svg id="objects" xmlns="http://www.w3.org/2000/svg" version="1.1" viewBox="0 0 290 302.66">
  <!-- Generator: Adobe Illustrator 30.0.0, SVG Export Plug-In . SVG Version: 2.1.1 Build 123)  -->
  <defs>
    <style>
      .st0 {
        fill: #fff;
      }

      .st1 {
        fill: #f2c316;
        isolation: isolate;
      }

      .st2 {
        fill: none;
        stroke: #000;
        stroke-miterlimit: 10;
        stroke-width: 2px;
      }
    </style>
  </defs>
  <path class="st1" d="M86.77,55.06c35.28-18.21,65.42-31.79,111.36-30.79,10.65.23,35.17,5.13,48.93,15.21,17.53,12.83,30.11,27.83,35.96,51.81,9.45,38.66,7,80.6-2.22,119.32-3.88,16.27-9.58,32.36-19.25,46-9.67,13.64-23.61,25.59-39.91,29.31-12.44,2.83-22.7,3-37.32-5.38s-25.63-20.82-41.01-26.14c-33.79-11.68-70.81,20.82-104.93,10.15-16.73-5.23-29.05-20.45-34.23-37.19-5.19-16.74-3.13-51.78.22-68.99,5.09-26.15,31.7-73.74,82.41-103.3"/>
  <path class="st2" d="M261.13,210.02c3.65,8.5,7.17,17.86,7.11,27.12-.09,13.43-4.63,29.51-13.19,36.37-26.4,21.14-41.02,24.2-73.26,26.47-29.9,2.11-59.52-.96-88.27-9.44-20.37-6.01-45.02-15.76-61.02-28.81-17.02-13.88-28.45-32.99-23.83-53.11,2.92-12.7,14.58-26.74,22.96-36.72,8.37-9.98,16.1-18.85,20.5-31.11,6.4-17.84-3.17-37.95-11.27-55.08-8.62-18.21-8.47-37.52,2.83-52.12,11.29-14.61,30.4-22.51,48.31-27,28.74-7.2,59.37-5.56,87.84,2.68,18.12,5.24,32.92,9.11,49.07,22.82,10.23,8.69,21.43,19.16,22.52,48.49.3,8.15-5.28,25.96-8.35,33.51-4.75,11.68-7.71,25.74-6.64,37.84,1.91,21.52,10.35,24.65,24.7,58.08h-.01,0Z"/>
  <g>
    <path class="st0" d="M254.85,139.39c-2.72,3.79-6.96,4.37-11.64,3.28-23.11.26-46.77,10.2-66.81,20.64,2.64,3.82,2.27,7.54.38,10.96,6.85,5.32,14.2,8.81,22.52,11.26,3.59,1.05,7.51,1.9,9.63,5.33,5.14,8.33-5.24,22.49-9.53,29.11-.41.62-.95.96-1.53,1.1-.53.38-1.23.55-2.06.3-17.93-5.36-34.29-13.93-48.96-25.47-5.16,1.69-10.25,1.6-13.96-2.86-3.7,2.72-7.72,4.66-12.53,4.29-16.26-1.24-36.74-23.06-30.43-40.06,1.55-4.18,5.22-6.78,8.28-9.84,4.28-4.26,8.33-8.74,12.2-13.37,8.28-9.91,15.67-20.57,22.21-31.7,10.21-17.37,20.14-37.46,21.94-57.95-.57-5.21.87-9.6,6.47-11.1,6.49-1.73,14.32,2.83,19.62,5.94,10.81,6.36,20.41,14.76,29.43,23.43.22-.14.43-.3.65-.44,5.94-3.74,11.26-.15,15.52,4.49,4.81,5.25,6.98,10.51,3.54,17.08-.03.05-.06.11-.09.16,9.13,11.26,18.13,23.26,23.68,36.76,2.14,5.21,5.24,13.4,1.47,18.66h0Z"/>
    <path d="M96.43,215.14c.78-1.06-.28-2.57-1.47-2.55-2.18.04-4.36.07-6.54.11-1.21-1.7-2.42-3.4-3.64-5.1-.07-.12-.17-.23-.27-.32-.02-.02-.03-.04-.05-.05-.08-.07-.17-.14-.26-.2-.1-.06-.21-.11-.32-.15-.66-.23-1.44-.12-1.92.46-.28.27-.46.63-.46,1.03-.32,1.04-.64,2.07-.95,3.11-.22.71-.55,1.45-.67,2.18-.02.11-.09.28-.16.44-.16.07-.32.14-.43.16-.68.12-1.39.44-2.05.64-1.22.38-2.44.77-3.66,1.15-1.46.46-1.59,2.27-.41,3.1,1.74,1.22,3.47,2.44,5.21,3.66-.02,2.18-.04,4.35-.06,6.53-.01,1.18,1.49,2.26,2.55,1.47.99-.74,1.97-1.48,2.96-2.22.43-.33,2.04-1.5,2.34-1.87.38.25,2.17.78,2.69.95,1.21.41,2.42.81,3.63,1.22,1.19.4,2.5-.89,2.09-2.09-.4-1.17-.8-2.33-1.2-3.5-.24-.69-.4-1.51-.74-2.16-.07-.14-.13-.47-.18-.72.44-.45,1.4-1.81,1.68-2.18.76-1.03,1.52-2.05,2.28-3.08v-.02h.01Z"/>
    <path d="M253.38,120.73c-5.55-13.5-14.55-25.5-23.68-36.76.03-.05.06-.11.09-.16,3.44-6.57,1.27-11.83-3.54-17.08-4.26-4.64-9.58-8.23-15.52-4.49-.22.14-.43.3-.65.44-9.02-8.67-18.62-17.07-29.43-23.43-5.3-3.11-13.13-7.67-19.62-5.94-5.6,1.5-7.04,5.89-6.47,11.1-1.8,20.49-11.73,40.58-21.94,57.95-6.54,11.13-13.93,21.79-22.21,31.7-3.87,4.63-7.92,9.11-12.2,13.37-3.06,3.06-6.73,5.66-8.28,9.84-6.31,17,14.17,38.82,30.43,40.06,4.81.37,8.83-1.57,12.53-4.29,3.71,4.46,8.8,4.55,13.96,2.86,14.67,11.54,31.03,20.11,48.96,25.47.83.25,1.53.08,2.06-.3.58-.14,1.12-.48,1.53-1.1,4.29-6.62,14.67-20.78,9.53-29.11-2.12-3.43-6.04-4.28-9.63-5.33-8.32-2.45-15.67-5.94-22.52-11.26,1.89-3.42,2.26-7.14-.38-10.96,20.04-10.44,43.7-20.38,66.81-20.64,4.68,1.09,8.92.51,11.64-3.28,3.77-5.26.67-13.45-1.47-18.66h0ZM201.73,76.18c6.08-5.03,14.15-15.32,21.82-4.88,6.21,8.46-2.19,15.94-6.49,22.28l-11.49,16.92c-3.26-3.14-6.43-6.37-9.5-9.66-3.51-3.75-6.93-7.6-10.21-11.55,5.29-4.37,10.58-8.74,15.87-13.11h0ZM125.54,191.66c-6.41,2.48-14.16-2.04-18.96-6.03-5.18-4.3-9.66-10.27-11.57-16.8-2.22-7.6.6-11.7,5.9-16.91.53-.52,1.03-1.07,1.55-1.6,5.53,15.68,16.85,27.9,31.97,34.81-2.86,2.65-5.87,5.36-8.89,6.53h0ZM145.09,191.38c-3.11.95-6.09.85-8.24-1.57,2.56-2.26,5.04-4.64,7.6-6.56,4.98-3.72,10.13-7.23,15.41-10.52,2.72,2.5,3.42,6,1.52,9.29-.02.03-.03.05-.04.08-1.73,1.09-3.23,1.97-4.13,2.54-2.38,1.51-6.02,4.18-9.74,5.84-.91-.1-1.79.28-2.38.9h0ZM200.89,207.85v.04c-1.53,2.85-3.34,5.62-5,8.16-15.87-4.9-30.52-12.41-43.71-22.43,3.76-1.94,7.31-4.36,10.11-6.19.55-.36,1.13-.74,1.73-1.14.02,0,.04.04.07.05,5.9,3.63,11.97,6.86,18.34,9.57,4.87,2.08,19.34,4.48,18.47,11.94h-.01ZM164.35,170.05c2.49-1.48,5-2.91,7.54-4.29,3.1,4.02-.11,8.38-4.41,11.97-.1-2.8-1.15-5.5-3.13-7.68h0ZM195.36,189.71c6.11,1.89,10.61,2.66,8.55,10.83-1.88-2.26-4.8-3.82-7.9-5-9.58-3.64-18.68-7.32-27.49-12.49,1.86-1.44,3.69-3.02,5.26-4.73,6.55,5.01,13.66,8.94,21.58,11.39ZM195.72,148.89c-20.1,8.03-39.27,18.7-56.42,31.93-.28.22-.57.47-.86.72-.21-.17-.43-.33-.71-.44-15.17-6.34-26.38-18.92-31.19-34.6-.03-.09-.07-.17-.11-.25,13.49-14.36,24.98-30.76,34.37-48.01,4.45-8.18,8.73-16.87,12.12-25.86,4.66,13.31,14.66,24.26,23.91,34.69,11.29,12.73,23.51,24.55,36.43,35.62-6,1.8-11.87,3.94-17.54,6.2h0ZM219.1,141.06s-.05-.06-.08-.08c-12.2-10.31-23.79-21.29-34.58-33.07-11.12-12.12-24.14-25.28-28.06-41.72-.15-.63-.47-1.08-.87-1.37.93-3.01,1.75-6.03,2.41-9.08,2.08,4.78,4.57,9.09,5.96,11.44,13.73,23.38,33.21,44.73,54.67,61.21,2.78,2.13,8.31,6.51,14.38,9.95-4.64.61-9.27,1.54-13.83,2.72h0Z"/>
  </g>
</svg>