<?xml version="1.0" encoding="UTF-8"?>
<svg id="Layer_1" data-name="Layer 1" xmlns="http://www.w3.org/2000/svg" viewBox="0 0 410 373.39">
  <defs>
    <style>
      .cls-1 {
        fill: #fff;
      }

      .cls-2 {
        fill: #f2c316;
      }

      .cls-3 {
        fill: none;
        stroke: #000;
        stroke-miterlimit: 10;
        stroke-width: 3px;
      }
    </style>
  </defs>
  <path class="cls-2" d="M28.41,251.07c4.44,7.1,9.54,13.69,15.56,19.51,10.76,10.41,12.98,14.36,26.45,25.37,7.4,6.05,17.17,12.78,22.61,16.98,18.85,14.57,39.85,28.36,60.85,39.61,14.8,7.93,30.22,14.06,46.53,18.01,16.89,4.09,31.9,3.28,48.42-6.64,17.51-10.52,26.6-28.71,41.97-39.59,21.81-15.43,42.5-27.49,64.72-41.86s43.32-32.28,51.58-58.32c3.61-11.37,2.73-21.68-.63-31.59-4.77-14.03-12.53-23.29-24.83-32.93-47.87-37.52-121.19-71.73-162.92-77.86-62.63-9.2-123.64.77-171.88,39.39-9.77,7.82-15.16,14.08-22.59,23.64s-12.35,19.25-14.8,33.1c-4.42,25.01,2.26,46.46,18.97,73.18h0Z"/>
  <path class="cls-3" d="M216.17,353.63c-8.37.1-16.67-.62-24.82-2.54-14.57-3.43-19.09-3.16-35.64-8.53-9.09-2.95-20.03-7.54-26.51-9.84-22.45-7.98-45.4-18.19-66.22-29.78-14.67-8.16-28.16-17.82-40.3-29.41-12.57-12-20.01-25.06-20.59-44.33-.61-20.42,9.78-37.9,10.62-56.71,1.19-26.69.15-50.62.23-77.07.08-27.16,3.74-53.89,21.18-74.92,7.62-9.19,16.77-14.02,26.92-16.54,14.38-3.57,26.37-2.05,41.13,3.09,57.44,19.99,125.86,63.18,153.57,94.98,41.59,47.72,66.19,104.43,59.79,165.89-1.3,12.44-3.65,20.36-7.67,31.78-3.84,10.9-9.52,20.8-19.84,30.34-18.66,17.24-40.31,23.21-71.82,23.6h-.03Z"/>
  <g>
    <path class="cls-1" d="M341.83,258.57c-15.5,16.94-34.83,28.61-56.04,34.19-.46.55-1.03,1.05-1.74,1.33-7.45,2.74-15.23,4.75-23.26,6.01-5.56.87-11.28,1.4-17.1,1.52-68.99,1.72-129.1-58.45-133.98-134.11-3-46.98,15.76-90.79,50.23-117.13,6.76-5.19,13.48-8.05,20.59-11.05,2.56-1.11,5.18-2.21,7.92-3.49.76-.36,1.58-.39,2.38-.27,15.72-8.58,33.27-13.38,51.49-13.82,69-1.68,129.11,58.49,133.98,134.12,2.47,38.59-10.08,76.03-34.47,102.7h0Z"/>
    <g>
      <path d="M196.07,198.57l-2.19-10.07c-.14-.66-.55-1.28-1.15-1.63s-1.3-.48-1.98-.27l-16.91,4.53c-.71.22-1.29.68-1.63,1.35-.31.66-.32,1.42-.05,2.09l3.94,9.21c.45,1.09,1.57,1.7,2.7,1.52.06,0,.13-.02.23-.07l15.16-3.67c1.34-.35,2.16-1.67,1.88-2.99h0ZM179.89,199.84l-1.92-4.58,11.53-3.11,1.1,5.06-10.71,2.63ZM235.78,80.74l-4.99-16.8c-.19-.72-.72-1.28-1.38-1.59-.66-.3-1.41-.29-2.08.02l-9.11,4.16c-1.11.52-1.7,1.77-1.38,2.95l4.08,15.1c.36,1.24,1.57,2,2.84,1.8l.2-.03,10-2.42c.69-.18,1.27-.61,1.62-1.21.31-.6.4-1.33.2-1.98ZM225.18,80.87l-2.9-10.64,4.49-2.07,3.41,11.48-5,1.23ZM286.01,245.24l-4.99-16.79c-.22-.72-.72-1.29-1.38-1.6-.7-.3-1.44-.28-2.12,0l-9.1,4.19c-1.12.48-1.7,1.77-1.38,2.95l4.1,15.06c.34,1.27,1.55,2.04,2.82,1.84l.2-.03,10.02-2.46c.66-.14,1.24-.57,1.59-1.17.35-.6.41-1.33.24-1.99h0ZM275.37,245.34l-2.89-10.6,4.49-2.07,3.41,11.48-5.01,1.19h0ZM328.02,145.8l-2.16-10.04c-.17-.69-.57-1.28-1.17-1.63-.58-.38-1.31-.47-1.96-.3l-16.93,4.57c-.69.17-1.3.68-1.6,1.34-.35.64-.36,1.42-.08,2.1l3.94,9.21c.43,1.06,1.59,1.66,2.72,1.48l.2-.03,15.19-3.71c1.32-.31,2.13-1.64,1.85-2.99ZM311.87,147.07l-1.94-4.54,11.53-3.11,1.1,5.05-10.69,2.6ZM328.02,145.8l-2.16-10.04c-.17-.69-.57-1.28-1.17-1.63-.58-.38-1.31-.47-1.96-.3l-16.93,4.57c-.69.17-1.3.68-1.6,1.34-.35.64-.36,1.42-.08,2.1l3.94,9.21c.43,1.06,1.59,1.66,2.72,1.48l.2-.03,15.19-3.71c1.32-.31,2.13-1.64,1.85-2.99ZM311.87,147.07l-1.94-4.54,11.53-3.11,1.1,5.05-10.69,2.6ZM286.01,245.24l-4.99-16.79c-.22-.72-.72-1.29-1.38-1.6-.7-.3-1.44-.28-2.12,0l-9.1,4.19c-1.12.48-1.7,1.77-1.38,2.95l4.1,15.06c.34,1.27,1.55,2.04,2.82,1.84l.2-.03,10.02-2.46c.66-.14,1.24-.57,1.59-1.17.35-.6.41-1.33.24-1.99h0ZM275.37,245.34l-2.89-10.6,4.49-2.07,3.41,11.48-5.01,1.19h0ZM235.78,80.74l-4.99-16.8c-.19-.72-.72-1.28-1.38-1.59-.66-.3-1.41-.29-2.08.02l-9.11,4.16c-1.11.52-1.7,1.77-1.38,2.95l4.08,15.1c.36,1.24,1.57,2,2.84,1.8l.2-.03,10-2.42c.69-.18,1.27-.61,1.62-1.21.31-.6.4-1.33.2-1.98ZM225.18,80.87l-2.9-10.64,4.49-2.07,3.41,11.48-5,1.23ZM196.07,198.57l-2.19-10.07c-.14-.66-.55-1.28-1.15-1.63s-1.3-.48-1.98-.27l-16.91,4.53c-.71.22-1.29.68-1.63,1.35-.31.66-.32,1.42-.05,2.09l3.94,9.21c.45,1.09,1.57,1.7,2.7,1.52.06,0,.13-.02.23-.07l15.16-3.67c1.34-.35,2.16-1.67,1.88-2.99h0ZM179.89,199.84l-1.92-4.58,11.53-3.11,1.1,5.06-10.71,2.63ZM196.07,198.57l-2.19-10.07c-.14-.66-.55-1.28-1.15-1.63s-1.3-.48-1.98-.27l-16.91,4.53c-.71.22-1.29.68-1.63,1.35-.31.66-.32,1.42-.05,2.09l3.94,9.21c.45,1.09,1.57,1.7,2.7,1.52.06,0,.13-.02.23-.07l15.16-3.67c1.34-.35,2.16-1.67,1.88-2.99h0ZM179.89,199.84l-1.92-4.58,11.53-3.11,1.1,5.06-10.71,2.63ZM235.78,80.74l-4.99-16.8c-.19-.72-.72-1.28-1.38-1.59-.66-.3-1.41-.29-2.08.02l-9.11,4.16c-1.11.52-1.7,1.77-1.38,2.95l4.08,15.1c.36,1.24,1.57,2,2.84,1.8l.2-.03,10-2.42c.69-.18,1.27-.61,1.62-1.21.31-.6.4-1.33.2-1.98ZM225.18,80.87l-2.9-10.64,4.49-2.07,3.41,11.48-5,1.23ZM286.01,245.24l-4.99-16.79c-.22-.72-.72-1.29-1.38-1.6-.7-.3-1.44-.28-2.12,0l-9.1,4.19c-1.12.48-1.7,1.77-1.38,2.95l4.1,15.06c.34,1.27,1.55,2.04,2.82,1.84l.2-.03,10.02-2.46c.66-.14,1.24-.57,1.59-1.17.35-.6.41-1.33.24-1.99h0ZM275.37,245.34l-2.89-10.6,4.49-2.07,3.41,11.48-5.01,1.19h0ZM328.02,145.8l-2.16-10.04c-.17-.69-.57-1.28-1.17-1.63-.58-.38-1.31-.47-1.96-.3l-16.93,4.57c-.69.17-1.3.68-1.6,1.34-.35.64-.36,1.42-.08,2.1l3.94,9.21c.43,1.06,1.59,1.66,2.72,1.48l.2-.03,15.19-3.71c1.32-.31,2.13-1.64,1.85-2.99ZM311.87,147.07l-1.94-4.54,11.53-3.11,1.1,5.05-10.69,2.6ZM328.02,145.8l-2.16-10.04c-.17-.69-.57-1.28-1.17-1.63-.58-.38-1.31-.47-1.96-.3l-16.93,4.57c-.69.17-1.3.68-1.6,1.34-.35.64-.36,1.42-.08,2.1l3.94,9.21c.43,1.06,1.59,1.66,2.72,1.48l.2-.03,15.19-3.71c1.32-.31,2.13-1.64,1.85-2.99ZM311.87,147.07l-1.94-4.54,11.53-3.11,1.1,5.05-10.69,2.6ZM281.02,228.45c-.22-.72-.72-1.29-1.38-1.6-.7-.3-1.44-.28-2.12,0l-9.1,4.19c-1.12.48-1.7,1.77-1.38,2.95l4.1,15.06c.34,1.27,1.55,2.04,2.82,1.84l.2-.03,10.02-2.46c.66-.14,1.24-.57,1.59-1.17.35-.6.41-1.33.24-1.99l-4.99-16.79h0ZM275.37,245.34l-2.89-10.6,4.49-2.07,3.41,11.48-5.01,1.19h0ZM230.79,63.94c-.19-.72-.72-1.28-1.38-1.59-.66-.3-1.41-.29-2.08.02l-9.11,4.16c-1.11.52-1.7,1.77-1.38,2.95l4.08,15.1c.36,1.24,1.57,2,2.84,1.8l.2-.03,10-2.42c.69-.18,1.27-.61,1.62-1.21.31-.6.4-1.33.2-1.98,0,0-4.99-16.8-4.99-16.8ZM225.18,80.87l-2.9-10.64,4.49-2.07,3.41,11.48-5,1.23ZM193.88,188.5c-.14-.66-.55-1.28-1.15-1.63s-1.3-.48-1.98-.27l-16.91,4.53c-.71.22-1.29.68-1.63,1.35-.31.66-.32,1.42-.05,2.09l3.94,9.21c.45,1.09,1.57,1.7,2.7,1.52.06,0,.13-.02.23-.07l15.16-3.67c1.34-.35,2.16-1.67,1.88-2.99l-2.19-10.07ZM179.89,199.84l-1.92-4.58,11.53-3.11,1.1,5.06-10.71,2.63ZM352.87,156.44c-3.94-61.44-52.78-110.3-108.89-108.94-25.47.62-49.19,11.58-66.82,30.84-19.81,21.64-30.02,52.06-28,83.42,3.94,61.44,52.79,110.33,108.89,108.93,4.08-.09,8.16-.46,12.12-1.08,20.82-3.27,39.93-13.57,54.7-29.72,19.81-21.67,30.02-52.09,28-83.45h0ZM310.28,242.22c-14.86,12.54-33.1,19.6-52.46,20.05-51.62,1.27-96.59-44.07-100.24-101.05-1.87-29.06,7.54-57.2,25.8-77.2,10.9-11.92,24.39-20.32,39.14-24.68,3.86-.61,7.79-1.02,11.74-1.13,53.15-1.28,99.48,45.32,103.25,103.92,1.96,30.31-8.16,59.55-27.23,80.09h0ZM339.06,199.16c3.08-11.92,4.34-24.54,3.52-37.35-3.11-47.88-33.49-88.11-73.27-102.75,40.35,11.07,72.09,50.43,75.14,97.92.96,14.59-.94,28.99-5.39,42.18ZM325.86,135.76c-.17-.69-.57-1.28-1.17-1.63-.58-.38-1.31-.47-1.96-.3l-16.93,4.57c-.69.17-1.3.68-1.6,1.34-.35.64-.36,1.42-.08,2.1l3.94,9.21c.43,1.06,1.59,1.66,2.72,1.48l.2-.03,15.19-3.71c1.32-.31,2.13-1.64,1.85-2.99l-2.16-10.04h0ZM311.87,147.07l-1.94-4.54,11.53-3.11,1.1,5.05-10.69,2.6ZM281.02,228.45c-.22-.72-.72-1.29-1.38-1.6-.7-.3-1.44-.28-2.12,0l-9.1,4.19c-1.12.48-1.7,1.77-1.38,2.95l4.1,15.06c.34,1.27,1.55,2.04,2.82,1.84l.2-.03,10.02-2.46c.66-.14,1.24-.57,1.59-1.17.35-.6.41-1.33.24-1.99l-4.99-16.79h0ZM275.37,245.34l-2.89-10.6,4.49-2.07,3.41,11.48-5.01,1.19h0ZM230.79,63.94c-.19-.72-.72-1.28-1.38-1.59-.66-.3-1.41-.29-2.08.02l-9.11,4.16c-1.11.52-1.7,1.77-1.38,2.95l4.08,15.1c.36,1.24,1.57,2,2.84,1.8l.2-.03,10-2.42c.69-.18,1.27-.61,1.62-1.21.31-.6.4-1.33.2-1.98,0,0-4.99-16.8-4.99-16.8ZM225.18,80.87l-2.9-10.64,4.49-2.07,3.41,11.48-5,1.23ZM193.88,188.5c-.14-.66-.55-1.28-1.15-1.63s-1.3-.48-1.98-.27l-16.91,4.53c-.71.22-1.29.68-1.63,1.35-.31.66-.32,1.42-.05,2.09l3.94,9.21c.45,1.09,1.57,1.7,2.7,1.52.06,0,.13-.02.23-.07l15.16-3.67c1.34-.35,2.16-1.67,1.88-2.99l-2.19-10.07ZM179.89,199.84l-1.92-4.58,11.53-3.11,1.1,5.06-10.71,2.63ZM196.07,198.57l-2.19-10.07c-.14-.66-.55-1.28-1.15-1.63s-1.3-.48-1.98-.27l-16.91,4.53c-.71.22-1.29.68-1.63,1.35-.31.66-.32,1.42-.05,2.09l3.94,9.21c.45,1.09,1.57,1.7,2.7,1.52.06,0,.13-.02.23-.07l15.16-3.67c1.34-.35,2.16-1.67,1.88-2.99h0ZM179.89,199.84l-1.92-4.58,11.53-3.11,1.1,5.06-10.71,2.63ZM235.78,80.74l-4.99-16.8c-.19-.72-.72-1.28-1.38-1.59-.66-.3-1.41-.29-2.08.02l-9.11,4.16c-1.11.52-1.7,1.77-1.38,2.95l4.08,15.1c.36,1.24,1.57,2,2.84,1.8l.2-.03,10-2.42c.69-.18,1.27-.61,1.62-1.21.31-.6.4-1.33.2-1.98ZM225.18,80.87l-2.9-10.64,4.49-2.07,3.41,11.48-5,1.23ZM286.01,245.24l-4.99-16.79c-.22-.72-.72-1.29-1.38-1.6-.7-.3-1.44-.28-2.12,0l-9.1,4.19c-1.12.48-1.7,1.77-1.38,2.95l4.1,15.06c.34,1.27,1.55,2.04,2.82,1.84l.2-.03,10.02-2.46c.66-.14,1.24-.57,1.59-1.17.35-.6.41-1.33.24-1.99h0ZM275.37,245.34l-2.89-10.6,4.49-2.07,3.41,11.48-5.01,1.19h0ZM328.02,145.8l-2.16-10.04c-.17-.69-.57-1.28-1.17-1.63-.58-.38-1.31-.47-1.96-.3l-16.93,4.57c-.69.17-1.3.68-1.6,1.34-.35.64-.36,1.42-.08,2.1l3.94,9.21c.43,1.06,1.59,1.66,2.72,1.48l.2-.03,15.19-3.71c1.32-.31,2.13-1.64,1.85-2.99ZM311.87,147.07l-1.94-4.54,11.53-3.11,1.1,5.05-10.69,2.6ZM328.02,145.8l-2.16-10.04c-.17-.69-.57-1.28-1.17-1.63-.58-.38-1.31-.47-1.96-.3l-16.93,4.57c-.69.17-1.3.68-1.6,1.34-.35.64-.36,1.42-.08,2.1l3.94,9.21c.43,1.06,1.59,1.66,2.72,1.48l.2-.03,15.19-3.71c1.32-.31,2.13-1.64,1.85-2.99ZM311.87,147.07l-1.94-4.54,11.53-3.11,1.1,5.05-10.69,2.6ZM286.01,245.24l-4.99-16.79c-.22-.72-.72-1.29-1.38-1.6-.7-.3-1.44-.28-2.12,0l-9.1,4.19c-1.12.48-1.7,1.77-1.38,2.95l4.1,15.06c.34,1.27,1.55,2.04,2.82,1.84l.2-.03,10.02-2.46c.66-.14,1.24-.57,1.59-1.17.35-.6.41-1.33.24-1.99h0ZM275.37,245.34l-2.89-10.6,4.49-2.07,3.41,11.48-5.01,1.19h0ZM235.78,80.74l-4.99-16.8c-.19-.72-.72-1.28-1.38-1.59-.66-.3-1.41-.29-2.08.02l-9.11,4.16c-1.11.52-1.7,1.77-1.38,2.95l4.08,15.1c.36,1.24,1.57,2,2.84,1.8l.2-.03,10-2.42c.69-.18,1.27-.61,1.62-1.21.31-.6.4-1.33.2-1.98ZM225.18,80.87l-2.9-10.64,4.49-2.07,3.41,11.48-5,1.23ZM196.07,198.57l-2.19-10.07c-.14-.66-.55-1.28-1.15-1.63s-1.3-.48-1.98-.27l-16.91,4.53c-.71.22-1.29.68-1.63,1.35-.31.66-.32,1.42-.05,2.09l3.94,9.21c.45,1.09,1.57,1.7,2.7,1.52.06,0,.13-.02.23-.07l15.16-3.67c1.34-.35,2.16-1.67,1.88-2.99h0ZM179.89,199.84l-1.92-4.58,11.53-3.11,1.1,5.06-10.71,2.63ZM196.07,198.57l-2.19-10.07c-.14-.66-.55-1.28-1.15-1.63s-1.3-.48-1.98-.27l-16.91,4.53c-.71.22-1.29.68-1.63,1.35-.31.66-.32,1.42-.05,2.09l3.94,9.21c.45,1.09,1.57,1.7,2.7,1.52.06,0,.13-.02.23-.07l15.16-3.67c1.34-.35,2.16-1.67,1.88-2.99h0ZM179.89,199.84l-1.92-4.58,11.53-3.11,1.1,5.06-10.71,2.63ZM235.78,80.74l-4.99-16.8c-.19-.72-.72-1.28-1.38-1.59-.66-.3-1.41-.29-2.08.02l-9.11,4.16c-1.11.52-1.7,1.77-1.38,2.95l4.08,15.1c.36,1.24,1.57,2,2.84,1.8l.2-.03,10-2.42c.69-.18,1.27-.61,1.62-1.21.31-.6.4-1.33.2-1.98ZM225.18,80.87l-2.9-10.64,4.49-2.07,3.41,11.48-5,1.23ZM286.01,245.24l-4.99-16.79c-.22-.72-.72-1.29-1.38-1.6-.7-.3-1.44-.28-2.12,0l-9.1,4.19c-1.12.48-1.7,1.77-1.38,2.95l4.1,15.06c.34,1.27,1.55,2.04,2.82,1.84l.2-.03,10.02-2.46c.66-.14,1.24-.57,1.59-1.17.35-.6.41-1.33.24-1.99h0ZM275.37,245.34l-2.89-10.6,4.49-2.07,3.41,11.48-5.01,1.19h0ZM328.02,145.8l-2.16-10.04c-.17-.69-.57-1.28-1.17-1.63-.58-.38-1.31-.47-1.96-.3l-16.93,4.57c-.69.17-1.3.68-1.6,1.34-.35.64-.36,1.42-.08,2.1l3.94,9.21c.43,1.06,1.59,1.66,2.72,1.48l.2-.03,15.19-3.71c1.32-.31,2.13-1.64,1.85-2.99ZM311.87,147.07l-1.94-4.54,11.53-3.11,1.1,5.05-10.69,2.6ZM328.02,145.8l-2.16-10.04c-.17-.69-.57-1.28-1.17-1.63-.58-.38-1.31-.47-1.96-.3l-16.93,4.57c-.69.17-1.3.68-1.6,1.34-.35.64-.36,1.42-.08,2.1l3.94,9.21c.43,1.06,1.59,1.66,2.72,1.48l.2-.03,15.19-3.71c1.32-.31,2.13-1.64,1.85-2.99ZM311.87,147.07l-1.94-4.54,11.53-3.11,1.1,5.05-10.69,2.6ZM286.01,245.24l-4.99-16.79c-.22-.72-.72-1.29-1.38-1.6-.7-.3-1.44-.28-2.12,0l-9.1,4.19c-1.12.48-1.7,1.77-1.38,2.95l4.1,15.06c.34,1.27,1.55,2.04,2.82,1.84l.2-.03,10.02-2.46c.66-.14,1.24-.57,1.59-1.17.35-.6.41-1.33.24-1.99h0ZM275.37,245.34l-2.89-10.6,4.49-2.07,3.41,11.48-5.01,1.19h0ZM235.78,80.74l-4.99-16.8c-.19-.72-.72-1.28-1.38-1.59-.66-.3-1.41-.29-2.08.02l-9.11,4.16c-1.11.52-1.7,1.77-1.38,2.95l4.08,15.1c.36,1.24,1.57,2,2.84,1.8l.2-.03,10-2.42c.69-.18,1.27-.61,1.62-1.21.31-.6.4-1.33.2-1.98ZM225.18,80.87l-2.9-10.64,4.49-2.07,3.41,11.48-5,1.23ZM196.07,198.57l-2.19-10.07c-.14-.66-.55-1.28-1.15-1.63s-1.3-.48-1.98-.27l-16.91,4.53c-.71.22-1.29.68-1.63,1.35-.31.66-.32,1.42-.05,2.09l3.94,9.21c.45,1.09,1.57,1.7,2.7,1.52.06,0,.13-.02.23-.07l15.16-3.67c1.34-.35,2.16-1.67,1.88-2.99h0ZM179.89,199.84l-1.92-4.58,11.53-3.11,1.1,5.06-10.71,2.63ZM196.07,198.57l-2.19-10.07c-.14-.66-.55-1.28-1.15-1.63s-1.3-.48-1.98-.27l-16.91,4.53c-.71.22-1.29.68-1.63,1.35-.31.66-.32,1.42-.05,2.09l3.94,9.21c.45,1.09,1.57,1.7,2.7,1.52.06,0,.13-.02.23-.07l15.16-3.67c1.34-.35,2.16-1.67,1.88-2.99h0ZM179.89,199.84l-1.92-4.58,11.53-3.11,1.1,5.06-10.71,2.63ZM235.78,80.74l-4.99-16.8c-.19-.72-.72-1.28-1.38-1.59-.66-.3-1.41-.29-2.08.02l-9.11,4.16c-1.11.52-1.7,1.77-1.38,2.95l4.08,15.1c.36,1.24,1.57,2,2.84,1.8l.2-.03,10-2.42c.69-.18,1.27-.61,1.62-1.21.31-.6.4-1.33.2-1.98ZM225.18,80.87l-2.9-10.64,4.49-2.07,3.41,11.48-5,1.23ZM286.01,245.24l-4.99-16.79c-.22-.72-.72-1.29-1.38-1.6-.7-.3-1.44-.28-2.12,0l-9.1,4.19c-1.12.48-1.7,1.77-1.38,2.95l4.1,15.06c.34,1.27,1.55,2.04,2.82,1.84l.2-.03,10.02-2.46c.66-.14,1.24-.57,1.59-1.17.35-.6.41-1.33.24-1.99h0ZM275.37,245.34l-2.89-10.6,4.49-2.07,3.41,11.48-5.01,1.19h0ZM328.02,145.8l-2.16-10.04c-.17-.69-.57-1.28-1.17-1.63-.58-.38-1.31-.47-1.96-.3l-16.93,4.57c-.69.17-1.3.68-1.6,1.34-.35.64-.36,1.42-.08,2.1l3.94,9.21c.43,1.06,1.59,1.66,2.72,1.48l.2-.03,15.19-3.71c1.32-.31,2.13-1.64,1.85-2.99ZM311.87,147.07l-1.94-4.54,11.53-3.11,1.1,5.05-10.69,2.6ZM328.02,145.8l-2.16-10.04c-.17-.69-.57-1.28-1.17-1.63-.58-.38-1.31-.47-1.96-.3l-16.93,4.57c-.69.17-1.3.68-1.6,1.34-.35.64-.36,1.42-.08,2.1l3.94,9.21c.43,1.06,1.59,1.66,2.72,1.48l.2-.03,15.19-3.71c1.32-.31,2.13-1.64,1.85-2.99ZM311.87,147.07l-1.94-4.54,11.53-3.11,1.1,5.05-10.69,2.6ZM281.02,228.45c-.22-.72-.72-1.29-1.38-1.6-.7-.3-1.44-.28-2.12,0l-9.1,4.19c-1.12.48-1.7,1.77-1.38,2.95l4.1,15.06c.34,1.27,1.55,2.04,2.82,1.84l.2-.03,10.02-2.46c.66-.14,1.24-.57,1.59-1.17.35-.6.41-1.33.24-1.99l-4.99-16.79h0ZM275.37,245.34l-2.89-10.6,4.49-2.07,3.41,11.48-5.01,1.19h0ZM230.79,63.94c-.19-.72-.72-1.28-1.38-1.59-.66-.3-1.41-.29-2.08.02l-9.11,4.16c-1.11.52-1.7,1.77-1.38,2.95l4.08,15.1c.36,1.24,1.57,2,2.84,1.8l.2-.03,10-2.42c.69-.18,1.27-.61,1.62-1.21.31-.6.4-1.33.2-1.98,0,0-4.99-16.8-4.99-16.8ZM225.18,80.87l-2.9-10.64,4.49-2.07,3.41,11.48-5,1.23ZM193.88,188.5c-.14-.66-.55-1.28-1.15-1.63s-1.3-.48-1.98-.27l-16.91,4.53c-.71.22-1.29.68-1.63,1.35-.31.66-.32,1.42-.05,2.09l3.94,9.21c.45,1.09,1.57,1.7,2.7,1.52.06,0,.13-.02.23-.07l15.16-3.67c1.34-.35,2.16-1.67,1.88-2.99l-2.19-10.07ZM179.89,199.84l-1.92-4.58,11.53-3.11,1.1,5.06-10.71,2.63ZM352.87,156.44c-3.94-61.44-52.78-110.3-108.89-108.94-25.47.62-49.19,11.58-66.82,30.84-19.81,21.64-30.02,52.06-28,83.42,3.94,61.44,52.79,110.33,108.89,108.93,4.08-.09,8.16-.46,12.12-1.08,20.82-3.27,39.93-13.57,54.7-29.72,19.81-21.67,30.02-52.09,28-83.45h0ZM310.28,242.22c-14.86,12.54-33.1,19.6-52.46,20.05-51.62,1.27-96.59-44.07-100.24-101.05-1.87-29.06,7.54-57.2,25.8-77.2,10.9-11.92,24.39-20.32,39.14-24.68,3.86-.61,7.79-1.02,11.74-1.13,53.15-1.28,99.48,45.32,103.25,103.92,1.96,30.31-8.16,59.55-27.23,80.09h0ZM339.06,199.16c3.08-11.92,4.34-24.54,3.52-37.35-3.11-47.88-33.49-88.11-73.27-102.75,40.35,11.07,72.09,50.43,75.14,97.92.96,14.59-.94,28.99-5.39,42.18ZM325.86,135.76c-.17-.69-.57-1.28-1.17-1.63-.58-.38-1.31-.47-1.96-.3l-16.93,4.57c-.69.17-1.3.68-1.6,1.34-.35.64-.36,1.42-.08,2.1l3.94,9.21c.43,1.06,1.59,1.66,2.72,1.48l.2-.03,15.19-3.71c1.32-.31,2.13-1.64,1.85-2.99l-2.16-10.04h0ZM311.87,147.07l-1.94-4.54,11.53-3.11,1.1,5.05-10.69,2.6ZM281.02,228.45c-.22-.72-.72-1.29-1.38-1.6-.7-.3-1.44-.28-2.12,0l-9.1,4.19c-1.12.48-1.7,1.77-1.38,2.95l4.1,15.06c.34,1.27,1.55,2.04,2.82,1.84l.2-.03,10.02-2.46c.66-.14,1.24-.57,1.59-1.17.35-.6.41-1.33.24-1.99l-4.99-16.79h0ZM275.37,245.34l-2.89-10.6,4.49-2.07,3.41,11.48-5.01,1.19h0ZM230.79,63.94c-.19-.72-.72-1.28-1.38-1.59-.66-.3-1.41-.29-2.08.02l-9.11,4.16c-1.11.52-1.7,1.77-1.38,2.95l4.08,15.1c.36,1.24,1.57,2,2.84,1.8l.2-.03,10-2.42c.69-.18,1.27-.61,1.62-1.21.31-.6.4-1.33.2-1.98,0,0-4.99-16.8-4.99-16.8ZM225.18,80.87l-2.9-10.64,4.49-2.07,3.41,11.48-5,1.23ZM193.88,188.5c-.14-.66-.55-1.28-1.15-1.63s-1.3-.48-1.98-.27l-16.91,4.53c-.71.22-1.29.68-1.63,1.35-.31.66-.32,1.42-.05,2.09l3.94,9.21c.45,1.09,1.57,1.7,2.7,1.52.06,0,.13-.02.23-.07l15.16-3.67c1.34-.35,2.16-1.67,1.88-2.99l-2.19-10.07ZM179.89,199.84l-1.92-4.58,11.53-3.11,1.1,5.06-10.71,2.63ZM196.07,198.57l-2.19-10.07c-.14-.66-.55-1.28-1.15-1.63s-1.3-.48-1.98-.27l-16.91,4.53c-.71.22-1.29.68-1.63,1.35-.31.66-.32,1.42-.05,2.09l3.94,9.21c.45,1.09,1.57,1.7,2.7,1.52.06,0,.13-.02.23-.07l15.16-3.67c1.34-.35,2.16-1.67,1.88-2.99h0ZM179.89,199.84l-1.92-4.58,11.53-3.11,1.1,5.06-10.71,2.63ZM235.78,80.74l-4.99-16.8c-.19-.72-.72-1.28-1.38-1.59-.66-.3-1.41-.29-2.08.02l-9.11,4.16c-1.11.52-1.7,1.77-1.38,2.95l4.08,15.1c.36,1.24,1.57,2,2.84,1.8l.2-.03,10-2.42c.69-.18,1.27-.61,1.62-1.21.31-.6.4-1.33.2-1.98ZM225.18,80.87l-2.9-10.64,4.49-2.07,3.41,11.48-5,1.23ZM286.01,245.24l-4.99-16.79c-.22-.72-.72-1.29-1.38-1.6-.7-.3-1.44-.28-2.12,0l-9.1,4.19c-1.12.48-1.7,1.77-1.38,2.95l4.1,15.06c.34,1.27,1.55,2.04,2.82,1.84l.2-.03,10.02-2.46c.66-.14,1.24-.57,1.59-1.17.35-.6.41-1.33.24-1.99h0ZM275.37,245.34l-2.89-10.6,4.49-2.07,3.41,11.48-5.01,1.19h0ZM328.02,145.8l-2.16-10.04c-.17-.69-.57-1.28-1.17-1.63-.58-.38-1.31-.47-1.96-.3l-16.93,4.57c-.69.17-1.3.68-1.6,1.34-.35.64-.36,1.42-.08,2.1l3.94,9.21c.43,1.06,1.59,1.66,2.72,1.48l.2-.03,15.19-3.71c1.32-.31,2.13-1.64,1.85-2.99ZM311.87,147.07l-1.94-4.54,11.53-3.11,1.1,5.05-10.69,2.6ZM328.02,145.8l-2.16-10.04c-.17-.69-.57-1.28-1.17-1.63-.58-.38-1.31-.47-1.96-.3l-16.93,4.57c-.69.17-1.3.68-1.6,1.34-.35.64-.36,1.42-.08,2.1l3.94,9.21c.43,1.06,1.59,1.66,2.72,1.48l.2-.03,15.19-3.71c1.32-.31,2.13-1.64,1.85-2.99ZM311.87,147.07l-1.94-4.54,11.53-3.11,1.1,5.05-10.69,2.6ZM286.01,245.24l-4.99-16.79c-.22-.72-.72-1.29-1.38-1.6-.7-.3-1.44-.28-2.12,0l-9.1,4.19c-1.12.48-1.7,1.77-1.38,2.95l4.1,15.06c.34,1.27,1.55,2.04,2.82,1.84l.2-.03,10.02-2.46c.66-.14,1.24-.57,1.59-1.17.35-.6.41-1.33.24-1.99h0ZM275.37,245.34l-2.89-10.6,4.49-2.07,3.41,11.48-5.01,1.19h0ZM235.78,80.74l-4.99-16.8c-.19-.72-.72-1.28-1.38-1.59-.66-.3-1.41-.29-2.08.02l-9.11,4.16c-1.11.52-1.7,1.77-1.38,2.95l4.08,15.1c.36,1.24,1.57,2,2.84,1.8l.2-.03,10-2.42c.69-.18,1.27-.61,1.62-1.21.31-.6.4-1.33.2-1.98ZM225.18,80.87l-2.9-10.64,4.49-2.07,3.41,11.48-5,1.23ZM196.07,198.57l-2.19-10.07c-.14-.66-.55-1.28-1.15-1.63s-1.3-.48-1.98-.27l-16.91,4.53c-.71.22-1.29.68-1.63,1.35-.31.66-.32,1.42-.05,2.09l3.94,9.21c.45,1.09,1.57,1.7,2.7,1.52.06,0,.13-.02.23-.07l15.16-3.67c1.34-.35,2.16-1.67,1.88-2.99h0ZM179.89,199.84l-1.92-4.58,11.53-3.11,1.1,5.06-10.71,2.63ZM196.07,198.57l-2.19-10.07c-.14-.66-.55-1.28-1.15-1.63s-1.3-.48-1.98-.27l-16.91,4.53c-.71.22-1.29.68-1.63,1.35-.31.66-.32,1.42-.05,2.09l3.94,9.21c.45,1.09,1.57,1.7,2.7,1.52.06,0,.13-.02.23-.07l15.16-3.67c1.34-.35,2.16-1.67,1.88-2.99h0ZM179.89,199.84l-1.92-4.58,11.53-3.11,1.1,5.06-10.71,2.63ZM235.78,80.74l-4.99-16.8c-.19-.72-.72-1.28-1.38-1.59-.66-.3-1.41-.29-2.08.02l-9.11,4.16c-1.11.52-1.7,1.77-1.38,2.95l4.08,15.1c.36,1.24,1.57,2,2.84,1.8l.2-.03,10-2.42c.69-.18,1.27-.61,1.62-1.21.31-.6.4-1.33.2-1.98ZM225.18,80.87l-2.9-10.64,4.49-2.07,3.41,11.48-5,1.23ZM286.01,245.24l-4.99-16.79c-.22-.72-.72-1.29-1.38-1.6-.7-.3-1.44-.28-2.12,0l-9.1,4.19c-1.12.48-1.7,1.77-1.38,2.95l4.1,15.06c.34,1.27,1.55,2.04,2.82,1.84l.2-.03,10.02-2.46c.66-.14,1.24-.57,1.59-1.17.35-.6.41-1.33.24-1.99h0ZM275.37,245.34l-2.89-10.6,4.49-2.07,3.41,11.48-5.01,1.19h0ZM328.02,145.8l-2.16-10.04c-.17-.69-.57-1.28-1.17-1.63-.58-.38-1.31-.47-1.96-.3l-16.93,4.57c-.69.17-1.3.68-1.6,1.34-.35.64-.36,1.42-.08,2.1l3.94,9.21c.43,1.06,1.59,1.66,2.72,1.48l.2-.03,15.19-3.71c1.32-.31,2.13-1.64,1.85-2.99ZM311.87,147.07l-1.94-4.54,11.53-3.11,1.1,5.05-10.69,2.6ZM328.02,145.8l-2.16-10.04c-.17-.69-.57-1.28-1.17-1.63-.58-.38-1.31-.47-1.96-.3l-16.93,4.57c-.69.17-1.3.68-1.6,1.34-.35.64-.36,1.42-.08,2.1l3.94,9.21c.43,1.06,1.59,1.66,2.72,1.48l.2-.03,15.19-3.71c1.32-.31,2.13-1.64,1.85-2.99ZM311.87,147.07l-1.94-4.54,11.53-3.11,1.1,5.05-10.69,2.6ZM286.01,245.24l-4.99-16.79c-.22-.72-.72-1.29-1.38-1.6-.7-.3-1.44-.28-2.12,0l-9.1,4.19c-1.12.48-1.7,1.77-1.38,2.95l4.1,15.06c.34,1.27,1.55,2.04,2.82,1.84l.2-.03,10.02-2.46c.66-.14,1.24-.57,1.59-1.17.35-.6.41-1.33.24-1.99h0ZM275.37,245.34l-2.89-10.6,4.49-2.07,3.41,11.48-5.01,1.19h0ZM235.78,80.74l-4.99-16.8c-.19-.72-.72-1.28-1.38-1.59-.66-.3-1.41-.29-2.08.02l-9.11,4.16c-1.11.52-1.7,1.77-1.38,2.95l4.08,15.1c.36,1.24,1.57,2,2.84,1.8l.2-.03,10-2.42c.69-.18,1.27-.61,1.62-1.21.31-.6.4-1.33.2-1.98ZM225.18,80.87l-2.9-10.64,4.49-2.07,3.41,11.48-5,1.23ZM196.07,198.57l-2.19-10.07c-.14-.66-.55-1.28-1.15-1.63s-1.3-.48-1.98-.27l-16.91,4.53c-.71.22-1.29.68-1.63,1.35-.31.66-.32,1.42-.05,2.09l3.94,9.21c.45,1.09,1.57,1.7,2.7,1.52.06,0,.13-.02.23-.07l15.16-3.67c1.34-.35,2.16-1.67,1.88-2.99h0ZM179.89,199.84l-1.92-4.58,11.53-3.11,1.1,5.06-10.71,2.63ZM196.07,198.57l-2.19-10.07c-.14-.66-.55-1.28-1.15-1.63s-1.3-.48-1.98-.27l-16.91,4.53c-.71.22-1.29.68-1.63,1.35-.31.66-.32,1.42-.05,2.09l3.94,9.21c.45,1.09,1.57,1.7,2.7,1.52.06,0,.13-.02.23-.07l15.16-3.67c1.34-.35,2.16-1.67,1.88-2.99h0ZM179.89,199.84l-1.92-4.58,11.53-3.11,1.1,5.06-10.71,2.63ZM235.78,80.74l-4.99-16.8c-.19-.72-.72-1.28-1.38-1.59-.66-.3-1.41-.29-2.08.02l-9.11,4.16c-1.11.52-1.7,1.77-1.38,2.95l4.08,15.1c.36,1.24,1.57,2,2.84,1.8l.2-.03,10-2.42c.69-.18,1.27-.61,1.62-1.21.31-.6.4-1.33.2-1.98ZM225.18,80.87l-2.9-10.64,4.49-2.07,3.41,11.48-5,1.23ZM286.01,245.24l-4.99-16.79c-.22-.72-.72-1.29-1.38-1.6-.7-.3-1.44-.28-2.12,0l-9.1,4.19c-1.12.48-1.7,1.77-1.38,2.95l4.1,15.06c.34,1.27,1.55,2.04,2.82,1.84l.2-.03,10.02-2.46c.66-.14,1.24-.57,1.59-1.17.35-.6.41-1.33.24-1.99h0ZM275.37,245.34l-2.89-10.6,4.49-2.07,3.41,11.48-5.01,1.19h0ZM328.02,145.8l-2.16-10.04c-.17-.69-.57-1.28-1.17-1.63-.58-.38-1.31-.47-1.96-.3l-16.93,4.57c-.69.17-1.3.68-1.6,1.34-.35.64-.36,1.42-.08,2.1l3.94,9.21c.43,1.06,1.59,1.66,2.72,1.48l.2-.03,15.19-3.71c1.32-.31,2.13-1.64,1.85-2.99ZM311.87,147.07l-1.94-4.54,11.53-3.11,1.1,5.05-10.69,2.6ZM328.02,145.8l-2.16-10.04c-.17-.69-.57-1.28-1.17-1.63-.58-.38-1.31-.47-1.96-.3l-16.93,4.57c-.69.17-1.3.68-1.6,1.34-.35.64-.36,1.42-.08,2.1l3.94,9.21c.43,1.06,1.59,1.66,2.72,1.48l.2-.03,15.19-3.71c1.32-.31,2.13-1.64,1.85-2.99ZM311.87,147.07l-1.94-4.54,11.53-3.11,1.1,5.05-10.69,2.6ZM281.02,228.45c-.22-.72-.72-1.29-1.38-1.6-.7-.3-1.44-.28-2.12,0l-9.1,4.19c-1.12.48-1.7,1.77-1.38,2.95l4.1,15.06c.34,1.27,1.55,2.04,2.82,1.84l.2-.03,10.02-2.46c.66-.14,1.24-.57,1.59-1.17.35-.6.41-1.33.24-1.99l-4.99-16.79h0ZM275.37,245.34l-2.89-10.6,4.49-2.07,3.41,11.48-5.01,1.19h0ZM230.79,63.94c-.19-.72-.72-1.28-1.38-1.59-.66-.3-1.41-.29-2.08.02l-9.11,4.16c-1.11.52-1.7,1.77-1.38,2.95l4.08,15.1c.36,1.24,1.57,2,2.84,1.8l.2-.03,10-2.42c.69-.18,1.27-.61,1.62-1.21.31-.6.4-1.33.2-1.98,0,0-4.99-16.8-4.99-16.8ZM225.18,80.87l-2.9-10.64,4.49-2.07,3.41,11.48-5,1.23ZM193.88,188.5c-.14-.66-.55-1.28-1.15-1.63s-1.3-.48-1.98-.27l-16.91,4.53c-.71.22-1.29.68-1.63,1.35-.31.66-.32,1.42-.05,2.09l3.94,9.21c.45,1.09,1.57,1.7,2.7,1.52.06,0,.13-.02.23-.07l15.16-3.67c1.34-.35,2.16-1.67,1.88-2.99l-2.19-10.07ZM179.89,199.84l-1.92-4.58,11.53-3.11,1.1,5.06-10.71,2.63ZM352.87,156.44c-3.94-61.44-52.78-110.3-108.89-108.94-25.47.62-49.19,11.58-66.82,30.84-19.81,21.64-30.02,52.06-28,83.42,3.94,61.44,52.79,110.33,108.89,108.93,4.08-.09,8.16-.46,12.12-1.08,20.82-3.27,39.93-13.57,54.7-29.72,19.81-21.67,30.02-52.09,28-83.45h0ZM310.28,242.22c-14.86,12.54-33.1,19.6-52.46,20.05-51.62,1.27-96.59-44.07-100.24-101.05-1.87-29.06,7.54-57.2,25.8-77.2,10.9-11.92,24.39-20.32,39.14-24.68,3.86-.61,7.79-1.02,11.74-1.13,53.15-1.28,99.48,45.32,103.25,103.92,1.96,30.31-8.16,59.55-27.23,80.09h0ZM339.06,199.16c3.08-11.92,4.34-24.54,3.52-37.35-3.11-47.88-33.49-88.11-73.27-102.75,40.35,11.07,72.09,50.43,75.14,97.92.96,14.59-.94,28.99-5.39,42.18ZM325.86,135.76c-.17-.69-.57-1.28-1.17-1.63-.58-.38-1.31-.47-1.96-.3l-16.93,4.57c-.69.17-1.3.68-1.6,1.34-.35.64-.36,1.42-.08,2.1l3.94,9.21c.43,1.06,1.59,1.66,2.72,1.48l.2-.03,15.19-3.71c1.32-.31,2.13-1.64,1.85-2.99l-2.16-10.04h0ZM311.87,147.07l-1.94-4.54,11.53-3.11,1.1,5.05-10.69,2.6ZM281.02,228.45c-.22-.72-.72-1.29-1.38-1.6-.7-.3-1.44-.28-2.12,0l-9.1,4.19c-1.12.48-1.7,1.77-1.38,2.95l4.1,15.06c.34,1.27,1.55,2.04,2.82,1.84l.2-.03,10.02-2.46c.66-.14,1.24-.57,1.59-1.17.35-.6.41-1.33.24-1.99l-4.99-16.79h0ZM275.37,245.34l-2.89-10.6,4.49-2.07,3.41,11.48-5.01,1.19h0ZM230.79,63.94c-.19-.72-.72-1.28-1.38-1.59-.66-.3-1.41-.29-2.08.02l-9.11,4.16c-1.11.52-1.7,1.77-1.38,2.95l4.08,15.1c.36,1.24,1.57,2,2.84,1.8l.2-.03,10-2.42c.69-.18,1.27-.61,1.62-1.21.31-.6.4-1.33.2-1.98,0,0-4.99-16.8-4.99-16.8ZM225.18,80.87l-2.9-10.64,4.49-2.07,3.41,11.48-5,1.23ZM193.88,188.5c-.14-.66-.55-1.28-1.15-1.63s-1.3-.48-1.98-.27l-16.91,4.53c-.71.22-1.29.68-1.63,1.35-.31.66-.32,1.42-.05,2.09l3.94,9.21c.45,1.09,1.57,1.7,2.7,1.52.06,0,.13-.02.23-.07l15.16-3.67c1.34-.35,2.16-1.67,1.88-2.99l-2.19-10.07ZM179.89,199.84l-1.92-4.58,11.53-3.11,1.1,5.06-10.71,2.63ZM196.07,198.57l-2.19-10.07c-.14-.66-.55-1.28-1.15-1.63s-1.3-.48-1.98-.27l-16.91,4.53c-.71.22-1.29.68-1.63,1.35-.31.66-.32,1.42-.05,2.09l3.94,9.21c.45,1.09,1.57,1.7,2.7,1.52.06,0,.13-.02.23-.07l15.16-3.67c1.34-.35,2.16-1.67,1.88-2.99h0ZM179.89,199.84l-1.92-4.58,11.53-3.11,1.1,5.06-10.71,2.63ZM235.78,80.74l-4.99-16.8c-.19-.72-.72-1.28-1.38-1.59-.66-.3-1.41-.29-2.08.02l-9.11,4.16c-1.11.52-1.7,1.77-1.38,2.95l4.08,15.1c.36,1.24,1.57,2,2.84,1.8l.2-.03,10-2.42c.69-.18,1.27-.61,1.62-1.21.31-.6.4-1.33.2-1.98ZM225.18,80.87l-2.9-10.64,4.49-2.07,3.41,11.48-5,1.23ZM286.01,245.24l-4.99-16.79c-.22-.72-.72-1.29-1.38-1.6-.7-.3-1.44-.28-2.12,0l-9.1,4.19c-1.12.48-1.7,1.77-1.38,2.95l4.1,15.06c.34,1.27,1.55,2.04,2.82,1.84l.2-.03,10.02-2.46c.66-.14,1.24-.57,1.59-1.17.35-.6.41-1.33.24-1.99h0ZM275.37,245.34l-2.89-10.6,4.49-2.07,3.41,11.48-5.01,1.19h0ZM328.02,145.8l-2.16-10.04c-.17-.69-.57-1.28-1.17-1.63-.58-.38-1.31-.47-1.96-.3l-16.93,4.57c-.69.17-1.3.68-1.6,1.34-.35.64-.36,1.42-.08,2.1l3.94,9.21c.43,1.06,1.59,1.66,2.72,1.48l.2-.03,15.19-3.71c1.32-.31,2.13-1.64,1.85-2.99ZM311.87,147.07l-1.94-4.54,11.53-3.11,1.1,5.05-10.69,2.6ZM328.02,145.8l-2.16-10.04c-.17-.69-.57-1.28-1.17-1.63-.58-.38-1.31-.47-1.96-.3l-16.93,4.57c-.69.17-1.3.68-1.6,1.34-.35.64-.36,1.42-.08,2.1l3.94,9.21c.43,1.06,1.59,1.66,2.72,1.48l.2-.03,15.19-3.71c1.32-.31,2.13-1.64,1.85-2.99ZM311.87,147.07l-1.94-4.54,11.53-3.11,1.1,5.05-10.69,2.6ZM286.01,245.24l-4.99-16.79c-.22-.72-.72-1.29-1.38-1.6-.7-.3-1.44-.28-2.12,0l-9.1,4.19c-1.12.48-1.7,1.77-1.38,2.95l4.1,15.06c.34,1.27,1.55,2.04,2.82,1.84l.2-.03,10.02-2.46c.66-.14,1.24-.57,1.59-1.17.35-.6.41-1.33.24-1.99h0ZM275.37,245.34l-2.89-10.6,4.49-2.07,3.41,11.48-5.01,1.19h0ZM235.78,80.74l-4.99-16.8c-.19-.72-.72-1.28-1.38-1.59-.66-.3-1.41-.29-2.08.02l-9.11,4.16c-1.11.52-1.7,1.77-1.38,2.95l4.08,15.1c.36,1.24,1.57,2,2.84,1.8l.2-.03,10-2.42c.69-.18,1.27-.61,1.62-1.21.31-.6.4-1.33.2-1.98ZM225.18,80.87l-2.9-10.64,4.49-2.07,3.41,11.48-5,1.23ZM196.07,198.57l-2.19-10.07c-.14-.66-.55-1.28-1.15-1.63s-1.3-.48-1.98-.27l-16.91,4.53c-.71.22-1.29.68-1.63,1.35-.31.66-.32,1.42-.05,2.09l3.94,9.21c.45,1.09,1.57,1.7,2.7,1.52.06,0,.13-.02.23-.07l15.16-3.67c1.34-.35,2.16-1.67,1.88-2.99h0ZM179.89,199.84l-1.92-4.58,11.53-3.11,1.1,5.06-10.71,2.63ZM196.07,198.57l-2.19-10.07c-.14-.66-.55-1.28-1.15-1.63s-1.3-.48-1.98-.27l-16.91,4.53c-.71.22-1.29.68-1.63,1.35-.31.66-.32,1.42-.05,2.09l3.94,9.21c.45,1.09,1.57,1.7,2.7,1.52.06,0,.13-.02.23-.07l15.16-3.67c1.34-.35,2.16-1.67,1.88-2.99h0ZM179.89,199.84l-1.92-4.58,11.53-3.11,1.1,5.06-10.71,2.63ZM235.78,80.74l-4.99-16.8c-.19-.72-.72-1.28-1.38-1.59-.66-.3-1.41-.29-2.08.02l-9.11,4.16c-1.11.52-1.7,1.77-1.38,2.95l4.08,15.1c.36,1.24,1.57,2,2.84,1.8l.2-.03,10-2.42c.69-.18,1.27-.61,1.62-1.21.31-.6.4-1.33.2-1.98ZM225.18,80.87l-2.9-10.64,4.49-2.07,3.41,11.48-5,1.23ZM286.01,245.24l-4.99-16.79c-.22-.72-.72-1.29-1.38-1.6-.7-.3-1.44-.28-2.12,0l-9.1,4.19c-1.12.48-1.7,1.77-1.38,2.95l4.1,15.06c.34,1.27,1.55,2.04,2.82,1.84l.2-.03,10.02-2.46c.66-.14,1.24-.57,1.59-1.17.35-.6.41-1.33.24-1.99h0ZM275.37,245.34l-2.89-10.6,4.49-2.07,3.41,11.48-5.01,1.19h0ZM328.02,145.8l-2.16-10.04c-.17-.69-.57-1.28-1.17-1.63-.58-.38-1.31-.47-1.96-.3l-16.93,4.57c-.69.17-1.3.68-1.6,1.34-.35.64-.36,1.42-.08,2.1l3.94,9.21c.43,1.06,1.59,1.66,2.72,1.48l.2-.03,15.19-3.71c1.32-.31,2.13-1.64,1.85-2.99ZM311.87,147.07l-1.94-4.54,11.53-3.11,1.1,5.05-10.69,2.6ZM196.07,198.57l-2.19-10.07c-.14-.66-.55-1.28-1.15-1.63s-1.3-.48-1.98-.27l-16.91,4.53c-.71.22-1.29.68-1.63,1.35-.31.66-.32,1.42-.05,2.09l3.94,9.21c.45,1.09,1.57,1.7,2.7,1.52.06,0,.13-.02.23-.07l15.16-3.67c1.34-.35,2.16-1.67,1.88-2.99h0ZM179.89,199.84l-1.92-4.58,11.53-3.11,1.1,5.06-10.71,2.63ZM328.02,145.8l-2.16-10.04c-.17-.69-.57-1.28-1.17-1.63-.58-.38-1.31-.47-1.96-.3l-16.93,4.57c-.69.17-1.3.68-1.6,1.34-.35.64-.36,1.42-.08,2.1l3.94,9.21c.43,1.06,1.59,1.66,2.72,1.48l.2-.03,15.19-3.71c1.32-.31,2.13-1.64,1.85-2.99ZM311.87,147.07l-1.94-4.54,11.53-3.11,1.1,5.05-10.69,2.6ZM235.78,80.74l-4.99-16.8c-.19-.72-.72-1.28-1.38-1.59-.66-.3-1.41-.29-2.08.02l-9.11,4.16c-1.11.52-1.7,1.77-1.38,2.95l4.08,15.1c.36,1.24,1.57,2,2.84,1.8l.2-.03,10-2.42c.69-.18,1.27-.61,1.62-1.21.31-.6.4-1.33.2-1.98ZM225.18,80.87l-2.9-10.64,4.49-2.07,3.41,11.48-5,1.23ZM286.01,245.24l-4.99-16.79c-.22-.72-.72-1.29-1.38-1.6-.7-.3-1.44-.28-2.12,0l-9.1,4.19c-1.12.48-1.7,1.77-1.38,2.95l4.1,15.06c.34,1.27,1.55,2.04,2.82,1.84l.2-.03,10.02-2.46c.66-.14,1.24-.57,1.59-1.17.35-.6.41-1.33.24-1.99h0ZM275.37,245.34l-2.89-10.6,4.49-2.07,3.41,11.48-5.01,1.19h0Z"/>
      <path d="M376.3,155.87c-4.87-75.63-64.98-135.8-133.98-134.12-18.22.44-35.77,5.24-51.49,13.82-.8-.12-1.62-.09-2.38.27-2.74,1.28-5.36,2.38-7.92,3.49-7.11,3-13.83,5.86-20.59,11.05-34.47,26.34-53.23,70.15-50.23,117.13,4.88,75.66,64.99,135.83,133.98,134.11,5.82-.12,11.54-.65,17.1-1.52,8.03-1.26,15.81-3.27,23.26-6.01.71-.28,1.28-.78,1.74-1.33,21.21-5.58,40.54-17.25,56.04-34.19,24.39-26.67,36.94-64.11,34.47-102.7h0ZM335.61,252.89c-20.1,21.96-47.13,34.43-76.13,35.16-64.51,1.56-120.75-55.05-125.34-126.26-2.35-36.32,9.43-71.49,32.28-96.45,20.07-21.96,47.13-34.46,76.13-35.16,64.51-1.59,120.75,55.05,125.33,126.22,2.36,36.33-9.43,71.5-32.27,96.49h0Z"/>
      <path d="M287.12,78.76c-2.48-.98-5.34-.91-7.75.26-2.41,1.13-4.3,3.27-5.12,5.82l-22.61,63.02c-.07.01-.07-.03-.11-.02-4.11.1-7.9,1.85-10.73,4.92-.23.28-.38.58-.58.85l-54.98-14.89c-5.06-1.39-10.28,1.47-11.85,6.5-.82,2.55-.52,5.34.8,7.69,1.29,2.36,3.54,4.05,6.17,4.7l57.51,14.29c2.7,6.54,8.84,11.1,15.71,10.95.65,0,1.29-.07,1.95-.17,3.34-.53,6.39-2.17,8.75-4.76,3.11-3.42,4.72-8.18,4.4-13.08-.06-1.01-.24-1.97-.46-2.93l24.55-70.86c1.74-4.99-.74-10.37-5.65-12.29h0ZM260.54,174.52c-1.87,2.03-4.38,3.21-7.1,3.26-6.16.15-11.53-5.36-12-12.25-.21-3.55.93-6.93,3.11-9.33,1.57-1.74,3.62-2.85,5.82-3.2.43-.06.83-.09,1.28-.09,6.15-.15,11.56,5.35,12,12.28.21,3.52-.9,6.93-3.11,9.33Z"/>
    </g>
  </g>
</svg>