<?xml version="1.0" encoding="UTF-8"?>
<svg id="Layer_1" data-name="Layer 1" xmlns="http://www.w3.org/2000/svg" xmlns:xlink="http://www.w3.org/1999/xlink" viewBox="0 0 305 291.7">
  <defs>
    <style>
      .cls-1, .cls-2 {
        fill: none;
      }

      .cls-3 {
        fill: #fff;
      }

      .cls-4 {
        fill: #f3c300;
      }

      .cls-5 {
        fill: #f2c316;
      }

      .cls-2 {
        stroke: #000;
        stroke-miterlimit: 10;
        stroke-width: 2px;
      }

      .cls-6 {
        clip-path: url(#clippath);
      }
    </style>
    <clipPath id="clippath">
      <path class="cls-1" d="M.66,2.41v288.65h292.39V2.41H.66ZM221.52,270.03c-.68.35-1.36.68-2.05,1.02-6.18-1.9-12.43-4.88-18.88-9.01-4.01-2.56-7.55-5.01-10.97-7.38-10.1-6.99-18.08-12.51-30.34-15.77-17.08-4.54-36.87-3.66-60.52,2.69-9.18,2.47-18.55,4.65-27.72,5.67-.17-.64-.34-1.29-.5-1.95,9.13-.98,18.51-3.17,27.7-5.64,13.93-3.74,26.56-5.61,38.11-5.61,8.34,0,16.13.97,23.43,2.92,12.59,3.35,21.1,9.24,30.96,16.05,3.41,2.36,6.93,4.8,10.91,7.34,6.88,4.4,13.52,7.46,20.08,9.25l-.23.42h.02Z"/>
    </clipPath>
  </defs>
  <path class="cls-4" d="M13.75,52.58C-.21,80.38-.68,118.04,10.62,146.94c11.84,21.68,35.31,34.25,48.56,55.16,9.89,15.74,8.71,35.98,15.53,53.27,10.32,24.48,39.53,35.06,64.71,33.56,78.93,2,179.8-64.59,144.3-152.79C249.62,50.85,77.06-61.02,13.75,52.58Z"/>
  <path class="cls-2" d="M103.05,3.36c-33.88,5.7-62.46,29.63-78.82,59.85C7.87,93.43,5.41,128.91,5.84,163.26c.19,15.55.36,28.88,5.99,45.22,5.06,14.7,14.25,29.66,28.83,35.06,17.94,6.65,39.64,1.97,57.85-2.92s40.8-8.07,61.03-2.69c16.64,4.43,25.83,13.18,41.59,23.27,14.5,9.28,30.69,14.53,49.6,9.07,24.25-7,41.39-30.22,46.21-54.99,4.82-24.77,2.76-52.86-5.28-76.79-15.67-46.66-50.99-85.25-71.29-99.49C177.91,9.22,142.47-3.27,103.05,3.36Z"/>
  <g class="cls-6">
    <path class="cls-5" d="M13.75,52.58C-.21,80.38-.68,118.04,10.62,146.94c11.84,21.68,35.31,34.25,48.56,55.16,9.89,15.74,8.71,35.98,15.53,53.27,10.32,24.48,39.53,35.06,64.71,33.56,78.93,2,179.8-64.59,144.3-152.79C249.62,50.85,77.06-61.02,13.75,52.58Z"/>
  </g>
  <g>
    <path class="cls-3" d="M303.54,165.27c-3.21,3.61-8.16,5.87-13.58,6.2-4.25.26-8.82-.6-13.86-2.63-1.51-.61-2.77-1.4-3.71-2.31-4.93,3.5-10.91,5.44-16.99,5.44-.18,0-.36,0-.55,0-6.63-.12-13.08-2.56-18.16-6.78-3.81,3.5-8.71,5.8-13.85,6.45-5.95.75-12.14-.78-17.12-4.14-4.82,7.62-11.46,17.68-19.9,30.11.74.37,1.32,1.01,1.6,1.82,1.08,3.16,4.92,4.75,7.11,5.43,6.17,1.89,14.11,1.24,17.69-1.46,1.34-1,3.21-.81,4.31.44,2.93,3.33,7.54,4.88,12.29,4.19,4.76-.71,8.71-3.53,10.55-7.56.73-1.6,2.62-2.31,4.23-1.57,1.6.73,2.3,2.62,1.57,4.22-2.74,6-8.51,10.19-15.42,11.22-1.07.15-2.13.23-3.18.23-4.83,0-9.39-1.63-12.91-4.63-5.52,2.68-13.97,3.17-21,1.02-3.83-1.18-6.88-3.05-8.93-5.43-4.17,3.33-9.51,5.2-15.18,5.24-.06,0-.13,0-.2,0-5.86,0-11.39-1.97-15.64-5.5-3.67,3.36-8.71,5.16-13.99,5-5.14-.18-9.87-2.22-13.27-5.61-3.39,2.94-7.94,4.45-12.79,4.16-4.81-.29-9.11-2.33-12.11-5.62-3.78,3.15-8.78,4.94-14,4.78-5.18-.11-10.04-2.03-13.67-5.28-3.02,3.3-7.3,5.43-12.08,5.91-6.33.63-12.38-1.76-16.2-6.4-1.12-1.35-.93-3.37.43-4.48,1.36-1.12,3.37-.93,4.49.43,2.46,2.99,6.44,4.52,10.65,4.11,4.2-.43,7.8-2.72,9.62-6.14.52-.98,1.51-1.62,2.61-1.69,1.15-.03,2.17.44,2.81,1.35,2.49,3.54,6.78,5.71,11.48,5.81,1.86.04,3.67-.27,5.35-.84,3.97-9.45,9.04-21.38,14.31-33.57-4.91.02-9.79-1.75-13.5-4.96-3.85,4.44-9.58,7.16-15.51,7.2h-.1c-5.97,0-11.74-2.73-15.62-7.19-3.56,2.96-7.98,4.86-12.6,5.34-5.96.63-12.09-1.15-16.82-4.83-1.39-1.08-1.64-3.09-.55-4.48,1.08-1.38,3.08-1.63,4.47-.55,3.44,2.68,7.91,3.95,12.24,3.51,4.34-.45,8.44-2.62,11.26-5.95.68-.79,1.71-1.21,2.74-1.11,1.04.1,1.97.7,2.48,1.62,2.43,4.35,7.41,7.26,12.4,7.26h.07c5.01-.03,9.99-3,12.39-7.4.52-.95,1.49-1.58,2.58-1.65,1.11-.08,2.14.42,2.78,1.29,3.15,4.28,9.05,6.38,14.22,5.15,8.72-20.02,17.57-39.6,22.63-48.77,8.09-14.65,18.42-15.01,26.72-15.3,4.81-.17,8.97-.32,12.18-3.11,8.47-7.39,18.45-29.44,20.92-35.1-1.13-2.66-.76-4.64-.02-5.98l4.26-7.71c.08-.16.22-.26.33-.39.09-.26.17-.52.33-.74,1.08-1.54,3.37-3.15,8.22-2.76l4.58-12.37c.48-1.3,1.74-2.12,3.16-2.07,11.85.63,23.32,8.74,27.73,12.95,1.12,1.08,1.31,2.81.43,4.1-2.68,3.92-5.65,8.03-8.35,11.69,3.2,3.52,4.47,6.7,3.71,9.45-.07.27-.21.51-.34.74-.06.16-.07.32-.15.48l-4.61,8.34c-1.13,2.05-3.25,3.02-5.9,3.25-3.44,5.31-16,25.27-17.73,36.32-.66,4.2,1.44,7.79,3.86,11.96,4.17,7.18,9.37,16.11,1.28,30.76-.91,1.64-2.06,3.61-3.44,5.89,3.74,2.61,8.44,3.8,12.97,3.23,4.66-.59,9.05-3,12.04-6.63.59-.7,1.44-1.12,2.35-1.15.88-.06,1.79.33,2.42.98,4.12,4.32,10.15,6.97,16.12,7.08,5.95.11,12.08-2.3,16.37-6.46,1.02-.99,2.58-1.18,3.81-.47,1.13.65,1.74,1.92,1.57,3.19.23.25.81.7,1.76,1.08,4.13,1.67,7.76,2.37,11.09,2.18,3.75-.22,7.09-1.71,9.19-4.06,1.17-1.32,3.19-1.45,4.5-.28,1.32,1.17,1.44,3.19.27,4.51h0Z"/>
    <path d="M303.27,160.76c-1.31-1.17-3.33-1.04-4.5.28-2.1,2.35-5.44,3.84-9.19,4.06-3.33.19-6.96-.51-11.09-2.18-.95-.38-1.53-.83-1.76-1.08.17-1.27-.44-2.54-1.57-3.19-1.23-.71-2.79-.52-3.81.47-4.29,4.16-10.42,6.57-16.37,6.46-5.97-.11-12-2.76-16.12-7.08-.63-.65-1.54-1.04-2.42-.98-.91.03-1.76.45-2.35,1.15-2.99,3.63-7.38,6.04-12.04,6.63-4.53.57-9.23-.62-12.97-3.23,1.38-2.28,2.53-4.25,3.44-5.89,8.09-14.65,2.89-23.58-1.28-30.76-2.42-4.17-4.52-7.76-3.86-11.96,1.73-11.05,14.29-31.01,17.73-36.32,2.65-.23,4.77-1.2,5.9-3.25l4.61-8.34c.08-.16.09-.32.15-.48.13-.23.27-.47.34-.74.76-2.75-.51-5.93-3.71-9.45,2.7-3.66,5.67-7.77,8.35-11.69.88-1.29.69-3.02-.43-4.1-4.41-4.21-15.88-12.32-27.73-12.95-1.42-.05-2.68.77-3.16,2.07l-4.58,12.37c-4.85-.39-7.14,1.22-8.22,2.76-.16.22-.24.48-.33.74-.11.13-.25.23-.33.39l-4.26,7.71c-.74,1.34-1.11,3.32.02,5.98-2.47,5.66-12.45,27.71-20.92,35.1-3.21,2.79-7.37,2.94-12.18,3.11-8.3.29-18.63.65-26.72,15.3-5.06,9.17-13.91,28.75-22.63,48.77-5.17,1.23-11.07-.87-14.22-5.15-.64-.87-1.67-1.37-2.78-1.29-1.09.07-2.06.7-2.58,1.65-2.4,4.4-7.38,7.37-12.39,7.4h-.07c-4.99,0-9.97-2.91-12.4-7.26-.51-.92-1.44-1.52-2.48-1.62-1.03-.1-2.06.32-2.74,1.11-2.82,3.33-6.92,5.5-11.26,5.95-4.33.44-8.8-.83-12.24-3.51-1.39-1.08-3.39-.83-4.47.55-1.09,1.39-.84,3.4.55,4.48,4.73,3.68,10.86,5.46,16.82,4.83,4.62-.48,9.04-2.38,12.6-5.34,3.88,4.46,9.65,7.19,15.62,7.19h.1c5.93-.04,11.66-2.76,15.51-7.2,3.71,3.21,8.59,4.98,13.5,4.96-5.27,12.19-10.34,24.12-14.31,33.57-1.68.57-3.49.88-5.35.84-4.7-.1-8.99-2.27-11.48-5.81-.64-.91-1.66-1.38-2.81-1.35-1.1.07-2.09.71-2.61,1.69-1.82,3.42-5.42,5.71-9.62,6.14-4.21.41-8.19-1.12-10.65-4.11-1.12-1.36-3.13-1.55-4.49-.43-1.36,1.11-1.55,3.13-.43,4.48,3.82,4.64,9.87,7.03,16.2,6.4,4.78-.48,9.06-2.61,12.08-5.91,3.63,3.25,8.49,5.17,13.67,5.28,5.22.16,10.22-1.63,14-4.78,3,3.29,7.3,5.33,12.11,5.62,4.85.29,9.4-1.22,12.79-4.16,3.4,3.39,8.13,5.43,13.27,5.61,5.28.16,10.32-1.64,13.99-5,4.25,3.53,9.78,5.5,15.64,5.5.07,0,.14,0,.2,0,5.67-.04,11.01-1.91,15.18-5.24,2.05,2.38,5.1,4.25,8.93,5.43,7.03,2.15,15.48,1.66,21-1.02,3.52,3,8.08,4.63,12.91,4.63,1.05,0,2.11-.08,3.18-.23,6.91-1.03,12.68-5.22,15.42-11.22.73-1.6.03-3.49-1.57-4.22-1.61-.74-3.5-.03-4.23,1.57-1.84,4.03-5.79,6.85-10.55,7.56-4.75.69-9.36-.86-12.29-4.19-1.1-1.25-2.97-1.44-4.31-.44-3.58,2.7-11.52,3.35-17.69,1.46-2.19-.68-6.03-2.27-7.11-5.43-.28-.81-.86-1.45-1.6-1.82,8.44-12.43,15.08-22.49,19.9-30.11,4.98,3.36,11.17,4.89,17.12,4.14,5.14-.65,10.04-2.95,13.85-6.45,5.08,4.22,11.53,6.66,18.16,6.78.19,0,.37,0,.55,0,6.08,0,12.06-1.94,16.99-5.44.94.91,2.2,1.7,3.71,2.31,5.04,2.03,9.61,2.89,13.86,2.63,5.42-.33,10.37-2.59,13.58-6.2,1.17-1.32,1.05-3.34-.27-4.51h0ZM214.55,32.74c6.84,1.05,13.74,4.92,18.33,8.42-.07,0-.11.02-.19.02-4.93-.06-9.81-1.72-13.75-4.68-.85-.64-2.05-.46-2.68.38-.64.85-.46,2.04.38,2.68,4.34,3.26,9.67,5.15,15.09,5.4-4.59,6.42-9.29,12.6-11.56,15.56-1.93-.75-3.93-1.69-5.89-2.77-2.69-1.49-5.14-3.14-7.19-4.83l7.46-20.18h0ZM201.55,47.55c.06-.11.07-.23.11-.35.02-.02.04-.03.05-.05,0-.01.23-.13.79-.21l-2.15,5.81c-.44,1.2-.13,2.55.81,3.43,2.69,2.54,6.16,5.01,10.03,7.15,3.03,1.67,6.17,3.06,9.09,4.01.33.11.67.16.99.16.97,0,1.9-.44,2.52-1.23.04-.05,1.96-2.51,4.71-6.16,1.11,1.4,1.42,2.27,1.45,2.49l-4.43,8.03c-1.26.63-7.26.2-15.85-4.55-8.58-4.73-12.13-9.58-12.29-10.98l4.17-7.55h0ZM138.94,203.89c-4.48-.15-8.46-2.33-10.64-5.82-.28-.45-.67-.82-1.12-1.08,4.18-5.65,7.98-11.27,11.28-16.77.82-1.36,1.61-2.78,2.39-4.22,3.29,4.11,8.48,6.53,13.72,6.54-3.65,6.46-7.18,13.36-10.43,20.57-1.61.58-3.37.87-5.2.78h0ZM178.4,124.41c-5.5-4.48-5.08-6.15-5.06-6.22.12-.39,1-.79,1.85-.97,1.41.78,2.8,1.67,4.16,2.65,3.84,2.78,6.97,6,8.82,9.07,1.46,2.44,1.93,4.56,1.24,5.6-.06.05-.12.12-.18.17-.83.89-2.92,1.1-5.59.48-2.4-.54-5.06-1.65-7.73-3.18l2.95-5.17c.46-.81.27-1.84-.46-2.43h0ZM174.74,126.33l-2.06,3.61c-.14-.09-.27-.19-.41-.29-1.19-.87-2.17-1.76-3.06-2.66l2.04-4.31c.85,1.14,2,2.35,3.49,3.65ZM170.03,132.75c4.24,3.07,8.77,5.26,12.75,6.17.74.17,1.43.28,2.11.35-5.93,6.62-14.33,17.36-22.89,30.85-3.12.02-6.03-.08-8.89-.56-3-.51-5.59-1.41-7.78-2.66,7.6-16.78,13.02-35.86,15.6-45.86.85,2.2,2.08,4.6,4.04,6.98.13.55.47,1.05,1.02,1.31.06.03.12.02.18.04,1.09,1.15,2.35,2.28,3.86,3.38ZM152.47,173.33c2.38.4,4.75.53,7.18.58-.91,1.48-1.82,3-2.72,4.55-5.34.97-11.32-1.59-14.09-6.29h0c.3-.6.59-1.21.88-1.81,2.52,1.39,5.43,2.41,8.75,2.97h0ZM174.07,203.52c-1.76.55-3.63.85-5.57.87h-.15c-5.28,0-10.16-2.11-13.41-5.81-.63-.73-1.56-1.12-2.54-1.08-.61.03-1.19.25-1.68.6,2.77-5.68,5.68-11.12,8.65-16.26.02,0,.04,0,.05,0,.97-.3,1.51-1.3,1.28-2.27,1.14-1.93,2.28-3.81,3.43-5.64h.87c1.06-.02,1.89-.9,1.87-1.95,0-.55-.26-1.03-.63-1.37,10.14-15.76,19.9-27.47,25.25-32.73.27-.22.52-.47.74-.73l.02-.02s0,0,0-.02c.07-.08.16-.16.23-.25,1.72-2.38,1.35-5.89-1.05-9.87-2.1-3.5-5.6-7.13-9.85-10.2-1.67-1.21-3.41-2.3-5.15-3.22-.33-.18-.7-.26-1.07-.22-.46.04-4.45.5-5.57,3.5,0,.01-.02.01-.02.02l-3.23,6.83c-1.87-2.91-2.7-5.78-3.35-8.13-.19-.65-.36-1.27-.54-1.84,0-.73-.47-1.4-1.18-1.71-.83-.37-1.86-.04-2.37.71-.23.33-.35.71-.35,1.09-.91,3.94-7.09,29.57-16.72,51.08-.66-.13-1.37.07-1.83.63-.68.81-.56,2.02.25,2.69.01,0,.02.02.04.03-.03.05-.05.09-.07.14-.52.1-.99.39-1.29.87-.36.61-.65,1.49-.45,2.65-1.13,2.22-2.3,4.35-3.51,6.36-4.51,7.52-9.93,15.26-16.08,23.02-1.79.9-3.86,1.33-6.05,1.19-4.08-.25-7.55-2.38-9.29-5.7-.48-.92-1.38-1.53-2.4-1.67,10.26-24.23,28.23-66.03,36.14-80.34,6.34-11.48,13.63-11.74,21.35-12.01,5.52-.19,11.24-.39,16.15-4.67,8.26-7.21,17.15-25.36,21.1-34.04,2.74,2.69,6.36,5.36,10.49,7.64,3.76,2.08,7.75,3.76,11.43,4.71-4.97,7.89-15.24,25.2-16.94,36.09-1.01,6.44,1.87,11.38,4.64,16.15,3.89,6.68,7.56,12.99,1.22,24.48-4.62,8.35-15.68,25.32-32.87,50.42h0Z"/>
  </g>
</svg>