<?xml version="1.0" encoding="UTF-8"?>
<svg id="objects" xmlns="http://www.w3.org/2000/svg" viewBox="0 0 285 283.94">
  <defs>
    <style>
      .cls-1 {
        fill: #fff;
      }

      .cls-2 {
        fill: #f2c316;
      }

      .cls-2, .cls-3 {
        isolation: isolate;
      }

      .cls-3 {
        fill: none;
        stroke: #000;
        stroke-miterlimit: 10;
        stroke-width: 2px;
      }
    </style>
  </defs>
  <path class="cls-3" d="M168.03,275.13c13.97,4.19,32.09,7.47,48.46,3.77,23.85-5.38,34.12-14.36,46.08-35.49,11.87-20.95,13.6-46.55,11.7-70.56-3.53-44.51-15.7-79.87-38.79-112.63-12.75-18.09-30.41-34.62-50.77-43.3C162.64,7.53,143.63,1.38,120.21,1.27c-21.25-.1-40.54,3.21-58.44,12.83-13.43,7.22-26.9,15.64-37.76,26.33-31.65,31.16-26.39,76.82-7.7,111.51,20.14,37.39,50.79,69.65,85.5,94.09,19.55,13.76,41.77,21.76,66.22,29.1h0Z"/>
  <path class="cls-2" d="M10.38,176.67c-4.05,14.01-7.13,32.16-3.27,48.49,5.63,23.79,14.71,33.96,35.96,45.71,21.25,11.75,46.69,13.12,70.68,10.96,44.47-4,79.71-16.53,112.22-39.96,17.96-12.94,34.31-30.77,42.77-51.22,9.17-22.16,15.12-41.23,14.99-64.66-.12-21.25-3.63-40.5-13.44-58.3-7.36-13.35-15.91-26.73-26.72-37.48-31.49-31.32-77.09-25.59-111.59-6.54-37.17,20.53-69.12,51.51-93.19,86.48-13.56,19.69-21.32,42-28.41,66.52h0Z"/>
  <g>
    <path class="cls-1" d="M222.62,163.29c-.23.25-.51.48-.92.62-1.02.35-2.02.7-3.04,1.05.35.87.22,1.92-.87,2.49-36.7,19.37-72.88,39.73-109.58,59.1-1.34.7-2.61.03-3.13-1.27-18.83-46.29-39.57-91.73-61.12-136.81-.45-.96-.31-2.39.77-2.91,7.66-3.65,15.33-7.31,22.97-10.98-1.59-5.55-3.21-11.1-4.83-16.66-.34-1.12.4-2.29,1.48-2.62,38.91-11.36,77.75-23.03,116.67-34.39,1.13-.32,2.3.4,2.61,1.49,13.5,46.21,27.2,92.36,39.56,138.9.24.85-.06,1.52-.57,1.99Z"/>
    <g>
      <path d="M195.76,140.02c-14.22,4.23-28.42,8.45-42.62,12.68-2.63.77-1.5,4.88,1.12,4.1,14.22-4.22,28.42-8.45,42.62-12.66,2.63-.79,1.51-4.89-1.12-4.12h0ZM189.27,107.9c-14.2,4.24-28.4,8.45-42.62,12.68-2.61.77-1.49,4.89,1.14,4.1,14.2-4.21,28.42-8.44,42.62-12.66,2.61-.79,1.5-4.9-1.14-4.12ZM180.56,76.81c-14.22,4.21-28.42,8.45-42.62,12.66-2.63.79-1.51,4.89,1.13,4.12,14.2-4.24,28.41-8.45,42.61-12.68,2.62-.77,1.5-4.89-1.12-4.1ZM171.07,47.17c-14.22,4.21-28.42,8.43-42.62,12.66-2.62.77-1.5,4.89,1.14,4.1,14.2-4.22,28.4-8.45,42.6-12.66,2.63-.77,1.51-4.89-1.12-4.1ZM94.58,72.26c-1.69-3.61-5.59-3.6-8.93-2.66-.35.1-.62.27-.86.47-.6.02-1.22.28-1.65.92-1.77,2.57-1.41,6.25.73,8.51,2.15,2.26,5.74,2.44,8.32.84,2.72-1.72,3.74-5.15,2.39-8.08ZM89.71,76.84c-2.29,1.17-3.96-1.12-3.18-3.11.09,0,.16,0,.26,0,1.18-.34,3.22-1.11,3.94.35.56,1.1,0,2.25-1.02,2.77ZM104.06,101.92c-1.69-3.63-5.58-3.6-8.93-2.68-.35.1-.62.27-.83.47-.62.03-1.24.28-1.68.92-1.77,2.57-1.4,6.25.74,8.51,2.14,2.26,5.75,2.46,8.31.84,2.73-1.71,3.75-5.15,2.39-8.06ZM99.2,106.5c-2.28,1.17-3.97-1.14-3.18-3.13.08-.01.15,0,.25-.01,1.19-.34,3.23-1.09,3.95.36.55,1.09,0,2.24-1.02,2.78ZM112.78,133.01c-1.69-3.61-5.57-3.59-8.92-2.66-.35.1-.63.25-.85.45-.62.04-1.22.29-1.66.92-1.77,2.58-1.4,6.28.74,8.53,2.12,2.26,5.74,2.45,8.31.82,2.71-1.7,3.73-5.13,2.38-8.06ZM107.93,137.6c-2.29,1.17-3.98-1.14-3.2-3.13.1-.02.17.01.25-.02,1.21-.33,3.23-1.09,3.97.37.53,1.09,0,2.26-1.02,2.78ZM119.25,165.13c-1.67-3.62-5.57-3.6-8.91-2.66-.35.1-.62.27-.86.45-.6.03-1.22.28-1.65.94-1.78,2.56-1.41,6.25.73,8.51,2.14,2.26,5.74,2.44,8.32.82,2.72-1.71,3.74-5.13,2.37-8.06ZM114.4,169.71c-2.29,1.17-3.96-1.14-3.18-3.13.09,0,.15.02.25,0,1.19-.34,3.23-1.09,3.95.36.55,1.09,0,2.26-1.02,2.78ZM116.56,53.69c-.3,3.92-.7,7.83-1.31,11.73-.4,2.57-.6,6.34-1.57,9.11-2.26-1.3-6.04-5.33-7.29-6.55-1.97-1.91-4.99,1.1-3.01,3.01,2.31,2.24,9.77,11.04,13.33,7.19,2.16-2.31,2.17-8.63,2.64-11.64.67-4.27,1.14-8.55,1.47-12.85.21-2.74-4.04-2.72-4.26,0ZM126.04,83.33c-.3,3.93-.7,7.83-1.3,11.73-.4,2.59-.59,6.34-1.57,9.11-2.26-1.3-6.04-5.31-7.3-6.55-1.97-1.91-4.98,1.1-3.01,3.01,2.31,2.26,9.77,11.04,13.33,7.21,2.16-2.33,2.18-8.65,2.65-11.64.67-4.27,1.13-8.57,1.47-12.87.2-2.72-4.05-2.71-4.27,0ZM134.77,114.43c-.3,3.93-.71,7.84-1.32,11.72-.4,2.6-.58,6.34-1.55,9.14-2.28-1.32-6.04-5.34-7.31-6.56-1.98-1.92-4.99,1.09-3.01,2.99,2.32,2.26,9.77,11.06,13.35,7.21,2.14-2.32,2.17-8.63,2.64-11.64.67-4.26,1.14-8.55,1.45-12.86.22-2.73-4.04-2.71-4.25,0ZM141.25,146.54c-.3,3.94-.7,7.85-1.31,11.73-.4,2.59-.6,6.34-1.57,9.13-2.26-1.32-6.04-5.33-7.31-6.55-1.96-1.93-4.97,1.08-2.99,3.01,2.31,2.24,9.77,11.04,13.33,7.19,2.16-2.31,2.17-8.63,2.64-11.64.67-4.27,1.14-8.55,1.47-12.87.2-2.72-4.06-2.71-4.26,0ZM171.07,47.17c-14.22,4.21-28.42,8.43-42.62,12.66-2.62.77-1.5,4.89,1.14,4.1,14.2-4.22,28.4-8.45,42.6-12.66,2.63-.77,1.51-4.89-1.12-4.1ZM180.56,76.81c-14.22,4.21-28.42,8.45-42.62,12.66-2.63.79-1.51,4.89,1.13,4.12,14.2-4.24,28.41-8.45,42.61-12.68,2.62-.77,1.5-4.89-1.12-4.1ZM189.27,107.9c-14.2,4.24-28.4,8.45-42.62,12.68-2.61.77-1.49,4.89,1.14,4.1,14.2-4.21,28.42-8.44,42.62-12.66,2.61-.79,1.5-4.9-1.14-4.12ZM195.76,140.02c-14.22,4.23-28.42,8.45-42.62,12.68-2.63.77-1.5,4.88,1.12,4.1,14.22-4.22,28.42-8.45,42.62-12.66,2.63-.79,1.51-4.89-1.12-4.12h0ZM94.58,72.26c-1.69-3.61-5.59-3.6-8.93-2.66-.35.1-.62.27-.86.47-.6.02-1.22.28-1.65.92-1.77,2.57-1.41,6.25.73,8.51,2.15,2.26,5.74,2.44,8.32.84,2.72-1.72,3.74-5.15,2.39-8.08ZM89.71,76.84c-2.29,1.17-3.96-1.12-3.18-3.11.09,0,.16,0,.26,0,1.18-.34,3.22-1.11,3.94.35.56,1.1,0,2.25-1.02,2.77ZM104.06,101.92c-1.69-3.63-5.58-3.6-8.93-2.68-.35.1-.62.27-.83.47-.62.03-1.24.28-1.68.92-1.77,2.57-1.4,6.25.74,8.51,2.14,2.26,5.75,2.46,8.31.84,2.73-1.71,3.75-5.15,2.39-8.06ZM99.2,106.5c-2.28,1.17-3.97-1.14-3.18-3.13.08-.01.15,0,.25-.01,1.19-.34,3.23-1.09,3.95.36.55,1.09,0,2.24-1.02,2.78ZM112.78,133.01c-1.69-3.61-5.57-3.59-8.92-2.66-.35.1-.63.25-.85.45-.62.04-1.22.29-1.66.92-1.77,2.58-1.4,6.28.74,8.53,2.12,2.26,5.74,2.45,8.31.82,2.71-1.7,3.73-5.13,2.38-8.06ZM107.93,137.6c-2.29,1.17-3.98-1.14-3.2-3.13.1-.02.17.01.25-.02,1.21-.33,3.23-1.09,3.97.37.53,1.09,0,2.26-1.02,2.78ZM119.25,165.13c-1.67-3.62-5.57-3.6-8.91-2.66-.35.1-.62.27-.86.45-.6.03-1.22.28-1.65.94-1.78,2.56-1.41,6.25.73,8.51,2.14,2.26,5.74,2.44,8.32.82,2.72-1.71,3.74-5.13,2.37-8.06ZM114.4,169.71c-2.29,1.17-3.96-1.14-3.18-3.13.09,0,.15.02.25,0,1.19-.34,3.23-1.09,3.95.36.55,1.09,0,2.26-1.02,2.78ZM116.56,53.69c-.3,3.92-.7,7.83-1.31,11.73-.4,2.57-.6,6.34-1.57,9.11-2.26-1.3-6.04-5.33-7.29-6.55-1.97-1.91-4.99,1.1-3.01,3.01,2.31,2.24,9.77,11.04,13.33,7.19,2.16-2.31,2.17-8.63,2.64-11.64.67-4.27,1.14-8.55,1.47-12.85.21-2.74-4.04-2.72-4.26,0ZM126.04,83.33c-.3,3.93-.7,7.83-1.3,11.73-.4,2.59-.59,6.34-1.57,9.11-2.26-1.3-6.04-5.31-7.3-6.55-1.97-1.91-4.98,1.1-3.01,3.01,2.31,2.26,9.77,11.04,13.33,7.21,2.16-2.33,2.18-8.65,2.65-11.64.67-4.27,1.13-8.57,1.47-12.87.2-2.72-4.05-2.71-4.27,0ZM134.77,114.43c-.3,3.93-.71,7.84-1.32,11.72-.4,2.6-.58,6.34-1.55,9.14-2.28-1.32-6.04-5.34-7.31-6.56-1.98-1.92-4.99,1.09-3.01,2.99,2.32,2.26,9.77,11.06,13.35,7.21,2.14-2.32,2.17-8.63,2.64-11.64.67-4.26,1.14-8.55,1.45-12.86.22-2.73-4.04-2.71-4.25,0ZM141.25,146.54c-.3,3.94-.7,7.85-1.31,11.73-.4,2.59-.6,6.34-1.57,9.13-2.26-1.32-6.04-5.33-7.31-6.55-1.96-1.93-4.97,1.08-2.99,3.01,2.31,2.24,9.77,11.04,13.33,7.19,2.16-2.31,2.17-8.63,2.64-11.64.67-4.27,1.14-8.55,1.47-12.87.2-2.72-4.06-2.71-4.26,0ZM171.07,47.17c-14.22,4.21-28.42,8.43-42.62,12.66-2.62.77-1.5,4.89,1.14,4.1,14.2-4.22,28.4-8.45,42.6-12.66,2.63-.77,1.51-4.89-1.12-4.1ZM180.56,76.81c-14.22,4.21-28.42,8.45-42.62,12.66-2.63.79-1.51,4.89,1.13,4.12,14.2-4.24,28.41-8.45,42.61-12.68,2.62-.77,1.5-4.89-1.12-4.1ZM189.27,107.9c-14.2,4.24-28.4,8.45-42.62,12.68-2.61.77-1.49,4.89,1.14,4.1,14.2-4.21,28.42-8.44,42.62-12.66,2.61-.79,1.5-4.9-1.14-4.12ZM195.76,140.02c-14.22,4.23-28.42,8.45-42.62,12.68-2.63.77-1.5,4.88,1.12,4.1,14.22-4.22,28.42-8.45,42.62-12.66,2.63-.79,1.51-4.89-1.12-4.12h0ZM112.78,133.01c-1.69-3.61-5.57-3.59-8.92-2.66-.35.1-.63.25-.85.45-.62.04-1.22.29-1.66.92-1.77,2.58-1.4,6.28.74,8.53,2.12,2.26,5.74,2.45,8.31.82,2.71-1.7,3.73-5.13,2.38-8.06ZM107.93,137.6c-2.29,1.17-3.98-1.14-3.2-3.13.1-.02.17.01.25-.02,1.21-.33,3.23-1.09,3.97.37.53,1.09,0,2.26-1.02,2.78ZM104.06,101.92c-1.69-3.63-5.58-3.6-8.93-2.68-.35.1-.62.27-.83.47-.62.03-1.24.28-1.68.92-1.77,2.57-1.4,6.25.74,8.51,2.14,2.26,5.75,2.46,8.31.84,2.73-1.71,3.75-5.15,2.39-8.06ZM99.2,106.5c-2.28,1.17-3.97-1.14-3.18-3.13.08-.01.15,0,.25-.01,1.19-.34,3.23-1.09,3.95.36.55,1.09,0,2.24-1.02,2.78ZM126.04,83.33c-.3,3.93-.7,7.83-1.3,11.73-.4,2.59-.59,6.34-1.57,9.11-2.26-1.3-6.04-5.31-7.3-6.55-1.97-1.91-4.98,1.1-3.01,3.01,2.31,2.26,9.77,11.04,13.33,7.21,2.16-2.33,2.18-8.65,2.65-11.64.67-4.27,1.13-8.57,1.47-12.87.2-2.72-4.05-2.71-4.27,0ZM134.77,114.43c-.3,3.93-.71,7.84-1.32,11.72-.4,2.6-.58,6.34-1.55,9.14-2.28-1.32-6.04-5.34-7.31-6.56-1.98-1.92-4.99,1.09-3.01,2.99,2.32,2.26,9.77,11.06,13.35,7.21,2.14-2.32,2.17-8.63,2.64-11.64.67-4.26,1.14-8.55,1.45-12.86.22-2.73-4.04-2.71-4.25,0ZM119.25,165.13c-1.67-3.62-5.57-3.6-8.91-2.66-.35.1-.62.27-.86.45-.6.03-1.22.28-1.65.94-1.78,2.56-1.41,6.25.73,8.51,2.14,2.26,5.74,2.44,8.32.82,2.72-1.71,3.74-5.13,2.37-8.06ZM114.4,169.71c-2.29,1.17-3.96-1.14-3.18-3.13.09,0,.15.02.25,0,1.19-.34,3.23-1.09,3.95.36.55,1.09,0,2.26-1.02,2.78ZM94.58,72.26c-1.69-3.61-5.59-3.6-8.93-2.66-.35.1-.62.27-.86.47-.6.02-1.22.28-1.65.92-1.77,2.57-1.41,6.25.73,8.51,2.15,2.26,5.74,2.44,8.32.84,2.72-1.72,3.74-5.15,2.39-8.08ZM89.71,76.84c-2.29,1.17-3.96-1.12-3.18-3.11.09,0,.16,0,.26,0,1.18-.34,3.22-1.11,3.94.35.56,1.1,0,2.25-1.02,2.77ZM116.56,53.69c-.3,3.92-.7,7.83-1.31,11.73-.4,2.57-.6,6.34-1.57,9.11-2.26-1.3-6.04-5.33-7.29-6.55-1.97-1.91-4.99,1.1-3.01,3.01,2.31,2.24,9.77,11.04,13.33,7.19,2.16-2.31,2.17-8.63,2.64-11.64.67-4.27,1.14-8.55,1.47-12.85.21-2.74-4.04-2.72-4.26,0ZM141.25,146.54c-.3,3.94-.7,7.85-1.31,11.73-.4,2.59-.6,6.34-1.57,9.13-2.26-1.32-6.04-5.33-7.31-6.55-1.96-1.93-4.97,1.08-2.99,3.01,2.31,2.24,9.77,11.04,13.33,7.19,2.16-2.31,2.17-8.63,2.64-11.64.67-4.27,1.14-8.55,1.47-12.87.2-2.72-4.06-2.71-4.26,0Z"/>
      <path d="M223.19,161.3c-12.36-46.54-26.06-92.69-39.56-138.9-.31-1.09-1.48-1.81-2.61-1.49-38.92,11.36-77.76,23.03-116.67,34.39-1.08.33-1.82,1.5-1.48,2.62,1.62,5.56,3.24,11.11,4.83,16.66-7.64,3.67-15.31,7.33-22.97,10.98-1.08.52-1.22,1.95-.77,2.91,21.55,45.08,42.29,90.52,61.12,136.81.52,1.3,1.79,1.97,3.13,1.27,36.7-19.37,72.88-39.73,109.58-59.1,1.09-.57,1.22-1.62.87-2.49,1.02-.35,2.02-.7,3.04-1.05.41-.14.69-.37.92-.62.51-.47.81-1.14.57-1.99h0ZM105.44,199.8c-.32-.77-.64-1.54-.96-2.29-10.84-46.62-23.48-92.78-36.93-138.72,37.55-10.97,75.04-22.21,112.59-33.18,13.11,44.88,26.38,89.71,38.42,134.88-37.82,12.8-75.32,26.52-113.12,39.31Z"/>
    </g>
  </g>
</svg>