<?xml version="1.0" encoding="UTF-8"?>
<svg id="Layer_1" data-name="Layer 1" xmlns="http://www.w3.org/2000/svg" viewBox="0 0 437.37 349.09">
  <defs>
    <style>
      .cls-1 {
        fill: #fff;
      }

      .cls-2 {
        fill: #f2c316;
      }

      .cls-3 {
        fill: none;
        stroke: #000;
        stroke-miterlimit: 10;
        stroke-width: 2px;
      }
    </style>
  </defs>
  <path class="cls-2" d="M82.05,111.96c13.3-25.72,29.06-50.65,48.36-72.25C149.7,18.11,176.63,5,205.29.84c16.12-2.34,32.65.43,48.09,5.63,15.44,5.2,30.49,11.82,44.39,20.31,31.38,19.16,54.2,42.12,77.97,65.47,23.77,23.35,43.24,49.37,55.49,80.37,5.14,13,8.51,32.78,4.09,46.04-14.71,44.13-52.58,64.84-98.2,83.94-42.15,17.65-88.53,22.3-134.05,26.34-19.64-.58-35.66-1.69-54.9-5.66s-40.87-13.85-55.58-26.88c-24.78-21.97-37.63-53.68-35.93-86.76,1.7-33.07,10.18-68.27,25.4-97.68h0Z"/>
  <path class="cls-3" d="M339.73,322.19c28.75-25.66,37.94-54.49,49.11-96.92,7.77-29.51,13.98-60.5,8.33-90.48-5.65-29.99-22.84-58.99-50.94-70.89-15.87-6.73-33.54-7.63-50.77-7.62-56.74,0-107.93,2.38-169.12,17.56-13.73,3.4-26.56,7.49-39.7,12.72-13.14,5.23-23.42,11.79-30.5,24.03-6.48,11.22-8.13,24.62-7.75,37.57.72,24.56,7.25,48.53,17.8,70.71s20.95,42.42,37.62,63.3c18.33,22.96,63.64,51.08,102.97,60.79,39.32,9.71,101.71,7.13,132.95-20.76h0Z"/>
  <g>
    <path class="cls-1" d="M332.68,39.63c-4.72,28.72-7.77,58.22-10.71,86.76-3.25,31.44-6.61,63.94-12.21,95.66-.18,1.02-.73,1.86-1.49,2.45-.28.5-.65.98-1.17,1.34l-102.61,72.23c-.7.5-1.52.73-2.32.73-.08,0-.16-.02-.25-.02-.13.01-.25.06-.38.06-.63,0-1.24-.19-1.79-.47-.6.35-1.27.6-1.99.6-.19,0-.37-.02-.56-.04L4.16,272.16c-.16-.03-.3-.12-.46-.16-.27-.08-.53-.15-.77-.28-.23-.11-.41-.24-.61-.39-.21-.16-.4-.32-.58-.52-.16-.19-.29-.38-.42-.6-.14-.22-.25-.44-.34-.69-.09-.24-.14-.49-.18-.75-.02-.16-.1-.29-.1-.45L.01,249.38s0-.01-.01-.01v-.08c0-.11.05-.2.05-.3.01-.11-.04-.2-.02-.31,0-.14.09-.25.12-.38.04-.17.04-.35.1-.52.05-.12.13-.23.19-.35.09-.2.21-.37.33-.55.1-.14.16-.29.27-.42.09-.1.21-.16.3-.25.18-.16.37-.29.57-.41.12-.08.21-.2.34-.27l97.8-47.86L120.97,23.33c.24-2.04,1.97-3.56,4.01-3.56h.09l187.17,3.77c.35,0,.67.13,1.01.23,1.09-.13,2.22.16,3.12.95,4.11,3.61,8.59,6.82,13.3,9.55.64.37,1.08.93,1.42,1.52,1.17.88,1.85,2.31,1.6,3.85Z"/>
    <g>
      <g>
        <path d="M275.77,114.05c1.66-.55,2.61-2.28,2.11-3.92l-2.63-9.13c-.25-.84-.82-1.54-1.6-1.95-.82-.43-1.79-.49-2.68-.21l-4,1.36c-.39-.49-.79-.97-1.23-1.42l2.07-3.51c.43-.75.55-1.68.29-2.52-.27-.86-.91-1.56-1.73-1.94l-8.87-4.05c-1.56-.71-3.44-.12-4.31,1.34l-2.21,3.76c-.8-.09-1.63-.13-2.44-.13l-.99-3.38c-.25-.82-.8-1.52-1.6-1.93-.82-.43-1.79-.49-2.68-.21l-9.95,3.35c-1.65.57-2.6,2.3-2.12,3.92l1.07,3.67c-.73.53-1.43,1.11-2.11,1.7l-3.63-1.64c-1.56-.71-3.45-.12-4.32,1.32l-5.21,8.91c-.45.75-.57,1.68-.3,2.52.28.86.9,1.58,1.74,1.94l3.35,1.54c-.13.7-.23,1.4-.29,2.1l-4.27,1.43c-1.67.58-2.62,2.3-2.12,3.92l2.64,9.15c.24.84.81,1.52,1.6,1.93.81.43,1.78.51,2.67.21l4-1.34c.39.47.8.95,1.23,1.4l-2.05,3.51c-.45.75-.57,1.68-.3,2.55.26.83.91,1.56,1.74,1.93l8.85,4.06c1.56.69,3.47.12,4.31-1.34l2.22-3.75c.79.08,1.62.1,2.46.1l.97,3.38c.24.84.81,1.55,1.6,1.95.49.25,1.03.37,1.58.37.37,0,.73-.06,1.09-.16l9.96-3.37c1.64-.55,2.59-2.27,2.11-3.9l-1.07-3.67c.73-.55,1.46-1.11,2.11-1.72l3.63,1.66c1.56.69,3.45.12,4.32-1.34l5.23-8.88c.43-.76.55-1.71.29-2.55-.27-.84-.91-1.57-1.75-1.95l-3.34-1.52c.12-.7.22-1.4.28-2.09l4.28-1.46h0ZM268.67,111.03c-1.3.43-2.2,1.64-2.22,2.98-.04,1.31-.22,2.65-.57,3.95-.37,1.46.37,3,1.79,3.64l2.81,1.29-3.3,5.62-3.33-1.52c-1.21-.57-2.69-.3-3.65.64-1.03,1.03-2.2,1.94-3.45,2.77-1.19.78-1.72,2.19-1.34,3.53l.93,3.25-6.49,2.19-.83-2.94c-.43-1.46-1.87-2.38-3.39-2.32-1.38.09-2.74.05-4.04-.14-1.38-.2-2.69.43-3.37,1.58l-1.99,3.39-5.48-2.48,1.75-2.98c.75-1.29.51-2.9-.61-3.9-.93-.83-1.75-1.78-2.44-2.79-.84-1.21-2.4-1.72-3.82-1.24l-3.45,1.16-1.58-5.46,3.78-1.28c1.29-.42,2.17-1.62,2.21-2.93.04-1.36.23-2.7.57-3.98.37-1.48-.37-3.02-1.78-3.66l-2.82-1.29,3.31-5.6,3.32,1.52c1.24.55,2.7.28,3.65-.63,1.06-1.04,2.22-1.97,3.45-2.8,1.2-.76,1.73-2.17,1.36-3.51l-.95-3.26,6.49-2.18.87,2.94c.41,1.44,1.8,2.4,3.34,2.3,1.4-.09,2.76-.02,4.08.16,1.38.18,2.7-.45,3.37-1.6l1.99-3.39,5.46,2.5-1.75,2.96c-.75,1.29-.51,2.92.62,3.92.93.83,1.74,1.76,2.44,2.79.83,1.22,2.39,1.71,3.81,1.24l3.45-1.18,1.58,5.46-3.77,1.28h0Z"/>
        <path d="M259.01,111.11c-.96-3.06-3.16-5.52-6.18-6.9-6.16-2.81-14.04-.18-17.59,5.87-1.8,3.04-2.25,6.63-1.25,9.81.99,3.08,3.16,5.52,6.18,6.9,1.68.77,3.49,1.13,5.3,1.13,4.84,0,9.71-2.59,12.29-6.98,1.81-3.06,2.25-6.63,1.25-9.83h0ZM253.35,118.34c-2.25,3.84-7.2,5.54-11.05,3.8-1.66-.76-2.89-2.11-3.4-3.78-.58-1.82-.31-3.85.77-5.68,1.64-2.82,4.75-4.48,7.81-4.48,1.11,0,2.19.22,3.22.67,1.68.78,2.9,2.12,3.41,3.8.59,1.83.3,3.84-.76,5.66Z"/>
        <path d="M129.83,163.25l.43,1.48c.41,1.38,1.83,2.15,3.18,1.76,1.36-.39,2.13-1.79,1.77-3.14l6.69-2.25c1.42-.47,2.4-1.79,2.44-3.24.06-2.05.35-4.1.87-6.14.41-1.58-.39-3.26-1.93-3.96l-5.4-2.46,6.12-10.41,5.91,2.69c1.36.61,2.98.35,4.02-.69,1.62-1.56,3.39-3,5.29-4.25,1.32-.87,1.89-2.4,1.48-3.84l-1.7-5.94,11.91-4,1.6,5.56c.47,1.58,1.99,2.63,3.73,2.52,2.09-.12,4.2-.04,6.24.22,1.52.22,3-.47,3.73-1.74l3.51-5.96,10.3,4.7-3.26,5.56c-.82,1.38-.55,3.14.65,4.22,1.44,1.32,2.73,2.77,3.82,4.34.93,1.34,2.65,1.91,4.25,1.36l6.31-2.11,3,10.41-6.67,2.25c-1.46.49-2.42,1.77-2.46,3.24-.04,2.05-.35,4.12-.87,6.14-.41,1.6.41,3.26,1.95,3.96l5.38,2.46-2.57,4.38c-.71,1.21-.31,2.8.93,3.51.41.24.87.35,1.3.35.89,0,1.74-.45,2.21-1.28l3.51-5.98c.49-.84.61-1.85.33-2.77-.31-.93-1.01-1.7-1.91-2.11l-5.83-2.67c.33-1.56.55-3.12.65-4.7l7.08-2.4c1.83-.61,2.86-2.5,2.34-4.3l-3.9-13.51c-.27-.91-.89-1.66-1.74-2.11-.91-.47-1.99-.55-2.98-.22l-6.75,2.28c-.89-1.19-1.85-2.3-2.9-3.35l3.51-5.98c.49-.84.61-1.85.33-2.78-.31-.93-1.01-1.7-1.91-2.11l-13.08-5.98c-1.74-.8-3.86-.16-4.81,1.46l-3.65,6.22c-1.72-.18-3.47-.27-5.21-.2l-1.7-5.91c-.27-.91-.89-1.66-1.74-2.11-.93-.47-1.99-.55-2.98-.22l-14.7,4.95c-1.83.61-2.86,2.5-2.34,4.3l1.81,6.26c-1.52,1.05-2.98,2.21-4.32,3.47l-6.1-2.77c-1.74-.8-3.84-.16-4.81,1.48l-7.72,13.12c-.49.84-.59,1.85-.31,2.78.29.93.99,1.7,1.91,2.11l5.81,2.67c-.33,1.56-.53,3.14-.63,4.7l-7.08,2.4c-1.85.61-2.88,2.5-2.36,4.3v-.02Z"/>
        <path d="M161.15,167.67c.99,1.03,2.61,1.07,3.63.1,1.03-.99,1.09-2.61.1-3.63-3.31-3.51-3.71-8.72-1.03-13.3,3.63-6.18,11.64-8.91,17.84-6.08,2.8,1.28,4.83,3.51,5.7,6.33.97,3.04.51,6.37-1.25,9.39-1.28,2.17-3.14,3.98-5.42,5.27-1.23.67-1.66,2.25-.97,3.49.47.84,1.34,1.3,2.23,1.3.43,0,.87-.1,1.25-.33,3.06-1.7,5.58-4.18,7.3-7.14,2.52-4.27,3.14-9.07,1.74-13.51-1.34-4.2-4.34-7.57-8.48-9.47-8.52-3.9-19.49-.22-24.4,8.17-3.8,6.47-3.1,14.26,1.72,19.42h.03Z"/>
      </g>
      <path d="M239.93,217.55c-.16,2.12-1.93,3.72-4.02,3.72-.1,0-.22,0-.32-.01l-8.26-.65c-2.23-.18-3.89-2.12-3.71-4.36.17-2.22,2.09-3.9,4.35-3.71l8.26.65c2.23.18,3.89,2.13,3.71,4.36Z"/>
      <path d="M215.17,217.35c-.06,2.19-1.86,3.92-4.03,3.92h-.12c-10.19-.28-22.58-.88-34.56-1.44-11.94-.57-24.29-1.16-34.4-1.44-2.23-.06-3.99-1.92-3.92-4.16.06-2.23,2.05-4.04,4.15-3.92,10.19.28,22.57.88,34.55,1.44,11.94.57,24.29,1.16,34.4,1.44,2.24.06,3.99,1.93,3.93,4.16h0Z"/>
      <path d="M129.7,213.33c-.05,2.21-1.85,3.96-4.04,3.96h-.08l-4.79-.09c-2.23-.05-4.01-1.89-3.96-4.12.04-2.21,1.84-3.96,4.03-3.96h.09l4.78.09c2.23.04,4.01,1.89,3.97,4.12Z"/>
      <path d="M216.15,233.94c-.12,2.15-1.9,3.81-4.03,3.81-.08,0-.16-.01-.23-.01l-15.16-.87c-2.23-.12-3.93-2.03-3.81-4.27.13-2.23,1.93-3.9,4.28-3.81l15.16.87c2.22.13,3.93,2.04,3.8,4.28Z"/>
      <path d="M187.42,231.81c-.16,2.12-1.93,3.73-4.03,3.73-.1,0-.2,0-.31-.01l-64.89-4.99c-2.22-.17-3.89-2.11-3.72-4.35.17-2.23,2.13-3.92,4.35-3.72l64.89,4.99c2.22.17,3.89,2.12,3.72,4.35h0Z"/>
      <path d="M111.34,225.43c-.21,2.07-1.97,3.62-4.01,3.62-.14,0-.28,0-.42-.02l-9.6-1.01c-2.22-.24-3.82-2.23-3.59-4.46.23-2.22,2.2-3.82,4.45-3.59l9.58,1.01c2.22.23,3.84,2.22,3.6,4.45Z"/>
      <path d="M192.26,249.58c-.23,2.07-1.98,3.6-4.02,3.6-.15,0-.29,0-.44-.02l-106.67-11.82c-2.22-.25-3.82-2.24-3.57-4.47.24-2.22,2.28-3.84,4.47-3.58l106.66,11.83c2.22.24,3.82,2.24,3.58,4.46h0Z"/>
      <path d="M297.46,39.61c-.45-.51-1.11-.81-1.79-.83l-157.44-3.17h-.05c-1.23,0-2.26.92-2.41,2.14l-17.69,147.55c-.08.67.13,1.36.58,1.88.45.51,1.1.81,1.78.83l157.45,3.17h.05c1.23,0,2.26-.92,2.4-2.14l17.69-147.55c.08-.67-.13-1.36-.57-1.88ZM275.78,186.29l-152.56-3.08,17.11-142.7,152.56,3.07-17.11,142.71h0Z"/>
      <path d="M93.71,223.57c.23-2.22,2.2-3.82,4.45-3.59l9.58,1.01c2.22.23,3.84,2.22,3.6,4.45-.21,2.07-1.97,3.62-4.01,3.62-.14,0-.28,0-.42-.02l-9.6-1.01c-2.22-.24-3.82-2.23-3.59-4.46Z"/>
      <path d="M116.82,213.08c.04-2.21,1.84-3.96,4.03-3.96h.09l4.78.09c2.23.04,4.01,1.89,3.97,4.12-.05,2.21-1.85,3.96-4.04,3.96h-.08l-4.79-.09c-2.23-.05-4.01-1.89-3.96-4.12Z"/>
      <path d="M114.46,226.2c.17-2.23,2.13-3.92,4.35-3.72l64.89,4.99c2.22.17,3.89,2.12,3.72,4.35-.16,2.12-1.93,3.73-4.03,3.73-.1,0-.2,0-.31-.01l-64.89-4.99c-2.22-.17-3.89-2.11-3.72-4.35h0Z"/>
      <path d="M192.26,249.58c-.23,2.07-1.98,3.6-4.02,3.6-.15,0-.29,0-.44-.02l-106.67-11.82c-2.22-.25-3.82-2.24-3.57-4.47.24-2.22,2.28-3.84,4.47-3.58l106.66,11.83c2.22.24,3.82,2.24,3.58,4.46h0Z"/>
      <path d="M138.13,214.23c.06-2.23,2.05-4.04,4.15-3.92,10.19.28,22.57.88,34.55,1.44,11.94.57,24.29,1.16,34.4,1.44,2.24.06,3.99,1.93,3.93,4.16-.06,2.19-1.86,3.92-4.03,3.92h-.12c-10.19-.28-22.58-.88-34.56-1.44-11.94-.57-24.29-1.16-34.4-1.44-2.23-.06-3.99-1.92-3.92-4.16h0Z"/>
      <path d="M216.15,233.94c-.12,2.15-1.9,3.81-4.03,3.81-.08,0-.16-.01-.23-.01l-15.16-.87c-2.23-.12-3.93-2.03-3.81-4.27.13-2.23,1.93-3.9,4.28-3.81l15.16.87c2.22.13,3.93,2.04,3.8,4.28Z"/>
      <path d="M239.93,217.55c-.16,2.12-1.93,3.72-4.02,3.72-.1,0-.22,0-.32-.01l-8.26-.65c-2.23-.18-3.89-2.12-3.71-4.36.17-2.22,2.09-3.9,4.35-3.71l8.26.65c2.23.18,3.89,2.13,3.71,4.36Z"/>
      <path d="M297.46,39.61c-.45-.51-1.11-.81-1.79-.83l-157.44-3.17h-.05c-1.23,0-2.26.92-2.41,2.14l-17.69,147.55c-.08.67.13,1.36.58,1.88.45.51,1.1.81,1.78.83l157.45,3.17h.05c1.23,0,2.26-.92,2.4-2.14l17.69-147.55c.08-.67-.13-1.36-.57-1.88ZM275.78,186.29l-152.56-3.08,17.11-142.7,152.56,3.07-17.11,142.71h0Z"/>
      <path d="M331.08,35.78c-.34-.59-.77-1.15-1.42-1.52-4.71-2.73-9.18-5.94-13.3-9.55-.9-.78-2.03-1.08-3.12-.95-.33-.1-.65-.23-1.01-.23l-187.17-3.77h-.09c-2.04,0-3.77,1.52-4.01,3.56l-20.9,174.32L2.26,245.51c-.13.07-.22.19-.34.27-.2.12-.39.25-.57.41-.09.09-.21.15-.3.25-.11.13-.17.28-.27.42-.12.18-.24.35-.33.55-.06.12-.14.23-.19.35-.06.17-.06.35-.1.52-.03.13-.11.24-.12.38-.02.11.03.2.02.31,0,.1-.05.19-.05.3v.08h.01s.67,18.92.67,18.92c0,.16.08.29.1.45.04.26.09.51.18.75.09.25.2.47.34.69.13.22.26.41.42.6.18.2.37.36.58.52.2.15.38.28.61.39.24.13.5.2.77.28.16.04.3.13.46.16l193.02,26.78c.19.02.37.04.56.04.72,0,1.39-.25,1.99-.6.55.28,1.16.47,1.79.47.13,0,.25-.05.38-.06.09,0,.17.02.25.02.8,0,1.62-.23,2.32-.73l102.61-72.23c.51-.36.89-.83,1.17-1.34.75-.59,1.31-1.44,1.49-2.45,5.6-31.72,8.96-64.22,12.21-95.66,2.95-28.54,6-58.04,10.71-86.76.25-1.54-.43-2.98-1.6-3.85h0ZM194.06,267.21l-175.86-20.48,88.64-43.39s0-.01.02-.01l175.17,3.52-87.97,60.36h0ZM287.54,198.87l-179.04-3.61,20.06-167.34,179.05,3.61-20.07,167.34Z"/>
      <path d="M93.71,223.57c.23-2.22,2.2-3.82,4.45-3.59l9.58,1.01c2.22.23,3.84,2.22,3.6,4.45-.21,2.07-1.97,3.62-4.01,3.62-.14,0-.28,0-.42-.02l-9.6-1.01c-2.22-.24-3.82-2.23-3.59-4.46Z"/>
      <path d="M116.82,213.08c.04-2.21,1.84-3.96,4.03-3.96h.09l4.78.09c2.23.04,4.01,1.89,3.97,4.12-.05,2.21-1.85,3.96-4.04,3.96h-.08l-4.79-.09c-2.23-.05-4.01-1.89-3.96-4.12Z"/>
      <path d="M114.46,226.2c.17-2.23,2.13-3.92,4.35-3.72l64.89,4.99c2.22.17,3.89,2.12,3.72,4.35-.16,2.12-1.93,3.73-4.03,3.73-.1,0-.2,0-.31-.01l-64.89-4.99c-2.22-.17-3.89-2.11-3.72-4.35h0Z"/>
      <path d="M192.26,249.58c-.23,2.07-1.98,3.6-4.02,3.6-.15,0-.29,0-.44-.02l-106.67-11.82c-2.22-.25-3.82-2.24-3.57-4.47.24-2.22,2.28-3.84,4.47-3.58l106.66,11.83c2.22.24,3.82,2.24,3.58,4.46h0Z"/>
      <path d="M138.13,214.23c.06-2.23,2.05-4.04,4.15-3.92,10.19.28,22.57.88,34.55,1.44,11.94.57,24.29,1.16,34.4,1.44,2.24.06,3.99,1.93,3.93,4.16-.06,2.19-1.86,3.92-4.03,3.92h-.12c-10.19-.28-22.58-.88-34.56-1.44-11.94-.57-24.29-1.16-34.4-1.44-2.23-.06-3.99-1.92-3.92-4.16h0Z"/>
      <path d="M216.15,233.94c-.12,2.15-1.9,3.81-4.03,3.81-.08,0-.16-.01-.23-.01l-15.16-.87c-2.23-.12-3.93-2.03-3.81-4.27.13-2.23,1.93-3.9,4.28-3.81l15.16.87c2.22.13,3.93,2.04,3.8,4.28Z"/>
      <path d="M239.93,217.55c-.16,2.12-1.93,3.72-4.02,3.72-.1,0-.22,0-.32-.01l-8.26-.65c-2.23-.18-3.89-2.12-3.71-4.36.17-2.22,2.09-3.9,4.35-3.71l8.26.65c2.23.18,3.89,2.13,3.71,4.36Z"/>
      <path d="M297.46,39.61c-.45-.51-1.11-.81-1.79-.83l-157.44-3.17h-.05c-1.23,0-2.26.92-2.41,2.14l-17.69,147.55c-.08.67.13,1.36.58,1.88.45.51,1.1.81,1.78.83l157.45,3.17h.05c1.23,0,2.26-.92,2.4-2.14l17.69-147.55c.08-.67-.13-1.36-.57-1.88ZM275.78,186.29l-152.56-3.08,17.11-142.7,152.56,3.07-17.11,142.71h0Z"/>
    </g>
  </g>
</svg>