<?xml version="1.0" encoding="UTF-8"?>
<svg id="Layer_1" xmlns="http://www.w3.org/2000/svg" version="1.1" viewBox="0 0 369 362.66">
  <!-- Generator: Adobe Illustrator 30.0.0, SVG Export Plug-In . SVG Version: 2.1.1 Build 123)  -->
  <defs>
    <style>
      .st0 {
        fill: #fff;
      }

      .st1 {
        fill: #f2c316;
      }

      .st2 {
        fill: none;
        stroke: #000;
        stroke-miterlimit: 10;
        stroke-width: 2px;
      }
    </style>
  </defs>
  <g>
    <path class="st1" d="M133.67,141.26c-8.79,5.97-17.71,11.65-26.45,12.28s-17.53.6-26.3.53c-8.83-.07-17.79.85-26.02,4.05s-15.35,9.38-21.51,15.71c-22.89,23.48-27.54,55.38-18.76,83.78,6.34,20.52,18.18,39.33,32.85,55.03,12.31,13.17,27.77,24.83,43.23,34.1,12.96,7.78,27.78,12.16,42.78,13.99s30.22,1.19,45.23-.59c9.84-1.16,19.47-5.02,28.82-8.28,27.67-9.66,52.71-25.49,76.78-42.22,30.06-20.88,58.97-47.29,75.28-80.05,13.01-26.14,11.95-60.14-8.59-84.3-18.71-22.01-35.39-46.06-56.74-65.51-16.95-15.44-33.99-30.74-54.42-43.67-9.9-6.25-21.55-10.09-33.25-10.52-10.98-.4-22.06,3.55-30.3,10.82s-12.79,17.86-14.53,28.71c-2.68,16.71-1.97,34.29-8.48,49.9-4.71,11.31-9.48,19.36-19.61,26.24h0Z"/>
    <path class="st2" d="M99.24,127.07c25.63-9.91,47.11-20.1,70.48-29.83s43.22-20.3,69.77-23.68c27.86-3.55,55.94-3.54,76.83,6.81,8.18,4.06,18.18,9,22.09,17.25s4.99,18.45,4.77,27.58c-1.23,49.72-19.16,106.86-33.31,142.81-12.3,31.25-26.95,60.74-44.25,80.83-3.79,4.41-8.84,7.67-14.44,9.24-4.19,1.17-9.49,1.15-13.71.09-13.78-3.44-20.17-7.04-30.12-11.13-31.09-12.76-55.38-23.49-82.03-35.06-20.23-8.78-40.71-17.7-58.03-31.36s-31.27-30.64-40.52-49.85c-4.49-9.33-6.39-20.7-6.55-31.05-.19-12.77,2.88-27.75,11.26-37.39s19.87-16.04,31.59-21.11c11.72-5.07,23.29-9.19,36.17-14.17v.02h0Z"/>
  </g>
  <g>
    <path class="st0" d="M263.07,19.34c-.21,3.12-13.85,201.9-13.85,201.9-.31,4.64-4.21,8.34-8.87,8.41l-8.09.12,3.22,79.63c.06,1.36-.81,2.59-2.1,3l-13.4,4.26c-.17.06-.34.1-.52.13-.15.02-.31.04-.46.04h-26.06c-.82,0-1.61-.34-2.17-.92-.57-.59-.88-1.38-.86-2.2l2.38-83.33-68.07,1.03-7.48,77.24c-.12,1.2-.94,2.22-2.1,2.59l-13.41,4.26c-.14.05-.28.08-.44.11-.17.03-.35.05-.53.05h-26.06c-.88,0-1.71-.39-2.29-1.05-.57-.67-.83-1.55-.7-2.42l11.94-80.16-3.12.05h-.15c-1.03,0-2.05-.18-3.02-.52-.28-.1-.54-.24-.78-.42l-12.88-9.47c-.06-.05-.12-.09-.18-.14l-.37-.27c-.08-.06-.12-.14-.19-.21-.24-.21-.51-.39-.73-.62-1.73-1.83-2.63-4.32-2.45-6.83l.13-2-9.17.14h-.04c-1,0-1.93-.48-2.49-1.3-.58-.83-.7-1.9-.33-2.84,9.88-24.95,16.46-85.86,20.23-132.57.13-1.66,1.54-2.88,3.26-2.77,1.67.14,2.91,1.6,2.77,3.26l.67-8.76-2.79-1.88-15.64-10.52c-2.05,2.24-4.93,3.35-7.34,4.25-.72.27-1.42.53-2.07.81l-.82.37c-3.51,1.55-7.39,3.26-11.6,3.26-1.23,0-2.49-.14-3.77-.48-2.93-.77-5.34-2.41-7.75-4.16-7.12-5.16-14.07-10.74-20.66-16.57-.87-.76-1.22-1.95-.92-3.06.31-1.11,1.21-1.96,2.35-2.17l21.81-4.23-.86-25.34c-.04-1.12.54-2.16,1.51-2.72.97-.56,2.17-.54,3.12.06l24.21,15.15c2.25,1.41,5.06,3.16,6.81,6.04,3.16,5.18,1.57,10.94.28,15.65-.27.98-.48,2.18-.7,3.44-.24,1.37-.5,2.82-.87,4.24l10.45,7.03c.27-3.75.52-7.34.74-10.72.09-1.35.18-2.67.26-3.95.09-1.29.17-2.54.24-3.75.33-5.14.6-9.6.8-13.19.03-.42.05-.83.07-1.22.01-.2.02-.4.03-.59.03-.58.06-1.13.09-1.64.22-3.99.33-6.25.33-6.31.05-1.03.64-1.89,1.47-2.39l.04-.5c.31-4.65,4.21-8.34,8.87-8.42L242.32.83c2.47.03,4.96.99,6.69,2.81.07.07.11.15.17.22,0,.02.03.02.03.02l13,13.13c.6.62.92,1.47.86,2.33h0Z"/>
    <path d="M262.21,17.01l-13-13.13s-.02,0-.03-.02c-.06-.07-.1-.15-.17-.22-1.73-1.82-4.22-2.78-6.69-2.81L82,3.25c-4.66.08-8.56,3.77-8.87,8.42l-.04.5c-.83.5-1.42,1.36-1.47,2.39,0,.06-.11,2.32-.33,6.31-.02.51-.05,1.06-.09,1.64-.01.19-.02.39-.03.59-.02.39-.04.8-.07,1.22-.2,3.59-.47,8.05-.8,13.19-.07,1.21-.15,2.46-.24,3.75-.08,1.28-.17,2.6-.26,3.95-.22,3.38-.47,6.97-.74,10.72l-10.45-7.03c.37-1.42.63-2.87.87-4.24.22-1.26.43-2.46.7-3.44,1.29-4.71,2.88-10.47-.28-15.65-1.75-2.88-4.56-4.63-6.81-6.04L28.88,4.38c-.95-.6-2.15-.62-3.12-.06-.97.56-1.55,1.6-1.51,2.72l.86,25.34-21.81,4.23c-.38.07-.74.21-1.05.42-.63.39-1.09,1.01-1.3,1.75-.3,1.11.05,2.3.92,3.06,0,0,.03.02.04.03,6.58,5.82,13.51,11.39,20.62,16.54,2.41,1.75,4.82,3.39,7.75,4.16,1.28.34,2.54.48,3.77.48,4.21,0,8.09-1.71,11.6-3.26l.82-.37c.65-.28,1.35-.54,2.07-.81,2.41-.9,5.29-2.01,7.34-4.25l15.64,10.52,2.79,1.88,64.61,43.45c.29.2.6.32.93.41l2.19,1.47c1.88,1.26,2.37,3.8,1.11,5.68-.79,1.17-2.08,1.81-3.39,1.81-.79,0-1.58-.23-2.28-.7l-9.24-6.21c.51,9.72,7.72,17.38,17.07,17.55,10.15.19,18.95-8.47,19.67-19.36.71-10.88-6.93-19.86-17.07-20.05-6.1-.11-11.69,2.99-15.35,7.83l-18.54-12.47c8.04-11.88,21.13-19.61,35.47-19.34,22.49.42,39.43,20.32,37.84,44.45-1.59,24.13-21.11,43.35-43.6,42.93-22.49-.43-39.43-20.33-37.84-44.46.24-3.73.96-7.32,2.01-10.77l-19.83-13.34c-3.03,7.36-4.95,15.33-5.5,23.67-2.5,37.95,24.15,69.25,59.51,69.91,35.37.66,66.07-29.56,68.57-67.5,2.49-37.94-24.15-69.24-59.52-69.91-22.92-.43-43.85,12.15-56.44,31.36l-19.84-13.34.17-2.28c1.37-18.99,2.19-33.89,2.5-39.86l151.91-2.3c-.07,21.45-1.07,148.91-14.1,187.8l-160.79,2.44c9.3-27.7,15.49-85.4,19.1-130.11.14-1.66-1.1-3.12-2.77-3.26-1.72-.11-3.13,1.11-3.26,2.77-3.77,46.71-10.35,107.62-20.23,132.57-.37.94-.25,2.01.33,2.84.56.82,1.49,1.3,2.49,1.3h.04l9.17-.14-.13,2c-.18,2.51.72,5,2.45,6.83.22.23.49.41.73.62.07.07.11.15.19.21l.37.27c.06.05.12.09.18.14l12.88,9.47c.24.18.5.32.78.42.97.34,1.99.52,3.02.52h.15l3.12-.05-11.94,80.16c-.13.87.13,1.75.7,2.42.58.66,1.41,1.05,2.29,1.05h26.06c.18,0,.36-.02.53-.05.16-.03.3-.06.44-.11l13.41-4.26c1.16-.37,1.98-1.39,2.1-2.59l7.48-77.24,68.07-1.03-2.38,83.33c-.02.82.29,1.61.86,2.2.56.58,1.35.92,2.17.92h26.06c.15,0,.31-.02.46-.04.18-.03.35-.07.52-.13l13.4-4.26c1.29-.41,2.16-1.64,2.1-3l-3.22-79.63,8.09-.12c4.66-.07,8.56-3.77,8.87-8.41,0,0,13.64-198.78,13.85-201.9.06-.86-.26-1.71-.86-2.33h0ZM44.27,21.14c.13,5.76-.35,11.51-1.41,17.17l-10.91-7.34c-.26-.18-.55-.26-.84-.35l-.62-18.1s13.78,8.62,13.78,8.62ZM15.13,45.08c-1.52-1.23-3.07-2.45-4.57-3.72l18.24-3.53c.55-.1,1.01-.39,1.41-.74l4.93,3.31-18.87,4.16c-.43.09-.81.28-1.14.52ZM46.42,52.94c-.83.31-1.63.61-2.38.94l-.84.37c-3.98,1.76-7.75,3.42-11.38,2.47-1.92-.51-3.74-1.75-5.74-3.2-1.7-1.24-3.37-2.53-5.05-3.81l21.05-4.64,8.65,5.82c-1.11.83-2.67,1.44-4.31,2.05ZM54.37,39.54c-.37,1.34-.61,2.73-.85,4.08-.1.56-.19,1.11-.3,1.66l-4.97-3.34c.06-.15.14-.27.17-.42,1.16-5.45,1.8-11,1.92-16.57,1.68,1.06,3.47,2.25,4.4,3.77,1.79,2.94.69,6.95-.37,10.82ZM97.58,309.61h-19.87l12.92-86.7,17.48-.27-10.53,86.97ZM110.91,306.08l-7.08,2.24,10.08-83.27,4.53,3.2-7.53,77.83ZM215.97,310.77h-19.92l2.55-89.5,17.37-.26v89.76ZM222.02,309.66v-84.16l4.13,2.91,3.19,78.93-7.32,2.32ZM231.58,211.99c-.1,1.53-1.39,2.75-2.92,2.77l-160.33,2.43h-.05c-.82,0-1.59-.33-2.16-.93-.58-.61-.86-1.41-.81-2.25l.17-2.5,152.05-2.3c1.24-.02,2.35-.8,2.78-1.96,15.25-40.57,15.18-188.65,15.17-194.94,0-.81-.32-1.58-.9-2.15-.58-.56-1.39-.88-2.17-.87l-153.12,2.32c.31-1.3,1.43-2.28,2.8-2.3l160.32-2.43c.91.05,1.63.32,2.21.93.58.61.87,1.41.81,2.25l-13.85,201.93h0Z"/>
  </g>
</svg>