<?xml version="1.0" encoding="UTF-8"?>
<svg id="Layer_1" data-name="Layer 1" xmlns="http://www.w3.org/2000/svg" viewBox="0 0 300 283.48">
  <defs>
    <style>
      .cls-1 {
        fill: #fff;
      }

      .cls-2 {
        fill: #f2c316;
        isolation: isolate;
      }

      .cls-3 {
        fill: none;
        stroke: #000;
        stroke-miterlimit: 10;
        stroke-width: 2px;
      }
    </style>
  </defs>
  <path class="cls-3" d="M61.54,274.87c11.86,5.03,24.92,6.77,37.8,6.66,12.88-.11,25.68-2.01,38.41-4.01,24.59-3.88,50.15-8.59,70.07-23.52"/>
  <g>
    <path class="cls-3" d="M86.25,21.49C111.26,5.7,139.9-.69,171.33,2.94c29.38,3.4,54.94,17.44,77.19,43.11"/>
    <path class="cls-2" d="M2.51,203.01c.93,10.7,4.94,22.16,8.62,32.25,3.18,8.72,6.72,16.44,12.62,22.7s10.69,11.9,18.25,15.35c13.15,5.99,30.49,5.81,44.29.44,15.33-5.96,25-14,39.03-20.12s24.31-10.01,37.17-7.86,25,7.24,37.43,11.15c12.43,3.91,26.08,4.94,38.83,2.26,15.17-3.19,24.66-13.45,34.1-25.75,10.35-13.49,16.82-27.33,20.02-42.5,4.32-20.48,6.83-40.93,5.95-61.7s-6-41.93-16.29-59.98c-4.74-8.32-9.31-13.6-17.27-18.81-7.96-5.2-18.92-8.18-28.33-6.81-9.72,1.41-21.29,5.63-29.83,10.49-11.91,6.77-19.34,9.67-37.32,9.4-11.93-.18-21.94-7.89-31.1-15.53-9.17-7.64-18.56-15.96-28.69-22.27s-23.35-12.06-34.88-8.97c-11.53,3.09-23.39,12.04-31.6,21.11s-14.43,18.7-19.7,29.75c-9.96,20.92-14.55,43.13-19.22,65.83C-.08,156.14.48,179.58,2.51,203.01Z"/>
    <g>
      <path class="cls-1" d="M274.26,150.78l-31.94,8.18s-.07.02-.12.02c-.27.15-.56.27-.88.32-7.44,1.17-14.61,4.11-20.7,8.51-.39.3-.83.45-1.27.52-3.7,4.94-8.69,8.81-14.37,11.21,1.08,4.06.1,8.12-2.54,10.62-2.06,1.93-6.73,3.84-10.7,3.84-1.32,0-2.57-.22-3.62-.71-.27-.12-.49-.29-.76-.42-.27,2.35-1.25,4.46-2.86,6-2.06,1.93-6.73,3.82-10.72,3.82-1.32,0-2.57-.2-3.6-.69-1.07-.49-2.03-1.13-2.93-1.84-.42,1.94-1.35,3.65-2.69,4.95-2.06,1.93-6.73,3.82-10.72,3.82-1.32,0-2.57-.2-3.62-.69-1.89-.88-3.45-2.1-4.9-3.5-.44.71-.93,1.37-1.51,1.93-2.65,2.5-6.2,3.55-9.79,3.55-3.89,0-7.86-1.25-10.84-3.28-2.16,1.35-4.63,2.13-7.15,2.13-.44,0-.88-.02-1.32-.05-6.31-.68-11.35-6.46-11.04-12.6.1-1.86.64-3.52,1.35-4.97-.29,0-.59-.02-.86-.05-6.31-.66-11.38-6.43-11.06-12.57,0-.13.03-.22.05-.35-1.32.44-2.69.69-4.09.69-.44,0-.88-.03-1.32-.07-6.31-.69-11.38-6.44-11.03-12.61,0-.22.05-.44.07-.66l-31.13-5.06c-.78-.15-1.51-.59-1.98-1.25-.46-.66-.66-1.47-.54-2.28l11.11-68.02c.15-.81.59-1.52,1.25-1.99.66-.49,1.49-.66,2.28-.53l30.54,4.99c4.69-1.5,8.71-3.92,12.92-6.46,2.08-1.28,4.21-2.55,6.43-3.75,9.01-4.77,18.18-6.16,25.82-3.89,5.75,1.72,12.01,7,18.06,12.11,2,1.69,3.91,3.28,5.75,4.75,2.25-1.93,4.62-3.79,7.17-5.53,7.05-4.75,13.07-7.12,18.99-7.41,6.46-.35,12.18,1.78,17.76,3.86,1.23.44,2.45.91,3.67,1.33,7.12,2.44,12.83,2.71,17.04.8.41-.58,1.02-1.05,1.76-1.22l31.91-8.2c.78-.22,1.61-.1,2.32.32.69.42,1.2,1.1,1.4,1.88l17.15,66.76c.42,1.64-.59,3.3-2.2,3.74h0Z"/>
      <g>
        <path d="M276.46,147.04l-17.15-66.76c-.2-.78-.71-1.46-1.4-1.88-.71-.42-1.54-.54-2.32-.32l-31.91,8.2c-.74.17-1.35.64-1.76,1.22-4.21,1.91-9.92,1.64-17.04-.8-1.22-.42-2.44-.89-3.67-1.33-5.58-2.08-11.3-4.21-17.76-3.86-5.92.29-11.94,2.66-18.99,7.41-2.55,1.74-4.92,3.6-7.17,5.53-1.84-1.47-3.75-3.06-5.75-4.75-6.05-5.11-12.31-10.39-18.06-12.11-7.64-2.27-16.81-.88-25.82,3.89-2.22,1.2-4.35,2.47-6.43,3.75-4.21,2.54-8.23,4.96-12.92,6.46l-30.54-4.99c-.79-.13-1.62.04-2.28.53-.66.47-1.1,1.18-1.25,1.99l-11.11,68.02c-.12.81.08,1.62.54,2.28.47.66,1.2,1.1,1.98,1.25l31.13,5.06c-.02.22-.07.44-.07.66-.35,6.17,4.72,11.92,11.03,12.61.44.04.88.07,1.32.07,1.4,0,2.77-.25,4.09-.69-.02.13-.05.22-.05.35-.32,6.14,4.75,11.91,11.06,12.57.27.03.57.05.86.05-.71,1.45-1.25,3.11-1.35,4.97-.31,6.14,4.73,11.92,11.04,12.6.44.03.88.05,1.32.05,2.52,0,4.99-.78,7.15-2.13,2.98,2.03,6.95,3.28,10.84,3.28,3.59,0,7.14-1.05,9.79-3.55.58-.56,1.07-1.22,1.51-1.93,1.45,1.4,3.01,2.62,4.9,3.5,1.05.49,2.3.69,3.62.69,3.99,0,8.66-1.89,10.72-3.82,1.34-1.3,2.27-3.01,2.69-4.95.9.71,1.86,1.35,2.93,1.84,1.03.49,2.28.69,3.6.69,3.99,0,8.66-1.89,10.72-3.82,1.61-1.54,2.59-3.65,2.86-6,.27.13.49.3.76.42,1.05.49,2.3.71,3.62.71,3.97,0,8.64-1.91,10.7-3.84,2.64-2.5,3.62-6.56,2.54-10.62,5.68-2.4,10.67-6.27,14.37-11.21.44-.07.88-.22,1.27-.52,6.09-4.4,13.26-7.34,20.7-8.51.32-.05.61-.17.88-.32.05,0,.1,0,.12-.02l31.94-8.18c1.61-.44,2.62-2.1,2.2-3.74h0ZM76.44,159.59l-26.77-4.38.68-4.21.59-3.62.81-4.97.61-3.62.66-4.06.59-3.62.58-3.52.59-3.63.66-4.08.59-3.62.51-3.16.59-3.62.59-3.53.59-3.62.53-3.3.59-3.62.37-2.18,26.79,4.35s-1.78,30.8-10.15,62.01ZM96.19,168.08c-1.28,3.09-4.7,5.27-7.79,4.92-3.08-.32-5.75-3.28-5.6-6.19.1-1.61.93-3.38,2.4-4.97.95-1.02,3.23-3.32,4.94-3.37,2.5.09,4.33.95,5.46,2.57,1.32,1.91,1.56,4.67.59,7.04ZM104.8,185.34c-3.06-.35-5.73-3.28-5.58-6.2.07-1.63.93-3.4,2.4-4.99.95-1.03,3.2-3.37,4.94-3.35,2.5.07,4.33.93,5.43,2.55,1.35,1.9,1.57,4.67.62,7.04-1.28,3.11-4.68,5.29-7.81,4.95ZM123.15,197.99c-1.27,3.1-4.67,5.28-7.78,4.94-3.08-.34-5.75-3.28-5.6-6.19.09-1.62.95-3.4,2.42-4.97.93-1.03,3.25-3.45,4.92-3.38,2.49.1,4.33.96,5.45,2.55,1.33,1.93,1.57,4.7.59,7.05ZM198.23,185.7c-1.57,1.5-6.32,2.62-7.54,2.03-2.13-.97-3.89-2.86-5.82-5.06-6.24-7.05-14.66-18.35-19.16-24.4-1.03-1.37-2.94-1.64-4.29-.63-1.37,1-1.64,2.93-.63,4.28,4.52,6.07,12.89,17.27,19.28,24.54,0,.47.07.91.27,1.35.37.71.61,1.34.78,1.98.39,1.54.3,3.55-.83,4.62-1.57,1.5-6.29,2.6-7.56,2.04-2.1-.98-3.87-2.89-5.8-5.07-5.51-6.24-12.48-15.42-19.18-24.42-1.01-1.35-2.92-1.62-4.29-.61-1.34,1-1.61,2.91-.61,4.28,5.9,7.93,12.04,16,17.25,22.19.03.42.1.84.3,1.23.34.71.61,1.34.78,2,.39,1.52.29,3.55-.83,4.6-1.59,1.5-6.29,2.62-7.56,2.04-2.11-.98-3.87-2.87-5.8-5.07-6.27-7.07-14.66-18.35-19.19-24.42-1-1.35-2.93-1.62-4.28-.61-1.35,1-1.64,2.93-.61,4.28,6.09,8.17,12.4,16.49,17.71,22.76-.07,1.07-.41,2.03-1.02,2.59-2.77,2.62-8.18,2.28-11.95.29.45-.68.86-1.42,1.18-2.2,1.74-4.31,1.27-9.22-1.25-12.85-2.05-2.98-5.24-4.72-9.2-5.09,1.59-4.23,1.1-8.98-1.35-12.5-2.25-3.25-5.79-5.04-10.27-5.19-1.4-.05-2.69.3-3.87.83.1-2.86-.68-5.67-2.27-7.97-2.23-3.23-5.78-5.02-10.26-5.17-2.47-.12-4.62.96-6.34,2.26,4.75-19.39,7.69-38.86,8.74-58.07,4.26-1.69,8.03-3.92,11.65-6.12,1.98-1.2,4.04-2.45,6.12-3.55,4.4-2.32,12.99-5.9,21.19-3.45,4.55,1.37,10.3,6.24,15.88,10.94,1.69,1.44,3.42,2.89,5.14,4.23-3.77,3.67-7.05,7.37-9.79,10.6-1.64,1.96-3.67,3.23-5.85,4.6-1.79,1.12-3.65,2.27-5.43,3.89-2.64,2.32-4.41,5.26-4.99,8.25-.13.61-.22,1.24-.22,1.88-.2,4.99,3.01,9.96,7.97,12.33,2.62,1.25,5.31,1.69,7.81,1.69,2.25,0,4.31-.34,5.99-.78,6.2-1.59,13.76-5.29,20.44-9.96-.57,1-.57,2.27.14,3.25,2.89,4.09,8.2,12.29,13.37,20.22,5.16,7.95,10.52,16.17,13.45,20.33,1.42,1.98,2.87,4.04,3.43,6.19.42,1.52.29,3.55-.83,4.6h0ZM146.45,115.35c-.17.98-1.1,1.91-2.18,2.91-3.43,3.18-6.85,6.05-10.67,6.58.54-.9,1.25-1.78,2.13-2.59,1.42-1.25,2.96-2.23,4.63-3.25,1.98-1.28,4.03-2.6,5.94-4.43.12.22.2.51.15.78ZM218.81,161.65c-1.2-.25-2.47.24-3.18,1.34-3.16,4.95-7.83,8.79-13.24,10.99-.59-.9-1.18-1.78-1.76-2.59-2.87-4.06-8.2-12.24-13.34-20.17-5.16-7.97-10.55-16.22-13.48-20.38-.74-1.03-2.01-1.47-3.16-1.22,1.64-1.35,2.86-2.79,4.01-4.19.27-.29.52-.59.76-.88,2.91,4.82,7.02,8.91,11.89,11.7,5.04,2.91,10.89,4.45,16.72,4.45,1.07,0,2.13-.05,3.2-.15,1.67-.17,2.91-1.66,2.74-3.35s-1.71-2.91-3.35-2.74c-5.6.56-11.38-.68-16.25-3.5-4.6-2.67-8.39-6.7-10.76-11.47.09-.76-.1-1.55-.59-2.21-1.03-1.34-2.94-1.59-4.28-.58-2.06,1.54-3.5,3.27-4.78,4.82-1.19,1.44-2.32,2.79-3.84,3.89-6.34,4.62-13.58,8.24-19.38,9.74-3.64.93-7.07.76-9.66-.49-2.57-1.25-4.34-3.67-4.48-6.05h.1c5.53-.12,9.98-3.84,14.07-7.66,1.15-1.07,2.88-2.69,3.3-4.94.27-1.47-.24-3.11-1.27-4.21,4.89-5.68,11.3-12.53,19.08-17.81,6.07-4.09,11.11-6.12,15.89-6.39,5.16-.24,10.1,1.57,15.31,3.5,1.28.46,2.52.93,3.8,1.37,7.49,2.59,13.92,3.06,19.18,1.49,3.11,19.97,8.3,40.06,15.47,59.83-6.66,1.42-13.05,4.11-18.72,7.86h0ZM247.32,105.86c-.74.61-1.99.9-3.38.83-1.91-.12-3.57-.93-4.48-2.16-.81-1.07-.9-2.66-.24-3.54.8-1.06,2.66-1.55,4.35-1.94.34-.07.69-.22.98-.41.34.02,1,.24,1.66.78,1.15.93,1.91,2.18,2.08,3.4.18,1.15-.22,2.37-.97,3.04ZM148.63,67.19c-2.4-3.42-5.31-6.43-8.64-8.95-1.35-1.03-3.26-.76-4.28.58-1.03,1.35-.76,3.28.58,4.29,2.82,2.15,5.29,4.69,7.32,7.58.59.86,1.54,1.32,2.52,1.32.59,0,1.2-.19,1.74-.56,1.39-.98,1.71-2.89.76-4.26ZM160.32,48.28c-1.66-.17-3.2,1.02-3.4,2.69-.56,4.89-.66,9.84-.34,14.75.1,1.62,1.44,2.84,3.03,2.84h.22c1.69-.1,2.96-1.56,2.84-3.25-.29-4.53-.17-9.13.34-13.63.2-1.69-1.02-3.21-2.69-3.4ZM178.26,55.08c-1.62-.56-3.35.29-3.92,1.88-.93,2.67-2.3,5.12-4.08,7.3-1.05,1.32-.86,3.23.44,4.3.56.47,1.25.69,1.93.69.88,0,1.76-.39,2.38-1.13,2.22-2.74,3.93-5.8,5.11-9.15.56-1.59-.27-3.33-1.86-3.89Z"/>
        <path d="M72.75,103.31h-.17c-2.41.06-4.47.9-5.79,2.36-2.12,2.33-2.32,5.39-.54,8,1.48,2.16,4.33,3.87,7.25,3.87.85,0,1.71-.15,2.54-.47,2.85-1.1,4.69-3.99,4.59-7.19-.15-4.32-4.16-6.57-7.88-6.57ZM74.56,113.22c-1.69.66-3.94-.47-4.9-1.88-.95-1.38-.35-2.31.18-2.89.55-.61,1.59-.98,2.84-1.01h.12c1.31,0,3.63.53,3.7,2.58.05,1.43-.75,2.74-1.94,3.2Z"/>
      </g>
    </g>
  </g>
</svg>