<?xml version="1.0" encoding="UTF-8"?>
<svg id="Layer_1" data-name="Layer 1" xmlns="http://www.w3.org/2000/svg" viewBox="0 0 292 300.13">
  <defs>
    <style>
      .cls-1 {
        fill: #fff;
      }

      .cls-2 {
        fill: #f2c316;
      }

      .cls-3 {
        fill: none;
        stroke: #000;
        stroke-miterlimit: 10;
        stroke-width: 2px;
      }
    </style>
  </defs>
  <path class="cls-3" d="M40.32,52.53c-6.97,5.91-19.16,17.07-26.58,41.61-4.84,16.01-9.17,34.23-11.2,50.83-2.15,17.57-.47,34.01,1.3,51.61,1.77,17.6,7.6,33.39,19.04,47.74,11.03,13.84,23.07,25.25,41.96,31.24"/>
  <path class="cls-3" d="M191.18,36.42c10.45-11.51,21.64-22.83,35.67-29.53,19.43-9.27,33.4-5.8,44.46,5.12,9.11,8.99,10.87,18.55,14.63,30.56,4.68,14.95,7,64.53-7.72,103.22"/>
  <path class="cls-2" d="M55.03,17.93C77.64,7.3,101.4,3.44,125.59,7.1c24.19,3.65,44.8,11.82,65.86,24.27,25.55,15.1,46.75,33.42,64.55,57.48,17.65,23.86,33.52,53.6,35.22,83.23,2.37,41.27-12.02,68.6-38.31,90.31-28.15,23.25-62.05,32.26-92.81,35.96-7.27.87-40.03,2.42-59.66-.27-20.84-2.86-39.23-11.99-47.95-27.52-10.84-19.31-4.9-37.46.68-62.25,4.87-21.61,10.01-48.04.51-68.04-6.8-14.31-15.43-26.33-23.33-39.16-8.98-14.58-10.91-28.19-7.8-42.93,3.83-18.18,16.28-32.64,32.48-40.25Z"/>
  <g>
    <path class="cls-1" d="M239.89,158.39c2,3.69.81,8.6-.48,12.93-5.79,19.5-14.25,38.36-25.1,56.05-31.11-8.09-61-17.89-91.33-29.97-1.04-.42-2.24.1-2.64,1.15-.43,1.04.08,2.23,1.12,2.64,30.07,11.98,59.71,21.71,90.53,29.79-1.32,1.76-2.87,3.31-4.83,3.79-1.72.4-3.56,0-5.81-.61-26.46-6.97-76.64-23.83-91.4-28.82-.35-.13-.63-.36-.76-.67l-.02-.02s-.02-.07-.02-.08c-.08-.21-.11-.52.05-.9,2.28-5.27,6.77-15.62,12.03-27.66,1.79-4.07,3.66-8.34,5.57-12.67,1.15-2.62,2.31-5.27,3.48-7.91l1.71-3.85h0c.83-1.88,1.66-3.75,2.47-5.59.77-1.72,1.53-3.43,2.29-5.11,1.64-3.68,3.23-7.22,4.73-10.54.97-2.14,1.9-4.18,2.78-6.1.33-.72.66-1.42.97-2.1,1.37-2.97,2.94-5.96,5.61-6.89.64-.21,1.31-.31,1.99-.31,1.62,0,3.4.52,5.33,1.16l17.82,5.87c3.61,1.2,7.25,2.58,8.59,5.28.37.76.58,1.68.81,2.66.26,1.12.53,2.27,1.08,3.41,2.5,5.29,9.03,6.89,13.81,8.06,10.63,2.6,20.99,6.16,30.83,10.58,3.38,1.52,7.12,3.39,8.79,6.43h0Z"/>
    <path class="cls-1" d="M126.08,147.89c-3.62-.56-9.8,1.38-11.21,6.56l-2.6.32-1-7.57c-.64,3.08-1.23,6-1.77,8.76l.08.62c.11.79.83,1.35,1.62,1.25l14.1-1.77c1.12-2.52,2.24-4.99,3.33-7.38-.81-.39-1.67-.65-2.55-.79ZM119.9,135.79c-7.01,2.5-2.04,12.1,4.8,9.03,5.51-3.25.91-11.56-4.8-9.03ZM119.9,135.79c-7.01,2.5-2.04,12.1,4.8,9.03,5.51-3.25.91-11.56-4.8-9.03ZM135.42,130.34c-.04-.38-.24-.73-.54-.97-.31-.24-.69-.34-1.07-.3l-19.14,2.4-3.43.43c-.56.09-1.13.19-1.69.29-.58.11-1.15.21-1.73.3-.78.12-1.31.85-1.2,1.62l2.88,21.85.08.62c.11.79.83,1.35,1.62,1.25l14.1-1.77c1.12-2.52,2.24-4.99,3.33-7.38-.81-.39-1.67-.65-2.55-.79-3.62-.56-9.8,1.38-11.21,6.56l-2.6.32-1-7.57-1.6-12.08.38-.06c.55-.1,1.1-.2,1.61-.28l2.34-.29,18.73-2.35.74,5.88c.8-1.75,1.57-3.42,2.29-4.99,0,0-.34-2.69-.34-2.69ZM135.42,130.34c-.04-.38-.24-.73-.54-.97-.31-.24-.69-.34-1.07-.3l-19.14,2.4-3.43.43c-.56.09-1.13.19-1.69.29-.58.11-1.15.21-1.73.3-.78.12-1.31.85-1.2,1.62l2.88,21.85.08.62c.11.79.83,1.35,1.62,1.25l14.1-1.77c1.12-2.52,2.24-4.99,3.33-7.38-.81-.39-1.67-.65-2.55-.79-3.62-.56-9.8,1.38-11.21,6.56l-2.6.32-1-7.57-1.6-12.08.38-.06c.55-.1,1.1-.2,1.61-.28l2.34-.29,18.73-2.35.74,5.88c.8-1.75,1.57-3.42,2.29-4.99,0,0-.34-2.69-.34-2.69ZM119.9,135.79c-7.01,2.5-2.04,12.1,4.8,9.03,5.51-3.25.91-11.56-4.8-9.03ZM146.93,77.36c-2.66-5.77-5.4-11.72-9.57-16.8-4.55-5.55-10.21-9.07-16.02-9.99-1.19-.5-2.62-.69-4.39-.22-3.91,1-13.14,5.64-19.76,9.92-2.95,1.91-6.04,4.03-9.21,6.31l-.27.19c-2.55,1.83-6.03,4.34-4.8,8.67h0c1.94,6.58,4.55,12.71,7.75,18.25,1.42,2.45,3.01,4.88,4.71,7.21.38.51.75,1.06,1.14,1.62.96,1.4,2.01,2.93,3.29,4.27.06.18.14.38.28.53,3.64,3.99,8.16,8.09,14.11,8.26,1.96.06,4.03-.34,6.43-1.26-2.35,1.83-3.18,4.91-3.59,6.76-.41.07-.82.16-1.22.24-3.2.68-6.6,1.48-10.12,2.41l-.3.08c-2.83.73-6.7,1.75-7.08,5.92q-.25,2.78-.01.02c-.51,6.35-.29,12.56.64,18.45.41,2.61.98,5.25,1.68,7.86.16.57.3,1.17.45,1.78.36,1.54.77,3.23,1.43,4.81-.01.19,0,.38.07.57,1.04,2.66,2.32,5.46,4.18,7.76-3.71,21.93-3.39,30.22-2.32,33.64,2.88-7.45,7.22-17.68,11.96-28.51,1.74-3.96,3.53-8.01,5.32-12.02-5.07.68-9.48,1.09-11.09,1.12-1.18.02-2.08-.02-2.82-.23-.88-.24-1.52-.72-2.11-1.61-1.15-1.73-1.68-3.96-2.19-6.1-.16-.65-.3-1.27-.47-1.87-.68-2.51-1.22-5.07-1.62-7.59-.9-5.69-1.11-11.7-.61-17.86.21-2.26,2.11-2.91,5.22-3.73l.3-.07c3.48-.92,6.85-1.72,10-2.38.03-.01.07-.01.1-.02,7.49-1.56,16.51-2.32,19.61-1.97.75.09,1.32.29,1.8.59.11.19.25.35.46.46.08.04.15.1.23.14.4.47.73,1.06,1.05,1.81.56-1.22,1.06-2.29,1.48-3.19.96-2.09,1.51-3.26,1.51-3.26-4.36-1.97-8.91-3.62-13.58-4.88-1.7-.46-3.5-.81-5.27-.5,5.09-2.5,9.83-5.97,18.88-12.72,2.19-1.64,5.18-3.87,6.59-7.09,2.28-5.15.04-10.85-2.24-15.78h0ZM134.88,129.37c-.31-.24-.69-.34-1.07-.3l-19.14,2.4-3.43.43c-.56.09-1.13.19-1.69.29-.58.11-1.15.21-1.73.3-.78.12-1.31.85-1.2,1.62l2.88,21.85.08.62c.11.79.83,1.35,1.62,1.25l14.1-1.77c1.12-2.52,2.24-4.99,3.33-7.38-.81-.39-1.67-.65-2.55-.79-3.62-.56-9.8,1.38-11.21,6.56l-2.6.32-1-7.57-1.6-12.08.38-.06c.55-.1,1.1-.2,1.61-.28l2.34-.29,18.73-2.35.74,5.88c.8-1.75,1.57-3.42,2.29-4.99l-.34-2.69c-.04-.38-.24-.73-.54-.97ZM119.9,135.79c-7.01,2.5-2.04,12.1,4.8,9.03,5.51-3.25.91-11.56-4.8-9.03ZM119.9,135.79c-7.01,2.5-2.04,12.1,4.8,9.03,5.51-3.25.91-11.56-4.8-9.03ZM126.08,147.89c-3.62-.56-9.8,1.38-11.21,6.56l-2.6.32-1-7.57c-.64,3.08-1.23,6-1.77,8.76l.08.62c.11.79.83,1.35,1.62,1.25l14.1-1.77c1.12-2.52,2.24-4.99,3.33-7.38-.81-.39-1.67-.65-2.55-.79ZM119.9,135.79c-7.01,2.5-2.04,12.1,4.8,9.03,5.51-3.25.91-11.56-4.8-9.03ZM119.9,135.79c-7.01,2.5-2.04,12.1,4.8,9.03,5.51-3.25.91-11.56-4.8-9.03Z"/>
    <g>
      <path d="M173.52,129.78l-18.27-6.63c-1.06-.38-2.24.18-2.61,1.22-.39,1.06.16,2.24,1.22,2.63l18.27,6.61c.23.08.47.12.7.12.83,0,1.62-.51,1.91-1.34.39-1.06-.16-2.24-1.22-2.61ZM173.52,129.78l-18.27-6.63c-1.06-.38-2.24.18-2.61,1.22-.39,1.06.16,2.24,1.22,2.63l18.27,6.61c.23.08.47.12.7.12.83,0,1.62-.51,1.91-1.34.39-1.06-.16-2.24-1.22-2.61ZM173.52,129.78l-18.27-6.63c-1.06-.38-2.24.18-2.61,1.22-.39,1.06.16,2.24,1.22,2.63l18.27,6.61c.23.08.47.12.7.12.83,0,1.62-.51,1.91-1.34.39-1.06-.16-2.24-1.22-2.61Z"/>
      <path d="M110.61,165.21c-1.18.02-2.08-.02-2.82-.23-.39,2.1-.74,4.1-1.05,6-3.71,21.93-3.39,30.22-2.32,33.64,2.88-7.45,7.22-17.68,11.96-28.51,1.74-3.96,3.53-8.01,5.32-12.02-5.07.68-9.48,1.09-11.09,1.12ZM135.42,130.34c-.04-.38-.24-.73-.54-.97-.31-.24-.69-.34-1.07-.3l-19.14,2.4c-.23,1.02-.45,2.03-.67,3.02l18.73-2.35.74,5.88c.8-1.75,1.57-3.42,2.29-4.99,0,0-.34-2.69-.34-2.69ZM128.97,113.45c-1.7-.46-3.5-.81-5.27-.5h0c-.48.08-.96.22-1.43.41-.62.25-1.15.57-1.63.95,0,0,0,.01-.02.01-2.35,1.83-3.18,4.91-3.59,6.76-.03.13-.06.25-.08.36l-.29,1.27c-.08.35-.16.69-.24,1.04,7.49-1.56,16.51-2.32,19.61-1.97.75.09,1.32.29,1.8.59.11.19.25.35.46.46.08.04.15.1.23.14.4.47.73,1.06,1.05,1.81.56-1.22,1.06-2.29,1.48-3.19.96-2.09,1.51-3.26,1.51-3.26-4.36-1.97-8.91-3.62-13.58-4.88h0ZM126.08,147.89c-3.62-.56-9.8,1.38-11.21,6.56l-2.6.32-1-7.57c-.64,3.08-1.23,6-1.77,8.76l.08.62c.11.79.83,1.35,1.62,1.25l14.1-1.77c1.12-2.52,2.24-4.99,3.33-7.38-.81-.39-1.67-.65-2.55-.79ZM119.9,135.79c-7.01,2.5-2.04,12.1,4.8,9.03,5.51-3.25.91-11.56-4.8-9.03Z"/>
      <path class="cls-1" d="M139.56,124.78c-1.05,2.27-2.34,5.06-3.8,8.25l-.34-2.69c-.04-.38-.24-.73-.54-.97-.31-.24-.69-.34-1.07-.3l-19.14,2.4-3.43.43c-.56.09-1.13.19-1.69.29-.58.11-1.15.21-1.73.3-.78.12-1.31.85-1.2,1.62l2.88,21.85.08.62c.11.79.83,1.35,1.62,1.25l14.1-1.77c-1.2,2.64-2.4,5.33-3.6,8.03-5.07.68-9.48,1.09-11.09,1.12-1.18.02-2.08-.02-2.82-.23-.88-.24-1.52-.72-2.11-1.61-1.15-1.73-1.68-3.96-2.19-6.1-.16-.65-.3-1.27-.47-1.87-.68-2.51-1.22-5.07-1.62-7.59-.9-5.69-1.11-11.7-.61-17.86.21-2.26,2.11-2.91,5.22-3.73l.3-.07c3.48-.92,6.85-1.72,10-2.38.03-.01.07-.01.1-.02,7.49-1.56,16.51-2.32,19.61-1.97.75.09,1.32.29,1.8.59.11.19.25.35.46.46.08.04.15.1.23.14.4.47.73,1.06,1.05,1.81Z"/>
      <path class="cls-1" d="M132.73,132.14l-18.73,2.35-2.34.29c-.51.08-1.06.18-1.61.28l-.38.06,1.6,12.08,1,7.57,2.6-.32c1.41-5.18,7.59-7.12,11.21-6.56.88.14,1.74.4,2.55.79,1.7-3.76,3.33-7.34,4.84-10.65h0s-.74-5.89-.74-5.89ZM124.7,144.82c-6.84,3.07-11.81-6.53-4.8-9.03,5.71-2.53,10.31,5.78,4.8,9.03Z"/>
      <path d="M243.46,156.43c-2.27-4.14-6.71-6.4-10.69-8.19-10.06-4.52-20.67-8.16-31.54-10.82-4.19-1.03-9.42-2.32-11.08-5.85-.36-.73-.57-1.63-.78-2.58-.28-1.17-.56-2.36-1.15-3.56-2.04-4.11-6.53-5.87-10.97-7.34l-17.82-5.86c-2.51-.83-6.3-2.07-9.92-.83-3.38,1.17-5.42,4-6.96,6.93,0,0-.55,1.17-1.51,3.26-.42.9-.92,1.97-1.48,3.19-1.05,2.27-2.34,5.06-3.8,8.25-.72,1.57-1.49,3.24-2.29,4.99h0c-1.51,3.32-3.14,6.9-4.84,10.66-1.09,2.39-2.21,4.86-3.33,7.38-1.2,2.64-2.4,5.33-3.6,8.03-1.79,4.01-3.58,8.06-5.32,12.02-4.74,10.83-9.08,21.06-11.96,28.51h0c.41,1.33.93,1.92,1.37,2.3.66,1.06,1.63,1.86,2.86,2.27,14.77,5.01,65.08,21.9,91.67,28.92,1.57.41,3.39.9,5.35.9.8,0,1.62-.08,2.43-.28,4.12-.99,6.73-4.4,8.93-7.96,11.41-18.37,20.26-37.97,26.3-58.29,1.63-5.49,2.77-11.23.13-16.05h0ZM239.41,171.32c-5.79,19.5-14.25,38.36-25.1,56.05-31.11-8.09-61-17.89-91.33-29.97-1.04-.42-2.24.1-2.64,1.15-.43,1.04.08,2.23,1.12,2.64,30.07,11.98,59.71,21.71,90.53,29.79-1.32,1.76-2.87,3.31-4.83,3.79-1.72.4-3.56,0-5.81-.61-26.46-6.97-76.64-23.83-91.4-28.82-.35-.13-.63-.36-.76-.67l-.02-.02s-.02-.07-.02-.08c-.08-.21-.11-.52.05-.9,2.28-5.27,6.77-15.62,12.03-27.66,1.79-4.07,3.66-8.34,5.57-12.67,1.15-2.62,2.31-5.27,3.48-7.91l1.71-3.85h0c.83-1.88,1.66-3.75,2.47-5.59.77-1.72,1.53-3.43,2.29-5.11,1.64-3.68,3.23-7.22,4.73-10.54.97-2.14,1.9-4.18,2.78-6.1.33-.72.66-1.42.97-2.1,1.37-2.97,2.94-5.96,5.61-6.89.64-.21,1.31-.31,1.99-.31,1.62,0,3.4.52,5.33,1.16l17.82,5.87c3.61,1.2,7.25,2.58,8.59,5.28.37.76.58,1.68.81,2.66.26,1.12.53,2.27,1.08,3.41,2.5,5.29,9.03,6.89,13.81,8.06,10.63,2.6,20.99,6.16,30.83,10.58,3.38,1.52,7.12,3.39,8.79,6.43,2,3.69.81,8.6-.48,12.93h0Z"/>
    </g>
    <g>
      <path d="M125.36,71.22c-.56-1.02-1.57-1.69-2.73-1.77l-20.2-1.43c-1.23-.09-2.37.47-3.04,1.5-.68,1.04-.73,2.31-.16,3.4l10.1,19.24c.57,1.08,1.69,1.77,2.91,1.79.44,0,.87-.07,1.26-.22.72-.28,1.33-.79,1.72-1.48l10.1-17.79c.56-1.01.58-2.22.04-3.24ZM122.98,73.13l-10.1,17.8c-.18.31-.47.34-.59.34-.13,0-.42-.04-.59-.36l-10.1-19.24c-.17-.31-.03-.58.03-.68.07-.09.26-.33.61-.3l20.2,1.44c.33.02.49.26.55.35.06.13.15.37,0,.65ZM125.36,71.22c-.56-1.02-1.57-1.69-2.73-1.77l-20.2-1.43c-1.23-.09-2.37.47-3.04,1.5-.68,1.04-.73,2.31-.16,3.4l10.1,19.24c.57,1.08,1.69,1.77,2.91,1.79.44,0,.87-.07,1.26-.22.72-.28,1.33-.79,1.72-1.48l10.1-17.79c.56-1.01.58-2.22.04-3.24ZM122.98,73.13l-10.1,17.8c-.18.31-.47.34-.59.34-.13,0-.42-.04-.59-.36l-10.1-19.24c-.17-.31-.03-.58.03-.68.07-.09.26-.33.61-.3l20.2,1.44c.33.02.49.26.55.35.06.13.15.37,0,.65ZM125.36,71.22c-.56-1.02-1.57-1.69-2.73-1.77l-20.2-1.43c-1.23-.09-2.37.47-3.04,1.5-.68,1.04-.73,2.31-.16,3.4l10.1,19.24c.57,1.08,1.69,1.77,2.91,1.79.44,0,.87-.07,1.26-.22.72-.28,1.33-.79,1.72-1.48l10.1-17.79c.56-1.01.58-2.22.04-3.24ZM122.98,73.13l-10.1,17.8c-.18.31-.47.34-.59.34-.13,0-.42-.04-.59-.36l-10.1-19.24c-.17-.31-.03-.58.03-.68.07-.09.26-.33.61-.3l20.2,1.44c.33.02.49.26.55.35.06.13.15.37,0,.65Z"/>
      <path d="M146.93,77.36c-2.66-5.77-5.4-11.72-9.57-16.8-4.55-5.55-10.21-9.07-16.02-9.99-1.19-.5-2.62-.69-4.39-.22-3.91,1-13.14,5.64-19.76,9.92-2.95,1.91-6.04,4.03-9.21,6.31l-.27.19c-2.55,1.83-6.03,4.34-4.8,8.67h0c1.94,6.58,4.55,12.71,7.75,18.25,1.42,2.45,3.01,4.88,4.71,7.21.38.51.75,1.06,1.14,1.62.96,1.4,2.01,2.93,3.29,4.27.06.18.14.38.28.53,3.64,3.99,8.16,8.09,14.11,8.26,1.96.06,4.03-.34,6.43-1.26,0,0,0-.01.02-.01.39-.16.78-.31,1.19-.49.64-.28,1.26-.57,1.87-.87h0c5.09-2.5,9.83-5.97,18.88-12.72,2.19-1.64,5.18-3.87,6.59-7.09,2.28-5.15.04-10.85-2.24-15.78h-.01ZM139.31,86.46c-.27,2.08-2.05,3.27-3.92,4.53-.44.31-.88.6-1.29.9-7.58,5.57-21.92,13-25.2,14.33-2.56,1.03-3.92,1.28-5.64.06-1.82-1.3-3.21-3.32-4.55-5.28-.41-.58-.79-1.15-1.19-1.68-1.65-2.26-3.17-4.6-4.54-6.97-3.1-5.35-5.62-11.29-7.5-17.65-.66-2.34.99-3.74,3.79-5.75l.27-.19c3.14-2.26,6.19-4.35,9.1-6.23,6.91-4.48,15.72-8.75,18.97-9.59.79-.2,1.43-.23,2.03-.1.18.14.39.25.64.28.09,0,.19.05.28.05.72.38,1.41,1.01,2.21,1.88,4.02,4.41,7.5,9.51,10.65,15.59,1.42,2.76,2.71,5.66,3.82,8.64.19.49.41,1.01.65,1.56.78,1.82,1.66,3.86,1.42,5.62Z"/>
    </g>
    <g>
      <path d="M140.06,120.97c-.87-.84-2.05-1.47-3.75-1.67-3.52-.41-12.26.41-19.29,1.78-.41.07-.82.16-1.22.24-3.2.68-6.6,1.48-10.12,2.41l-.3.08c-2.83.73-6.7,1.75-7.08,5.92q-.25,2.78-.01.02c-.51,6.35-.29,12.56.64,18.45.41,2.61.98,5.25,1.68,7.86.16.57.3,1.17.45,1.78.36,1.54.77,3.23,1.43,4.81-.01.19,0,.38.07.57,1.04,2.66,2.32,5.46,4.18,7.76,1.39,1.75,3.12,3.22,5.32,4.14,1.27.53,2.68.86,4.32.99,1.74-3.96,3.53-8.01,5.32-12.02-5.07.68-9.48,1.09-11.09,1.12-1.18.02-2.08-.02-2.82-.23-.88-.24-1.52-.72-2.11-1.61-1.15-1.73-1.68-3.96-2.19-6.1-.16-.65-.3-1.27-.47-1.87-.68-2.51-1.22-5.07-1.62-7.59-.9-5.69-1.11-11.7-.61-17.86.21-2.26,2.11-2.91,5.22-3.73l.3-.07c3.48-.92,6.85-1.72,10-2.38.03-.01.07-.01.1-.02,7.49-1.56,16.51-2.32,19.61-1.97.75.09,1.32.29,1.8.59.11.19.25.35.46.46.08.04.15.1.23.14.4.47.73,1.06,1.05,1.81.56-1.22,1.06-2.29,1.48-3.19-.32-.22-.65-.43-.98-.62h0Z"/>
      <g>
        <path d="M124.7,144.82c-6.84,3.07-11.81-6.53-4.8-9.03,5.71-2.53,10.31,5.78,4.8,9.03Z"/>
        <path d="M134.46,145.99v.03l2.29-5.14c-.76,1.68-1.52,3.39-2.29,5.11ZM135.42,130.34c-.04-.38-.24-.73-.54-.97-.31-.24-.69-.34-1.07-.3l-19.14,2.4-3.43.43c-.56.09-1.13.19-1.69.29-.58.11-1.15.21-1.73.3-.78.12-1.31.85-1.2,1.62l2.88,21.85.08.62c.11.79.83,1.35,1.62,1.25l14.1-1.77c1.12-2.52,2.24-4.99,3.33-7.38-.81-.39-1.67-.65-2.55-.79-3.62-.56-9.8,1.38-11.21,6.56l-2.6.32-1-7.57-1.6-12.08.38-.06c.55-.1,1.1-.2,1.61-.28l2.34-.29,18.73-2.35.74,5.88c.8-1.75,1.57-3.42,2.29-4.99,0,0-.34-2.69-.34-2.69Z"/>
        <path d="M124.7,144.82c-6.84,3.07-11.81-6.53-4.8-9.03,5.71-2.53,10.31,5.78,4.8,9.03Z"/>
        <path d="M124.7,144.82c-6.84,3.07-11.81-6.53-4.8-9.03,5.71-2.53,10.31,5.78,4.8,9.03Z"/>
      </g>
    </g>
  </g>
</svg>