<?xml version="1.0" encoding="UTF-8"?>
<svg id="objects" xmlns="http://www.w3.org/2000/svg" xmlns:xlink="http://www.w3.org/1999/xlink" viewBox="0 0 290 302.57">
  <defs>
    <style>
      .cls-1, .cls-2 {
        fill: none;
      }

      .cls-3 {
        fill: #fff;
      }

      .cls-4 {
        fill: #f2c316;
        isolation: isolate;
      }

      .cls-2 {
        stroke: #000;
        stroke-miterlimit: 10;
        stroke-width: 2px;
      }

      .cls-5 {
        clip-path: url(#clippath);
      }
    </style>
    <clipPath id="clippath">
      <path class="cls-1" d="M.87.91v294.36h255.28V.91H.87ZM248.87,230.91c-.76,3.07-1.34,5.93-1.89,8.69-.33,1.65-.65,3.25-1,4.82-1.72,2.28-3.49,4.52-5.31,6.71l-.36-.92c1.19-3.65,1.95-7.41,2.75-11.4.57-2.82,1.15-5.73,1.93-8.88,4.14-16.7,8.84-35.63,4.32-53.36-1.56-6.12-4.24-12.06-6.84-17.81-1.48-3.27-2.99-6.62-4.3-10.01-7.79-20.03-9.09-41.88-10.34-63-.15-2.6-.31-5.2-.47-7.79-1.28-20-4.39-40.14-18.33-51.99-3.4-2.89-7.63-5.26-12.91-7.25,1.02-1.04,2.06-2.06,3.12-3.07,4.92,2.01,8.99,4.39,12.38,7.27,15.08,12.81,18.4,33.9,19.73,54.78.16,2.54.31,5.09.47,7.64v.17c1.25,20.83,2.53,42.35,10.09,61.79,1.28,3.29,2.77,6.59,4.21,9.79,2.68,5.93,5.43,12.04,7.08,18.5,4.77,18.71-.05,38.15-4.31,55.31h-.02Z"/>
    </clipPath>
  </defs>
  <path class="cls-2" d="M15.27,51.36C30.11,27.8,49.25,12.68,89.23,6.5c29.07-4.49,55.17-3.3,87.66,4.81,11.75,2.93,24.2,5.31,33.43,13.16,14.81,12.59,17.79,33.99,19.03,53.39,1.52,23.72,2.07,48.04,10.68,70.19,3.65,9.4,8.72,18.28,11.22,28.05,4.54,17.8.11,36.51-4.31,54.34-4.41,17.76-2.76,29.25-24.98,46.49-17.03,13.21-51.11,17.26-66.66,14.55-38.37-6.67-61.43-17.57-90.18-45.5-22.11-21.49-32.54-42.17-43.05-66.2-8.42-19.27-14.78-32.51-18.03-76.78-1.17-15.84,3.74-39.74,11.23-51.64Z"/>
  <path class="cls-4" d="M199.58,15.34c-10.78,10.12-18.93,21.64-27.07,35.03-7.68,12.63-19.69,25.46-33.54,30.65-26.79,10.04-53.63-9.77-82-6.13-23.84,3.06-43.07,23.04-49.08,46.31-10.53,40.75,1.23,91.98,27.61,124.78,27.61,34.33,60.66,56.1,110.46,55.67,21.53-.18,44.28-8.73,62.17-20.71,34.56-23.14,58.99-63.06,71.59-102.7,12.6-39.64,13.59-82.38-3.52-122.39-6.39-14.94-17.44-33.06-30.84-42.26-13.4-9.2-33.93-9.37-45.78,1.75h0Z"/>
  <g class="cls-5">
    <path class="cls-2" d="M15.27,51.36C30.11,27.8,49.25,12.68,89.23,6.5c29.07-4.49,55.17-3.3,87.66,4.81,11.75,2.93,24.2,5.31,33.43,13.16,14.81,12.59,17.79,33.99,19.03,53.39,1.52,23.72,2.07,48.04,10.68,70.19,3.65,9.4,8.72,18.28,11.22,28.05,4.54,17.8.11,36.51-4.31,54.34-4.41,17.76-2.76,29.25-24.98,46.49-17.03,13.21-51.11,17.26-66.66,14.55-38.37-6.67-61.43-17.57-90.18-45.5-22.11-21.49-32.54-42.17-43.05-66.2-8.42-19.27-14.78-32.51-18.03-76.78-1.17-15.84,3.74-39.74,11.23-51.64Z"/>
  </g>
  <g>
    <path class="cls-3" d="M230.31,207.26c-16.6,20.04-42.9,30.09-68.27,32.22-26.48,2.21-57.51-3.95-78.08-21.78-20.95-18.17-21.63-46.11-19.84-71.82-.5-15.34,4.2-30.85,14.11-44.02,3.72-4.95,7.96-9.32,12.52-13.23.28-.64.87-1.14,1.57-1.37,17.42-14.18,39.9-21.14,62.48-21.35h.05c7.6-.06,15.22.6,22.65,2.05,2.82.67,5.61,1.47,8.36,2.38.57-.01,1.14.19,1.6.54,2.31.81,4.59,1.71,6.84,2.69.94-.16,1.99.28,2.51,1.14,25.38,11.96,45.27,34.69,46.37,63.12,4.23,24.17,3.57,49.59-12.87,69.43Z"/>
    <path d="M195.28,127c-2.91,0-2.91,4.52,0,4.52s2.92-4.52,0-4.52ZM202.35,100.01c-.06-.06-.12-.11-.18-.17-2.12-2-5.32,1.19-3.2,3.2l.18.17c2.11,2,5.32-1.19,3.2-3.2ZM202.14,137.82h-.18c-2.9.08-2.91,4.6,0,4.53.06-.01.12-.01.18-.01,2.91-.08,2.92-4.6,0-4.52ZM180.04,128.37v.18c.09,2.9,4.61,2.91,4.53,0v-.18c-.08-2.91-4.6-2.92-4.53,0ZM193.95,140.86c-.98-.57-2.57-.3-3.09.81-.06.12-.12.24-.17.36-.52,1.11-.31,2.44.81,3.1.98.57,2.58.3,3.09-.81.06-.12.12-.24.17-.36.52-1.11.31-2.44-.81-3.1ZM186.43,134.34c-2.91,0-2.91,4.52,0,4.52s2.92-4.52,0-4.52ZM189.7,117.92l-.18-.17c-2.11-2.01-5.32,1.19-3.2,3.2.06.05.12.11.18.17,2.11,2,5.32-1.19,3.2-3.2ZM201.58,124.24v.18c.07,2.9,4.6,2.91,4.52,0v-.18c-.08-2.91-4.61-2.92-4.53,0h0ZM228.42,145.09c-2.91,0-2.91,4.53,0,4.53s2.92-4.53,0-4.53ZM228.89,136.03c-2.91,0-2.92,4.53,0,4.53s2.91-4.53,0-4.53ZM228.89,140.56c2.91,0,2.91-4.53,0-4.53s-2.92,4.53,0,4.53ZM228.42,145.09c-2.91,0-2.91,4.53,0,4.53s2.92-4.53,0-4.53ZM225.91,124.4c-2.91,0-2.91,4.52,0,4.52s2.92-4.52,0-4.52ZM224.43,112.75v-.18c-.09-2.91-4.61-2.92-4.53,0v.18c.08,2.9,4.61,2.91,4.53,0ZM213.97,142.91c-.06.06-.12.12-.17.18-2.01,2.11,1.19,5.32,3.2,3.2.05-.06.11-.12.17-.18,2-2.12-1.19-5.32-3.2-3.2ZM217.22,102.11v-.17c-.08-2.91-4.61-2.92-4.53,0v.17c.09,2.91,4.61,2.92,4.53,0ZM216.64,133.36v-.18c-.08-2.9-4.6-2.91-4.53,0v.18c.09,2.91,4.61,2.92,4.53,0ZM212.45,118.73c-2.91,0-2.91,4.52,0,4.52s2.92-4.52,0-4.52ZM210.92,112.04c-.08-2.9-4.6-2.91-4.52,0v.18c.08,2.91,4.61,2.92,4.53,0v-.18h0ZM206.89,94.83h.18c2.91-.08,2.92-4.6,0-4.52h-.18c-2.9.08-2.91,4.6,0,4.52ZM201.58,124.24v.18c.07,2.9,4.6,2.91,4.52,0v-.18c-.08-2.91-4.61-2.92-4.53,0h0ZM202.35,100.01c-.06-.06-.12-.11-.18-.17-2.12-2-5.32,1.19-3.2,3.2l.18.17c2.11,2,5.32-1.19,3.2-3.2ZM202.14,137.82h-.18c-2.9.08-2.91,4.6,0,4.53.06-.01.12-.01.18-.01,2.91-.08,2.92-4.6,0-4.52ZM195.28,127c-2.91,0-2.91,4.52,0,4.52s2.92-4.52,0-4.52ZM193.95,140.86c-.98-.57-2.57-.3-3.09.81-.06.12-.12.24-.17.36-.52,1.11-.31,2.44.81,3.1.98.57,2.58.3,3.09-.81.06-.12.12-.24.17-.36.52-1.11.31-2.44-.81-3.1ZM194.56,111.31c2.91,0,2.92-4.52,0-4.52s-2.91,4.52,0,4.52ZM189.52,117.75c-2.11-2.01-5.32,1.19-3.2,3.2.06.05.12.11.18.17,2.11,2,5.32-1.19,3.2-3.2l-.18-.17ZM186.43,134.34c-2.91,0-2.91,4.52,0,4.52s2.92-4.52,0-4.52ZM184.57,128.37c-.08-2.91-4.6-2.92-4.53,0v.18c.09,2.9,4.61,2.91,4.53,0v-.18ZM176.18,136.56c-2.11-2-5.31,1.19-3.19,3.2.06.06.12.11.18.17,2.11,2,5.31-1.19,3.2-3.2,0,0-.19-.17-.19-.17ZM243.18,137.83c-1.1-28.43-20.99-51.16-46.37-63.12-.52-.86-1.57-1.3-2.51-1.14-2.25-.98-4.53-1.88-6.84-2.69-.46-.35-1.03-.55-1.6-.54-2.75-.91-5.54-1.71-8.36-2.38-7.43-1.45-15.05-2.11-22.65-2.05h-.05c-22.58.21-45.06,7.17-62.48,21.35-.7.23-1.29.73-1.57,1.37-4.56,3.91-8.8,8.28-12.52,13.23-9.91,13.17-14.61,28.68-14.11,44.02-1.79,25.71-1.11,53.65,19.84,71.82,20.57,17.83,51.6,23.99,78.08,21.78,25.37-2.13,51.67-12.18,68.27-32.22,16.44-19.84,17.1-45.26,12.87-69.43h0ZM196.41,79.45c1.34.65,2.65,1.33,3.95,2.04-2.11,3.29-4.27,6.54-6.46,9.78.84-3.94,1.67-7.88,2.51-11.82h0ZM187.78,75.78c1.49.55,2.96,1.14,4.42,1.77-1.5,7.03-3,14.07-4.49,21.1-.11.51-.02.95.14,1.34-2.33,3.28-4.7,6.54-7.11,9.76,2.35-11.32,4.69-22.65,7.04-33.97ZM178.08,72.77c1.81.47,3.6.98,5.39,1.54l-8.87,42.81c-.05.24-.02.45,0,.67-3.15,4.02-6.36,7.99-9.64,11.91,3.63-19.14,7.99-38.12,13.12-56.93ZM173.64,71.86c-5.82,21.36-10.69,42.94-14.58,64.74v.04c-1.17,1.35-2.34,2.69-3.52,4.03-.82-.72-1.65-1.43-2.47-2.15.11-.19.23-.38.28-.64,4.82-22.28,9.64-44.56,14.45-66.84,1.96.22,3.91.49,5.84.82ZM156.92,70.4c2.12.02,4.24.1,6.35.24-4.66,21.54-9.32,43.07-13.97,64.61l-6.43-5.58c.28-.26.52-.59.63-1.08,4.23-19.45,8.71-38.85,13.42-58.19ZM152.25,70.46c-4.53,18.66-8.85,37.37-12.93,56.13-1.05-.91-2.1-1.82-3.14-2.73l12.21-53.19c1.29-.09,2.58-.16,3.86-.21ZM138.62,71.82c1.67-.27,3.35-.52,5.03-.72-3.78,16.47-7.56,32.94-11.34,49.41l-3.99-3.47c.2-.24.37-.54.46-.94,3.28-14.71,6.56-29.43,9.84-44.14.01-.05-.01-.09,0-.14ZM128.64,73.97c1.71-.46,3.44-.88,5.18-1.25-3.06,13.71-6.12,27.43-9.17,41.14-1.04-.91-2.09-1.81-3.13-2.72,2.37-12.35,4.75-24.69,7.12-37.04.01-.05-.01-.09,0-.13ZM117.77,77.56c1.98-.78,3.99-1.51,6.02-2.16-2.06,10.77-4.14,21.55-6.21,32.33-.97-.85-1.95-1.7-2.93-2.55,1.45-9.16,2.5-18.36,3.12-27.62ZM110.16,80.98c.97-.49,1.95-.96,2.93-1.42-.55,7.41-1.37,14.78-2.46,22.13-.88-.76-1.76-1.52-2.63-2.28.72-6.15,1.44-12.29,2.16-18.43ZM102.84,94.1c.4-3.24.79-6.47,1.19-9.71.43-.26.87-.52,1.3-.78-.48,4.08-.96,8.16-1.44,12.23-.42-.36-.84-.73-1.26-1.1.08-.2.18-.4.21-.64ZM99.11,87.63c-.15,1.23-.3,2.45-.45,3.67-.69-.6-1.38-1.2-2.08-1.8.83-.64,1.68-1.26,2.53-1.87ZM235.86,158.81c-7.04,22.44-26.36,40.27-48.53,48.75-30.3,11.6-66.95,8.05-92.75-12.3-15.74-12.42-25.07-30.36-25.97-49.09.16-2.27.34-4.52.52-6.74.05-.58-.12-1.01-.38-1.35.68-8.21,3.01-16.44,7.18-24.3,4.43-8.35,10.28-15.46,17.11-21.38,12.87,11.17,25.74,22.34,38.61,33.51.27.48.69.83,1.2,1.04,6.81,5.91,13.62,11.82,20.43,17.73.69.6,1.48.66,2.17.44.26.28.58.53,1.05.65,26.11,6.57,52.59,10.8,79.43,12.73-.02.1-.05.2-.07.31ZM237.14,154.07c-25.95-1.8-51.55-5.83-76.8-12.03,16.1-18.33,30.76-37.76,43.94-58.29,17.21,10.52,30.48,26.66,33.68,47.19-.33.46-.49,1.07-.34,1.77.36,1.76.7,3.54,1.02,5.31.22,5.53-.32,10.9-1.5,16.05h0ZM228.89,136.03c-2.91,0-2.92,4.53,0,4.53s2.91-4.53,0-4.53ZM228.42,145.09c-2.91,0-2.91,4.53,0,4.53s2.92-4.53,0-4.53ZM225.91,124.4c-2.91,0-2.91,4.52,0,4.52s2.92-4.52,0-4.52ZM224.43,112.75v-.18c-.09-2.91-4.61-2.92-4.53,0v.18c.08,2.9,4.61,2.91,4.53,0ZM213.97,142.91c-.06.06-.12.12-.17.18-2.01,2.11,1.19,5.32,3.2,3.2.05-.06.11-.12.17-.18,2-2.12-1.19-5.32-3.2-3.2ZM217.22,102.11v-.17c-.08-2.91-4.61-2.92-4.53,0v.17c.09,2.91,4.61,2.92,4.53,0ZM216.64,133.36v-.18c-.08-2.9-4.6-2.91-4.53,0v.18c.09,2.91,4.61,2.92,4.53,0ZM212.45,118.73c-2.91,0-2.91,4.52,0,4.52s2.92-4.52,0-4.52ZM210.92,112.04c-.08-2.9-4.6-2.91-4.52,0v.18c.08,2.91,4.61,2.92,4.53,0v-.18h0ZM206.89,94.83h.18c2.91-.08,2.92-4.6,0-4.52h-.18c-2.9.08-2.91,4.6,0,4.52ZM201.58,124.24v.18c.07,2.9,4.6,2.91,4.52,0v-.18c-.08-2.91-4.61-2.92-4.53,0h0ZM202.35,100.01c-.06-.06-.12-.11-.18-.17-2.12-2-5.32,1.19-3.2,3.2l.18.17c2.11,2,5.32-1.19,3.2-3.2ZM202.14,137.82h-.18c-2.9.08-2.91,4.6,0,4.53.06-.01.12-.01.18-.01,2.91-.08,2.92-4.6,0-4.52ZM195.28,127c-2.91,0-2.91,4.52,0,4.52s2.92-4.52,0-4.52ZM193.95,140.86c-.98-.57-2.57-.3-3.09.81-.06.12-.12.24-.17.36-.52,1.11-.31,2.44.81,3.1.98.57,2.58.3,3.09-.81.06-.12.12-.24.17-.36.52-1.11.31-2.44-.81-3.1ZM194.56,111.31c2.91,0,2.92-4.52,0-4.52s-2.91,4.52,0,4.52ZM189.52,117.75c-2.11-2.01-5.32,1.19-3.2,3.2.06.05.12.11.18.17,2.11,2,5.32-1.19,3.2-3.2l-.18-.17ZM186.43,134.34c-2.91,0-2.91,4.52,0,4.52s2.92-4.52,0-4.52ZM184.57,128.37c-.08-2.91-4.6-2.92-4.53,0v.18c.09,2.9,4.61,2.91,4.53,0v-.18ZM176.18,136.56c-2.11-2-5.31,1.19-3.19,3.2.06.06.12.11.18.17,2.11,2,5.31-1.19,3.2-3.2,0,0-.19-.17-.19-.17ZM212.11,133.18v.18c.09,2.91,4.61,2.92,4.53,0v-.18c-.08-2.9-4.6-2.91-4.53,0ZM210.92,112.04c-.08-2.9-4.6-2.91-4.52,0v.18c.08,2.91,4.61,2.92,4.53,0v-.18h0ZM224.42,112.57c-.08-2.91-4.6-2.92-4.52,0v.18c.08,2.9,4.61,2.91,4.53,0v-.18h0ZM225.91,124.4c-2.91,0-2.91,4.52,0,4.52s2.92-4.52,0-4.52ZM213.97,142.91c-.06.06-.12.12-.17.18-2.01,2.11,1.19,5.32,3.2,3.2.05-.06.11-.12.17-.18,2-2.12-1.19-5.32-3.2-3.2ZM212.45,118.73c-2.91,0-2.91,4.52,0,4.52s2.92-4.52,0-4.52ZM212.69,101.94v.17c.09,2.91,4.61,2.92,4.53,0v-.17c-.08-2.91-4.61-2.92-4.53,0ZM176.37,136.73l-.19-.17c-2.11-2-5.31,1.19-3.19,3.2.06.06.12.11.18.17,2.11,2,5.31-1.19,3.2-3.2ZM207.07,90.31h-.18c-2.9.08-2.91,4.6,0,4.52h.18c2.91-.08,2.92-4.6,0-4.52ZM194.56,106.79c-2.91,0-2.91,4.52,0,4.52s2.92-4.52,0-4.52Z"/>
  </g>
</svg>