<?xml version="1.0" encoding="UTF-8"?>
<svg id="Layer_1" xmlns="http://www.w3.org/2000/svg" version="1.1" viewBox="0 0 950.58 228.72">
  <!-- Generator: Adobe Illustrator 30.0.0, SVG Export Plug-In . SVG Version: 2.1.1 Build 123)  -->
  <defs>
    <style>
      .st0 {
        fill: #f3c300;
      }

      .st1 {
        fill: #333;
      }
    </style>
  </defs>
  <path class="st1" d="M85.27,152.34v.32c1.07,0,2.14-.03,3.19-.08-1.07-.05-2.14-.13-3.19-.24Z"/>
  <path d="M733.77,187.63c2.22,5.1,4.87,9.62,8.11,14.24,2.51,3.57,1.67,8.48-1.84,11.06-13.52,9.93-30.22,15.79-48.29,15.79-45.12,0-81.7-36.57-81.7-81.7s36.58-81.7,81.7-81.7c18.07,0,34.76,5.86,48.29,15.79,3.51,2.58,4.35,7.49,1.84,11.06-3.25,4.62-5.9,9.14-8.11,14.24-2.02,4.63-7.7,6.3-11.88,3.47-9.03-6.11-18.4-9.55-30.13-9.55-25.75,0-46.7,20.94-46.7,46.7s20.95,46.7,46.7,46.7c11.73,0,21.1-3.44,30.13-9.55,4.19-2.83,9.87-1.17,11.88,3.47v-.02h0Z"/>
  <path d="M823.13,63.85c-27.44,0-51.75,13.41-66.72,34.03-9.88,13.59-15.71,30.32-15.71,48.4s5.83,34.81,15.71,48.4c14.98,20.62,39.29,34.03,66.72,34.03,45.53,0,82.43-36.91,82.43-82.43s-36.9-82.43-82.43-82.43h0ZM823.13,193.4c-25.98,0-47.12-21.14-47.12-47.12s21.14-47.12,47.12-47.12,47.12,21.13,47.12,47.12-21.14,47.12-47.12,47.12Z"/>
  <circle class="st0" cx="578.49" cy="24.66" r="24.66"/>
  <circle class="st0" cx="925.92" cy="203.96" r="24.66"/>
  <rect x="502.11" y="24.75" width="37" height="203.96" rx="8" ry="8"/>
  <rect x="559.99" y="65.39" width="37" height="163.32" rx="8" ry="8"/>
  <path d="M201.45,71.96s.09-.04.13-.05l-.13.05c-9.88,3.9-18.42,9.15-25.62,15.74-7.8,7.16-13.74,15.41-17.79,24.77-4.06,9.36-6.22,19.45-6.49,30.27-.27,10.83,1.7,21.99,5.89,33.5,5.27,14.48,13.24,26.14,23.92,34.97,10.68,8.84,23.09,14.36,37.25,16.56,14.15,2.21,28.93.51,44.35-5.1,6.86-2.5,13.49-5.96,19.87-10.39,6.38-4.42,12.18-9.42,17.4-15,3.34-3.56,6.29-7.31,8.85-11.23,2.39-3.66,1.45-8.56-2.16-11.03l-12.53-8.56c-3.66-2.5-8.67-1.56-11.13,2.12-3.28,4.91-6.66,8.88-10.11,11.91-4.95,4.32-10.86,7.73-17.72,10.23-9.85,3.58-19.12,4.81-27.84,3.67s-16.36-4.51-22.92-10.11c-3.46-2.95-6.49-6.45-9.07-10.48l51.39-18.77.05-.02,23.39-8.48,26.91-9.78c4.05-1.47,6.23-5.9,4.88-10-.31-.95-.64-1.9-.99-2.85-2.43-6.68-5.36-12.78-8.78-18.31-.83-1.35-1.69-2.66-2.59-3.93q-.6-.85-.01-.02c-1.76-2.53-3.64-4.92-5.64-7.19-7.16-8.12-15.31-14.46-24.43-19.02-9.12-4.57-18.97-7.08-29.55-7.54-9.4-.41-18.95.9-28.65,4.01l-.13.05h0ZM185.43,135.3c.75-7.73,3.6-14.5,8.54-20.29,4.46-5.24,10.64-9.47,18.53-12.68.82-.34,1.66-.67,2.52-.98,5.94-2.16,11.82-2.88,17.66-2.17,5.83.72,11.11,2.69,15.86,5.9,4.55,3.08,8.15,7.26,10.77,12.5h0s.02.04.03.06l-36.43,13.27-37.41,13.61c-.33-3.22-.36-6.3-.07-9.22h0Z"/>
  <path d="M153.5,216.7l-39.82-68.58c1.99-.89,3.93-1.87,5.82-2.96,10.01-5.73,17.98-13.51,23.92-23.33,5.92-9.81,8.89-20.56,8.89-32.22,0-12.25-2.97-23.28-8.89-33.1-5.94-9.82-13.96-17.59-24.06-23.33-10.11-5.73-21.29-8.6-33.54-8.6H8c-4.42,0-8,3.58-8,7.99v188.14c0,4.42,3.58,8,8,8h18.21c4.42,0,8-3.58,8-8v-66.95h39.14l39.92,70.88c1.42,2.51,4.08,4.07,6.97,4.07h26.35c6.16,0,10.01-6.68,6.91-12.01ZM34.21,57.09h45.2c6.8,0,12.83,1.36,18.08,4.08,5.25,2.73,9.33,6.42,12.24,11.08,2.92,4.67,4.38,10.28,4.38,16.7,0,5.64-1.17,12.32-3.5,16.99-2.33,4.66-5.59,8.31-9.77,10.93-4.18,2.63-9.09,3.94-14.73,3.94h-51.9s0-63.72,0-63.72Z"/>
  <path d="M444.24,73.5v7.53c-13.51-9.87-30.15-15.71-48.16-15.71-27.2,0-51.29,13.29-66.13,33.73-9.79,13.47-15.57,30.05-15.57,47.97s5.78,34.5,15.57,47.97c14.85,20.44,38.94,33.73,66.13,33.73,18.02,0,34.66-5.84,48.16-15.72v7.53c0,4.42,3.58,8,8,8h20.99c4.42,0,8-3.58,8-8V73.5c0-4.42-3.58-8-8-8h-20.99c-4.42,0-8,3.58-8,8ZM392.45,193.57c-22.83-1.73-41.25-20.18-42.95-43.02-2.03-27.36,19.65-50.24,46.57-50.24s46.7,20.94,46.7,46.7-22.94,48.64-50.32,46.56h0Z"/>
</svg>