<?xml version="1.0" encoding="UTF-8"?>
<svg id="objects" xmlns="http://www.w3.org/2000/svg" viewBox="0 0 336 264.39">
  <defs>
    <style>
      .cls-1 {
        fill: #fff;
      }

      .cls-2 {
        fill: #f2c316;
      }
    </style>
  </defs>
  <path class="cls-2" d="M88.92,33.49C109.02,12.63,136.15-1.98,166.46.81c14.48,1.33,31.35,8.45,44.01,15.04,18.9,9.84,36.23,23.11,52.06,37.38,20.06,18.09,33.53,31.55,49.78,52.89,6.09,8,15.23,22.62,18.39,32.17,8.02,24.29,7.2,39.54-13.61,65.55-14.25,17.81-37.73,28.44-58.16,36.78s-43.13,15.97-64.97,19.08c-30.94,4.4-62.32,6.98-92.66-.55-30.33-7.53-57.97-26.72-67.57-59.47-7.12-24.29-2.44-54.63,4.47-78.98,5.09-17.95,12.61-31.66,21.51-48.05,7.55-13.89,18.24-27.78,29.22-39.16Z"/>
  <g>
    <path class="cls-1" d="M222.74,181.79c.33,4.05-.33,7.76-1.7,11.07-1.36,14.86-12.89,31.02-27.96,32.38-13.6,1.23-27.43-9.81-25.99-23.44-.77-1.67-1.35-3.54-1.7-5.66-2.52-15.67,11.31-27.82,24.76-32.03,7.67-1.62,14.77-2.89,21.88,1.16,6.14,3.5,10.15,9.43,10.72,16.5h0Z"/>
    <g>
      <path class="cls-1" d="M139.2,66.07c-2.54-15.67,11.3-27.82,24.74-32.03,7.67-1.62,14.77-2.89,21.88,1.16,6.14,3.5,10.15,9.43,10.72,16.5.41,5.03-.69,9.51-2.82,13.4-3.16,13.27-14.4,26.83-27.75,28.64-12.04,1.63-25.66-7.85-24.19-20.26-1.23-2.08-2.13-4.55-2.58-7.42Z"/>
      <path class="cls-1" d="M246.96,85.28c.09.96-.4,1.59-1.05,1.93-.03.03-.03.07-.07.1-19.1,21.34-41.07,39.73-61.32,59.92-19.91,19.85-39.16,40.2-60.33,58.75-.06.28-.1.57-.16.84-.34,1.9-3.12,3.09-4.69,1.91-3.93-2.93-7.61-6.14-11.33-9.33-2.1-1.8-4.2-3.6-6.31-5.4-1.69-1.46-5.18-3.4-6.31-5.4-2.25-4-1.55-11.88.92-16.47-.07-.34-.03-.65.16-.96.23-1.11,1.05-2.03,2.14-2.45,37.19-42.29,84.56-76.46,126.55-113.74,1.16-1.04,2.62-.98,3.77,0,5.42,4.51,10.85,8.99,16.23,13.54,1.16.98,1.05,2.88.17,4,.89,4.24,1.26,8.39,1.62,12.77h0Z"/>
      <path d="M179.6,53.31c-.41-2.84-2.08-5.22-4.57-6.65-2.91-1.66-5.8-1.22-8.92-.43-.21.06-.37.18-.55.27-.09.04-.14,0-.23.06-2.88,1.38-4.24,3.47-6.18,5.86-1.47,1.83-2.25,4.31-1.96,6.65.81,6.37,7.05,7.78,12.45,6.64,5.87-1.26,10.89-5.98,9.95-12.39ZM196.54,51.71c-.57-7.07-4.58-13-10.72-16.5-7.1-4.05-14.21-2.78-21.88-1.16-13.44,4.21-27.28,16.36-24.74,32.03.45,2.86,1.35,5.33,2.58,7.42-1.47,12.41,12.15,21.89,24.19,20.26,13.34-1.81,24.58-15.37,27.75-28.64,2.13-3.88,3.23-8.37,2.82-13.4h0ZM189.04,57.15c-2.04,10.25-13.06,16.73-22.37,19.25-13.21,3.56-25.19-3.59-22.93-18.15,1.96-12.63,10.87-15.92,21.96-17.84,11.5-1.97,26.46,1.18,23.34,16.73h0ZM175.03,46.66c-2.91-1.66-5.8-1.22-8.92-.43-.21.06-.37.18-.55.27-.09.04-.14,0-.23.06-2.88,1.38-4.24,3.47-6.18,5.86-1.47,1.83-2.25,4.31-1.96,6.65.81,6.37,7.05,7.78,12.45,6.64,5.87-1.26,10.89-5.98,9.95-12.39-.41-2.84-2.08-5.22-4.57-6.65ZM205.8,183.39c-.41-2.82-2.08-5.22-4.57-6.65-2.91-1.66-5.8-1.22-8.92-.43-.21.06-.37.18-.55.27-.09.04-.14.03-.23.06-2.88,1.38-4.24,3.47-6.18,5.86-1.47,1.83-2.27,4.31-1.96,6.65.81,6.37,7.05,7.78,12.45,6.64,5.87-1.26,10.89-5.98,9.95-12.39h0ZM205.8,183.39c-.41-2.82-2.08-5.22-4.57-6.65-2.91-1.66-5.8-1.22-8.92-.43-.21.06-.37.18-.55.27-.09.04-.14.03-.23.06-2.88,1.38-4.24,3.47-6.18,5.86-1.47,1.83-2.27,4.31-1.96,6.65.81,6.37,7.05,7.78,12.45,6.64,5.87-1.26,10.89-5.98,9.95-12.39h0ZM222.74,181.79c-.57-7.07-4.58-13-10.72-16.5-7.1-4.05-14.21-2.78-21.88-1.16-13.44,4.21-27.28,16.36-24.76,32.03.35,2.11.94,3.98,1.7,5.66-1.45,13.63,12.39,24.67,25.99,23.44,15.07-1.36,26.6-17.52,27.96-32.38,1.38-3.32,2.03-7.02,1.7-11.07h0ZM215.24,187.24c-2.04,10.26-13.06,16.73-22.37,19.25-13.21,3.56-25.19-3.59-22.93-18.15,1.96-12.63,10.87-15.92,21.96-17.84,11.5-1.97,26.46,1.18,23.34,16.73ZM201.23,176.74c-2.91-1.66-5.8-1.22-8.92-.43-.21.06-.37.18-.55.27-.09.04-.14.03-.23.06-2.88,1.38-4.24,3.47-6.18,5.86-1.47,1.83-2.27,4.31-1.96,6.65.81,6.37,7.05,7.78,12.45,6.64,5.87-1.26,10.89-5.98,9.95-12.39-.41-2.82-2.08-5.22-4.57-6.65h0ZM179.6,53.31c-.41-2.84-2.08-5.22-4.57-6.65-2.91-1.66-5.8-1.22-8.92-.43-.21.06-.37.18-.55.27-.09.04-.14,0-.23.06-2.88,1.38-4.24,3.47-6.18,5.86-1.47,1.83-2.25,4.31-1.96,6.65.81,6.37,7.05,7.78,12.45,6.64,5.87-1.26,10.89-5.98,9.95-12.39ZM245.34,72.51c.88-1.12.99-3.02-.17-4-5.39-4.55-10.82-9.03-16.23-13.54-1.15-.98-2.61-1.04-3.77,0-42,37.27-89.36,71.44-126.55,113.74-1.09.43-1.91,1.35-2.14,2.45-.18.31-.23.62-.16.96-2.47,4.59-3.18,12.48-.92,16.47,1.13,2,4.62,3.94,6.31,5.4,2.11,1.8,4.21,3.6,6.31,5.4,3.71,3.19,7.4,6.39,11.33,9.33,1.57,1.18,4.35,0,4.69-1.91.06-.27.1-.55.16-.84,21.17-18.56,40.42-38.9,60.33-58.75,20.25-20.19,42.22-38.58,61.32-59.92.04-.03.04-.07.07-.1.65-.34,1.13-.96,1.05-1.93-.35-4.38-.72-8.54-1.62-12.77h0ZM233.05,76.08c-5.67,5.47-11.33,10.93-17,16.4-16.96,16.36-33.81,32.84-50.67,49.3-13.21,12.9-29.93,25.56-41.16,40.22-.74.95-1.38,1.64-1.96,2.2-1.47.1-2.99-.03-4.58-.34-5.25-4.2-10.31-10.24-14.99-14.14,25.44-17.95,48.08-40.31,71.26-60.92,15.21-13.53,30.2-27.31,45.2-41.07,1.63-1.49,5.77-6.66,8.39-8.12-2.31,1.9,7.78,8.56,11.5,10.34-1.73,1.22-4.68,4.88-6,6.14h0Z"/>
      <path d="M57.25,78.43c-3.25-3.56-2.47-7.31,2.73-9.01,11.17-3.66,19.93-9,31.01-10.06,6.1.92,4.19,11.66,5.81,16.37,3.29,21.59,3.13,22.46-18.41,19.21-15.88,16.34-36.14,27.32-59.3,27.45-4.61-.8-18.26,1.1-18.5-4.94.58-3.82,5.86-3.87,8.86-4.75,16.34-4.44,34.46-10.21,45.12-24.26,1.69-2.31,4.32-4.96,4.56-7.85-.43-.83-1.28-1.49-1.89-2.17h0Z"/>
    </g>
  </g>
</svg>