<?xml version="1.0" encoding="UTF-8"?>
<svg id="Capa_1" xmlns="http://www.w3.org/2000/svg" version="1.1" viewBox="0 0 447.24 383.56">
  <!-- Generator: Adobe Illustrator 30.0.0, SVG Export Plug-In . SVG Version: 2.1.1 Build 123)  -->
  <path d="M26.88,223.17c1.83.3,3.68.43,5.54.41h315.52l-6.88,3.2c-6.72,3.18-12.84,7.51-18.08,12.8l-88.48,88.48c-11.65,11.12-13.61,29.02-4.64,42.4,10.44,14.26,30.46,17.35,44.72,6.91,1.15-.84,2.25-1.76,3.28-2.75l160-160c12.5-12.49,12.51-32.75.02-45.26,0,0-.02-.02-.02-.02L277.86,9.34c-12.51-12.48-32.78-12.45-45.26.06-.98.98-1.9,2.03-2.74,3.14-8.97,13.38-7.01,31.28,4.64,42.4l88.32,88.64c4.69,4.7,10.09,8.64,16,11.68l9.6,4.32H34.18c-16.35-.61-30.69,10.81-33.76,26.88-2.83,17.45,9.02,33.88,26.46,36.71Z"/>
</svg>