<?xml version="1.0" encoding="UTF-8"?>
<svg id="objects" xmlns="http://www.w3.org/2000/svg" viewBox="0 0 318 293.74">
  <defs>
    <style>
      .cls-1 {
        fill: #fff;
      }

      .cls-2 {
        fill: #f2c316;
      }
    </style>
  </defs>
  <path class="cls-2" d="M90.56,1.09c75.55-4.89,173.94,64.39,182.53,142.74,9.41,85.84-64.17,127.15-136.48,145.5-54.27,13.78-99.19-13.52-120.06-63.31C-12.26,157.29-8.49,7.51,90.56,1.09Z"/>
  <g>
    <path d="M12.09,183.46h0c0-2.27.54-4.5,1.57-6.52,23.59-45.93,81.37-68.29,131.36-62.33,30.6,3.65,65.92,17.43,85.86,41.65,12.52,15.2,7.69,26.3-3.08,40.72-30.02,40.19-85.26,55.08-133.19,45.55-30.26-6.01-64.66-24.68-80.66-52.03-1.25-2.13-1.87-4.58-1.87-7.05ZM120.53,120.74c-27.57,1.44-54.51,11.43-76.02,28.59-18.28,14.59-31.82,31.21-13.99,52.71,25.4,30.64,79.61,41,117.36,34.54,28.26-4.84,66.55-25.15,80.32-51.16,6.62-12.52,3.22-18.55-5.28-28.18-23.38-26.51-68.01-38.3-102.39-36.5Z"/>
    <path d="M281.21,44.84c11.38,1.38,14.95,7.85,16.88,18.47,10.17.31,16.26,4.15,18.51,14.35,2.44,11.05-5.23,11.02-7.04,16.87-2.06,6.66,2.39,16.8-3.91,21.97-10.15,8.33-20.32-4.01-24.74-2.88-7.37,7.28-14.66,13.16-24.96,6.67-12.88-8.12-3.87-17.9-5.09-26.75-1.16-8.39-17.24-12.94-7.96-23.75,4.24-4.94,10.84-4.1,16.19-5.72,9.48-2.88,8.25-16.75,19.12-19.23.98.07,2.02-.12,2.99,0ZM281.95,51.06c-5.24-5.33-11.42,10.1-13.26,12.62-6.19,8.48-19.18,4.32-21.71,10.26-3.02,7.11,6.67,9.93,8.07,15.42,1.66,6.47-2.35,14.59-.09,19.93,2.3,5.45,11.97-2.43,15.25-3.28,9.94-2.58,14.3,5.36,20.42,4.53,7.04-.96,4.55-16.38,6.19-21.75,1.73-5.67,12.2-9.48,10.15-16.37-1.48-4.96-12.49-2.92-17.31-6.65-4.62-3.57-5.05-12-7.71-14.7Z"/>
    <path class="cls-1" d="M120.53,120.74c34.37-1.79,79.01,10,102.39,36.5,8.49,9.63,11.9,15.66,5.28,28.18-13.76,26.01-52.06,46.32-80.32,51.16-37.75,6.46-91.96-3.9-117.36-34.54-17.83-21.51-4.29-38.13,13.99-52.71,21.51-17.16,48.45-27.15,76.02-28.59ZM121.53,132.68c-34.62,2.14-70.95,19.48-88.44,49.95,5.79,10.98,16.81,19.75,27.32,26.39,44.09,27.83,109.94,22.37,145.56-16.92,3.1-3.42,13.27-16.13,12.26-20.15-.9-3.62-10.97-12.04-14.3-14.66-23.04-18.13-53.17-26.41-82.41-24.61Z"/>
    <path class="cls-1" d="M281.95,51.06c2.66,2.7,3.09,11.13,7.71,14.7,4.82,3.73,15.83,1.69,17.31,6.65,2.05,6.89-8.42,10.7-10.15,16.37-1.64,5.37.85,20.79-6.19,21.75-6.11.84-10.48-7.11-20.42-4.53-3.29.85-12.95,8.73-15.25,3.28-2.26-5.34,1.75-13.45.09-19.93-1.4-5.49-11.09-8.31-8.07-15.42,2.52-5.94,15.51-1.78,21.71-10.26,1.84-2.52,8.02-17.95,13.26-12.62Z"/>
    <path d="M121.53,132.68c29.24-1.81,59.37,6.48,82.41,24.61,3.33,2.62,13.4,11.04,14.3,14.66,1,4.02-9.16,16.73-12.26,20.15-35.62,39.29-101.47,44.75-145.56,16.92-10.51-6.63-21.54-15.41-27.32-26.39,17.49-30.47,53.82-47.81,88.44-49.95ZM149.64,216.95c15.64-4.04,31.42-11.1,44.18-21.05,6.71-5.24,18.25-15.33,15.18-24.76-3.07-9.4-27.99-21.17-37.19-24.56-5.92-2.18-13.19-4.71-19.18-4.73,28.51,17.45,24.35,58.4-2.99,75.11ZM97.81,143.34c-22.46,6.1-44.24,19.5-56.82,39.31,15.74,21.22,41.62,33.36,67.78,36.29l-9.44-5.98c-18.2-14.22-23.31-38.79-10.9-58.59l9.38-11.03ZM127.37,164.57c-18.81.54-13.93,35.18,6.33,26.03,12.1-5.47,7.41-26.42-6.33-26.03Z"/>
    <path class="cls-1" d="M97.81,143.34l-9.38,11.03c-12.4,19.79-7.3,44.37,10.9,58.59l9.44,5.98c-26.17-2.93-52.04-15.06-67.78-36.29,12.58-19.81,34.36-33.21,56.82-39.31Z"/>
    <path class="cls-1" d="M149.64,216.95c27.35-16.71,31.5-57.66,2.99-75.11,5.99.02,13.26,2.55,19.18,4.73,9.19,3.39,34.12,15.16,37.19,24.56,3.08,9.43-8.46,19.53-15.18,24.76-12.76,9.95-28.54,17.02-44.18,21.05Z"/>
    <path class="cls-1" d="M127.37,164.57c13.74-.39,18.43,20.56,6.33,26.03-20.26,9.15-25.14-25.49-6.33-26.03Z"/>
  </g>
</svg>