<?xml version="1.0" encoding="UTF-8"?>
<svg id="objects" xmlns="http://www.w3.org/2000/svg" viewBox="0 0 255 310.7">
  <defs>
    <style>
      .cls-1 {
        fill: none;
      }

      .cls-2 {
        fill: #fff;
      }

      .cls-3 {
        fill: #f2c316;
      }
    </style>
  </defs>
  <path class="cls-3" d="M216.95,14.3c44.73,33.09,40.88,136.78,29.93,185.23-16.83,74.46-70.53,115.15-147.6,109.45-42.37-3.14-83.69-34.23-80.18-80.21,2.72-35.72,41.77-43.26,31.58-89.45C42.84,103.77-16.3,87.58,5.96,45.16,15.95,26.15,38.59,18.7,58.1,13.61c36.82-9.61,127.32-22.63,158.84.69Z"/>
  <g>
    <path class="cls-2" d="M227.45,124.57c-.69,14.63-5.11,31.82-7.04,46.57-2.65,20.33-4.34,40.85-7.38,61.11-.85,5.61-2.34,24.69-7.86,26.47-4.75,1.53-19.47-1.62-25.25-2.52-43.26-6.72-86.23-15.91-129.43-22.97-3.35-1.2-18.88-15.55-20.38-18.58-1.67-3.36-1.6-15.38-.32-20.33v-.06c.1-.42.23-.78.35-1.09,1.34-3.26,4.88-3.15,5.84-.06.08.24.13.52.18.8l7.06-46.99,1.78-11.8c-.14.15-.29.25-.46.31-4.31,1.44-4.93-1.36-4.89-4.35,0-.71.06-1.43.1-2.1.63-9.88,2.93-24.9,4.71-34.83,1.08-6.09,3.67-20.53,10.98-21.66,42.32,4,84.28,12.88,126.26,19.85,7.47,1.23,20.89,1.28,26.97,5.11,1.78,1.13,15.49,14.52,16.55,16.2,1.95,3.08,2.44,7.35,2.26,10.9h-.02Z"/>
    <g>
      <path d="M225.18,113.66c-1.05-1.67-14.77-15.07-16.55-16.2-6.07-3.84-19.5-3.88-26.97-5.11-41.98-6.97-83.94-15.85-126.26-19.85-7.31,1.13-9.9,15.57-10.98,21.66-1.79,9.93-4.08,24.94-4.71,34.83-.05.68-.09,1.39-.1,2.1-.04,2.99.58,5.79,4.89,4.35.16-.06.31-.16.46-.31,2.56-2.59,3.36-18.87,3.68-22.38,51.3,7.05,102.4,16.27,153.39,25.38l-14.02,100.76-149.44-25.55c-6.68-2.18-1.59-13.81-2.45-19.4-.05-.28-.1-.55-.18-.8-.96-3.1-4.5-3.2-5.84.06-.12.31-.24.67-.35,1.09v.06c-1.28,4.95-1.34,16.97.32,20.33,1.5,3.03,17.03,17.38,20.38,18.58,43.21,7.07,86.19,16.25,129.43,22.97,5.78.9,20.5,4.05,25.25,2.52,5.52-1.78,7.02-20.86,7.86-26.47,3.05-20.27,4.74-40.79,7.38-61.11,1.93-14.76,6.36-31.94,7.04-46.57.17-3.56-.31-7.82-2.26-10.9h.02ZM203.23,131.94l-152.17-24.6-1.13-.66c-1.12-1.51,2.84-20.32,4.05-23.32,1.39-3.45,2.33-5.42,6.71-4.81l142.85,23.91c1.1.35,1.95,1.01,2.29,2.14.82,2.68-1.52,26.45-2.6,27.34h0Z"/>
      <path d="M69.6,147.98c0,.25-.04.51-.1.77l-.23.87c-.1.38-.26.73-.49,1.05l-24.7,33.93c-.41.56-.96,1.05-1.63,1.31-.67.24-1.36.28-2.03.14-1.67-.38-2.7-2.02-2.55-3.68l.65-7.38c-.24.07-.49.18-.77.28-1.67.68-4.06,1.94-6.73,3.32-6.15,3.21-13.67,7.05-16.64,5.61-1.27-.62-10.06-14.95-7.99-17.43l19.62-8.88c.29-.63-12.23-2.57-8.52-7.26.89-1.14,2.29-1.78,3.74-1.91l14.65-1.26,6.12-.53,24.12-2.06c1.17-.09,2.29.44,2.93,1.39.35.51.53,1.12.53,1.73h0Z"/>
      <path d="M180.05,149.68h0c.02,1.33-1.17,2.37-2.5,2.21-37.1-4.42-73.98-12.07-110.81-18.1-.42-.07-.82-.25-1.13-.54-2.03-1.81-.58-4.03,2.28-3.94l110.31,18.23c1.07.18,1.85,1.07,1.86,2.14h0Z"/>
      <path d="M171.8,219.05h0c-.09.92-.78,1.68-1.69,1.88l-1.53.34c-.28.07-.55.07-.84.02l-109.49-18.44c-2.53-.86-2.1-4.97.62-5.03l111.14,18.93c1.12.2,1.9,1.19,1.8,2.31h0Z"/>
      <path d="M98.4,152.26l78.38,14.99c3.04,1.59,1.44,4.45-1.62,4.29l-76-14.09c-2.84,0-3.13-4.55-.78-5.19h0Z"/>
      <path d="M93.59,186.17l78.65,14.06,1.18.7c1.15,2.45.38,5.09-2.75,4.67-24.14-6.49-50.79-8.16-74.77-14.29-1.08-.27-2.21-.47-3.26-.7-2.88-.66-1.96-4.95.95-4.42h0v-.02h0Z"/>
      <path d="M174.85,184.84c.73.36,1.12,1.17.94,1.96h0c-.18.76-.85,1.32-1.63,1.35-1.67.1-3.37-.04-5.03-.27-19.94-2.78-46.39-7.77-65.96-12.45-3.38-.81-11.24-2.21-8.06-5.07,1.03-.92,2.46-1.24,3.84-.99l75.91,15.46h-.02Z"/>
      <path class="cls-2" d="M205.83,104.6c-.34-1.13-1.19-1.78-2.29-2.14l-142.85-23.91c-4.37-.62-5.31,1.35-6.71,4.81-1.21,3.01-5.18,21.81-4.05,23.32l1.13.66,152.17,24.6c1.07-.89,3.41-24.66,2.6-27.34h0ZM73.06,102.05c-10.76,2.43-13.69-12.4-4.09-14.52,12.07-2.67,13.14,12.5,4.09,14.52ZM91.91,105.71c-9.21.69-11.53-12.66-2.38-14.68,12.56-2.77,13.45,13.86,2.38,14.68ZM114.32,109.19c-12.92,1.98-13.68-13.43-2.39-14.68,10.34-1.16,11.16,13.35,2.39,14.68Z"/>
      <path d="M111.93,94.51c-11.29,1.26-10.53,16.67,2.39,14.68,8.78-1.33,7.95-15.84-2.39-14.68ZM113.84,103.85c-.3.28-.64.52-.99.7-.23.12-.47.22-.71.28-.45.12-.89.15-1.34.04-.39-.09-.69-.24-.9-.43-1.08-.89-.41-2.62.83-3.84,1.18-1.18,2.86-1.89,4.06-.97.06.04.1.07.14.12,1,.95.24,2.88-1.09,4.1,0,0,0,0,0,0Z"/>
      <path d="M68.97,87.52c-9.6,2.12-6.67,16.96,4.09,14.52,9.05-2.03,7.97-17.19-4.09-14.52ZM73.37,95.8c-.07.07-.14.15-.23.21-1.2,1.01-3.26,1.27-4.28.44-.24-.21-.43-.47-.53-.8-.54-1.81.9-2.96,2.44-3.37.23-.06.44-.1.66-.13.5-.07.98-.07,1.37.04.23.06.41.14.56.24.06.04.1.07.13.12.05.05.08.08.1.13.77,1.3.49,2.38-.24,3.12h.02Z"/>
      <path d="M89.53,91.02c-9.15,2.03-6.83,15.37,2.38,14.68,11.08-.83,10.18-17.46-2.38-14.68ZM89.45,100.09c-.24-.23-.43-.53-.55-.92-.05-.13-.08-.25-.09-.39-.36-2.42,2.93-3.47,4.61-3.1.37.08.66.23.81.46,2.07,2.96-2.9,5.7-4.78,3.96Z"/>
      <path class="cls-2" d="M114.79,99.63c1.94,1.47-1.26,5.93-3.99,5.24-4.02-1.02,1.25-7.32,3.99-5.24Z"/>
      <path class="cls-2" d="M73.61,92.68c2.26,3.8-4.46,5.68-5.27,2.97-.97-3.25,4.45-4.35,5.27-2.97Z"/>
      <path class="cls-2" d="M94.23,96.14c2.34,3.35-4.34,6.43-5.33,3.02s4.43-4.3,5.33-3.02Z"/>
    </g>
    <polyline class="cls-1" points="36.14 193.92 38.95 175.26 43.21 146.93 44.98 135.13"/>
  </g>
</svg>