<?xml version="1.0" encoding="UTF-8"?>
<svg id="objects" xmlns="http://www.w3.org/2000/svg" version="1.1" viewBox="0 0 323 241.7">
  <!-- Generator: Adobe Illustrator 30.0.0, SVG Export Plug-In . SVG Version: 2.1.1 Build 123)  -->
  <defs>
    <style>
      .st0 {
        fill: #fff;
      }

      .st1 {
        fill: #f2c316;
      }
    </style>
  </defs>
  <path class="st1" d="M1.01,155.4c1.35,14.3,11.93,35.47,28.7,48.17,14.34,10.86,26.27,16.77,43.54,21.81,38.21,11.16,77.06,17.33,125.61,15.46,11.59-.45,32.6-3.42,49.31-16.01,9.26-6.98,15.25-20.44,17.7-31.77,2.82-12.99,9.18-25.6,13.26-36.45,7.96-21.16,21.26-33.48,32.36-59.97,4.64-11.06,9.03-22.84,10.4-34.76s-.65-24.51-7.33-34.47c-7.27-10.84-19.4-17.68-32-21.1S224.38.62,211.33.55c-36.61-.2-41.39.59-77.67,8.77-36.28,8.18-68.04,28.14-93.4,54.89-12.04,12.7-21.09,27.83-28.72,42.8-7.63,14.97-12.12,31.68-10.53,48.4h0Z"/>
  <g>
    <path class="st0" d="M217.02,115.86c-4.67,4.29-10.26,4.99-15.84,1.92-3.24-1.78-5.17-4.89-8.01-7.09-9.04-7-22.68.18-16.95,12.65.56,1.25.51,1.04,2.82,2.76,4.04,1.47,3.77-.18,8.1,1.61,6.46,2.69,14.19-2.23,17.82,6.34,2.58,6.16-1.98,13.56-4.77,18.85-6.87,13.08-21.72,27.32-36.64,16.6-.1-.07-.15-.18-.25-.25-4.11-.6-8.34-2.2-12.56-4.26-.48,8.94-4.12,18.42-13.3,21.28-10.44,3.27-21.11-3.32-30.06-9.42-2.92-1.25-5.7-3.11-8.21-5.86-7.68-8.38-8.44-20.3-3.9-28.74-13.78-8.59-34.92-19.61-29.5-38.44-2.99-10.33,4.64-22.18,12.46-32.19-5.96-3.32-10.33-8.72-14.5-14.24-.28-.35-.41-.73-.51-1.09-6.87-7.4-9.1-18.52-1.44-29.12,12.18-16.88,35.3-10.11,42.1,6.34,4.64-7.85,9.94-16.25,19.04-18.02,10.92-2.1,22.4,5.47,32.34,12.59-2.26-14.59,12.29-29.14,29.47-26.68,6.97,1.01,13.89,5.12,18.63,10.82.21.15.43.23.63.43,9.04,9.7,21.66,32.16,8.16,40.6,6.06,3.42,11.13,7.78,13.25,13.61.15.15.32.25.48.46,9.8,13.86,3.2,37.43-8.85,48.53h-.01Z"/>
    <path d="M225.86,67.33c-.15-.21-.32-.31-.48-.46-2.13-5.83-7.19-10.19-13.25-13.61,13.5-8.44.88-30.9-8.16-40.6-.21-.21-.43-.28-.63-.43-4.74-5.7-11.65-9.8-18.63-10.82-17.19-2.45-31.73,12.09-29.47,26.68-9.94-7.12-21.42-14.69-32.34-12.59-9.1,1.78-14.4,10.16-19.04,18.02-6.77-16.45-29.88-23.22-42.07-6.36-7.65,10.6-5.42,21.72,1.44,29.12.1.35.23.73.51,1.09,4.15,5.52,8.54,10.92,14.5,14.24-7.82,10.01-15.46,21.84-12.46,32.19-5.42,18.83,15.71,29.86,29.5,38.44-4.54,8.44-3.77,20.34,3.9,28.74,2.51,2.73,5.3,4.61,8.21,5.86,8.94,6.11,19.61,12.7,30.06,9.42,9.17-2.86,12.83-12.34,13.3-21.28,4.23,2.05,8.47,3.65,12.56,4.26.1.07.15.18.25.25,14.93,10.71,29.78-3.52,36.64-16.6,2.79-5.3,7.35-12.7,4.77-18.85-3.63-8.57-11.35-3.65-17.82-6.34-4.33-1.81-4.08-.15-8.1-1.61-2.3-1.72-2.26-1.53-2.82-2.76-5.72-12.46,7.91-19.64,16.95-12.65,2.83,2.2,4.77,5.33,8.01,7.09,5.58,3.07,11.17,2.36,15.84-1.92,12.04-11.1,18.66-34.67,8.85-48.53h-.03.01ZM200.14,90.07c-12.95-4.81-23.76-7.71-33.38,6.25-8.54,12.46-4.18,26.1,7.02,34.74,4.43,3.45,12.62.98,12.46,10.82-.03,3.1-4.67,11.17-6.94,13.75-14.85,16.81-34.08-1.57-47.92-9.28-3.1-1.72-6.74,2.55-3.9,5.06,1.29,3.98,2.61,7.96,3.93,11.96-8.87,10.39-16.85,12.04-24,4.92-4.58-3.17-6.81-5.27-7.93-10.74-2.13-10.26,3.32-20.9,15.18-18.76,3.48.63,5.8-3.93,2.48-5.9-6.97-4.15-13.96-8.26-20.96-12.42-6.31-3.77-16.78-7.88-21.34-13.81-.98-1.29-1.57-2.69-2-4.12.21-.87.03-1.6-.46-2.16-.94-8.37,5.7-18.35,12.31-26.73,1.09-.38,1.81-1.37,2-2.54,2.73-3.38,5.27-6.36,7.12-8.82.63-.48.97-1.09,1.01-1.75.43-1.54-.66-2.89-2.13-3.38-.07-.04-.15-.07-.25-.1-.13-.03-.25-.04-.41-.07-.63-.15-1.35-.15-2.08.15-21.18,9.32-36.31-20.89-16.98-31.5,12.27-6.74,25.64,3.65,26.33,16.19.18,3.21,4.23,4.33,6,1.61,1.88-2.83,3.55-5.78,5.37-8.62,5.45-8.48,7.29-12.21,17.86-11.02,13.22,1.47,22.93,10.26,33.95,17.23,3.11,1.95,6.52-2.51,3.9-5.06-11.55-11.33-1.01-28.08,13.84-28.39,5.37-.13,13.68,3.2,16.91,7.46,14.09,18.7-.23,24.53-10.64,28.12-3.17,1.12-2.94,5.05,0,6.24,7.81,3.14,16.09,5.65,23.24,10.16,15,9.53,9.97,37.75-9.63,30.46l.03.04h0Z"/>
  </g>
  <path d="M290.2,179.4c-1.39-4.29-2.79-8.56-4.18-12.85,2.84-3.72,5.69-7.44,8.53-11.16.9-1.19.96-2.4.59-3.47-.22-1.61-1.32-2.97-3.48-2.97h-8.03c-1.12,0-4.97-.14-6.28.09-.52-1.15-2.75-4.04-3.37-4.95-1.58-2.29-3.15-4.56-4.72-6.85-1.73-2.52-6.07-1.73-6.99,1.11-.82,2.54-1.65,5.1-2.47,7.64-.38,1.17-1.71,4.66-1.9,5.93-1.29.13-4.87,1.34-5.83,1.63-2.66.79-5.31,1.58-7.97,2.37-3.07.91-3.02,5.37-.76,7.02,3.76,2.73,7.52,5.46,11.28,8.19-.11,4.53-.23,9.08-.34,13.61-.08,3.52,3.65,5.71,6.59,3.58,3.7-2.7,7.41-5.4,11.11-8.09,4.35,1.54,8.71,3.07,13.06,4.61,3.52,1.24,6.22-2.2,5.16-5.45v.03h-.01v-.02Z"/>
</svg>