<?xml version="1.0" encoding="UTF-8"?>
<svg id="Layer_1" data-name="Layer 1" xmlns="http://www.w3.org/2000/svg" viewBox="0 0 688.75 141.19">
  <defs>
    <style>
      .cls-1 {
        fill: #585858;
      }
    </style>
  </defs>
  <g>
    <path class="cls-1" d="M173.18,7.47c0-3.22,2.76-5.98,6.13-5.98s6.13,2.76,6.13,5.98-2.76,6.13-6.13,6.13-6.13-2.76-6.13-6.13ZM175.48,32.16h7.67v76.67h-7.67V32.16Z"/>
    <path class="cls-1" d="M282.52,32.16v72.99c0,23-17.02,36.04-38.18,36.04-17.94,0-30.67-7.21-36.19-18.4l6.75-3.83c3.99,8.13,12.57,14.88,29.44,14.88,19.17,0,30.52-11.2,30.52-28.68v-14.11c-6.29,11.81-18.1,19.48-32.97,19.48-21.93,0-39.72-17.33-39.72-40.02s17.79-40.02,39.72-40.02c14.87,0,26.68,7.67,32.97,19.48v-17.79h7.67ZM274.85,70.49c0-18.25-14.26-32.66-32.51-32.66s-32.51,14.41-32.51,32.66,14.26,32.66,32.51,32.66,32.51-14.41,32.51-32.66Z"/>
    <path class="cls-1" d="M369.01,32.16v76.67h-7.67v-14.57c-5.83,11.35-15.64,16.26-27.45,16.26-18.25,0-29.75-12.11-29.75-30.67v-47.69h7.82v47.69c0,14.11,8.13,23.31,22.54,23.31s26.83-9.81,26.83-30.52v-40.48h7.67Z"/>
    <path class="cls-1" d="M425.9,31.08v7.36c-13.19,0-25.61,8.13-25.61,27.76v42.63h-7.67V32.16h7.67v15.03c5.21-12.12,15.18-16.1,25.61-16.1Z"/>
    <path class="cls-1" d="M504.27,32.16v76.67h-7.67v-14.57c-5.83,11.35-15.64,16.26-27.45,16.26-18.25,0-29.75-12.11-29.75-30.67v-47.69h7.82v47.69c0,14.11,8.13,23.31,22.54,23.31s26.84-9.81,26.84-30.52v-40.48h7.67Z"/>
    <path class="cls-1" d="M525.59,103.46c0-3.83,2.91-6.9,6.9-6.9s6.9,3.07,6.9,6.9-3.07,6.9-6.9,6.9-6.9-3.07-6.9-6.9Z"/>
    <path class="cls-1" d="M612.23,88.74c0,12.57-11.04,21.78-27.45,21.78-15.33,0-25.46-7.21-29.14-17.02l6.59-3.83c2.76,8.28,11.04,13.49,22.54,13.49,10.73,0,19.78-4.75,19.78-14.41,0-20.86-46.47-8.9-46.47-36.5,0-12.11,10.43-21.77,26.07-21.77,12.42,0,21.93,5.98,26.07,15.33l-6.44,3.68c-3.22-7.98-11.2-11.65-19.63-11.65-9.97,0-18.4,5.21-18.4,14.41,0,20.55,46.47,8.43,46.47,36.5Z"/>
    <path class="cls-1" d="M678.33,108.83l-40.64-37.72v37.72h-7.67V1.48h7.67v65.48l38.8-34.81h10.73l-41.25,36.8,42.78,39.87h-10.43Z"/>
  </g>
  <g>
    <path class="cls-1" d="M120.97,110.24h-7.21c0-25.69-23.9-46.59-53.27-46.59S7.21,84.54,7.21,110.24H0c0-29.67,27.14-53.81,60.49-53.81,33.35,0,60.48,24.14,60.48,53.81Z"/>
    <path class="cls-1" d="M62.74,48.15l1.05-5.69C71.55.49,109.42,0,109.8,0h4.4l-.86,4.31c-6.22,31.08-43.45,41.83-45.03,42.28l-5.57,1.56ZM104.94,7.72c-8.53,1.47-25.82,7.23-32.54,29.73,9.29-3.85,26.64-13.04,32.54-29.73Z"/>
    <path class="cls-1" d="M27.31,98.35c0,2.82-2.29,5.11-5.11,5.11s-5.11-2.29-5.11-5.11,2.29-5.11,5.11-5.11c2.82,0,5.11,2.29,5.11,5.11Z"/>
    <path class="cls-1" d="M102.75,98.35c0,2.82-2.29,5.11-5.11,5.11s-5.11-2.29-5.11-5.11,2.29-5.11,5.11-5.11c2.82,0,5.11,2.29,5.11,5.11Z"/>
  </g>
</svg>