<?xml version="1.0" encoding="UTF-8"?>
<svg id="Layer_1" data-name="Layer 1" xmlns="http://www.w3.org/2000/svg" viewBox="0 0 130.52 43.92">
  <defs>
    <style>
      .cls-1, .cls-2 {
        fill: #545454;
      }

      .cls-2 {
        fill-rule: evenodd;
      }
    </style>
  </defs>
  <g>
    <g>
      <path class="cls-1" d="M125.21,11.57c1.56,0,2.82.52,3.8,1.55,1.01,1.05,1.52,2.48,1.52,4.28v8.64h-3.63v-8.19c0-.92-.25-1.63-.76-2.14-.49-.51-1.16-.76-2.03-.76-.96,0-1.72.3-2.28.9-.54.58-.82,1.44-.82,2.59v7.6h-3.63v-14.07h3.63v1.58c.86-1.31,2.26-1.97,4.19-1.97Z"/>
      <path class="cls-1" d="M103.77,21.87c.73.73,1.66,1.1,2.79,1.1s2.05-.37,2.79-1.1c.75-.75,1.13-1.71,1.13-2.87s-.38-2.11-1.13-2.84c-.73-.75-1.66-1.13-2.79-1.13s-2.05.38-2.79,1.13c-.73.73-1.1,1.68-1.1,2.84s.37,2.12,1.1,2.87ZM110.46,13.63v-1.66h3.63v14.07h-3.63v-1.66c-1.09,1.37-2.62,2.05-4.59,2.05s-3.49-.71-4.84-2.14c-1.33-1.44-2-3.21-2-5.29s.67-3.82,2-5.26c1.35-1.44,2.96-2.17,4.84-2.17,1.97,0,3.5.68,4.59,2.05Z"/>
      <path class="cls-1" d="M91.37,11.57c1.61,0,2.9.53,3.85,1.58.98,1.05,1.46,2.46,1.46,4.22v8.67h-3.63v-8.41c0-.84-.21-1.5-.62-1.97-.41-.47-.99-.7-1.74-.7-.83,0-1.47.27-1.94.82-.45.54-.68,1.33-.68,2.36v7.91h-3.63v-8.41c0-.84-.21-1.5-.62-1.97-.41-.47-.99-.7-1.74-.7-.81,0-1.45.28-1.94.84-.47.54-.7,1.32-.7,2.34v7.91h-3.63v-14.07h3.63v1.49c.84-1.26,2.15-1.89,3.91-1.89s3.02.68,3.83,2.03c.92-1.35,2.32-2.03,4.19-2.03Z"/>
      <path class="cls-1" d="M68.86,19.56v-7.6h3.63v14.07h-3.63v-1.58c-.86,1.31-2.26,1.97-4.19,1.97-1.54,0-2.81-.52-3.83-1.55-.99-1.05-1.49-2.48-1.49-4.28v-8.64h3.63v8.19c0,.92.24,1.63.73,2.14.51.51,1.19.76,2.05.76.96,0,1.71-.29,2.25-.87.56-.6.84-1.47.84-2.62Z"/>
      <polygon class="cls-1" points="52.23 14.16 52.23 6.34 56.08 6.34 56.08 26.03 52.23 26.03 52.23 17.87 44.91 17.87 44.91 26.03 41.03 26.03 41.03 6.34 44.91 6.34 44.91 14.16 52.23 14.16"/>
    </g>
    <g>
      <path class="cls-1" d="M116.67,41.09c0,.18-.06.33-.18.45-.12.12-.27.18-.45.18s-.33-.06-.45-.18c-.12-.12-.18-.27-.18-.45s.06-.33.18-.45c.12-.12.27-.18.45-.18s.33.06.45.18c.12.12.18.27.18.45Z"/>
      <path class="cls-1" d="M109.6,40.35c.44.44.98.66,1.62.66s1.18-.22,1.62-.66c.44-.45.66-1,.66-1.63s-.22-1.18-.66-1.62c-.44-.45-.98-.67-1.62-.67s-1.18.22-1.62.67c-.44.44-.66.98-.66,1.62s.22,1.17.66,1.63ZM111.27,35.7c.82,0,1.52.29,2.1.88.59.59.88,1.3.88,2.15s-.29,1.56-.88,2.15c-.58.59-1.28.88-2.1.88-1.02,0-1.8-.42-2.33-1.27v3.44h-.76v-8.08h.76v1.13c.53-.85,1.31-1.27,2.33-1.27Z"/>
      <path class="cls-1" d="M101.78,40.35c.44.44.98.66,1.62.66s1.18-.22,1.62-.66c.44-.45.66-1,.66-1.63s-.22-1.18-.66-1.62c-.44-.45-.98-.67-1.62-.67s-1.18.22-1.62.67c-.44.44-.66.98-.66,1.62s.22,1.17.66,1.63ZM105.55,40.89c-.59.58-1.31.87-2.15.87s-1.57-.29-2.16-.87c-.59-.59-.88-1.31-.88-2.16s.29-1.57.88-2.15c.59-.59,1.31-.88,2.16-.88s1.56.29,2.15.88c.59.58.89,1.29.89,2.15s-.3,1.57-.89,2.16Z"/>
      <path class="cls-1" d="M94.32,40.35c.44.44.98.66,1.62.66s1.18-.22,1.62-.66c.44-.45.66-1,.66-1.63s-.22-1.18-.66-1.62c-.44-.45-.98-.67-1.62-.67s-1.18.22-1.62.67c-.44.44-.66.98-.66,1.62s.22,1.17.66,1.63ZM98.08,40.89c-.59.58-1.31.87-2.15.87s-1.57-.29-2.16-.87c-.59-.59-.88-1.31-.88-2.16s.29-1.57.88-2.15c.59-.59,1.31-.88,2.16-.88s1.56.29,2.15.88c.59.58.89,1.29.89,2.15s-.3,1.57-.89,2.16Z"/>
      <rect class="cls-1" x="90.4" y="33.18" width=".76" height="8.43"/>
      <path class="cls-1" d="M82.51,36.44c-.6,0-1.1.18-1.51.53-.4.35-.64.82-.72,1.4h4.31c-.08-.62-.32-1.09-.7-1.42-.4-.34-.86-.51-1.37-.51ZM82.51,35.7c.86,0,1.55.3,2.07.91.53.6.8,1.31.8,2.14,0,.04,0,.16-.02.36h-5.07c.08.58.32,1.04.74,1.39s.94.52,1.56.52c.88,0,1.5-.33,1.86-.98l.67.39c-.25.42-.6.74-1.05.98-.44.23-.94.35-1.49.35-.91,0-1.65-.28-2.22-.85-.57-.57-.85-1.29-.85-2.17s.28-1.59.84-2.16c.56-.58,1.29-.87,2.17-.87Z"/>
      <path class="cls-1" d="M75.65,35.7c.69,0,1.24.22,1.65.65.41.42.61,1,.61,1.72v3.55h-.76v-3.55c0-.52-.14-.92-.42-1.2-.27-.28-.65-.43-1.15-.43-.58,0-1.04.18-1.37.54-.33.36-.5.9-.5,1.61v3.03h-.76v-8.08h.76v3.21c.43-.69,1.08-1.04,1.94-1.04Z"/>
      <path class="cls-1" d="M71.21,35.84v.74h-1.66v3.5c0,.32.06.54.18.68.12.13.31.2.55.21.25,0,.55,0,.92-.02v.67c-.82.12-1.44.07-1.84-.17-.39-.25-.59-.7-.59-1.36v-3.5h-1.21v-.74h1.21v-1.39l.76-.23v1.62h1.66Z"/>
      <path class="cls-1" d="M60.6,35.7c.69,0,1.24.22,1.65.65.41.42.61,1,.61,1.72v3.55h-.76v-3.55c0-.52-.14-.92-.42-1.2-.27-.28-.65-.43-1.15-.43-.58,0-1.04.18-1.37.54-.33.36-.5.9-.5,1.61v3.03h-.76v-5.77h.76v.9c.43-.69,1.08-1.04,1.94-1.04Z"/>
      <path class="cls-1" d="M55.82,41.61h-.76v-5.77h.76v5.77ZM55.99,34.06c0,.15-.05.28-.16.39-.11.11-.24.16-.39.16s-.28-.05-.39-.16c-.11-.11-.16-.24-.16-.39s.05-.28.16-.39c.11-.11.24-.16.39-.16s.28.05.39.16c.11.11.16.24.16.39Z"/>
    </g>
  </g>
  <path class="cls-2" d="M18.82,13.52c.68.68,1.1,1.62,1.1,2.66,0,1.04-.42,1.97-1.1,2.65-.68.68-1.62,1.1-2.65,1.1s-1.98-.42-2.65-1.1-1.1-1.62-1.1-2.65.42-1.97,1.1-2.65c.68-.68,1.62-1.1,2.65-1.1s1.98.42,2.65,1.1ZM31.32,21.94h-5.32c-.49.83-1.08,1.6-1.76,2.28-2.05,2.05-4.89,3.32-8.02,3.32s-5.97-1.27-8.02-3.32c-1.39-1.39-2.43-3.15-2.95-5.11h3.03c.43,1.16,1.1,2.2,1.96,3.06,1.53,1.53,3.64,2.48,5.97,2.48,2.33,0,4.44-.94,5.97-2.47.86-.86,1.53-1.9,1.96-3.07,2.58,0,5.28,0,7.96-.02-.17.97-.44,1.92-.79,2.85h0ZM16.17,4.83c3.13,0,5.97,1.27,8.02,3.32,1.39,1.39,2.43,3.15,2.95,5.11h-3.03c-.43-1.16-1.1-2.2-1.96-3.06-1.53-1.53-3.64-2.48-5.97-2.48-2.33,0-4.44.95-5.97,2.48-.86.86-1.53,1.9-1.96,3.06-2.58,0-5.29,0-7.97.02.17-.97.44-1.92.79-2.85h5.33c.49-.83,1.09-1.6,1.77-2.28,2.05-2.05,4.89-3.32,8.02-3.32h0ZM4.74,4.74c-1.33,1.33-2.38,2.84-3.16,4.45h3.28c.54-.88,1.19-1.69,1.91-2.41,2.4-2.4,5.72-3.89,9.39-3.89s6.99,1.49,9.39,3.89c2.08,2.08,3.48,4.85,3.81,7.94h-6.71c-.28-1.26-.91-2.38-1.79-3.25-1.2-1.2-2.86-1.95-4.7-1.95s-3.5.74-4.7,1.95c-.88.88-1.51,2-1.79,3.25-3.23,0-6.4-.02-9.61-.02-.44,4.78,1.24,9.48,4.67,12.9,2.93,2.93,6.97,4.74,11.43,4.74s8.51-1.81,11.43-4.74c1.2-1.2,2.22-2.59,3-4.12h-3.34c-.5.75-1.06,1.45-1.7,2.08-2.4,2.4-5.72,3.89-9.39,3.89s-6.99-1.49-9.39-3.89c-2.08-2.08-3.48-4.85-3.81-7.94h6.71c.28,1.25.91,2.38,1.79,3.25,1.2,1.2,2.86,1.95,4.7,1.95s3.5-.74,4.7-1.95c.88-.88,1.51-2,1.79-3.25,3.22,0,6.41.01,9.62.01.05-.48.07-.97.06-1.46,0-4.46-1.81-8.51-4.74-11.43-6.24-6.24-16.47-6.38-22.86,0h0Z"/>
</svg>