<?xml version="1.0" encoding="UTF-8"?>
<svg id="Layer_1" xmlns="http://www.w3.org/2000/svg" version="1.1" viewBox="0 0 184.34 27.33">
  <!-- Generator: Adobe Illustrator 30.0.0, SVG Export Plug-In . SVG Version: 2.1.1 Build 123)  -->
  <defs>
    <style>
      .st0 {
        fill-rule: evenodd;
      }

      .st0, .st1 {
        fill: #585858;
      }
    </style>
  </defs>
  <g>
    <path class="st1" d="M59.16,18.7c.26-.49.41-1.09.41-1.76s-.11-1.26-.32-1.75c-.22-.49-.55-.9-.99-1.23s-.99-.58-1.66-.77c-.68-.19-1.45-.31-2.35-.35l-7.15-.48c-.45-.03-.81-.09-1.11-.14-.29-.05-.5-.16-.64-.32-.14-.15-.21-.37-.21-.65,0-.24.05-.44.15-.59.1-.15.31-.27.6-.36.31-.09.75-.15,1.33-.19s1.34-.05,2.28-.05c.79,0,1.59.02,2.4.07.81.04,1.6.1,2.38.18.78.07,1.51.15,2.21.25.69.1,1.32.2,1.87.32l.56-2.62c-.63-.14-1.32-.26-2.06-.38-.75-.11-1.51-.21-2.31-.29-.78-.08-1.54-.13-2.26-.19-.72-.04-1.39-.07-2-.07-1.99,0-3.6.13-4.85.41-1.25.27-2.16.7-2.73,1.3s-.87,1.36-.87,2.32c0,.8.18,1.47.55,2.02.36.54.93.96,1.72,1.25.8.3,1.83.48,3.13.56l7.27.48c.4.02.72.08.99.14s.45.19.58.33c.13.15.19.4.19.72,0,.23-.05.43-.16.59-.11.16-.31.3-.59.4-.29.1-.69.16-1.23.21-.53.04-1.23.07-2.1.07-.91,0-1.81-.03-2.69-.09-.87-.05-1.71-.13-2.54-.24-.81-.1-1.59-.22-2.33-.34-.75-.13-1.44-.26-2.09-.41l-.49,2.79c.78.19,1.68.36,2.71.5,1.03.14,2.12.26,3.24.36,1.13.1,2.23.14,3.28.14,1.6,0,2.94-.08,4.01-.23s1.91-.38,2.52-.7c.63-.31,1.06-.71,1.33-1.22h0Z"/>
    <path class="st1" d="M61.38,7.71v12.89h3.6V7.71h-3.6Z"/>
    <path class="st1" d="M65.43,14.18l7.7,6.41h5.25l-8.13-6.47,8.15-6.42h-5.1l-7.85,6.37s0,.11,0,.11Z"/>
    <path class="st0" d="M83.18,20.6l1.69-2.63h10.15l1.7,2.63h4.2l-8.65-13.04h-4.63l-8.65,13.04h4.18ZM89.94,10.03l-3.5,5.47h7.01l-3.51-5.47Z"/>
    <path class="st1" d="M101.69,7.71v12.89h10.23v-2.73h-6.77V7.71h-3.46Z"/>
    <path class="st1" d="M113.16,20.6V7.71h3.46v10.15h6.77v2.73h-10.23Z"/>
    <path class="st0" d="M129.95,17.96l-1.69,2.63h-4.17l8.64-13.04h4.63l8.64,13.04h-4.2l-1.69-2.63h-10.17.01ZM131.52,15.5l3.5-5.47,3.51,5.47h-7.01Z"/>
    <path class="st0" d="M150.38,20.6h-3.48V7.55h12.93c.81,0,1.54.08,2.2.24s1.22.41,1.69.76c.47.34.83.8,1.09,1.37.25.57.37,1.27.37,2.11,0,.94-.18,1.73-.54,2.36-.35.64-.88,1.11-1.56,1.45-.68.33-1.5.53-2.47.59l-1.02.03,1.06.67,4.36,3.46h-4.37l-4.86-3.96h-5.39v3.96h-.01ZM150.38,10.53v3.5h9.12c.74,0,1.27-.13,1.58-.41.32-.27.48-.71.48-1.33,0-.66-.16-1.12-.48-1.38-.32-.25-.85-.38-1.58-.38h-9.12Z"/>
    <path class="st1" d="M183.93,18.7c.26-.49.41-1.09.41-1.76s-.11-1.26-.33-1.75c-.22-.49-.54-.9-.99-1.23-.44-.33-1-.58-1.67-.77-.67-.19-1.45-.31-2.34-.35l-7.16-.48c-.44-.03-.81-.09-1.1-.14-.29-.05-.5-.16-.64-.32-.14-.15-.21-.37-.21-.65,0-.24.04-.44.15-.59.1-.15.3-.27.6-.36.31-.09.75-.15,1.33-.19s1.34-.05,2.28-.05c.79,0,1.58.02,2.4.07.81.04,1.6.1,2.38.18.78.07,1.51.15,2.21.25.69.1,1.32.2,1.87.32l.56-2.62c-.63-.14-1.32-.26-2.06-.38-.76-.11-1.53-.21-2.31-.29s-1.54-.13-2.27-.19c-.72-.04-1.39-.07-1.99-.07-2,0-3.61.13-4.86.41-1.24.27-2.16.7-2.73,1.3-.57.58-.87,1.36-.87,2.32,0,.8.18,1.47.54,2.02.37.54.94.96,1.73,1.25s1.83.48,3.12.56l7.27.48c.4.02.72.08.99.14s.45.19.59.33c.13.15.19.4.19.72,0,.23-.05.43-.16.59s-.31.3-.59.4c-.29.1-.69.16-1.23.21-.53.04-1.23.07-2.1.07-.91,0-1.81-.03-2.69-.09-.87-.05-1.72-.13-2.54-.24-.81-.1-1.59-.22-2.34-.34-.74-.13-1.43-.26-2.07-.41l-.5,2.79c.78.19,1.69.36,2.71.5,1.03.14,2.12.26,3.25.36,1.13.1,2.22.14,3.28.14,1.6,0,2.94-.08,4.01-.23s1.91-.38,2.52-.7c.63-.31,1.06-.71,1.33-1.22h.02Z"/>
  </g>
  <g>
    <path class="st1" d="M24.78,0h-7.36L0,17.37h7.46C8.62,16.38,24.62.34,24.78,0Z"/>
    <polygon class="st1" points="27.49 9.96 10.07 27.33 17.53 27.33 34.85 9.96 27.49 9.96"/>
    <path class="st1" d="M27.5,7.23h-7.38l-12.64,12.61h7.55c4.79-4.76,12.47-12.61,12.47-12.61Z"/>
  </g>
</svg>