<?xml version="1.0" encoding="UTF-8"?>
<svg id="Layer_1" xmlns="http://www.w3.org/2000/svg" version="1.1" viewBox="0 0 73.28 57.83">
  <!-- Generator: Adobe Illustrator 30.0.0, SVG Export Plug-In . SVG Version: 2.1.1 Build 123)  -->
  <defs>
    <style>
      .st0 {
        fill: #545454;
      }
    </style>
  </defs>
  <path class="st0" d="M13.56,57.83h18.57c3.23-.03,5.81-2.68,5.78-5.9-.03-3.18-2.6-5.74-5.78-5.78H13.56c-1.04,0-1.88-.84-1.88-1.88,0-.28.06-.55.18-.8l11.48-24.34c.61-1.29,2.16-1.85,3.45-1.24.54.25.98.69,1.24,1.24l13.9,29.47c3.79,8.04,13.38,11.48,21.42,7.69,5.63-2.66,9.22-8.32,9.22-14.55v-18.01c.03-3.23-2.56-5.87-5.78-5.9-3.23-.03-5.87,2.56-5.9,5.78v18.13c0,2.44-1.98,4.42-4.42,4.42-1.71,0-3.26-.98-3.99-2.53l-13.9-29.47c-3.36-7.13-11.86-10.18-18.99-6.82-3,1.41-5.41,3.82-6.82,6.82L1.3,38.47c-3.2,6.77-.3,14.85,6.48,18.04,1.81.85,3.78,1.3,5.78,1.3h0ZM60.71,9c.16.39.36.77.6,1.12.24.36.51.69.81,1,2.53,2.55,6.65,2.56,9.2.03.31-.31.6-.66.85-1.03.24-.36.43-.73.6-1.12.16-.39.29-.8.37-1.21.18-.85.18-1.71,0-2.56-.08-.42-.21-.82-.37-1.21s-.36-.77-.6-1.12c-.24-.36-.51-.69-.81-1-2.55-2.54-6.68-2.54-9.23,0-.3.31-.57.64-.81,1s-.43.73-.6,1.12c-.16.39-.29.8-.37,1.21-.18.85-.18,1.71,0,2.56.08.42.21.82.37,1.21h0Z"/>
</svg>