<?xml version="1.0" encoding="UTF-8"?>
<svg id="Layer_1" xmlns="http://www.w3.org/2000/svg" version="1.1" viewBox="0 0 131.06 19.97">
  <!-- Generator: Adobe Illustrator 30.0.0, SVG Export Plug-In . SVG Version: 2.1.1 Build 123)  -->
  <defs>
    <style>
      .st0 {
        fill: #585858;
      }
    </style>
  </defs>
  <g id="Layer_1-2">
    <g id="Layer_2-2">
      <g id="Layer_1-2-2">
        <polygon class="st0" points="121.08 7.46 124.01 13.3 127.74 13.3 121.08 .01 111.11 19.94 114.82 19.94 121.08 7.46"/>
        <polygon class="st0" points="127.36 19.97 131.06 19.97 129.4 16.65 125.7 16.65 127.36 19.97"/>
        <polygon class="st0" points="91.47 19.97 81.5 10 91.47 .01 86.76 .01 76.77 10 86.76 19.97 91.47 19.97"/>
        <path class="st0" d="M9.97,19.94c2.65.04,5.2-1.01,7.06-2.91,1.92-1.83,2.99-4.36,2.96-7.01.06-2.67-1.01-5.24-2.96-7.08C15.18,1.03,12.63-.03,9.97,0c-2.64-.05-5.19,1.01-7.01,2.94C1.04,4.78-.03,7.33,0,10c-.04,2.65,1.03,5.21,2.96,7.03,1.82,1.91,4.36,2.97,7.01,2.91ZM5.29,5.31c1.23-1.28,2.93-1.99,4.7-1.98,1.78-.03,3.48.69,4.7,1.98,1.27,1.22,1.97,2.91,1.95,4.67.03,1.77-.68,3.47-1.95,4.7-1.24,1.27-2.95,1.98-4.73,1.95-1.76.03-3.46-.68-4.68-1.95-1.26-1.24-1.95-2.94-1.92-4.7-.03-1.76.67-3.44,1.92-4.67h0Z"/>
        <path class="st0" d="M41.7,3.33h6.67c.87-.01,1.71.35,2.31.99.66.59,1.03,1.43,1.03,2.31.03.91-.35,1.78-1.03,2.39-.6.63-1.43.99-2.31.98l-2.99-.03,5.79,9.99h3.81l-4.1-7.16c1.19-.48,2.21-1.32,2.93-2.39.79-1.09,1.2-2.42,1.17-3.77,0-1.75-.7-3.42-1.95-4.64-1.21-1.27-2.89-1.97-4.64-1.95h-8.77l1.68,2.94.39.33h.01Z"/>
        <path class="st0" d="M10.02,12.57c1.44.01,2.62-1.15,2.63-2.59.01-1.44-1.15-2.62-2.59-2.63-.71,0-1.38.28-1.88.78-.5.48-.77,1.15-.75,1.84-.02.69.25,1.35.75,1.82.48.49,1.15.78,1.84.78h0Z"/>
      </g>
    </g>
  </g>
</svg>