<?xml version="1.0" encoding="UTF-8"?>
<svg id="Layer_1" data-name="Layer 1" xmlns="http://www.w3.org/2000/svg" xmlns:xlink="http://www.w3.org/1999/xlink" viewBox="0 0 355 300.65">
  <defs>
    <style>
      .cls-1 {
        fill: url(#linear-gradient-3);
      }

      .cls-2 {
        fill: url(#linear-gradient-2);
      }

      .cls-3 {
        fill: url(#linear-gradient);
      }
    </style>
    <linearGradient id="linear-gradient" x1="36.33" y1="-584.52" x2="24.93" y2="-574.76" gradientTransform="translate(0 -304.56) scale(1 -1)" gradientUnits="userSpaceOnUse">
      <stop offset="0" stop-color="#0083e0"/>
      <stop offset="1" stop-color="#b958db"/>
    </linearGradient>
    <linearGradient id="linear-gradient-2" x1="113.11" y1="156.55" x2="241.92" y2="27.75" gradientUnits="userSpaceOnUse">
      <stop offset=".06" stop-color="#00b2e0"/>
      <stop offset=".11" stop-color="#189de4"/>
      <stop offset=".25" stop-color="#5868ef"/>
      <stop offset=".36" stop-color="#8641f8"/>
      <stop offset=".45" stop-color="#a329fd"/>
      <stop offset=".5" stop-color="#ae21ff"/>
      <stop offset=".57" stop-color="#a920fe"/>
      <stop offset=".64" stop-color="#9b1dfb"/>
      <stop offset=".72" stop-color="#8419f8"/>
      <stop offset=".81" stop-color="#6412f2"/>
      <stop offset=".9" stop-color="#3a0beb"/>
      <stop offset=".99" stop-color="#0801e3"/>
      <stop offset="1" stop-color="#0000e2"/>
    </linearGradient>
    <linearGradient id="linear-gradient-3" x1="159.59" y1="107.3" x2="196.21" y2="76.57" gradientUnits="userSpaceOnUse">
      <stop offset="0" stop-color="#8c58db"/>
      <stop offset=".62" stop-color="#ae21ff"/>
    </linearGradient>
  </defs>
  <g id="Layer_1-2" data-name="Layer 1-2">
    <g id="Layer_2-2" data-name="Layer 2-2">
      <g id="Layer_1-2-2" data-name="Layer 1-2">
        <polygon points="327.1 266.11 334.99 281.84 345.06 281.84 327.1 246.05 300.26 299.74 310.25 299.74 327.1 266.11"/>
        <polygon points="344.01 299.8 354 299.8 349.53 290.85 339.54 290.85 344.01 299.8"/>
        <polygon points="247.35 299.8 220.51 272.96 247.35 246.05 234.69 246.05 207.78 272.96 234.69 299.8 247.35 299.8"/>
        <path d="M27.85,299.74c7.15.1,14.01-2.73,19.01-7.84,5.16-4.92,8.04-11.75,7.96-18.88.16-7.19-2.73-14.12-7.96-19.06-4.97-5.14-11.85-8-19.01-7.91-7.12-.14-13.97,2.73-18.87,7.91-5.18,4.96-8.06,11.83-7.97,19.01-.11,7.15,2.79,14.02,7.97,18.94,4.9,5.15,11.75,7.99,18.87,7.84ZM15.25,260.32c3.3-3.45,7.88-5.37,12.66-5.33,4.78-.08,9.37,1.85,12.66,5.33,3.42,3.29,5.31,7.84,5.24,12.57.08,4.77-1.82,9.35-5.24,12.66-3.34,3.42-7.95,5.33-12.73,5.24-4.74.08-9.31-1.82-12.59-5.24-3.4-3.33-5.26-7.91-5.16-12.66-.07-4.73,1.79-9.27,5.16-12.57Z"/>
        <path d="M113.33,255h17.97c2.35-.03,4.61.94,6.21,2.66,1.77,1.58,2.77,3.84,2.79,6.21.07,2.45-.95,4.8-2.79,6.43-1.62,1.7-3.86,2.66-6.21,2.65l-8.04-.07,15.58,26.91h10.27l-11.03-19.28c3.21-1.3,5.96-3.55,7.89-6.43,2.12-2.95,3.22-6.51,3.14-10.15,0-4.7-1.89-9.21-5.24-12.5-3.26-3.41-7.78-5.31-12.5-5.26h-23.61l4.52,7.91,1.05.9h0Z"/>
        <path class="cls-3" d="M27.98,279.89c3.89.03,7.05-3.1,7.08-6.98.03-3.89-3.1-7.05-6.98-7.08-1.9,0-3.72.75-5.05,2.09-1.34,1.29-2.08,3.1-2.02,4.96-.05,1.85.68,3.63,2.02,4.9,1.3,1.33,3.1,2.09,4.96,2.09h0Z"/>
      </g>
    </g>
  </g>
  <g>
    <path class="cls-2" d="M177.29,183.21c24.27.32,47.57-9.27,64.55-26.62,17.53-16.7,27.32-39.91,27.04-64.14.55-24.41-9.27-47.94-27.04-64.74C224.95,10.28,201.6.54,177.29.86c-24.18-.46-47.43,9.27-64.09,26.85-17.58,16.84-27.36,40.19-27.09,64.55-.37,24.27,9.46,47.62,27.09,64.32,16.66,17.49,39.91,27.13,64.09,26.62ZM134.51,49.36c11.21-11.72,26.76-18.23,43-18.09,16.24-.28,31.84,6.28,43,18.09,11.63,11.17,18.04,26.62,17.81,42.68.28,16.2-6.18,31.75-17.81,43-11.35,11.63-26.99,18.09-43.23,17.81-16.1.28-31.61-6.18-42.77-17.81-11.54-11.3-17.86-26.85-17.53-43-.23-16.06,6.09-31.47,17.53-42.68Z"/>
    <path class="cls-1" d="M177.75,115.8c13.2.09,23.95-10.52,24.04-23.72.09-13.2-10.52-23.95-23.72-24.04-6.46,0-12.64,2.54-17.16,7.11-4.57,4.38-7.06,10.52-6.88,16.84-.18,6.28,2.31,12.32,6.88,16.66,4.43,4.52,10.52,7.11,16.84,7.11v.05Z"/>
  </g>
</svg>