<?xml version="1.0" encoding="UTF-8"?>
<svg id="objects" xmlns="http://www.w3.org/2000/svg" version="1.1" viewBox="0 0 288 300.82">
  <!-- Generator: Adobe Illustrator 30.0.0, SVG Export Plug-In . SVG Version: 2.1.1 Build 123)  -->
  <defs>
    <style>
      .st0, .st1 {
        fill: none;
      }

      .st2 {
        fill: #fff;
      }

      .st3 {
        fill: #f2c316;
        isolation: isolate;
      }

      .st1 {
        stroke: #000;
        stroke-miterlimit: 10;
        stroke-width: 2px;
      }
    </style>
  </defs>
  <g>
    <path class="st3" d="M84.78,55.08c34.97-18.51,64.87-32.35,110.67-31.82,10.62.12,35.11,4.75,48.92,14.66,17.6,12.61,30.29,27.43,36.37,51.27,9.81,38.43,7.8,80.25-.99,118.93-3.7,16.25-9.22,32.34-18.72,46.04-9.5,13.69-23.27,25.74-39.48,29.62-12.37,2.95-22.6,3.22-37.25-4.98-14.66-8.21-25.76-20.49-41.14-25.64-33.79-11.29-70.36,21.47-104.47,11.19-16.72-5.04-29.16-20.08-34.49-36.71-5.34-16.63-3.64-51.57-.48-68.76,4.81-26.11,30.84-73.81,81.07-103.78"/>
    <path class="st1" d="M260.12,207.72v.02c3.73,8.43,7.33,17.72,7.36,26.95.05,13.38-2.24,27.07-12.78,36.38-13.81,14.59-40.64,24.53-72.74,27.12-29.78,2.4-59.33-.36-88.07-8.51-20.37-5.78-45.03-15.24-61.11-28.09-17.11-13.66-28.69-32.59-24.29-52.69,2.78-12.68,14.25-26.79,22.51-36.83,8.24-10.03,15.85-18.95,20.11-31.21,6.2-17.85-3.55-37.79-11.79-54.78-8.77-18.06-8.83-37.31,2.29-51.97,11.1-14.67,30.07-22.74,47.87-27.4,28.57-7.47,59.11-6.15,87.57,1.78,18.11,5.03,32.9,8.74,49.13,22.24,10.29,8.56,21.55,18.87,22.94,48.09.38,8.12-5,25.93-7.98,33.48-4.61,11.69-7.42,25.73-6.23,37.78,2.12,21.42,10.57,24.46,25.2,57.63h0Z"/>
  </g>
  <path class="st0" d="M182.33,84.75c3.49,2.38,7.12,4.94,8.98,8.73,1.31,2.68,1.6,5.72,1.85,8.69.59,6.86,1.11,13.73,1.63,20.6,2.02,26.79,3.17,54.57,5.98,81.29.7,6.64,3.75,15.5-.46,20.67-3.63,4.45-10,5.26-15.73,5.71-25.8,2.05-33.44,2.3-59.26,3.94"/>
  <g>
    <path class="st2" d="M181.18,80.35l-.59-9.36c-.08-1.22.85-2.27,2.07-2.34,1.18-.08,2.27.85,2.34,2.07l.59,9.36c.08,1.22-.85,2.27-2.07,2.35h-.14c-1.16,0-2.13-.9-2.2-2.07h0Z"/>
    <path class="st2" d="M190.94,82.74l6.36-11.23c.6-1.06,1.95-1.44,3.01-.83,1.06.6,1.43,1.95.83,3.01l-6.36,11.23c-.41.72-1.15,1.12-1.92,1.12-.37,0-.74-.09-1.09-.29-1.06-.6-1.43-1.95-.83-3.01Z"/>
    <path class="st2" d="M203.96,218.22c.44,4.66-2.99,8.82-7.65,9.26l-93.01,8.85c-.27.03-.54.04-.81.04-2.05,0-3.98-.74-5.46-1.99l-4.87-3.52-.13-.1c-1.83-1.38-3.07-3.69-3.3-6.15l-11.72-122.43c-.45-4.66,2.98-8.81,7.64-9.26l93.01-8.91c2.24-.21,4.45.46,6.2,1.9,1.17.96,1.17.96.02,0l.07.05,4.78,3.67.46.35h0c1.75,1.44,2.83,3.48,3.04,5.74l11.73,122.49h0Z"/>
    <path class="st2" d="M206.5,90.42h0l-8.29,3.1c-.26.1-.52.14-.77.14-.9,0-1.74-.55-2.07-1.44-.43-1.14.15-2.42,1.3-2.84l8.28-3.1c1.15-.42,2.42.15,2.85,1.29s-.15,2.42-1.29,2.85h-.01Z"/>
    <g>
      <path d="M121.44,202.61c-.2-2.45-1.54-4.32-3.48-4.88-1.48-.43-3.71-.26-6.36,2.52-2.99-1.76-5.41-2.03-7.21-.81-1.68,1.13-2.3,3.35-1.66,5.93.98,3.94,4.75,8.22,10.06,8.8.08,0,.16,0,.24,0,.33,0,.66-.07.96-.22,5.58-2.7,7.77-7.65,7.45-11.35h0ZM130.9,130.78c-.07-1.12-.34-2.23-.79-3.26-.49-1.12-1.79-1.64-2.91-1.14-1.12.49-1.63,1.79-1.14,2.91h.01c.29.67.44,1.41.43,2.15-.02.95.57,1.8,1.46,2.12.24.09.49.13.74.13.62,0,1.24-.25,1.67-.7.55-.58.75-1.45.53-2.21h0ZM137.88,125.48c-.4-.4-.95-.65-1.56-.65-1.22.01-2.21,1-2.19,2.22v2.73c0,.61.25,1.16.65,1.56s.95.64,1.56.64c1.22,0,2.21-1,2.19-2.22v-2.73c0-.61-.25-1.15-.65-1.55h0ZM145.67,134.45h-.02c-.73,0-1.32.61-1.31,1.34.05,3.45-1.76,6.93-4.61,8.88-2.84,1.94-6.75,2.36-9.94,1.06-3.2-1.3-5.7-4.32-6.39-7.7-.15-.72-.85-1.18-1.57-1.04-.72.15-1.19.85-1.04,1.57h.01c.87,4.31,3.93,7.99,7.99,9.64,1.58.64,3.26.95,4.94.95,2.65,0,5.29-.78,7.5-2.29,3.62-2.47,5.83-6.72,5.77-11.1,0-.73-.6-1.31-1.33-1.31h0ZM145.67,134.45h-.02c-.73,0-1.32.61-1.31,1.34.05,3.45-1.76,6.93-4.61,8.88-2.84,1.94-6.75,2.36-9.94,1.06-3.2-1.3-5.7-4.32-6.39-7.7-.15-.72-.85-1.18-1.57-1.04-.72.15-1.19.85-1.04,1.57h.01c.87,4.31,3.93,7.99,7.99,9.64,1.58.64,3.26.95,4.94.95,2.65,0,5.29-.78,7.5-2.29,3.62-2.47,5.83-6.72,5.77-11.1,0-.73-.6-1.31-1.33-1.31h0ZM137.88,125.48c-.4-.4-.95-.65-1.56-.65-1.22.01-2.21,1-2.19,2.22v2.73c0,.61.25,1.16.65,1.56s.95.64,1.56.64c1.22,0,2.21-1,2.19-2.22v-2.73c0-.61-.25-1.15-.65-1.55h0ZM130.9,130.78c-.07-1.12-.34-2.23-.79-3.26-.49-1.12-1.79-1.64-2.91-1.14-1.12.49-1.63,1.79-1.14,2.91h.01c.29.67.44,1.41.43,2.15-.02.95.57,1.8,1.46,2.12.24.09.49.13.74.13.62,0,1.24-.25,1.67-.7.55-.58.75-1.45.53-2.21h0ZM130.9,130.78c-.07-1.12-.34-2.23-.79-3.26-.49-1.12-1.79-1.64-2.91-1.14-1.12.49-1.63,1.79-1.14,2.91h.01c.29.67.44,1.41.43,2.15-.02.95.57,1.8,1.46,2.12.24.09.49.13.74.13.62,0,1.24-.25,1.67-.7.55-.58.75-1.45.53-2.21h0ZM137.88,125.48c-.4-.4-.95-.65-1.56-.65-1.22.01-2.21,1-2.19,2.22v2.73c0,.61.25,1.16.65,1.56s.95.64,1.56.64c1.22,0,2.21-1,2.19-2.22v-2.73c0-.61-.25-1.15-.65-1.55h0ZM145.67,134.45h-.02c-.73,0-1.32.61-1.31,1.34.05,3.45-1.76,6.93-4.61,8.88-2.84,1.94-6.75,2.36-9.94,1.06-3.2-1.3-5.7-4.32-6.39-7.7-.15-.72-.85-1.18-1.57-1.04-.72.15-1.19.85-1.04,1.57h.01c.87,4.31,3.93,7.99,7.99,9.64,1.58.64,3.26.95,4.94.95,2.65,0,5.29-.78,7.5-2.29,3.62-2.47,5.83-6.72,5.77-11.1,0-.73-.6-1.31-1.33-1.31h0ZM145.67,134.45h-.02c-.73,0-1.32.61-1.31,1.34.05,3.45-1.76,6.93-4.61,8.88-2.84,1.94-6.75,2.36-9.94,1.06-3.2-1.3-5.7-4.32-6.39-7.7-.15-.72-.85-1.18-1.57-1.04-.72.15-1.19.85-1.04,1.57h.01c.87,4.31,3.93,7.99,7.99,9.64,1.58.64,3.26.95,4.94.95,2.65,0,5.29-.78,7.5-2.29,3.62-2.47,5.83-6.72,5.77-11.1,0-.73-.6-1.31-1.33-1.31h0ZM137.88,125.48c-.4-.4-.95-.65-1.56-.65-1.22.01-2.21,1-2.19,2.22v2.73c0,.61.25,1.16.65,1.56s.95.64,1.56.64c1.22,0,2.21-1,2.19-2.22v-2.73c0-.61-.25-1.15-.65-1.55h0ZM130.9,130.78c-.07-1.12-.34-2.23-.79-3.26-.49-1.12-1.79-1.64-2.91-1.14-1.12.49-1.63,1.79-1.14,2.91h.01c.29.67.44,1.41.43,2.15-.02.95.57,1.8,1.46,2.12.24.09.49.13.74.13.62,0,1.24-.25,1.67-.7.55-.58.75-1.45.53-2.21h0ZM130.9,130.78c-.07-1.12-.34-2.23-.79-3.26-.49-1.12-1.79-1.64-2.91-1.14-1.12.49-1.63,1.79-1.14,2.91h.01c.29.67.44,1.41.43,2.15-.02.95.57,1.8,1.46,2.12.24.09.49.13.74.13.62,0,1.24-.25,1.67-.7.55-.58.75-1.45.53-2.21h0ZM137.88,125.48c-.4-.4-.95-.65-1.56-.65-1.22.01-2.21,1-2.19,2.22v2.73c0,.61.25,1.16.65,1.56s.95.64,1.56.64c1.22,0,2.21-1,2.19-2.22v-2.73c0-.61-.25-1.15-.65-1.55h0ZM145.67,134.45h-.02c-.73,0-1.32.61-1.31,1.34.05,3.45-1.76,6.93-4.61,8.88-2.84,1.94-6.75,2.36-9.94,1.06-3.2-1.3-5.7-4.32-6.39-7.7-.15-.72-.85-1.18-1.57-1.04-.72.15-1.19.85-1.04,1.57h.01c.87,4.31,3.93,7.99,7.99,9.64,1.58.64,3.26.95,4.94.95,2.65,0,5.29-.78,7.5-2.29,3.62-2.47,5.83-6.72,5.77-11.1,0-.73-.6-1.31-1.33-1.31h0ZM145.67,134.45h-.02c-.73,0-1.32.61-1.31,1.34.05,3.45-1.76,6.93-4.61,8.88-2.84,1.94-6.75,2.36-9.94,1.06-3.2-1.3-5.7-4.32-6.39-7.7-.15-.72-.85-1.18-1.57-1.04-.72.15-1.19.85-1.04,1.57h.01c.87,4.31,3.93,7.99,7.99,9.64,1.58.64,3.26.95,4.94.95,2.65,0,5.29-.78,7.5-2.29,3.62-2.47,5.83-6.72,5.77-11.1,0-.73-.6-1.31-1.33-1.31h0ZM136.34,131.98c1.22,0,2.21-1,2.19-2.22v-2.73c0-.61-.25-1.15-.65-1.55s-.95-.65-1.56-.65c-1.22.01-2.21,1-2.19,2.22v2.73c0,.61.25,1.16.65,1.56s.95.64,1.56.64h0ZM126.07,129.29c.29.67.44,1.41.43,2.15-.02.95.57,1.8,1.46,2.12.24.09.49.13.74.13.62,0,1.24-.25,1.67-.7.55-.58.75-1.45.53-2.21-.07-1.12-.34-2.23-.79-3.26-.49-1.12-1.79-1.64-2.91-1.14-1.12.49-1.63,1.79-1.14,2.91h.01ZM175.3,99.12c-.05-.58-.34-1.12-.79-1.5v.02c-.45-.37-1.02-.55-1.62-.5l-81.09,7.76c-1.21.12-2.11,1.2-1.99,2.41l7.75,81.41c.11,1.14,1.07,2,2.2,2,.07,0,.14,0,.21,0l81.09-7.72c1.22-.12,2.11-1.2,1.99-2.41l-7.75-81.46h0ZM160.07,180.57c0-.21-.02-.42-.11-.62-1.87-3.93-4.32-7.52-7.28-10.67-.5-.54-1.34-.56-1.88-.06-.53.5-.56,1.34-.06,1.87,2.7,2.87,4.94,6.15,6.67,9.72l-35.65,3.39c.18-3.04.67-6.06,1.51-8.99.2-.7-.21-1.44-.91-1.64-.7-.21-1.44.21-1.64.91-.93,3.24-1.46,6.59-1.63,9.97l-6.62.63c.01-.54.04-1.06.06-1.38l.02-.34c.05-1.25.19-2.52.42-3.78.45-2.48,1.25-4.9,2.38-7.18,1.13-2.29,2.56-4.4,4.26-6.27,1.33-1.47,3.32-2.65,5.24-3.79l.75-.45c3.34-2.01,6.96-3.36,10.76-4.04h0c.41-.06.82-.1,1.23-.16.49-.04.96-.11,1.44-.18,2.46-.22,4.89-.16,7.25.21,5.14.8,9.82,3.01,13.53,6.39,4.52,4.12,7.52,9.68,8.47,15.68l-8.21.78h0ZM125.91,116.36c2.5-1.28,5.21-1.91,7.97-1.91,4.01,0,8.12,1.34,11.83,3.96,5.89,4.17,9.19,11.77,8.22,18.92-.8,5.87-4.39,11.18-9.37,13.86-1.72.93-3.66,1.55-5.73,1.9-.59.05-1.18.13-1.77.21-3.29.28-6.83-.1-10.39-1.2-3.66-1.14-6.57-2.76-8.65-4.82-2.32-2.3-3.94-5.45-4.71-9.13-1-4.84-.29-9.92,1.96-13.94,2.36-4.22,5.66-6.73,10.1-7.67h0c.19-.03.38-.1.55-.18h-.01ZM172.66,179.36c0-.06.02-.11,0-.18-1.09-7.02-4.6-13.54-9.88-18.35-3.89-3.55-8.68-5.98-13.93-7.13,5.04-3.59,8.58-9.43,9.45-15.78,1.19-8.74-2.84-18.03-10.04-23.13-7.42-5.26-16.63-6.21-24.1-2.52-5.55,1.25-9.84,4.54-12.76,9.77-2.76,4.94-3.65,11.13-2.43,17,.94,4.53,2.99,8.46,5.93,11.37,2.58,2.56,6.1,4.54,10.44,5.9.28.09.56.15.84.23-.97.47-1.93.99-2.86,1.55l-.74.44c-2.1,1.25-4.48,2.66-6.26,4.63-1.97,2.18-3.64,4.63-4.95,7.29-1.3,2.65-2.23,5.46-2.76,8.34-.27,1.46-.43,2.94-.48,4.41v.27c-.04.46-.08,1.28-.09,2.04l-6.3.6-7.33-77.01,76.69-7.34,7.33,77.05-5.77.55ZM121.83,136.99c-.72.15-1.19.85-1.04,1.57h.01c.87,4.31,3.93,7.99,7.99,9.64,1.58.64,3.26.95,4.94.95,2.65,0,5.29-.78,7.5-2.29,3.62-2.47,5.83-6.72,5.77-11.1,0-.73-.6-1.31-1.33-1.31h-.02c-.73,0-1.32.61-1.31,1.34.05,3.45-1.76,6.93-4.61,8.88-2.84,1.94-6.75,2.36-9.94,1.06-3.2-1.3-5.7-4.32-6.39-7.7-.15-.72-.85-1.18-1.57-1.04h0ZM136.34,131.98c1.22,0,2.21-1,2.19-2.22v-2.73c0-.61-.25-1.15-.65-1.55s-.95-.65-1.56-.65c-1.22.01-2.21,1-2.19,2.22v2.73c0,.61.25,1.16.65,1.56s.95.64,1.56.64h0ZM126.07,129.29c.29.67.44,1.41.43,2.15-.02.95.57,1.8,1.46,2.12.24.09.49.13.74.13.62,0,1.24-.25,1.67-.7.55-.58.75-1.45.53-2.21-.07-1.12-.34-2.23-.79-3.26-.49-1.12-1.79-1.64-2.91-1.14-1.12.49-1.63,1.79-1.14,2.91h.01ZM130.9,130.78c-.07-1.12-.34-2.23-.79-3.26-.49-1.12-1.79-1.64-2.91-1.14-1.12.49-1.63,1.79-1.14,2.91h.01c.29.67.44,1.41.43,2.15-.02.95.57,1.8,1.46,2.12.24.09.49.13.74.13.62,0,1.24-.25,1.67-.7.55-.58.75-1.45.53-2.21h0ZM137.88,125.48c-.4-.4-.95-.65-1.56-.65-1.22.01-2.21,1-2.19,2.22v2.73c0,.61.25,1.16.65,1.56s.95.64,1.56.64c1.22,0,2.21-1,2.19-2.22v-2.73c0-.61-.25-1.15-.65-1.55h0ZM145.67,134.45h-.02c-.73,0-1.32.61-1.31,1.34.05,3.45-1.76,6.93-4.61,8.88-2.84,1.94-6.75,2.36-9.94,1.06-3.2-1.3-5.7-4.32-6.39-7.7-.15-.72-.85-1.18-1.57-1.04-.72.15-1.19.85-1.04,1.57h.01c.87,4.31,3.93,7.99,7.99,9.64,1.58.64,3.26.95,4.94.95,2.65,0,5.29-.78,7.5-2.29,3.62-2.47,5.83-6.72,5.77-11.1,0-.73-.6-1.31-1.33-1.31h0ZM145.67,134.45h-.02c-.73,0-1.32.61-1.31,1.34.05,3.45-1.76,6.93-4.61,8.88-2.84,1.94-6.75,2.36-9.94,1.06-3.2-1.3-5.7-4.32-6.39-7.7-.15-.72-.85-1.18-1.57-1.04-.72.15-1.19.85-1.04,1.57h.01c.87,4.31,3.93,7.99,7.99,9.64,1.58.64,3.26.95,4.94.95,2.65,0,5.29-.78,7.5-2.29,3.62-2.47,5.83-6.72,5.77-11.1,0-.73-.6-1.31-1.33-1.31h0ZM137.88,125.48c-.4-.4-.95-.65-1.56-.65-1.22.01-2.21,1-2.19,2.22v2.73c0,.61.25,1.16.65,1.56s.95.64,1.56.64c1.22,0,2.21-1,2.19-2.22v-2.73c0-.61-.25-1.15-.65-1.55h0ZM130.9,130.78c-.07-1.12-.34-2.23-.79-3.26-.49-1.12-1.79-1.64-2.91-1.14-1.12.49-1.63,1.79-1.14,2.91h.01c.29.67.44,1.41.43,2.15-.02.95.57,1.8,1.46,2.12.24.09.49.13.74.13.62,0,1.24-.25,1.67-.7.55-.58.75-1.45.53-2.21h0ZM130.9,130.78c-.07-1.12-.34-2.23-.79-3.26-.49-1.12-1.79-1.64-2.91-1.14-1.12.49-1.63,1.79-1.14,2.91h.01c.29.67.44,1.41.43,2.15-.02.95.57,1.8,1.46,2.12.24.09.49.13.74.13.62,0,1.24-.25,1.67-.7.55-.58.75-1.45.53-2.21h0ZM137.88,125.48c-.4-.4-.95-.65-1.56-.65-1.22.01-2.21,1-2.19,2.22v2.73c0,.61.25,1.16.65,1.56s.95.64,1.56.64c1.22,0,2.21-1,2.19-2.22v-2.73c0-.61-.25-1.15-.65-1.55h0ZM145.67,134.45h-.02c-.73,0-1.32.61-1.31,1.34.05,3.45-1.76,6.93-4.61,8.88-2.84,1.94-6.75,2.36-9.94,1.06-3.2-1.3-5.7-4.32-6.39-7.7-.15-.72-.85-1.18-1.57-1.04-.72.15-1.19.85-1.04,1.57h.01c.87,4.31,3.93,7.99,7.99,9.64,1.58.64,3.26.95,4.94.95,2.65,0,5.29-.78,7.5-2.29,3.62-2.47,5.83-6.72,5.77-11.1,0-.73-.6-1.31-1.33-1.31h0ZM145.67,134.45h-.02c-.73,0-1.32.61-1.31,1.34.05,3.45-1.76,6.93-4.61,8.88-2.84,1.94-6.75,2.36-9.94,1.06-3.2-1.3-5.7-4.32-6.39-7.7-.15-.72-.85-1.18-1.57-1.04-.72.15-1.19.85-1.04,1.57h.01c.87,4.31,3.93,7.99,7.99,9.64,1.58.64,3.26.95,4.94.95,2.65,0,5.29-.78,7.5-2.29,3.62-2.47,5.83-6.72,5.77-11.1,0-.73-.6-1.31-1.33-1.31h0ZM137.88,125.48c-.4-.4-.95-.65-1.56-.65-1.22.01-2.21,1-2.19,2.22v2.73c0,.61.25,1.16.65,1.56s.95.64,1.56.64c1.22,0,2.21-1,2.19-2.22v-2.73c0-.61-.25-1.15-.65-1.55h0ZM130.9,130.78c-.07-1.12-.34-2.23-.79-3.26-.49-1.12-1.79-1.64-2.91-1.14-1.12.49-1.63,1.79-1.14,2.91h.01c.29.67.44,1.41.43,2.15-.02.95.57,1.8,1.46,2.12.24.09.49.13.74.13.62,0,1.24-.25,1.67-.7.55-.58.75-1.45.53-2.21h0ZM181.72,195.66h0c-6.83.65-17.85,1.74-28.27,2.77-9.4.92-18.32,1.8-23.21,2.27-1.21.12-2.1,1.19-1.99,2.41.11,1.14,1.07,2,2.2,2,.07,0,.14,0,.21,0,4.9-.46,13.82-1.34,23.23-2.27,10.42-1.03,21.43-2.12,28.26-2.77,1.22-.12,2.11-1.19,1.99-2.41s-1.22-2.12-2.41-1.99ZM181.72,195.66h0c-6.83.65-17.85,1.74-28.27,2.77-9.4.92-18.32,1.8-23.21,2.27-1.21.12-2.1,1.19-1.99,2.41.11,1.14,1.07,2,2.2,2,.07,0,.14,0,.21,0,4.9-.46,13.82-1.34,23.23-2.27,10.42-1.03,21.43-2.12,28.26-2.77,1.22-.12,2.11-1.19,1.99-2.41s-1.22-2.12-2.41-1.99ZM130.9,130.78c-.07-1.12-.34-2.23-.79-3.26-.49-1.12-1.79-1.64-2.91-1.14-1.12.49-1.63,1.79-1.14,2.91h.01c.29.67.44,1.41.43,2.15-.02.95.57,1.8,1.46,2.12.24.09.49.13.74.13.62,0,1.24-.25,1.67-.7.55-.58.75-1.45.53-2.21h0ZM137.88,125.48c-.4-.4-.95-.65-1.56-.65-1.22.01-2.21,1-2.19,2.22v2.73c0,.61.25,1.16.65,1.56s.95.64,1.56.64c1.22,0,2.21-1,2.19-2.22v-2.73c0-.61-.25-1.15-.65-1.55h0ZM145.67,134.45h-.02c-.73,0-1.32.61-1.31,1.34.05,3.45-1.76,6.93-4.61,8.88-2.84,1.94-6.75,2.36-9.94,1.06-3.2-1.3-5.7-4.32-6.39-7.7-.15-.72-.85-1.18-1.57-1.04-.72.15-1.19.85-1.04,1.57h.01c.87,4.31,3.93,7.99,7.99,9.64,1.58.64,3.26.95,4.94.95,2.65,0,5.29-.78,7.5-2.29,3.62-2.47,5.83-6.72,5.77-11.1,0-.73-.6-1.31-1.33-1.31h0ZM145.67,134.45h-.02c-.73,0-1.32.61-1.31,1.34.05,3.45-1.76,6.93-4.61,8.88-2.84,1.94-6.75,2.36-9.94,1.06-3.2-1.3-5.7-4.32-6.39-7.7-.15-.72-.85-1.18-1.57-1.04-.72.15-1.19.85-1.04,1.57h.01c.87,4.31,3.93,7.99,7.99,9.64,1.58.64,3.26.95,4.94.95,2.65,0,5.29-.78,7.5-2.29,3.62-2.47,5.83-6.72,5.77-11.1,0-.73-.6-1.31-1.33-1.31h0ZM137.88,125.48c-.4-.4-.95-.65-1.56-.65-1.22.01-2.21,1-2.19,2.22v2.73c0,.61.25,1.16.65,1.56s.95.64,1.56.64c1.22,0,2.21-1,2.19-2.22v-2.73c0-.61-.25-1.15-.65-1.55h0ZM130.9,130.78c-.07-1.12-.34-2.23-.79-3.26-.49-1.12-1.79-1.64-2.91-1.14-1.12.49-1.63,1.79-1.14,2.91h.01c.29.67.44,1.41.43,2.15-.02.95.57,1.8,1.46,2.12.24.09.49.13.74.13.62,0,1.24-.25,1.67-.7.55-.58.75-1.45.53-2.21h0ZM130.9,130.78c-.07-1.12-.34-2.23-.79-3.26-.49-1.12-1.79-1.64-2.91-1.14-1.12.49-1.63,1.79-1.14,2.91h.01c.29.67.44,1.41.43,2.15-.02.95.57,1.8,1.46,2.12.24.09.49.13.74.13.62,0,1.24-.25,1.67-.7.55-.58.75-1.45.53-2.21h0ZM137.88,125.48c-.4-.4-.95-.65-1.56-.65-1.22.01-2.21,1-2.19,2.22v2.73c0,.61.25,1.16.65,1.56s.95.64,1.56.64c1.22,0,2.21-1,2.19-2.22v-2.73c0-.61-.25-1.15-.65-1.55h0ZM145.67,134.45h-.02c-.73,0-1.32.61-1.31,1.34.05,3.45-1.76,6.93-4.61,8.88-2.84,1.94-6.75,2.36-9.94,1.06-3.2-1.3-5.7-4.32-6.39-7.7-.15-.72-.85-1.18-1.57-1.04-.72.15-1.19.85-1.04,1.57h.01c.87,4.31,3.93,7.99,7.99,9.64,1.58.64,3.26.95,4.94.95,2.65,0,5.29-.78,7.5-2.29,3.62-2.47,5.83-6.72,5.77-11.1,0-.73-.6-1.31-1.33-1.31h0ZM145.67,134.45h-.02c-.73,0-1.32.61-1.31,1.34.05,3.45-1.76,6.93-4.61,8.88-2.84,1.94-6.75,2.36-9.94,1.06-3.2-1.3-5.7-4.32-6.39-7.7-.15-.72-.85-1.18-1.57-1.04-.72.15-1.19.85-1.04,1.57h.01c.87,4.31,3.93,7.99,7.99,9.64,1.58.64,3.26.95,4.94.95,2.65,0,5.29-.78,7.5-2.29,3.62-2.47,5.83-6.72,5.77-11.1,0-.73-.6-1.31-1.33-1.31h0ZM136.34,131.98c1.22,0,2.21-1,2.19-2.22v-2.73c0-.61-.25-1.15-.65-1.55s-.95-.65-1.56-.65c-1.22.01-2.21,1-2.19,2.22v2.73c0,.61.25,1.16.65,1.56s.95.64,1.56.64h0ZM126.07,129.29c.29.67.44,1.41.43,2.15-.02.95.57,1.8,1.46,2.12.24.09.49.13.74.13.62,0,1.24-.25,1.67-.7.55-.58.75-1.45.53-2.21-.07-1.12-.34-2.23-.79-3.26-.49-1.12-1.79-1.64-2.91-1.14-1.12.49-1.63,1.79-1.14,2.91h.01ZM175.3,99.12c-.05-.58-.34-1.12-.79-1.5v.02c-.45-.37-1.02-.55-1.62-.5l-81.09,7.76c-1.21.12-2.11,1.2-1.99,2.41l7.75,81.41c.11,1.14,1.07,2,2.2,2,.07,0,.14,0,.21,0l81.09-7.72c1.22-.12,2.11-1.2,1.99-2.41l-7.75-81.46h0ZM160.07,180.57c0-.21-.02-.42-.11-.62-1.87-3.93-4.32-7.52-7.28-10.67-.5-.54-1.34-.56-1.88-.06-.53.5-.56,1.34-.06,1.87,2.7,2.87,4.94,6.15,6.67,9.72l-35.65,3.39c.18-3.04.67-6.06,1.51-8.99.2-.7-.21-1.44-.91-1.64-.7-.21-1.44.21-1.64.91-.93,3.24-1.46,6.59-1.63,9.97l-6.62.63c.01-.54.04-1.06.06-1.38l.02-.34c.05-1.25.19-2.52.42-3.78.45-2.48,1.25-4.9,2.38-7.18,1.13-2.29,2.56-4.4,4.26-6.27,1.33-1.47,3.32-2.65,5.24-3.79l.75-.45c3.34-2.01,6.96-3.36,10.76-4.04h0c.41-.06.82-.1,1.23-.16.49-.04.96-.11,1.44-.18,2.46-.22,4.89-.16,7.25.21,5.14.8,9.82,3.01,13.53,6.39,4.52,4.12,7.52,9.68,8.47,15.68l-8.21.78h0ZM125.91,116.36c2.5-1.28,5.21-1.91,7.97-1.91,4.01,0,8.12,1.34,11.83,3.96,5.89,4.17,9.19,11.77,8.22,18.92-.8,5.87-4.39,11.18-9.37,13.86-1.72.93-3.66,1.55-5.73,1.9-.59.05-1.18.13-1.77.21-3.29.28-6.83-.1-10.39-1.2-3.66-1.14-6.57-2.76-8.65-4.82-2.32-2.3-3.94-5.45-4.71-9.13-1-4.84-.29-9.92,1.96-13.94,2.36-4.22,5.66-6.73,10.1-7.67h0c.19-.03.38-.1.55-.18h-.01ZM172.66,179.36c0-.06.02-.11,0-.18-1.09-7.02-4.6-13.54-9.88-18.35-3.89-3.55-8.68-5.98-13.93-7.13,5.04-3.59,8.58-9.43,9.45-15.78,1.19-8.74-2.84-18.03-10.04-23.13-7.42-5.26-16.63-6.21-24.1-2.52-5.55,1.25-9.84,4.54-12.76,9.77-2.76,4.94-3.65,11.13-2.43,17,.94,4.53,2.99,8.46,5.93,11.37,2.58,2.56,6.1,4.54,10.44,5.9.28.09.56.15.84.23-.97.47-1.93.99-2.86,1.55l-.74.44c-2.1,1.25-4.48,2.66-6.26,4.63-1.97,2.18-3.64,4.63-4.95,7.29-1.3,2.65-2.23,5.46-2.76,8.34-.27,1.46-.43,2.94-.48,4.41v.27c-.04.46-.08,1.28-.09,2.04l-6.3.6-7.33-77.01,76.69-7.34,7.33,77.05-5.77.55ZM121.83,136.99c-.72.15-1.19.85-1.04,1.57h.01c.87,4.31,3.93,7.99,7.99,9.64,1.58.64,3.26.95,4.94.95,2.65,0,5.29-.78,7.5-2.29,3.62-2.47,5.83-6.72,5.77-11.1,0-.73-.6-1.31-1.33-1.31h-.02c-.73,0-1.32.61-1.31,1.34.05,3.45-1.76,6.93-4.61,8.88-2.84,1.94-6.75,2.36-9.94,1.06-3.2-1.3-5.7-4.32-6.39-7.7-.15-.72-.85-1.18-1.57-1.04h0ZM136.34,131.98c1.22,0,2.21-1,2.19-2.22v-2.73c0-.61-.25-1.15-.65-1.55s-.95-.65-1.56-.65c-1.22.01-2.21,1-2.19,2.22v2.73c0,.61.25,1.16.65,1.56s.95.64,1.56.64h0ZM126.07,129.29c.29.67.44,1.41.43,2.15-.02.95.57,1.8,1.46,2.12.24.09.49.13.74.13.62,0,1.24-.25,1.67-.7.55-.58.75-1.45.53-2.21-.07-1.12-.34-2.23-.79-3.26-.49-1.12-1.79-1.64-2.91-1.14-1.12.49-1.63,1.79-1.14,2.91h.01ZM130.9,130.78c-.07-1.12-.34-2.23-.79-3.26-.49-1.12-1.79-1.64-2.91-1.14-1.12.49-1.63,1.79-1.14,2.91h.01c.29.67.44,1.41.43,2.15-.02.95.57,1.8,1.46,2.12.24.09.49.13.74.13.62,0,1.24-.25,1.67-.7.55-.58.75-1.45.53-2.21h0ZM137.88,125.48c-.4-.4-.95-.65-1.56-.65-1.22.01-2.21,1-2.19,2.22v2.73c0,.61.25,1.16.65,1.56s.95.64,1.56.64c1.22,0,2.21-1,2.19-2.22v-2.73c0-.61-.25-1.15-.65-1.55h0ZM145.67,134.45h-.02c-.73,0-1.32.61-1.31,1.34.05,3.45-1.76,6.93-4.61,8.88-2.84,1.94-6.75,2.36-9.94,1.06-3.2-1.3-5.7-4.32-6.39-7.7-.15-.72-.85-1.18-1.57-1.04-.72.15-1.19.85-1.04,1.57h.01c.87,4.31,3.93,7.99,7.99,9.64,1.58.64,3.26.95,4.94.95,2.65,0,5.29-.78,7.5-2.29,3.62-2.47,5.83-6.72,5.77-11.1,0-.73-.6-1.31-1.33-1.31h0ZM145.67,134.45h-.02c-.73,0-1.32.61-1.31,1.34.05,3.45-1.76,6.93-4.61,8.88-2.84,1.94-6.75,2.36-9.94,1.06-3.2-1.3-5.7-4.32-6.39-7.7-.15-.72-.85-1.18-1.57-1.04-.72.15-1.19.85-1.04,1.57h.01c.87,4.31,3.93,7.99,7.99,9.64,1.58.64,3.26.95,4.94.95,2.65,0,5.29-.78,7.5-2.29,3.62-2.47,5.83-6.72,5.77-11.1,0-.73-.6-1.31-1.33-1.31h0ZM137.88,125.48c-.4-.4-.95-.65-1.56-.65-1.22.01-2.21,1-2.19,2.22v2.73c0,.61.25,1.16.65,1.56s.95.64,1.56.64c1.22,0,2.21-1,2.19-2.22v-2.73c0-.61-.25-1.15-.65-1.55h0ZM130.9,130.78c-.07-1.12-.34-2.23-.79-3.26-.49-1.12-1.79-1.64-2.91-1.14-1.12.49-1.63,1.79-1.14,2.91h.01c.29.67.44,1.41.43,2.15-.02.95.57,1.8,1.46,2.12.24.09.49.13.74.13.62,0,1.24-.25,1.67-.7.55-.58.75-1.45.53-2.21h0ZM130.9,130.78c-.07-1.12-.34-2.23-.79-3.26-.49-1.12-1.79-1.64-2.91-1.14-1.12.49-1.63,1.79-1.14,2.91h.01c.29.67.44,1.41.43,2.15-.02.95.57,1.8,1.46,2.12.24.09.49.13.74.13.62,0,1.24-.25,1.67-.7.55-.58.75-1.45.53-2.21h0ZM137.88,125.48c-.4-.4-.95-.65-1.56-.65-1.22.01-2.21,1-2.19,2.22v2.73c0,.61.25,1.16.65,1.56s.95.64,1.56.64c1.22,0,2.21-1,2.19-2.22v-2.73c0-.61-.25-1.15-.65-1.55h0ZM145.67,134.45h-.02c-.73,0-1.32.61-1.31,1.34.05,3.45-1.76,6.93-4.61,8.88-2.84,1.94-6.75,2.36-9.94,1.06-3.2-1.3-5.7-4.32-6.39-7.7-.15-.72-.85-1.18-1.57-1.04-.72.15-1.19.85-1.04,1.57h.01c.87,4.31,3.93,7.99,7.99,9.64,1.58.64,3.26.95,4.94.95,2.65,0,5.29-.78,7.5-2.29,3.62-2.47,5.83-6.72,5.77-11.1,0-.73-.6-1.31-1.33-1.31h0ZM145.67,134.45h-.02c-.73,0-1.32.61-1.31,1.34.05,3.45-1.76,6.93-4.61,8.88-2.84,1.94-6.75,2.36-9.94,1.06-3.2-1.3-5.7-4.32-6.39-7.7-.15-.72-.85-1.18-1.57-1.04-.72.15-1.19.85-1.04,1.57h.01c.87,4.31,3.93,7.99,7.99,9.64,1.58.64,3.26.95,4.94.95,2.65,0,5.29-.78,7.5-2.29,3.62-2.47,5.83-6.72,5.77-11.1,0-.73-.6-1.31-1.33-1.31h0ZM137.88,125.48c-.4-.4-.95-.65-1.56-.65-1.22.01-2.21,1-2.19,2.22v2.73c0,.61.25,1.16.65,1.56s.95.64,1.56.64c1.22,0,2.21-1,2.19-2.22v-2.73c0-.61-.25-1.15-.65-1.55h0ZM130.9,130.78c-.07-1.12-.34-2.23-.79-3.26-.49-1.12-1.79-1.64-2.91-1.14-1.12.49-1.63,1.79-1.14,2.91h.01c.29.67.44,1.41.43,2.15-.02.95.57,1.8,1.46,2.12.24.09.49.13.74.13.62,0,1.24-.25,1.67-.7.55-.58.75-1.45.53-2.21h0ZM121.44,202.61c-.2-2.45-1.54-4.32-3.48-4.88-1.48-.43-3.71-.26-6.36,2.52-2.99-1.76-5.41-2.03-7.21-.81-1.68,1.13-2.3,3.35-1.66,5.93.98,3.94,4.75,8.22,10.06,8.8.08,0,.16,0,.24,0,.33,0,.66-.07.96-.22,5.58-2.7,7.77-7.65,7.45-11.35h0ZM121.44,202.61c-.2-2.45-1.54-4.32-3.48-4.88-1.48-.43-3.71-.26-6.36,2.52-2.99-1.76-5.41-2.03-7.21-.81-1.68,1.13-2.3,3.35-1.66,5.93.98,3.94,4.75,8.22,10.06,8.8.08,0,.16,0,.24,0,.33,0,.66-.07.96-.22,5.58-2.7,7.77-7.65,7.45-11.35h0ZM130.9,130.78c-.07-1.12-.34-2.23-.79-3.26-.49-1.12-1.79-1.64-2.91-1.14-1.12.49-1.63,1.79-1.14,2.91h.01c.29.67.44,1.41.43,2.15-.02.95.57,1.8,1.46,2.12.24.09.49.13.74.13.62,0,1.24-.25,1.67-.7.55-.58.75-1.45.53-2.21h0ZM137.88,125.48c-.4-.4-.95-.65-1.56-.65-1.22.01-2.21,1-2.19,2.22v2.73c0,.61.25,1.16.65,1.56s.95.64,1.56.64c1.22,0,2.21-1,2.19-2.22v-2.73c0-.61-.25-1.15-.65-1.55h0ZM145.67,134.45h-.02c-.73,0-1.32.61-1.31,1.34.05,3.45-1.76,6.93-4.61,8.88-2.84,1.94-6.75,2.36-9.94,1.06-3.2-1.3-5.7-4.32-6.39-7.7-.15-.72-.85-1.18-1.57-1.04-.72.15-1.19.85-1.04,1.57h.01c.87,4.31,3.93,7.99,7.99,9.64,1.58.64,3.26.95,4.94.95,2.65,0,5.29-.78,7.5-2.29,3.62-2.47,5.83-6.72,5.77-11.1,0-.73-.6-1.31-1.33-1.31h0ZM145.67,134.45h-.02c-.73,0-1.32.61-1.31,1.34.05,3.45-1.76,6.93-4.61,8.88-2.84,1.94-6.75,2.36-9.94,1.06-3.2-1.3-5.7-4.32-6.39-7.7-.15-.72-.85-1.18-1.57-1.04-.72.15-1.19.85-1.04,1.57h.01c.87,4.31,3.93,7.99,7.99,9.64,1.58.64,3.26.95,4.94.95,2.65,0,5.29-.78,7.5-2.29,3.62-2.47,5.83-6.72,5.77-11.1,0-.73-.6-1.31-1.33-1.31h0ZM137.88,125.48c-.4-.4-.95-.65-1.56-.65-1.22.01-2.21,1-2.19,2.22v2.73c0,.61.25,1.16.65,1.56s.95.64,1.56.64c1.22,0,2.21-1,2.19-2.22v-2.73c0-.61-.25-1.15-.65-1.55h0ZM130.9,130.78c-.07-1.12-.34-2.23-.79-3.26-.49-1.12-1.79-1.64-2.91-1.14-1.12.49-1.63,1.79-1.14,2.91h.01c.29.67.44,1.41.43,2.15-.02.95.57,1.8,1.46,2.12.24.09.49.13.74.13.62,0,1.24-.25,1.67-.7.55-.58.75-1.45.53-2.21h0ZM130.9,130.78c-.07-1.12-.34-2.23-.79-3.26-.49-1.12-1.79-1.64-2.91-1.14-1.12.49-1.63,1.79-1.14,2.91h.01c.29.67.44,1.41.43,2.15-.02.95.57,1.8,1.46,2.12.24.09.49.13.74.13.62,0,1.24-.25,1.67-.7.55-.58.75-1.45.53-2.21h0ZM137.88,125.48c-.4-.4-.95-.65-1.56-.65-1.22.01-2.21,1-2.19,2.22v2.73c0,.61.25,1.16.65,1.56s.95.64,1.56.64c1.22,0,2.21-1,2.19-2.22v-2.73c0-.61-.25-1.15-.65-1.55h0ZM145.67,134.45h-.02c-.73,0-1.32.61-1.31,1.34.05,3.45-1.76,6.93-4.61,8.88-2.84,1.94-6.75,2.36-9.94,1.06-3.2-1.3-5.7-4.32-6.39-7.7-.15-.72-.85-1.18-1.57-1.04-.72.15-1.19.85-1.04,1.57h.01c.87,4.31,3.93,7.99,7.99,9.64,1.58.64,3.26.95,4.94.95,2.65,0,5.29-.78,7.5-2.29,3.62-2.47,5.83-6.72,5.77-11.1,0-.73-.6-1.31-1.33-1.31h0ZM145.67,134.45h-.02c-.73,0-1.32.61-1.31,1.34.05,3.45-1.76,6.93-4.61,8.88-2.84,1.94-6.75,2.36-9.94,1.06-3.2-1.3-5.7-4.32-6.39-7.7-.15-.72-.85-1.18-1.57-1.04-.72.15-1.19.85-1.04,1.57h.01c.87,4.31,3.93,7.99,7.99,9.64,1.58.64,3.26.95,4.94.95,2.65,0,5.29-.78,7.5-2.29,3.62-2.47,5.83-6.72,5.77-11.1,0-.73-.6-1.31-1.33-1.31h0ZM136.34,131.98c1.22,0,2.21-1,2.19-2.22v-2.73c0-.61-.25-1.15-.65-1.55s-.95-.65-1.56-.65c-1.22.01-2.21,1-2.19,2.22v2.73c0,.61.25,1.16.65,1.56s.95.64,1.56.64h0ZM126.07,129.29c.29.67.44,1.41.43,2.15-.02.95.57,1.8,1.46,2.12.24.09.49.13.74.13.62,0,1.24-.25,1.67-.7.55-.58.75-1.45.53-2.21-.07-1.12-.34-2.23-.79-3.26-.49-1.12-1.79-1.64-2.91-1.14-1.12.49-1.63,1.79-1.14,2.91h.01ZM175.3,99.12c-.05-.58-.34-1.12-.79-1.5v.02c-.45-.37-1.02-.55-1.62-.5l-81.09,7.76c-1.21.12-2.11,1.2-1.99,2.41l7.75,81.41c.11,1.14,1.07,2,2.2,2,.07,0,.14,0,.21,0l81.09-7.72c1.22-.12,2.11-1.2,1.99-2.41l-7.75-81.46h0ZM160.07,180.57c0-.21-.02-.42-.11-.62-1.87-3.93-4.32-7.52-7.28-10.67-.5-.54-1.34-.56-1.88-.06-.53.5-.56,1.34-.06,1.87,2.7,2.87,4.94,6.15,6.67,9.72l-35.65,3.39c.18-3.04.67-6.06,1.51-8.99.2-.7-.21-1.44-.91-1.64-.7-.21-1.44.21-1.64.91-.93,3.24-1.46,6.59-1.63,9.97l-6.62.63c.01-.54.04-1.06.06-1.38l.02-.34c.05-1.25.19-2.52.42-3.78.45-2.48,1.25-4.9,2.38-7.18,1.13-2.29,2.56-4.4,4.26-6.27,1.33-1.47,3.32-2.65,5.24-3.79l.75-.45c3.34-2.01,6.96-3.36,10.76-4.04h0c.41-.06.82-.1,1.23-.16.49-.04.96-.11,1.44-.18,2.46-.22,4.89-.16,7.25.21,5.14.8,9.82,3.01,13.53,6.39,4.52,4.12,7.52,9.68,8.47,15.68l-8.21.78h0ZM125.91,116.36c2.5-1.28,5.21-1.91,7.97-1.91,4.01,0,8.12,1.34,11.83,3.96,5.89,4.17,9.19,11.77,8.22,18.92-.8,5.87-4.39,11.18-9.37,13.86-1.72.93-3.66,1.55-5.73,1.9-.59.05-1.18.13-1.77.21-3.29.28-6.83-.1-10.39-1.2-3.66-1.14-6.57-2.76-8.65-4.82-2.32-2.3-3.94-5.45-4.71-9.13-1-4.84-.29-9.92,1.96-13.94,2.36-4.22,5.66-6.73,10.1-7.67h0c.19-.03.38-.1.55-.18h-.01ZM172.66,179.36c0-.06.02-.11,0-.18-1.09-7.02-4.6-13.54-9.88-18.35-3.89-3.55-8.68-5.98-13.93-7.13,5.04-3.59,8.58-9.43,9.45-15.78,1.19-8.74-2.84-18.03-10.04-23.13-7.42-5.26-16.63-6.21-24.1-2.52-5.55,1.25-9.84,4.54-12.76,9.77-2.76,4.94-3.65,11.13-2.43,17,.94,4.53,2.99,8.46,5.93,11.37,2.58,2.56,6.1,4.54,10.44,5.9.28.09.56.15.84.23-.97.47-1.93.99-2.86,1.55l-.74.44c-2.1,1.25-4.48,2.66-6.26,4.63-1.97,2.18-3.64,4.63-4.95,7.29-1.3,2.65-2.23,5.46-2.76,8.34-.27,1.46-.43,2.94-.48,4.41v.27c-.04.46-.08,1.28-.09,2.04l-6.3.6-7.33-77.01,76.69-7.34,7.33,77.05-5.77.55ZM121.83,136.99c-.72.15-1.19.85-1.04,1.57h.01c.87,4.31,3.93,7.99,7.99,9.64,1.58.64,3.26.95,4.94.95,2.65,0,5.29-.78,7.5-2.29,3.62-2.47,5.83-6.72,5.77-11.1,0-.73-.6-1.31-1.33-1.31h-.02c-.73,0-1.32.61-1.31,1.34.05,3.45-1.76,6.93-4.61,8.88-2.84,1.94-6.75,2.36-9.94,1.06-3.2-1.3-5.7-4.32-6.39-7.7-.15-.72-.85-1.18-1.57-1.04h0ZM136.34,131.98c1.22,0,2.21-1,2.19-2.22v-2.73c0-.61-.25-1.15-.65-1.55s-.95-.65-1.56-.65c-1.22.01-2.21,1-2.19,2.22v2.73c0,.61.25,1.16.65,1.56s.95.64,1.56.64h0ZM126.07,129.29c.29.67.44,1.41.43,2.15-.02.95.57,1.8,1.46,2.12.24.09.49.13.74.13.62,0,1.24-.25,1.67-.7.55-.58.75-1.45.53-2.21-.07-1.12-.34-2.23-.79-3.26-.49-1.12-1.79-1.64-2.91-1.14-1.12.49-1.63,1.79-1.14,2.91h.01ZM130.9,130.78c-.07-1.12-.34-2.23-.79-3.26-.49-1.12-1.79-1.64-2.91-1.14-1.12.49-1.63,1.79-1.14,2.91h.01c.29.67.44,1.41.43,2.15-.02.95.57,1.8,1.46,2.12.24.09.49.13.74.13.62,0,1.24-.25,1.67-.7.55-.58.75-1.45.53-2.21h0ZM137.88,125.48c-.4-.4-.95-.65-1.56-.65-1.22.01-2.21,1-2.19,2.22v2.73c0,.61.25,1.16.65,1.56s.95.64,1.56.64c1.22,0,2.21-1,2.19-2.22v-2.73c0-.61-.25-1.15-.65-1.55h0ZM145.67,134.45h-.02c-.73,0-1.32.61-1.31,1.34.05,3.45-1.76,6.93-4.61,8.88-2.84,1.94-6.75,2.36-9.94,1.06-3.2-1.3-5.7-4.32-6.39-7.7-.15-.72-.85-1.18-1.57-1.04-.72.15-1.19.85-1.04,1.57h.01c.87,4.31,3.93,7.99,7.99,9.64,1.58.64,3.26.95,4.94.95,2.65,0,5.29-.78,7.5-2.29,3.62-2.47,5.83-6.72,5.77-11.1,0-.73-.6-1.31-1.33-1.31h0ZM145.67,134.45h-.02c-.73,0-1.32.61-1.31,1.34.05,3.45-1.76,6.93-4.61,8.88-2.84,1.94-6.75,2.36-9.94,1.06-3.2-1.3-5.7-4.32-6.39-7.7-.15-.72-.85-1.18-1.57-1.04-.72.15-1.19.85-1.04,1.57h.01c.87,4.31,3.93,7.99,7.99,9.64,1.58.64,3.26.95,4.94.95,2.65,0,5.29-.78,7.5-2.29,3.62-2.47,5.83-6.72,5.77-11.1,0-.73-.6-1.31-1.33-1.31h0ZM137.88,125.48c-.4-.4-.95-.65-1.56-.65-1.22.01-2.21,1-2.19,2.22v2.73c0,.61.25,1.16.65,1.56s.95.64,1.56.64c1.22,0,2.21-1,2.19-2.22v-2.73c0-.61-.25-1.15-.65-1.55h0ZM130.9,130.78c-.07-1.12-.34-2.23-.79-3.26-.49-1.12-1.79-1.64-2.91-1.14-1.12.49-1.63,1.79-1.14,2.91h.01c.29.67.44,1.41.43,2.15-.02.95.57,1.8,1.46,2.12.24.09.49.13.74.13.62,0,1.24-.25,1.67-.7.55-.58.75-1.45.53-2.21h0ZM181.72,195.66h0c-6.83.65-17.85,1.74-28.27,2.77-9.4.92-18.32,1.8-23.21,2.27-1.21.12-2.1,1.19-1.99,2.41.11,1.14,1.07,2,2.2,2,.07,0,.14,0,.21,0,4.9-.46,13.82-1.34,23.23-2.27,10.42-1.03,21.43-2.12,28.26-2.77,1.22-.12,2.11-1.19,1.99-2.41s-1.22-2.12-2.41-1.99ZM181.72,195.66h0c-6.83.65-17.85,1.74-28.27,2.77-9.4.92-18.32,1.8-23.21,2.27-1.21.12-2.1,1.19-1.99,2.41.11,1.14,1.07,2,2.2,2,.07,0,.14,0,.21,0,4.9-.46,13.82-1.34,23.23-2.27,10.42-1.03,21.43-2.12,28.26-2.77,1.22-.12,2.11-1.19,1.99-2.41s-1.22-2.12-2.41-1.99ZM130.9,130.78c-.07-1.12-.34-2.23-.79-3.26-.49-1.12-1.79-1.64-2.91-1.14-1.12.49-1.63,1.79-1.14,2.91h.01c.29.67.44,1.41.43,2.15-.02.95.57,1.8,1.46,2.12.24.09.49.13.74.13.62,0,1.24-.25,1.67-.7.55-.58.75-1.45.53-2.21h0ZM137.88,125.48c-.4-.4-.95-.65-1.56-.65-1.22.01-2.21,1-2.19,2.22v2.73c0,.61.25,1.16.65,1.56s.95.64,1.56.64c1.22,0,2.21-1,2.19-2.22v-2.73c0-.61-.25-1.15-.65-1.55h0ZM145.67,134.45h-.02c-.73,0-1.32.61-1.31,1.34.05,3.45-1.76,6.93-4.61,8.88-2.84,1.94-6.75,2.36-9.94,1.06-3.2-1.3-5.7-4.32-6.39-7.7-.15-.72-.85-1.18-1.57-1.04-.72.15-1.19.85-1.04,1.57h.01c.87,4.31,3.93,7.99,7.99,9.64,1.58.64,3.26.95,4.94.95,2.65,0,5.29-.78,7.5-2.29,3.62-2.47,5.83-6.72,5.77-11.1,0-.73-.6-1.31-1.33-1.31h0ZM145.67,134.45h-.02c-.73,0-1.32.61-1.31,1.34.05,3.45-1.76,6.93-4.61,8.88-2.84,1.94-6.75,2.36-9.94,1.06-3.2-1.3-5.7-4.32-6.39-7.7-.15-.72-.85-1.18-1.57-1.04-.72.15-1.19.85-1.04,1.57h.01c.87,4.31,3.93,7.99,7.99,9.64,1.58.64,3.26.95,4.94.95,2.65,0,5.29-.78,7.5-2.29,3.62-2.47,5.83-6.72,5.77-11.1,0-.73-.6-1.31-1.33-1.31h0ZM136.34,131.98c1.22,0,2.21-1,2.19-2.22v-2.73c0-.61-.25-1.15-.65-1.55s-.95-.65-1.56-.65c-1.22.01-2.21,1-2.19,2.22v2.73c0,.61.25,1.16.65,1.56s.95.64,1.56.64h0ZM126.07,129.29c.29.67.44,1.41.43,2.15-.02.95.57,1.8,1.46,2.12.24.09.49.13.74.13.62,0,1.24-.25,1.67-.7.55-.58.75-1.45.53-2.21-.07-1.12-.34-2.23-.79-3.26-.49-1.12-1.79-1.64-2.91-1.14-1.12.49-1.63,1.79-1.14,2.91h.01ZM175.3,99.12c-.05-.58-.34-1.12-.79-1.5v.02c-.45-.37-1.02-.55-1.62-.5l-81.09,7.76c-1.21.12-2.11,1.2-1.99,2.41l7.75,81.41c.11,1.14,1.07,2,2.2,2,.07,0,.14,0,.21,0l81.09-7.72c1.22-.12,2.11-1.2,1.99-2.41l-7.75-81.46h0ZM160.07,180.57c0-.21-.02-.42-.11-.62-1.87-3.93-4.32-7.52-7.28-10.67-.5-.54-1.34-.56-1.88-.06-.53.5-.56,1.34-.06,1.87,2.7,2.87,4.94,6.15,6.67,9.72l-35.65,3.39c.18-3.04.67-6.06,1.51-8.99.2-.7-.21-1.44-.91-1.64-.7-.21-1.44.21-1.64.91-.93,3.24-1.46,6.59-1.63,9.97l-6.62.63c.01-.54.04-1.06.06-1.38l.02-.34c.05-1.25.19-2.52.42-3.78.45-2.48,1.25-4.9,2.38-7.18,1.13-2.29,2.56-4.4,4.26-6.27,1.33-1.47,3.32-2.65,5.24-3.79l.75-.45c3.34-2.01,6.96-3.36,10.76-4.04h0c.41-.06.82-.1,1.23-.16.49-.04.96-.11,1.44-.18,2.46-.22,4.89-.16,7.25.21,5.14.8,9.82,3.01,13.53,6.39,4.52,4.12,7.52,9.68,8.47,15.68l-8.21.78h0ZM125.91,116.36c2.5-1.28,5.21-1.91,7.97-1.91,4.01,0,8.12,1.34,11.83,3.96,5.89,4.17,9.19,11.77,8.22,18.92-.8,5.87-4.39,11.18-9.37,13.86-1.72.93-3.66,1.55-5.73,1.9-.59.05-1.18.13-1.77.21-3.29.28-6.83-.1-10.39-1.2-3.66-1.14-6.57-2.76-8.65-4.82-2.32-2.3-3.94-5.45-4.71-9.13-1-4.84-.29-9.92,1.96-13.94,2.36-4.22,5.66-6.73,10.1-7.67h0c.19-.03.38-.1.55-.18h-.01ZM172.66,179.36c0-.06.02-.11,0-.18-1.09-7.02-4.6-13.54-9.88-18.35-3.89-3.55-8.68-5.98-13.93-7.13,5.04-3.59,8.58-9.43,9.45-15.78,1.19-8.74-2.84-18.03-10.04-23.13-7.42-5.26-16.63-6.21-24.1-2.52-5.55,1.25-9.84,4.54-12.76,9.77-2.76,4.94-3.65,11.13-2.43,17,.94,4.53,2.99,8.46,5.93,11.37,2.58,2.56,6.1,4.54,10.44,5.9.28.09.56.15.84.23-.97.47-1.93.99-2.86,1.55l-.74.44c-2.1,1.25-4.48,2.66-6.26,4.63-1.97,2.18-3.64,4.63-4.95,7.29-1.3,2.65-2.23,5.46-2.76,8.34-.27,1.46-.43,2.94-.48,4.41v.27c-.04.46-.08,1.28-.09,2.04l-6.3.6-7.33-77.01,76.69-7.34,7.33,77.05-5.77.55ZM121.83,136.99c-.72.15-1.19.85-1.04,1.57h.01c.87,4.31,3.93,7.99,7.99,9.64,1.58.64,3.26.95,4.94.95,2.65,0,5.29-.78,7.5-2.29,3.62-2.47,5.83-6.72,5.77-11.1,0-.73-.6-1.31-1.33-1.31h-.02c-.73,0-1.32.61-1.31,1.34.05,3.45-1.76,6.93-4.61,8.88-2.84,1.94-6.75,2.36-9.94,1.06-3.2-1.3-5.7-4.32-6.39-7.7-.15-.72-.85-1.18-1.57-1.04h0ZM136.34,131.98c1.22,0,2.21-1,2.19-2.22v-2.73c0-.61-.25-1.15-.65-1.55s-.95-.65-1.56-.65c-1.22.01-2.21,1-2.19,2.22v2.73c0,.61.25,1.16.65,1.56s.95.64,1.56.64h0ZM126.07,129.29c.29.67.44,1.41.43,2.15-.02.95.57,1.8,1.46,2.12.24.09.49.13.74.13.62,0,1.24-.25,1.67-.7.55-.58.75-1.45.53-2.21-.07-1.12-.34-2.23-.79-3.26-.49-1.12-1.79-1.64-2.91-1.14-1.12.49-1.63,1.79-1.14,2.91h.01ZM130.9,130.78c-.07-1.12-.34-2.23-.79-3.26-.49-1.12-1.79-1.64-2.91-1.14-1.12.49-1.63,1.79-1.14,2.91h.01c.29.67.44,1.41.43,2.15-.02.95.57,1.8,1.46,2.12.24.09.49.13.74.13.62,0,1.24-.25,1.67-.7.55-.58.75-1.45.53-2.21h0ZM137.88,125.48c-.4-.4-.95-.65-1.56-.65-1.22.01-2.21,1-2.19,2.22v2.73c0,.61.25,1.16.65,1.56s.95.64,1.56.64c1.22,0,2.21-1,2.19-2.22v-2.73c0-.61-.25-1.15-.65-1.55h0ZM145.67,134.45h-.02c-.73,0-1.32.61-1.31,1.34.05,3.45-1.76,6.93-4.61,8.88-2.84,1.94-6.75,2.36-9.94,1.06-3.2-1.3-5.7-4.32-6.39-7.7-.15-.72-.85-1.18-1.57-1.04-.72.15-1.19.85-1.04,1.57h.01c.87,4.31,3.93,7.99,7.99,9.64,1.58.64,3.26.95,4.94.95,2.65,0,5.29-.78,7.5-2.29,3.62-2.47,5.83-6.72,5.77-11.1,0-.73-.6-1.31-1.33-1.31h0ZM145.67,134.45h-.02c-.73,0-1.32.61-1.31,1.34.05,3.45-1.76,6.93-4.61,8.88-2.84,1.94-6.75,2.36-9.94,1.06-3.2-1.3-5.7-4.32-6.39-7.7-.15-.72-.85-1.18-1.57-1.04-.72.15-1.19.85-1.04,1.57h.01c.87,4.31,3.93,7.99,7.99,9.64,1.58.64,3.26.95,4.94.95,2.65,0,5.29-.78,7.5-2.29,3.62-2.47,5.83-6.72,5.77-11.1,0-.73-.6-1.31-1.33-1.31h0ZM137.88,125.48c-.4-.4-.95-.65-1.56-.65-1.22.01-2.21,1-2.19,2.22v2.73c0,.61.25,1.16.65,1.56s.95.64,1.56.64c1.22,0,2.21-1,2.19-2.22v-2.73c0-.61-.25-1.15-.65-1.55h0ZM130.9,130.78c-.07-1.12-.34-2.23-.79-3.26-.49-1.12-1.79-1.64-2.91-1.14-1.12.49-1.63,1.79-1.14,2.91h.01c.29.67.44,1.41.43,2.15-.02.95.57,1.8,1.46,2.12.24.09.49.13.74.13.62,0,1.24-.25,1.67-.7.55-.58.75-1.45.53-2.21h0ZM121.44,202.61c-.2-2.45-1.54-4.32-3.48-4.88-1.48-.43-3.71-.26-6.36,2.52-2.99-1.76-5.41-2.03-7.21-.81-1.68,1.13-2.3,3.35-1.66,5.93.98,3.94,4.75,8.22,10.06,8.8.08,0,.16,0,.24,0,.33,0,.66-.07.96-.22,5.58-2.7,7.77-7.65,7.45-11.35h0ZM121.44,202.61c-.2-2.45-1.54-4.32-3.48-4.88-1.48-.43-3.71-.26-6.36,2.52-2.99-1.76-5.41-2.03-7.21-.81-1.68,1.13-2.3,3.35-1.66,5.93.98,3.94,4.75,8.22,10.06,8.8.08,0,.16,0,.24,0,.33,0,.66-.07.96-.22,5.58-2.7,7.77-7.65,7.45-11.35h0ZM130.9,130.78c-.07-1.12-.34-2.23-.79-3.26-.49-1.12-1.79-1.64-2.91-1.14-1.12.49-1.63,1.79-1.14,2.91h.01c.29.67.44,1.41.43,2.15-.02.95.57,1.8,1.46,2.12.24.09.49.13.74.13.62,0,1.24-.25,1.67-.7.55-.58.75-1.45.53-2.21h0ZM137.88,125.48c-.4-.4-.95-.65-1.56-.65-1.22.01-2.21,1-2.19,2.22v2.73c0,.61.25,1.16.65,1.56s.95.64,1.56.64c1.22,0,2.21-1,2.19-2.22v-2.73c0-.61-.25-1.15-.65-1.55h0ZM145.67,134.45h-.02c-.73,0-1.32.61-1.31,1.34.05,3.45-1.76,6.93-4.61,8.88-2.84,1.94-6.75,2.36-9.94,1.06-3.2-1.3-5.7-4.32-6.39-7.7-.15-.72-.85-1.18-1.57-1.04-.72.15-1.19.85-1.04,1.57h.01c.87,4.31,3.93,7.99,7.99,9.64,1.58.64,3.26.95,4.94.95,2.65,0,5.29-.78,7.5-2.29,3.62-2.47,5.83-6.72,5.77-11.1,0-.73-.6-1.31-1.33-1.31h0ZM145.67,134.45h-.02c-.73,0-1.32.61-1.31,1.34.05,3.45-1.76,6.93-4.61,8.88-2.84,1.94-6.75,2.36-9.94,1.06-3.2-1.3-5.7-4.32-6.39-7.7-.15-.72-.85-1.18-1.57-1.04-.72.15-1.19.85-1.04,1.57h.01c.87,4.31,3.93,7.99,7.99,9.64,1.58.64,3.26.95,4.94.95,2.65,0,5.29-.78,7.5-2.29,3.62-2.47,5.83-6.72,5.77-11.1,0-.73-.6-1.31-1.33-1.31h0ZM136.34,131.98c1.22,0,2.21-1,2.19-2.22v-2.73c0-.61-.25-1.15-.65-1.55s-.95-.65-1.56-.65c-1.22.01-2.21,1-2.19,2.22v2.73c0,.61.25,1.16.65,1.56s.95.64,1.56.64h0ZM126.07,129.29c.29.67.44,1.41.43,2.15-.02.95.57,1.8,1.46,2.12.24.09.49.13.74.13.62,0,1.24-.25,1.67-.7.55-.58.75-1.45.53-2.21-.07-1.12-.34-2.23-.79-3.26-.49-1.12-1.79-1.64-2.91-1.14-1.12.49-1.63,1.79-1.14,2.91h.01ZM175.3,99.12c-.05-.58-.34-1.12-.79-1.5v.02c-.45-.37-1.02-.55-1.62-.5l-81.09,7.76c-1.21.12-2.11,1.2-1.99,2.41l7.75,81.41c.11,1.14,1.07,2,2.2,2,.07,0,.14,0,.21,0l81.09-7.72c1.22-.12,2.11-1.2,1.99-2.41l-7.75-81.46h0ZM160.07,180.57c0-.21-.02-.42-.11-.62-1.87-3.93-4.32-7.52-7.28-10.67-.5-.54-1.34-.56-1.88-.06-.53.5-.56,1.34-.06,1.87,2.7,2.87,4.94,6.15,6.67,9.72l-35.65,3.39c.18-3.04.67-6.06,1.51-8.99.2-.7-.21-1.44-.91-1.64-.7-.21-1.44.21-1.64.91-.93,3.24-1.46,6.59-1.63,9.97l-6.62.63c.01-.54.04-1.06.06-1.38l.02-.34c.05-1.25.19-2.52.42-3.78.45-2.48,1.25-4.9,2.38-7.18,1.13-2.29,2.56-4.4,4.26-6.27,1.33-1.47,3.32-2.65,5.24-3.79l.75-.45c3.34-2.01,6.96-3.36,10.76-4.04h0c.41-.06.82-.1,1.23-.16.49-.04.96-.11,1.44-.18,2.46-.22,4.89-.16,7.25.21,5.14.8,9.82,3.01,13.53,6.39,4.52,4.12,7.52,9.68,8.47,15.68l-8.21.78h0ZM125.91,116.36c2.5-1.28,5.21-1.91,7.97-1.91,4.01,0,8.12,1.34,11.83,3.96,5.89,4.17,9.19,11.77,8.22,18.92-.8,5.87-4.39,11.18-9.37,13.86-1.72.93-3.66,1.55-5.73,1.9-.59.05-1.18.13-1.77.21-3.29.28-6.83-.1-10.39-1.2-3.66-1.14-6.57-2.76-8.65-4.82-2.32-2.3-3.94-5.45-4.71-9.13-1-4.84-.29-9.92,1.96-13.94,2.36-4.22,5.66-6.73,10.1-7.67h0c.19-.03.38-.1.55-.18h-.01ZM172.66,179.36c0-.06.02-.11,0-.18-1.09-7.02-4.6-13.54-9.88-18.35-3.89-3.55-8.68-5.98-13.93-7.13,5.04-3.59,8.58-9.43,9.45-15.78,1.19-8.74-2.84-18.03-10.04-23.13-7.42-5.26-16.63-6.21-24.1-2.52-5.55,1.25-9.84,4.54-12.76,9.77-2.76,4.94-3.65,11.13-2.43,17,.94,4.53,2.99,8.46,5.93,11.37,2.58,2.56,6.1,4.54,10.44,5.9.28.09.56.15.84.23-.97.47-1.93.99-2.86,1.55l-.74.44c-2.1,1.25-4.48,2.66-6.26,4.63-1.97,2.18-3.64,4.63-4.95,7.29-1.3,2.65-2.23,5.46-2.76,8.34-.27,1.46-.43,2.94-.48,4.41v.27c-.04.46-.08,1.28-.09,2.04l-6.3.6-7.33-77.01,76.69-7.34,7.33,77.05-5.77.55ZM121.83,136.99c-.72.15-1.19.85-1.04,1.57h.01c.87,4.31,3.93,7.99,7.99,9.64,1.58.64,3.26.95,4.94.95,2.65,0,5.29-.78,7.5-2.29,3.62-2.47,5.83-6.72,5.77-11.1,0-.73-.6-1.31-1.33-1.31h-.02c-.73,0-1.32.61-1.31,1.34.05,3.45-1.76,6.93-4.61,8.88-2.84,1.94-6.75,2.36-9.94,1.06-3.2-1.3-5.7-4.32-6.39-7.7-.15-.72-.85-1.18-1.57-1.04h0ZM136.34,131.98c1.22,0,2.21-1,2.19-2.22v-2.73c0-.61-.25-1.15-.65-1.55s-.95-.65-1.56-.65c-1.22.01-2.21,1-2.19,2.22v2.73c0,.61.25,1.16.65,1.56s.95.64,1.56.64h0ZM126.07,129.29c.29.67.44,1.41.43,2.15-.02.95.57,1.8,1.46,2.12.24.09.49.13.74.13.62,0,1.24-.25,1.67-.7.55-.58.75-1.45.53-2.21-.07-1.12-.34-2.23-.79-3.26-.49-1.12-1.79-1.64-2.91-1.14-1.12.49-1.63,1.79-1.14,2.91h.01ZM183.88,85.92h-.02l.07.06-.05-.05h0ZM181.72,195.66h0c-6.83.65-17.85,1.74-28.27,2.77-9.4.92-18.32,1.8-23.21,2.27-1.21.12-2.1,1.19-1.99,2.41.11,1.14,1.07,2,2.2,2,.07,0,.14,0,.21,0,4.9-.46,13.82-1.34,23.23-2.27,10.42-1.03,21.43-2.12,28.26-2.77,1.22-.12,2.11-1.19,1.99-2.41s-1.22-2.12-2.41-1.99ZM121.44,202.61c-.2-2.45-1.54-4.32-3.48-4.88-1.48-.43-3.71-.26-6.36,2.52-2.99-1.76-5.41-2.03-7.21-.81-1.68,1.13-2.3,3.35-1.66,5.93.98,3.94,4.75,8.22,10.06,8.8.08,0,.16,0,.24,0,.33,0,.66-.07.96-.22,5.58-2.7,7.77-7.65,7.45-11.35h0ZM130.9,130.78c-.07-1.12-.34-2.23-.79-3.26-.49-1.12-1.79-1.64-2.91-1.14-1.12.49-1.63,1.79-1.14,2.91h.01c.29.67.44,1.41.43,2.15-.02.95.57,1.8,1.46,2.12.24.09.49.13.74.13.62,0,1.24-.25,1.67-.7.55-.58.75-1.45.53-2.21h0ZM137.88,125.48c-.4-.4-.95-.65-1.56-.65-1.22.01-2.21,1-2.19,2.22v2.73c0,.61.25,1.16.65,1.56s.95.64,1.56.64c1.22,0,2.21-1,2.19-2.22v-2.73c0-.61-.25-1.15-.65-1.55h0ZM145.67,134.45h-.02c-.73,0-1.32.61-1.31,1.34.05,3.45-1.76,6.93-4.61,8.88-2.84,1.94-6.75,2.36-9.94,1.06-3.2-1.3-5.7-4.32-6.39-7.7-.15-.72-.85-1.18-1.57-1.04-.72.15-1.19.85-1.04,1.57h.01c.87,4.31,3.93,7.99,7.99,9.64,1.58.64,3.26.95,4.94.95,2.65,0,5.29-.78,7.5-2.29,3.62-2.47,5.83-6.72,5.77-11.1,0-.73-.6-1.31-1.33-1.31h0ZM145.67,134.45h-.02c-.73,0-1.32.61-1.31,1.34.05,3.45-1.76,6.93-4.61,8.88-2.84,1.94-6.75,2.36-9.94,1.06-3.2-1.3-5.7-4.32-6.39-7.7-.15-.72-.85-1.18-1.57-1.04-.72.15-1.19.85-1.04,1.57h.01c.87,4.31,3.93,7.99,7.99,9.64,1.58.64,3.26.95,4.94.95,2.65,0,5.29-.78,7.5-2.29,3.62-2.47,5.83-6.72,5.77-11.1,0-.73-.6-1.31-1.33-1.31h0ZM136.34,131.98c1.22,0,2.21-1,2.19-2.22v-2.73c0-.61-.25-1.15-.65-1.55s-.95-.65-1.56-.65c-1.22.01-2.21,1-2.19,2.22v2.73c0,.61.25,1.16.65,1.56s.95.64,1.56.64h0ZM126.07,129.29c.29.67.44,1.41.43,2.15-.02.95.57,1.8,1.46,2.12.24.09.49.13.74.13.62,0,1.24-.25,1.67-.7.55-.58.75-1.45.53-2.21-.07-1.12-.34-2.23-.79-3.26-.49-1.12-1.79-1.64-2.91-1.14-1.12.49-1.63,1.79-1.14,2.91h.01ZM175.3,99.12c-.05-.58-.34-1.12-.79-1.5v.02c-.45-.37-1.02-.55-1.62-.5l-81.09,7.76c-1.21.12-2.11,1.2-1.99,2.41l7.75,81.41c.11,1.14,1.07,2,2.2,2,.07,0,.14,0,.21,0l81.09-7.72c1.22-.12,2.11-1.2,1.99-2.41l-7.75-81.46h0ZM160.07,180.57c0-.21-.02-.42-.11-.62-1.87-3.93-4.32-7.52-7.28-10.67-.5-.54-1.34-.56-1.88-.06-.53.5-.56,1.34-.06,1.87,2.7,2.87,4.94,6.15,6.67,9.72l-35.65,3.39c.18-3.04.67-6.06,1.51-8.99.2-.7-.21-1.44-.91-1.64-.7-.21-1.44.21-1.64.91-.93,3.24-1.46,6.59-1.63,9.97l-6.62.63c.01-.54.04-1.06.06-1.38l.02-.34c.05-1.25.19-2.52.42-3.78.45-2.48,1.25-4.9,2.38-7.18,1.13-2.29,2.56-4.4,4.26-6.27,1.33-1.47,3.32-2.65,5.24-3.79l.75-.45c3.34-2.01,6.96-3.36,10.76-4.04h0c.41-.06.82-.1,1.23-.16.49-.04.96-.11,1.44-.18,2.46-.22,4.89-.16,7.25.21,5.14.8,9.82,3.01,13.53,6.39,4.52,4.12,7.52,9.68,8.47,15.68l-8.21.78h0ZM125.91,116.36c2.5-1.28,5.21-1.91,7.97-1.91,4.01,0,8.12,1.34,11.83,3.96,5.89,4.17,9.19,11.77,8.22,18.92-.8,5.87-4.39,11.18-9.37,13.86-1.72.93-3.66,1.55-5.73,1.9-.59.05-1.18.13-1.77.21-3.29.28-6.83-.1-10.39-1.2-3.66-1.14-6.57-2.76-8.65-4.82-2.32-2.3-3.94-5.45-4.71-9.13-1-4.84-.29-9.92,1.96-13.94,2.36-4.22,5.66-6.73,10.1-7.67h0c.19-.03.38-.1.55-.18h-.01ZM172.66,179.36c0-.06.02-.11,0-.18-1.09-7.02-4.6-13.54-9.88-18.35-3.89-3.55-8.68-5.98-13.93-7.13,5.04-3.59,8.58-9.43,9.45-15.78,1.19-8.74-2.84-18.03-10.04-23.13-7.42-5.26-16.63-6.21-24.1-2.52-5.55,1.25-9.84,4.54-12.76,9.77-2.76,4.94-3.65,11.13-2.43,17,.94,4.53,2.99,8.46,5.93,11.37,2.58,2.56,6.1,4.54,10.44,5.9.28.09.56.15.84.23-.97.47-1.93.99-2.86,1.55l-.74.44c-2.1,1.25-4.48,2.66-6.26,4.63-1.97,2.18-3.64,4.63-4.95,7.29-1.3,2.65-2.23,5.46-2.76,8.34-.27,1.46-.43,2.94-.48,4.41v.27c-.04.46-.08,1.28-.09,2.04l-6.3.6-7.33-77.01,76.69-7.34,7.33,77.05-5.77.55ZM121.83,136.99c-.72.15-1.19.85-1.04,1.57h.01c.87,4.31,3.93,7.99,7.99,9.64,1.58.64,3.26.95,4.94.95,2.65,0,5.29-.78,7.5-2.29,3.62-2.47,5.83-6.72,5.77-11.1,0-.73-.6-1.31-1.33-1.31h-.02c-.73,0-1.32.61-1.31,1.34.05,3.45-1.76,6.93-4.61,8.88-2.84,1.94-6.75,2.36-9.94,1.06-3.2-1.3-5.7-4.32-6.39-7.7-.15-.72-.85-1.18-1.57-1.04h0ZM136.34,131.98c1.22,0,2.21-1,2.19-2.22v-2.73c0-.61-.25-1.15-.65-1.55s-.95-.65-1.56-.65c-1.22.01-2.21,1-2.19,2.22v2.73c0,.61.25,1.16.65,1.56s.95.64,1.56.64h0ZM126.07,129.29c.29.67.44,1.41.43,2.15-.02.95.57,1.8,1.46,2.12.24.09.49.13.74.13.62,0,1.24-.25,1.67-.7.55-.58.75-1.45.53-2.21-.07-1.12-.34-2.23-.79-3.26-.49-1.12-1.79-1.64-2.91-1.14-1.12.49-1.63,1.79-1.14,2.91h.01ZM181.72,195.66h0c-6.83.65-17.85,1.74-28.27,2.77-9.4.92-18.32,1.8-23.21,2.27-1.21.12-2.1,1.19-1.99,2.41.11,1.14,1.07,2,2.2,2,.07,0,.14,0,.21,0,4.9-.46,13.82-1.34,23.23-2.27,10.42-1.03,21.43-2.12,28.26-2.77,1.22-.12,2.11-1.19,1.99-2.41s-1.22-2.12-2.41-1.99ZM181.72,195.66h0c-6.83.65-17.85,1.74-28.27,2.77-9.4.92-18.32,1.8-23.21,2.27-1.21.12-2.1,1.19-1.99,2.41.11,1.14,1.07,2,2.2,2,.07,0,.14,0,.21,0,4.9-.46,13.82-1.34,23.23-2.27,10.42-1.03,21.43-2.12,28.26-2.77,1.22-.12,2.11-1.19,1.99-2.41s-1.22-2.12-2.41-1.99ZM130.9,130.78c-.07-1.12-.34-2.23-.79-3.26-.49-1.12-1.79-1.64-2.91-1.14-1.12.49-1.63,1.79-1.14,2.91h.01c.29.67.44,1.41.43,2.15-.02.95.57,1.8,1.46,2.12.24.09.49.13.74.13.62,0,1.24-.25,1.67-.7.55-.58.75-1.45.53-2.21h0ZM137.88,125.48c-.4-.4-.95-.65-1.56-.65-1.22.01-2.21,1-2.19,2.22v2.73c0,.61.25,1.16.65,1.56s.95.64,1.56.64c1.22,0,2.21-1,2.19-2.22v-2.73c0-.61-.25-1.15-.65-1.55h0ZM145.67,134.45h-.02c-.73,0-1.32.61-1.31,1.34.05,3.45-1.76,6.93-4.61,8.88-2.84,1.94-6.75,2.36-9.94,1.06-3.2-1.3-5.7-4.32-6.39-7.7-.15-.72-.85-1.18-1.57-1.04-.72.15-1.19.85-1.04,1.57h.01c.87,4.31,3.93,7.99,7.99,9.64,1.58.64,3.26.95,4.94.95,2.65,0,5.29-.78,7.5-2.29,3.62-2.47,5.83-6.72,5.77-11.1,0-.73-.6-1.31-1.33-1.31h0ZM145.67,134.45h-.02c-.73,0-1.32.61-1.31,1.34.05,3.45-1.76,6.93-4.61,8.88-2.84,1.94-6.75,2.36-9.94,1.06-3.2-1.3-5.7-4.32-6.39-7.7-.15-.72-.85-1.18-1.57-1.04-.72.15-1.19.85-1.04,1.57h.01c.87,4.31,3.93,7.99,7.99,9.64,1.58.64,3.26.95,4.94.95,2.65,0,5.29-.78,7.5-2.29,3.62-2.47,5.83-6.72,5.77-11.1,0-.73-.6-1.31-1.33-1.31h0ZM136.34,131.98c1.22,0,2.21-1,2.19-2.22v-2.73c0-.61-.25-1.15-.65-1.55s-.95-.65-1.56-.65c-1.22.01-2.21,1-2.19,2.22v2.73c0,.61.25,1.16.65,1.56s.95.64,1.56.64h0ZM126.07,129.29c.29.67.44,1.41.43,2.15-.02.95.57,1.8,1.46,2.12.24.09.49.13.74.13.62,0,1.24-.25,1.67-.7.55-.58.75-1.45.53-2.21-.07-1.12-.34-2.23-.79-3.26-.49-1.12-1.79-1.64-2.91-1.14-1.12.49-1.63,1.79-1.14,2.91h.01ZM175.3,99.12c-.05-.58-.34-1.12-.79-1.5v.02c-.45-.37-1.02-.55-1.62-.5l-81.09,7.76c-1.21.12-2.11,1.2-1.99,2.41l7.75,81.41c.11,1.14,1.07,2,2.2,2,.07,0,.14,0,.21,0l81.09-7.72c1.22-.12,2.11-1.2,1.99-2.41l-7.75-81.46h0ZM160.07,180.57c0-.21-.02-.42-.11-.62-1.87-3.93-4.32-7.52-7.28-10.67-.5-.54-1.34-.56-1.88-.06-.53.5-.56,1.34-.06,1.87,2.7,2.87,4.94,6.15,6.67,9.72l-35.65,3.39c.18-3.04.67-6.06,1.51-8.99.2-.7-.21-1.44-.91-1.64-.7-.21-1.44.21-1.64.91-.93,3.24-1.46,6.59-1.63,9.97l-6.62.63c.01-.54.04-1.06.06-1.38l.02-.34c.05-1.25.19-2.52.42-3.78.45-2.48,1.25-4.9,2.38-7.18,1.13-2.29,2.56-4.4,4.26-6.27,1.33-1.47,3.32-2.65,5.24-3.79l.75-.45c3.34-2.01,6.96-3.36,10.76-4.04h0c.41-.06.82-.1,1.23-.16.49-.04.96-.11,1.44-.18,2.46-.22,4.89-.16,7.25.21,5.14.8,9.82,3.01,13.53,6.39,4.52,4.12,7.52,9.68,8.47,15.68l-8.21.78h0ZM125.91,116.36c2.5-1.28,5.21-1.91,7.97-1.91,4.01,0,8.12,1.34,11.83,3.96,5.89,4.17,9.19,11.77,8.22,18.92-.8,5.87-4.39,11.18-9.37,13.86-1.72.93-3.66,1.55-5.73,1.9-.59.05-1.18.13-1.77.21-3.29.28-6.83-.1-10.39-1.2-3.66-1.14-6.57-2.76-8.65-4.82-2.32-2.3-3.94-5.45-4.71-9.13-1-4.84-.29-9.92,1.96-13.94,2.36-4.22,5.66-6.73,10.1-7.67h0c.19-.03.38-.1.55-.18h-.01ZM172.66,179.36c0-.06.02-.11,0-.18-1.09-7.02-4.6-13.54-9.88-18.35-3.89-3.55-8.68-5.98-13.93-7.13,5.04-3.59,8.58-9.43,9.45-15.78,1.19-8.74-2.84-18.03-10.04-23.13-7.42-5.26-16.63-6.21-24.1-2.52-5.55,1.25-9.84,4.54-12.76,9.77-2.76,4.94-3.65,11.13-2.43,17,.94,4.53,2.99,8.46,5.93,11.37,2.58,2.56,6.1,4.54,10.44,5.9.28.09.56.15.84.23-.97.47-1.93.99-2.86,1.55l-.74.44c-2.1,1.25-4.48,2.66-6.26,4.63-1.97,2.18-3.64,4.63-4.95,7.29-1.3,2.65-2.23,5.46-2.76,8.34-.27,1.46-.43,2.94-.48,4.41v.27c-.04.46-.08,1.28-.09,2.04l-6.3.6-7.33-77.01,76.69-7.34,7.33,77.05-5.77.55ZM121.83,136.99c-.72.15-1.19.85-1.04,1.57h.01c.87,4.31,3.93,7.99,7.99,9.64,1.58.64,3.26.95,4.94.95,2.65,0,5.29-.78,7.5-2.29,3.62-2.47,5.83-6.72,5.77-11.1,0-.73-.6-1.31-1.33-1.31h-.02c-.73,0-1.32.61-1.31,1.34.05,3.45-1.76,6.93-4.61,8.88-2.84,1.94-6.75,2.36-9.94,1.06-3.2-1.3-5.7-4.32-6.39-7.7-.15-.72-.85-1.18-1.57-1.04h0ZM136.34,131.98c1.22,0,2.21-1,2.19-2.22v-2.73c0-.61-.25-1.15-.65-1.55s-.95-.65-1.56-.65c-1.22.01-2.21,1-2.19,2.22v2.73c0,.61.25,1.16.65,1.56s.95.64,1.56.64h0ZM126.07,129.29c.29.67.44,1.41.43,2.15-.02.95.57,1.8,1.46,2.12.24.09.49.13.74.13.62,0,1.24-.25,1.67-.7.55-.58.75-1.45.53-2.21-.07-1.12-.34-2.23-.79-3.26-.49-1.12-1.79-1.64-2.91-1.14-1.12.49-1.63,1.79-1.14,2.91h.01ZM130.9,130.78c-.07-1.12-.34-2.23-.79-3.26-.49-1.12-1.79-1.64-2.91-1.14-1.12.49-1.63,1.79-1.14,2.91h.01c.29.67.44,1.41.43,2.15-.02.95.57,1.8,1.46,2.12.24.09.49.13.74.13.62,0,1.24-.25,1.67-.7.55-.58.75-1.45.53-2.21h0ZM137.88,125.48c-.4-.4-.95-.65-1.56-.65-1.22.01-2.21,1-2.19,2.22v2.73c0,.61.25,1.16.65,1.56s.95.64,1.56.64c1.22,0,2.21-1,2.19-2.22v-2.73c0-.61-.25-1.15-.65-1.55h0ZM145.67,134.45h-.02c-.73,0-1.32.61-1.31,1.34.05,3.45-1.76,6.93-4.61,8.88-2.84,1.94-6.75,2.36-9.94,1.06-3.2-1.3-5.7-4.32-6.39-7.7-.15-.72-.85-1.18-1.57-1.04-.72.15-1.19.85-1.04,1.57h.01c.87,4.31,3.93,7.99,7.99,9.64,1.58.64,3.26.95,4.94.95,2.65,0,5.29-.78,7.5-2.29,3.62-2.47,5.83-6.72,5.77-11.1,0-.73-.6-1.31-1.33-1.31h0ZM145.67,134.45h-.02c-.73,0-1.32.61-1.31,1.34.05,3.45-1.76,6.93-4.61,8.88-2.84,1.94-6.75,2.36-9.94,1.06-3.2-1.3-5.7-4.32-6.39-7.7-.15-.72-.85-1.18-1.57-1.04-.72.15-1.19.85-1.04,1.57h.01c.87,4.31,3.93,7.99,7.99,9.64,1.58.64,3.26.95,4.94.95,2.65,0,5.29-.78,7.5-2.29,3.62-2.47,5.83-6.72,5.77-11.1,0-.73-.6-1.31-1.33-1.31h0ZM137.88,125.48c-.4-.4-.95-.65-1.56-.65-1.22.01-2.21,1-2.19,2.22v2.73c0,.61.25,1.16.65,1.56s.95.64,1.56.64c1.22,0,2.21-1,2.19-2.22v-2.73c0-.61-.25-1.15-.65-1.55h0ZM130.9,130.78c-.07-1.12-.34-2.23-.79-3.26-.49-1.12-1.79-1.64-2.91-1.14-1.12.49-1.63,1.79-1.14,2.91h.01c.29.67.44,1.41.43,2.15-.02.95.57,1.8,1.46,2.12.24.09.49.13.74.13.62,0,1.24-.25,1.67-.7.55-.58.75-1.45.53-2.21h0ZM121.44,202.61c-.2-2.45-1.54-4.32-3.48-4.88-1.48-.43-3.71-.26-6.36,2.52-2.99-1.76-5.41-2.03-7.21-.81-1.68,1.13-2.3,3.35-1.66,5.93.98,3.94,4.75,8.22,10.06,8.8.08,0,.16,0,.24,0,.33,0,.66-.07.96-.22,5.58-2.7,7.77-7.65,7.45-11.35h0ZM121.44,202.61c-.2-2.45-1.54-4.32-3.48-4.88-1.48-.43-3.71-.26-6.36,2.52-2.99-1.76-5.41-2.03-7.21-.81-1.68,1.13-2.3,3.35-1.66,5.93.98,3.94,4.75,8.22,10.06,8.8.08,0,.16,0,.24,0,.33,0,.66-.07.96-.22,5.58-2.7,7.77-7.65,7.45-11.35h0ZM130.9,130.78c-.07-1.12-.34-2.23-.79-3.26-.49-1.12-1.79-1.64-2.91-1.14-1.12.49-1.63,1.79-1.14,2.91h.01c.29.67.44,1.41.43,2.15-.02.95.57,1.8,1.46,2.12.24.09.49.13.74.13.62,0,1.24-.25,1.67-.7.55-.58.75-1.45.53-2.21h0ZM137.88,125.48c-.4-.4-.95-.65-1.56-.65-1.22.01-2.21,1-2.19,2.22v2.73c0,.61.25,1.16.65,1.56s.95.64,1.56.64c1.22,0,2.21-1,2.19-2.22v-2.73c0-.61-.25-1.15-.65-1.55h0ZM145.67,134.45h-.02c-.73,0-1.32.61-1.31,1.34.05,3.45-1.76,6.93-4.61,8.88-2.84,1.94-6.75,2.36-9.94,1.06-3.2-1.3-5.7-4.32-6.39-7.7-.15-.72-.85-1.18-1.57-1.04-.72.15-1.19.85-1.04,1.57h.01c.87,4.31,3.93,7.99,7.99,9.64,1.58.64,3.26.95,4.94.95,2.65,0,5.29-.78,7.5-2.29,3.62-2.47,5.83-6.72,5.77-11.1,0-.73-.6-1.31-1.33-1.31h0ZM145.67,134.45h-.02c-.73,0-1.32.61-1.31,1.34.05,3.45-1.76,6.93-4.61,8.88-2.84,1.94-6.75,2.36-9.94,1.06-3.2-1.3-5.7-4.32-6.39-7.7-.15-.72-.85-1.18-1.57-1.04-.72.15-1.19.85-1.04,1.57h.01c.87,4.31,3.93,7.99,7.99,9.64,1.58.64,3.26.95,4.94.95,2.65,0,5.29-.78,7.5-2.29,3.62-2.47,5.83-6.72,5.77-11.1,0-.73-.6-1.31-1.33-1.31h0ZM137.88,125.48c-.4-.4-.95-.65-1.56-.65-1.22.01-2.21,1-2.19,2.22v2.73c0,.61.25,1.16.65,1.56s.95.64,1.56.64c1.22,0,2.21-1,2.19-2.22v-2.73c0-.61-.25-1.15-.65-1.55h0ZM130.9,130.78c-.07-1.12-.34-2.23-.79-3.26-.49-1.12-1.79-1.64-2.91-1.14-1.12.49-1.63,1.79-1.14,2.91h.01c.29.67.44,1.41.43,2.15-.02.95.57,1.8,1.46,2.12.24.09.49.13.74.13.62,0,1.24-.25,1.67-.7.55-.58.75-1.45.53-2.21h0ZM130.9,130.78c-.07-1.12-.34-2.23-.79-3.26-.49-1.12-1.79-1.64-2.91-1.14-1.12.49-1.63,1.79-1.14,2.91h.01c.29.67.44,1.41.43,2.15-.02.95.57,1.8,1.46,2.12.24.09.49.13.74.13.62,0,1.24-.25,1.67-.7.55-.58.75-1.45.53-2.21h0ZM137.88,125.48c-.4-.4-.95-.65-1.56-.65-1.22.01-2.21,1-2.19,2.22v2.73c0,.61.25,1.16.65,1.56s.95.64,1.56.64c1.22,0,2.21-1,2.19-2.22v-2.73c0-.61-.25-1.15-.65-1.55h0ZM145.67,134.45h-.02c-.73,0-1.32.61-1.31,1.34.05,3.45-1.76,6.93-4.61,8.88-2.84,1.94-6.75,2.36-9.94,1.06-3.2-1.3-5.7-4.32-6.39-7.7-.15-.72-.85-1.18-1.57-1.04-.72.15-1.19.85-1.04,1.57h.01c.87,4.31,3.93,7.99,7.99,9.64,1.58.64,3.26.95,4.94.95,2.65,0,5.29-.78,7.5-2.29,3.62-2.47,5.83-6.72,5.77-11.1,0-.73-.6-1.31-1.33-1.31h0ZM145.67,134.45h-.02c-.73,0-1.32.61-1.31,1.34.05,3.45-1.76,6.93-4.61,8.88-2.84,1.94-6.75,2.36-9.94,1.06-3.2-1.3-5.7-4.32-6.39-7.7-.15-.72-.85-1.18-1.57-1.04-.72.15-1.19.85-1.04,1.57h.01c.87,4.31,3.93,7.99,7.99,9.64,1.58.64,3.26.95,4.94.95,2.65,0,5.29-.78,7.5-2.29,3.62-2.47,5.83-6.72,5.77-11.1,0-.73-.6-1.31-1.33-1.31h0ZM136.34,131.98c1.22,0,2.21-1,2.19-2.22v-2.73c0-.61-.25-1.15-.65-1.55s-.95-.65-1.56-.65c-1.22.01-2.21,1-2.19,2.22v2.73c0,.61.25,1.16.65,1.56s.95.64,1.56.64h0ZM126.07,129.29c.29.67.44,1.41.43,2.15-.02.95.57,1.8,1.46,2.12.24.09.49.13.74.13.62,0,1.24-.25,1.67-.7.55-.58.75-1.45.53-2.21-.07-1.12-.34-2.23-.79-3.26-.49-1.12-1.79-1.64-2.91-1.14-1.12.49-1.63,1.79-1.14,2.91h.01ZM175.3,99.12c-.05-.58-.34-1.12-.79-1.5v.02c-.45-.37-1.02-.55-1.62-.5l-81.09,7.76c-1.21.12-2.11,1.2-1.99,2.41l7.75,81.41c.11,1.14,1.07,2,2.2,2,.07,0,.14,0,.21,0l81.09-7.72c1.22-.12,2.11-1.2,1.99-2.41l-7.75-81.46h0ZM160.07,180.57c0-.21-.02-.42-.11-.62-1.87-3.93-4.32-7.52-7.28-10.67-.5-.54-1.34-.56-1.88-.06-.53.5-.56,1.34-.06,1.87,2.7,2.87,4.94,6.15,6.67,9.72l-35.65,3.39c.18-3.04.67-6.06,1.51-8.99.2-.7-.21-1.44-.91-1.64-.7-.21-1.44.21-1.64.91-.93,3.24-1.46,6.59-1.63,9.97l-6.62.63c.01-.54.04-1.06.06-1.38l.02-.34c.05-1.25.19-2.52.42-3.78.45-2.48,1.25-4.9,2.38-7.18,1.13-2.29,2.56-4.4,4.26-6.27,1.33-1.47,3.32-2.65,5.24-3.79l.75-.45c3.34-2.01,6.96-3.36,10.76-4.04h0c.41-.06.82-.1,1.23-.16.49-.04.96-.11,1.44-.18,2.46-.22,4.89-.16,7.25.21,5.14.8,9.82,3.01,13.53,6.39,4.52,4.12,7.52,9.68,8.47,15.68l-8.21.78h0ZM125.91,116.36c2.5-1.28,5.21-1.91,7.97-1.91,4.01,0,8.12,1.34,11.83,3.96,5.89,4.17,9.19,11.77,8.22,18.92-.8,5.87-4.39,11.18-9.37,13.86-1.72.93-3.66,1.55-5.73,1.9-.59.05-1.18.13-1.77.21-3.29.28-6.83-.1-10.39-1.2-3.66-1.14-6.57-2.76-8.65-4.82-2.32-2.3-3.94-5.45-4.71-9.13-1-4.84-.29-9.92,1.96-13.94,2.36-4.22,5.66-6.73,10.1-7.67h0c.19-.03.38-.1.55-.18h-.01ZM172.66,179.36c0-.06.02-.11,0-.18-1.09-7.02-4.6-13.54-9.88-18.35-3.89-3.55-8.68-5.98-13.93-7.13,5.04-3.59,8.58-9.43,9.45-15.78,1.19-8.74-2.84-18.03-10.04-23.13-7.42-5.26-16.63-6.21-24.1-2.52-5.55,1.25-9.84,4.54-12.76,9.77-2.76,4.94-3.65,11.13-2.43,17,.94,4.53,2.99,8.46,5.93,11.37,2.58,2.56,6.1,4.54,10.44,5.9.28.09.56.15.84.23-.97.47-1.93.99-2.86,1.55l-.74.44c-2.1,1.25-4.48,2.66-6.26,4.63-1.97,2.18-3.64,4.63-4.95,7.29-1.3,2.65-2.23,5.46-2.76,8.34-.27,1.46-.43,2.94-.48,4.41v.27c-.04.46-.08,1.28-.09,2.04l-6.3.6-7.33-77.01,76.69-7.34,7.33,77.05-5.77.55ZM121.83,136.99c-.72.15-1.19.85-1.04,1.57h.01c.87,4.31,3.93,7.99,7.99,9.64,1.58.64,3.26.95,4.94.95,2.65,0,5.29-.78,7.5-2.29,3.62-2.47,5.83-6.72,5.77-11.1,0-.73-.6-1.31-1.33-1.31h-.02c-.73,0-1.32.61-1.31,1.34.05,3.45-1.76,6.93-4.61,8.88-2.84,1.94-6.75,2.36-9.94,1.06-3.2-1.3-5.7-4.32-6.39-7.7-.15-.72-.85-1.18-1.57-1.04h0ZM136.34,131.98c1.22,0,2.21-1,2.19-2.22v-2.73c0-.61-.25-1.15-.65-1.55s-.95-.65-1.56-.65c-1.22.01-2.21,1-2.19,2.22v2.73c0,.61.25,1.16.65,1.56s.95.64,1.56.64h0ZM126.07,129.29c.29.67.44,1.41.43,2.15-.02.95.57,1.8,1.46,2.12.24.09.49.13.74.13.62,0,1.24-.25,1.67-.7.55-.58.75-1.45.53-2.21-.07-1.12-.34-2.23-.79-3.26-.49-1.12-1.79-1.64-2.91-1.14-1.12.49-1.63,1.79-1.14,2.91h.01ZM130.9,130.78c-.07-1.12-.34-2.23-.79-3.26-.49-1.12-1.79-1.64-2.91-1.14-1.12.49-1.63,1.79-1.14,2.91h.01c.29.67.44,1.41.43,2.15-.02.95.57,1.8,1.46,2.12.24.09.49.13.74.13.62,0,1.24-.25,1.67-.7.55-.58.75-1.45.53-2.21h0ZM137.88,125.48c-.4-.4-.95-.65-1.56-.65-1.22.01-2.21,1-2.19,2.22v2.73c0,.61.25,1.16.65,1.56s.95.64,1.56.64c1.22,0,2.21-1,2.19-2.22v-2.73c0-.61-.25-1.15-.65-1.55h0ZM145.67,134.45h-.02c-.73,0-1.32.61-1.31,1.34.05,3.45-1.76,6.93-4.61,8.88-2.84,1.94-6.75,2.36-9.94,1.06-3.2-1.3-5.7-4.32-6.39-7.7-.15-.72-.85-1.18-1.57-1.04-.72.15-1.19.85-1.04,1.57h.01c.87,4.31,3.93,7.99,7.99,9.64,1.58.64,3.26.95,4.94.95,2.65,0,5.29-.78,7.5-2.29,3.62-2.47,5.83-6.72,5.77-11.1,0-.73-.6-1.31-1.33-1.31h0ZM145.67,134.45h-.02c-.73,0-1.32.61-1.31,1.34.05,3.45-1.76,6.93-4.61,8.88-2.84,1.94-6.75,2.36-9.94,1.06-3.2-1.3-5.7-4.32-6.39-7.7-.15-.72-.85-1.18-1.57-1.04-.72.15-1.19.85-1.04,1.57h.01c.87,4.31,3.93,7.99,7.99,9.64,1.58.64,3.26.95,4.94.95,2.65,0,5.29-.78,7.5-2.29,3.62-2.47,5.83-6.72,5.77-11.1,0-.73-.6-1.31-1.33-1.31h0ZM137.88,125.48c-.4-.4-.95-.65-1.56-.65-1.22.01-2.21,1-2.19,2.22v2.73c0,.61.25,1.16.65,1.56s.95.64,1.56.64c1.22,0,2.21-1,2.19-2.22v-2.73c0-.61-.25-1.15-.65-1.55h0ZM130.9,130.78c-.07-1.12-.34-2.23-.79-3.26-.49-1.12-1.79-1.64-2.91-1.14-1.12.49-1.63,1.79-1.14,2.91h.01c.29.67.44,1.41.43,2.15-.02.95.57,1.8,1.46,2.12.24.09.49.13.74.13.62,0,1.24-.25,1.67-.7.55-.58.75-1.45.53-2.21h0ZM181.72,195.66h0c-6.83.65-17.85,1.74-28.27,2.77-9.4.92-18.32,1.8-23.21,2.27-1.21.12-2.1,1.19-1.99,2.41.11,1.14,1.07,2,2.2,2,.07,0,.14,0,.21,0,4.9-.46,13.82-1.34,23.23-2.27,10.42-1.03,21.43-2.12,28.26-2.77,1.22-.12,2.11-1.19,1.99-2.41s-1.22-2.12-2.41-1.99ZM181.72,195.66h0c-6.83.65-17.85,1.74-28.27,2.77-9.4.92-18.32,1.8-23.21,2.27-1.21.12-2.1,1.19-1.99,2.41.11,1.14,1.07,2,2.2,2,.07,0,.14,0,.21,0,4.9-.46,13.82-1.34,23.23-2.27,10.42-1.03,21.43-2.12,28.26-2.77,1.22-.12,2.11-1.19,1.99-2.41s-1.22-2.12-2.41-1.99ZM130.9,130.78c-.07-1.12-.34-2.23-.79-3.26-.49-1.12-1.79-1.64-2.91-1.14-1.12.49-1.63,1.79-1.14,2.91h.01c.29.67.44,1.41.43,2.15-.02.95.57,1.8,1.46,2.12.24.09.49.13.74.13.62,0,1.24-.25,1.67-.7.55-.58.75-1.45.53-2.21h0ZM137.88,125.48c-.4-.4-.95-.65-1.56-.65-1.22.01-2.21,1-2.19,2.22v2.73c0,.61.25,1.16.65,1.56s.95.64,1.56.64c1.22,0,2.21-1,2.19-2.22v-2.73c0-.61-.25-1.15-.65-1.55h0ZM145.67,134.45h-.02c-.73,0-1.32.61-1.31,1.34.05,3.45-1.76,6.93-4.61,8.88-2.84,1.94-6.75,2.36-9.94,1.06-3.2-1.3-5.7-4.32-6.39-7.7-.15-.72-.85-1.18-1.57-1.04-.72.15-1.19.85-1.04,1.57h.01c.87,4.31,3.93,7.99,7.99,9.64,1.58.64,3.26.95,4.94.95,2.65,0,5.29-.78,7.5-2.29,3.62-2.47,5.83-6.72,5.77-11.1,0-.73-.6-1.31-1.33-1.31h0ZM145.67,134.45h-.02c-.73,0-1.32.61-1.31,1.34.05,3.45-1.76,6.93-4.61,8.88-2.84,1.94-6.75,2.36-9.94,1.06-3.2-1.3-5.7-4.32-6.39-7.7-.15-.72-.85-1.18-1.57-1.04-.72.15-1.19.85-1.04,1.57h.01c.87,4.31,3.93,7.99,7.99,9.64,1.58.64,3.26.95,4.94.95,2.65,0,5.29-.78,7.5-2.29,3.62-2.47,5.83-6.72,5.77-11.1,0-.73-.6-1.31-1.33-1.31h0ZM137.88,125.48c-.4-.4-.95-.65-1.56-.65-1.22.01-2.21,1-2.19,2.22v2.73c0,.61.25,1.16.65,1.56s.95.64,1.56.64c1.22,0,2.21-1,2.19-2.22v-2.73c0-.61-.25-1.15-.65-1.55h0ZM130.9,130.78c-.07-1.12-.34-2.23-.79-3.26-.49-1.12-1.79-1.64-2.91-1.14-1.12.49-1.63,1.79-1.14,2.91h.01c.29.67.44,1.41.43,2.15-.02.95.57,1.8,1.46,2.12.24.09.49.13.74.13.62,0,1.24-.25,1.67-.7.55-.58.75-1.45.53-2.21h0ZM130.9,130.78c-.07-1.12-.34-2.23-.79-3.26-.49-1.12-1.79-1.64-2.91-1.14-1.12.49-1.63,1.79-1.14,2.91h.01c.29.67.44,1.41.43,2.15-.02.95.57,1.8,1.46,2.12.24.09.49.13.74.13.62,0,1.24-.25,1.67-.7.55-.58.75-1.45.53-2.21h0ZM137.88,125.48c-.4-.4-.95-.65-1.56-.65-1.22.01-2.21,1-2.19,2.22v2.73c0,.61.25,1.16.65,1.56s.95.64,1.56.64c1.22,0,2.21-1,2.19-2.22v-2.73c0-.61-.25-1.15-.65-1.55h0ZM145.67,134.45h-.02c-.73,0-1.32.61-1.31,1.34.05,3.45-1.76,6.93-4.61,8.88-2.84,1.94-6.75,2.36-9.94,1.06-3.2-1.3-5.7-4.32-6.39-7.7-.15-.72-.85-1.18-1.57-1.04-.72.15-1.19.85-1.04,1.57h.01c.87,4.31,3.93,7.99,7.99,9.64,1.58.64,3.26.95,4.94.95,2.65,0,5.29-.78,7.5-2.29,3.62-2.47,5.83-6.72,5.77-11.1,0-.73-.6-1.31-1.33-1.31h0ZM145.67,134.45h-.02c-.73,0-1.32.61-1.31,1.34.05,3.45-1.76,6.93-4.61,8.88-2.84,1.94-6.75,2.36-9.94,1.06-3.2-1.3-5.7-4.32-6.39-7.7-.15-.72-.85-1.18-1.57-1.04-.72.15-1.19.85-1.04,1.57h.01c.87,4.31,3.93,7.99,7.99,9.64,1.58.64,3.26.95,4.94.95,2.65,0,5.29-.78,7.5-2.29,3.62-2.47,5.83-6.72,5.77-11.1,0-.73-.6-1.31-1.33-1.31h0ZM136.34,131.98c1.22,0,2.21-1,2.19-2.22v-2.73c0-.61-.25-1.15-.65-1.55s-.95-.65-1.56-.65c-1.22.01-2.21,1-2.19,2.22v2.73c0,.61.25,1.16.65,1.56s.95.64,1.56.64h0ZM126.07,129.29c.29.67.44,1.41.43,2.15-.02.95.57,1.8,1.46,2.12.24.09.49.13.74.13.62,0,1.24-.25,1.67-.7.55-.58.75-1.45.53-2.21-.07-1.12-.34-2.23-.79-3.26-.49-1.12-1.79-1.64-2.91-1.14-1.12.49-1.63,1.79-1.14,2.91h.01ZM175.3,99.12c-.05-.58-.34-1.12-.79-1.5v.02c-.45-.37-1.02-.55-1.62-.5l-81.09,7.76c-1.21.12-2.11,1.2-1.99,2.41l7.75,81.41c.11,1.14,1.07,2,2.2,2,.07,0,.14,0,.21,0l81.09-7.72c1.22-.12,2.11-1.2,1.99-2.41l-7.75-81.46h0ZM160.07,180.57c0-.21-.02-.42-.11-.62-1.87-3.93-4.32-7.52-7.28-10.67-.5-.54-1.34-.56-1.88-.06-.53.5-.56,1.34-.06,1.87,2.7,2.87,4.94,6.15,6.67,9.72l-35.65,3.39c.18-3.04.67-6.06,1.51-8.99.2-.7-.21-1.44-.91-1.64-.7-.21-1.44.21-1.64.91-.93,3.24-1.46,6.59-1.63,9.97l-6.62.63c.01-.54.04-1.06.06-1.38l.02-.34c.05-1.25.19-2.52.42-3.78.45-2.48,1.25-4.9,2.38-7.18,1.13-2.29,2.56-4.4,4.26-6.27,1.33-1.47,3.32-2.65,5.24-3.79l.75-.45c3.34-2.01,6.96-3.36,10.76-4.04h0c.41-.06.82-.1,1.23-.16.49-.04.96-.11,1.44-.18,2.46-.22,4.89-.16,7.25.21,5.14.8,9.82,3.01,13.53,6.39,4.52,4.12,7.52,9.68,8.47,15.68l-8.21.78h0ZM125.91,116.36c2.5-1.28,5.21-1.91,7.97-1.91,4.01,0,8.12,1.34,11.83,3.96,5.89,4.17,9.19,11.77,8.22,18.92-.8,5.87-4.39,11.18-9.37,13.86-1.72.93-3.66,1.55-5.73,1.9-.59.05-1.18.13-1.77.21-3.29.28-6.83-.1-10.39-1.2-3.66-1.14-6.57-2.76-8.65-4.82-2.32-2.3-3.94-5.45-4.71-9.13-1-4.84-.29-9.92,1.96-13.94,2.36-4.22,5.66-6.73,10.1-7.67h0c.19-.03.38-.1.55-.18h-.01ZM172.66,179.36c0-.06.02-.11,0-.18-1.09-7.02-4.6-13.54-9.88-18.35-3.89-3.55-8.68-5.98-13.93-7.13,5.04-3.59,8.58-9.43,9.45-15.78,1.19-8.74-2.84-18.03-10.04-23.13-7.42-5.26-16.63-6.21-24.1-2.52-5.55,1.25-9.84,4.54-12.76,9.77-2.76,4.94-3.65,11.13-2.43,17,.94,4.53,2.99,8.46,5.93,11.37,2.58,2.56,6.1,4.54,10.44,5.9.28.09.56.15.84.23-.97.47-1.93.99-2.86,1.55l-.74.44c-2.1,1.25-4.48,2.66-6.26,4.63-1.97,2.18-3.64,4.63-4.95,7.29-1.3,2.65-2.23,5.46-2.76,8.34-.27,1.46-.43,2.94-.48,4.41v.27c-.04.46-.08,1.28-.09,2.04l-6.3.6-7.33-77.01,76.69-7.34,7.33,77.05-5.77.55ZM121.83,136.99c-.72.15-1.19.85-1.04,1.57h.01c.87,4.31,3.93,7.99,7.99,9.64,1.58.64,3.26.95,4.94.95,2.65,0,5.29-.78,7.5-2.29,3.62-2.47,5.83-6.72,5.77-11.1,0-.73-.6-1.31-1.33-1.31h-.02c-.73,0-1.32.61-1.31,1.34.05,3.45-1.76,6.93-4.61,8.88-2.84,1.94-6.75,2.36-9.94,1.06-3.2-1.3-5.7-4.32-6.39-7.7-.15-.72-.85-1.18-1.57-1.04h0ZM136.34,131.98c1.22,0,2.21-1,2.19-2.22v-2.73c0-.61-.25-1.15-.65-1.55s-.95-.65-1.56-.65c-1.22.01-2.21,1-2.19,2.22v2.73c0,.61.25,1.16.65,1.56s.95.64,1.56.64h0ZM126.07,129.29c.29.67.44,1.41.43,2.15-.02.95.57,1.8,1.46,2.12.24.09.49.13.74.13.62,0,1.24-.25,1.67-.7.55-.58.75-1.45.53-2.21-.07-1.12-.34-2.23-.79-3.26-.49-1.12-1.79-1.64-2.91-1.14-1.12.49-1.63,1.79-1.14,2.91h.01ZM130.9,130.78c-.07-1.12-.34-2.23-.79-3.26-.49-1.12-1.79-1.64-2.91-1.14-1.12.49-1.63,1.79-1.14,2.91h.01c.29.67.44,1.41.43,2.15-.02.95.57,1.8,1.46,2.12.24.09.49.13.74.13.62,0,1.24-.25,1.67-.7.55-.58.75-1.45.53-2.21h0ZM137.88,125.48c-.4-.4-.95-.65-1.56-.65-1.22.01-2.21,1-2.19,2.22v2.73c0,.61.25,1.16.65,1.56s.95.64,1.56.64c1.22,0,2.21-1,2.19-2.22v-2.73c0-.61-.25-1.15-.65-1.55h0ZM145.67,134.45h-.02c-.73,0-1.32.61-1.31,1.34.05,3.45-1.76,6.93-4.61,8.88-2.84,1.94-6.75,2.36-9.94,1.06-3.2-1.3-5.7-4.32-6.39-7.7-.15-.72-.85-1.18-1.57-1.04-.72.15-1.19.85-1.04,1.57h.01c.87,4.31,3.93,7.99,7.99,9.64,1.58.64,3.26.95,4.94.95,2.65,0,5.29-.78,7.5-2.29,3.62-2.47,5.83-6.72,5.77-11.1,0-.73-.6-1.31-1.33-1.31h0ZM145.67,134.45h-.02c-.73,0-1.32.61-1.31,1.34.05,3.45-1.76,6.93-4.61,8.88-2.84,1.94-6.75,2.36-9.94,1.06-3.2-1.3-5.7-4.32-6.39-7.7-.15-.72-.85-1.18-1.57-1.04-.72.15-1.19.85-1.04,1.57h.01c.87,4.31,3.93,7.99,7.99,9.64,1.58.64,3.26.95,4.94.95,2.65,0,5.29-.78,7.5-2.29,3.62-2.47,5.83-6.72,5.77-11.1,0-.73-.6-1.31-1.33-1.31h0ZM137.88,125.48c-.4-.4-.95-.65-1.56-.65-1.22.01-2.21,1-2.19,2.22v2.73c0,.61.25,1.16.65,1.56s.95.64,1.56.64c1.22,0,2.21-1,2.19-2.22v-2.73c0-.61-.25-1.15-.65-1.55h0ZM130.9,130.78c-.07-1.12-.34-2.23-.79-3.26-.49-1.12-1.79-1.64-2.91-1.14-1.12.49-1.63,1.79-1.14,2.91h.01c.29.67.44,1.41.43,2.15-.02.95.57,1.8,1.46,2.12.24.09.49.13.74.13.62,0,1.24-.25,1.67-.7.55-.58.75-1.45.53-2.21h0ZM130.9,130.78c-.07-1.12-.34-2.23-.79-3.26-.49-1.12-1.79-1.64-2.91-1.14-1.12.49-1.63,1.79-1.14,2.91h.01c.29.67.44,1.41.43,2.15-.02.95.57,1.8,1.46,2.12.24.09.49.13.74.13.62,0,1.24-.25,1.67-.7.55-.58.75-1.45.53-2.21h0ZM137.88,125.48c-.4-.4-.95-.65-1.56-.65-1.22.01-2.21,1-2.19,2.22v2.73c0,.61.25,1.16.65,1.56s.95.64,1.56.64c1.22,0,2.21-1,2.19-2.22v-2.73c0-.61-.25-1.15-.65-1.55h0ZM145.67,134.45h-.02c-.73,0-1.32.61-1.31,1.34.05,3.45-1.76,6.93-4.61,8.88-2.84,1.94-6.75,2.36-9.94,1.06-3.2-1.3-5.7-4.32-6.39-7.7-.15-.72-.85-1.18-1.57-1.04-.72.15-1.19.85-1.04,1.57h.01c.87,4.31,3.93,7.99,7.99,9.64,1.58.64,3.26.95,4.94.95,2.65,0,5.29-.78,7.5-2.29,3.62-2.47,5.83-6.72,5.77-11.1,0-.73-.6-1.31-1.33-1.31h0ZM145.67,134.45h-.02c-.73,0-1.32.61-1.31,1.34.05,3.45-1.76,6.93-4.61,8.88-2.84,1.94-6.75,2.36-9.94,1.06-3.2-1.3-5.7-4.32-6.39-7.7-.15-.72-.85-1.18-1.57-1.04-.72.15-1.19.85-1.04,1.57h.01c.87,4.31,3.93,7.99,7.99,9.64,1.58.64,3.26.95,4.94.95,2.65,0,5.29-.78,7.5-2.29,3.62-2.47,5.83-6.72,5.77-11.1,0-.73-.6-1.31-1.33-1.31h0ZM137.88,125.48c-.4-.4-.95-.65-1.56-.65-1.22.01-2.21,1-2.19,2.22v2.73c0,.61.25,1.16.65,1.56s.95.64,1.56.64c1.22,0,2.21-1,2.19-2.22v-2.73c0-.61-.25-1.15-.65-1.55h0ZM130.9,130.78c-.07-1.12-.34-2.23-.79-3.26-.49-1.12-1.79-1.64-2.91-1.14-1.12.49-1.63,1.79-1.14,2.91h.01c.29.67.44,1.41.43,2.15-.02.95.57,1.8,1.46,2.12.24.09.49.13.74.13.62,0,1.24-.25,1.67-.7.55-.58.75-1.45.53-2.21h0ZM121.44,202.61c-.2-2.45-1.54-4.32-3.48-4.88-1.48-.43-3.71-.26-6.36,2.52-2.99-1.76-5.41-2.03-7.21-.81-1.68,1.13-2.3,3.35-1.66,5.93.98,3.94,4.75,8.22,10.06,8.8.08,0,.16,0,.24,0,.33,0,.66-.07.96-.22,5.58-2.7,7.77-7.65,7.45-11.35h0ZM121.44,202.61c-.2-2.45-1.54-4.32-3.48-4.88-1.48-.43-3.71-.26-6.36,2.52-2.99-1.76-5.41-2.03-7.21-.81-1.68,1.13-2.3,3.35-1.66,5.93.98,3.94,4.75,8.22,10.06,8.8.08,0,.16,0,.24,0,.33,0,.66-.07.96-.22,5.58-2.7,7.77-7.65,7.45-11.35h0ZM130.9,130.78c-.07-1.12-.34-2.23-.79-3.26-.49-1.12-1.79-1.64-2.91-1.14-1.12.49-1.63,1.79-1.14,2.91h.01c.29.67.44,1.41.43,2.15-.02.95.57,1.8,1.46,2.12.24.09.49.13.74.13.62,0,1.24-.25,1.67-.7.55-.58.75-1.45.53-2.21h0ZM137.88,125.48c-.4-.4-.95-.65-1.56-.65-1.22.01-2.21,1-2.19,2.22v2.73c0,.61.25,1.16.65,1.56s.95.64,1.56.64c1.22,0,2.21-1,2.19-2.22v-2.73c0-.61-.25-1.15-.65-1.55h0ZM145.67,134.45h-.02c-.73,0-1.32.61-1.31,1.34.05,3.45-1.76,6.93-4.61,8.88-2.84,1.94-6.75,2.36-9.94,1.06-3.2-1.3-5.7-4.32-6.39-7.7-.15-.72-.85-1.18-1.57-1.04-.72.15-1.19.85-1.04,1.57h.01c.87,4.31,3.93,7.99,7.99,9.64,1.58.64,3.26.95,4.94.95,2.65,0,5.29-.78,7.5-2.29,3.62-2.47,5.83-6.72,5.77-11.1,0-.73-.6-1.31-1.33-1.31h0ZM145.67,134.45h-.02c-.73,0-1.32.61-1.31,1.34.05,3.45-1.76,6.93-4.61,8.88-2.84,1.94-6.75,2.36-9.94,1.06-3.2-1.3-5.7-4.32-6.39-7.7-.15-.72-.85-1.18-1.57-1.04-.72.15-1.19.85-1.04,1.57h.01c.87,4.31,3.93,7.99,7.99,9.64,1.58.64,3.26.95,4.94.95,2.65,0,5.29-.78,7.5-2.29,3.62-2.47,5.83-6.72,5.77-11.1,0-.73-.6-1.31-1.33-1.31h0ZM137.88,125.48c-.4-.4-.95-.65-1.56-.65-1.22.01-2.21,1-2.19,2.22v2.73c0,.61.25,1.16.65,1.56s.95.64,1.56.64c1.22,0,2.21-1,2.19-2.22v-2.73c0-.61-.25-1.15-.65-1.55h0ZM130.9,130.78c-.07-1.12-.34-2.23-.79-3.26-.49-1.12-1.79-1.64-2.91-1.14-1.12.49-1.63,1.79-1.14,2.91h.01c.29.67.44,1.41.43,2.15-.02.95.57,1.8,1.46,2.12.24.09.49.13.74.13.62,0,1.24-.25,1.67-.7.55-.58.75-1.45.53-2.21h0ZM130.9,130.78c-.07-1.12-.34-2.23-.79-3.26-.49-1.12-1.79-1.64-2.91-1.14-1.12.49-1.63,1.79-1.14,2.91h.01c.29.67.44,1.41.43,2.15-.02.95.57,1.8,1.46,2.12.24.09.49.13.74.13.62,0,1.24-.25,1.67-.7.55-.58.75-1.45.53-2.21h0ZM137.88,125.48c-.4-.4-.95-.65-1.56-.65-1.22.01-2.21,1-2.19,2.22v2.73c0,.61.25,1.16.65,1.56s.95.64,1.56.64c1.22,0,2.21-1,2.19-2.22v-2.73c0-.61-.25-1.15-.65-1.55h0ZM145.67,134.45h-.02c-.73,0-1.32.61-1.31,1.34.05,3.45-1.76,6.93-4.61,8.88-2.84,1.94-6.75,2.36-9.94,1.06-3.2-1.3-5.7-4.32-6.39-7.7-.15-.72-.85-1.18-1.57-1.04-.72.15-1.19.85-1.04,1.57h.01c.87,4.31,3.93,7.99,7.99,9.64,1.58.64,3.26.95,4.94.95,2.65,0,5.29-.78,7.5-2.29,3.62-2.47,5.83-6.72,5.77-11.1,0-.73-.6-1.31-1.33-1.31h0ZM145.67,134.45h-.02c-.73,0-1.32.61-1.31,1.34.05,3.45-1.76,6.93-4.61,8.88-2.84,1.94-6.75,2.36-9.94,1.06-3.2-1.3-5.7-4.32-6.39-7.7-.15-.72-.85-1.18-1.57-1.04-.72.15-1.19.85-1.04,1.57h.01c.87,4.31,3.93,7.99,7.99,9.64,1.58.64,3.26.95,4.94.95,2.65,0,5.29-.78,7.5-2.29,3.62-2.47,5.83-6.72,5.77-11.1,0-.73-.6-1.31-1.33-1.31h0ZM137.88,125.48c-.4-.4-.95-.65-1.56-.65-1.22.01-2.21,1-2.19,2.22v2.73c0,.61.25,1.16.65,1.56s.95.64,1.56.64c1.22,0,2.21-1,2.19-2.22v-2.73c0-.61-.25-1.15-.65-1.55h0ZM130.9,130.78c-.07-1.12-.34-2.23-.79-3.26-.49-1.12-1.79-1.64-2.91-1.14-1.12.49-1.63,1.79-1.14,2.91h.01c.29.67.44,1.41.43,2.15-.02.95.57,1.8,1.46,2.12.24.09.49.13.74.13.62,0,1.24-.25,1.67-.7.55-.58.75-1.45.53-2.21h0ZM130.9,130.78c-.07-1.12-.34-2.23-.79-3.26-.49-1.12-1.79-1.64-2.91-1.14-1.12.49-1.63,1.79-1.14,2.91h.01c.29.67.44,1.41.43,2.15-.02.95.57,1.8,1.46,2.12.24.09.49.13.74.13.62,0,1.24-.25,1.67-.7.55-.58.75-1.45.53-2.21h0ZM137.88,125.48c-.4-.4-.95-.65-1.56-.65-1.22.01-2.21,1-2.19,2.22v2.73c0,.61.25,1.16.65,1.56s.95.64,1.56.64c1.22,0,2.21-1,2.19-2.22v-2.73c0-.61-.25-1.15-.65-1.55h0ZM145.67,134.45h-.02c-.73,0-1.32.61-1.31,1.34.05,3.45-1.76,6.93-4.61,8.88-2.84,1.94-6.75,2.36-9.94,1.06-3.2-1.3-5.7-4.32-6.39-7.7-.15-.72-.85-1.18-1.57-1.04-.72.15-1.19.85-1.04,1.57h.01c.87,4.31,3.93,7.99,7.99,9.64,1.58.64,3.26.95,4.94.95,2.65,0,5.29-.78,7.5-2.29,3.62-2.47,5.83-6.72,5.77-11.1,0-.73-.6-1.31-1.33-1.31h0ZM145.67,134.45h-.02c-.73,0-1.32.61-1.31,1.34.05,3.45-1.76,6.93-4.61,8.88-2.84,1.94-6.75,2.36-9.94,1.06-3.2-1.3-5.7-4.32-6.39-7.7-.15-.72-.85-1.18-1.57-1.04-.72.15-1.19.85-1.04,1.57h.01c.87,4.31,3.93,7.99,7.99,9.64,1.58.64,3.26.95,4.94.95,2.65,0,5.29-.78,7.5-2.29,3.62-2.47,5.83-6.72,5.77-11.1,0-.73-.6-1.31-1.33-1.31h0ZM136.34,131.98c1.22,0,2.21-1,2.19-2.22v-2.73c0-.61-.25-1.15-.65-1.55s-.95-.65-1.56-.65c-1.22.01-2.21,1-2.19,2.22v2.73c0,.61.25,1.16.65,1.56s.95.64,1.56.64h0ZM126.07,129.29c.29.67.44,1.41.43,2.15-.02.95.57,1.8,1.46,2.12.24.09.49.13.74.13.62,0,1.24-.25,1.67-.7.55-.58.75-1.45.53-2.21-.07-1.12-.34-2.23-.79-3.26-.49-1.12-1.79-1.64-2.91-1.14-1.12.49-1.63,1.79-1.14,2.91h.01ZM175.3,99.12c-.05-.58-.34-1.12-.79-1.5v.02c-.45-.37-1.02-.55-1.62-.5l-81.09,7.76c-1.21.12-2.11,1.2-1.99,2.41l7.75,81.41c.11,1.14,1.07,2,2.2,2,.07,0,.14,0,.21,0l81.09-7.72c1.22-.12,2.11-1.2,1.99-2.41l-7.75-81.46h0ZM160.07,180.57c0-.21-.02-.42-.11-.62-1.87-3.93-4.32-7.52-7.28-10.67-.5-.54-1.34-.56-1.88-.06-.53.5-.56,1.34-.06,1.87,2.7,2.87,4.94,6.15,6.67,9.72l-35.65,3.39c.18-3.04.67-6.06,1.51-8.99.2-.7-.21-1.44-.91-1.64-.7-.21-1.44.21-1.64.91-.93,3.24-1.46,6.59-1.63,9.97l-6.62.63c.01-.54.04-1.06.06-1.38l.02-.34c.05-1.25.19-2.52.42-3.78.45-2.48,1.25-4.9,2.38-7.18,1.13-2.29,2.56-4.4,4.26-6.27,1.33-1.47,3.32-2.65,5.24-3.79l.75-.45c3.34-2.01,6.96-3.36,10.76-4.04h0c.41-.06.82-.1,1.23-.16.49-.04.96-.11,1.44-.18,2.46-.22,4.89-.16,7.25.21,5.14.8,9.82,3.01,13.53,6.39,4.52,4.12,7.52,9.68,8.47,15.68l-8.21.78h0ZM125.91,116.36c2.5-1.28,5.21-1.91,7.97-1.91,4.01,0,8.12,1.34,11.83,3.96,5.89,4.17,9.19,11.77,8.22,18.92-.8,5.87-4.39,11.18-9.37,13.86-1.72.93-3.66,1.55-5.73,1.9-.59.05-1.18.13-1.77.21-3.29.28-6.83-.1-10.39-1.2-3.66-1.14-6.57-2.76-8.65-4.82-2.32-2.3-3.94-5.45-4.71-9.13-1-4.84-.29-9.92,1.96-13.94,2.36-4.22,5.66-6.73,10.1-7.67h0c.19-.03.38-.1.55-.18h-.01ZM172.66,179.36c0-.06.02-.11,0-.18-1.09-7.02-4.6-13.54-9.88-18.35-3.89-3.55-8.68-5.98-13.93-7.13,5.04-3.59,8.58-9.43,9.45-15.78,1.19-8.74-2.84-18.03-10.04-23.13-7.42-5.26-16.63-6.21-24.1-2.52-5.55,1.25-9.84,4.54-12.76,9.77-2.76,4.94-3.65,11.13-2.43,17,.94,4.53,2.99,8.46,5.93,11.37,2.58,2.56,6.1,4.54,10.44,5.9.28.09.56.15.84.23-.97.47-1.93.99-2.86,1.55l-.74.44c-2.1,1.25-4.48,2.66-6.26,4.63-1.97,2.18-3.64,4.63-4.95,7.29-1.3,2.65-2.23,5.46-2.76,8.34-.27,1.46-.43,2.94-.48,4.41v.27c-.04.46-.08,1.28-.09,2.04l-6.3.6-7.33-77.01,76.69-7.34,7.33,77.05-5.77.55ZM121.83,136.99c-.72.15-1.19.85-1.04,1.57h.01c.87,4.31,3.93,7.99,7.99,9.64,1.58.64,3.26.95,4.94.95,2.65,0,5.29-.78,7.5-2.29,3.62-2.47,5.83-6.72,5.77-11.1,0-.73-.6-1.31-1.33-1.31h-.02c-.73,0-1.32.61-1.31,1.34.05,3.45-1.76,6.93-4.61,8.88-2.84,1.94-6.75,2.36-9.94,1.06-3.2-1.3-5.7-4.32-6.39-7.7-.15-.72-.85-1.18-1.57-1.04h0ZM136.34,131.98c1.22,0,2.21-1,2.19-2.22v-2.73c0-.61-.25-1.15-.65-1.55s-.95-.65-1.56-.65c-1.22.01-2.21,1-2.19,2.22v2.73c0,.61.25,1.16.65,1.56s.95.64,1.56.64h0ZM126.07,129.29c.29.67.44,1.41.43,2.15-.02.95.57,1.8,1.46,2.12.24.09.49.13.74.13.62,0,1.24-.25,1.67-.7.55-.58.75-1.45.53-2.21-.07-1.12-.34-2.23-.79-3.26-.49-1.12-1.79-1.64-2.91-1.14-1.12.49-1.63,1.79-1.14,2.91h.01ZM130.9,130.78c-.07-1.12-.34-2.23-.79-3.26-.49-1.12-1.79-1.64-2.91-1.14-1.12.49-1.63,1.79-1.14,2.91h.01c.29.67.44,1.41.43,2.15-.02.95.57,1.8,1.46,2.12.24.09.49.13.74.13.62,0,1.24-.25,1.67-.7.55-.58.75-1.45.53-2.21h0ZM137.88,125.48c-.4-.4-.95-.65-1.56-.65-1.22.01-2.21,1-2.19,2.22v2.73c0,.61.25,1.16.65,1.56s.95.64,1.56.64c1.22,0,2.21-1,2.19-2.22v-2.73c0-.61-.25-1.15-.65-1.55h0ZM145.67,134.45h-.02c-.73,0-1.32.61-1.31,1.34.05,3.45-1.76,6.93-4.61,8.88-2.84,1.94-6.75,2.36-9.94,1.06-3.2-1.3-5.7-4.32-6.39-7.7-.15-.72-.85-1.18-1.57-1.04-.72.15-1.19.85-1.04,1.57h.01c.87,4.31,3.93,7.99,7.99,9.64,1.58.64,3.26.95,4.94.95,2.65,0,5.29-.78,7.5-2.29,3.62-2.47,5.83-6.72,5.77-11.1,0-.73-.6-1.31-1.33-1.31h0ZM145.67,134.45h-.02c-.73,0-1.32.61-1.31,1.34.05,3.45-1.76,6.93-4.61,8.88-2.84,1.94-6.75,2.36-9.94,1.06-3.2-1.3-5.7-4.32-6.39-7.7-.15-.72-.85-1.18-1.57-1.04-.72.15-1.19.85-1.04,1.57h.01c.87,4.31,3.93,7.99,7.99,9.64,1.58.64,3.26.95,4.94.95,2.65,0,5.29-.78,7.5-2.29,3.62-2.47,5.83-6.72,5.77-11.1,0-.73-.6-1.31-1.33-1.31h0ZM137.88,125.48c-.4-.4-.95-.65-1.56-.65-1.22.01-2.21,1-2.19,2.22v2.73c0,.61.25,1.16.65,1.56s.95.64,1.56.64c1.22,0,2.21-1,2.19-2.22v-2.73c0-.61-.25-1.15-.65-1.55h0ZM130.9,130.78c-.07-1.12-.34-2.23-.79-3.26-.49-1.12-1.79-1.64-2.91-1.14-1.12.49-1.63,1.79-1.14,2.91h.01c.29.67.44,1.41.43,2.15-.02.95.57,1.8,1.46,2.12.24.09.49.13.74.13.62,0,1.24-.25,1.67-.7.55-.58.75-1.45.53-2.21h0ZM130.9,130.78c-.07-1.12-.34-2.23-.79-3.26-.49-1.12-1.79-1.64-2.91-1.14-1.12.49-1.63,1.79-1.14,2.91h.01c.29.67.44,1.41.43,2.15-.02.95.57,1.8,1.46,2.12.24.09.49.13.74.13.62,0,1.24-.25,1.67-.7.55-.58.75-1.45.53-2.21h0ZM137.88,125.48c-.4-.4-.95-.65-1.56-.65-1.22.01-2.21,1-2.19,2.22v2.73c0,.61.25,1.16.65,1.56s.95.64,1.56.64c1.22,0,2.21-1,2.19-2.22v-2.73c0-.61-.25-1.15-.65-1.55h0ZM145.67,134.45h-.02c-.73,0-1.32.61-1.31,1.34.05,3.45-1.76,6.93-4.61,8.88-2.84,1.94-6.75,2.36-9.94,1.06-3.2-1.3-5.7-4.32-6.39-7.7-.15-.72-.85-1.18-1.57-1.04-.72.15-1.19.85-1.04,1.57h.01c.87,4.31,3.93,7.99,7.99,9.64,1.58.64,3.26.95,4.94.95,2.65,0,5.29-.78,7.5-2.29,3.62-2.47,5.83-6.72,5.77-11.1,0-.73-.6-1.31-1.33-1.31h0ZM145.67,134.45h-.02c-.73,0-1.32.61-1.31,1.34.05,3.45-1.76,6.93-4.61,8.88-2.84,1.94-6.75,2.36-9.94,1.06-3.2-1.3-5.7-4.32-6.39-7.7-.15-.72-.85-1.18-1.57-1.04-.72.15-1.19.85-1.04,1.57h.01c.87,4.31,3.93,7.99,7.99,9.64,1.58.64,3.26.95,4.94.95,2.65,0,5.29-.78,7.5-2.29,3.62-2.47,5.83-6.72,5.77-11.1,0-.73-.6-1.31-1.33-1.31h0ZM137.88,125.48c-.4-.4-.95-.65-1.56-.65-1.22.01-2.21,1-2.19,2.22v2.73c0,.61.25,1.16.65,1.56s.95.64,1.56.64c1.22,0,2.21-1,2.19-2.22v-2.73c0-.61-.25-1.15-.65-1.55h0ZM130.9,130.78c-.07-1.12-.34-2.23-.79-3.26-.49-1.12-1.79-1.64-2.91-1.14-1.12.49-1.63,1.79-1.14,2.91h.01c.29.67.44,1.41.43,2.15-.02.95.57,1.8,1.46,2.12.24.09.49.13.74.13.62,0,1.24-.25,1.67-.7.55-.58.75-1.45.53-2.21h0ZM181.72,195.66h0c-6.83.65-17.85,1.74-28.27,2.77-9.4.92-18.32,1.8-23.21,2.27-1.21.12-2.1,1.19-1.99,2.41.11,1.14,1.07,2,2.2,2,.07,0,.14,0,.21,0,4.9-.46,13.82-1.34,23.23-2.27,10.42-1.03,21.43-2.12,28.26-2.77,1.22-.12,2.11-1.19,1.99-2.41s-1.22-2.12-2.41-1.99ZM200.31,70.68c-1.06-.61-2.41-.23-3.01.83l-6.36,11.23c-.6,1.06-.23,2.41.83,3.01.35.2.72.29,1.09.29.77,0,1.51-.4,1.92-1.12l6.36-11.23c.6-1.06.23-2.41-.83-3.01ZM207.79,87.57c-.43-1.14-1.7-1.71-2.85-1.29l-8.28,3.1c-1.15.42-1.73,1.7-1.3,2.84.33.89,1.17,1.44,2.07,1.44.25,0,.51-.04.77-.14l8.29-3.1h0c1.14-.43,1.72-1.71,1.29-2.85h.01ZM185,70.72c-.07-1.22-1.16-2.15-2.34-2.07-1.22.07-2.15,1.12-2.07,2.34l.59,9.36h0c.07,1.18,1.04,2.08,2.2,2.08h.14c1.22-.08,2.15-1.13,2.07-2.35l-.59-9.36ZM181.72,195.66h0c-6.83.65-17.85,1.74-28.27,2.77-9.4.92-18.32,1.8-23.21,2.27-1.21.12-2.1,1.19-1.99,2.41.11,1.14,1.07,2,2.2,2,.07,0,.14,0,.21,0,4.9-.46,13.82-1.34,23.23-2.27,10.42-1.03,21.43-2.12,28.26-2.77,1.22-.12,2.11-1.19,1.99-2.41s-1.22-2.12-2.41-1.99ZM121.44,202.61c-.2-2.45-1.54-4.32-3.48-4.88-1.48-.43-3.71-.26-6.36,2.52-2.99-1.76-5.41-2.03-7.21-.81-1.68,1.13-2.3,3.35-1.66,5.93.98,3.94,4.75,8.22,10.06,8.8.08,0,.16,0,.24,0,.33,0,.66-.07.96-.22,5.58-2.7,7.77-7.65,7.45-11.35h0ZM130.9,130.78c-.07-1.12-.34-2.23-.79-3.26-.49-1.12-1.79-1.64-2.91-1.14-1.12.49-1.63,1.79-1.14,2.91h.01c.29.67.44,1.41.43,2.15-.02.95.57,1.8,1.46,2.12.24.09.49.13.74.13.62,0,1.24-.25,1.67-.7.55-.58.75-1.45.53-2.21h0ZM137.88,125.48c-.4-.4-.95-.65-1.56-.65-1.22.01-2.21,1-2.19,2.22v2.73c0,.61.25,1.16.65,1.56s.95.64,1.56.64c1.22,0,2.21-1,2.19-2.22v-2.73c0-.61-.25-1.15-.65-1.55h0ZM145.67,134.45h-.02c-.73,0-1.32.61-1.31,1.34.05,3.45-1.76,6.93-4.61,8.88-2.84,1.94-6.75,2.36-9.94,1.06-3.2-1.3-5.7-4.32-6.39-7.7-.15-.72-.85-1.18-1.57-1.04-.72.15-1.19.85-1.04,1.57h.01c.87,4.31,3.93,7.99,7.99,9.64,1.58.64,3.26.95,4.94.95,2.65,0,5.29-.78,7.5-2.29,3.62-2.47,5.83-6.72,5.77-11.1,0-.73-.6-1.31-1.33-1.31h0ZM145.67,134.45h-.02c-.73,0-1.32.61-1.31,1.34.05,3.45-1.76,6.93-4.61,8.88-2.84,1.94-6.75,2.36-9.94,1.06-3.2-1.3-5.7-4.32-6.39-7.7-.15-.72-.85-1.18-1.57-1.04-.72.15-1.19.85-1.04,1.57h.01c.87,4.31,3.93,7.99,7.99,9.64,1.58.64,3.26.95,4.94.95,2.65,0,5.29-.78,7.5-2.29,3.62-2.47,5.83-6.72,5.77-11.1,0-.73-.6-1.31-1.33-1.31h0ZM137.88,125.48c-.4-.4-.95-.65-1.56-.65-1.22.01-2.21,1-2.19,2.22v2.73c0,.61.25,1.16.65,1.56s.95.64,1.56.64c1.22,0,2.21-1,2.19-2.22v-2.73c0-.61-.25-1.15-.65-1.55h0ZM130.9,130.78c-.07-1.12-.34-2.23-.79-3.26-.49-1.12-1.79-1.64-2.91-1.14-1.12.49-1.63,1.79-1.14,2.91h.01c.29.67.44,1.41.43,2.15-.02.95.57,1.8,1.46,2.12.24.09.49.13.74.13.62,0,1.24-.25,1.67-.7.55-.58.75-1.45.53-2.21h0ZM130.9,130.78c-.07-1.12-.34-2.23-.79-3.26-.49-1.12-1.79-1.64-2.91-1.14-1.12.49-1.63,1.79-1.14,2.91h.01c.29.67.44,1.41.43,2.15-.02.95.57,1.8,1.46,2.12.24.09.49.13.74.13.62,0,1.24-.25,1.67-.7.55-.58.75-1.45.53-2.21h0ZM137.88,125.48c-.4-.4-.95-.65-1.56-.65-1.22.01-2.21,1-2.19,2.22v2.73c0,.61.25,1.16.65,1.56s.95.64,1.56.64c1.22,0,2.21-1,2.19-2.22v-2.73c0-.61-.25-1.15-.65-1.55h0ZM145.67,134.45h-.02c-.73,0-1.32.61-1.31,1.34.05,3.45-1.76,6.93-4.61,8.88-2.84,1.94-6.75,2.36-9.94,1.06-3.2-1.3-5.7-4.32-6.39-7.7-.15-.72-.85-1.18-1.57-1.04-.72.15-1.19.85-1.04,1.57h.01c.87,4.31,3.93,7.99,7.99,9.64,1.58.64,3.26.95,4.94.95,2.65,0,5.29-.78,7.5-2.29,3.62-2.47,5.83-6.72,5.77-11.1,0-.73-.6-1.31-1.33-1.31h0ZM145.67,134.45h-.02c-.73,0-1.32.61-1.31,1.34.05,3.45-1.76,6.93-4.61,8.88-2.84,1.94-6.75,2.36-9.94,1.06-3.2-1.3-5.7-4.32-6.39-7.7-.15-.72-.85-1.18-1.57-1.04-.72.15-1.19.85-1.04,1.57h.01c.87,4.31,3.93,7.99,7.99,9.64,1.58.64,3.26.95,4.94.95,2.65,0,5.29-.78,7.5-2.29,3.62-2.47,5.83-6.72,5.77-11.1,0-.73-.6-1.31-1.33-1.31h0ZM137.88,125.48c-.4-.4-.95-.65-1.56-.65-1.22.01-2.21,1-2.19,2.22v2.73c0,.61.25,1.16.65,1.56s.95.64,1.56.64c1.22,0,2.21-1,2.19-2.22v-2.73c0-.61-.25-1.15-.65-1.55h0ZM130.9,130.78c-.07-1.12-.34-2.23-.79-3.26-.49-1.12-1.79-1.64-2.91-1.14-1.12.49-1.63,1.79-1.14,2.91h.01c.29.67.44,1.41.43,2.15-.02.95.57,1.8,1.46,2.12.24.09.49.13.74.13.62,0,1.24-.25,1.67-.7.55-.58.75-1.45.53-2.21h0ZM130.9,130.78c-.07-1.12-.34-2.23-.79-3.26-.49-1.12-1.79-1.64-2.91-1.14-1.12.49-1.63,1.79-1.14,2.91h.01c.29.67.44,1.41.43,2.15-.02.95.57,1.8,1.46,2.12.24.09.49.13.74.13.62,0,1.24-.25,1.67-.7.55-.58.75-1.45.53-2.21h0ZM137.88,125.48c-.4-.4-.95-.65-1.56-.65-1.22.01-2.21,1-2.19,2.22v2.73c0,.61.25,1.16.65,1.56s.95.64,1.56.64c1.22,0,2.21-1,2.19-2.22v-2.73c0-.61-.25-1.15-.65-1.55h0ZM145.67,134.45h-.02c-.73,0-1.32.61-1.31,1.34.05,3.45-1.76,6.93-4.61,8.88-2.84,1.94-6.75,2.36-9.94,1.06-3.2-1.3-5.7-4.32-6.39-7.7-.15-.72-.85-1.18-1.57-1.04-.72.15-1.19.85-1.04,1.57h.01c.87,4.31,3.93,7.99,7.99,9.64,1.58.64,3.26.95,4.94.95,2.65,0,5.29-.78,7.5-2.29,3.62-2.47,5.83-6.72,5.77-11.1,0-.73-.6-1.31-1.33-1.31h0ZM145.67,134.45h-.02c-.73,0-1.32.61-1.31,1.34.05,3.45-1.76,6.93-4.61,8.88-2.84,1.94-6.75,2.36-9.94,1.06-3.2-1.3-5.7-4.32-6.39-7.7-.15-.72-.85-1.18-1.57-1.04-.72.15-1.19.85-1.04,1.57h.01c.87,4.31,3.93,7.99,7.99,9.64,1.58.64,3.26.95,4.94.95,2.65,0,5.29-.78,7.5-2.29,3.62-2.47,5.83-6.72,5.77-11.1,0-.73-.6-1.31-1.33-1.31h0ZM136.34,131.98c1.22,0,2.21-1,2.19-2.22v-2.73c0-.61-.25-1.15-.65-1.55s-.95-.65-1.56-.65c-1.22.01-2.21,1-2.19,2.22v2.73c0,.61.25,1.16.65,1.56s.95.64,1.56.64h0ZM126.07,129.29c.29.67.44,1.41.43,2.15-.02.95.57,1.8,1.46,2.12.24.09.49.13.74.13.62,0,1.24-.25,1.67-.7.55-.58.75-1.45.53-2.21-.07-1.12-.34-2.23-.79-3.26-.49-1.12-1.79-1.64-2.91-1.14-1.12.49-1.63,1.79-1.14,2.91h.01ZM175.3,99.12c-.05-.58-.34-1.12-.79-1.5v.02c-.45-.37-1.02-.55-1.62-.5l-81.09,7.76c-1.21.12-2.11,1.2-1.99,2.41l7.75,81.41c.11,1.14,1.07,2,2.2,2,.07,0,.14,0,.21,0l81.09-7.72c1.22-.12,2.11-1.2,1.99-2.41l-7.75-81.46h0ZM160.07,180.57c0-.21-.02-.42-.11-.62-1.87-3.93-4.32-7.52-7.28-10.67-.5-.54-1.34-.56-1.88-.06-.53.5-.56,1.34-.06,1.87,2.7,2.87,4.94,6.15,6.67,9.72l-35.65,3.39c.18-3.04.67-6.06,1.51-8.99.2-.7-.21-1.44-.91-1.64-.7-.21-1.44.21-1.64.91-.93,3.24-1.46,6.59-1.63,9.97l-6.62.63c.01-.54.04-1.06.06-1.38l.02-.34c.05-1.25.19-2.52.42-3.78.45-2.48,1.25-4.9,2.38-7.18,1.13-2.29,2.56-4.4,4.26-6.27,1.33-1.47,3.32-2.65,5.24-3.79l.75-.45c3.34-2.01,6.96-3.36,10.76-4.04h0c.41-.06.82-.1,1.23-.16.49-.04.96-.11,1.44-.18,2.46-.22,4.89-.16,7.25.21,5.14.8,9.82,3.01,13.53,6.39,4.52,4.12,7.52,9.68,8.47,15.68l-8.21.78h0ZM125.91,116.36c2.5-1.28,5.21-1.91,7.97-1.91,4.01,0,8.12,1.34,11.83,3.96,5.89,4.17,9.19,11.77,8.22,18.92-.8,5.87-4.39,11.18-9.37,13.86-1.72.93-3.66,1.55-5.73,1.9-.59.05-1.18.13-1.77.21-3.29.28-6.83-.1-10.39-1.2-3.66-1.14-6.57-2.76-8.65-4.82-2.32-2.3-3.94-5.45-4.71-9.13-1-4.84-.29-9.92,1.96-13.94,2.36-4.22,5.66-6.73,10.1-7.67h0c.19-.03.38-.1.55-.18h-.01ZM172.66,179.36c0-.06.02-.11,0-.18-1.09-7.02-4.6-13.54-9.88-18.35-3.89-3.55-8.68-5.98-13.93-7.13,5.04-3.59,8.58-9.43,9.45-15.78,1.19-8.74-2.84-18.03-10.04-23.13-7.42-5.26-16.63-6.21-24.1-2.52-5.55,1.25-9.84,4.54-12.76,9.77-2.76,4.94-3.65,11.13-2.43,17,.94,4.53,2.99,8.46,5.93,11.37,2.58,2.56,6.1,4.54,10.44,5.9.28.09.56.15.84.23-.97.47-1.93.99-2.86,1.55l-.74.44c-2.1,1.25-4.48,2.66-6.26,4.63-1.97,2.18-3.64,4.63-4.95,7.29-1.3,2.65-2.23,5.46-2.76,8.34-.27,1.46-.43,2.94-.48,4.41v.27c-.04.46-.08,1.28-.09,2.04l-6.3.6-7.33-77.01,76.69-7.34,7.33,77.05-5.77.55ZM121.83,136.99c-.72.15-1.19.85-1.04,1.57h.01c.87,4.31,3.93,7.99,7.99,9.64,1.58.64,3.26.95,4.94.95,2.65,0,5.29-.78,7.5-2.29,3.62-2.47,5.83-6.72,5.77-11.1,0-.73-.6-1.31-1.33-1.31h-.02c-.73,0-1.32.61-1.31,1.34.05,3.45-1.76,6.93-4.61,8.88-2.84,1.94-6.75,2.36-9.94,1.06-3.2-1.3-5.7-4.32-6.39-7.7-.15-.72-.85-1.18-1.57-1.04h0ZM136.34,131.98c1.22,0,2.21-1,2.19-2.22v-2.73c0-.61-.25-1.15-.65-1.55s-.95-.65-1.56-.65c-1.22.01-2.21,1-2.19,2.22v2.73c0,.61.25,1.16.65,1.56s.95.64,1.56.64h0ZM126.07,129.29c.29.67.44,1.41.43,2.15-.02.95.57,1.8,1.46,2.12.24.09.49.13.74.13.62,0,1.24-.25,1.67-.7.55-.58.75-1.45.53-2.21-.07-1.12-.34-2.23-.79-3.26-.49-1.12-1.79-1.64-2.91-1.14-1.12.49-1.63,1.79-1.14,2.91h.01ZM130.9,130.78c-.07-1.12-.34-2.23-.79-3.26-.49-1.12-1.79-1.64-2.91-1.14-1.12.49-1.63,1.79-1.14,2.91h.01c.29.67.44,1.41.43,2.15-.02.95.57,1.8,1.46,2.12.24.09.49.13.74.13.62,0,1.24-.25,1.67-.7.55-.58.75-1.45.53-2.21h0ZM137.88,125.48c-.4-.4-.95-.65-1.56-.65-1.22.01-2.21,1-2.19,2.22v2.73c0,.61.25,1.16.65,1.56s.95.64,1.56.64c1.22,0,2.21-1,2.19-2.22v-2.73c0-.61-.25-1.15-.65-1.55h0ZM145.67,134.45h-.02c-.73,0-1.32.61-1.31,1.34.05,3.45-1.76,6.93-4.61,8.88-2.84,1.94-6.75,2.36-9.94,1.06-3.2-1.3-5.7-4.32-6.39-7.7-.15-.72-.85-1.18-1.57-1.04-.72.15-1.19.85-1.04,1.57h.01c.87,4.31,3.93,7.99,7.99,9.64,1.58.64,3.26.95,4.94.95,2.65,0,5.29-.78,7.5-2.29,3.62-2.47,5.83-6.72,5.77-11.1,0-.73-.6-1.31-1.33-1.31h0ZM145.67,134.45h-.02c-.73,0-1.32.61-1.31,1.34.05,3.45-1.76,6.93-4.61,8.88-2.84,1.94-6.75,2.36-9.94,1.06-3.2-1.3-5.7-4.32-6.39-7.7-.15-.72-.85-1.18-1.57-1.04-.72.15-1.19.85-1.04,1.57h.01c.87,4.31,3.93,7.99,7.99,9.64,1.58.64,3.26.95,4.94.95,2.65,0,5.29-.78,7.5-2.29,3.62-2.47,5.83-6.72,5.77-11.1,0-.73-.6-1.31-1.33-1.31h0ZM137.88,125.48c-.4-.4-.95-.65-1.56-.65-1.22.01-2.21,1-2.19,2.22v2.73c0,.61.25,1.16.65,1.56s.95.64,1.56.64c1.22,0,2.21-1,2.19-2.22v-2.73c0-.61-.25-1.15-.65-1.55h0ZM130.9,130.78c-.07-1.12-.34-2.23-.79-3.26-.49-1.12-1.79-1.64-2.91-1.14-1.12.49-1.63,1.79-1.14,2.91h.01c.29.67.44,1.41.43,2.15-.02.95.57,1.8,1.46,2.12.24.09.49.13.74.13.62,0,1.24-.25,1.67-.7.55-.58.75-1.45.53-2.21h0ZM130.9,130.78c-.07-1.12-.34-2.23-.79-3.26-.49-1.12-1.79-1.64-2.91-1.14-1.12.49-1.63,1.79-1.14,2.91h.01c.29.67.44,1.41.43,2.15-.02.95.57,1.8,1.46,2.12.24.09.49.13.74.13.62,0,1.24-.25,1.67-.7.55-.58.75-1.45.53-2.21h0ZM137.88,125.48c-.4-.4-.95-.65-1.56-.65-1.22.01-2.21,1-2.19,2.22v2.73c0,.61.25,1.16.65,1.56s.95.64,1.56.64c1.22,0,2.21-1,2.19-2.22v-2.73c0-.61-.25-1.15-.65-1.55h0ZM145.67,134.45h-.02c-.73,0-1.32.61-1.31,1.34.05,3.45-1.76,6.93-4.61,8.88-2.84,1.94-6.75,2.36-9.94,1.06-3.2-1.3-5.7-4.32-6.39-7.7-.15-.72-.85-1.18-1.57-1.04-.72.15-1.19.85-1.04,1.57h.01c.87,4.31,3.93,7.99,7.99,9.64,1.58.64,3.26.95,4.94.95,2.65,0,5.29-.78,7.5-2.29,3.62-2.47,5.83-6.72,5.77-11.1,0-.73-.6-1.31-1.33-1.31h0ZM145.67,134.45h-.02c-.73,0-1.32.61-1.31,1.34.05,3.45-1.76,6.93-4.61,8.88-2.84,1.94-6.75,2.36-9.94,1.06-3.2-1.3-5.7-4.32-6.39-7.7-.15-.72-.85-1.18-1.57-1.04-.72.15-1.19.85-1.04,1.57h.01c.87,4.31,3.93,7.99,7.99,9.64,1.58.64,3.26.95,4.94.95,2.65,0,5.29-.78,7.5-2.29,3.62-2.47,5.83-6.72,5.77-11.1,0-.73-.6-1.31-1.33-1.31h0ZM137.88,125.48c-.4-.4-.95-.65-1.56-.65-1.22.01-2.21,1-2.19,2.22v2.73c0,.61.25,1.16.65,1.56s.95.64,1.56.64c1.22,0,2.21-1,2.19-2.22v-2.73c0-.61-.25-1.15-.65-1.55h0ZM130.9,130.78c-.07-1.12-.34-2.23-.79-3.26-.49-1.12-1.79-1.64-2.91-1.14-1.12.49-1.63,1.79-1.14,2.91h.01c.29.67.44,1.41.43,2.15-.02.95.57,1.8,1.46,2.12.24.09.49.13.74.13.62,0,1.24-.25,1.67-.7.55-.58.75-1.45.53-2.21h0ZM130.9,130.78c-.07-1.12-.34-2.23-.79-3.26-.49-1.12-1.79-1.64-2.91-1.14-1.12.49-1.63,1.79-1.14,2.91h.01c.29.67.44,1.41.43,2.15-.02.95.57,1.8,1.46,2.12.24.09.49.13.74.13.62,0,1.24-.25,1.67-.7.55-.58.75-1.45.53-2.21h0ZM137.88,125.48c-.4-.4-.95-.65-1.56-.65-1.22.01-2.21,1-2.19,2.22v2.73c0,.61.25,1.16.65,1.56s.95.64,1.56.64c1.22,0,2.21-1,2.19-2.22v-2.73c0-.61-.25-1.15-.65-1.55h0ZM145.67,134.45h-.02c-.73,0-1.32.61-1.31,1.34.05,3.45-1.76,6.93-4.61,8.88-2.84,1.94-6.75,2.36-9.94,1.06-3.2-1.3-5.7-4.32-6.39-7.7-.15-.72-.85-1.18-1.57-1.04-.72.15-1.19.85-1.04,1.57h.01c.87,4.31,3.93,7.99,7.99,9.64,1.58.64,3.26.95,4.94.95,2.65,0,5.29-.78,7.5-2.29,3.62-2.47,5.83-6.72,5.77-11.1,0-.73-.6-1.31-1.33-1.31h0ZM145.67,134.45h-.02c-.73,0-1.32.61-1.31,1.34.05,3.45-1.76,6.93-4.61,8.88-2.84,1.94-6.75,2.36-9.94,1.06-3.2-1.3-5.7-4.32-6.39-7.7-.15-.72-.85-1.18-1.57-1.04-.72.15-1.19.85-1.04,1.57h.01c.87,4.31,3.93,7.99,7.99,9.64,1.58.64,3.26.95,4.94.95,2.65,0,5.29-.78,7.5-2.29,3.62-2.47,5.83-6.72,5.77-11.1,0-.73-.6-1.31-1.33-1.31h0ZM130.9,130.78c-.07-1.12-.34-2.23-.79-3.26-.49-1.12-1.79-1.64-2.91-1.14-1.12.49-1.63,1.79-1.14,2.91h.01c.29.67.44,1.41.43,2.15-.02.95.57,1.8,1.46,2.12.24.09.49.13.74.13.62,0,1.24-.25,1.67-.7.55-.58.75-1.45.53-2.21h0ZM137.88,125.48c-.4-.4-.95-.65-1.56-.65-1.22.01-2.21,1-2.19,2.22v2.73c0,.61.25,1.16.65,1.56s.95.64,1.56.64c1.22,0,2.21-1,2.19-2.22v-2.73c0-.61-.25-1.15-.65-1.55h0Z"/>
      <path d="M203.96,218.22l-11.73-122.49c-.21-2.26-1.29-4.3-3.04-5.75h0l-.46-.34-4.78-3.67-.07-.05h-.02c-1.75-1.44-3.96-2.11-6.2-1.9l-93.01,8.91c-4.66.45-8.09,4.6-7.64,9.26l11.72,122.43c.23,2.46,1.47,4.77,3.3,6.15l.13.1,4.87,3.52c1.48,1.25,3.41,1.99,5.46,1.99.27,0,.54,0,.81-.04l93.01-8.85c4.66-.44,8.09-4.6,7.65-9.26h0ZM190.59,219.01h0l-93.01,8.86c-1.55.15-2.99-.6-3.79-1.83-.36-.53-.59-1.16-.65-1.84l-11.72-122.43c-.21-2.23,1.43-4.22,3.66-4.44l93.01-8.91c.13,0,.26-.02.39-.02.21,0,.41.02.62.05.71.11,1.39.41,1.97.88.84.69,1.36,1.67,1.46,2.75l11.73,122.49c.21,2.23-1.43,4.23-3.67,4.44h0Z"/>
      <path d="M121.44,202.61c.32,3.7-1.87,8.65-7.45,11.35-.3.15-.63.22-.96.22-.08,0-.16,0-.24,0-5.31-.58-9.08-4.86-10.06-8.8-.64-2.58-.02-4.8,1.66-5.93,1.8-1.22,4.22-.95,7.21.81,2.65-2.78,4.88-2.95,6.36-2.52,1.94.56,3.28,2.43,3.48,4.88h0Z"/>
      <path d="M130.9,130.78c-.07-1.12-.34-2.23-.79-3.26-.49-1.12-1.79-1.64-2.91-1.14-1.12.49-1.63,1.79-1.14,2.91h.01c.29.67.44,1.41.43,2.15-.02.95.57,1.8,1.46,2.12.24.09.49.13.74.13.62,0,1.24-.25,1.67-.7.55-.58.75-1.45.53-2.21h0ZM137.88,125.48c-.4-.4-.95-.65-1.56-.65-1.22.01-2.21,1-2.19,2.22v2.73c0,.61.25,1.16.65,1.56s.95.64,1.56.64c1.22,0,2.21-1,2.19-2.22v-2.73c0-.61-.25-1.15-.65-1.55h0ZM145.67,134.45h-.02c-.73,0-1.32.61-1.31,1.34.05,3.45-1.76,6.93-4.61,8.88-2.84,1.94-6.75,2.36-9.94,1.06-3.2-1.3-5.7-4.32-6.39-7.7-.15-.72-.85-1.18-1.57-1.04-.72.15-1.19.85-1.04,1.57h.01c.87,4.31,3.93,7.99,7.99,9.64,1.58.64,3.26.95,4.94.95,2.65,0,5.29-.78,7.5-2.29,3.62-2.47,5.83-6.72,5.77-11.1,0-.73-.6-1.31-1.33-1.31h0ZM145.67,134.45h-.02c-.73,0-1.32.61-1.31,1.34.05,3.45-1.76,6.93-4.61,8.88-2.84,1.94-6.75,2.36-9.94,1.06-3.2-1.3-5.7-4.32-6.39-7.7-.15-.72-.85-1.18-1.57-1.04-.72.15-1.19.85-1.04,1.57h.01c.87,4.31,3.93,7.99,7.99,9.64,1.58.64,3.26.95,4.94.95,2.65,0,5.29-.78,7.5-2.29,3.62-2.47,5.83-6.72,5.77-11.1,0-.73-.6-1.31-1.33-1.31h0ZM136.34,131.98c1.22,0,2.21-1,2.19-2.22v-2.73c0-.61-.25-1.15-.65-1.55s-.95-.65-1.56-.65c-1.22.01-2.21,1-2.19,2.22v2.73c0,.61.25,1.16.65,1.56s.95.64,1.56.64h0ZM126.07,129.29c.29.67.44,1.41.43,2.15-.02.95.57,1.8,1.46,2.12.24.09.49.13.74.13.62,0,1.24-.25,1.67-.7.55-.58.75-1.45.53-2.21-.07-1.12-.34-2.23-.79-3.26-.49-1.12-1.79-1.64-2.91-1.14-1.12.49-1.63,1.79-1.14,2.91h.01ZM175.3,99.12c-.05-.58-.34-1.12-.79-1.5v.02c-.45-.37-1.02-.55-1.62-.5l-81.09,7.76c-1.21.12-2.11,1.2-1.99,2.41l7.75,81.41c.11,1.14,1.07,2,2.2,2,.07,0,.14,0,.21,0l81.09-7.72c1.22-.12,2.11-1.2,1.99-2.41l-7.75-81.46h0ZM160.07,180.57c0-.21-.02-.42-.11-.62-1.87-3.93-4.32-7.52-7.28-10.67-.5-.54-1.34-.56-1.88-.06-.53.5-.56,1.34-.06,1.87,2.7,2.87,4.94,6.15,6.67,9.72l-35.65,3.39c.18-3.04.67-6.06,1.51-8.99.2-.7-.21-1.44-.91-1.64-.7-.21-1.44.21-1.64.91-.93,3.24-1.46,6.59-1.63,9.97l-6.62.63c.01-.54.04-1.06.06-1.38l.02-.34c.05-1.25.19-2.52.42-3.78.45-2.48,1.25-4.9,2.38-7.18,1.13-2.29,2.56-4.4,4.26-6.27,1.33-1.47,3.32-2.65,5.24-3.79l.75-.45c3.34-2.01,6.96-3.36,10.76-4.04h0c.41-.06.82-.1,1.23-.16.49-.04.96-.11,1.44-.18,2.46-.22,4.89-.16,7.25.21,5.14.8,9.82,3.01,13.53,6.39,4.52,4.12,7.52,9.68,8.47,15.68l-8.21.78h0ZM125.91,116.36c2.5-1.28,5.21-1.91,7.97-1.91,4.01,0,8.12,1.34,11.83,3.96,5.89,4.17,9.19,11.77,8.22,18.92-.8,5.87-4.39,11.18-9.37,13.86-1.72.93-3.66,1.55-5.73,1.9-.59.05-1.18.13-1.77.21-3.29.28-6.83-.1-10.39-1.2-3.66-1.14-6.57-2.76-8.65-4.82-2.32-2.3-3.94-5.45-4.71-9.13-1-4.84-.29-9.92,1.96-13.94,2.36-4.22,5.66-6.73,10.1-7.67h0c.19-.03.38-.1.55-.18h-.01ZM172.66,179.36c0-.06.02-.11,0-.18-1.09-7.02-4.6-13.54-9.88-18.35-3.89-3.55-8.68-5.98-13.93-7.13,5.04-3.59,8.58-9.43,9.45-15.78,1.19-8.74-2.84-18.03-10.04-23.13-7.42-5.26-16.63-6.21-24.1-2.52-5.55,1.25-9.84,4.54-12.76,9.77-2.76,4.94-3.65,11.13-2.43,17,.94,4.53,2.99,8.46,5.93,11.37,2.58,2.56,6.1,4.54,10.44,5.9.28.09.56.15.84.23-.97.47-1.93.99-2.86,1.55l-.74.44c-2.1,1.25-4.48,2.66-6.26,4.63-1.97,2.18-3.64,4.63-4.95,7.29-1.3,2.65-2.23,5.46-2.76,8.34-.27,1.46-.43,2.94-.48,4.41v.27c-.04.46-.08,1.28-.09,2.04l-6.3.6-7.33-77.01,76.69-7.34,7.33,77.05-5.77.55ZM121.83,136.99c-.72.15-1.19.85-1.04,1.57h.01c.87,4.31,3.93,7.99,7.99,9.64,1.58.64,3.26.95,4.94.95,2.65,0,5.29-.78,7.5-2.29,3.62-2.47,5.83-6.72,5.77-11.1,0-.73-.6-1.31-1.33-1.31h-.02c-.73,0-1.32.61-1.31,1.34.05,3.45-1.76,6.93-4.61,8.88-2.84,1.94-6.75,2.36-9.94,1.06-3.2-1.3-5.7-4.32-6.39-7.7-.15-.72-.85-1.18-1.57-1.04h0ZM136.34,131.98c1.22,0,2.21-1,2.19-2.22v-2.73c0-.61-.25-1.15-.65-1.55s-.95-.65-1.56-.65c-1.22.01-2.21,1-2.19,2.22v2.73c0,.61.25,1.16.65,1.56s.95.64,1.56.64h0ZM126.07,129.29c.29.67.44,1.41.43,2.15-.02.95.57,1.8,1.46,2.12.24.09.49.13.74.13.62,0,1.24-.25,1.67-.7.55-.58.75-1.45.53-2.21-.07-1.12-.34-2.23-.79-3.26-.49-1.12-1.79-1.64-2.91-1.14-1.12.49-1.63,1.79-1.14,2.91h.01ZM130.9,130.78c-.07-1.12-.34-2.23-.79-3.26-.49-1.12-1.79-1.64-2.91-1.14-1.12.49-1.63,1.79-1.14,2.91h.01c.29.67.44,1.41.43,2.15-.02.95.57,1.8,1.46,2.12.24.09.49.13.74.13.62,0,1.24-.25,1.67-.7.55-.58.75-1.45.53-2.21h0ZM137.88,125.48c-.4-.4-.95-.65-1.56-.65-1.22.01-2.21,1-2.19,2.22v2.73c0,.61.25,1.16.65,1.56s.95.64,1.56.64c1.22,0,2.21-1,2.19-2.22v-2.73c0-.61-.25-1.15-.65-1.55h0ZM145.67,134.45h-.02c-.73,0-1.32.61-1.31,1.34.05,3.45-1.76,6.93-4.61,8.88-2.84,1.94-6.75,2.36-9.94,1.06-3.2-1.3-5.7-4.32-6.39-7.7-.15-.72-.85-1.18-1.57-1.04-.72.15-1.19.85-1.04,1.57h.01c.87,4.31,3.93,7.99,7.99,9.64,1.58.64,3.26.95,4.94.95,2.65,0,5.29-.78,7.5-2.29,3.62-2.47,5.83-6.72,5.77-11.1,0-.73-.6-1.31-1.33-1.31h0ZM145.67,134.45h-.02c-.73,0-1.32.61-1.31,1.34.05,3.45-1.76,6.93-4.61,8.88-2.84,1.94-6.75,2.36-9.94,1.06-3.2-1.3-5.7-4.32-6.39-7.7-.15-.72-.85-1.18-1.57-1.04-.72.15-1.19.85-1.04,1.57h.01c.87,4.31,3.93,7.99,7.99,9.64,1.58.64,3.26.95,4.94.95,2.65,0,5.29-.78,7.5-2.29,3.62-2.47,5.83-6.72,5.77-11.1,0-.73-.6-1.31-1.33-1.31h0ZM137.88,125.48c-.4-.4-.95-.65-1.56-.65-1.22.01-2.21,1-2.19,2.22v2.73c0,.61.25,1.16.65,1.56s.95.64,1.56.64c1.22,0,2.21-1,2.19-2.22v-2.73c0-.61-.25-1.15-.65-1.55h0ZM130.9,130.78c-.07-1.12-.34-2.23-.79-3.26-.49-1.12-1.79-1.64-2.91-1.14-1.12.49-1.63,1.79-1.14,2.91h.01c.29.67.44,1.41.43,2.15-.02.95.57,1.8,1.46,2.12.24.09.49.13.74.13.62,0,1.24-.25,1.67-.7.55-.58.75-1.45.53-2.21h0Z"/>
      <path d="M184.13,197.65c.12,1.22-.77,2.29-1.99,2.41-6.83.65-17.84,1.74-28.26,2.77-9.41.93-18.33,1.81-23.23,2.27-.07,0-.14,0-.21,0-1.13,0-2.09-.86-2.2-2-.11-1.22.78-2.29,1.99-2.41,4.89-.47,13.81-1.35,23.21-2.27,10.42-1.03,21.44-2.12,28.27-2.77h0c1.19-.13,2.29.77,2.41,1.99Z"/>
    </g>
  </g>
</svg>