<?xml version="1.0" encoding="UTF-8"?>
<svg id="objects" xmlns="http://www.w3.org/2000/svg" viewBox="0 0 294 303.47">
  <defs>
    <style>
      .cls-1 {
        fill: #fff;
      }

      .cls-2 {
        fill: #f2c316;
      }

      .cls-3 {
        fill: none;
        stroke: #000;
        stroke-miterlimit: 10;
        stroke-width: 2px;
      }
    </style>
  </defs>
  <g>
    <path class="cls-3" d="M42.4,51.66c-7.04,5.97-19.35,17.24-26.84,42.02-4.89,16.17-10.26,35.66-12.31,52.42-2.17,17.75-2.09,34.78.55,52.45,2.74,18.35,8.7,33.38,18.67,47.46,11.14,13.98,22.86,26.42,41.94,32.47"/>
    <path class="cls-3" d="M191.99,36.96c10.55-11.63,21.86-23.06,36.02-29.82,19.62-9.36,33.73-5.86,44.9,5.17,9.2,9.08,10.98,18.73,14.78,30.86,4.73,15.1,7.07,65.17-7.8,104.24"/>
    <path class="cls-2" d="M54.5,18.29C77.33,7.56,101.33,3.66,125.76,7.36c24.43,3.68,45.25,11.94,66.51,24.51,25.8,15.25,47.21,33.75,65.19,58.05,17.83,24.09,33.85,54.13,35.57,84.05,2.4,41.68-12.14,69.28-38.69,91.2-28.43,23.47-62.67,32.57-93.73,36.3-7.35.88-40.43,2.45-60.25-.27-21.04-2.88-39.62-12.11-48.43-27.79-10.95-19.5-4.95-37.83.68-62.87,4.92-21.82,10.11-48.51.52-68.71-6.87-14.45-15.58-26.59-23.56-39.55-9.07-14.73-11.01-28.47-7.88-43.35,3.87-18.36,16.44-32.97,32.8-40.65h0s0,0,0,0Z"/>
  </g>
  <g>
    <path d="M270.86,109.69s8.04-.16,9.22,9.65,3.08,64.75,3.08,64.75c0,0,1.15,6.67-7.63,7.36s-104.62,4.5-104.62,4.5c0,0-5.09-1.05-7.86-5.7s3.22-.43,3.22-.43"/>
    <g>
      <path class="cls-1" d="M275.63,115.82l.68,14.41.73,15.18,1.68,35.29c.17,3.52-1.88,6.39-4.68,6.63h-.16s-106.43,5.09-106.43,5.09c-1.64.08-3.24-.72-4.39-2.18-1-1.28-1.6-2.97-1.68-4.77l-.04-.85-66.52,14.44c-.2.04-.41.08-.61.09-1.41.12-2.87-.41-4.07-1.51-1.2-1.08-2.07-2.65-2.46-4.41l-13.66-61.83c-.87-3.95.9-7.59,4.04-8.29h.01s108.88-23.64,108.88-23.64c1.44-.32,3,.14,4.24,1.27,1.06.96,1.83,2.34,2.17,3.88l1.9,8.61,74.92-3.57c1.49-.07,2.94.65,3.97,1.96.88,1.13,1.41,2.62,1.48,4.19Z"/>
      <path d="M105.12,131.84c-1.87-1.13-5.8-2.55-11.16.7-3.62,2.19-4.88,7.2-2.92,11.66,1.42,3.23,4.86,6.4,10.18,5.96.87-.07,1.78-.25,2.75-.52.05-.02.11-.04.16-.06,3.47-1.54,5.59-4.52,5.83-8.18.24-3.82-1.7-7.66-4.83-9.55ZM107.42,141.24c-.1,1.56-.79,4.41-4.25,5.99-5.27,1.49-8.52-1.1-9.82-4.04-1.23-2.8-.98-6.72,1.92-8.47,1.56-.95,3.09-1.48,4.53-1.6s2.81.17,4.01.9c2.34,1.41,3.79,4.32,3.61,7.23ZM122.63,174.3l-1.69-8.55c-.06-.34-.26-.63-.55-.82-.29-.19-.64-.25-.98-.18-2.71.63-6.71,1.43-10.58,2.21-3.88.78-7.89,1.58-10.64,2.21-.67.15-1.1.81-.96,1.48l1.68,8.55c.07.34.27.63.56.82.24.15.51.22.8.2.06,0,.12,0,.17-.02,2.72-.63,6.73-1.43,10.61-2.21,3.87-.78,7.87-1.58,10.61-2.21.67-.15,1.09-.81.96-1.48ZM110.55,175.51c-3.33.66-6.76,1.36-9.4,1.93l-1.19-6.06c2.62-.58,6.04-1.27,9.38-1.93,3.32-.67,6.73-1.35,9.37-1.93l1.19,6.06c-2.62.58-6.03,1.26-9.35,1.93ZM154.31,167.29l-1.68-8.56c-.07-.34-.27-.63-.56-.82s-.63-.25-.97-.17l-21.57,4.95c-.67.15-1.09.8-.96,1.48l1.69,8.55c.06.34.26.63.55.82.24.15.52.22.8.2.06,0,.12-.02.18-.03l21.57-4.95c.66-.15,1.09-.8.96-1.48ZM132.49,170.96l-1.19-6.07,19.1-4.38,1.19,6.07-19.1,4.38ZM190.23,159.17l-1.68-8.56c-.06-.34-.26-.63-.55-.82s-.64-.25-.98-.17l-26.5,6.08c-.66.15-1.09.81-.96,1.48l1.68,8.56c.07.34.27.63.56.81.24.15.51.23.79.21.06,0,.12-.02.18-.03l26.5-6.09c.66-.15,1.09-.8.96-1.48ZM163.48,163.97l-1.19-6.07,24.03-5.52,1.19,6.06-24.03,5.52ZM105.12,131.84c-1.87-1.13-5.8-2.55-11.16.7-3.62,2.19-4.88,7.2-2.92,11.66,1.42,3.23,4.86,6.4,10.18,5.96.87-.07,1.78-.25,2.75-.52.05-.02.11-.04.16-.06,3.47-1.54,5.59-4.52,5.83-8.18.24-3.82-1.7-7.66-4.83-9.55ZM107.42,141.24c-.1,1.56-.79,4.41-4.25,5.99-5.27,1.49-8.52-1.1-9.82-4.04-1.23-2.8-.98-6.72,1.92-8.47,1.56-.95,3.09-1.48,4.53-1.6s2.81.17,4.01.9c2.34,1.41,3.79,4.32,3.61,7.23ZM122.63,174.3l-1.69-8.55c-.06-.34-.26-.63-.55-.82-.29-.19-.64-.25-.98-.18-2.71.63-6.71,1.43-10.58,2.21-3.88.78-7.89,1.58-10.64,2.21-.67.15-1.1.81-.96,1.48l1.68,8.55c.07.34.27.63.56.82.24.15.51.22.8.2.06,0,.12,0,.17-.02,2.72-.63,6.73-1.43,10.61-2.21,3.87-.78,7.87-1.58,10.61-2.21.67-.15,1.09-.81.96-1.48ZM110.55,175.51c-3.33.66-6.76,1.36-9.4,1.93l-1.19-6.06c2.62-.58,6.04-1.27,9.38-1.93,3.32-.67,6.73-1.35,9.37-1.93l1.19,6.06c-2.62.58-6.03,1.26-9.35,1.93ZM154.31,167.29l-1.68-8.56c-.07-.34-.27-.63-.56-.82s-.63-.25-.97-.17l-21.57,4.95c-.67.15-1.09.8-.96,1.48l1.69,8.55c.06.34.26.63.55.82.24.15.52.22.8.2.06,0,.12-.02.18-.03l21.57-4.95c.66-.15,1.09-.8.96-1.48ZM132.49,170.96l-1.19-6.07,19.1-4.38,1.19,6.07-19.1,4.38ZM190.23,159.17l-1.68-8.56c-.06-.34-.26-.63-.55-.82s-.64-.25-.98-.17l-26.5,6.08c-.66.15-1.09.81-.96,1.48l1.68,8.56c.07.34.27.63.56.81.24.15.51.23.79.21.06,0,.12-.02.18-.03l26.5-6.09c.66-.15,1.09-.8.96-1.48ZM163.48,163.97l-1.19-6.07,24.03-5.52,1.19,6.06-24.03,5.52ZM105.12,131.84c-1.87-1.13-5.8-2.55-11.16.7-3.62,2.19-4.88,7.2-2.92,11.66,1.42,3.23,4.86,6.4,10.18,5.96.87-.07,1.78-.25,2.75-.52.05-.02.11-.04.16-.06,3.47-1.54,5.59-4.52,5.83-8.18.24-3.82-1.7-7.66-4.83-9.55ZM107.42,141.24c-.1,1.56-.79,4.41-4.25,5.99-5.27,1.49-8.52-1.1-9.82-4.04-1.23-2.8-.98-6.72,1.92-8.47,1.56-.95,3.09-1.48,4.53-1.6s2.81.17,4.01.9c2.34,1.41,3.79,4.32,3.61,7.23ZM122.63,174.3l-1.69-8.55c-.06-.34-.26-.63-.55-.82-.29-.19-.64-.25-.98-.18-2.71.63-6.71,1.43-10.58,2.21-3.88.78-7.89,1.58-10.64,2.21-.67.15-1.1.81-.96,1.48l1.68,8.55c.07.34.27.63.56.82.24.15.51.22.8.2.06,0,.12,0,.17-.02,2.72-.63,6.73-1.43,10.61-2.21,3.87-.78,7.87-1.58,10.61-2.21.67-.15,1.09-.81.96-1.48ZM110.55,175.51c-3.33.66-6.76,1.36-9.4,1.93l-1.19-6.06c2.62-.58,6.04-1.27,9.38-1.93,3.32-.67,6.73-1.35,9.37-1.93l1.19,6.06c-2.62.58-6.03,1.26-9.35,1.93ZM154.31,167.29l-1.68-8.56c-.07-.34-.27-.63-.56-.82s-.63-.25-.97-.17l-21.57,4.95c-.67.15-1.09.8-.96,1.48l1.69,8.55c.06.34.26.63.55.82.24.15.52.22.8.2.06,0,.12-.02.18-.03l21.57-4.95c.66-.15,1.09-.8.96-1.48ZM132.49,170.96l-1.19-6.07,19.1-4.38,1.19,6.07-19.1,4.38ZM190.23,159.17l-1.68-8.56c-.06-.34-.26-.63-.55-.82s-.64-.25-.98-.17l-26.5,6.08c-.66.15-1.09.81-.96,1.48l1.68,8.56c.07.34.27.63.56.81.24.15.51.23.79.21.06,0,.12-.02.18-.03l26.5-6.09c.66-.15,1.09-.8.96-1.48ZM163.48,163.97l-1.19-6.07,24.03-5.52,1.19,6.06-24.03,5.52Z"/>
      <path d="M274.14,111.62c-1.03-1.32-2.48-2.03-3.97-1.96l-74.92,3.57-1.9-8.61c-.34-1.54-1.11-2.92-2.17-3.88-1.24-1.13-2.79-1.59-4.24-1.27l-108.88,23.64h-.01c-3.14.7-4.91,4.34-4.04,8.29l13.66,61.83c.39,1.76,1.26,3.33,2.46,4.41,1.2,1.09,2.66,1.62,4.07,1.51.21-.02.41-.05.61-.09l66.52-14.44.04.85c.08,1.8.68,3.49,1.68,4.77,1.15,1.47,2.75,2.26,4.39,2.18l106.43-5.07h.16c2.8-.25,4.85-3.12,4.68-6.64l-1.68-35.29-.73-15.18-.68-14.41c-.08-1.58-.6-3.07-1.48-4.19ZM93.91,194.93c-.25.06-.61-.1-.96-.41-.54-.49-.97-1.29-1.17-2.2l-13.66-61.82c-.39-1.77.24-3.13.83-3.26l108.89-23.64c.07-.04.24.04.5.27.41.38.73.98.89,1.67l8.17,37.02c-.11.39,0,.8.25,1.12l5.58,25.29c.3,1.38-.21,2.29-.43,2.34l-108.89,23.64ZM274.5,180.89c.07,1.4-.59,2.21-.82,2.23l-106.43,5.07c-.25,0-.57-.2-.86-.57-.45-.58-.74-1.44-.79-2.37l-.08-1.56,38.19-8.29c2.82-.62,4.42-3.86,3.65-7.36l-3.76-17.03,69.32-3.3,1.58,33.18ZM271.78,123.81l-73.41,3.5-2.19-9.9,74.19-3.53c.06,0,.24.08.45.35.34.44.56,1.09.59,1.79l.37,7.79Z"/>
    </g>
    <path d="M159.22,182.49c1.19-.1,2.39-.12,3.59-.07.17,0,.36.02.49.13.12.1.16.26.2.4.47,1.8.41,3.77-.16,5.54-18.94,4.32-37.89,8.63-56.83,12.95-3.22.73-6.53,1.47-9.78.92s-7.73-4.22-8.49-7.43c1,1.44,3.13,2.11,4.88,2.28s3.5-.18,5.22-.54c4.23-.87,8.44-1.8,12.66-2.72"/>
    <path d="M192.62,109.72c-.04,1.44.43,2.93,1.49,3.9s2.74,1.3,3.98.57c.28-.16.54-.39.65-.7.08-.24.05-.5.03-.75-.32-2.92-.93-5.88-2.49-8.37s-5.3-5-8.24-4.99c.28.87,1.68,2.34,2.34,2.98"/>
  </g>
</svg>