<?xml version="1.0" encoding="UTF-8"?>
<svg id="objects" xmlns="http://www.w3.org/2000/svg" viewBox="0 0 286 284.39">
  <defs>
    <style>
      .cls-1 {
        fill: #fff;
      }

      .cls-2 {
        fill: #f2c316;
      }

      .cls-3 {
        fill: none;
        stroke: #000;
        stroke-miterlimit: 10;
        stroke-width: 2px;
      }
    </style>
  </defs>
  <g>
    <path class="cls-3" d="M4.98,116.74c9.49,40.27,34.25,76.21,65.82,103.7,31.57,27.49,66.26,45.97,107.64,57,12.19,3.25,31.33,3.4,43.73,1.03s27.04-11.96,34.5-21.92c6.49-8.66,13.91-22.6,16.59-35.26,8.92-42.15,2.41-87.11-15.65-126.4-22.44-48.83-50.64-70.78-91.86-85.93s-96.22-3.96-125.78,17.41c-14.36,10.38-26.36,24.22-32.98,40.45C.39,83.06.97,99.7,4.98,116.74Z"/>
    <path class="cls-2" d="M165.24,12.28c-40.37,10.65-75.86,36.23-102.6,68.29S18.34,147.47,8.54,188.7c-2.89,12.15-2.42,31.05.36,43.23,2.79,12.17,12.95,26.34,23.25,33.39,8.96,6.14,23.27,13.03,36.14,15.28,42.85,7.48,88.04-.36,127.14-19.43,48.58-23.7,69.85-52.25,83.82-93.45s.91-95.17-21.63-123.7c-10.95-13.86-25.31-25.28-41.91-31.3s-33.39-4.94-50.47-.43Z"/>
  </g>
  <g>
    <path class="cls-1" d="M112.11,69.67c8.02-1.16,16.05-2.32,24.08-3.48-2-2.62-3.73-5.35-5.23-8.35-.68-1.35.42-2.73,1.88-2.45,3.52.67,7.03,1.34,10.54,2.02l1.61-10.5c.17-1.07,1.62-1.51,2.45-1,3.84,2.35,7.27,4.94,10.57,7.96,1.59,1.46-.78,3.81-2.36,2.36-2.47-2.26-5.04-4.27-7.8-6.1l-1.49,9.67c-.15.94-1.25,1.32-2.05,1.16-2.91-.55-5.83-1.11-8.75-1.67,1.44,2.44,3.02,4.69,4.95,6.93.71.84.61,2.6-.74,2.79-7.04,1.01-14.08,2.04-21.12,3.05,8.05,3.43,16.11,6.87,24.17,10.3.86.35.99,1.56.6,2.28-1.78,3.24-3.38,6.51-4.86,9.87,3.46-.84,6.93-1.67,10.39-2.51,2.09-.5,2.98,2.71.88,3.21-4.54,1.1-9.09,2.19-13.65,3.29-1.11.27-2.56-.81-2.05-2.05,1.65-4.05,3.49-7.98,5.53-11.85-9.31-3.97-18.62-7.93-27.94-11.91-1.28-.54-.96-2.85.4-3.05Z"/>
    <path class="cls-1" d="M227.3,165.76c-.05,7.22-6.88,13.57-12.34,17.69-14.16,10.69-33.53,11-50.57,11.22-6.61.08-23.09.44-28.77-6.39-3.99,2.56-13.03,1.27-17.14,1.68-4.45.44-16.8,2.94-20.29-1.17-1.51-1.79-.99-4.34-.98-6.47.05-5.73.15-11.45,0-17.19-.29-11.68-1.97-23.59-1.43-35.27-1.48-1.46-.88-4.7,1.82-4.69,7.08.05,14.17.1,21.25.14,3.06.02,7.88-.96,10.89-.24,1.88.45,3,1.49,3.69,2.85,3.61-.91,6.67-2.19,8.94-5.51,1.53-2.21,2.44-4.74,4.17-6.87,4.9-6.09,14.32-9.43,16.31-17.59,2.68-11.05-8.9-25.21,2.46-34.42,9-7.29,20.05,1.6,24.69,9.54,6.3,10.78,5.65,23.5,3.03,35.28,2.52.03,4.93.22,7.02.48,5.63.7,11.55,2.61,14.67,7.73,2.04,3.35,2.74,7.51.71,10.68.95.75,2.38,1.37,2.6,2.63.84,4.81,3.13,7.55,1.44,10.67,3.05,3.74,5.49,10.46,2.9,14.88,2.48,2.34,4.97,5.91,4.95,10.32Z"/>
    <path d="M174.6,184.78c-2.04,0-2.05,3.2,0,3.2s2.06-3.2,0-3.2ZM171.19,185.39c-2.84-.62-5.76-.35-8.65-1.06-3.13-.77-6.21-2-9.09-3.41-.47-.24-1.01.36-.59.77,4.33,4.13,12.34,7.64,18.34,5.4.75-.28.92-1.49,0-1.69ZM174.6,184.78c-2.04,0-2.05,3.2,0,3.2s2.06-3.2,0-3.2ZM171.19,185.39c-2.84-.62-5.76-.35-8.65-1.06-3.13-.77-6.21-2-9.09-3.41-.47-.24-1.01.36-.59.77,4.33,4.13,12.34,7.64,18.34,5.4.75-.28.92-1.49,0-1.69ZM222.35,155.44c2.15-4.34-1.19-15.18-2.9-14.88,1.68-3.14-.66-6.09-1.44-10.67-.21-1.26-1.64-1.89-2.6-2.63,2.04-3.17,1.34-7.32-.71-10.68-3.12-5.12-9.04-7.03-14.67-7.73-2.09-.27-4.5-.45-7.02-.48,2.63-11.79,3.27-24.5-3.03-35.28-4.64-7.93-15.69-16.83-24.69-9.54-11.36,9.21.23,23.37-2.46,34.42-1.99,8.16-11.41,11.5-16.31,17.59-1.73,2.13-2.63,4.66-4.17,6.87-2.27,3.31-5.33,4.59-8.94,5.51-.69-1.36-1.81-2.4-3.69-2.85-3.01-.73-7.84.26-10.89.24-7.08-.04-14.17-.09-21.25-.14-2.7,0-3.3,3.22-1.82,4.69-.54,11.68,1.14,23.59,1.43,35.27.14,5.73.04,11.45,0,17.19,0,2.13-.53,4.68.98,6.47,3.49,4.11,15.84,1.61,20.29,1.17,4.11-.41,13.14.88,17.14-1.68,5.67,6.83,22.16,6.47,28.77,6.39,17.04-.22,36.42-.53,50.57-11.22,5.46-4.12,12.67-10.48,12.34-17.69-.19-4.16-3.02-7.4-4.95-10.32ZM117.34,151.24c-3.01,1.4-6.88.43-7.53-3.12-.36-1.96.06-3.71.93-5.22,1.53-1.51,3.43-2.88,5.24-3.42,1.34.35,2.58.9,3.6,2.1,2.62,3.08,1.31,8-2.24,9.65ZM220.74,154.61c-1.11-.47-2.31-.8-3.6-.94-8.07-.92-24.92,2.28-33.58,9.73-6.85-2.48-4.93-10.07.8-13.21,4.32-2.37,9.81-2.94,14.55-3.93,5.4-1.12,11.88-3.25,16.88-.34,3.91,2.29,3.71,5.14,4.95,8.7ZM216.64,139.2c-8.03-2.67-20.68,1.38-28.04,3.32-1.19.31-2.39.7-3.58,1.16-.08,0-.16-.03-.25-.03-2.68,0-4.44-1.84-5.14-4.22,0-.07.02-.13,0-.2-.48-9.19,13.65-10.09,19.99-10.42,3.64-.19,8.58-.35,11.75,1.55,3.64,2.19,4.33,5.4,5.26,8.83ZM196.88,113.97c4.15.23,9.6.63,12.68,3.82,2.19,2.27,2.56,4.94,2.96,7.68-3.09-1.46-6.65-2.04-10.08-2.09-6.56-.12-15.26.6-21.35,4.14-.3-.12-.63-.2-.96-.23-2.41-.23-4.1-2.42-4.44-4.7.03-.15.06-.29.07-.46.38-9.03,14.92-8.48,21.13-8.16ZM166.13,72.53c2.04,2.04,3.97,4.32,3.98,7.35,0,1.6-.65,3.34-1.91,4.39-.28.24-.57.39-.87.52-.65-2.74-1.73-5.95-1.73-8.98,0-1.13.15-2.24.53-3.29ZM209.31,180.65c-6.32,4.05-13.69,5.97-21.04,6.99-8.69,1.21-17.8,1.54-26.58,1.48-7.13-.04-18,.53-23.83-4.66.75-4.35-1.09-10.81-1.29-13.89-.71-11.19-1.58-22.38-1.99-33.57-.05-1.44-.03-2.99-.12-4.5,8.31-.31,10.66-4.37,15.24-11.32,5.67-8.62,16.87-11.73,18.94-22.82.58-3.07.29-6.03-.29-8.98,2.8-1.16,5.27-4.64,5.58-7.27.59-4.93-2.5-9.6-6.95-11.39,2.85-4.76,8.55-4.88,13.18-1.11,11.32,9.21,9.95,26.34,6.97,39.01-8.18.87-15.98,4.09-17.16,12.72-.08.58-.02,1.09.12,1.54.4,4.03,2.62,7.36,5.99,9.09-1.35,1.97-2.19,4.36-2.31,7.26-.03.65.15,1.18.43,1.6.59,2.66,2.1,4.93,4.2,6.49-3.04,2.42-5.21,5.67-5.39,9.99-.21,4.68,2.42,9.55,6.54,10.89-1.2,2.27-1.67,4.82-1.18,7.62-.09.51-.03,1.07.27,1.65,4.28,8.47,17.59,7.85,24.11,2.49.57-.46.09-1.4-.57-1.4-5.8.04-15.56,3.21-18.9-3.47,0-9.08,12.74-12.49,19.78-14.03,4.75-1.04,14.93-4.62,18.09.65,4.05,6.76-7.15,15.91-11.85,18.93ZM174.6,184.78c-2.04,0-2.05,3.2,0,3.2s2.06-3.2,0-3.2ZM171.19,185.39c-2.84-.62-5.76-.35-8.65-1.06-3.13-.77-6.21-2-9.09-3.41-.47-.24-1.01.36-.59.77,4.33,4.13,12.34,7.64,18.34,5.4.75-.28.92-1.49,0-1.69ZM157.98,53.89c-.62-.59-1.25-1.17-1.9-1.73-1.29-1.1-2.62-2.15-3.99-3.15-1.51-1.1-3.06-2.13-4.65-3.11-.83-.51-2.28-.07-2.45,1l-1.61,10.5c-3.51-.68-7.02-1.35-10.54-2.02-1.46-.29-2.56,1.1-1.88,2.45,1.5,3,3.23,5.73,5.23,8.35-8.02,1.16-16.05,2.32-24.08,3.48-1.37.2-1.68,2.51-.4,3.05,9.32,3.97,18.63,7.93,27.94,11.91-2.04,3.86-3.87,7.8-5.53,11.85-.5,1.25.94,2.32,2.05,2.05,4.55-1.1,9.1-2.19,13.65-3.29,2.09-.5,1.21-3.72-.88-3.21-3.46.84-6.93,1.67-10.39,2.51,1.47-3.36,3.08-6.63,4.86-9.87.39-.72.26-1.93-.6-2.28-8.05-3.43-16.11-6.87-24.17-10.3,7.04-1.01,14.08-2.04,21.12-3.05,1.35-.2,1.45-1.96.74-2.79-1.93-2.24-3.51-4.49-4.95-6.93,2.92.56,5.84,1.12,8.75,1.67.81.16,1.91-.22,2.05-1.16l1.49-9.67c-.01.08.94.63,1.05.71.36.25.72.5,1.07.76.71.51,1.41,1.04,2.09,1.58s1.37,1.1,2.03,1.67c.34.29.67.58,1,.87.26.23.51.47.76.69.54.47.94,1.06,1.5,1.53.6.5,1.32.89,2.1.96.44.04.94-.04,1.24-.38.29-.32.33-.79.24-1.2-.16-.74-.69-1.35-1.26-1.86-.58-.52-1.14-1.05-1.7-1.58ZM159.68,55.47c-.58-.52-1.1-1.08-1.66-1.61-.62-.59-1.28-1.14-1.94-1.7"/>
  </g>
  <path d="M191.16,81.49c-1.47-5.46-4.61-11.21-9.51-14.04-2.52-1.46-4.14-3.58-5.81-5.97,11.08,4.52,19.7,14.83,21.77,26.62.76,4.32.69,8.74.61,13.13-.04,2.07-.26,6.47-1.31,8.26-.63,1.08-1.5-.25-2.73-.04s-2.63-.41-3.07-1.58c-.28-.73-.16-1.55-.04-2.33.5-3.28,1-6.57,1.51-9.85.58-3.79-1.42-7.49-2.37-11.21"/>
  <path d="M219.77,175.7c-4.74,4.32-9.61,8.72-15.56,11.12-3.85,1.55-8,2.2-12.11,2.76-18.03,2.45-38.77,2.84-56.49-1.3,3.32,4.19,10.84,6.96,16.12,7.73s10.66.32,16,.22c8.85-.17,17.74-.39,26.53-1.46,8.79-1.07,16.34-4.79,23.83-9.49,9.26-5.81,11.73-12.98,10.82-20.64-.33-2.79-1.65-5.83-4.32-6.67,2.5-4.3,1.01-10.67-2.68-14.01-.02.11-.04.23-.06.34.92-1.83,1.25-4.59,1.05-6.59-.06-.6-.16-1.8-1.1-3.47-1.05-1.87-2.43-2.9-3.42-2.68,1.51-3.85,1.34-8.32-.47-12.04s-5.22-6.62-9.18-7.81c4.17,2.84,4.57,10.33,5.08,15.34.2,1.98,2.08,1.9,2.78,3.77.64,1.72.93,10.25,1.77,11.88,1.25,2.42,2.46-1.9,2.66.82.38,5.21-.11,9.88,1.69,14.78,1.14,3.1,3.77,6.75,3.72,10.06-.07,4.55-3.63,2.74-6.94,5.87"/>
  <path d="M134.47,97.71s2.19,3.68,5.46,2.72,10.9-2.72,10.9-2.72c0,0,4.77-.41,1.91-3.41s-3.79-2.29-3.79-2.29"/>
  <path d="M140.53,83.54c.56.53.81,1.32.78,2.09s-.29,1.51-.65,2.19-.8,1.31-1.19,1.97c-.87,1.43-1.53,2.99-1.96,4.61-.05.2-.09.44.06.57.08.07.2.09.31.1,1.25.15,2.51-.04,3.75-.29l.17-.3,3.24-5.77s3.03-4.65-2.23-6.35c-.71,0-1.47.07-2.17.19-.13.02-.27.05-.36.16-.08.1-.08.25-.04.37s.19.37.29.46Z"/>
  <path d="M144.98,83.6s-3.06-2.3-7.51-4.23l-14.14-6.06-1.72,1.04,5.71-.92c4.33-.7,8.68-1.28,13.02-1.92,1.43-.21,3.09-.67,3.43-1.66.86-2.48-5.68-8.37-5.68-8.37l8.17,1.42s3.13.9,3.34-1.42.82-10.29.82-10.29l-3.47-2.66-1.7,10.56-11.85-1.16,5.69,10.09-22.92,2.24,8.79,7.08"/>
</svg>