<?xml version="1.0" encoding="UTF-8"?>
<svg id="Layer_1" xmlns="http://www.w3.org/2000/svg" xmlns:xlink="http://www.w3.org/1999/xlink" version="1.1" viewBox="0 0 254.42 169.6">
  <!-- Generator: Adobe Illustrator 30.0.0, SVG Export Plug-In . SVG Version: 2.1.1 Build 123)  -->
  <defs>
    <style>
      .st0 {
        fill: #00abf7;
      }

      .st1 {
        fill: url(#linear-gradient);
      }

      .st2 {
        isolation: isolate;
      }
    </style>
    <linearGradient id="linear-gradient" x1="92" y1="784.08" x2="201.42" y2="692.27" gradientTransform="translate(0 -697.32)" gradientUnits="userSpaceOnUse">
      <stop offset="0" stop-color="#00b5f8"/>
      <stop offset=".25" stop-color="#0091f2"/>
      <stop offset=".51" stop-color="#0093f3"/>
      <stop offset=".75" stop-color="#016dec"/>
    </linearGradient>
  </defs>
  <g class="st2">
    <g class="st2">
      <path class="st0" d="M3.2,146.88v10.78l5.09-10.78h3.36l-4.54,9.18,5.38,13.21h-3.49l-3.81-10.02-1.98,3.46v6.56H0v-22.4h3.2Z"/>
      <path class="st0" d="M17.22,146.88v16.99c0,1.54.74,2.59,2.14,2.59s2.14-1.06,2.14-2.59v-16.99h3.2v16.51c0,4.93-2.94,6.21-5.34,6.21s-5.34-1.28-5.34-6.21v-16.51h3.2Z"/>
      <path class="st0" d="M32.74,146.88c1.63,0,4-.1,5.5,1.76.74.9,1.18,2.24,1.18,3.9v1.7c0,1.44-.51,2.78-1.18,3.55-.48.54-1.12.93-1.7,1.15l3.52,10.33h-3.33l-3.1-9.66h-1.89v9.66h-3.2v-22.4h4.19ZM31.74,156.74h1.82c.7,0,1.38-.16,1.98-.74.64-.61.67-1.15.67-2.02v-1.6c0-.86-.32-1.63-.74-2.05-.64-.64-1.41-.58-2.08-.58h-1.66v6.98Z"/>
      <path class="st0" d="M52.38,146.88v2.46l-6.72,17.05h6.56v2.88h-9.92v-2.82l6.56-16.7h-6.11v-2.88h9.63Z"/>
      <path class="st0" d="M62.05,159.84v9.44h-3.2v-9.54l-4.7-12.86h3.52l2.78,8.9h.19l2.72-8.9h3.39l-4.7,12.96Z"/>
      <path class="st0" d="M84.25,169.28l-1.06-4.8h-4.1l-1.06,4.8h-3.2l4.9-22.4h2.82l4.9,22.4h-3.2ZM81.09,153.12l-1.66,8.51h3.39l-1.73-8.51Z"/>
      <path class="st0" d="M92.89,146.88v22.4h-3.2v-22.4h3.2Z"/>
      <path class="st0" d="M104.19,146.88h4.77c1.38,0,3.07.06,4.48,1.47,1.47,1.5,1.63,3.46,1.63,5.12v.64c0,1.25-.13,3.1-1.38,4.54-1.31,1.5-3.04,1.76-4.42,1.76h-1.89v8.86h-3.2v-22.4ZM107.39,157.54h1.73c.61,0,1.47-.1,2.14-.83.67-.74.61-1.5.61-2.3v-1.47c0-.77.03-1.86-.86-2.59-.74-.61-1.63-.58-2.5-.58h-1.12v7.78Z"/>
      <path class="st0" d="M122.14,146.88c1.63,0,4-.1,5.5,1.76.74.9,1.18,2.24,1.18,3.9v1.7c0,1.44-.51,2.78-1.18,3.55-.48.54-1.12.93-1.7,1.15l3.52,10.33h-3.33l-3.1-9.66h-1.89v9.66h-3.2v-22.4h4.19ZM121.15,156.74h1.82c.7,0,1.38-.16,1.98-.74.64-.61.67-1.15.67-2.02v-1.6c0-.86-.32-1.63-.74-2.05-.64-.64-1.41-.58-2.08-.58h-1.66v6.98Z"/>
      <path class="st0" d="M132.19,146.88h9.5v3.04h-6.3v6.59h5.57v2.88h-5.57v6.85h6.4v3.04h-9.6v-22.4Z"/>
      <path class="st0" d="M158.24,169.28h-2.82l-4.74-22.4h3.52l2.59,15.49h.13l2.69-15.49h3.36l-4.74,22.4Z"/>
      <path class="st0" d="M171.96,152.48c0-.48-.03-1.41-.54-2.05-.29-.35-.77-.74-1.7-.74-.45,0-1.06.1-1.57.61-.61.64-.67,1.54-.67,2.27,0,.61.1,1.73.51,2.34.35.54.99.8,1.47.99l1.95.7c.96.35,2.08.77,2.91,1.92.86,1.18.96,2.46.96,3.87v.77c0,2.27-.61,4-1.54,4.96-.83.86-2.3,1.47-4.16,1.47-2.27,0-3.74-.93-4.48-1.95-1.02-1.38-1.02-3.49-1.02-3.78v-.74h3.2v.61c0,.51.06,1.41.51,1.98.54.67,1.34.74,1.76.74,1.22,0,1.76-.48,2.02-.8.48-.61.51-1.54.51-2.21v-.83c0-.77-.1-1.73-.51-2.3-.42-.58-1.18-.86-1.54-.99l-2.34-.83c-1.15-.42-2.3-.99-2.94-2.5-.45-1.02-.48-2.14-.48-3.26v-.64c0-1.86.74-3.26,1.66-4.16,1.06-1.02,2.4-1.38,3.87-1.38,3.2,0,5.34,2.08,5.34,5.79v.74h-3.2v-.61ZM171.61,141.48h2.05l-1.82,3.36h-4.29l-1.82-3.36h2.05l1.92,1.86,1.92-1.86Z"/>
      <path class="st0" d="M178.65,146.88h9.5v3.04h-6.3v6.59h5.57v2.88h-5.57v6.85h6.4v3.04h-9.6v-22.4Z"/>
      <path class="st0" d="M201.15,146.88v3.04h-3.97v19.36h-3.2v-19.36h-3.97v-3.04h11.14Z"/>
      <path class="st0" d="M206.91,146.88v10.78l5.09-10.78h3.36l-4.54,9.18,5.38,13.21h-3.49l-3.81-10.02-1.98,3.46v6.56h-3.2v-22.4h3.2Z"/>
      <path class="st0" d="M223.71,159.84v9.44h-3.2v-9.54l-4.7-12.86h3.52l2.78,8.9h.19l2.72-8.9h3.39l-4.7,12.96ZM220.15,144.84l1.6-3.36h3.87l-3.39,3.36h-2.08Z"/>
      <path class="st0" d="M237.15,151.97c0-.45-.13-1.06-.42-1.47-.16-.22-.64-.8-1.66-.8-.83,0-1.34.35-1.66.74-.51.64-.54,1.44-.54,2.21v11.04c0,.74,0,1.41.42,1.98.22.32.74.8,1.63.8.7,0,1.41-.26,1.79-.77.16-.22.45-.74.45-1.82v-.8h3.2v.93c0,2.21-.77,3.49-1.34,4.1-.67.74-1.98,1.5-4.19,1.5s-3.33-.86-4.03-1.7c-1.15-1.34-1.12-2.88-1.12-4.03v-11.62c0-1.47.19-3.14,1.63-4.38.99-.9,2.46-1.31,3.65-1.31,1.34,0,2.91.51,3.87,1.44.8.8,1.44,2.14,1.44,3.71v1.54h-3.1v-1.28Z"/>
      <path class="st0" d="M246.91,146.88v9.63h4.32v-9.63h3.2v22.4h-3.2v-9.89h-4.32v9.89h-3.2v-22.4h3.2Z"/>
    </g>
  </g>
  <path class="st1" d="M85.96,96.08h30.85c5.36-.05,9.66-4.44,9.6-9.8-.05-5.28-4.33-9.54-9.6-9.6h-30.85c-1.72,0-3.12-1.39-3.12-3.12,0-.46.1-.91.3-1.34l19.07-40.43c1.01-2.15,3.58-3.07,5.73-2.06.9.42,1.64,1.15,2.05,2.06l23.09,48.96c6.3,13.36,22.22,19.07,35.58,12.77,9.35-4.42,15.32-13.83,15.32-24.17v-29.93c.05-5.36-4.25-9.74-9.6-9.8-5.36-.05-9.74,4.25-9.8,9.6v30.12c0,4.05-3.28,7.34-7.34,7.34-2.84,0-5.42-1.64-6.63-4.21l-23.1-48.96c-5.59-11.84-19.71-16.91-31.55-11.33-4.98,2.35-8.98,6.35-11.33,11.33l-19.06,40.41c-5.31,11.25-.49,24.66,10.76,29.97,3,1.41,6.28,2.16,9.6,2.16h.01ZM164.3,14.98c.27.65.6,1.29.99,1.86.4.59.85,1.15,1.34,1.65,4.21,4.23,11.05,4.25,15.28.05.52-.52.99-1.1,1.41-1.71.39-.59.72-1.22.99-1.86.27-.65.48-1.32.61-2.02.29-1.41.29-2.84,0-4.25-.14-.69-.34-1.36-.61-2.02-.27-.65-.6-1.29-.99-1.86-.39-.59-.84-1.15-1.34-1.65-4.23-4.23-11.1-4.23-15.33,0-.5.51-.96,1.06-1.34,1.65-.39.59-.72,1.22-.99,1.86-.27.65-.48,1.32-.61,2.02-.29,1.41-.29,2.84,0,4.25.14.69.34,1.36.61,2.02h-.01Z"/>
</svg>