<?xml version="1.0" encoding="UTF-8"?>
<svg id="Layer_1" data-name="Layer 1" xmlns="http://www.w3.org/2000/svg" viewBox="0 0 390 153.44">
  <defs>
    <style>
      .cls-1 {
        fill: #f3c300;
      }

      .cls-2 {
        fill: #c29c00;
      }
    </style>
  </defs>
  <path class="cls-1" d="M385.06,10.31v.02c-3.98-10.02-9.43-10.46-12.49-9.73l-70.99,5.19c-.47.04-.94.23-1.3.55-3.66,3.19-5.3,10.37-5.51,18.37-9.1-5.69-21.52-5.98-30.72-.35-3.55,2.18-6.52,5.03-9.39,7.81-2.95,2.85-5.75,5.53-9.05,7.45-5.64,3.29-12.78,3.88-19.03,1.91,3.01-1.87,5.87-3.99,8.52-6.36,1.48-1.31,2.89-2.83,3.31-4.94.4-1.99-.26-4.2-1.79-6.22-3.57-4.63-10.29-6.7-17.12-5.27-2.34.49-4.1,1.25-5.52,2.4-3.26,2.62-4.56,7.36-3.23,11.82.94,3.15,3.1,6.07,6.26,8.53-11.5,5.07-24.62,6.49-36.91,3.63-.65-.14-1.3-.32-1.96-.48-2.96-.73-6.03-1.51-9.29-1.31-3.82.23-7.81,1.84-11.49,4.64-3.55,2.72-6.32,6.2-8.23,10.05-6.27-1.06-13.03.27-19.11,3.76-2.77,1.58-5.39,3.75-7.63,6.34-2.8-1.74-5.56-2.61-8.32-2.63-5.39-.03-10.75,3.25-15.52,9.54-.85,1.11-1.66,2.27-2.48,3.43-1.93,2.74-3.77,5.36-6.06,7.42-.06-.09-.1-.19-.17-.29-2.64-4.2-11.94-17.91-20.73-17.97-.37,0-.74.08-1.06.26L3.96,101.63c-.63.34-1,.95-1.12,1.61l-.17.16c-.09.08-.17.17-.26.27-5.83,7.46,6.81,33.89,16.94,43.87,5.45,5.38,9.65,6.03,12.52,5.27,1.15-.3,2.1-.85,2.83-1.39l62.87-33.36c.43-.23.77-.59.97-1.02,2.85-6.02-.83-17.34-6.26-27.19,3-2.51,5.24-5.7,7.4-8.78.78-1.11,1.56-2.22,2.39-3.29,2.7-3.56,6.97-7.81,11.92-7.77,1.83.01,3.72.59,5.69,1.76-3.44,5.52-4.98,12.19-2.8,18.77,1.14,3.41,3.79,6.5,6.77,7.84,1.82.83,3.7,1.01,5.46.55.35-.09.69-.2,1.02-.35,3.71-1.55,5.31-5.5,5.58-8.68.63-7.48-4.25-13.83-8.43-17.84-.44-.42-.89-.84-1.32-1.21,1.82-2.07,3.96-3.85,6.24-5.16,4.88-2.78,10.22-3.97,15.2-3.37-1.63,5.35-1.63,11.08.29,16.21,1.53,4.1,5.22,8.82,10.53,8.64,3.76-.13,7.26-2.97,8.47-6.9.98-3.1.58-6.77-1.1-10.26-2.31-4.84-6.76-8.71-12.06-10.75,1.58-2.97,3.77-5.63,6.49-7.72,2.08-1.59,5.34-3.52,9.05-3.74,2.57-.14,5.18.5,7.95,1.19.67.17,1.36.34,2.03.5,14.22,3.28,29.44,1.29,42.46-5.18,8.21,4.02,18.32,3.81,26.32-.84,3.78-2.2,6.89-5.2,9.91-8.11,2.82-2.72,5.49-5.29,8.62-7.21,8.56-5.24,20.44-4.44,28.24,1.87.07.06.15.07.22.11.12,2.85.39,5.7.8,8.44.73,4.91,3.72,21.19,11.73,24.79.33.15.7.22,1.07.2l72.21-5.02c.15,0,.29-.04.43-.08.55-.14.99-.5,1.28-.95l.19-.05c.12-.05.23-.1.34-.16,8.34-4.46,7.44-33.77,2.19-46.99ZM131.27,89.54c-.15,1.8-.99,4.16-2.85,4.95-.9.38-1.87.33-2.92-.15-1.87-.86-3.63-2.94-4.37-5.19-1.64-4.94-.47-10.19,2.19-14.66.29.26.58.53.88.82,3.49,3.33,7.56,8.52,7.07,14.23ZM161.55,71.93h.02c1.2,2.5,1.5,4.99.86,7.03-.65,2.09-2.54,3.7-4.37,3.76-2.74.1-5.09-2.81-6.19-5.74-1.58-4.24-1.51-9.06-.08-13.6,4.32,1.6,7.91,4.69,9.76,8.55ZM220.44,38.51c-1.97-1.38-4.51-3.7-5.44-6.8-.79-2.64-.06-5.61,1.76-7.07.71-.57,1.63-1,2.88-1.33.24-.06.5-.13.76-.18,4.22-.9,9.77-.13,12.66,3.62.74.97,1.08,1.93.95,2.63-.16.86-1.06,1.72-1.9,2.46-3.21,2.87-6.77,5.36-10.53,7.42-.39-.23-.76-.48-1.14-.75Z"/>
  <path class="cls-2" d="M385.06,10.31v.02c-3.98-10.02-9.43-10.46-12.49-9.73l-70.99,5.19c-.47.04-.94.23-1.3.55-3.66,3.19-5.3,10.37-5.51,18.37-9.1-5.69-21.52-5.98-30.72-.35-3.55,2.18-6.52,5.03-9.39,7.81-2.95,2.85-5.75,5.53-9.05,7.45-5.64,3.29-12.78,3.88-19.03,1.91,3.01-1.87,5.87-3.99,8.52-6.36,1.48-1.31,2.89-2.83,3.31-4.94.4-1.99-.26-4.2-1.79-6.22-3.57-4.63-10.29-6.7-17.12-5.27-2.34.49-4.1,1.25-5.52,2.4-3.26,2.62-4.56,7.36-3.23,11.82.94,3.15,3.1,6.07,6.26,8.53-11.5,5.07-24.62,6.49-36.91,3.63-.65-.14-1.3-.32-1.96-.48-2.96-.73-6.03-1.51-9.29-1.31-3.82.23-7.81,1.84-11.49,4.64-3.55,2.72-6.32,6.2-8.23,10.05-6.27-1.06-13.03.27-19.11,3.76-2.77,1.58-5.39,3.75-7.63,6.34-2.8-1.74-5.56-2.61-8.32-2.63-5.39-.03-10.75,3.25-15.52,9.54-.85,1.11-1.66,2.27-2.48,3.43-1.93,2.74-3.77,5.36-6.06,7.42-.06-.09-.1-.19-.17-.29-2.64-4.2-11.94-17.91-20.73-17.97-.37,0-.74.08-1.06.26L3.96,101.63c-.63.34-1,.95-1.12,1.61l-.17.16c-.09.08-.17.17-.26.27-5.83,7.46,6.81,33.89,16.94,43.87,5.45,5.38,9.65,6.03,12.52,5.27,1.15-.3,2.1-.85,2.83-1.39l62.87-33.36c.43-.23.77-.59.97-1.02,2.85-6.02-.83-17.34-6.26-27.19,3-2.51,5.24-5.7,7.4-8.78.78-1.11,1.56-2.22,2.39-3.29,2.7-3.56,6.97-7.81,11.92-7.77,1.83.01,3.72.59,5.69,1.76-3.44,5.52-4.98,12.19-2.8,18.77,1.14,3.41,3.79,6.5,6.77,7.84,1.82.83,3.7,1.01,5.46.55.35-.09.69-.2,1.02-.35,3.71-1.55,5.31-5.5,5.58-8.68.63-7.48-4.25-13.83-8.43-17.84-.44-.42-.89-.84-1.32-1.21,1.82-2.07,3.96-3.85,6.24-5.16,4.88-2.78,10.22-3.97,15.2-3.37-1.63,5.35-1.63,11.08.29,16.21,1.53,4.1,5.22,8.82,10.53,8.64,3.76-.13,7.26-2.97,8.47-6.9.98-3.1.58-6.77-1.1-10.26-2.31-4.84-6.76-8.71-12.06-10.75,1.58-2.97,3.77-5.63,6.49-7.72,2.08-1.59,5.34-3.52,9.05-3.74,2.57-.14,5.18.5,7.95,1.19.67.17,1.36.34,2.03.5,14.22,3.28,29.44,1.29,42.46-5.18,8.21,4.02,18.32,3.81,26.32-.84,3.78-2.2,6.89-5.2,9.91-8.11,2.82-2.72,5.49-5.29,8.62-7.21,8.56-5.24,20.44-4.44,28.24,1.87.07.06.15.07.22.11.12,2.85.39,5.7.8,8.44.73,4.91,3.72,21.19,11.73,24.79.33.15.7.22,1.07.2l72.21-5.02c.15,0,.29-.04.43-.08.55-.14.99-.5,1.28-.95l.19-.05c.12-.05.23-.1.34-.16,8.34-4.46,7.44-33.77,2.19-46.99ZM9.34,112.82c3.54,13.66,11.55,25.89,22.55,34.42-.05.29-.12.59-.22.85-2.77,1.66-6.5-1.05-9.2-3.72h.03c-11.1-10.95-19.37-33.66-16.65-37.84l.98-.89c4.23.75,10.59,6.91,16.17,15.8,5.16,8.19,8.49,16.74,8.99,22.41-9.73-8.11-16.83-19.3-20.06-31.72-.19-.72-.91-1.14-1.64-.95-.6.16-.99.69-.99,1.29,0,.12.01.23.04.35ZM57.66,134.19l-21.15,11.22c.03-7.42-4.39-17.87-9.71-26.34-2.1-3.32-8.39-12.62-15.29-16.35l21.31-11.21c4.47,1.39,10.47,7.37,15.89,15.99,6.63,10.54,10.18,21.33,8.95,26.69ZM65.4,130.05l-4.84,2.57c.37-7.18-4.13-17.92-9.58-26.57-2.07-3.32-8.37-12.65-15.1-16.18l5.17-2.73c4.42,1.62,10.22,7.46,15.48,15.83,6.79,10.79,10.36,21.85,8.87,27.08ZM73.35,125.84l-4.99,2.65c.56-7.19-4.02-18.14-9.56-26.93-2.04-3.25-8.17-12.31-14.76-15.97l4.77-2.52c4.44,1.55,10.3,7.43,15.62,15.89,6.7,10.65,10.27,21.57,8.92,26.88ZM94.78,114.49h-.02l-18.48,9.8c.47-7.18-4.08-18.03-9.56-26.76-2.07-3.27-8.24-12.43-14.89-16.05l17.74-9.33c4.22.52,10.74,6.76,16.48,15.85,6.62,10.52,10.24,21.63,8.73,26.49ZM131.27,89.54c-.15,1.8-.99,4.16-2.85,4.95-.9.38-1.87.33-2.92-.15-1.87-.86-3.63-2.94-4.37-5.19-1.64-4.94-.47-10.19,2.19-14.66.29.26.58.53.88.82,3.49,3.33,7.56,8.52,7.07,14.23ZM161.55,71.93h.02c1.2,2.5,1.5,4.99.86,7.03-.65,2.09-2.54,3.7-4.37,3.76-2.74.1-5.09-2.81-6.19-5.74-1.58-4.24-1.51-9.06-.08-13.6,4.32,1.6,7.91,4.69,9.76,8.55ZM220.44,38.51c-1.97-1.38-4.51-3.7-5.44-6.8-.79-2.64-.06-5.61,1.76-7.07.71-.57,1.63-1,2.88-1.33.24-.06.5-.13.76-.18,4.22-.9,9.77-.13,12.66,3.62.74.97,1.08,1.93.95,2.63-.16.86-1.06,1.72-1.9,2.46-3.21,2.87-6.77,5.36-10.53,7.42-.39-.23-.76-.48-1.14-.75ZM308.71,59.06c-3.66-2.17-7.12-10.5-8.68-21.14v.02c-1.8-12.31-.65-23.95,2.69-27.77l20.87-1.52c-3.32,6.38-3.54,18.14-2.03,28.35.57,3.82,2.54,14.69,7.15,20.68l-20,1.38ZM332.12,57.44h-.02c-3.44-3.19-6.44-10.95-7.89-20.83-1.83-12.45-.69-23.88,2.68-28.19l5.64-.42c-3.4,6.35-3.63,18.22-2.11,28.51.56,3.8,2.51,14.56,7.08,20.56l-5.38.37ZM340.83,56.84h-.01c-3.39-3.28-6.32-10.96-7.77-20.72-1.85-12.61-.68-24.18,2.8-28.37l5.47-.39c-3.23,6.42-3.44,18.08-1.95,28.2.58,3.86,2.56,14.94,7.29,20.88l-5.83.4ZM350.13,56.19c-3.53-3.07-6.61-10.95-8.09-21.04-1.82-12.31-.72-23.61,2.56-28.05l23.9-1.75c-3.02,6.77-3.18,18.12-1.73,28.02h.01c.57,3.91,2.58,14.95,7.38,21.15l-24.03,1.67ZM380.86,53.32v-.02s-1.24.42-1.24.42c-.34-.22-.68-.52-1-.84,6.23-9.1,3.65-31.52-.48-40.91-.31-.67-1.09-.98-1.77-.68-.68.3-.98,1.1-.68,1.77,4.17,9.47,5.8,29.5,1.16,37.59-2.46-3.84-4.55-10.28-5.68-17.91-1.82-12.44-.64-24.17,2.78-27.87,3.22-.42,5.54,3.59,6.93,7.12,5.73,14.49,4.18,38.61-.02,41.33Z"/>
</svg>