<?xml version="1.0" encoding="UTF-8"?>
<svg id="Layer_1" data-name="Layer 1" xmlns="http://www.w3.org/2000/svg" viewBox="0 0 121.37 178.56">
  <defs>
    <style>
      .cls-1 {
        fill-rule: evenodd;
      }

      .cls-1, .cls-2 {
        fill: #a9adcf;
      }
    </style>
  </defs>
  <g>
    <g>
      <path class="cls-2" d="M114.15,129.17c2.11,0,3.83.7,5.15,2.1,1.37,1.42,2.06,3.36,2.06,5.8v11.71h-4.92v-11.1c0-1.25-.34-2.21-1.03-2.9-.66-.69-1.58-1.03-2.75-1.03-1.3,0-2.33.41-3.09,1.22-.74.79-1.11,1.96-1.11,3.51v10.3h-4.92v-19.08h4.92v2.14c1.17-1.78,3.07-2.67,5.69-2.67Z"/>
      <path class="cls-2" d="M85.08,143.13c.99.99,2.25,1.49,3.78,1.49s2.79-.5,3.78-1.49c1.02-1.02,1.53-2.31,1.53-3.89s-.51-2.86-1.53-3.85c-.99-1.02-2.25-1.53-3.78-1.53s-2.79.51-3.78,1.53c-.99.99-1.49,2.28-1.49,3.85s.5,2.87,1.49,3.89ZM94.16,131.95v-2.25h4.92v19.08h-4.92v-2.25c-1.48,1.86-3.55,2.79-6.22,2.79s-4.73-.97-6.56-2.9c-1.81-1.96-2.71-4.35-2.71-7.17s.9-5.18,2.71-7.14c1.83-1.96,4.02-2.94,6.56-2.94,2.67,0,4.74.93,6.22,2.79Z"/>
      <path class="cls-2" d="M68.27,129.17c2.19,0,3.93.71,5.23,2.14,1.32,1.42,1.98,3.33,1.98,5.72v11.75h-4.92v-11.41c0-1.14-.28-2.04-.84-2.67-.56-.64-1.35-.95-2.37-.95-1.12,0-2,.37-2.63,1.11-.61.74-.92,1.81-.92,3.21v10.72h-4.92v-11.41c0-1.14-.28-2.04-.84-2.67-.56-.64-1.35-.95-2.37-.95-1.09,0-1.97.38-2.63,1.14-.64.74-.95,1.79-.95,3.17v10.72h-4.92v-19.08h4.92v2.02c1.14-1.7,2.91-2.56,5.3-2.56s4.1.92,5.19,2.75c1.25-1.83,3.14-2.75,5.69-2.75Z"/>
      <path class="cls-2" d="M37.74,140.01v-10.3h4.92v19.08h-4.92v-2.14c-1.17,1.78-3.07,2.67-5.69,2.67-2.09,0-3.82-.7-5.19-2.1-1.35-1.42-2.02-3.36-2.02-5.8v-11.71h4.92v11.1c0,1.25.33,2.21.99,2.9.69.69,1.62,1.03,2.79,1.03,1.3,0,2.31-.39,3.05-1.18.76-.81,1.14-2,1.14-3.55Z"/>
      <polygon class="cls-2" points="15.19 132.68 15.19 122.07 20.41 122.07 20.41 148.78 15.19 148.78 15.19 137.72 5.27 137.72 5.27 148.78 0 148.78 0 122.07 5.27 122.07 5.27 132.68 15.19 132.68"/>
    </g>
    <g>
      <path class="cls-2" d="M103.61,174.67c0,.24-.08.45-.25.62-.17.17-.38.25-.62.25s-.45-.08-.62-.25c-.17-.17-.25-.38-.25-.62s.08-.45.25-.62c.17-.17.38-.25.62-.25s.45.08.62.25c.17.17.25.38.25.62Z"/>
      <path class="cls-2" d="M93.88,173.65c.6.6,1.34.9,2.22.9s1.62-.3,2.22-.9c.6-.62.9-1.37.9-2.24s-.3-1.62-.9-2.22c-.6-.61-1.34-.92-2.22-.92s-1.62.31-2.22.92c-.6.6-.9,1.34-.9,2.22s.3,1.61.9,2.24ZM96.18,167.26c1.13,0,2.1.4,2.89,1.21.8.8,1.21,1.79,1.21,2.95s-.4,2.15-1.21,2.95c-.79.8-1.76,1.21-2.89,1.21-1.41,0-2.48-.58-3.21-1.75v4.73h-1.05v-11.11h1.05v1.56c.73-1.16,1.8-1.75,3.21-1.75Z"/>
      <path class="cls-2" d="M83.15,173.65c.6.6,1.34.9,2.22.9s1.62-.3,2.22-.9c.6-.62.9-1.37.9-2.24s-.3-1.62-.9-2.22c-.6-.61-1.34-.92-2.22-.92s-1.62.31-2.22.92c-.6.6-.9,1.34-.9,2.22s.3,1.61.9,2.24ZM88.32,174.38c-.81.79-1.8,1.19-2.95,1.19s-2.16-.4-2.97-1.19c-.8-.8-1.21-1.79-1.21-2.97s.4-2.16,1.21-2.95c.8-.8,1.79-1.21,2.97-1.21s2.15.4,2.95,1.21c.81.79,1.22,1.78,1.22,2.95s-.41,2.15-1.22,2.97Z"/>
      <path class="cls-2" d="M72.89,173.65c.6.6,1.34.9,2.22.9s1.62-.3,2.22-.9c.6-.62.9-1.37.9-2.24s-.3-1.62-.9-2.22c-.6-.61-1.34-.92-2.22-.92s-1.62.31-2.22.92c-.6.6-.9,1.34-.9,2.22s.3,1.61.9,2.24ZM78.06,174.38c-.81.79-1.8,1.19-2.95,1.19s-2.16-.4-2.97-1.19c-.8-.8-1.21-1.79-1.21-2.97s.4-2.16,1.21-2.95c.8-.8,1.79-1.21,2.97-1.21s2.15.4,2.95,1.21c.81.79,1.22,1.78,1.22,2.95s-.41,2.15-1.22,2.97Z"/>
      <rect class="cls-2" x="67.5" y="163.8" width="1.05" height="11.59"/>
      <path class="cls-2" d="M56.66,168.27c-.83,0-1.52.24-2.08.73-.55.49-.88,1.13-.98,1.92h5.92c-.12-.85-.44-1.5-.97-1.95-.55-.47-1.18-.7-1.89-.7ZM56.66,167.26c1.19,0,2.13.42,2.84,1.25.73.83,1.1,1.8,1.1,2.94,0,.05-.01.22-.03.49h-6.97c.11.79.44,1.43,1.02,1.9s1.29.71,2.14.71c1.21,0,2.06-.45,2.56-1.35l.92.54c-.35.57-.83,1.02-1.44,1.35-.6.32-1.29.48-2.05.48-1.25,0-2.26-.39-3.05-1.17-.78-.78-1.17-1.78-1.17-2.98s.39-2.19,1.16-2.97c.77-.79,1.77-1.19,2.98-1.19Z"/>
      <path class="cls-2" d="M47.23,167.26c.95,0,1.71.3,2.27.89.56.58.84,1.37.84,2.36v4.87h-1.05v-4.87c0-.71-.19-1.26-.57-1.65-.37-.39-.9-.59-1.59-.59-.79,0-1.42.25-1.89.75-.45.5-.68,1.23-.68,2.21v4.16h-1.05v-11.11h1.05v4.41c.59-.95,1.48-1.43,2.67-1.43Z"/>
      <path class="cls-2" d="M41.13,167.45v1.02h-2.29v4.81c0,.43.08.75.25.94.17.18.42.28.76.29.34,0,.76-.01,1.27-.03v.92c-1.13.17-1.97.09-2.52-.24-.54-.34-.81-.96-.81-1.87v-4.81h-1.67v-1.02h1.67v-1.9l1.05-.32v2.22h2.29Z"/>
      <path class="cls-2" d="M26.55,167.26c.95,0,1.71.3,2.27.89.56.58.84,1.37.84,2.36v4.87h-1.05v-4.87c0-.71-.19-1.26-.57-1.65-.37-.39-.9-.59-1.59-.59-.79,0-1.42.25-1.89.75-.45.5-.68,1.23-.68,2.21v4.16h-1.05v-7.94h1.05v1.24c.59-.95,1.48-1.43,2.67-1.43Z"/>
      <path class="cls-2" d="M19.98,175.38h-1.05v-7.94h1.05v7.94ZM20.22,165c0,.21-.07.39-.22.54-.15.15-.33.22-.54.22s-.39-.07-.54-.22c-.15-.15-.22-.33-.22-.54s.07-.39.22-.54c.15-.15.33-.22.54-.22s.39.07.54.22c.15.15.22.33.22.54Z"/>
    </g>
  </g>
  <path class="cls-1" d="M68.32,41.37c2.08,2.08,3.37,4.95,3.36,8.13,0,3.17-1.29,6.04-3.36,8.12-2.08,2.08-4.95,3.37-8.12,3.37s-6.05-1.29-8.12-3.37-3.36-4.95-3.36-8.12,1.29-6.04,3.36-8.12c2.08-2.08,4.95-3.36,8.12-3.36s6.05,1.29,8.12,3.36ZM106.59,67.16h-16.29c-1.5,2.55-3.32,4.9-5.4,6.98-6.28,6.28-14.96,10.17-24.55,10.17s-18.26-3.88-24.55-10.17c-4.27-4.27-7.42-9.64-9.02-15.64h9.27c1.31,3.56,3.37,6.75,6,9.38,4.69,4.68,11.14,7.58,18.29,7.58,7.14,0,13.61-2.88,18.29-7.57,2.63-2.63,4.69-5.82,6-9.39,7.9,0,16.16-.03,24.37-.05-.53,2.95-1.34,5.87-2.41,8.71h0ZM60.19,14.78c9.58,0,18.26,3.88,24.55,10.17,4.27,4.27,7.42,9.63,9.02,15.64h-9.27c-1.31-3.56-3.37-6.75-6-9.38-4.68-4.68-11.14-7.58-18.28-7.58-7.14,0-13.61,2.9-18.29,7.58-2.63,2.63-4.69,5.83-6,9.38-7.91,0-16.18.03-24.39.05.53-2.95,1.34-5.87,2.42-8.71h16.31c1.5-2.55,3.32-4.9,5.41-6.98,6.28-6.28,14.96-10.17,24.55-10.17h0ZM25.22,14.52c-4.08,4.08-7.3,8.7-9.66,13.63h10.04c1.66-2.69,3.63-5.17,5.85-7.39,7.35-7.35,17.52-11.91,28.74-11.91s21.39,4.55,28.74,11.91c6.38,6.38,10.65,14.86,11.66,24.32h-20.55c-.85-3.85-2.79-7.28-5.47-9.96-3.68-3.68-8.77-5.96-14.38-5.96s-10.7,2.28-14.38,5.96c-2.68,2.69-4.62,6.12-5.48,9.95-9.88,0-19.6-.07-29.42-.07-1.35,14.63,3.81,29.02,14.28,39.5,8.96,8.96,21.34,14.5,35,14.5s26.04-5.55,35-14.5c3.68-3.68,6.79-7.94,9.17-12.62h-10.23c-1.52,2.29-3.26,4.43-5.2,6.37-7.36,7.36-17.52,11.91-28.74,11.91s-21.39-4.55-28.74-11.91c-6.37-6.37-10.64-14.86-11.66-24.32h20.55c.85,3.84,2.79,7.27,5.48,9.95,3.69,3.69,8.77,5.96,14.38,5.96s10.7-2.28,14.38-5.96c2.68-2.68,4.62-6.12,5.48-9.95,9.86,0,19.62.04,29.44.04.14-1.47.2-2.96.2-4.46,0-13.66-5.54-26.04-14.5-35-19.11-19.11-50.41-19.53-69.98.03h0Z"/>
</svg>