<?xml version="1.0" encoding="UTF-8"?>
<svg id="objects" xmlns="http://www.w3.org/2000/svg" version="1.1" viewBox="0 0 299 290.2">
  <!-- Generator: Adobe Illustrator 30.0.0, SVG Export Plug-In . SVG Version: 2.1.1 Build 123)  -->
  <defs>
    <style>
      .st0 {
        fill: #fff;
      }

      .st1 {
        fill: #f2c316;
      }
    </style>
  </defs>
  <g>
    <path class="st1" d="M100.35,282.95c28.99,10.8,62.53,7.46,91.97-2.55s62.34-29.15,80.5-57.12c12.46-19.18,17.8-41.41,13.34-65.23-4.2-22.48-15.18-43.42-29.02-61.63-20.65-27.16-46.29-46.81-75.19-63.37-15.66-8.97-35.95-18.87-55.79-23.57s-39.76-7.13-59.24-2.78c-19.48,4.35-37.65,16.69-48.41,33.51C.72,68.04-2.43,108.18,2.99,133.12c2.38,10.95,8.75,23.92,16.72,31.79s17.39,14.16,25.26,22.14c10.31,10.46,17.63,22.3,20.25,37.98,1.9,11.4,4.16,23.01,7.97,33.92,3.81,10.91,16.34,19.97,27.17,24h-.01Z"/>
    <path class="st1" d="M7.68,105.2c-2.04,10.01-3.59,19.31-4.66,28.1,0-.06-.03-.12-.04-.18C-2.43,108.17.72,68.03,18.52,40.21,29.28,23.4,47.45,11.06,66.93,6.71c8.01-1.79,16.16-2.42,24.34-2.21-5.68,1.61-11.27,3.71-16.77,6.3-19.4,9.14-36.11,23.46-45.85,39.3-9.67,15.72-16.72,34.26-20.97,55.1Z"/>
    <path class="st1" d="M272.82,223.28c-12.96,19.96-33.43,35.43-54.8,46.28-.87.45-1.75.89-2.63,1.31-7.71,3.78-15.5,6.95-23.07,9.53-29.44,10.01-62.98,13.35-91.97,2.55-10.83-4.04-23.36-13.1-27.17-24.01-1.29-3.69-2.4-7.46-3.37-11.28-.18-.65-.34-1.3-.5-1.96-1.67-6.83-2.95-13.79-4.1-20.67-2.62-15.69-9.94-27.53-20.25-37.99-7.86-7.97-17.29-14.27-25.26-22.14-6.67-6.59-12.23-16.76-15.25-26.31,1.04-10.2,2.77-21.1,5.19-32.99,4.2-20.61,11.17-38.93,20.71-54.45,9.55-15.52,25.95-29.56,45-38.54,7.44-3.5,15.03-6.09,22.81-7.76,9.42.74,18.81,2.45,28.01,4.63,19.83,4.7,40.13,14.6,55.78,23.57,28.9,16.56,54.55,36.21,75.19,63.37,13.85,18.21,24.82,39.15,29.02,61.63,4.46,23.82-.88,46.05-13.34,65.23h0Z"/>
    <path d="M279.59,112.25c-21.55-39.76-50.83-70.67-84.68-89.38C156.65,1.72,122.56-4.36,91.27,4.5c2.29.05,4.59.17,6.89.35,29.04-6.23,60.6.32,95.78,19.77,33.52,18.53,62.53,49.16,83.89,88.59,13.62,25.15,23.5,67.89,16.01,100.93-3.43,15.16-11.4,29.41-23.03,41.21-11.14,11.3-27.37,17.23-43.4,15.89-3.25-.27-6.37-.85-9.39-1.68-12.31-3.39-22.95-10.93-34.08-18.83-1.38-.98-2.78-1.96-4.18-2.95-13.7-9.62-28.39-14.05-47.57-14.05-4.11,0-8.44.21-13,.61-10.76.94-21.29,3.98-30.58,6.65-6.8,1.96-13.35,3.84-19.3,4.71-3.05.46-5.93.65-8.62.44-1.1-.08-2.22-.15-3.37-.22-9.68-.6-20.64-1.29-30.12-11.36-6.84-7.27-14.25-16.15-17.33-26.88-6.26-21.82-8.07-43.21-5.42-69.09-.57-1.79-1.05-3.57-1.43-5.29-3.46,28.46-1.82,51.44,4.93,74.94,3.2,11.14,10.79,20.25,17.79,27.69,10.02,10.65,21.41,11.36,31.45,11.98,1.14.07,2.26.14,3.35.23,2.91.22,6.01.02,9.27-.48,6.02-.9,12.56-2.79,19.35-4.74,4.83-1.39,9.74-2.81,14.76-3.99,5.03-1.18,10.16-2.14,15.45-2.6,25.31-2.22,43.02,1.7,59.24,13.08,1.4.99,2.79,1.98,4.17,2.95,10.66,7.57,20.88,14.81,32.61,18.51,3.78,1.19,7.71,2.01,11.86,2.36,1.55.13,3.1.2,4.66.2,15.05,0,29.85-6.06,40.32-16.68,11.9-12.06,20.05-26.64,23.56-42.17,7.6-33.52-2.4-76.85-16.2-102.33h0Z"/>
  </g>
  <g>
    <path class="st0" d="M187.19,153.5c-3.18,2.92-6.99,3.4-10.79,1.31-2.21-1.21-3.52-3.33-5.46-4.83-6.16-4.77-15.45.12-11.55,8.62.38.85.35.71,1.92,1.88,2.75,1,2.57-.12,5.52,1.1,4.4,1.83,9.67-1.52,12.14,4.32,1.76,4.2-1.35,9.24-3.25,12.84-4.68,8.91-14.8,18.61-24.96,11.31-.07-.05-.1-.12-.17-.17-2.8-.41-5.68-1.5-8.56-2.9-.33,6.09-2.81,12.55-9.06,14.5-7.11,2.23-14.38-2.26-20.48-6.42-1.99-.85-3.88-2.12-5.59-3.99-5.23-5.71-5.75-13.83-2.66-19.58-9.39-5.85-23.79-13.36-20.1-26.19-2.04-7.04,3.16-15.11,8.49-21.93-4.06-2.26-7.04-5.94-9.88-9.7-.19-.24-.28-.5-.35-.74-4.68-5.04-6.2-12.62-.98-19.84,8.3-11.5,24.05-6.89,28.68,4.32,3.16-5.35,6.77-11.07,12.97-12.28,7.44-1.43,15.26,3.73,22.03,8.58-1.54-9.94,8.37-19.85,20.08-18.18,4.75.69,9.46,3.49,12.69,7.37.14.1.29.16.43.29,6.16,6.61,14.76,21.91,5.56,27.66,4.13,2.33,7.58,5.3,9.03,9.27.1.1.22.17.33.31,6.68,9.44,2.18,25.5-6.03,33.06h0Z"/>
    <path d="M193.21,120.44c-.1-.14-.22-.21-.33-.31-1.45-3.97-4.9-6.94-9.03-9.27,9.2-5.75.6-21.05-5.56-27.66-.14-.14-.29-.19-.43-.29-3.23-3.88-7.94-6.68-12.69-7.37-11.71-1.67-21.62,8.24-20.08,18.18-6.77-4.85-14.59-10.01-22.03-8.58-6.2,1.21-9.81,6.92-12.97,12.28-4.61-11.21-20.36-15.82-28.66-4.33-5.21,7.22-3.69,14.8.98,19.84.07.24.16.5.35.74,2.83,3.76,5.82,7.44,9.88,9.7-5.33,6.82-10.53,14.88-8.49,21.93-3.69,12.83,10.7,20.34,20.1,26.19-3.09,5.75-2.57,13.86,2.66,19.58,1.71,1.86,3.61,3.14,5.59,3.99,6.09,4.16,13.36,8.65,20.48,6.42,6.25-1.95,8.74-8.41,9.06-14.5,2.88,1.4,5.77,2.49,8.56,2.9.07.05.1.12.17.17,10.17,7.3,20.29-2.4,24.96-11.31,1.9-3.61,5.01-8.65,3.25-12.84-2.47-5.84-7.73-2.49-12.14-4.32-2.95-1.23-2.78-.1-5.52-1.1-1.57-1.17-1.54-1.04-1.92-1.88-3.9-8.49,5.39-13.38,11.55-8.62,1.93,1.5,3.25,3.63,5.46,4.83,3.8,2.09,7.61,1.61,10.79-1.31,8.2-7.56,12.71-23.62,6.03-33.06h-.02ZM175.69,135.93c-8.82-3.28-16.19-5.25-22.74,4.26-5.82,8.49-2.85,17.78,4.78,23.67,3.02,2.35,8.6.67,8.49,7.37-.02,2.11-3.18,7.61-4.73,9.37-10.12,11.45-23.22-1.07-32.65-6.32-2.11-1.17-4.59,1.74-2.66,3.45.88,2.71,1.78,5.42,2.68,8.15-6.04,7.08-11.48,8.2-16.35,3.35-3.12-2.16-4.64-3.59-5.4-7.32-1.45-6.99,2.26-14.24,10.34-12.78,2.37.43,3.95-2.68,1.69-4.02-4.75-2.83-9.51-5.63-14.28-8.46-4.3-2.57-11.43-5.37-14.54-9.41-.67-.88-1.07-1.83-1.36-2.81.14-.59.02-1.09-.31-1.47-.64-5.7,3.88-12.5,8.39-18.21.74-.26,1.23-.93,1.36-1.73,1.86-2.3,3.59-4.33,4.85-6.01.43-.33.66-.74.69-1.19.29-1.05-.45-1.97-1.45-2.3-.05-.03-.1-.05-.17-.07-.09-.02-.17-.03-.28-.05-.43-.1-.92-.1-1.42.1-14.43,6.35-24.74-14.23-11.57-21.46,8.36-4.59,17.47,2.49,17.94,11.03.12,2.19,2.88,2.95,4.09,1.1,1.28-1.93,2.42-3.94,3.66-5.87,3.71-5.78,4.97-8.32,12.17-7.51,9.01,1,15.62,6.99,23.13,11.74,2.12,1.33,4.44-1.71,2.66-3.45-7.87-7.72-.69-19.13,9.43-19.34,3.66-.09,9.32,2.18,11.52,5.08,9.6,12.74-.16,16.71-7.25,19.16-2.16.76-2,3.44,0,4.25,5.32,2.14,10.96,3.85,15.83,6.92,10.22,6.49,6.79,25.72-6.56,20.75l.02.03h0Z"/>
    <path d="M254.84,214.36c-1.36-4.18-2.72-8.35-4.08-12.53,2.77-3.63,5.55-7.25,8.32-10.88.88-1.16.94-2.34.58-3.38-.21-1.57-1.29-2.9-3.39-2.9h-7.83c-1.09,0-4.85-.14-6.12.09-.51-1.12-2.68-3.94-3.29-4.83-1.54-2.23-3.07-4.45-4.6-6.68-1.69-2.46-5.92-1.69-6.81,1.08-.8,2.48-1.61,4.97-2.41,7.45-.37,1.14-1.67,4.54-1.85,5.78-1.26.13-4.75,1.31-5.68,1.59-2.59.77-5.18,1.54-7.77,2.31-2.99.89-2.94,5.24-.74,6.84,3.67,2.66,7.33,5.32,11,7.98-.11,4.42-.22,8.85-.33,13.27-.08,3.43,3.56,5.57,6.42,3.49,3.61-2.63,7.22-5.26,10.83-7.89,4.24,1.5,8.49,2.99,12.73,4.49,3.43,1.21,6.06-2.14,5.03-5.31v.03h0Z"/>
  </g>
</svg>