<?xml version="1.0" encoding="UTF-8"?>
<svg id="objects" xmlns="http://www.w3.org/2000/svg" xmlns:xlink="http://www.w3.org/1999/xlink" viewBox="0 0 290 302.57">
  <defs>
    <style>
      .cls-1, .cls-2 {
        fill: none;
      }

      .cls-3 {
        fill: #fff;
      }

      .cls-4 {
        fill: #f2c316;
      }

      .cls-2 {
        stroke: #000;
        stroke-miterlimit: 10;
        stroke-width: 2px;
      }

      .cls-5 {
        clip-path: url(#clippath);
      }
    </style>
    <clipPath id="clippath">
      <path class="cls-1" d="M.87.91v294.36h255.28V.91H.87ZM248.87,230.91c-.76,3.07-1.34,5.93-1.89,8.69-.33,1.65-.65,3.25-1,4.82-1.72,2.28-3.49,4.52-5.31,6.71l-.36-.92c1.19-3.65,1.95-7.41,2.75-11.4.57-2.82,1.15-5.73,1.93-8.88,4.14-16.7,8.84-35.63,4.32-53.36-1.56-6.12-4.24-12.06-6.84-17.81-1.48-3.27-2.99-6.62-4.3-10.01-7.79-20.03-9.09-41.88-10.34-63-.15-2.6-.31-5.2-.47-7.79-1.28-20-4.39-40.14-18.33-51.99-3.4-2.89-7.63-5.26-12.91-7.25,1.02-1.04,2.06-2.06,3.12-3.07,4.92,2.01,8.99,4.39,12.38,7.27,15.08,12.81,18.4,33.9,19.73,54.78.16,2.54.31,5.09.47,7.64v.17c1.25,20.83,2.53,42.35,10.09,61.79,1.28,3.29,2.77,6.59,4.21,9.79,2.68,5.93,5.43,12.04,7.08,18.5,4.77,18.71-.05,38.15-4.31,55.31h-.02Z"/>
    </clipPath>
  </defs>
  <g>
    <path class="cls-2" d="M15.27,51.36C30.11,27.8,49.25,12.68,89.23,6.5c29.07-4.49,55.17-3.3,87.66,4.81,11.75,2.93,24.2,5.31,33.43,13.16,14.81,12.59,17.79,33.99,19.03,53.39,1.52,23.72,2.07,48.04,10.68,70.19,3.65,9.4,8.72,18.28,11.22,28.05,4.54,17.8.11,36.51-4.31,54.34-4.41,17.76-2.76,29.25-24.98,46.49-17.03,13.21-51.11,17.26-66.66,14.55-38.37-6.67-61.43-17.57-90.18-45.5-22.11-21.49-32.54-42.17-43.05-66.2-8.42-19.27-14.78-32.51-18.03-76.78-1.17-15.84,3.74-39.74,11.23-51.64Z"/>
    <path class="cls-4" d="M199.58,15.34c-10.78,10.12-18.93,21.64-27.07,35.03-7.68,12.63-19.69,25.46-33.54,30.65-26.79,10.04-53.63-9.77-82-6.13-23.84,3.06-43.07,23.04-49.08,46.31-10.53,40.75,1.23,91.98,27.61,124.78,27.61,34.33,60.66,56.1,110.46,55.67,21.53-.18,44.28-8.73,62.17-20.71,34.56-23.14,58.99-63.06,71.59-102.7,12.6-39.64,13.59-82.38-3.52-122.39-6.39-14.94-17.44-33.06-30.84-42.26-13.4-9.2-33.93-9.37-45.78,1.75h0Z"/>
    <g class="cls-5">
      <path class="cls-2" d="M15.27,51.36C30.11,27.8,49.25,12.68,89.23,6.5c29.07-4.49,55.17-3.3,87.66,4.81,11.75,2.93,24.2,5.31,33.43,13.16,14.81,12.59,17.79,33.99,19.03,53.39,1.52,23.72,2.07,48.04,10.68,70.19,3.65,9.4,8.72,18.28,11.22,28.05,4.54,17.8.11,36.51-4.31,54.34-4.41,17.76-2.76,29.25-24.98,46.49-17.03,13.21-51.11,17.26-66.66,14.55-38.37-6.67-61.43-17.57-90.18-45.5-22.11-21.49-32.54-42.17-43.05-66.2-8.42-19.27-14.78-32.51-18.03-76.78-1.17-15.84,3.74-39.74,11.23-51.64Z"/>
    </g>
  </g>
  <g>
    <path class="cls-3" d="M217.65,201.86c.23,2.86-.23,5.47-1.2,7.81-.96,10.48-9.09,21.88-19.72,22.84-9.59.87-19.35-6.92-18.33-16.53-.54-1.18-.95-2.5-1.2-3.99-1.78-11.05,7.98-19.62,17.46-22.59,5.41-1.14,10.42-2.04,15.43.82,4.33,2.47,7.16,6.65,7.56,11.64h0Z"/>
    <g>
      <path class="cls-3" d="M158.73,120.24c-1.79-11.05,7.97-19.62,17.45-22.59,5.41-1.14,10.42-2.04,15.43.82,4.33,2.47,7.16,6.65,7.56,11.64.29,3.55-.49,6.71-1.99,9.45-2.23,9.36-10.16,18.92-19.57,20.2-8.49,1.15-18.1-5.54-17.06-14.29-.87-1.47-1.5-3.21-1.82-5.23Z"/>
      <path class="cls-3" d="M234.73,133.79c.06.68-.28,1.12-.74,1.36-.02.02-.02.05-.05.07-13.47,15.05-28.97,28.02-43.25,42.26-14.04,14-27.62,28.35-42.55,41.44-.04.2-.07.4-.11.59-.24,1.34-2.2,2.18-3.31,1.35-2.77-2.07-5.37-4.33-7.99-6.58-1.48-1.27-2.96-2.54-4.45-3.81-1.19-1.03-3.65-2.4-4.45-3.81-1.59-2.82-1.09-8.38.65-11.62-.05-.24-.02-.46.11-.68.16-.78.74-1.43,1.51-1.73,26.23-29.83,59.64-53.93,89.26-80.22.82-.73,1.85-.69,2.66,0,3.82,3.18,7.65,6.34,11.45,9.55.82.69.74,2.03.12,2.82.63,2.99.89,5.92,1.14,9.01h0Z"/>
      <path d="M187.22,111.24c-.29-2-1.47-3.68-3.22-4.69-2.05-1.17-4.09-.86-6.29-.3-.15.04-.26.13-.39.19-.06.03-.1,0-.16.04-2.03.97-2.99,2.45-4.36,4.13-1.04,1.29-1.59,3.04-1.38,4.69.57,4.49,4.97,5.49,8.78,4.68,4.14-.89,7.68-4.22,7.02-8.74ZM199.17,110.11c-.4-4.99-3.23-9.17-7.56-11.64-5.01-2.86-10.02-1.96-15.43-.82-9.48,2.97-19.24,11.54-17.45,22.59.32,2.02.95,3.76,1.82,5.23-1.04,8.75,8.57,15.44,17.06,14.29,9.41-1.28,17.34-10.84,19.57-20.2,1.5-2.74,2.28-5.9,1.99-9.45h0ZM193.88,113.95c-1.44,7.23-9.21,11.8-15.78,13.58-9.32,2.51-17.77-2.53-16.17-12.8,1.38-8.91,7.67-11.23,15.49-12.58,8.11-1.39,18.66.83,16.46,11.8h0ZM184,106.55c-2.05-1.17-4.09-.86-6.29-.3-.15.04-.26.13-.39.19-.06.03-.1,0-.16.04-2.03.97-2.99,2.45-4.36,4.13-1.04,1.29-1.59,3.04-1.38,4.69.57,4.49,4.97,5.49,8.78,4.68,4.14-.89,7.68-4.22,7.02-8.74-.29-2-1.47-3.68-3.22-4.69ZM205.7,202.99c-.29-1.99-1.47-3.68-3.22-4.69-2.05-1.17-4.09-.86-6.29-.3-.15.04-.26.13-.39.19-.06.03-.1.02-.16.04-2.03.97-2.99,2.45-4.36,4.13-1.04,1.29-1.6,3.04-1.38,4.69.57,4.49,4.97,5.49,8.78,4.68,4.14-.89,7.68-4.22,7.02-8.74h0ZM205.7,202.99c-.29-1.99-1.47-3.68-3.22-4.69-2.05-1.17-4.09-.86-6.29-.3-.15.04-.26.13-.39.19-.06.03-.1.02-.16.04-2.03.97-2.99,2.45-4.36,4.13-1.04,1.29-1.6,3.04-1.38,4.69.57,4.49,4.97,5.49,8.78,4.68,4.14-.89,7.68-4.22,7.02-8.74h0ZM217.65,201.86c-.4-4.99-3.23-9.17-7.56-11.64-5.01-2.86-10.02-1.96-15.43-.82-9.48,2.97-19.24,11.54-17.46,22.59.25,1.49.66,2.81,1.2,3.99-1.02,9.61,8.74,17.4,18.33,16.53,10.63-.96,18.76-12.36,19.72-22.84.97-2.34,1.43-4.95,1.2-7.81h0ZM212.36,205.7c-1.44,7.24-9.21,11.8-15.78,13.58-9.32,2.51-17.77-2.53-16.17-12.8,1.38-8.91,7.67-11.23,15.49-12.58,8.11-1.39,18.66.83,16.46,11.8ZM202.48,198.3c-2.05-1.17-4.09-.86-6.29-.3-.15.04-.26.13-.39.19-.06.03-.1.02-.16.04-2.03.97-2.99,2.45-4.36,4.13-1.04,1.29-1.6,3.04-1.38,4.69.57,4.49,4.97,5.49,8.78,4.68,4.14-.89,7.68-4.22,7.02-8.74-.29-1.99-1.47-3.68-3.22-4.69h0ZM187.22,111.24c-.29-2-1.47-3.68-3.22-4.69-2.05-1.17-4.09-.86-6.29-.3-.15.04-.26.13-.39.19-.06.03-.1,0-.16.04-2.03.97-2.99,2.45-4.36,4.13-1.04,1.29-1.59,3.04-1.38,4.69.57,4.49,4.97,5.49,8.78,4.68,4.14-.89,7.68-4.22,7.02-8.74ZM233.59,124.78c.62-.79.7-2.13-.12-2.82-3.8-3.21-7.63-6.37-11.45-9.55-.81-.69-1.84-.73-2.66,0-29.62,26.29-63.03,50.39-89.26,80.22-.77.3-1.35.95-1.51,1.73-.13.22-.16.44-.11.68-1.74,3.24-2.24,8.8-.65,11.62.8,1.41,3.26,2.78,4.45,3.81,1.49,1.27,2.97,2.54,4.45,3.81,2.62,2.25,5.22,4.51,7.99,6.58,1.11.83,3.07,0,3.31-1.35.04-.19.07-.39.11-.59,14.93-13.09,28.51-27.44,42.55-41.44,14.28-14.24,29.78-27.21,43.25-42.26.03-.02.03-.05.05-.07.46-.24.8-.68.74-1.36-.25-3.09-.51-6.02-1.14-9.01h0ZM224.92,127.3c-4,3.86-7.99,7.71-11.99,11.57-11.96,11.54-23.85,23.16-35.74,34.77-9.32,9.1-21.11,18.03-29.03,28.37-.52.67-.97,1.16-1.38,1.55-1.04.07-2.11-.02-3.23-.24-3.7-2.96-7.27-7.22-10.57-9.97,17.94-12.66,33.91-28.43,50.26-42.97,10.73-9.54,21.3-19.26,31.88-28.97,1.15-1.05,4.07-4.7,5.92-5.73-1.63,1.34,5.49,6.04,8.11,7.29-1.22.86-3.3,3.44-4.23,4.33h0Z"/>
      <path d="M107.6,101.71c-2.78-1.96-2.81-4.66.51-6.62,7.14-4.22,12.36-9.23,19.83-11.64,4.34-.29,4.66,7.39,6.49,10.39,5.55,14.37,5.57,14.99-9.76,16.03-8.45,13.67-20.74,24.31-36.67,27.92-3.3.15-12.41,3.53-13.49-.59-.18-2.72,3.45-3.56,5.38-4.62,10.58-5.54,22.18-12.27,27.39-23.57.81-1.85,2.22-4.07,1.95-6.1-.42-.51-1.11-.83-1.63-1.21h0Z"/>
    </g>
  </g>
</svg>