<?xml version="1.0" encoding="UTF-8"?>
<svg id="objects" xmlns="http://www.w3.org/2000/svg" viewBox="0 0 302 284.06">
  <defs>
    <style>
      .cls-1 {
        fill: #fff;
      }

      .cls-2 {
        fill: #f2c316;
      }

      .cls-3 {
        fill: none;
        stroke: #000;
        stroke-miterlimit: 10;
        stroke-width: 2px;
      }
    </style>
  </defs>
  <g>
    <path class="cls-3" d="M86.56,21.78C111.57,5.99,140.21-.4,171.64,3.23c29.38,3.4,54.94,17.44,77.19,43.11"/>
    <path class="cls-3" d="M61.85,275.16c11.86,5.03,24.92,6.77,37.8,6.66,12.88-.11,25.68-2.01,38.41-4.01,24.59-3.88,50.15-8.59,70.07-23.52"/>
    <path class="cls-2" d="M2.82,203.3c.93,10.7,4.94,22.16,8.62,32.25,3.18,8.72,6.72,16.44,12.62,22.7s10.69,11.9,18.25,15.35c13.15,5.99,30.49,5.81,44.29.44,15.33-5.96,25-14,39.03-20.12s24.31-10.01,37.17-7.86,25,7.24,37.43,11.15c12.43,3.91,26.08,4.94,38.83,2.26,15.17-3.19,24.66-13.45,34.1-25.75,10.35-13.49,16.82-27.33,20.02-42.5,4.32-20.48,6.83-40.93,5.95-61.7s-6-41.93-16.29-59.98c-4.74-8.32-9.31-13.6-17.27-18.81-7.96-5.2-18.92-8.18-28.33-6.81-9.72,1.41-21.29,5.63-29.83,10.49-11.91,6.77-19.34,9.67-37.32,9.4-11.93-.18-21.94-7.89-31.1-15.53-9.17-7.64-18.56-15.96-28.69-22.27s-23.35-12.06-34.88-8.97c-11.53,3.09-23.39,12.04-31.6,21.11s-14.43,18.7-19.7,29.75c-9.96,20.92-14.55,43.13-19.22,65.83s-4.11,46.14-2.08,69.57Z"/>
  </g>
  <g>
    <path d="M291.73,72.31c2.53-1.34,5.05-2.69,7.58-4.03,2.15-1.14,1.59-4.53-.42-5.44-2.51-1.15-5.03-2.3-7.54-3.44-1.01-.46-4.81-2.3-6.08-2.59.02-1.2-.85-4.93-1.06-6.15-.49-2.77-.97-5.53-1.46-8.3-.02-.27-.1-.51-.2-.76-.02-.04-.03-.09-.04-.13-.08-.19-.17-.37-.28-.54-.13-.19-.27-.36-.42-.51-.92-.91-2.31-1.35-3.58-.76-.69.23-1.28.69-1.58,1.36-1.68,1.83-3.36,3.66-5.04,5.49-.82.89-3.73,3.86-4.36,4.92-1.12-.41-5.1-.81-6.23-.97-2.83-.4-5.67-.8-8.5-1.2-2.82-.4-4.48,2.53-3.15,4.87,1.36,2.41,2.72,4.81,4.08,7.22.81,1.43,1.5,3.16,2.51,4.45.21.27.43.86.62,1.35-.82,1.18-2.36,4.59-2.8,5.48-1.25,2.57-2.51,5.14-3.76,7.72-.96,1.96.7,4.98,3.11,4.49,2.71-.55,5.42-1.1,8.12-1.65,1.62-.33,3.46-.45,5.01-1.01.3-.11,1.56-.18,2.11-.32.84.99,3.58,3.65,4.44,4.48,2.06,1.99,4.12,3.98,6.18,5.96,1.68,1.62,4.89.5,5.16-1.83.31-2.75.63-5.49.94-8.24.18-1.58.78-7.38.54-7.03-.31.44,4.88-2.24,6.14-2.9Z"/>
    <g>
      <path class="cls-1" d="M247.09,154.27c-3.24,7.29-6.9,14.35-29.61,31.79-22.7,17.43-58.48,16.16-58.48,16.16-45.41-1.38-71.41-29.67-71.41-29.67-6.56-5.41-12.76-11.94-15.16-18.7-3.69-10.4,10.14-23.59,16.98-29.98,21.15-19.75,51.4-27.91,79.85-25.06,5.35.53,10.92,1.51,16.53,2.91h-.01c32.6,5.91,50.12,24.67,56.77,33.12,5.96,7.58,7.33,13.15,4.54,19.43Z"/>
      <g>
        <path d="M225.44,141.29c-34.85-41.21-107.53-38.42-137.79,6.73-.63.63-.88,1.53-.35,2.47.05.09.1.17.15.26.01.01.02.03.03.05.02.02.03.03.05.05.04.06.08.12.13.17,33.06,44.36,110.25,42.4,138.16-6.65.59-1.05.36-2.2-.38-3.08ZM92.84,149.47c10.69-15.28,26.69-25.19,44.4-29.59-8.46,6.02-14.06,15.52-13.76,27.1.36,13.81,9.47,25.43,21.67,30.25-20.32-2.17-39.57-11.33-52.31-27.76ZM158.57,156.75c-12.51.44-13.2-19.41-.71-20.4,12.42.42,13.31,19.96.71,20.4ZM219.2,145.59c-1.87,9.55-19.02,19.74-26.73,23.58-6.15,3.06-12.71,5.25-19.44,6.67,10.53-5.43,18.05-16.16,18.36-28.58.15-5.57-1.09-10.65-3.3-15.13-1.28-4.58-4.25-8.57-8.84-10.98-1.04-.84-2.13-1.64-3.27-2.36,5.3.97,10.52,2.4,15.55,4.35,7.76,3.01,29.52,13.07,27.67,22.45Z"/>
        <path d="M242.55,134.84c-6.65-8.45-24.17-27.21-56.77-33.13h.01c-5.61-1.39-11.18-2.37-16.53-2.9-28.45-2.85-58.7,5.31-79.85,25.06-6.84,6.39-20.67,19.58-16.98,29.98,2.4,6.76,8.6,13.29,15.16,18.7,0,0,26,28.29,71.41,29.67,0,0,35.78,1.27,58.48-16.16,22.71-17.44,26.37-24.5,29.61-31.79,2.79-6.28,1.42-11.85-4.54-19.43ZM205.71,178.32c-13.18,7.98-28.47,12.29-43.81,13.21-27.28,1.62-67.81-8.53-81.7-35.29-7.67-14.79,14.84-31.96,26.03-38.81,13.64-8.37,29.49-12.95,45.44-13.9,29.22-1.74,67.78,9.29,83.77,36.22,4.07,13.97-19.83,32.58-29.73,38.57Z"/>
      </g>
    </g>
  </g>
</svg>