<?xml version="1.0" encoding="UTF-8"?>
<svg id="Layer_1" xmlns="http://www.w3.org/2000/svg" xmlns:xlink="http://www.w3.org/1999/xlink" version="1.1" viewBox="0 0 314 267.91">
  <!-- Generator: Adobe Illustrator 30.0.0, SVG Export Plug-In . SVG Version: 2.1.1 Build 123)  -->
  <defs>
    <style>
      .st0 {
        fill: url(#linear-gradient2);
      }

      .st1 {
        fill: url(#linear-gradient1);
      }

      .st2 {
        fill-rule: evenodd;
      }

      .st2, .st3 {
        fill: #4f00ca;
      }

      .st4 {
        fill: url(#linear-gradient);
      }

      .st5 {
        isolation: isolate;
      }
    </style>
    <linearGradient id="linear-gradient" x1="78.24" y1="168.97" x2="196.69" y2="287.42" gradientTransform="translate(0 268) scale(1 -1)" gradientUnits="userSpaceOnUse">
      <stop offset="0" stop-color="#7d00fb"/>
      <stop offset=".09" stop-color="#7700f1"/>
      <stop offset=".24" stop-color="#6800d7"/>
      <stop offset=".44" stop-color="#5000ae"/>
      <stop offset=".67" stop-color="#300075"/>
      <stop offset=".75" stop-color="#23005e"/>
    </linearGradient>
    <linearGradient id="linear-gradient1" x1="141.76" y1="106.04" x2="225.71" y2="230.66" gradientTransform="translate(0 268) scale(1 -1)" gradientUnits="userSpaceOnUse">
      <stop offset="0" stop-color="#7d00fb"/>
      <stop offset=".1" stop-color="#7700f0"/>
      <stop offset=".28" stop-color="#6700d5"/>
      <stop offset=".5" stop-color="#4d00a8"/>
      <stop offset=".77" stop-color="#2a006a"/>
      <stop offset=".83" stop-color="#23005e"/>
    </linearGradient>
    <linearGradient id="linear-gradient2" x1="125.16" y1="147.85" x2="189.45" y2="243.31" gradientTransform="translate(0 268) scale(1 -1)" gradientUnits="userSpaceOnUse">
      <stop offset="0" stop-color="#7d00fb"/>
      <stop offset=".5" stop-color="#450099"/>
      <stop offset=".83" stop-color="#23005e"/>
    </linearGradient>
  </defs>
  <g class="st5">
    <path class="st3" d="M38.56,262.74c.59-1.09.88-2.38.88-3.86s-.23-2.77-.71-3.84c-.48-1.08-1.2-1.97-2.17-2.69-.95-.71-2.17-1.28-3.64-1.68-1.48-.41-3.19-.67-5.16-.78l-15.7-1.05c-.98-.08-1.79-.19-2.42-.32-.63-.12-1.1-.36-1.41-.69-.31-.33-.46-.81-.46-1.43,0-.53.12-.97.34-1.3.22-.34.68-.6,1.34-.8.68-.2,1.65-.34,2.92-.42s2.95-.13,5.02-.13c1.73,0,3.5.05,5.27.15,1.78.1,3.51.22,5.23.38,1.7.15,3.32.34,4.85.55s2.89.44,4.1.69l1.22-5.76c-1.38-.31-2.89-.59-4.54-.84-1.65-.25-3.33-.46-5.07-.63-1.72-.17-3.38-.3-4.97-.4-1.6-.1-3.06-.15-4.38-.15-4.36,0-7.92.3-10.66.9-2.75.6-4.74,1.55-6.01,2.84s-1.9,2.98-1.9,5.08c0,1.77.4,3.24,1.2,4.43.79,1.19,2.06,2.11,3.79,2.75,1.75.64,4.02,1.05,6.86,1.22l15.95,1.05c.87.06,1.59.16,2.17.32.57.15,1,.4,1.28.73.28.34.41.87.41,1.6,0,.5-.12.94-.35,1.3-.24.36-.68.65-1.31.86s-1.53.36-2.69.46-2.69.15-4.6.15c-2.01,0-3.98-.06-5.91-.19-1.91-.13-3.76-.3-5.57-.53-1.79-.22-3.5-.48-5.11-.76-1.63-.28-3.16-.57-4.58-.88l-1.09,6.13c1.7.42,3.69.79,5.96,1.11,2.26.32,4.64.59,7.11.8,2.48.21,4.89.31,7.21.31,3.53,0,6.46-.17,8.8-.5s4.19-.85,5.54-1.53c1.37-.69,2.34-1.57,2.92-2.67l.04.02Z"/>
    <path class="st3" d="M43.43,238.59v28.32h7.9v-28.32h-7.9Z"/>
    <path class="st3" d="M52.33,252.83l16.89,14.07h11.52l-17.86-14.2,17.89-14.12h-11.21l-17.23,13.99v.25h0Z"/>
    <path class="st2" d="M91.3,266.9l3.72-5.8h22.3l3.73,5.8h9.24l-18.99-28.65h-10.17l-18.99,28.65h9.17-.01ZM106.15,243.71l-7.7,12.01h15.41l-7.71-12.01Z"/>
    <path class="st3" d="M131.96,238.59v28.32h22.48v-6.01h-14.88v-22.31h-7.6Z"/>
    <path class="st3" d="M157.14,266.9v-28.32h7.59v22.31h14.88v6.01h-22.48,0Z"/>
    <path class="st2" d="M194.03,261.1l-3.72,5.8h-9.15l18.98-28.65h10.18l18.98,28.65h-9.24l-3.72-5.8h-22.31ZM197.48,255.73l7.68-12.01,7.73,12.01h-15.41,0Z"/>
    <path class="st2" d="M238.89,266.9h-7.65v-28.65h28.4c1.78,0,3.38.17,4.82.53,1.44.35,2.67.9,3.72,1.66,1.04.76,1.82,1.76,2.38,3.02.54,1.26.81,2.8.81,4.62,0,2.07-.38,3.8-1.18,5.19-.78,1.39-1.92,2.44-3.42,3.17-1.5.73-3.31,1.16-5.44,1.3l-2.23.08,2.35,1.47,9.58,7.6h-9.61l-10.68-8.7h-11.84v8.7h-.01ZM238.89,244.8v7.69h20.04c1.62,0,2.79-.3,3.48-.9.71-.6,1.06-1.57,1.06-2.92,0-1.46-.35-2.46-1.06-3.03-.69-.56-1.87-.84-3.48-.84h-20.04,0Z"/>
    <path class="st3" d="M312.57,262.74c.59-1.09.88-2.38.88-3.86s-.24-2.77-.72-3.84c-.47-1.08-1.19-1.97-2.16-2.69-.97-.71-2.19-1.28-3.66-1.68-1.47-.41-3.19-.67-5.14-.78l-15.72-1.05c-.97-.08-1.78-.19-2.41-.32-.63-.12-1.1-.36-1.41-.69s-.46-.81-.46-1.43c0-.53.1-.97.34-1.3.22-.34.66-.6,1.34-.8s1.65-.34,2.92-.42,2.95-.13,5.02-.13c1.73,0,3.48.05,5.27.15,1.78.1,3.51.22,5.23.38,1.7.15,3.32.34,4.85.55s2.89.44,4.1.69l1.22-5.76c-1.38-.31-2.89-.59-4.54-.84-1.66-.25-3.35-.46-5.07-.63s-3.38-.3-4.98-.4c-1.59-.1-3.06-.15-4.36-.15-4.38,0-7.93.3-10.68.9-2.73.6-4.74,1.55-5.99,2.84-1.26,1.29-1.9,2.98-1.9,5.08,0,1.77.4,3.24,1.19,4.43.81,1.19,2.07,2.11,3.8,2.75,1.73.64,4.02,1.05,6.85,1.22l15.97,1.05c.87.06,1.59.16,2.16.32.57.15,1,.4,1.29.73.28.34.41.87.41,1.6,0,.5-.12.94-.35,1.3s-.68.65-1.31.86-1.53.36-2.69.46-2.69.15-4.6.15c-2.01,0-3.98-.06-5.91-.19-1.91-.13-3.78-.3-5.57-.53-1.79-.22-3.5-.48-5.13-.76-1.62-.28-3.14-.57-4.57-.88l-1.1,6.13c1.72.42,3.7.79,5.96,1.11,2.28.32,4.64.59,7.12.8,2.48.21,4.88.31,7.21.31,3.53,0,6.46-.17,8.8-.5s4.19-.85,5.54-1.53c1.37-.69,2.34-1.57,2.92-2.67l.04.02Z"/>
  </g>
  <g>
    <path class="st4" d="M196.09.47h-39.14l-92.68,92.4h39.68C110.14,87.61,195.24,2.28,196.09.47Z"/>
    <polygon class="st1" points="210.49 53.45 117.84 145.85 157.52 145.85 249.63 53.45 210.49 53.45"/>
    <path class="st0" d="M210.55,38.9h-39.27l-67.22,67.04h40.17c25.48-25.35,66.32-67.04,66.32-67.04h0Z"/>
  </g>
</svg>