<?xml version="1.0" encoding="UTF-8"?>
<svg id="Layer_1" data-name="Layer 1" xmlns="http://www.w3.org/2000/svg" viewBox="0 0 243.11 213.16">
  <g>
    <path d="M0,150.11c0-1.52,1.3-2.82,2.89-2.82s2.89,1.3,2.89,2.82-1.3,2.89-2.89,2.89-2.89-1.3-2.89-2.89ZM1.08,161.75h3.62v36.15H1.08v-36.15Z"/>
    <path d="M51.56,161.75v34.42c0,10.85-8.03,16.99-18.01,16.99-8.46,0-14.46-3.4-17.07-8.68l3.18-1.81c1.88,3.83,5.93,7.01,13.88,7.01,9.04,0,14.39-5.28,14.39-13.52v-6.65c-2.96,5.57-8.53,9.18-15.55,9.18-10.34,0-18.73-8.17-18.73-18.87s8.39-18.87,18.73-18.87c7.01,0,12.58,3.62,15.55,9.18v-8.39h3.62ZM47.94,179.83c0-8.6-6.72-15.4-15.33-15.4s-15.33,6.8-15.33,15.4,6.73,15.4,15.33,15.4,15.33-6.8,15.33-15.4Z"/>
    <path d="M92.34,161.75v36.15h-3.62v-6.87c-2.75,5.35-7.38,7.66-12.94,7.66-8.6,0-14.03-5.71-14.03-14.46v-22.49h3.69v22.49c0,6.65,3.83,10.99,10.63,10.99s12.65-4.63,12.65-14.39v-19.09h3.62Z"/>
    <path d="M119.17,161.25v3.47c-6.22,0-12.08,3.83-12.08,13.09v20.1h-3.62v-36.15h3.62v7.09c2.46-5.71,7.16-7.59,12.08-7.59Z"/>
    <path d="M156.12,161.75v36.15h-3.62v-6.87c-2.75,5.35-7.38,7.66-12.94,7.66-8.6,0-14.03-5.71-14.03-14.46v-22.49h3.69v22.49c0,6.65,3.83,10.99,10.63,10.99s12.65-4.63,12.65-14.39v-19.09h3.62Z"/>
    <path d="M166.17,195.38c0-1.81,1.37-3.25,3.25-3.25s3.25,1.45,3.25,3.25-1.45,3.25-3.25,3.25-3.25-1.45-3.25-3.25Z"/>
    <path d="M207.03,188.44c0,5.93-5.21,10.27-12.94,10.27-7.23,0-12-3.4-13.74-8.03l3.11-1.81c1.3,3.9,5.21,6.36,10.63,6.36,5.06,0,9.33-2.24,9.33-6.8,0-9.83-21.91-4.19-21.91-17.21,0-5.71,4.92-10.27,12.29-10.27,5.86,0,10.34,2.82,12.29,7.23l-3.04,1.74c-1.52-3.76-5.28-5.5-9.26-5.5-4.7,0-8.68,2.46-8.68,6.8,0,9.69,21.91,3.98,21.91,17.21Z"/>
    <path d="M238.19,197.91l-19.16-17.79v17.79h-3.62v-50.62h3.62v30.88l18.3-16.41h5.06l-19.45,17.35,20.17,18.8h-4.92Z"/>
  </g>
  <g>
    <path d="M186.15,119.43h-7.81c0-27.83-25.89-50.48-57.71-50.48s-57.72,22.64-57.72,50.48h-7.82c0-32.14,29.4-58.29,65.53-58.29,36.13,0,65.53,26.15,65.53,58.29Z"/>
    <path d="M123.06,52.16l1.14-6.16C132.6.53,173.63,0,174.05,0h4.77l-.93,4.67c-6.74,33.67-47.07,45.32-48.78,45.8l-6.03,1.69ZM168.78,8.36c-9.24,1.6-27.97,7.83-35.25,32.21,10.07-4.17,28.86-14.13,35.25-32.21Z"/>
    <path d="M84.67,106.55c0,3.05-2.48,5.54-5.54,5.54s-5.54-2.48-5.54-5.54,2.48-5.54,5.54-5.54c3.06,0,5.54,2.48,5.54,5.54Z"/>
    <path d="M166.41,106.55c0,3.05-2.48,5.54-5.54,5.54s-5.54-2.48-5.54-5.54,2.48-5.54,5.54-5.54c3.06,0,5.54,2.48,5.54,5.54Z"/>
  </g>
</svg>