<?xml version="1.0" encoding="UTF-8"?>
<svg id="objects" xmlns="http://www.w3.org/2000/svg" version="1.1" viewBox="0 0 285 283.94">
  <!-- Generator: Adobe Illustrator 30.0.0, SVG Export Plug-In . SVG Version: 2.1.1 Build 123)  -->
  <defs>
    <style>
      .st0 {
        fill: #fff;
      }

      .st1 {
        fill: #f3c300;
      }

      .st1, .st2 {
        isolation: isolate;
      }

      .st2 {
        fill: none;
        stroke: #000;
        stroke-miterlimit: 10;
        stroke-width: 2px;
      }
    </style>
  </defs>
  <g>
    <path class="st2" d="M168.03,275.13c13.97,4.19,32.09,7.47,48.46,3.77,23.85-5.38,34.12-14.36,46.08-35.49,11.87-20.95,13.6-46.55,11.7-70.56-3.53-44.51-15.7-79.87-38.79-112.63-12.75-18.09-30.41-34.62-50.77-43.3C162.64,7.53,143.63,1.38,120.21,1.27c-21.25-.1-40.54,3.21-58.44,12.83-13.43,7.22-26.9,15.64-37.76,26.33-31.65,31.16-26.39,76.82-7.7,111.51,20.14,37.39,50.79,69.65,85.5,94.09,19.55,13.76,41.77,21.76,66.22,29.1h0Z"/>
    <path class="st1" d="M10.38,176.67c-4.05,14.01-7.13,32.16-3.27,48.49,5.63,23.79,14.71,33.96,35.96,45.71s46.69,13.12,70.68,10.96c44.47-4,79.71-16.53,112.22-39.96,17.96-12.94,34.31-30.77,42.77-51.22,9.17-22.16,15.12-41.23,14.99-64.66-.12-21.25-3.63-40.5-13.44-58.3-7.36-13.35-15.91-26.73-26.72-37.48-31.49-31.32-77.09-25.59-111.59-6.54-37.17,20.53-69.12,51.51-93.19,86.48-13.56,19.69-21.32,42-28.41,66.52h0Z"/>
  </g>
  <g id="nYtFZM">
    <g>
      <path d="M220.25,173.89c-10.21,8.71-20.6,17.53-31.37,25.55-2.9,2.16-7.09,5.5-10.04,7.27-2.49,1.49-3.85,1.66-6.67.7-3.64-1.24-10.25-4.89-13.92-6.8-9.42-4.9-18.71-10.51-27.91-15.81-20.81-11.99-43.94-23.73-52.85-47.65-4.49-12.04-2.73-35.58,5.54-45.84,7.34-9.1,26.96-22.72,38.54-24.48,7.81-1.18,22.57,2.45,30.28,5.04,2.48.84,5.38,3.1,7.99,1.99,1.78-.76,5.06-3.97,6.96-5.25,19.33-12.98,47.54-12.96,65.4,2.68,3.09,2.71,3.57,4.67,5.7,7.64.85,1.19,2.42,2.27,3.39,3.42,11.65,13.76,9.79,40.61,5.73,57.12-4.15,16.9-14.35,23.81-26.77,34.41ZM233.44,85.44c.86-1.47-6.03-8.63-7.34-9.76-2.31-1.98-5.14-3.73-8.06-4.63-.47.09-4.38,5.98-4.58,6.75-.75,2.82,2.07,5.27-1.26,8.11s-6.29-1.12-5.56-4.43c2.55-3.88,5.84-7.53,6.86-12.2-4.45-1.61-9.47-2.86-14.21-3.12-2.42-.14-6.5-.54-7.68,2-1.35,6.59-5.74,13.93-3.4,20.72.83,2.41,2.62,3.47,1.22,6.35s-4.86,3.82-6.77.9c-1.8-2.75.36-5.01,1.05-7.75.92-3.65.85-7.65,1.69-11.37.77-3.41,2.47-6.56,3.22-9.98-4.44,0-8.78,2.09-12.88,3.73l-25.07,14.36-1.78-.63c.66-2.11,2.68-3.32,3.68-5.26-11.41-2.84-23.52-9.74-35.27-4.75-7.98,3.39-26.66,16.11-31.28,23.23-5.71,8.8-6.76,28.87-2.65,38.37,5.14,11.84,22.45,21.28,33.33,27.42,2.94,1.66,5.83,3.46,8.75,5.17.62.13.74-1.47.74-1.85,0-3.15.09-17.14-.58-19.03s-2.32-1.99-.92-4.59c1.08-2.01,3.75-2.21,4.74-.09s-.11,2.45-.64,4.2c-.65,2.13.24,5.74.76,7.89.45.32,5.67-.6,6.61-.81,3.03-.67,6.82-1.39,6.78-5.17-.01-1.3-.89-6.27-1.35-7.47-.37-.96-1.17-1.54-1.56-2.41-2.12-4.76,5.38-7.89,6.73-2.76.44,1.69-.83,3.97-1,5.83-.35,3.75.64,7.83-.73,11.48-.42.57-3.21,1.41-4.04,1.64-2.71.74-8.38.76-10.15,2.62-2.23,2.34-.35,6.57.13,9.27.2,1.15-.11,2.08.3,3.39.59,1.87,3,3.19,4.56,1.69,1.26-1.22,3.12-4.69,4.43-6.36,2.5-3.19,5.55-6.92,8.2-9.97,3.68-4.22,8.88-8.55,12.21-12.77,2.69-3.41.79-9.69.43-13.77-.31-3.52-.49-13.7-2.04-16.13-1.09-1.71-2.75-2.15-2.09-4.74.81-3.14,4.61-4.34,6.68-1.55,2.1,2.82-.56,4.76-1.01,7.51-.61,3.74,1.09,10.37,1.57,14.36.31,2.59-.02,5.45.87,8.08.87.74,5.13-3.35,5.95-4.1,10.31-9.38,20.04-19.04,31.09-27.68,9.75-7.62,20.21-14.47,31.32-19.92ZM219.39,152.31c11.4-10.48,15.91-18.8,17.2-34.6.52-6.34,1.02-18.63-.34-24.63-.54-2.36-.86-2.75-3.09-1.53-3.94,2.14-9.9,6.52-13.79,9.2-26.14,18-50.62,40.01-72.05,63.37-3.25,3.54-6.33,7.28-9.49,10.9,3.16,2.11,6.54,4.12,9.83,6.08,5.19,3.09,10.05,5.75,14.83,9.58,1.08.87,4.9,4.77,5.62,4.91.26.05.46.07.72,0,.34-.09,3.76-3.49,4.46-4.08,15.28-13.01,31.33-25.63,46.1-39.2Z"/>
      <path class="st0" d="M233.44,85.44c-11.11,5.45-21.58,12.31-31.32,19.92-11.05,8.64-20.78,18.29-31.09,27.68-.82.75-5.08,4.84-5.95,4.1-.89-2.63-.56-5.49-.87-8.08-.48-3.99-2.18-10.61-1.57-14.36.45-2.75,3.11-4.69,1.01-7.51-2.07-2.78-5.87-1.59-6.68,1.55-.66,2.59,1,3.03,2.09,4.74,1.55,2.43,1.72,12.61,2.04,16.13.36,4.08,2.27,10.36-.43,13.77-3.33,4.22-8.53,8.54-12.21,12.77-2.65,3.04-5.7,6.78-8.2,9.97-1.31,1.67-3.17,5.14-4.43,6.36-1.56,1.51-3.97.18-4.56-1.69-.41-1.31-.09-2.24-.3-3.39-.48-2.7-2.35-6.93-.13-9.27,1.77-1.86,7.44-1.89,10.15-2.62.83-.23,3.62-1.07,4.04-1.64,1.37-3.65.38-7.72.73-11.48.17-1.86,1.44-4.14,1-5.83-1.35-5.14-8.85-2.01-6.73,2.76.39.87,1.19,1.45,1.56,2.41.46,1.2,1.34,6.17,1.35,7.47.04,3.78-3.75,4.5-6.78,5.17-.94.21-6.16,1.13-6.61.81-.51-2.15-1.4-5.75-.76-7.89.53-1.75,1.66-2.02.64-4.2s-3.66-1.93-4.74.09c-1.4,2.59.27,2.72.92,4.59s.57,15.88.58,19.03c0,.38-.12,1.99-.74,1.85-2.92-1.71-5.81-3.51-8.75-5.17-10.88-6.14-28.19-15.58-33.33-27.42-4.12-9.5-3.07-29.57,2.65-38.37,4.62-7.12,23.3-19.84,31.28-23.23,11.75-4.98,23.85,1.92,35.27,4.75-1,1.93-3.02,3.14-3.68,5.26l1.78.63,25.07-14.36c4.1-1.64,8.44-3.72,12.88-3.73-.75,3.42-2.45,6.57-3.22,9.98-.84,3.71-.77,7.72-1.69,11.37-.69,2.74-2.85,5-1.05,7.75,1.91,2.92,5.4,1.92,6.77-.9s-.39-3.94-1.22-6.35c-2.35-6.79,2.05-14.13,3.4-20.72,1.18-2.54,5.26-2.13,7.68-2,4.74.27,9.76,1.52,14.21,3.12-1.02,4.66-4.3,8.32-6.86,12.2-.73,3.31,2.29,7.22,5.56,4.43s.51-5.29,1.26-8.11c.21-.77,4.12-6.66,4.58-6.75,2.92.9,5.75,2.65,8.06,4.63,1.31,1.12,8.2,8.28,7.34,9.76ZM132.59,129.1c8.68-8.25,8.94-24.24-.94-31.65-16.48-12.36-39.19,4.14-33.67,23.45,4.35,15.22,23.49,18.77,34.61,8.2Z"/>
      <path class="st0" d="M219.39,152.31c-14.77,13.58-30.82,26.2-46.1,39.2-.7.6-4.12,3.99-4.46,4.08-.26.07-.46.05-.72,0-.72-.14-4.54-4.04-5.62-4.91-4.78-3.83-9.64-6.49-14.83-9.58-3.3-1.97-6.67-3.98-9.83-6.08,3.16-3.62,6.25-7.36,9.49-10.9,21.43-23.36,45.91-45.36,72.05-63.37,3.89-2.68,9.86-7.06,13.79-9.2,2.23-1.22,2.56-.83,3.09,1.53,1.36,6,.86,18.29.34,24.63-1.28,15.8-5.79,24.12-17.2,34.6ZM221.94,109.23c3.28,2.94,7.44-1.21,4.88-4.46-2.66-3.37-8.27,1.41-4.88,4.46ZM198.2,124.15c-4.14.81-3.8,7.58.48,7.31,4.41-.28,4.2-8.23-.48-7.31ZM227.72,134.8c1.38-1.36,1.33-5.07-.6-5.91-4.36-1.91-7.19,4.09-3.55,6.11,1.08.6,3.25.7,4.16-.2ZM178.59,146.05c-3.6-3.64-8.27,3.17-3.88,5.16,3.87,1.75,5.93-3.08,3.88-5.16ZM155.6,167.62c-4.05-4.84-10.48,4.32-4.44,6.57,4.33,1.61,7.02-3.49,4.44-6.57ZM164.58,179.54c-2.85,3.22,1.23,8.62,4.73,6.29,4.03-2.68-1.54-9.89-4.73-6.29Z"/>
      <path d="M132.59,129.1c-11.12,10.57-30.26,7.02-34.61-8.2-5.52-19.31,17.19-35.8,33.67-23.45,9.88,7.41,9.62,23.4.94,31.65ZM117.31,98.06c-18.48,1.68-22.31,26.97-4.7,32.35,13.89,4.25,27.09-10.26,20.71-23.55-2.79-5.8-9.64-9.38-16.01-8.81Z"/>
      <path d="M155.6,167.62c2.58,3.08-.12,8.19-4.44,6.57-6.03-2.25.39-11.41,4.44-6.57Z"/>
      <path d="M164.58,179.54c3.19-3.59,8.76,3.61,4.73,6.29-3.5,2.33-7.58-3.07-4.73-6.29Z"/>
      <path d="M198.2,124.15c4.69-.91,4.89,7.03.48,7.31-4.28.27-4.62-6.5-.48-7.31Z"/>
      <path d="M227.72,134.8c-.91.9-3.07.8-4.16.2-3.64-2.02-.81-8.02,3.55-6.11,1.94.85,1.99,4.55.6,5.91Z"/>
      <path d="M221.94,109.23c-3.39-3.05,2.23-7.83,4.88-4.46,2.56,3.25-1.61,7.4-4.88,4.46Z"/>
      <path d="M178.59,146.05c2.06,2.08,0,6.91-3.88,5.16-4.39-1.99.28-8.79,3.88-5.16Z"/>
      <path class="st0" d="M117.31,98.06c6.37-.58,13.22,3,16.01,8.81,6.38,13.29-6.82,27.8-20.71,23.55-17.61-5.39-13.78-30.68,4.7-32.35ZM126.93,118.34c.22-.26.53-1.15.53-1.48-.02-2.86-5.1-2.3-6.46-5.05-1.49-3,1.92-6.25.22-7.88-3.58-3.41-5.49,5.77-7.14,6.8-1.74,1.09-6.91-1.2-7.45,1.66-.39,2.07,4.17,2.29,5.14,4.69s-.66,4.17-.51,5.76c.05.49.77,1.57,1.27,1.71,3.89,1.11,3.4-2.98,4.79-5.19,2.04-3.24,7.58,1.4,9.63-1.01Z"/>
      <path d="M126.93,118.34c-2.05,2.41-7.58-2.23-9.63,1.01-1.4,2.21-.9,6.3-4.79,5.19-.49-.14-1.22-1.22-1.27-1.71-.15-1.59,1.49-3.36.51-5.76s-5.53-2.62-5.14-4.69c.54-2.86,5.71-.57,7.45-1.66s3.56-10.21,7.14-6.8c1.71,1.63-1.7,4.89-.22,7.88,1.37,2.75,6.44,2.19,6.46,5.05,0,.33-.31,1.22-.53,1.48Z"/>
    </g>
  </g>
</svg>