<?xml version="1.0" encoding="UTF-8"?>
<svg id="Layer_1" data-name="Layer 1" xmlns="http://www.w3.org/2000/svg" viewBox="0 0 292.56 300.6">
  <defs>
    <style>
      .cls-1 {
        fill: #fff;
      }

      .cls-2 {
        fill: #f3c300;
        isolation: isolate;
      }

      .cls-3 {
        fill: none;
        stroke: #000;
        stroke-miterlimit: 10;
        stroke-width: 2px;
      }
    </style>
  </defs>
  <g>
    <path class="cls-2" d="M85.77,54.03c35.28-18.21,65.42-31.79,111.36-30.79,10.65.23,35.17,5.13,48.93,15.21,17.53,12.83,30.11,27.83,35.96,51.81,9.45,38.66,7,80.6-2.22,119.32-3.88,16.27-9.58,32.36-19.25,46-9.67,13.64-23.61,25.59-39.91,29.31-12.44,2.83-22.7,3-37.32-5.38s-25.63-20.82-41.01-26.14c-33.79-11.68-70.81,20.82-104.93,10.15-16.73-5.23-29.05-20.45-34.23-37.19-5.19-16.74-3.13-51.78.22-68.99,5.09-26.15,31.7-73.74,82.41-103.3"/>
    <path class="cls-3" d="M260.13,208.99c3.65,8.5,7.17,17.86,7.11,27.12-.09,13.43-4.63,29.51-13.19,36.37-26.4,21.14-41.02,24.2-73.26,26.47-29.9,2.11-59.52-.96-88.27-9.44-20.37-6.01-45.02-15.76-61.02-28.81-17.02-13.88-28.45-32.99-23.83-53.11,2.92-12.7,14.58-26.74,22.96-36.72,8.37-9.98,16.1-18.85,20.5-31.11,6.4-17.84-3.17-37.95-11.27-55.08-8.62-18.21-8.47-37.52,2.83-52.12,11.29-14.61,30.4-22.51,48.31-27C119.74-1.64,150.37,0,178.84,8.24c18.12,5.24,32.92,9.11,49.07,22.82,10.23,8.69,21.43,19.16,22.52,48.49.3,8.15-5.28,25.96-8.35,33.51-4.75,11.68-7.71,25.74-6.64,37.84,1.91,21.52,10.35,24.65,24.7,58.08h-.01,0Z"/>
  </g>
  <g>
    <g>
      <path d="M220.22,176.2c-11.53,9.25-25.41,15.28-39.85,18.19-27.11,5.46-57,.55-80-15.08-9-6.12-22.19-16.57-25.77-27.35-3.47-10.45,10.6-23.33,17.55-29.55,21.5-19.27,51.85-26.78,80.16-23.36,25.67,3.1,56.52,16.3,69.77,40.01.07.14.08.27.12.41.04.08.09.12.11.2.04.14.04.25.08.39v.06c3.5,12.99-13.02,28.75-22.19,36.09h.02Z"/>
      <g>
        <path class="cls-1" d="M212.48,172.01c-11.53,9.23-25.41,15.28-39.87,18.18-27.09,5.46-56.98.55-80-15.08-8.99-6.12-22.17-16.57-25.75-27.34-3.47-10.47,10.6-23.33,17.54-29.57,21.52-19.27,51.86-26.77,80.18-23.36,25.67,3.1,56.52,16.32,69.77,40.01.07.14.08.27.12.42.03.06.09.11.11.2.04.12.04.25.08.38v.06c3.5,12.99-13.02,28.75-22.19,36.1h.01Z"/>
        <path d="M219.74,138.37c-33.91-41.81-106.48-40.53-137.58,3.89-.64.61-.91,1.5-.41,2.45.04.09.1.17.16.26,0,0,.01.03.03.05s.03.05.04.06c.04.06.07.12.13.17,32.06,44.93,109.1,44.57,137.95-3.79.61-1.03.4-2.18-.32-3.08h0ZM87.3,143.81c10.99-15.02,27.14-24.58,44.91-28.6-8.58,5.83-14.35,15.19-14.29,26.76.06,13.78,8.92,25.54,20.99,30.61-20.22-2.59-39.25-12.11-51.62-28.77h.01,0ZM152.73,152.44c-12.5.17-12.76-19.64-.29-20.37,12.37.66,12.87,20.18.29,20.37ZM213.44,142.53c-2.06,9.5-19.39,19.31-27.16,22.98-6.2,2.92-12.78,4.97-19.53,6.24,10.62-5.2,18.33-15.74,18.9-28.11.27-5.56-.86-10.65-2.98-15.17-1.18-4.58-4.05-8.63-8.59-11.13-1.02-.86-2.09-1.68-3.22-2.43,5.27,1.08,10.45,2.62,15.43,4.67,7.66,3.16,29.16,13.63,27.14,22.95h.01ZM219.74,138.37c-33.91-41.81-106.48-40.53-137.58,3.89-.64.61-.91,1.5-.41,2.45.04.09.1.17.16.26,0,0,.01.03.03.05s.03.05.04.06c.04.06.07.12.13.17,32.06,44.93,109.1,44.57,137.95-3.79.61-1.03.4-2.18-.32-3.08h0ZM87.3,143.81c10.99-15.02,27.14-24.58,44.91-28.6-8.58,5.83-14.35,15.19-14.29,26.76.06,13.78,8.92,25.54,20.99,30.61-20.22-2.59-39.25-12.11-51.62-28.77h.01,0ZM152.73,152.44c-12.5.17-12.76-19.64-.29-20.37,12.37.66,12.87,20.18.29,20.37ZM213.44,142.53c-2.06,9.5-19.39,19.31-27.16,22.98-6.2,2.92-12.78,4.97-19.53,6.24,10.62-5.2,18.33-15.74,18.9-28.11.27-5.56-.86-10.65-2.98-15.17-1.18-4.58-4.05-8.63-8.59-11.13-1.02-.86-2.09-1.68-3.22-2.43,5.27,1.08,10.45,2.62,15.43,4.67,7.66,3.16,29.16,13.63,27.14,22.95h.01ZM234.68,135.91v-.06c-.04-.12-.04-.26-.08-.38-.03-.09-.09-.14-.11-.2-.04-.15-.05-.28-.12-.42-13.25-23.69-44.1-36.9-69.77-40.01-28.32-3.41-58.66,4.09-80.18,23.36-6.94,6.23-21.01,19.1-17.54,29.57,3.58,10.77,16.77,21.21,25.75,27.34,23.02,15.63,52.91,20.54,80,15.08,14.45-2.9,28.33-8.95,39.87-18.18,9.17-7.35,25.7-23.11,22.19-36.1h-.01ZM199.3,174.91c-13.31,7.69-28.65,11.69-43.96,12.28-27.26,1.05-67.48-9.89-80.78-36.88-7.35-14.92,15.46-31.58,26.76-38.19,13.79-8.07,29.69-12.3,45.62-12.92,29.17-1.13,67.42,10.65,82.81,37.86,3.78,14.01-20.46,32.09-30.45,37.85h0ZM82.16,142.27c-.64.61-.91,1.5-.41,2.45.04.09.1.17.16.26,0,0,.01.03.03.05s.03.05.04.06c.04.06.07.12.13.17,32.06,44.93,109.1,44.57,137.95-3.79.61-1.03.4-2.18-.32-3.08-33.91-41.81-106.48-40.53-137.58,3.89h0ZM87.3,143.81c10.99-15.02,27.14-24.58,44.91-28.6-8.58,5.83-14.35,15.19-14.29,26.76.06,13.78,8.92,25.54,20.99,30.61-20.22-2.59-39.25-12.11-51.62-28.77h.01,0ZM152.73,152.44c-12.5.17-12.76-19.64-.29-20.37,12.37.66,12.87,20.18.29,20.37ZM213.44,142.53c-2.06,9.5-19.39,19.31-27.16,22.98-6.2,2.92-12.78,4.97-19.53,6.24,10.62-5.2,18.33-15.74,18.9-28.11.27-5.56-.86-10.65-2.98-15.17-1.18-4.58-4.05-8.63-8.59-11.13-1.02-.86-2.09-1.68-3.22-2.43,5.27,1.08,10.45,2.62,15.43,4.67,7.66,3.16,29.16,13.63,27.14,22.95h.01Z"/>
      </g>
    </g>
    <path d="M277.13,85.14c.45-4.37.91-8.74,1.36-13.1,4.01-2.19,8.02-4.37,12.02-6.56,1.28-.7,1.81-1.76,1.9-2.85.44-1.52,0-3.17-1.92-4.02-2.39-1.06-4.77-2.12-7.16-3.17-.99-.44-4.37-2.1-5.63-2.4,0-1.23-.85-4.69-1.05-5.75-.5-2.66-1-5.31-1.49-7.97-.55-2.93-4.72-3.94-6.66-1.78-1.74,1.94-3.49,3.88-5.23,5.83-.8.89-3.37,3.47-4.04,4.53-1.2-.39-4.87-.73-5.83-.85-2.68-.35-5.36-.7-8.04-1.04-3.09-.4-4.82,3.59-3.45,5.95,2.27,3.92,4.54,7.84,6.81,11.76-1.9,4-3.79,7.99-5.69,11.99-1.47,3.1.99,6.54,4.45,5.8,4.37-.93,8.73-1.87,13.1-2.8,3.27,3.09,6.54,6.18,9.81,9.27,2.65,2.5,6.4.5,6.75-2.81v-.03h0Z"/>
  </g>
</svg>