<svg xmlns="http://www.w3.org/2000/svg" version="1.1" xmlns:xlink="http://www.w3.org/1999/xlink" width="512" height="512" x="0" y="0" viewBox="0 0 24 24" style="enable-background:new 0 0 512 512" xml:space="preserve" class=""><g><path d="M0 17.762V3.5A3.5 3.5 0 0 1 3.5 0 1.5 1.5 0 0 1 5 1.5v14A1.5 1.5 0 0 1 3.5 17h-1c-.925 0-1.784.282-2.5.762ZM24 9v10a5 5 0 0 1-5 5H2.643c-1.308 0-2.499-.941-2.63-2.242A2.5 2.5 0 0 1 2.5 19h1A3.5 3.5 0 0 0 7 15.5V4h12a5 5 0 0 1 5 5Zm-5-1h-3a1 1 0 0 0 0 2h3v7h-2v-3a1 1 0 0 0-2 0v3h-3V9a1 1 0 0 0-2 0v8a2 2 0 0 0 2 2h7a2 2 0 0 0 2-2v-7a2 2 0 0 0-2-2Z" fill="#000000" opacity="1" data-original="#000000" class=""></path></g></svg>