<?xml version="1.0" encoding="UTF-8"?>
<svg id="Layer_1" xmlns="http://www.w3.org/2000/svg" xmlns:xlink="http://www.w3.org/1999/xlink" version="1.1" viewBox="0 0 299.85 290.43">
  <!-- Generator: Adobe Illustrator 30.0.0, SVG Export Plug-In . SVG Version: 2.1.1 Build 123)  -->
  <defs>
    <style>
      .st0, .st1 {
        fill: none;
      }

      .st2 {
        fill: #fff;
      }

      .st3 {
        fill: #f2c316;
      }

      .st1 {
        stroke: #000;
        stroke-miterlimit: 10;
        stroke-width: 2px;
      }

      .st4 {
        clip-path: url(#clippath);
      }
    </style>
    <clipPath id="clippath">
      <path class="st0" d="M0,1.78v288.65h292.39V1.78H0ZM220.86,269.4c-.68.35-1.36.68-2.05,1.02-6.18-1.9-12.43-4.88-18.88-9.01-4.01-2.56-7.55-5.01-10.97-7.38-10.1-6.99-18.08-12.51-30.34-15.77-17.08-4.54-36.87-3.66-60.52,2.69-9.18,2.47-18.55,4.65-27.72,5.67-.17-.64-.34-1.29-.5-1.95,9.13-.98,18.51-3.17,27.7-5.64,13.93-3.74,26.56-5.61,38.11-5.61,8.34,0,16.13.97,23.43,2.92,12.59,3.35,21.1,9.24,30.96,16.05,3.41,2.36,6.93,4.8,10.91,7.34,6.88,4.4,13.52,7.46,20.08,9.25l-.23.42h.02Z"/>
    </clipPath>
  </defs>
  <g>
    <path class="st1" d="M102.39,2.73c-33.88,5.7-62.46,29.63-78.82,59.85C7.21,92.8,4.75,128.28,5.18,162.63c.19,15.55.36,28.88,5.99,45.22,5.06,14.7,14.25,29.66,28.83,35.06,17.94,6.65,39.64,1.97,57.85-2.92s40.8-8.07,61.03-2.69c16.64,4.43,25.83,13.18,41.59,23.27,14.5,9.28,30.69,14.53,49.6,9.07,24.25-7,41.39-30.22,46.21-54.99,4.82-24.77,2.76-52.86-5.28-76.79-15.67-46.66-50.99-85.25-71.29-99.49C177.25,8.59,141.81-3.9,102.39,2.73Z"/>
    <g class="st4">
      <path class="st3" d="M13.09,51.95C-.87,79.75-1.34,117.41,9.96,146.31c11.84,21.68,35.31,34.25,48.56,55.16,9.89,15.74,8.71,35.98,15.53,53.27,10.32,24.48,39.53,35.06,64.71,33.56,78.93,2,179.8-64.59,144.3-152.79C248.96,50.22,76.4-61.65,13.09,51.95Z"/>
    </g>
  </g>
  <g>
    <g>
      <path class="st2" d="M186.56,138.75c-3.26,2.99-7.15,3.48-11.04,1.34-2.26-1.24-3.6-3.41-5.58-4.94-6.3-4.88-15.81.13-11.82,8.82.39.87.36.73,1.97,1.92,2.82,1.02,2.63-.13,5.65,1.12,4.5,1.88,9.89-1.55,12.42,4.42,1.8,4.3-1.38,9.45-3.33,13.14-4.79,9.12-15.14,19.05-25.55,11.57-.07-.05-.1-.13-.17-.17-2.87-.42-5.82-1.53-8.76-2.97-.33,6.23-2.87,12.84-9.27,14.84-7.28,2.28-14.72-2.31-20.96-6.57-2.04-.87-3.97-2.17-5.72-4.09-5.35-5.84-5.88-14.15-2.72-20.04-9.61-5.99-24.35-13.67-20.57-26.8-2.08-7.2,3.24-15.47,8.69-22.44-4.16-2.31-7.2-6.08-10.11-9.93-.2-.24-.29-.51-.36-.76-4.79-5.16-6.34-12.91-1-20.3,8.49-11.77,24.61-7.05,29.35,4.42,3.24-5.47,6.93-11.33,13.28-12.56,7.61-1.46,15.62,3.81,22.55,8.78-1.58-10.17,8.57-20.32,20.55-18.6,4.86.7,9.68,3.57,12.99,7.54.15.1.3.16.44.3,6.3,6.76,15.1,22.42,5.69,28.31,4.23,2.38,7.76,5.42,9.24,9.49.1.1.22.17.33.32,6.83,9.66,2.23,26.1-6.17,33.84h0Z"/>
      <path d="M192.73,104.91c-.1-.15-.22-.22-.33-.32-1.49-4.06-5.01-7.1-9.24-9.49,9.41-5.88.61-21.55-5.69-28.31-.15-.15-.3-.2-.44-.3-3.3-3.97-8.12-6.83-12.99-7.54-11.99-1.71-22.12,8.43-20.55,18.6-6.93-4.96-14.94-10.24-22.55-8.78-6.34,1.24-10.04,7.08-13.28,12.56-4.72-11.47-20.83-16.19-29.33-4.43-5.33,7.39-3.78,15.14,1,20.3.07.24.16.51.36.76,2.89,3.85,5.95,7.61,10.11,9.93-5.45,6.98-10.78,15.23-8.69,22.44-3.78,13.13,10.95,20.82,20.57,26.8-3.17,5.88-2.63,14.18,2.72,20.04,1.75,1.9,3.7,3.21,5.72,4.09,6.23,4.26,13.67,8.86,20.96,6.57,6.39-1.99,8.95-8.6,9.27-14.84,2.95,1.43,5.91,2.54,8.76,2.97.07.05.1.13.17.17,10.41,7.47,20.76-2.45,25.55-11.57,1.95-3.7,5.12-8.86,3.33-13.14-2.53-5.98-7.91-2.54-12.42-4.42-3.02-1.26-2.84-.1-5.65-1.12-1.6-1.2-1.58-1.07-1.97-1.92-3.99-8.69,5.52-13.69,11.82-8.82,1.97,1.53,3.33,3.72,5.58,4.94,3.89,2.14,7.79,1.65,11.04-1.34,8.39-7.74,13.01-24.17,6.17-33.84h-.02,0ZM174.79,120.77c-9.03-3.35-16.57-5.38-23.27,4.36-5.95,8.69-2.91,18.2,4.89,24.22,3.09,2.41,8.8.68,8.69,7.54-.02,2.16-3.26,7.79-4.84,9.59-10.35,11.72-23.76-1.09-33.41-6.47-2.16-1.2-4.7,1.78-2.72,3.53.9,2.78,1.82,5.55,2.74,8.34-6.18,7.24-11.75,8.39-16.73,3.43-3.19-2.21-4.75-3.67-5.53-7.49-1.49-7.15,2.31-14.57,10.58-13.08,2.43.44,4.04-2.74,1.73-4.11-4.86-2.89-9.73-5.76-14.61-8.66-4.4-2.63-11.7-5.49-14.88-9.63-.68-.9-1.09-1.88-1.39-2.87.15-.61.02-1.12-.32-1.51-.66-5.84,3.97-12.79,8.58-18.64.76-.26,1.26-.96,1.39-1.77,1.9-2.36,3.67-4.43,4.96-6.15.44-.33.68-.76.7-1.22.3-1.07-.46-2.02-1.49-2.36-.05-.03-.1-.05-.17-.07-.09-.02-.17-.03-.29-.05-.44-.1-.94-.1-1.45.1-14.77,6.5-25.32-14.57-11.84-21.96,8.56-4.7,17.88,2.54,18.36,11.29.13,2.24,2.95,3.02,4.18,1.12,1.31-1.97,2.48-4.03,3.74-6.01,3.8-5.91,5.08-8.51,12.45-7.68,9.22,1.02,15.99,7.15,23.67,12.01,2.17,1.36,4.55-1.75,2.72-3.53-8.05-7.9-.7-19.58,9.65-19.79,3.74-.09,9.54,2.23,11.79,5.2,9.82,13.04-.16,17.1-7.42,19.61-2.21.78-2.05,3.52,0,4.35,5.45,2.19,11.22,3.94,16.2,7.08,10.46,6.64,6.95,26.32-6.71,21.24l.02.03h0Z"/>
    </g>
    <path d="M254.61,200.2c-1.41-4.17-2.82-8.32-4.23-12.49,2.73-3.66,5.46-7.33,8.19-10.99.86-1.17.91-2.35.53-3.39-.23-1.57-1.32-2.88-3.43-2.86l-7.83.09c-1.09.01-4.85-.08-6.13.16-.52-1.12-2.73-3.91-3.35-4.79-1.57-2.22-3.13-4.41-4.69-6.63-1.72-2.44-5.94-1.62-6.81,1.17-.77,2.49-1.55,5-2.32,7.48-.36,1.15-1.61,4.57-1.78,5.81-1.26.14-4.74,1.37-5.67,1.66-2.59.8-5.16,1.6-7.75,2.41-2.98.92-2.88,5.28-.66,6.86,3.7,2.62,7.4,5.24,11.1,7.86-.05,4.42-.12,8.86-.17,13.28-.04,3.44,3.63,5.53,6.47,3.42,3.58-2.68,7.17-5.36,10.74-8.02,4.26,1.45,8.53,2.89,12.8,4.34,3.45,1.17,6.04-2.22,4.97-5.38v.03s0,0,0,0v-.02s0,0,0,0Z"/>
  </g>
</svg>