<?xml version="1.0" encoding="UTF-8"?>
<svg id="Layer_1" xmlns="http://www.w3.org/2000/svg" version="1.1" viewBox="0 0 300 283.48">
  <!-- Generator: Adobe Illustrator 30.0.0, SVG Export Plug-In . SVG Version: 2.1.1 Build 123)  -->
  <defs>
    <style>
      .st0 {
        fill: #fff;
      }

      .st1 {
        fill: #f3c300;
        isolation: isolate;
      }

      .st2 {
        fill: none;
        stroke: #000;
        stroke-miterlimit: 10;
        stroke-width: 2px;
      }
    </style>
  </defs>
  <path class="st2" d="M61.54,274.87c11.86,5.03,24.92,6.77,37.8,6.66s25.68-2.01,38.41-4.01c24.59-3.88,50.15-8.59,70.07-23.52"/>
  <g>
    <path class="st2" d="M86.25,21.49C111.26,5.7,139.9-.69,171.33,2.94c29.38,3.4,54.94,17.44,77.19,43.11"/>
    <path class="st1" d="M2.51,203.01c.93,10.7,4.94,22.16,8.62,32.25,3.18,8.72,6.72,16.44,12.62,22.7,5.9,6.26,10.69,11.9,18.25,15.35,13.15,5.99,30.49,5.81,44.29.44,15.33-5.96,25-14,39.03-20.12,14.03-6.12,24.31-10.01,37.17-7.86s25,7.24,37.43,11.15,26.08,4.94,38.83,2.26c15.17-3.19,24.66-13.45,34.1-25.75,10.35-13.49,16.82-27.33,20.02-42.5,4.32-20.48,6.83-40.93,5.95-61.7s-6-41.93-16.29-59.98c-4.74-8.32-9.31-13.6-17.27-18.81-7.96-5.2-18.92-8.18-28.33-6.81-9.72,1.41-21.29,5.63-29.83,10.49-11.91,6.77-19.34,9.67-37.32,9.4-11.93-.18-21.94-7.89-31.1-15.53-9.17-7.64-18.56-15.96-28.69-22.27s-23.35-12.06-34.88-8.97c-11.53,3.09-23.39,12.04-31.6,21.11s-14.43,18.7-19.7,29.75c-9.96,20.92-14.55,43.13-19.22,65.83C-.08,156.14.48,179.58,2.51,203.01Z"/>
  </g>
  <g>
    <path class="st0" d="M196.52,38.58l-.59-9.4c-.08-1.23.85-2.28,2.08-2.35,1.19-.08,2.28.85,2.35,2.08l.59,9.4c.08,1.23-.85,2.28-2.08,2.36h-.14c-1.17,0-2.14-.9-2.21-2.08h0Z"/>
    <path class="st0" d="M206.32,40.98l6.39-11.28c.6-1.06,1.96-1.45,3.02-.83,1.06.6,1.44,1.96.83,3.02l-6.39,11.28c-.41.72-1.16,1.13-1.93,1.13-.37,0-.74-.09-1.09-.29-1.06-.6-1.44-1.96-.83-3.02Z"/>
    <path class="st0" d="M219.4,177.08c.44,4.68-3,8.86-7.68,9.3l-93.43,8.89c-.27.03-.54.04-.81.04-2.06,0-4-.74-5.48-2l-4.89-3.54-.13-.1c-1.84-1.39-3.08-3.71-3.32-6.18l-11.77-122.99c-.45-4.68,2.99-8.85,7.67-9.3l93.43-8.95c2.25-.21,4.47.46,6.23,1.91q1.18.96.02,0l.07.05,4.8,3.69.46.35h0c1.76,1.45,2.84,3.5,3.05,5.77l11.78,123.05h0Z"/>
    <path class="st0" d="M221.95,48.69h0l-8.33,3.11c-.26.1-.52.14-.77.14-.9,0-1.75-.55-2.08-1.45-.43-1.15.15-2.43,1.31-2.85l8.32-3.11c1.16-.42,2.43.15,2.86,1.3s-.15,2.43-1.3,2.86h-.01Z"/>
    <g>
      <path d="M136.51,161.39c-.2-2.46-1.55-4.34-3.5-4.9-1.49-.43-3.73-.26-6.39,2.53-3-1.77-5.43-2.04-7.24-.81-1.69,1.14-2.31,3.37-1.67,5.96.98,3.96,4.77,8.26,10.11,8.84h.24c.33,0,.66-.07.96-.22,5.61-2.71,7.81-7.68,7.48-11.4h0ZM146.01,89.24c-.07-1.13-.34-2.24-.79-3.27-.49-1.13-1.8-1.65-2.92-1.15-1.13.49-1.64,1.8-1.15,2.92h.01c.29.67.44,1.42.43,2.16-.02.95.57,1.81,1.47,2.13.24.09.49.13.74.13.62,0,1.25-.25,1.68-.7.55-.58.75-1.46.53-2.22h0ZM153.02,83.91c-.4-.4-.95-.65-1.57-.65-1.23.01-2.22,1-2.2,2.23v2.74c0,.61.25,1.17.65,1.57s.95.64,1.57.64c1.23,0,2.22-1,2.2-2.23v-2.74c0-.61-.25-1.16-.65-1.56h0ZM160.85,92.92h-.02c-.73,0-1.33.61-1.32,1.35.05,3.47-1.77,6.96-4.63,8.92-2.85,1.95-6.78,2.37-9.99,1.06-3.21-1.31-5.73-4.34-6.42-7.74-.15-.72-.85-1.19-1.58-1.04-.72.15-1.2.85-1.04,1.58h.01c.87,4.33,3.95,8.03,8.03,9.68,1.59.64,3.27.95,4.96.95,2.66,0,5.31-.78,7.53-2.3,3.64-2.48,5.86-6.75,5.8-11.15,0-.73-.6-1.32-1.34-1.32h0ZM160.85,92.92h-.02c-.73,0-1.33.61-1.32,1.35.05,3.47-1.77,6.96-4.63,8.92-2.85,1.95-6.78,2.37-9.99,1.06-3.21-1.31-5.73-4.34-6.42-7.74-.15-.72-.85-1.19-1.58-1.04-.72.15-1.2.85-1.04,1.58h.01c.87,4.33,3.95,8.03,8.03,9.68,1.59.64,3.27.95,4.96.95,2.66,0,5.31-.78,7.53-2.3,3.64-2.48,5.86-6.75,5.8-11.15,0-.73-.6-1.32-1.34-1.32h0ZM153.02,83.91c-.4-.4-.95-.65-1.57-.65-1.23.01-2.22,1-2.2,2.23v2.74c0,.61.25,1.17.65,1.57s.95.64,1.57.64c1.23,0,2.22-1,2.2-2.23v-2.74c0-.61-.25-1.16-.65-1.56h0ZM146.01,89.24c-.07-1.13-.34-2.24-.79-3.27-.49-1.13-1.8-1.65-2.92-1.15-1.13.49-1.64,1.8-1.15,2.92h.01c.29.67.44,1.42.43,2.16-.02.95.57,1.81,1.47,2.13.24.09.49.13.74.13.62,0,1.25-.25,1.68-.7.55-.58.75-1.46.53-2.22h0ZM146.01,89.24c-.07-1.13-.34-2.24-.79-3.27-.49-1.13-1.8-1.65-2.92-1.15-1.13.49-1.64,1.8-1.15,2.92h.01c.29.67.44,1.42.43,2.16-.02.95.57,1.81,1.47,2.13.24.09.49.13.74.13.62,0,1.25-.25,1.68-.7.55-.58.75-1.46.53-2.22h0ZM153.02,83.91c-.4-.4-.95-.65-1.57-.65-1.23.01-2.22,1-2.2,2.23v2.74c0,.61.25,1.17.65,1.57s.95.64,1.57.64c1.23,0,2.22-1,2.2-2.23v-2.74c0-.61-.25-1.16-.65-1.56h0ZM160.85,92.92h-.02c-.73,0-1.33.61-1.32,1.35.05,3.47-1.77,6.96-4.63,8.92-2.85,1.95-6.78,2.37-9.99,1.06-3.21-1.31-5.73-4.34-6.42-7.74-.15-.72-.85-1.19-1.58-1.04-.72.15-1.2.85-1.04,1.58h.01c.87,4.33,3.95,8.03,8.03,9.68,1.59.64,3.27.95,4.96.95,2.66,0,5.31-.78,7.53-2.3,3.64-2.48,5.86-6.75,5.8-11.15,0-.73-.6-1.32-1.34-1.32h0ZM160.85,92.92h-.02c-.73,0-1.33.61-1.32,1.35.05,3.47-1.77,6.96-4.63,8.92-2.85,1.95-6.78,2.37-9.99,1.06-3.21-1.31-5.73-4.34-6.42-7.74-.15-.72-.85-1.19-1.58-1.04-.72.15-1.2.85-1.04,1.58h.01c.87,4.33,3.95,8.03,8.03,9.68,1.59.64,3.27.95,4.96.95,2.66,0,5.31-.78,7.53-2.3,3.64-2.48,5.86-6.75,5.8-11.15,0-.73-.6-1.32-1.34-1.32h0ZM153.02,83.91c-.4-.4-.95-.65-1.57-.65-1.23.01-2.22,1-2.2,2.23v2.74c0,.61.25,1.17.65,1.57s.95.64,1.57.64c1.23,0,2.22-1,2.2-2.23v-2.74c0-.61-.25-1.16-.65-1.56h0ZM146.01,89.24c-.07-1.13-.34-2.24-.79-3.27-.49-1.13-1.8-1.65-2.92-1.15-1.13.49-1.64,1.8-1.15,2.92h.01c.29.67.44,1.42.43,2.16-.02.95.57,1.81,1.47,2.13.24.09.49.13.74.13.62,0,1.25-.25,1.68-.7.55-.58.75-1.46.53-2.22h0ZM146.01,89.24c-.07-1.13-.34-2.24-.79-3.27-.49-1.13-1.8-1.65-2.92-1.15-1.13.49-1.64,1.8-1.15,2.92h.01c.29.67.44,1.42.43,2.16-.02.95.57,1.81,1.47,2.13.24.09.49.13.74.13.62,0,1.25-.25,1.68-.7.55-.58.75-1.46.53-2.22h0ZM153.02,83.91c-.4-.4-.95-.65-1.57-.65-1.23.01-2.22,1-2.2,2.23v2.74c0,.61.25,1.17.65,1.57s.95.64,1.57.64c1.23,0,2.22-1,2.2-2.23v-2.74c0-.61-.25-1.16-.65-1.56h0ZM160.85,92.92h-.02c-.73,0-1.33.61-1.32,1.35.05,3.47-1.77,6.96-4.63,8.92-2.85,1.95-6.78,2.37-9.99,1.06-3.21-1.31-5.73-4.34-6.42-7.74-.15-.72-.85-1.19-1.58-1.04-.72.15-1.2.85-1.04,1.58h.01c.87,4.33,3.95,8.03,8.03,9.68,1.59.64,3.27.95,4.96.95,2.66,0,5.31-.78,7.53-2.3,3.64-2.48,5.86-6.75,5.8-11.15,0-.73-.6-1.32-1.34-1.32h0ZM160.85,92.92h-.02c-.73,0-1.33.61-1.32,1.35.05,3.47-1.77,6.96-4.63,8.92-2.85,1.95-6.78,2.37-9.99,1.06-3.21-1.31-5.73-4.34-6.42-7.74-.15-.72-.85-1.19-1.58-1.04-.72.15-1.2.85-1.04,1.58h.01c.87,4.33,3.95,8.03,8.03,9.68,1.59.64,3.27.95,4.96.95,2.66,0,5.31-.78,7.53-2.3,3.64-2.48,5.86-6.75,5.8-11.15,0-.73-.6-1.32-1.34-1.32h0ZM151.47,90.44c1.23,0,2.22-1,2.2-2.23v-2.74c0-.61-.25-1.16-.65-1.56s-.95-.65-1.57-.65c-1.23.01-2.22,1-2.2,2.23v2.74c0,.61.25,1.17.65,1.57s.95.64,1.57.64h0ZM141.16,87.74c.29.67.44,1.42.43,2.16-.02.95.57,1.81,1.47,2.13.24.09.49.13.74.13.62,0,1.25-.25,1.68-.7.55-.58.75-1.46.53-2.22-.07-1.13-.34-2.24-.79-3.27-.49-1.13-1.8-1.65-2.92-1.15-1.13.49-1.64,1.8-1.15,2.92h.01ZM190.61,57.43c-.05-.58-.34-1.13-.79-1.51v.02c-.45-.37-1.02-.55-1.63-.5l-81.46,7.8c-1.22.12-2.12,1.21-2,2.42l7.79,81.78c.11,1.15,1.07,2.01,2.21,2.01h.21l81.46-7.76c1.23-.12,2.12-1.21,2-2.42l-7.79-81.83h0ZM175.31,139.25c0-.21-.02-.42-.11-.62-1.88-3.95-4.34-7.55-7.31-10.72-.5-.54-1.35-.56-1.89-.06-.53.5-.56,1.35-.06,1.88,2.71,2.88,4.96,6.18,6.7,9.76l-35.81,3.41c.18-3.05.67-6.09,1.52-9.03.2-.7-.21-1.45-.91-1.65-.7-.21-1.45.21-1.65.91-.93,3.25-1.47,6.62-1.64,10.02l-6.65.63c.01-.54.04-1.06.06-1.39l.02-.34c.05-1.26.19-2.53.42-3.8.45-2.49,1.26-4.92,2.39-7.21,1.14-2.3,2.57-4.42,4.28-6.3,1.34-1.48,3.34-2.66,5.26-3.81l.75-.45c3.36-2.02,6.99-3.38,10.81-4.06h0c.41-.06.82-.1,1.24-.16.49-.04.96-.11,1.45-.18,2.47-.22,4.91-.16,7.28.21,5.16.8,9.86,3.02,13.59,6.42,4.54,4.14,7.55,9.72,8.51,15.75l-8.25.78h0ZM141,74.75c2.51-1.29,5.23-1.92,8.01-1.92,4.03,0,8.16,1.35,11.88,3.98,5.92,4.19,9.23,11.82,8.26,19.01-.8,5.9-4.41,11.23-9.41,13.92-1.73.93-3.68,1.56-5.76,1.91-.59.05-1.19.13-1.78.21-3.3.28-6.86-.1-10.44-1.21-3.68-1.15-6.6-2.77-8.69-4.84-2.33-2.31-3.96-5.47-4.73-9.17-1-4.86-.29-9.97,1.97-14,2.37-4.24,5.69-6.76,10.15-7.7h0c.19-.03.38-.1.55-.18,0,0-.01,0-.01,0ZM187.96,138.04c0-.06.02-.11,0-.18-1.09-7.05-4.62-13.6-9.92-18.43-3.91-3.57-8.72-6.01-13.99-7.16,5.06-3.61,8.62-9.47,9.49-15.85,1.2-8.78-2.85-18.11-10.09-23.24-7.45-5.28-16.71-6.24-24.21-2.53-5.58,1.26-9.88,4.56-12.82,9.81-2.77,4.96-3.67,11.18-2.44,17.08.94,4.55,3,8.5,5.96,11.42,2.59,2.57,6.13,4.56,10.49,5.93.28.09.56.15.84.23-.97.47-1.94.99-2.87,1.56l-.74.44c-2.11,1.26-4.5,2.67-6.29,4.65-1.98,2.19-3.66,4.65-4.97,7.32-1.31,2.66-2.24,5.48-2.77,8.38-.27,1.47-.43,2.95-.48,4.43v.27c-.04.46-.08,1.29-.09,2.05l-6.33.6-7.36-77.36,77.04-7.37,7.36,77.4-5.8.55ZM136.9,95.48c-.72.15-1.2.85-1.04,1.58h.01c.87,4.33,3.95,8.03,8.03,9.68,1.59.64,3.27.95,4.96.95,2.66,0,5.31-.78,7.53-2.3,3.64-2.48,5.86-6.75,5.8-11.15,0-.73-.6-1.32-1.34-1.32h-.02c-.73,0-1.33.61-1.32,1.35.05,3.47-1.77,6.96-4.63,8.92-2.85,1.95-6.78,2.37-9.99,1.06-3.21-1.31-5.73-4.34-6.42-7.74-.15-.72-.85-1.19-1.58-1.04h0ZM151.47,90.44c1.23,0,2.22-1,2.2-2.23v-2.74c0-.61-.25-1.16-.65-1.56s-.95-.65-1.57-.65c-1.23.01-2.22,1-2.2,2.23v2.74c0,.61.25,1.17.65,1.57s.95.64,1.57.64h0ZM141.16,87.74c.29.67.44,1.42.43,2.16-.02.95.57,1.81,1.47,2.13.24.09.49.13.74.13.62,0,1.25-.25,1.68-.7.55-.58.75-1.46.53-2.22-.07-1.13-.34-2.24-.79-3.27-.49-1.13-1.8-1.65-2.92-1.15-1.13.49-1.64,1.8-1.15,2.92h.01ZM146.01,89.24c-.07-1.13-.34-2.24-.79-3.27-.49-1.13-1.8-1.65-2.92-1.15-1.13.49-1.64,1.8-1.15,2.92h.01c.29.67.44,1.42.43,2.16-.02.95.57,1.81,1.47,2.13.24.09.49.13.74.13.62,0,1.25-.25,1.68-.7.55-.58.75-1.46.53-2.22h0ZM153.02,83.91c-.4-.4-.95-.65-1.57-.65-1.23.01-2.22,1-2.2,2.23v2.74c0,.61.25,1.17.65,1.57s.95.64,1.57.64c1.23,0,2.22-1,2.2-2.23v-2.74c0-.61-.25-1.16-.65-1.56h0ZM160.85,92.92h-.02c-.73,0-1.33.61-1.32,1.35.05,3.47-1.77,6.96-4.63,8.92-2.85,1.95-6.78,2.37-9.99,1.06-3.21-1.31-5.73-4.34-6.42-7.74-.15-.72-.85-1.19-1.58-1.04-.72.15-1.2.85-1.04,1.58h.01c.87,4.33,3.95,8.03,8.03,9.68,1.59.64,3.27.95,4.96.95,2.66,0,5.31-.78,7.53-2.3,3.64-2.48,5.86-6.75,5.8-11.15,0-.73-.6-1.32-1.34-1.32h0ZM160.85,92.92h-.02c-.73,0-1.33.61-1.32,1.35.05,3.47-1.77,6.96-4.63,8.92-2.85,1.95-6.78,2.37-9.99,1.06-3.21-1.31-5.73-4.34-6.42-7.74-.15-.72-.85-1.19-1.58-1.04-.72.15-1.2.85-1.04,1.58h.01c.87,4.33,3.95,8.03,8.03,9.68,1.59.64,3.27.95,4.96.95,2.66,0,5.31-.78,7.53-2.3,3.64-2.48,5.86-6.75,5.8-11.15,0-.73-.6-1.32-1.34-1.32h0ZM153.02,83.91c-.4-.4-.95-.65-1.57-.65-1.23.01-2.22,1-2.2,2.23v2.74c0,.61.25,1.17.65,1.57s.95.64,1.57.64c1.23,0,2.22-1,2.2-2.23v-2.74c0-.61-.25-1.16-.65-1.56h0ZM146.01,89.24c-.07-1.13-.34-2.24-.79-3.27-.49-1.13-1.8-1.65-2.92-1.15-1.13.49-1.64,1.8-1.15,2.92h.01c.29.67.44,1.42.43,2.16-.02.95.57,1.81,1.47,2.13.24.09.49.13.74.13.62,0,1.25-.25,1.68-.7.55-.58.75-1.46.53-2.22h0ZM146.01,89.24c-.07-1.13-.34-2.24-.79-3.27-.49-1.13-1.8-1.65-2.92-1.15-1.13.49-1.64,1.8-1.15,2.92h.01c.29.67.44,1.42.43,2.16-.02.95.57,1.81,1.47,2.13.24.09.49.13.74.13.62,0,1.25-.25,1.68-.7.55-.58.75-1.46.53-2.22h0ZM153.02,83.91c-.4-.4-.95-.65-1.57-.65-1.23.01-2.22,1-2.2,2.23v2.74c0,.61.25,1.17.65,1.57s.95.64,1.57.64c1.23,0,2.22-1,2.2-2.23v-2.74c0-.61-.25-1.16-.65-1.56h0ZM160.85,92.92h-.02c-.73,0-1.33.61-1.32,1.35.05,3.47-1.77,6.96-4.63,8.92-2.85,1.95-6.78,2.37-9.99,1.06-3.21-1.31-5.73-4.34-6.42-7.74-.15-.72-.85-1.19-1.58-1.04-.72.15-1.2.85-1.04,1.58h.01c.87,4.33,3.95,8.03,8.03,9.68,1.59.64,3.27.95,4.96.95,2.66,0,5.31-.78,7.53-2.3,3.64-2.48,5.86-6.75,5.8-11.15,0-.73-.6-1.32-1.34-1.32h0ZM160.85,92.92h-.02c-.73,0-1.33.61-1.32,1.35.05,3.47-1.77,6.96-4.63,8.92-2.85,1.95-6.78,2.37-9.99,1.06-3.21-1.31-5.73-4.34-6.42-7.74-.15-.72-.85-1.19-1.58-1.04-.72.15-1.2.85-1.04,1.58h.01c.87,4.33,3.95,8.03,8.03,9.68,1.59.64,3.27.95,4.96.95,2.66,0,5.31-.78,7.53-2.3,3.64-2.48,5.86-6.75,5.8-11.15,0-.73-.6-1.32-1.34-1.32h0ZM153.02,83.91c-.4-.4-.95-.65-1.57-.65-1.23.01-2.22,1-2.2,2.23v2.74c0,.61.25,1.17.65,1.57s.95.64,1.57.64c1.23,0,2.22-1,2.2-2.23v-2.74c0-.61-.25-1.16-.65-1.56h0ZM146.01,89.24c-.07-1.13-.34-2.24-.79-3.27-.49-1.13-1.8-1.65-2.92-1.15-1.13.49-1.64,1.8-1.15,2.92h.01c.29.67.44,1.42.43,2.16-.02.95.57,1.81,1.47,2.13.24.09.49.13.74.13.62,0,1.25-.25,1.68-.7.55-.58.75-1.46.53-2.22h0ZM197.06,154.41h0c-6.86.65-17.93,1.75-28.4,2.78-9.44.92-18.4,1.81-23.32,2.28-1.22.12-2.11,1.2-2,2.42.11,1.15,1.07,2.01,2.21,2.01h.21c4.92-.46,13.88-1.35,23.34-2.28,10.47-1.03,21.53-2.13,28.39-2.78,1.23-.12,2.12-1.2,2-2.42s-1.23-2.13-2.42-2h-.01ZM197.06,154.41h0c-6.86.65-17.93,1.75-28.4,2.78-9.44.92-18.4,1.81-23.32,2.28-1.22.12-2.11,1.2-2,2.42.11,1.15,1.07,2.01,2.21,2.01h.21c4.92-.46,13.88-1.35,23.34-2.28,10.47-1.03,21.53-2.13,28.39-2.78,1.23-.12,2.12-1.2,2-2.42s-1.23-2.13-2.42-2h-.01ZM146.01,89.24c-.07-1.13-.34-2.24-.79-3.27-.49-1.13-1.8-1.65-2.92-1.15-1.13.49-1.64,1.8-1.15,2.92h.01c.29.67.44,1.42.43,2.16-.02.95.57,1.81,1.47,2.13.24.09.49.13.74.13.62,0,1.25-.25,1.68-.7.55-.58.75-1.46.53-2.22h0ZM153.02,83.91c-.4-.4-.95-.65-1.57-.65-1.23.01-2.22,1-2.2,2.23v2.74c0,.61.25,1.17.65,1.57s.95.64,1.57.64c1.23,0,2.22-1,2.2-2.23v-2.74c0-.61-.25-1.16-.65-1.56h0ZM160.85,92.92h-.02c-.73,0-1.33.61-1.32,1.35.05,3.47-1.77,6.96-4.63,8.92-2.85,1.95-6.78,2.37-9.99,1.06-3.21-1.31-5.73-4.34-6.42-7.74-.15-.72-.85-1.19-1.58-1.04-.72.15-1.2.85-1.04,1.58h.01c.87,4.33,3.95,8.03,8.03,9.68,1.59.64,3.27.95,4.96.95,2.66,0,5.31-.78,7.53-2.3,3.64-2.48,5.86-6.75,5.8-11.15,0-.73-.6-1.32-1.34-1.32h0ZM160.85,92.92h-.02c-.73,0-1.33.61-1.32,1.35.05,3.47-1.77,6.96-4.63,8.92-2.85,1.95-6.78,2.37-9.99,1.06-3.21-1.31-5.73-4.34-6.42-7.74-.15-.72-.85-1.19-1.58-1.04-.72.15-1.2.85-1.04,1.58h.01c.87,4.33,3.95,8.03,8.03,9.68,1.59.64,3.27.95,4.96.95,2.66,0,5.31-.78,7.53-2.3,3.64-2.48,5.86-6.75,5.8-11.15,0-.73-.6-1.32-1.34-1.32h0ZM153.02,83.91c-.4-.4-.95-.65-1.57-.65-1.23.01-2.22,1-2.2,2.23v2.74c0,.61.25,1.17.65,1.57s.95.64,1.57.64c1.23,0,2.22-1,2.2-2.23v-2.74c0-.61-.25-1.16-.65-1.56h0ZM146.01,89.24c-.07-1.13-.34-2.24-.79-3.27-.49-1.13-1.8-1.65-2.92-1.15-1.13.49-1.64,1.8-1.15,2.92h.01c.29.67.44,1.42.43,2.16-.02.95.57,1.81,1.47,2.13.24.09.49.13.74.13.62,0,1.25-.25,1.68-.7.55-.58.75-1.46.53-2.22h0ZM146.01,89.24c-.07-1.13-.34-2.24-.79-3.27-.49-1.13-1.8-1.65-2.92-1.15-1.13.49-1.64,1.8-1.15,2.92h.01c.29.67.44,1.42.43,2.16-.02.95.57,1.81,1.47,2.13.24.09.49.13.74.13.62,0,1.25-.25,1.68-.7.55-.58.75-1.46.53-2.22h0ZM153.02,83.91c-.4-.4-.95-.65-1.57-.65-1.23.01-2.22,1-2.2,2.23v2.74c0,.61.25,1.17.65,1.57s.95.64,1.57.64c1.23,0,2.22-1,2.2-2.23v-2.74c0-.61-.25-1.16-.65-1.56h0ZM160.85,92.92h-.02c-.73,0-1.33.61-1.32,1.35.05,3.47-1.77,6.96-4.63,8.92-2.85,1.95-6.78,2.37-9.99,1.06-3.21-1.31-5.73-4.34-6.42-7.74-.15-.72-.85-1.19-1.58-1.04-.72.15-1.2.85-1.04,1.58h.01c.87,4.33,3.95,8.03,8.03,9.68,1.59.64,3.27.95,4.96.95,2.66,0,5.31-.78,7.53-2.3,3.64-2.48,5.86-6.75,5.8-11.15,0-.73-.6-1.32-1.34-1.32h0ZM160.85,92.92h-.02c-.73,0-1.33.61-1.32,1.35.05,3.47-1.77,6.96-4.63,8.92-2.85,1.95-6.78,2.37-9.99,1.06-3.21-1.31-5.73-4.34-6.42-7.74-.15-.72-.85-1.19-1.58-1.04-.72.15-1.2.85-1.04,1.58h.01c.87,4.33,3.95,8.03,8.03,9.68,1.59.64,3.27.95,4.96.95,2.66,0,5.31-.78,7.53-2.3,3.64-2.48,5.86-6.75,5.8-11.15,0-.73-.6-1.32-1.34-1.32h0ZM151.47,90.44c1.23,0,2.22-1,2.2-2.23v-2.74c0-.61-.25-1.16-.65-1.56s-.95-.65-1.57-.65c-1.23.01-2.22,1-2.2,2.23v2.74c0,.61.25,1.17.65,1.57s.95.64,1.57.64h0ZM141.16,87.74c.29.67.44,1.42.43,2.16-.02.95.57,1.81,1.47,2.13.24.09.49.13.74.13.62,0,1.25-.25,1.68-.7.55-.58.75-1.46.53-2.22-.07-1.13-.34-2.24-.79-3.27-.49-1.13-1.8-1.65-2.92-1.15-1.13.49-1.64,1.8-1.15,2.92h.01ZM190.61,57.43c-.05-.58-.34-1.13-.79-1.51v.02c-.45-.37-1.02-.55-1.63-.5l-81.46,7.8c-1.22.12-2.12,1.21-2,2.42l7.79,81.78c.11,1.15,1.07,2.01,2.21,2.01h.21l81.46-7.76c1.23-.12,2.12-1.21,2-2.42l-7.79-81.83h0ZM175.31,139.25c0-.21-.02-.42-.11-.62-1.88-3.95-4.34-7.55-7.31-10.72-.5-.54-1.35-.56-1.89-.06-.53.5-.56,1.35-.06,1.88,2.71,2.88,4.96,6.18,6.7,9.76l-35.81,3.41c.18-3.05.67-6.09,1.52-9.03.2-.7-.21-1.45-.91-1.65-.7-.21-1.45.21-1.65.91-.93,3.25-1.47,6.62-1.64,10.02l-6.65.63c.01-.54.04-1.06.06-1.39l.02-.34c.05-1.26.19-2.53.42-3.8.45-2.49,1.26-4.92,2.39-7.21,1.14-2.3,2.57-4.42,4.28-6.3,1.34-1.48,3.34-2.66,5.26-3.81l.75-.45c3.36-2.02,6.99-3.38,10.81-4.06h0c.41-.06.82-.1,1.24-.16.49-.04.96-.11,1.45-.18,2.47-.22,4.91-.16,7.28.21,5.16.8,9.86,3.02,13.59,6.42,4.54,4.14,7.55,9.72,8.51,15.75l-8.25.78h0ZM141,74.75c2.51-1.29,5.23-1.92,8.01-1.92,4.03,0,8.16,1.35,11.88,3.98,5.92,4.19,9.23,11.82,8.26,19.01-.8,5.9-4.41,11.23-9.41,13.92-1.73.93-3.68,1.56-5.76,1.91-.59.05-1.19.13-1.78.21-3.3.28-6.86-.1-10.44-1.21-3.68-1.15-6.6-2.77-8.69-4.84-2.33-2.31-3.96-5.47-4.73-9.17-1-4.86-.29-9.97,1.97-14,2.37-4.24,5.69-6.76,10.15-7.7h0c.19-.03.38-.1.55-.18,0,0-.01,0-.01,0ZM187.96,138.04c0-.06.02-.11,0-.18-1.09-7.05-4.62-13.6-9.92-18.43-3.91-3.57-8.72-6.01-13.99-7.16,5.06-3.61,8.62-9.47,9.49-15.85,1.2-8.78-2.85-18.11-10.09-23.24-7.45-5.28-16.71-6.24-24.21-2.53-5.58,1.26-9.88,4.56-12.82,9.81-2.77,4.96-3.67,11.18-2.44,17.08.94,4.55,3,8.5,5.96,11.42,2.59,2.57,6.13,4.56,10.49,5.93.28.09.56.15.84.23-.97.47-1.94.99-2.87,1.56l-.74.44c-2.11,1.26-4.5,2.67-6.29,4.65-1.98,2.19-3.66,4.65-4.97,7.32-1.31,2.66-2.24,5.48-2.77,8.38-.27,1.47-.43,2.95-.48,4.43v.27c-.04.46-.08,1.29-.09,2.05l-6.33.6-7.36-77.36,77.04-7.37,7.36,77.4-5.8.55ZM136.9,95.48c-.72.15-1.2.85-1.04,1.58h.01c.87,4.33,3.95,8.03,8.03,9.68,1.59.64,3.27.95,4.96.95,2.66,0,5.31-.78,7.53-2.3,3.64-2.48,5.86-6.75,5.8-11.15,0-.73-.6-1.32-1.34-1.32h-.02c-.73,0-1.33.61-1.32,1.35.05,3.47-1.77,6.96-4.63,8.92-2.85,1.95-6.78,2.37-9.99,1.06-3.21-1.31-5.73-4.34-6.42-7.74-.15-.72-.85-1.19-1.58-1.04h0ZM151.47,90.44c1.23,0,2.22-1,2.2-2.23v-2.74c0-.61-.25-1.16-.65-1.56s-.95-.65-1.57-.65c-1.23.01-2.22,1-2.2,2.23v2.74c0,.61.25,1.17.65,1.57s.95.64,1.57.64h0ZM141.16,87.74c.29.67.44,1.42.43,2.16-.02.95.57,1.81,1.47,2.13.24.09.49.13.74.13.62,0,1.25-.25,1.68-.7.55-.58.75-1.46.53-2.22-.07-1.13-.34-2.24-.79-3.27-.49-1.13-1.8-1.65-2.92-1.15-1.13.49-1.64,1.8-1.15,2.92h.01ZM146.01,89.24c-.07-1.13-.34-2.24-.79-3.27-.49-1.13-1.8-1.65-2.92-1.15-1.13.49-1.64,1.8-1.15,2.92h.01c.29.67.44,1.42.43,2.16-.02.95.57,1.81,1.47,2.13.24.09.49.13.74.13.62,0,1.25-.25,1.68-.7.55-.58.75-1.46.53-2.22h0ZM153.02,83.91c-.4-.4-.95-.65-1.57-.65-1.23.01-2.22,1-2.2,2.23v2.74c0,.61.25,1.17.65,1.57s.95.64,1.57.64c1.23,0,2.22-1,2.2-2.23v-2.74c0-.61-.25-1.16-.65-1.56h0ZM160.85,92.92h-.02c-.73,0-1.33.61-1.32,1.35.05,3.47-1.77,6.96-4.63,8.92-2.85,1.95-6.78,2.37-9.99,1.06-3.21-1.31-5.73-4.34-6.42-7.74-.15-.72-.85-1.19-1.58-1.04-.72.15-1.2.85-1.04,1.58h.01c.87,4.33,3.95,8.03,8.03,9.68,1.59.64,3.27.95,4.96.95,2.66,0,5.31-.78,7.53-2.3,3.64-2.48,5.86-6.75,5.8-11.15,0-.73-.6-1.32-1.34-1.32h0ZM160.85,92.92h-.02c-.73,0-1.33.61-1.32,1.35.05,3.47-1.77,6.96-4.63,8.92-2.85,1.95-6.78,2.37-9.99,1.06-3.21-1.31-5.73-4.34-6.42-7.74-.15-.72-.85-1.19-1.58-1.04-.72.15-1.2.85-1.04,1.58h.01c.87,4.33,3.95,8.03,8.03,9.68,1.59.64,3.27.95,4.96.95,2.66,0,5.31-.78,7.53-2.3,3.64-2.48,5.86-6.75,5.8-11.15,0-.73-.6-1.32-1.34-1.32h0ZM153.02,83.91c-.4-.4-.95-.65-1.57-.65-1.23.01-2.22,1-2.2,2.23v2.74c0,.61.25,1.17.65,1.57s.95.64,1.57.64c1.23,0,2.22-1,2.2-2.23v-2.74c0-.61-.25-1.16-.65-1.56h0ZM146.01,89.24c-.07-1.13-.34-2.24-.79-3.27-.49-1.13-1.8-1.65-2.92-1.15-1.13.49-1.64,1.8-1.15,2.92h.01c.29.67.44,1.42.43,2.16-.02.95.57,1.81,1.47,2.13.24.09.49.13.74.13.62,0,1.25-.25,1.68-.7.55-.58.75-1.46.53-2.22h0ZM146.01,89.24c-.07-1.13-.34-2.24-.79-3.27-.49-1.13-1.8-1.65-2.92-1.15-1.13.49-1.64,1.8-1.15,2.92h.01c.29.67.44,1.42.43,2.16-.02.95.57,1.81,1.47,2.13.24.09.49.13.74.13.62,0,1.25-.25,1.68-.7.55-.58.75-1.46.53-2.22h0ZM153.02,83.91c-.4-.4-.95-.65-1.57-.65-1.23.01-2.22,1-2.2,2.23v2.74c0,.61.25,1.17.65,1.57s.95.64,1.57.64c1.23,0,2.22-1,2.2-2.23v-2.74c0-.61-.25-1.16-.65-1.56h0ZM160.85,92.92h-.02c-.73,0-1.33.61-1.32,1.35.05,3.47-1.77,6.96-4.63,8.92-2.85,1.95-6.78,2.37-9.99,1.06-3.21-1.31-5.73-4.34-6.42-7.74-.15-.72-.85-1.19-1.58-1.04-.72.15-1.2.85-1.04,1.58h.01c.87,4.33,3.95,8.03,8.03,9.68,1.59.64,3.27.95,4.96.95,2.66,0,5.31-.78,7.53-2.3,3.64-2.48,5.86-6.75,5.8-11.15,0-.73-.6-1.32-1.34-1.32h0ZM160.85,92.92h-.02c-.73,0-1.33.61-1.32,1.35.05,3.47-1.77,6.96-4.63,8.92-2.85,1.95-6.78,2.37-9.99,1.06-3.21-1.31-5.73-4.34-6.42-7.74-.15-.72-.85-1.19-1.58-1.04-.72.15-1.2.85-1.04,1.58h.01c.87,4.33,3.95,8.03,8.03,9.68,1.59.64,3.27.95,4.96.95,2.66,0,5.31-.78,7.53-2.3,3.64-2.48,5.86-6.75,5.8-11.15,0-.73-.6-1.32-1.34-1.32h0ZM153.02,83.91c-.4-.4-.95-.65-1.57-.65-1.23.01-2.22,1-2.2,2.23v2.74c0,.61.25,1.17.65,1.57s.95.64,1.57.64c1.23,0,2.22-1,2.2-2.23v-2.74c0-.61-.25-1.16-.65-1.56h0ZM146.01,89.24c-.07-1.13-.34-2.24-.79-3.27-.49-1.13-1.8-1.65-2.92-1.15-1.13.49-1.64,1.8-1.15,2.92h.01c.29.67.44,1.42.43,2.16-.02.95.57,1.81,1.47,2.13.24.09.49.13.74.13.62,0,1.25-.25,1.68-.7.55-.58.75-1.46.53-2.22h0ZM136.51,161.39c-.2-2.46-1.55-4.34-3.5-4.9-1.49-.43-3.73-.26-6.39,2.53-3-1.77-5.43-2.04-7.24-.81-1.69,1.14-2.31,3.37-1.67,5.96.98,3.96,4.77,8.26,10.11,8.84h.24c.33,0,.66-.07.96-.22,5.61-2.71,7.81-7.68,7.48-11.4h0ZM136.51,161.39c-.2-2.46-1.55-4.34-3.5-4.9-1.49-.43-3.73-.26-6.39,2.53-3-1.77-5.43-2.04-7.24-.81-1.69,1.14-2.31,3.37-1.67,5.96.98,3.96,4.77,8.26,10.11,8.84h.24c.33,0,.66-.07.96-.22,5.61-2.71,7.81-7.68,7.48-11.4h0ZM146.01,89.24c-.07-1.13-.34-2.24-.79-3.27-.49-1.13-1.8-1.65-2.92-1.15-1.13.49-1.64,1.8-1.15,2.92h.01c.29.67.44,1.42.43,2.16-.02.95.57,1.81,1.47,2.13.24.09.49.13.74.13.62,0,1.25-.25,1.68-.7.55-.58.75-1.46.53-2.22h0ZM153.02,83.91c-.4-.4-.95-.65-1.57-.65-1.23.01-2.22,1-2.2,2.23v2.74c0,.61.25,1.17.65,1.57s.95.64,1.57.64c1.23,0,2.22-1,2.2-2.23v-2.74c0-.61-.25-1.16-.65-1.56h0ZM160.85,92.92h-.02c-.73,0-1.33.61-1.32,1.35.05,3.47-1.77,6.96-4.63,8.92-2.85,1.95-6.78,2.37-9.99,1.06-3.21-1.31-5.73-4.34-6.42-7.74-.15-.72-.85-1.19-1.58-1.04-.72.15-1.2.85-1.04,1.58h.01c.87,4.33,3.95,8.03,8.03,9.68,1.59.64,3.27.95,4.96.95,2.66,0,5.31-.78,7.53-2.3,3.64-2.48,5.86-6.75,5.8-11.15,0-.73-.6-1.32-1.34-1.32h0ZM160.85,92.92h-.02c-.73,0-1.33.61-1.32,1.35.05,3.47-1.77,6.96-4.63,8.92-2.85,1.95-6.78,2.37-9.99,1.06-3.21-1.31-5.73-4.34-6.42-7.74-.15-.72-.85-1.19-1.58-1.04-.72.15-1.2.85-1.04,1.58h.01c.87,4.33,3.95,8.03,8.03,9.68,1.59.64,3.27.95,4.96.95,2.66,0,5.31-.78,7.53-2.3,3.64-2.48,5.86-6.75,5.8-11.15,0-.73-.6-1.32-1.34-1.32h0ZM153.02,83.91c-.4-.4-.95-.65-1.57-.65-1.23.01-2.22,1-2.2,2.23v2.74c0,.61.25,1.17.65,1.57s.95.64,1.57.64c1.23,0,2.22-1,2.2-2.23v-2.74c0-.61-.25-1.16-.65-1.56h0ZM146.01,89.24c-.07-1.13-.34-2.24-.79-3.27-.49-1.13-1.8-1.65-2.92-1.15-1.13.49-1.64,1.8-1.15,2.92h.01c.29.67.44,1.42.43,2.16-.02.95.57,1.81,1.47,2.13.24.09.49.13.74.13.62,0,1.25-.25,1.68-.7.55-.58.75-1.46.53-2.22h0ZM146.01,89.24c-.07-1.13-.34-2.24-.79-3.27-.49-1.13-1.8-1.65-2.92-1.15-1.13.49-1.64,1.8-1.15,2.92h.01c.29.67.44,1.42.43,2.16-.02.95.57,1.81,1.47,2.13.24.09.49.13.74.13.62,0,1.25-.25,1.68-.7.55-.58.75-1.46.53-2.22h0ZM153.02,83.91c-.4-.4-.95-.65-1.57-.65-1.23.01-2.22,1-2.2,2.23v2.74c0,.61.25,1.17.65,1.57s.95.64,1.57.64c1.23,0,2.22-1,2.2-2.23v-2.74c0-.61-.25-1.16-.65-1.56h0ZM160.85,92.92h-.02c-.73,0-1.33.61-1.32,1.35.05,3.47-1.77,6.96-4.63,8.92-2.85,1.95-6.78,2.37-9.99,1.06-3.21-1.31-5.73-4.34-6.42-7.74-.15-.72-.85-1.19-1.58-1.04-.72.15-1.2.85-1.04,1.58h.01c.87,4.33,3.95,8.03,8.03,9.68,1.59.64,3.27.95,4.96.95,2.66,0,5.31-.78,7.53-2.3,3.64-2.48,5.86-6.75,5.8-11.15,0-.73-.6-1.32-1.34-1.32h0ZM160.85,92.92h-.02c-.73,0-1.33.61-1.32,1.35.05,3.47-1.77,6.96-4.63,8.92-2.85,1.95-6.78,2.37-9.99,1.06-3.21-1.31-5.73-4.34-6.42-7.74-.15-.72-.85-1.19-1.58-1.04-.72.15-1.2.85-1.04,1.58h.01c.87,4.33,3.95,8.03,8.03,9.68,1.59.64,3.27.95,4.96.95,2.66,0,5.31-.78,7.53-2.3,3.64-2.48,5.86-6.75,5.8-11.15,0-.73-.6-1.32-1.34-1.32h0ZM151.47,90.44c1.23,0,2.22-1,2.2-2.23v-2.74c0-.61-.25-1.16-.65-1.56s-.95-.65-1.57-.65c-1.23.01-2.22,1-2.2,2.23v2.74c0,.61.25,1.17.65,1.57s.95.64,1.57.64h0ZM141.16,87.74c.29.67.44,1.42.43,2.16-.02.95.57,1.81,1.47,2.13.24.09.49.13.74.13.62,0,1.25-.25,1.68-.7.55-.58.75-1.46.53-2.22-.07-1.13-.34-2.24-.79-3.27-.49-1.13-1.8-1.65-2.92-1.15-1.13.49-1.64,1.8-1.15,2.92h.01ZM190.61,57.43c-.05-.58-.34-1.13-.79-1.51v.02c-.45-.37-1.02-.55-1.63-.5l-81.46,7.8c-1.22.12-2.12,1.21-2,2.42l7.79,81.78c.11,1.15,1.07,2.01,2.21,2.01h.21l81.46-7.76c1.23-.12,2.12-1.21,2-2.42l-7.79-81.83h0ZM175.31,139.25c0-.21-.02-.42-.11-.62-1.88-3.95-4.34-7.55-7.31-10.72-.5-.54-1.35-.56-1.89-.06-.53.5-.56,1.35-.06,1.88,2.71,2.88,4.96,6.18,6.7,9.76l-35.81,3.41c.18-3.05.67-6.09,1.52-9.03.2-.7-.21-1.45-.91-1.65-.7-.21-1.45.21-1.65.91-.93,3.25-1.47,6.62-1.64,10.02l-6.65.63c.01-.54.04-1.06.06-1.39l.02-.34c.05-1.26.19-2.53.42-3.8.45-2.49,1.26-4.92,2.39-7.21,1.14-2.3,2.57-4.42,4.28-6.3,1.34-1.48,3.34-2.66,5.26-3.81l.75-.45c3.36-2.02,6.99-3.38,10.81-4.06h0c.41-.06.82-.1,1.24-.16.49-.04.96-.11,1.45-.18,2.47-.22,4.91-.16,7.28.21,5.16.8,9.86,3.02,13.59,6.42,4.54,4.14,7.55,9.72,8.51,15.75l-8.25.78h0ZM141,74.75c2.51-1.29,5.23-1.92,8.01-1.92,4.03,0,8.16,1.35,11.88,3.98,5.92,4.19,9.23,11.82,8.26,19.01-.8,5.9-4.41,11.23-9.41,13.92-1.73.93-3.68,1.56-5.76,1.91-.59.05-1.19.13-1.78.21-3.3.28-6.86-.1-10.44-1.21-3.68-1.15-6.6-2.77-8.69-4.84-2.33-2.31-3.96-5.47-4.73-9.17-1-4.86-.29-9.97,1.97-14,2.37-4.24,5.69-6.76,10.15-7.7h0c.19-.03.38-.1.55-.18,0,0-.01,0-.01,0ZM187.96,138.04c0-.06.02-.11,0-.18-1.09-7.05-4.62-13.6-9.92-18.43-3.91-3.57-8.72-6.01-13.99-7.16,5.06-3.61,8.62-9.47,9.49-15.85,1.2-8.78-2.85-18.11-10.09-23.24-7.45-5.28-16.71-6.24-24.21-2.53-5.58,1.26-9.88,4.56-12.82,9.81-2.77,4.96-3.67,11.18-2.44,17.08.94,4.55,3,8.5,5.96,11.42,2.59,2.57,6.13,4.56,10.49,5.93.28.09.56.15.84.23-.97.47-1.94.99-2.87,1.56l-.74.44c-2.11,1.26-4.5,2.67-6.29,4.65-1.98,2.19-3.66,4.65-4.97,7.32-1.31,2.66-2.24,5.48-2.77,8.38-.27,1.47-.43,2.95-.48,4.43v.27c-.04.46-.08,1.29-.09,2.05l-6.33.6-7.36-77.36,77.04-7.37,7.36,77.4-5.8.55ZM136.9,95.48c-.72.15-1.2.85-1.04,1.58h.01c.87,4.33,3.95,8.03,8.03,9.68,1.59.64,3.27.95,4.96.95,2.66,0,5.31-.78,7.53-2.3,3.64-2.48,5.86-6.75,5.8-11.15,0-.73-.6-1.32-1.34-1.32h-.02c-.73,0-1.33.61-1.32,1.35.05,3.47-1.77,6.96-4.63,8.92-2.85,1.95-6.78,2.37-9.99,1.06-3.21-1.31-5.73-4.34-6.42-7.74-.15-.72-.85-1.19-1.58-1.04h0ZM151.47,90.44c1.23,0,2.22-1,2.2-2.23v-2.74c0-.61-.25-1.16-.65-1.56s-.95-.65-1.57-.65c-1.23.01-2.22,1-2.2,2.23v2.74c0,.61.25,1.17.65,1.57s.95.64,1.57.64h0ZM141.16,87.74c.29.67.44,1.42.43,2.16-.02.95.57,1.81,1.47,2.13.24.09.49.13.74.13.62,0,1.25-.25,1.68-.7.55-.58.75-1.46.53-2.22-.07-1.13-.34-2.24-.79-3.27-.49-1.13-1.8-1.65-2.92-1.15-1.13.49-1.64,1.8-1.15,2.92h.01ZM146.01,89.24c-.07-1.13-.34-2.24-.79-3.27-.49-1.13-1.8-1.65-2.92-1.15-1.13.49-1.64,1.8-1.15,2.92h.01c.29.67.44,1.42.43,2.16-.02.95.57,1.81,1.47,2.13.24.09.49.13.74.13.62,0,1.25-.25,1.68-.7.55-.58.75-1.46.53-2.22h0ZM153.02,83.91c-.4-.4-.95-.65-1.57-.65-1.23.01-2.22,1-2.2,2.23v2.74c0,.61.25,1.17.65,1.57s.95.64,1.57.64c1.23,0,2.22-1,2.2-2.23v-2.74c0-.61-.25-1.16-.65-1.56h0ZM160.85,92.92h-.02c-.73,0-1.33.61-1.32,1.35.05,3.47-1.77,6.96-4.63,8.92-2.85,1.95-6.78,2.37-9.99,1.06-3.21-1.31-5.73-4.34-6.42-7.74-.15-.72-.85-1.19-1.58-1.04-.72.15-1.2.85-1.04,1.58h.01c.87,4.33,3.95,8.03,8.03,9.68,1.59.64,3.27.95,4.96.95,2.66,0,5.31-.78,7.53-2.3,3.64-2.48,5.86-6.75,5.8-11.15,0-.73-.6-1.32-1.34-1.32h0ZM160.85,92.92h-.02c-.73,0-1.33.61-1.32,1.35.05,3.47-1.77,6.96-4.63,8.92-2.85,1.95-6.78,2.37-9.99,1.06-3.21-1.31-5.73-4.34-6.42-7.74-.15-.72-.85-1.19-1.58-1.04-.72.15-1.2.85-1.04,1.58h.01c.87,4.33,3.95,8.03,8.03,9.68,1.59.64,3.27.95,4.96.95,2.66,0,5.31-.78,7.53-2.3,3.64-2.48,5.86-6.75,5.8-11.15,0-.73-.6-1.32-1.34-1.32h0ZM153.02,83.91c-.4-.4-.95-.65-1.57-.65-1.23.01-2.22,1-2.2,2.23v2.74c0,.61.25,1.17.65,1.57s.95.64,1.57.64c1.23,0,2.22-1,2.2-2.23v-2.74c0-.61-.25-1.16-.65-1.56h0ZM146.01,89.24c-.07-1.13-.34-2.24-.79-3.27-.49-1.13-1.8-1.65-2.92-1.15-1.13.49-1.64,1.8-1.15,2.92h.01c.29.67.44,1.42.43,2.16-.02.95.57,1.81,1.47,2.13.24.09.49.13.74.13.62,0,1.25-.25,1.68-.7.55-.58.75-1.46.53-2.22h0ZM197.06,154.41h0c-6.86.65-17.93,1.75-28.4,2.78-9.44.92-18.4,1.81-23.32,2.28-1.22.12-2.11,1.2-2,2.42.11,1.15,1.07,2.01,2.21,2.01h.21c4.92-.46,13.88-1.35,23.34-2.28,10.47-1.03,21.53-2.13,28.39-2.78,1.23-.12,2.12-1.2,2-2.42s-1.23-2.13-2.42-2h-.01ZM197.06,154.41h0c-6.86.65-17.93,1.75-28.4,2.78-9.44.92-18.4,1.81-23.32,2.28-1.22.12-2.11,1.2-2,2.42.11,1.15,1.07,2.01,2.21,2.01h.21c4.92-.46,13.88-1.35,23.34-2.28,10.47-1.03,21.53-2.13,28.39-2.78,1.23-.12,2.12-1.2,2-2.42s-1.23-2.13-2.42-2h-.01ZM146.01,89.24c-.07-1.13-.34-2.24-.79-3.27-.49-1.13-1.8-1.65-2.92-1.15-1.13.49-1.64,1.8-1.15,2.92h.01c.29.67.44,1.42.43,2.16-.02.95.57,1.81,1.47,2.13.24.09.49.13.74.13.62,0,1.25-.25,1.68-.7.55-.58.75-1.46.53-2.22h0ZM153.02,83.91c-.4-.4-.95-.65-1.57-.65-1.23.01-2.22,1-2.2,2.23v2.74c0,.61.25,1.17.65,1.57s.95.64,1.57.64c1.23,0,2.22-1,2.2-2.23v-2.74c0-.61-.25-1.16-.65-1.56h0ZM160.85,92.92h-.02c-.73,0-1.33.61-1.32,1.35.05,3.47-1.77,6.96-4.63,8.92-2.85,1.95-6.78,2.37-9.99,1.06-3.21-1.31-5.73-4.34-6.42-7.74-.15-.72-.85-1.19-1.58-1.04-.72.15-1.2.85-1.04,1.58h.01c.87,4.33,3.95,8.03,8.03,9.68,1.59.64,3.27.95,4.96.95,2.66,0,5.31-.78,7.53-2.3,3.64-2.48,5.86-6.75,5.8-11.15,0-.73-.6-1.32-1.34-1.32h0ZM160.85,92.92h-.02c-.73,0-1.33.61-1.32,1.35.05,3.47-1.77,6.96-4.63,8.92-2.85,1.95-6.78,2.37-9.99,1.06-3.21-1.31-5.73-4.34-6.42-7.74-.15-.72-.85-1.19-1.58-1.04-.72.15-1.2.85-1.04,1.58h.01c.87,4.33,3.95,8.03,8.03,9.68,1.59.64,3.27.95,4.96.95,2.66,0,5.31-.78,7.53-2.3,3.64-2.48,5.86-6.75,5.8-11.15,0-.73-.6-1.32-1.34-1.32h0ZM151.47,90.44c1.23,0,2.22-1,2.2-2.23v-2.74c0-.61-.25-1.16-.65-1.56s-.95-.65-1.57-.65c-1.23.01-2.22,1-2.2,2.23v2.74c0,.61.25,1.17.65,1.57s.95.64,1.57.64h0ZM141.16,87.74c.29.67.44,1.42.43,2.16-.02.95.57,1.81,1.47,2.13.24.09.49.13.74.13.62,0,1.25-.25,1.68-.7.55-.58.75-1.46.53-2.22-.07-1.13-.34-2.24-.79-3.27-.49-1.13-1.8-1.65-2.92-1.15-1.13.49-1.64,1.8-1.15,2.92h.01ZM190.61,57.43c-.05-.58-.34-1.13-.79-1.51v.02c-.45-.37-1.02-.55-1.63-.5l-81.46,7.8c-1.22.12-2.12,1.21-2,2.42l7.79,81.78c.11,1.15,1.07,2.01,2.21,2.01h.21l81.46-7.76c1.23-.12,2.12-1.21,2-2.42l-7.79-81.83h0ZM175.31,139.25c0-.21-.02-.42-.11-.62-1.88-3.95-4.34-7.55-7.31-10.72-.5-.54-1.35-.56-1.89-.06-.53.5-.56,1.35-.06,1.88,2.71,2.88,4.96,6.18,6.7,9.76l-35.81,3.41c.18-3.05.67-6.09,1.52-9.03.2-.7-.21-1.45-.91-1.65-.7-.21-1.45.21-1.65.91-.93,3.25-1.47,6.62-1.64,10.02l-6.65.63c.01-.54.04-1.06.06-1.39l.02-.34c.05-1.26.19-2.53.42-3.8.45-2.49,1.26-4.92,2.39-7.21,1.14-2.3,2.57-4.42,4.28-6.3,1.34-1.48,3.34-2.66,5.26-3.81l.75-.45c3.36-2.02,6.99-3.38,10.81-4.06h0c.41-.06.82-.1,1.24-.16.49-.04.96-.11,1.45-.18,2.47-.22,4.91-.16,7.28.21,5.16.8,9.86,3.02,13.59,6.42,4.54,4.14,7.55,9.72,8.51,15.75l-8.25.78h0ZM141,74.75c2.51-1.29,5.23-1.92,8.01-1.92,4.03,0,8.16,1.35,11.88,3.98,5.92,4.19,9.23,11.82,8.26,19.01-.8,5.9-4.41,11.23-9.41,13.92-1.73.93-3.68,1.56-5.76,1.91-.59.05-1.19.13-1.78.21-3.3.28-6.86-.1-10.44-1.21-3.68-1.15-6.6-2.77-8.69-4.84-2.33-2.31-3.96-5.47-4.73-9.17-1-4.86-.29-9.97,1.97-14,2.37-4.24,5.69-6.76,10.15-7.7h0c.19-.03.38-.1.55-.18,0,0-.01,0-.01,0ZM187.96,138.04c0-.06.02-.11,0-.18-1.09-7.05-4.62-13.6-9.92-18.43-3.91-3.57-8.72-6.01-13.99-7.16,5.06-3.61,8.62-9.47,9.49-15.85,1.2-8.78-2.85-18.11-10.09-23.24-7.45-5.28-16.71-6.24-24.21-2.53-5.58,1.26-9.88,4.56-12.82,9.81-2.77,4.96-3.67,11.18-2.44,17.08.94,4.55,3,8.5,5.96,11.42,2.59,2.57,6.13,4.56,10.49,5.93.28.09.56.15.84.23-.97.47-1.94.99-2.87,1.56l-.74.44c-2.11,1.26-4.5,2.67-6.29,4.65-1.98,2.19-3.66,4.65-4.97,7.32-1.31,2.66-2.24,5.48-2.77,8.38-.27,1.47-.43,2.95-.48,4.43v.27c-.04.46-.08,1.29-.09,2.05l-6.33.6-7.36-77.36,77.04-7.37,7.36,77.4-5.8.55ZM136.9,95.48c-.72.15-1.2.85-1.04,1.58h.01c.87,4.33,3.95,8.03,8.03,9.68,1.59.64,3.27.95,4.96.95,2.66,0,5.31-.78,7.53-2.3,3.64-2.48,5.86-6.75,5.8-11.15,0-.73-.6-1.32-1.34-1.32h-.02c-.73,0-1.33.61-1.32,1.35.05,3.47-1.77,6.96-4.63,8.92-2.85,1.95-6.78,2.37-9.99,1.06-3.21-1.31-5.73-4.34-6.42-7.74-.15-.72-.85-1.19-1.58-1.04h0ZM151.47,90.44c1.23,0,2.22-1,2.2-2.23v-2.74c0-.61-.25-1.16-.65-1.56s-.95-.65-1.57-.65c-1.23.01-2.22,1-2.2,2.23v2.74c0,.61.25,1.17.65,1.57s.95.64,1.57.64h0ZM141.16,87.74c.29.67.44,1.42.43,2.16-.02.95.57,1.81,1.47,2.13.24.09.49.13.74.13.62,0,1.25-.25,1.68-.7.55-.58.75-1.46.53-2.22-.07-1.13-.34-2.24-.79-3.27-.49-1.13-1.8-1.65-2.92-1.15-1.13.49-1.64,1.8-1.15,2.92h.01ZM146.01,89.24c-.07-1.13-.34-2.24-.79-3.27-.49-1.13-1.8-1.65-2.92-1.15-1.13.49-1.64,1.8-1.15,2.92h.01c.29.67.44,1.42.43,2.16-.02.95.57,1.81,1.47,2.13.24.09.49.13.74.13.62,0,1.25-.25,1.68-.7.55-.58.75-1.46.53-2.22h0ZM153.02,83.91c-.4-.4-.95-.65-1.57-.65-1.23.01-2.22,1-2.2,2.23v2.74c0,.61.25,1.17.65,1.57s.95.64,1.57.64c1.23,0,2.22-1,2.2-2.23v-2.74c0-.61-.25-1.16-.65-1.56h0ZM160.85,92.92h-.02c-.73,0-1.33.61-1.32,1.35.05,3.47-1.77,6.96-4.63,8.92-2.85,1.95-6.78,2.37-9.99,1.06-3.21-1.31-5.73-4.34-6.42-7.74-.15-.72-.85-1.19-1.58-1.04-.72.15-1.2.85-1.04,1.58h.01c.87,4.33,3.95,8.03,8.03,9.68,1.59.64,3.27.95,4.96.95,2.66,0,5.31-.78,7.53-2.3,3.64-2.48,5.86-6.75,5.8-11.15,0-.73-.6-1.32-1.34-1.32h0ZM160.85,92.92h-.02c-.73,0-1.33.61-1.32,1.35.05,3.47-1.77,6.96-4.63,8.92-2.85,1.95-6.78,2.37-9.99,1.06-3.21-1.31-5.73-4.34-6.42-7.74-.15-.72-.85-1.19-1.58-1.04-.72.15-1.2.85-1.04,1.58h.01c.87,4.33,3.95,8.03,8.03,9.68,1.59.64,3.27.95,4.96.95,2.66,0,5.31-.78,7.53-2.3,3.64-2.48,5.86-6.75,5.8-11.15,0-.73-.6-1.32-1.34-1.32h0ZM153.02,83.91c-.4-.4-.95-.65-1.57-.65-1.23.01-2.22,1-2.2,2.23v2.74c0,.61.25,1.17.65,1.57s.95.64,1.57.64c1.23,0,2.22-1,2.2-2.23v-2.74c0-.61-.25-1.16-.65-1.56h0ZM146.01,89.24c-.07-1.13-.34-2.24-.79-3.27-.49-1.13-1.8-1.65-2.92-1.15-1.13.49-1.64,1.8-1.15,2.92h.01c.29.67.44,1.42.43,2.16-.02.95.57,1.81,1.47,2.13.24.09.49.13.74.13.62,0,1.25-.25,1.68-.7.55-.58.75-1.46.53-2.22h0ZM136.51,161.39c-.2-2.46-1.55-4.34-3.5-4.9-1.49-.43-3.73-.26-6.39,2.53-3-1.77-5.43-2.04-7.24-.81-1.69,1.14-2.31,3.37-1.67,5.96.98,3.96,4.77,8.26,10.11,8.84h.24c.33,0,.66-.07.96-.22,5.61-2.71,7.81-7.68,7.48-11.4h0ZM136.51,161.39c-.2-2.46-1.55-4.34-3.5-4.9-1.49-.43-3.73-.26-6.39,2.53-3-1.77-5.43-2.04-7.24-.81-1.69,1.14-2.31,3.37-1.67,5.96.98,3.96,4.77,8.26,10.11,8.84h.24c.33,0,.66-.07.96-.22,5.61-2.71,7.81-7.68,7.48-11.4h0ZM146.01,89.24c-.07-1.13-.34-2.24-.79-3.27-.49-1.13-1.8-1.65-2.92-1.15-1.13.49-1.64,1.8-1.15,2.92h.01c.29.67.44,1.42.43,2.16-.02.95.57,1.81,1.47,2.13.24.09.49.13.74.13.62,0,1.25-.25,1.68-.7.55-.58.75-1.46.53-2.22h0ZM153.02,83.91c-.4-.4-.95-.65-1.57-.65-1.23.01-2.22,1-2.2,2.23v2.74c0,.61.25,1.17.65,1.57s.95.64,1.57.64c1.23,0,2.22-1,2.2-2.23v-2.74c0-.61-.25-1.16-.65-1.56h0ZM160.85,92.92h-.02c-.73,0-1.33.61-1.32,1.35.05,3.47-1.77,6.96-4.63,8.92-2.85,1.95-6.78,2.37-9.99,1.06-3.21-1.31-5.73-4.34-6.42-7.74-.15-.72-.85-1.19-1.58-1.04-.72.15-1.2.85-1.04,1.58h.01c.87,4.33,3.95,8.03,8.03,9.68,1.59.64,3.27.95,4.96.95,2.66,0,5.31-.78,7.53-2.3,3.64-2.48,5.86-6.75,5.8-11.15,0-.73-.6-1.32-1.34-1.32h0ZM160.85,92.92h-.02c-.73,0-1.33.61-1.32,1.35.05,3.47-1.77,6.96-4.63,8.92-2.85,1.95-6.78,2.37-9.99,1.06-3.21-1.31-5.73-4.34-6.42-7.74-.15-.72-.85-1.19-1.58-1.04-.72.15-1.2.85-1.04,1.58h.01c.87,4.33,3.95,8.03,8.03,9.68,1.59.64,3.27.95,4.96.95,2.66,0,5.31-.78,7.53-2.3,3.64-2.48,5.86-6.75,5.8-11.15,0-.73-.6-1.32-1.34-1.32h0ZM151.47,90.44c1.23,0,2.22-1,2.2-2.23v-2.74c0-.61-.25-1.16-.65-1.56s-.95-.65-1.57-.65c-1.23.01-2.22,1-2.2,2.23v2.74c0,.61.25,1.17.65,1.57s.95.64,1.57.64h0ZM141.16,87.74c.29.67.44,1.42.43,2.16-.02.95.57,1.81,1.47,2.13.24.09.49.13.74.13.62,0,1.25-.25,1.68-.7.55-.58.75-1.46.53-2.22-.07-1.13-.34-2.24-.79-3.27-.49-1.13-1.8-1.65-2.92-1.15-1.13.49-1.64,1.8-1.15,2.92h.01ZM190.61,57.43c-.05-.58-.34-1.13-.79-1.51v.02c-.45-.37-1.02-.55-1.63-.5l-81.46,7.8c-1.22.12-2.12,1.21-2,2.42l7.79,81.78c.11,1.15,1.07,2.01,2.21,2.01h.21l81.46-7.76c1.23-.12,2.12-1.21,2-2.42l-7.79-81.83h0ZM175.31,139.25c0-.21-.02-.42-.11-.62-1.88-3.95-4.34-7.55-7.31-10.72-.5-.54-1.35-.56-1.89-.06-.53.5-.56,1.35-.06,1.88,2.71,2.88,4.96,6.18,6.7,9.76l-35.81,3.41c.18-3.05.67-6.09,1.52-9.03.2-.7-.21-1.45-.91-1.65-.7-.21-1.45.21-1.65.91-.93,3.25-1.47,6.62-1.64,10.02l-6.65.63c.01-.54.04-1.06.06-1.39l.02-.34c.05-1.26.19-2.53.42-3.8.45-2.49,1.26-4.92,2.39-7.21,1.14-2.3,2.57-4.42,4.28-6.3,1.34-1.48,3.34-2.66,5.26-3.81l.75-.45c3.36-2.02,6.99-3.38,10.81-4.06h0c.41-.06.82-.1,1.24-.16.49-.04.96-.11,1.45-.18,2.47-.22,4.91-.16,7.28.21,5.16.8,9.86,3.02,13.59,6.42,4.54,4.14,7.55,9.72,8.51,15.75l-8.25.78h0ZM141,74.75c2.51-1.29,5.23-1.92,8.01-1.92,4.03,0,8.16,1.35,11.88,3.98,5.92,4.19,9.23,11.82,8.26,19.01-.8,5.9-4.41,11.23-9.41,13.92-1.73.93-3.68,1.56-5.76,1.91-.59.05-1.19.13-1.78.21-3.3.28-6.86-.1-10.44-1.21-3.68-1.15-6.6-2.77-8.69-4.84-2.33-2.31-3.96-5.47-4.73-9.17-1-4.86-.29-9.97,1.97-14,2.37-4.24,5.69-6.76,10.15-7.7h0c.19-.03.38-.1.55-.18,0,0-.01,0-.01,0ZM187.96,138.04c0-.06.02-.11,0-.18-1.09-7.05-4.62-13.6-9.92-18.43-3.91-3.57-8.72-6.01-13.99-7.16,5.06-3.61,8.62-9.47,9.49-15.85,1.2-8.78-2.85-18.11-10.09-23.24-7.45-5.28-16.71-6.24-24.21-2.53-5.58,1.26-9.88,4.56-12.82,9.81-2.77,4.96-3.67,11.18-2.44,17.08.94,4.55,3,8.5,5.96,11.42,2.59,2.57,6.13,4.56,10.49,5.93.28.09.56.15.84.23-.97.47-1.94.99-2.87,1.56l-.74.44c-2.11,1.26-4.5,2.67-6.29,4.65-1.98,2.19-3.66,4.65-4.97,7.32-1.31,2.66-2.24,5.48-2.77,8.38-.27,1.47-.43,2.95-.48,4.43v.27c-.04.46-.08,1.29-.09,2.05l-6.33.6-7.36-77.36,77.04-7.37,7.36,77.4-5.8.55ZM136.9,95.48c-.72.15-1.2.85-1.04,1.58h.01c.87,4.33,3.95,8.03,8.03,9.68,1.59.64,3.27.95,4.96.95,2.66,0,5.31-.78,7.53-2.3,3.64-2.48,5.86-6.75,5.8-11.15,0-.73-.6-1.32-1.34-1.32h-.02c-.73,0-1.33.61-1.32,1.35.05,3.47-1.77,6.96-4.63,8.92-2.85,1.95-6.78,2.37-9.99,1.06-3.21-1.31-5.73-4.34-6.42-7.74-.15-.72-.85-1.19-1.58-1.04h0ZM151.47,90.44c1.23,0,2.22-1,2.2-2.23v-2.74c0-.61-.25-1.16-.65-1.56s-.95-.65-1.57-.65c-1.23.01-2.22,1-2.2,2.23v2.74c0,.61.25,1.17.65,1.57s.95.64,1.57.64h0ZM141.16,87.74c.29.67.44,1.42.43,2.16-.02.95.57,1.81,1.47,2.13.24.09.49.13.74.13.62,0,1.25-.25,1.68-.7.55-.58.75-1.46.53-2.22-.07-1.13-.34-2.24-.79-3.27-.49-1.13-1.8-1.65-2.92-1.15-1.13.49-1.64,1.8-1.15,2.92h.01ZM199.23,44.17h-.02l.07.06-.05-.05h0ZM197.06,154.41h0c-6.86.65-17.93,1.75-28.4,2.78-9.44.92-18.4,1.81-23.32,2.28-1.22.12-2.11,1.2-2,2.42.11,1.15,1.07,2.01,2.21,2.01h.21c4.92-.46,13.88-1.35,23.34-2.28,10.47-1.03,21.53-2.13,28.39-2.78,1.23-.12,2.12-1.2,2-2.42s-1.23-2.13-2.42-2h-.01ZM136.51,161.39c-.2-2.46-1.55-4.34-3.5-4.9-1.49-.43-3.73-.26-6.39,2.53-3-1.77-5.43-2.04-7.24-.81-1.69,1.14-2.31,3.37-1.67,5.96.98,3.96,4.77,8.26,10.11,8.84h.24c.33,0,.66-.07.96-.22,5.61-2.71,7.81-7.68,7.48-11.4h0ZM146.01,89.24c-.07-1.13-.34-2.24-.79-3.27-.49-1.13-1.8-1.65-2.92-1.15-1.13.49-1.64,1.8-1.15,2.92h.01c.29.67.44,1.42.43,2.16-.02.95.57,1.81,1.47,2.13.24.09.49.13.74.13.62,0,1.25-.25,1.68-.7.55-.58.75-1.46.53-2.22h0ZM153.02,83.91c-.4-.4-.95-.65-1.57-.65-1.23.01-2.22,1-2.2,2.23v2.74c0,.61.25,1.17.65,1.57s.95.64,1.57.64c1.23,0,2.22-1,2.2-2.23v-2.74c0-.61-.25-1.16-.65-1.56h0ZM160.85,92.92h-.02c-.73,0-1.33.61-1.32,1.35.05,3.47-1.77,6.96-4.63,8.92-2.85,1.95-6.78,2.37-9.99,1.06-3.21-1.31-5.73-4.34-6.42-7.74-.15-.72-.85-1.19-1.58-1.04-.72.15-1.2.85-1.04,1.58h.01c.87,4.33,3.95,8.03,8.03,9.68,1.59.64,3.27.95,4.96.95,2.66,0,5.31-.78,7.53-2.3,3.64-2.48,5.86-6.75,5.8-11.15,0-.73-.6-1.32-1.34-1.32h0ZM160.85,92.92h-.02c-.73,0-1.33.61-1.32,1.35.05,3.47-1.77,6.96-4.63,8.92-2.85,1.95-6.78,2.37-9.99,1.06-3.21-1.31-5.73-4.34-6.42-7.74-.15-.72-.85-1.19-1.58-1.04-.72.15-1.2.85-1.04,1.58h.01c.87,4.33,3.95,8.03,8.03,9.68,1.59.64,3.27.95,4.96.95,2.66,0,5.31-.78,7.53-2.3,3.64-2.48,5.86-6.75,5.8-11.15,0-.73-.6-1.32-1.34-1.32h0ZM151.47,90.44c1.23,0,2.22-1,2.2-2.23v-2.74c0-.61-.25-1.16-.65-1.56s-.95-.65-1.57-.65c-1.23.01-2.22,1-2.2,2.23v2.74c0,.61.25,1.17.65,1.57s.95.64,1.57.64h0ZM141.16,87.74c.29.67.44,1.42.43,2.16-.02.95.57,1.81,1.47,2.13.24.09.49.13.74.13.62,0,1.25-.25,1.68-.7.55-.58.75-1.46.53-2.22-.07-1.13-.34-2.24-.79-3.27-.49-1.13-1.8-1.65-2.92-1.15-1.13.49-1.64,1.8-1.15,2.92h.01ZM190.61,57.43c-.05-.58-.34-1.13-.79-1.51v.02c-.45-.37-1.02-.55-1.63-.5l-81.46,7.8c-1.22.12-2.12,1.21-2,2.42l7.79,81.78c.11,1.15,1.07,2.01,2.21,2.01h.21l81.46-7.76c1.23-.12,2.12-1.21,2-2.42l-7.79-81.83h0ZM175.31,139.25c0-.21-.02-.42-.11-.62-1.88-3.95-4.34-7.55-7.31-10.72-.5-.54-1.35-.56-1.89-.06-.53.5-.56,1.35-.06,1.88,2.71,2.88,4.96,6.18,6.7,9.76l-35.81,3.41c.18-3.05.67-6.09,1.52-9.03.2-.7-.21-1.45-.91-1.65-.7-.21-1.45.21-1.65.91-.93,3.25-1.47,6.62-1.64,10.02l-6.65.63c.01-.54.04-1.06.06-1.39l.02-.34c.05-1.26.19-2.53.42-3.8.45-2.49,1.26-4.92,2.39-7.21,1.14-2.3,2.57-4.42,4.28-6.3,1.34-1.48,3.34-2.66,5.26-3.81l.75-.45c3.36-2.02,6.99-3.38,10.81-4.06h0c.41-.06.82-.1,1.24-.16.49-.04.96-.11,1.45-.18,2.47-.22,4.91-.16,7.28.21,5.16.8,9.86,3.02,13.59,6.42,4.54,4.14,7.55,9.72,8.51,15.75l-8.25.78h0ZM141,74.75c2.51-1.29,5.23-1.92,8.01-1.92,4.03,0,8.16,1.35,11.88,3.98,5.92,4.19,9.23,11.82,8.26,19.01-.8,5.9-4.41,11.23-9.41,13.92-1.73.93-3.68,1.56-5.76,1.91-.59.05-1.19.13-1.78.21-3.3.28-6.86-.1-10.44-1.21-3.68-1.15-6.6-2.77-8.69-4.84-2.33-2.31-3.96-5.47-4.73-9.17-1-4.86-.29-9.97,1.97-14,2.37-4.24,5.69-6.76,10.15-7.7h0c.19-.03.38-.1.55-.18,0,0-.01,0-.01,0ZM187.96,138.04c0-.06.02-.11,0-.18-1.09-7.05-4.62-13.6-9.92-18.43-3.91-3.57-8.72-6.01-13.99-7.16,5.06-3.61,8.62-9.47,9.49-15.85,1.2-8.78-2.85-18.11-10.09-23.24-7.45-5.28-16.71-6.24-24.21-2.53-5.58,1.26-9.88,4.56-12.82,9.81-2.77,4.96-3.67,11.18-2.44,17.08.94,4.55,3,8.5,5.96,11.42,2.59,2.57,6.13,4.56,10.49,5.93.28.09.56.15.84.23-.97.47-1.94.99-2.87,1.56l-.74.44c-2.11,1.26-4.5,2.67-6.29,4.65-1.98,2.19-3.66,4.65-4.97,7.32-1.31,2.66-2.24,5.48-2.77,8.38-.27,1.47-.43,2.95-.48,4.43v.27c-.04.46-.08,1.29-.09,2.05l-6.33.6-7.36-77.36,77.04-7.37,7.36,77.4-5.8.55ZM136.9,95.48c-.72.15-1.2.85-1.04,1.58h.01c.87,4.33,3.95,8.03,8.03,9.68,1.59.64,3.27.95,4.96.95,2.66,0,5.31-.78,7.53-2.3,3.64-2.48,5.86-6.75,5.8-11.15,0-.73-.6-1.32-1.34-1.32h-.02c-.73,0-1.33.61-1.32,1.35.05,3.47-1.77,6.96-4.63,8.92-2.85,1.95-6.78,2.37-9.99,1.06-3.21-1.31-5.73-4.34-6.42-7.74-.15-.72-.85-1.19-1.58-1.04h0ZM151.47,90.44c1.23,0,2.22-1,2.2-2.23v-2.74c0-.61-.25-1.16-.65-1.56s-.95-.65-1.57-.65c-1.23.01-2.22,1-2.2,2.23v2.74c0,.61.25,1.17.65,1.57s.95.64,1.57.64h0ZM141.16,87.74c.29.67.44,1.42.43,2.16-.02.95.57,1.81,1.47,2.13.24.09.49.13.74.13.62,0,1.25-.25,1.68-.7.55-.58.75-1.46.53-2.22-.07-1.13-.34-2.24-.79-3.27-.49-1.13-1.8-1.65-2.92-1.15-1.13.49-1.64,1.8-1.15,2.92h.01ZM197.06,154.41h0c-6.86.65-17.93,1.75-28.4,2.78-9.44.92-18.4,1.81-23.32,2.28-1.22.12-2.11,1.2-2,2.42.11,1.15,1.07,2.01,2.21,2.01h.21c4.92-.46,13.88-1.35,23.34-2.28,10.47-1.03,21.53-2.13,28.39-2.78,1.23-.12,2.12-1.2,2-2.42s-1.23-2.13-2.42-2h-.01ZM197.06,154.41h0c-6.86.65-17.93,1.75-28.4,2.78-9.44.92-18.4,1.81-23.32,2.28-1.22.12-2.11,1.2-2,2.42.11,1.15,1.07,2.01,2.21,2.01h.21c4.92-.46,13.88-1.35,23.34-2.28,10.47-1.03,21.53-2.13,28.39-2.78,1.23-.12,2.12-1.2,2-2.42s-1.23-2.13-2.42-2h-.01ZM146.01,89.24c-.07-1.13-.34-2.24-.79-3.27-.49-1.13-1.8-1.65-2.92-1.15-1.13.49-1.64,1.8-1.15,2.92h.01c.29.67.44,1.42.43,2.16-.02.95.57,1.81,1.47,2.13.24.09.49.13.74.13.62,0,1.25-.25,1.68-.7.55-.58.75-1.46.53-2.22h0ZM153.02,83.91c-.4-.4-.95-.65-1.57-.65-1.23.01-2.22,1-2.2,2.23v2.74c0,.61.25,1.17.65,1.57s.95.64,1.57.64c1.23,0,2.22-1,2.2-2.23v-2.74c0-.61-.25-1.16-.65-1.56h0ZM160.85,92.92h-.02c-.73,0-1.33.61-1.32,1.35.05,3.47-1.77,6.96-4.63,8.92-2.85,1.95-6.78,2.37-9.99,1.06-3.21-1.31-5.73-4.34-6.42-7.74-.15-.72-.85-1.19-1.58-1.04-.72.15-1.2.85-1.04,1.58h.01c.87,4.33,3.95,8.03,8.03,9.68,1.59.64,3.27.95,4.96.95,2.66,0,5.31-.78,7.53-2.3,3.64-2.48,5.86-6.75,5.8-11.15,0-.73-.6-1.32-1.34-1.32h0ZM160.85,92.92h-.02c-.73,0-1.33.61-1.32,1.35.05,3.47-1.77,6.96-4.63,8.92-2.85,1.95-6.78,2.37-9.99,1.06-3.21-1.31-5.73-4.34-6.42-7.74-.15-.72-.85-1.19-1.58-1.04-.72.15-1.2.85-1.04,1.58h.01c.87,4.33,3.95,8.03,8.03,9.68,1.59.64,3.27.95,4.96.95,2.66,0,5.31-.78,7.53-2.3,3.64-2.48,5.86-6.75,5.8-11.15,0-.73-.6-1.32-1.34-1.32h0ZM151.47,90.44c1.23,0,2.22-1,2.2-2.23v-2.74c0-.61-.25-1.16-.65-1.56s-.95-.65-1.57-.65c-1.23.01-2.22,1-2.2,2.23v2.74c0,.61.25,1.17.65,1.57s.95.64,1.57.64h0ZM141.16,87.74c.29.67.44,1.42.43,2.16-.02.95.57,1.81,1.47,2.13.24.09.49.13.74.13.62,0,1.25-.25,1.68-.7.55-.58.75-1.46.53-2.22-.07-1.13-.34-2.24-.79-3.27-.49-1.13-1.8-1.65-2.92-1.15-1.13.49-1.64,1.8-1.15,2.92h.01ZM190.61,57.43c-.05-.58-.34-1.13-.79-1.51v.02c-.45-.37-1.02-.55-1.63-.5l-81.46,7.8c-1.22.12-2.12,1.21-2,2.42l7.79,81.78c.11,1.15,1.07,2.01,2.21,2.01h.21l81.46-7.76c1.23-.12,2.12-1.21,2-2.42l-7.79-81.83h0ZM175.31,139.25c0-.21-.02-.42-.11-.62-1.88-3.95-4.34-7.55-7.31-10.72-.5-.54-1.35-.56-1.89-.06-.53.5-.56,1.35-.06,1.88,2.71,2.88,4.96,6.18,6.7,9.76l-35.81,3.41c.18-3.05.67-6.09,1.52-9.03.2-.7-.21-1.45-.91-1.65-.7-.21-1.45.21-1.65.91-.93,3.25-1.47,6.62-1.64,10.02l-6.65.63c.01-.54.04-1.06.06-1.39l.02-.34c.05-1.26.19-2.53.42-3.8.45-2.49,1.26-4.92,2.39-7.21,1.14-2.3,2.57-4.42,4.28-6.3,1.34-1.48,3.34-2.66,5.26-3.81l.75-.45c3.36-2.02,6.99-3.38,10.81-4.06h0c.41-.06.82-.1,1.24-.16.49-.04.96-.11,1.45-.18,2.47-.22,4.91-.16,7.28.21,5.16.8,9.86,3.02,13.59,6.42,4.54,4.14,7.55,9.72,8.51,15.75l-8.25.78h0ZM141,74.75c2.51-1.29,5.23-1.92,8.01-1.92,4.03,0,8.16,1.35,11.88,3.98,5.92,4.19,9.23,11.82,8.26,19.01-.8,5.9-4.41,11.23-9.41,13.92-1.73.93-3.68,1.56-5.76,1.91-.59.05-1.19.13-1.78.21-3.3.28-6.86-.1-10.44-1.21-3.68-1.15-6.6-2.77-8.69-4.84-2.33-2.31-3.96-5.47-4.73-9.17-1-4.86-.29-9.97,1.97-14,2.37-4.24,5.69-6.76,10.15-7.7h0c.19-.03.38-.1.55-.18,0,0-.01,0-.01,0ZM187.96,138.04c0-.06.02-.11,0-.18-1.09-7.05-4.62-13.6-9.92-18.43-3.91-3.57-8.72-6.01-13.99-7.16,5.06-3.61,8.62-9.47,9.49-15.85,1.2-8.78-2.85-18.11-10.09-23.24-7.45-5.28-16.71-6.24-24.21-2.53-5.58,1.26-9.88,4.56-12.82,9.81-2.77,4.96-3.67,11.18-2.44,17.08.94,4.55,3,8.5,5.96,11.42,2.59,2.57,6.13,4.56,10.49,5.93.28.09.56.15.84.23-.97.47-1.94.99-2.87,1.56l-.74.44c-2.11,1.26-4.5,2.67-6.29,4.65-1.98,2.19-3.66,4.65-4.97,7.32-1.31,2.66-2.24,5.48-2.77,8.38-.27,1.47-.43,2.95-.48,4.43v.27c-.04.46-.08,1.29-.09,2.05l-6.33.6-7.36-77.36,77.04-7.37,7.36,77.4-5.8.55ZM136.9,95.48c-.72.15-1.2.85-1.04,1.58h.01c.87,4.33,3.95,8.03,8.03,9.68,1.59.64,3.27.95,4.96.95,2.66,0,5.31-.78,7.53-2.3,3.64-2.48,5.86-6.75,5.8-11.15,0-.73-.6-1.32-1.34-1.32h-.02c-.73,0-1.33.61-1.32,1.35.05,3.47-1.77,6.96-4.63,8.92-2.85,1.95-6.78,2.37-9.99,1.06-3.21-1.31-5.73-4.34-6.42-7.74-.15-.72-.85-1.19-1.58-1.04h0ZM151.47,90.44c1.23,0,2.22-1,2.2-2.23v-2.74c0-.61-.25-1.16-.65-1.56s-.95-.65-1.57-.65c-1.23.01-2.22,1-2.2,2.23v2.74c0,.61.25,1.17.65,1.57s.95.64,1.57.64h0ZM141.16,87.74c.29.67.44,1.42.43,2.16-.02.95.57,1.81,1.47,2.13.24.09.49.13.74.13.62,0,1.25-.25,1.68-.7.55-.58.75-1.46.53-2.22-.07-1.13-.34-2.24-.79-3.27-.49-1.13-1.8-1.65-2.92-1.15-1.13.49-1.64,1.8-1.15,2.92h.01ZM146.01,89.24c-.07-1.13-.34-2.24-.79-3.27-.49-1.13-1.8-1.65-2.92-1.15-1.13.49-1.64,1.8-1.15,2.92h.01c.29.67.44,1.42.43,2.16-.02.95.57,1.81,1.47,2.13.24.09.49.13.74.13.62,0,1.25-.25,1.68-.7.55-.58.75-1.46.53-2.22h0ZM153.02,83.91c-.4-.4-.95-.65-1.57-.65-1.23.01-2.22,1-2.2,2.23v2.74c0,.61.25,1.17.65,1.57s.95.64,1.57.64c1.23,0,2.22-1,2.2-2.23v-2.74c0-.61-.25-1.16-.65-1.56h0ZM160.85,92.92h-.02c-.73,0-1.33.61-1.32,1.35.05,3.47-1.77,6.96-4.63,8.92-2.85,1.95-6.78,2.37-9.99,1.06-3.21-1.31-5.73-4.34-6.42-7.74-.15-.72-.85-1.19-1.58-1.04-.72.15-1.2.85-1.04,1.58h.01c.87,4.33,3.95,8.03,8.03,9.68,1.59.64,3.27.95,4.96.95,2.66,0,5.31-.78,7.53-2.3,3.64-2.48,5.86-6.75,5.8-11.15,0-.73-.6-1.32-1.34-1.32h0ZM160.85,92.92h-.02c-.73,0-1.33.61-1.32,1.35.05,3.47-1.77,6.96-4.63,8.92-2.85,1.95-6.78,2.37-9.99,1.06-3.21-1.31-5.73-4.34-6.42-7.74-.15-.72-.85-1.19-1.58-1.04-.72.15-1.2.85-1.04,1.58h.01c.87,4.33,3.95,8.03,8.03,9.68,1.59.64,3.27.95,4.96.95,2.66,0,5.31-.78,7.53-2.3,3.64-2.48,5.86-6.75,5.8-11.15,0-.73-.6-1.32-1.34-1.32h0ZM153.02,83.91c-.4-.4-.95-.65-1.57-.65-1.23.01-2.22,1-2.2,2.23v2.74c0,.61.25,1.17.65,1.57s.95.64,1.57.64c1.23,0,2.22-1,2.2-2.23v-2.74c0-.61-.25-1.16-.65-1.56h0ZM146.01,89.24c-.07-1.13-.34-2.24-.79-3.27-.49-1.13-1.8-1.65-2.92-1.15-1.13.49-1.64,1.8-1.15,2.92h.01c.29.67.44,1.42.43,2.16-.02.95.57,1.81,1.47,2.13.24.09.49.13.74.13.62,0,1.25-.25,1.68-.7.55-.58.75-1.46.53-2.22h0ZM136.51,161.39c-.2-2.46-1.55-4.34-3.5-4.9-1.49-.43-3.73-.26-6.39,2.53-3-1.77-5.43-2.04-7.24-.81-1.69,1.14-2.31,3.37-1.67,5.96.98,3.96,4.77,8.26,10.11,8.84h.24c.33,0,.66-.07.96-.22,5.61-2.71,7.81-7.68,7.48-11.4h0ZM136.51,161.39c-.2-2.46-1.55-4.34-3.5-4.9-1.49-.43-3.73-.26-6.39,2.53-3-1.77-5.43-2.04-7.24-.81-1.69,1.14-2.31,3.37-1.67,5.96.98,3.96,4.77,8.26,10.11,8.84h.24c.33,0,.66-.07.96-.22,5.61-2.71,7.81-7.68,7.48-11.4h0ZM146.01,89.24c-.07-1.13-.34-2.24-.79-3.27-.49-1.13-1.8-1.65-2.92-1.15-1.13.49-1.64,1.8-1.15,2.92h.01c.29.67.44,1.42.43,2.16-.02.95.57,1.81,1.47,2.13.24.09.49.13.74.13.62,0,1.25-.25,1.68-.7.55-.58.75-1.46.53-2.22h0ZM153.02,83.91c-.4-.4-.95-.65-1.57-.65-1.23.01-2.22,1-2.2,2.23v2.74c0,.61.25,1.17.65,1.57s.95.64,1.57.64c1.23,0,2.22-1,2.2-2.23v-2.74c0-.61-.25-1.16-.65-1.56h0ZM160.85,92.92h-.02c-.73,0-1.33.61-1.32,1.35.05,3.47-1.77,6.96-4.63,8.92-2.85,1.95-6.78,2.37-9.99,1.06-3.21-1.31-5.73-4.34-6.42-7.74-.15-.72-.85-1.19-1.58-1.04-.72.15-1.2.85-1.04,1.58h.01c.87,4.33,3.95,8.03,8.03,9.68,1.59.64,3.27.95,4.96.95,2.66,0,5.31-.78,7.53-2.3,3.64-2.48,5.86-6.75,5.8-11.15,0-.73-.6-1.32-1.34-1.32h0ZM160.85,92.92h-.02c-.73,0-1.33.61-1.32,1.35.05,3.47-1.77,6.96-4.63,8.92-2.85,1.95-6.78,2.37-9.99,1.06-3.21-1.31-5.73-4.34-6.42-7.74-.15-.72-.85-1.19-1.58-1.04-.72.15-1.2.85-1.04,1.58h.01c.87,4.33,3.95,8.03,8.03,9.68,1.59.64,3.27.95,4.96.95,2.66,0,5.31-.78,7.53-2.3,3.64-2.48,5.86-6.75,5.8-11.15,0-.73-.6-1.32-1.34-1.32h0ZM153.02,83.91c-.4-.4-.95-.65-1.57-.65-1.23.01-2.22,1-2.2,2.23v2.74c0,.61.25,1.17.65,1.57s.95.64,1.57.64c1.23,0,2.22-1,2.2-2.23v-2.74c0-.61-.25-1.16-.65-1.56h0ZM146.01,89.24c-.07-1.13-.34-2.24-.79-3.27-.49-1.13-1.8-1.65-2.92-1.15-1.13.49-1.64,1.8-1.15,2.92h.01c.29.67.44,1.42.43,2.16-.02.95.57,1.81,1.47,2.13.24.09.49.13.74.13.62,0,1.25-.25,1.68-.7.55-.58.75-1.46.53-2.22h0ZM146.01,89.24c-.07-1.13-.34-2.24-.79-3.27-.49-1.13-1.8-1.65-2.92-1.15-1.13.49-1.64,1.8-1.15,2.92h.01c.29.67.44,1.42.43,2.16-.02.95.57,1.81,1.47,2.13.24.09.49.13.74.13.62,0,1.25-.25,1.68-.7.55-.58.75-1.46.53-2.22h0ZM153.02,83.91c-.4-.4-.95-.65-1.57-.65-1.23.01-2.22,1-2.2,2.23v2.74c0,.61.25,1.17.65,1.57s.95.64,1.57.64c1.23,0,2.22-1,2.2-2.23v-2.74c0-.61-.25-1.16-.65-1.56h0ZM160.85,92.92h-.02c-.73,0-1.33.61-1.32,1.35.05,3.47-1.77,6.96-4.63,8.92-2.85,1.95-6.78,2.37-9.99,1.06-3.21-1.31-5.73-4.34-6.42-7.74-.15-.72-.85-1.19-1.58-1.04-.72.15-1.2.85-1.04,1.58h.01c.87,4.33,3.95,8.03,8.03,9.68,1.59.64,3.27.95,4.96.95,2.66,0,5.31-.78,7.53-2.3,3.64-2.48,5.86-6.75,5.8-11.15,0-.73-.6-1.32-1.34-1.32h0ZM160.85,92.92h-.02c-.73,0-1.33.61-1.32,1.35.05,3.47-1.77,6.96-4.63,8.92-2.85,1.95-6.78,2.37-9.99,1.06-3.21-1.31-5.73-4.34-6.42-7.74-.15-.72-.85-1.19-1.58-1.04-.72.15-1.2.85-1.04,1.58h.01c.87,4.33,3.95,8.03,8.03,9.68,1.59.64,3.27.95,4.96.95,2.66,0,5.31-.78,7.53-2.3,3.64-2.48,5.86-6.75,5.8-11.15,0-.73-.6-1.32-1.34-1.32h0ZM151.47,90.44c1.23,0,2.22-1,2.2-2.23v-2.74c0-.61-.25-1.16-.65-1.56s-.95-.65-1.57-.65c-1.23.01-2.22,1-2.2,2.23v2.74c0,.61.25,1.17.65,1.57s.95.64,1.57.64h0ZM141.16,87.74c.29.67.44,1.42.43,2.16-.02.95.57,1.81,1.47,2.13.24.09.49.13.74.13.62,0,1.25-.25,1.68-.7.55-.58.75-1.46.53-2.22-.07-1.13-.34-2.24-.79-3.27-.49-1.13-1.8-1.65-2.92-1.15-1.13.49-1.64,1.8-1.15,2.92h.01ZM190.61,57.43c-.05-.58-.34-1.13-.79-1.51v.02c-.45-.37-1.02-.55-1.63-.5l-81.46,7.8c-1.22.12-2.12,1.21-2,2.42l7.79,81.78c.11,1.15,1.07,2.01,2.21,2.01h.21l81.46-7.76c1.23-.12,2.12-1.21,2-2.42l-7.79-81.83h0ZM175.31,139.25c0-.21-.02-.42-.11-.62-1.88-3.95-4.34-7.55-7.31-10.72-.5-.54-1.35-.56-1.89-.06-.53.5-.56,1.35-.06,1.88,2.71,2.88,4.96,6.18,6.7,9.76l-35.81,3.41c.18-3.05.67-6.09,1.52-9.03.2-.7-.21-1.45-.91-1.65-.7-.21-1.45.21-1.65.91-.93,3.25-1.47,6.62-1.64,10.02l-6.65.63c.01-.54.04-1.06.06-1.39l.02-.34c.05-1.26.19-2.53.42-3.8.45-2.49,1.26-4.92,2.39-7.21,1.14-2.3,2.57-4.42,4.28-6.3,1.34-1.48,3.34-2.66,5.26-3.81l.75-.45c3.36-2.02,6.99-3.38,10.81-4.06h0c.41-.06.82-.1,1.24-.16.49-.04.96-.11,1.45-.18,2.47-.22,4.91-.16,7.28.21,5.16.8,9.86,3.02,13.59,6.42,4.54,4.14,7.55,9.72,8.51,15.75l-8.25.78h0ZM141,74.75c2.51-1.29,5.23-1.92,8.01-1.92,4.03,0,8.16,1.35,11.88,3.98,5.92,4.19,9.23,11.82,8.26,19.01-.8,5.9-4.41,11.23-9.41,13.92-1.73.93-3.68,1.56-5.76,1.91-.59.05-1.19.13-1.78.21-3.3.28-6.86-.1-10.44-1.21-3.68-1.15-6.6-2.77-8.69-4.84-2.33-2.31-3.96-5.47-4.73-9.17-1-4.86-.29-9.97,1.97-14,2.37-4.24,5.69-6.76,10.15-7.7h0c.19-.03.38-.1.55-.18,0,0-.01,0-.01,0ZM187.96,138.04c0-.06.02-.11,0-.18-1.09-7.05-4.62-13.6-9.92-18.43-3.91-3.57-8.72-6.01-13.99-7.16,5.06-3.61,8.62-9.47,9.49-15.85,1.2-8.78-2.85-18.11-10.09-23.24-7.45-5.28-16.71-6.24-24.21-2.53-5.58,1.26-9.88,4.56-12.82,9.81-2.77,4.96-3.67,11.18-2.44,17.08.94,4.55,3,8.5,5.96,11.42,2.59,2.57,6.13,4.56,10.49,5.93.28.09.56.15.84.23-.97.47-1.94.99-2.87,1.56l-.74.44c-2.11,1.26-4.5,2.67-6.29,4.65-1.98,2.19-3.66,4.65-4.97,7.32-1.31,2.66-2.24,5.48-2.77,8.38-.27,1.47-.43,2.95-.48,4.43v.27c-.04.46-.08,1.29-.09,2.05l-6.33.6-7.36-77.36,77.04-7.37,7.36,77.4-5.8.55ZM136.9,95.48c-.72.15-1.2.85-1.04,1.58h.01c.87,4.33,3.95,8.03,8.03,9.68,1.59.64,3.27.95,4.96.95,2.66,0,5.31-.78,7.53-2.3,3.64-2.48,5.86-6.75,5.8-11.15,0-.73-.6-1.32-1.34-1.32h-.02c-.73,0-1.33.61-1.32,1.35.05,3.47-1.77,6.96-4.63,8.92-2.85,1.95-6.78,2.37-9.99,1.06-3.21-1.31-5.73-4.34-6.42-7.74-.15-.72-.85-1.19-1.58-1.04h0ZM151.47,90.44c1.23,0,2.22-1,2.2-2.23v-2.74c0-.61-.25-1.16-.65-1.56s-.95-.65-1.57-.65c-1.23.01-2.22,1-2.2,2.23v2.74c0,.61.25,1.17.65,1.57s.95.64,1.57.64h0ZM141.16,87.74c.29.67.44,1.42.43,2.16-.02.95.57,1.81,1.47,2.13.24.09.49.13.74.13.62,0,1.25-.25,1.68-.7.55-.58.75-1.46.53-2.22-.07-1.13-.34-2.24-.79-3.27-.49-1.13-1.8-1.65-2.92-1.15-1.13.49-1.64,1.8-1.15,2.92h.01ZM146.01,89.24c-.07-1.13-.34-2.24-.79-3.27-.49-1.13-1.8-1.65-2.92-1.15-1.13.49-1.64,1.8-1.15,2.92h.01c.29.67.44,1.42.43,2.16-.02.95.57,1.81,1.47,2.13.24.09.49.13.74.13.62,0,1.25-.25,1.68-.7.55-.58.75-1.46.53-2.22h0ZM153.02,83.91c-.4-.4-.95-.65-1.57-.65-1.23.01-2.22,1-2.2,2.23v2.74c0,.61.25,1.17.65,1.57s.95.64,1.57.64c1.23,0,2.22-1,2.2-2.23v-2.74c0-.61-.25-1.16-.65-1.56h0ZM160.85,92.92h-.02c-.73,0-1.33.61-1.32,1.35.05,3.47-1.77,6.96-4.63,8.92-2.85,1.95-6.78,2.37-9.99,1.06-3.21-1.31-5.73-4.34-6.42-7.74-.15-.72-.85-1.19-1.58-1.04-.72.15-1.2.85-1.04,1.58h.01c.87,4.33,3.95,8.03,8.03,9.68,1.59.64,3.27.95,4.96.95,2.66,0,5.31-.78,7.53-2.3,3.64-2.48,5.86-6.75,5.8-11.15,0-.73-.6-1.32-1.34-1.32h0ZM160.85,92.92h-.02c-.73,0-1.33.61-1.32,1.35.05,3.47-1.77,6.96-4.63,8.92-2.85,1.95-6.78,2.37-9.99,1.06-3.21-1.31-5.73-4.34-6.42-7.74-.15-.72-.85-1.19-1.58-1.04-.72.15-1.2.85-1.04,1.58h.01c.87,4.33,3.95,8.03,8.03,9.68,1.59.64,3.27.95,4.96.95,2.66,0,5.31-.78,7.53-2.3,3.64-2.48,5.86-6.75,5.8-11.15,0-.73-.6-1.32-1.34-1.32h0ZM153.02,83.91c-.4-.4-.95-.65-1.57-.65-1.23.01-2.22,1-2.2,2.23v2.74c0,.61.25,1.17.65,1.57s.95.64,1.57.64c1.23,0,2.22-1,2.2-2.23v-2.74c0-.61-.25-1.16-.65-1.56h0ZM146.01,89.24c-.07-1.13-.34-2.24-.79-3.27-.49-1.13-1.8-1.65-2.92-1.15-1.13.49-1.64,1.8-1.15,2.92h.01c.29.67.44,1.42.43,2.16-.02.95.57,1.81,1.47,2.13.24.09.49.13.74.13.62,0,1.25-.25,1.68-.7.55-.58.75-1.46.53-2.22h0ZM197.06,154.41h0c-6.86.65-17.93,1.75-28.4,2.78-9.44.92-18.4,1.81-23.32,2.28-1.22.12-2.11,1.2-2,2.42.11,1.15,1.07,2.01,2.21,2.01h.21c4.92-.46,13.88-1.35,23.34-2.28,10.47-1.03,21.53-2.13,28.39-2.78,1.23-.12,2.12-1.2,2-2.42s-1.23-2.13-2.42-2h-.01ZM197.06,154.41h0c-6.86.65-17.93,1.75-28.4,2.78-9.44.92-18.4,1.81-23.32,2.28-1.22.12-2.11,1.2-2,2.42.11,1.15,1.07,2.01,2.21,2.01h.21c4.92-.46,13.88-1.35,23.34-2.28,10.47-1.03,21.53-2.13,28.39-2.78,1.23-.12,2.12-1.2,2-2.42s-1.23-2.13-2.42-2h-.01ZM146.01,89.24c-.07-1.13-.34-2.24-.79-3.27-.49-1.13-1.8-1.65-2.92-1.15-1.13.49-1.64,1.8-1.15,2.92h.01c.29.67.44,1.42.43,2.16-.02.95.57,1.81,1.47,2.13.24.09.49.13.74.13.62,0,1.25-.25,1.68-.7.55-.58.75-1.46.53-2.22h0ZM153.02,83.91c-.4-.4-.95-.65-1.57-.65-1.23.01-2.22,1-2.2,2.23v2.74c0,.61.25,1.17.65,1.57s.95.64,1.57.64c1.23,0,2.22-1,2.2-2.23v-2.74c0-.61-.25-1.16-.65-1.56h0ZM160.85,92.92h-.02c-.73,0-1.33.61-1.32,1.35.05,3.47-1.77,6.96-4.63,8.92-2.85,1.95-6.78,2.37-9.99,1.06-3.21-1.31-5.73-4.34-6.42-7.74-.15-.72-.85-1.19-1.58-1.04-.72.15-1.2.85-1.04,1.58h.01c.87,4.33,3.95,8.03,8.03,9.68,1.59.64,3.27.95,4.96.95,2.66,0,5.31-.78,7.53-2.3,3.64-2.48,5.86-6.75,5.8-11.15,0-.73-.6-1.32-1.34-1.32h0ZM160.85,92.92h-.02c-.73,0-1.33.61-1.32,1.35.05,3.47-1.77,6.96-4.63,8.92-2.85,1.95-6.78,2.37-9.99,1.06-3.21-1.31-5.73-4.34-6.42-7.74-.15-.72-.85-1.19-1.58-1.04-.72.15-1.2.85-1.04,1.58h.01c.87,4.33,3.95,8.03,8.03,9.68,1.59.64,3.27.95,4.96.95,2.66,0,5.31-.78,7.53-2.3,3.64-2.48,5.86-6.75,5.8-11.15,0-.73-.6-1.32-1.34-1.32h0ZM153.02,83.91c-.4-.4-.95-.65-1.57-.65-1.23.01-2.22,1-2.2,2.23v2.74c0,.61.25,1.17.65,1.57s.95.64,1.57.64c1.23,0,2.22-1,2.2-2.23v-2.74c0-.61-.25-1.16-.65-1.56h0ZM146.01,89.24c-.07-1.13-.34-2.24-.79-3.27-.49-1.13-1.8-1.65-2.92-1.15-1.13.49-1.64,1.8-1.15,2.92h.01c.29.67.44,1.42.43,2.16-.02.95.57,1.81,1.47,2.13.24.09.49.13.74.13.62,0,1.25-.25,1.68-.7.55-.58.75-1.46.53-2.22h0ZM146.01,89.24c-.07-1.13-.34-2.24-.79-3.27-.49-1.13-1.8-1.65-2.92-1.15-1.13.49-1.64,1.8-1.15,2.92h.01c.29.67.44,1.42.43,2.16-.02.95.57,1.81,1.47,2.13.24.09.49.13.74.13.62,0,1.25-.25,1.68-.7.55-.58.75-1.46.53-2.22h0ZM153.02,83.91c-.4-.4-.95-.65-1.57-.65-1.23.01-2.22,1-2.2,2.23v2.74c0,.61.25,1.17.65,1.57s.95.64,1.57.64c1.23,0,2.22-1,2.2-2.23v-2.74c0-.61-.25-1.16-.65-1.56h0ZM160.85,92.92h-.02c-.73,0-1.33.61-1.32,1.35.05,3.47-1.77,6.96-4.63,8.92-2.85,1.95-6.78,2.37-9.99,1.06-3.21-1.31-5.73-4.34-6.42-7.74-.15-.72-.85-1.19-1.58-1.04-.72.15-1.2.85-1.04,1.58h.01c.87,4.33,3.95,8.03,8.03,9.68,1.59.64,3.27.95,4.96.95,2.66,0,5.31-.78,7.53-2.3,3.64-2.48,5.86-6.75,5.8-11.15,0-.73-.6-1.32-1.34-1.32h0ZM160.85,92.92h-.02c-.73,0-1.33.61-1.32,1.35.05,3.47-1.77,6.96-4.63,8.92-2.85,1.95-6.78,2.37-9.99,1.06-3.21-1.31-5.73-4.34-6.42-7.74-.15-.72-.85-1.19-1.58-1.04-.72.15-1.2.85-1.04,1.58h.01c.87,4.33,3.95,8.03,8.03,9.68,1.59.64,3.27.95,4.96.95,2.66,0,5.31-.78,7.53-2.3,3.64-2.48,5.86-6.75,5.8-11.15,0-.73-.6-1.32-1.34-1.32h0ZM151.47,90.44c1.23,0,2.22-1,2.2-2.23v-2.74c0-.61-.25-1.16-.65-1.56s-.95-.65-1.57-.65c-1.23.01-2.22,1-2.2,2.23v2.74c0,.61.25,1.17.65,1.57s.95.64,1.57.64h0ZM141.16,87.74c.29.67.44,1.42.43,2.16-.02.95.57,1.81,1.47,2.13.24.09.49.13.74.13.62,0,1.25-.25,1.68-.7.55-.58.75-1.46.53-2.22-.07-1.13-.34-2.24-.79-3.27-.49-1.13-1.8-1.65-2.92-1.15-1.13.49-1.64,1.8-1.15,2.92h.01ZM190.61,57.43c-.05-.58-.34-1.13-.79-1.51v.02c-.45-.37-1.02-.55-1.63-.5l-81.46,7.8c-1.22.12-2.12,1.21-2,2.42l7.79,81.78c.11,1.15,1.07,2.01,2.21,2.01h.21l81.46-7.76c1.23-.12,2.12-1.21,2-2.42l-7.79-81.83h0ZM175.31,139.25c0-.21-.02-.42-.11-.62-1.88-3.95-4.34-7.55-7.31-10.72-.5-.54-1.35-.56-1.89-.06-.53.5-.56,1.35-.06,1.88,2.71,2.88,4.96,6.18,6.7,9.76l-35.81,3.41c.18-3.05.67-6.09,1.52-9.03.2-.7-.21-1.45-.91-1.65-.7-.21-1.45.21-1.65.91-.93,3.25-1.47,6.62-1.64,10.02l-6.65.63c.01-.54.04-1.06.06-1.39l.02-.34c.05-1.26.19-2.53.42-3.8.45-2.49,1.26-4.92,2.39-7.21,1.14-2.3,2.57-4.42,4.28-6.3,1.34-1.48,3.34-2.66,5.26-3.81l.75-.45c3.36-2.02,6.99-3.38,10.81-4.06h0c.41-.06.82-.1,1.24-.16.49-.04.96-.11,1.45-.18,2.47-.22,4.91-.16,7.28.21,5.16.8,9.86,3.02,13.59,6.42,4.54,4.14,7.55,9.72,8.51,15.75l-8.25.78h0ZM141,74.75c2.51-1.29,5.23-1.92,8.01-1.92,4.03,0,8.16,1.35,11.88,3.98,5.92,4.19,9.23,11.82,8.26,19.01-.8,5.9-4.41,11.23-9.41,13.92-1.73.93-3.68,1.56-5.76,1.91-.59.05-1.19.13-1.78.21-3.3.28-6.86-.1-10.44-1.21-3.68-1.15-6.6-2.77-8.69-4.84-2.33-2.31-3.96-5.47-4.73-9.17-1-4.86-.29-9.97,1.97-14,2.37-4.24,5.69-6.76,10.15-7.7h0c.19-.03.38-.1.55-.18,0,0-.01,0-.01,0ZM187.96,138.04c0-.06.02-.11,0-.18-1.09-7.05-4.62-13.6-9.92-18.43-3.91-3.57-8.72-6.01-13.99-7.16,5.06-3.61,8.62-9.47,9.49-15.85,1.2-8.78-2.85-18.11-10.09-23.24-7.45-5.28-16.71-6.24-24.21-2.53-5.58,1.26-9.88,4.56-12.82,9.81-2.77,4.96-3.67,11.18-2.44,17.08.94,4.55,3,8.5,5.96,11.42,2.59,2.57,6.13,4.56,10.49,5.93.28.09.56.15.84.23-.97.47-1.94.99-2.87,1.56l-.74.44c-2.11,1.26-4.5,2.67-6.29,4.65-1.98,2.19-3.66,4.65-4.97,7.32-1.31,2.66-2.24,5.48-2.77,8.38-.27,1.47-.43,2.95-.48,4.43v.27c-.04.46-.08,1.29-.09,2.05l-6.33.6-7.36-77.36,77.04-7.37,7.36,77.4-5.8.55ZM136.9,95.48c-.72.15-1.2.85-1.04,1.58h.01c.87,4.33,3.95,8.03,8.03,9.68,1.59.64,3.27.95,4.96.95,2.66,0,5.31-.78,7.53-2.3,3.64-2.48,5.86-6.75,5.8-11.15,0-.73-.6-1.32-1.34-1.32h-.02c-.73,0-1.33.61-1.32,1.35.05,3.47-1.77,6.96-4.63,8.92-2.85,1.95-6.78,2.37-9.99,1.06-3.21-1.31-5.73-4.34-6.42-7.74-.15-.72-.85-1.19-1.58-1.04h0ZM151.47,90.44c1.23,0,2.22-1,2.2-2.23v-2.74c0-.61-.25-1.16-.65-1.56s-.95-.65-1.57-.65c-1.23.01-2.22,1-2.2,2.23v2.74c0,.61.25,1.17.65,1.57s.95.64,1.57.64h0ZM141.16,87.74c.29.67.44,1.42.43,2.16-.02.95.57,1.81,1.47,2.13.24.09.49.13.74.13.62,0,1.25-.25,1.68-.7.55-.58.75-1.46.53-2.22-.07-1.13-.34-2.24-.79-3.27-.49-1.13-1.8-1.65-2.92-1.15-1.13.49-1.64,1.8-1.15,2.92h.01ZM146.01,89.24c-.07-1.13-.34-2.24-.79-3.27-.49-1.13-1.8-1.65-2.92-1.15-1.13.49-1.64,1.8-1.15,2.92h.01c.29.67.44,1.42.43,2.16-.02.95.57,1.81,1.47,2.13.24.09.49.13.74.13.62,0,1.25-.25,1.68-.7.55-.58.75-1.46.53-2.22h0ZM153.02,83.91c-.4-.4-.95-.65-1.57-.65-1.23.01-2.22,1-2.2,2.23v2.74c0,.61.25,1.17.65,1.57s.95.64,1.57.64c1.23,0,2.22-1,2.2-2.23v-2.74c0-.61-.25-1.16-.65-1.56h0ZM160.85,92.92h-.02c-.73,0-1.33.61-1.32,1.35.05,3.47-1.77,6.96-4.63,8.92-2.85,1.95-6.78,2.37-9.99,1.06-3.21-1.31-5.73-4.34-6.42-7.74-.15-.72-.85-1.19-1.58-1.04-.72.15-1.2.85-1.04,1.58h.01c.87,4.33,3.95,8.03,8.03,9.68,1.59.64,3.27.95,4.96.95,2.66,0,5.31-.78,7.53-2.3,3.64-2.48,5.86-6.75,5.8-11.15,0-.73-.6-1.32-1.34-1.32h0ZM160.85,92.92h-.02c-.73,0-1.33.61-1.32,1.35.05,3.47-1.77,6.96-4.63,8.92-2.85,1.95-6.78,2.37-9.99,1.06-3.21-1.31-5.73-4.34-6.42-7.74-.15-.72-.85-1.19-1.58-1.04-.72.15-1.2.85-1.04,1.58h.01c.87,4.33,3.95,8.03,8.03,9.68,1.59.64,3.27.95,4.96.95,2.66,0,5.31-.78,7.53-2.3,3.64-2.48,5.86-6.75,5.8-11.15,0-.73-.6-1.32-1.34-1.32h0ZM153.02,83.91c-.4-.4-.95-.65-1.57-.65-1.23.01-2.22,1-2.2,2.23v2.74c0,.61.25,1.17.65,1.57s.95.64,1.57.64c1.23,0,2.22-1,2.2-2.23v-2.74c0-.61-.25-1.16-.65-1.56h0ZM146.01,89.24c-.07-1.13-.34-2.24-.79-3.27-.49-1.13-1.8-1.65-2.92-1.15-1.13.49-1.64,1.8-1.15,2.92h.01c.29.67.44,1.42.43,2.16-.02.95.57,1.81,1.47,2.13.24.09.49.13.74.13.62,0,1.25-.25,1.68-.7.55-.58.75-1.46.53-2.22h0ZM146.01,89.24c-.07-1.13-.34-2.24-.79-3.27-.49-1.13-1.8-1.65-2.92-1.15-1.13.49-1.64,1.8-1.15,2.92h.01c.29.67.44,1.42.43,2.16-.02.95.57,1.81,1.47,2.13.24.09.49.13.74.13.62,0,1.25-.25,1.68-.7.55-.58.75-1.46.53-2.22h0ZM153.02,83.91c-.4-.4-.95-.65-1.57-.65-1.23.01-2.22,1-2.2,2.23v2.74c0,.61.25,1.17.65,1.57s.95.64,1.57.64c1.23,0,2.22-1,2.2-2.23v-2.74c0-.61-.25-1.16-.65-1.56h0ZM160.85,92.92h-.02c-.73,0-1.33.61-1.32,1.35.05,3.47-1.77,6.96-4.63,8.92-2.85,1.95-6.78,2.37-9.99,1.06-3.21-1.31-5.73-4.34-6.42-7.74-.15-.72-.85-1.19-1.58-1.04-.72.15-1.2.85-1.04,1.58h.01c.87,4.33,3.95,8.03,8.03,9.68,1.59.64,3.27.95,4.96.95,2.66,0,5.31-.78,7.53-2.3,3.64-2.48,5.86-6.75,5.8-11.15,0-.73-.6-1.32-1.34-1.32h0ZM160.85,92.92h-.02c-.73,0-1.33.61-1.32,1.35.05,3.47-1.77,6.96-4.63,8.92-2.85,1.95-6.78,2.37-9.99,1.06-3.21-1.31-5.73-4.34-6.42-7.74-.15-.72-.85-1.19-1.58-1.04-.72.15-1.2.85-1.04,1.58h.01c.87,4.33,3.95,8.03,8.03,9.68,1.59.64,3.27.95,4.96.95,2.66,0,5.31-.78,7.53-2.3,3.64-2.48,5.86-6.75,5.8-11.15,0-.73-.6-1.32-1.34-1.32h0ZM153.02,83.91c-.4-.4-.95-.65-1.57-.65-1.23.01-2.22,1-2.2,2.23v2.74c0,.61.25,1.17.65,1.57s.95.64,1.57.64c1.23,0,2.22-1,2.2-2.23v-2.74c0-.61-.25-1.16-.65-1.56h0ZM146.01,89.24c-.07-1.13-.34-2.24-.79-3.27-.49-1.13-1.8-1.65-2.92-1.15-1.13.49-1.64,1.8-1.15,2.92h.01c.29.67.44,1.42.43,2.16-.02.95.57,1.81,1.47,2.13.24.09.49.13.74.13.62,0,1.25-.25,1.68-.7.55-.58.75-1.46.53-2.22h0ZM136.51,161.39c-.2-2.46-1.55-4.34-3.5-4.9-1.49-.43-3.73-.26-6.39,2.53-3-1.77-5.43-2.04-7.24-.81-1.69,1.14-2.31,3.37-1.67,5.96.98,3.96,4.77,8.26,10.11,8.84h.24c.33,0,.66-.07.96-.22,5.61-2.71,7.81-7.68,7.48-11.4h0ZM136.51,161.39c-.2-2.46-1.55-4.34-3.5-4.9-1.49-.43-3.73-.26-6.39,2.53-3-1.77-5.43-2.04-7.24-.81-1.69,1.14-2.31,3.37-1.67,5.96.98,3.96,4.77,8.26,10.11,8.84h.24c.33,0,.66-.07.96-.22,5.61-2.71,7.81-7.68,7.48-11.4h0ZM146.01,89.24c-.07-1.13-.34-2.24-.79-3.27-.49-1.13-1.8-1.65-2.92-1.15-1.13.49-1.64,1.8-1.15,2.92h.01c.29.67.44,1.42.43,2.16-.02.95.57,1.81,1.47,2.13.24.09.49.13.74.13.62,0,1.25-.25,1.68-.7.55-.58.75-1.46.53-2.22h0ZM153.02,83.91c-.4-.4-.95-.65-1.57-.65-1.23.01-2.22,1-2.2,2.23v2.74c0,.61.25,1.17.65,1.57s.95.64,1.57.64c1.23,0,2.22-1,2.2-2.23v-2.74c0-.61-.25-1.16-.65-1.56h0ZM160.85,92.92h-.02c-.73,0-1.33.61-1.32,1.35.05,3.47-1.77,6.96-4.63,8.92-2.85,1.95-6.78,2.37-9.99,1.06-3.21-1.31-5.73-4.34-6.42-7.74-.15-.72-.85-1.19-1.58-1.04-.72.15-1.2.85-1.04,1.58h.01c.87,4.33,3.95,8.03,8.03,9.68,1.59.64,3.27.95,4.96.95,2.66,0,5.31-.78,7.53-2.3,3.64-2.48,5.86-6.75,5.8-11.15,0-.73-.6-1.32-1.34-1.32h0ZM160.85,92.92h-.02c-.73,0-1.33.61-1.32,1.35.05,3.47-1.77,6.96-4.63,8.92-2.85,1.95-6.78,2.37-9.99,1.06-3.21-1.31-5.73-4.34-6.42-7.74-.15-.72-.85-1.19-1.58-1.04-.72.15-1.2.85-1.04,1.58h.01c.87,4.33,3.95,8.03,8.03,9.68,1.59.64,3.27.95,4.96.95,2.66,0,5.31-.78,7.53-2.3,3.64-2.48,5.86-6.75,5.8-11.15,0-.73-.6-1.32-1.34-1.32h0ZM153.02,83.91c-.4-.4-.95-.65-1.57-.65-1.23.01-2.22,1-2.2,2.23v2.74c0,.61.25,1.17.65,1.57s.95.64,1.57.64c1.23,0,2.22-1,2.2-2.23v-2.74c0-.61-.25-1.16-.65-1.56h0ZM146.01,89.24c-.07-1.13-.34-2.24-.79-3.27-.49-1.13-1.8-1.65-2.92-1.15-1.13.49-1.64,1.8-1.15,2.92h.01c.29.67.44,1.42.43,2.16-.02.95.57,1.81,1.47,2.13.24.09.49.13.74.13.62,0,1.25-.25,1.68-.7.55-.58.75-1.46.53-2.22h0ZM146.01,89.24c-.07-1.13-.34-2.24-.79-3.27-.49-1.13-1.8-1.65-2.92-1.15-1.13.49-1.64,1.8-1.15,2.92h.01c.29.67.44,1.42.43,2.16-.02.95.57,1.81,1.47,2.13.24.09.49.13.74.13.62,0,1.25-.25,1.68-.7.55-.58.75-1.46.53-2.22h0ZM153.02,83.91c-.4-.4-.95-.65-1.57-.65-1.23.01-2.22,1-2.2,2.23v2.74c0,.61.25,1.17.65,1.57s.95.64,1.57.64c1.23,0,2.22-1,2.2-2.23v-2.74c0-.61-.25-1.16-.65-1.56h0ZM160.85,92.92h-.02c-.73,0-1.33.61-1.32,1.35.05,3.47-1.77,6.96-4.63,8.92-2.85,1.95-6.78,2.37-9.99,1.06-3.21-1.31-5.73-4.34-6.42-7.74-.15-.72-.85-1.19-1.58-1.04-.72.15-1.2.85-1.04,1.58h.01c.87,4.33,3.95,8.03,8.03,9.68,1.59.64,3.27.95,4.96.95,2.66,0,5.31-.78,7.53-2.3,3.64-2.48,5.86-6.75,5.8-11.15,0-.73-.6-1.32-1.34-1.32h0ZM160.85,92.92h-.02c-.73,0-1.33.61-1.32,1.35.05,3.47-1.77,6.96-4.63,8.92-2.85,1.95-6.78,2.37-9.99,1.06-3.21-1.31-5.73-4.34-6.42-7.74-.15-.72-.85-1.19-1.58-1.04-.72.15-1.2.85-1.04,1.58h.01c.87,4.33,3.95,8.03,8.03,9.68,1.59.64,3.27.95,4.96.95,2.66,0,5.31-.78,7.53-2.3,3.64-2.48,5.86-6.75,5.8-11.15,0-.73-.6-1.32-1.34-1.32h0ZM153.02,83.91c-.4-.4-.95-.65-1.57-.65-1.23.01-2.22,1-2.2,2.23v2.74c0,.61.25,1.17.65,1.57s.95.64,1.57.64c1.23,0,2.22-1,2.2-2.23v-2.74c0-.61-.25-1.16-.65-1.56h0ZM146.01,89.24c-.07-1.13-.34-2.24-.79-3.27-.49-1.13-1.8-1.65-2.92-1.15-1.13.49-1.64,1.8-1.15,2.92h.01c.29.67.44,1.42.43,2.16-.02.95.57,1.81,1.47,2.13.24.09.49.13.74.13.62,0,1.25-.25,1.68-.7.55-.58.75-1.46.53-2.22h0ZM146.01,89.24c-.07-1.13-.34-2.24-.79-3.27-.49-1.13-1.8-1.65-2.92-1.15-1.13.49-1.64,1.8-1.15,2.92h.01c.29.67.44,1.42.43,2.16-.02.95.57,1.81,1.47,2.13.24.09.49.13.74.13.62,0,1.25-.25,1.68-.7.55-.58.75-1.46.53-2.22h0ZM153.02,83.91c-.4-.4-.95-.65-1.57-.65-1.23.01-2.22,1-2.2,2.23v2.74c0,.61.25,1.17.65,1.57s.95.64,1.57.64c1.23,0,2.22-1,2.2-2.23v-2.74c0-.61-.25-1.16-.65-1.56h0ZM160.85,92.92h-.02c-.73,0-1.33.61-1.32,1.35.05,3.47-1.77,6.96-4.63,8.92-2.85,1.95-6.78,2.37-9.99,1.06-3.21-1.31-5.73-4.34-6.42-7.74-.15-.72-.85-1.19-1.58-1.04-.72.15-1.2.85-1.04,1.58h.01c.87,4.33,3.95,8.03,8.03,9.68,1.59.64,3.27.95,4.96.95,2.66,0,5.31-.78,7.53-2.3,3.64-2.48,5.86-6.75,5.8-11.15,0-.73-.6-1.32-1.34-1.32h0ZM160.85,92.92h-.02c-.73,0-1.33.61-1.32,1.35.05,3.47-1.77,6.96-4.63,8.92-2.85,1.95-6.78,2.37-9.99,1.06-3.21-1.31-5.73-4.34-6.42-7.74-.15-.72-.85-1.19-1.58-1.04-.72.15-1.2.85-1.04,1.58h.01c.87,4.33,3.95,8.03,8.03,9.68,1.59.64,3.27.95,4.96.95,2.66,0,5.31-.78,7.53-2.3,3.64-2.48,5.86-6.75,5.8-11.15,0-.73-.6-1.32-1.34-1.32h0ZM151.47,90.44c1.23,0,2.22-1,2.2-2.23v-2.74c0-.61-.25-1.16-.65-1.56s-.95-.65-1.57-.65c-1.23.01-2.22,1-2.2,2.23v2.74c0,.61.25,1.17.65,1.57s.95.64,1.57.64h0ZM141.16,87.74c.29.67.44,1.42.43,2.16-.02.95.57,1.81,1.47,2.13.24.09.49.13.74.13.62,0,1.25-.25,1.68-.7.55-.58.75-1.46.53-2.22-.07-1.13-.34-2.24-.79-3.27-.49-1.13-1.8-1.65-2.92-1.15-1.13.49-1.64,1.8-1.15,2.92h.01ZM190.61,57.43c-.05-.58-.34-1.13-.79-1.51v.02c-.45-.37-1.02-.55-1.63-.5l-81.46,7.8c-1.22.12-2.12,1.21-2,2.42l7.79,81.78c.11,1.15,1.07,2.01,2.21,2.01h.21l81.46-7.76c1.23-.12,2.12-1.21,2-2.42l-7.79-81.83h0ZM175.31,139.25c0-.21-.02-.42-.11-.62-1.88-3.95-4.34-7.55-7.31-10.72-.5-.54-1.35-.56-1.89-.06-.53.5-.56,1.35-.06,1.88,2.71,2.88,4.96,6.18,6.7,9.76l-35.81,3.41c.18-3.05.67-6.09,1.52-9.03.2-.7-.21-1.45-.91-1.65-.7-.21-1.45.21-1.65.91-.93,3.25-1.47,6.62-1.64,10.02l-6.65.63c.01-.54.04-1.06.06-1.39l.02-.34c.05-1.26.19-2.53.42-3.8.45-2.49,1.26-4.92,2.39-7.21,1.14-2.3,2.57-4.42,4.28-6.3,1.34-1.48,3.34-2.66,5.26-3.81l.75-.45c3.36-2.02,6.99-3.38,10.81-4.06h0c.41-.06.82-.1,1.24-.16.49-.04.96-.11,1.45-.18,2.47-.22,4.91-.16,7.28.21,5.16.8,9.86,3.02,13.59,6.42,4.54,4.14,7.55,9.72,8.51,15.75l-8.25.78h0ZM141,74.75c2.51-1.29,5.23-1.92,8.01-1.92,4.03,0,8.16,1.35,11.88,3.98,5.92,4.19,9.23,11.82,8.26,19.01-.8,5.9-4.41,11.23-9.41,13.92-1.73.93-3.68,1.56-5.76,1.91-.59.05-1.19.13-1.78.21-3.3.28-6.86-.1-10.44-1.21-3.68-1.15-6.6-2.77-8.69-4.84-2.33-2.31-3.96-5.47-4.73-9.17-1-4.86-.29-9.97,1.97-14,2.37-4.24,5.69-6.76,10.15-7.7h0c.19-.03.38-.1.55-.18,0,0-.01,0-.01,0ZM187.96,138.04c0-.06.02-.11,0-.18-1.09-7.05-4.62-13.6-9.92-18.43-3.91-3.57-8.72-6.01-13.99-7.16,5.06-3.61,8.62-9.47,9.49-15.85,1.2-8.78-2.85-18.11-10.09-23.24-7.45-5.28-16.71-6.24-24.21-2.53-5.58,1.26-9.88,4.56-12.82,9.81-2.77,4.96-3.67,11.18-2.44,17.08.94,4.55,3,8.5,5.96,11.42,2.59,2.57,6.13,4.56,10.49,5.93.28.09.56.15.84.23-.97.47-1.94.99-2.87,1.56l-.74.44c-2.11,1.26-4.5,2.67-6.29,4.65-1.98,2.19-3.66,4.65-4.97,7.32-1.31,2.66-2.24,5.48-2.77,8.38-.27,1.47-.43,2.95-.48,4.43v.27c-.04.46-.08,1.29-.09,2.05l-6.33.6-7.36-77.36,77.04-7.37,7.36,77.4-5.8.55ZM136.9,95.48c-.72.15-1.2.85-1.04,1.58h.01c.87,4.33,3.95,8.03,8.03,9.68,1.59.64,3.27.95,4.96.95,2.66,0,5.31-.78,7.53-2.3,3.64-2.48,5.86-6.75,5.8-11.15,0-.73-.6-1.32-1.34-1.32h-.02c-.73,0-1.33.61-1.32,1.35.05,3.47-1.77,6.96-4.63,8.92-2.85,1.95-6.78,2.37-9.99,1.06-3.21-1.31-5.73-4.34-6.42-7.74-.15-.72-.85-1.19-1.58-1.04h0ZM151.47,90.44c1.23,0,2.22-1,2.2-2.23v-2.74c0-.61-.25-1.16-.65-1.56s-.95-.65-1.57-.65c-1.23.01-2.22,1-2.2,2.23v2.74c0,.61.25,1.17.65,1.57s.95.64,1.57.64h0ZM141.16,87.74c.29.67.44,1.42.43,2.16-.02.95.57,1.81,1.47,2.13.24.09.49.13.74.13.62,0,1.25-.25,1.68-.7.55-.58.75-1.46.53-2.22-.07-1.13-.34-2.24-.79-3.27-.49-1.13-1.8-1.65-2.92-1.15-1.13.49-1.64,1.8-1.15,2.92h.01ZM146.01,89.24c-.07-1.13-.34-2.24-.79-3.27-.49-1.13-1.8-1.65-2.92-1.15-1.13.49-1.64,1.8-1.15,2.92h.01c.29.67.44,1.42.43,2.16-.02.95.57,1.81,1.47,2.13.24.09.49.13.74.13.62,0,1.25-.25,1.68-.7.55-.58.75-1.46.53-2.22h0ZM153.02,83.91c-.4-.4-.95-.65-1.57-.65-1.23.01-2.22,1-2.2,2.23v2.74c0,.61.25,1.17.65,1.57s.95.64,1.57.64c1.23,0,2.22-1,2.2-2.23v-2.74c0-.61-.25-1.16-.65-1.56h0ZM160.85,92.92h-.02c-.73,0-1.33.61-1.32,1.35.05,3.47-1.77,6.96-4.63,8.92-2.85,1.95-6.78,2.37-9.99,1.06-3.21-1.31-5.73-4.34-6.42-7.74-.15-.72-.85-1.19-1.58-1.04-.72.15-1.2.85-1.04,1.58h.01c.87,4.33,3.95,8.03,8.03,9.68,1.59.64,3.27.95,4.96.95,2.66,0,5.31-.78,7.53-2.3,3.64-2.48,5.86-6.75,5.8-11.15,0-.73-.6-1.32-1.34-1.32h0ZM160.85,92.92h-.02c-.73,0-1.33.61-1.32,1.35.05,3.47-1.77,6.96-4.63,8.92-2.85,1.95-6.78,2.37-9.99,1.06-3.21-1.31-5.73-4.34-6.42-7.74-.15-.72-.85-1.19-1.58-1.04-.72.15-1.2.85-1.04,1.58h.01c.87,4.33,3.95,8.03,8.03,9.68,1.59.64,3.27.95,4.96.95,2.66,0,5.31-.78,7.53-2.3,3.64-2.48,5.86-6.75,5.8-11.15,0-.73-.6-1.32-1.34-1.32h0ZM153.02,83.91c-.4-.4-.95-.65-1.57-.65-1.23.01-2.22,1-2.2,2.23v2.74c0,.61.25,1.17.65,1.57s.95.64,1.57.64c1.23,0,2.22-1,2.2-2.23v-2.74c0-.61-.25-1.16-.65-1.56h0ZM146.01,89.24c-.07-1.13-.34-2.24-.79-3.27-.49-1.13-1.8-1.65-2.92-1.15-1.13.49-1.64,1.8-1.15,2.92h.01c.29.67.44,1.42.43,2.16-.02.95.57,1.81,1.47,2.13.24.09.49.13.74.13.62,0,1.25-.25,1.68-.7.55-.58.75-1.46.53-2.22h0ZM146.01,89.24c-.07-1.13-.34-2.24-.79-3.27-.49-1.13-1.8-1.65-2.92-1.15-1.13.49-1.64,1.8-1.15,2.92h.01c.29.67.44,1.42.43,2.16-.02.95.57,1.81,1.47,2.13.24.09.49.13.74.13.62,0,1.25-.25,1.68-.7.55-.58.75-1.46.53-2.22h0ZM153.02,83.91c-.4-.4-.95-.65-1.57-.65-1.23.01-2.22,1-2.2,2.23v2.74c0,.61.25,1.17.65,1.57s.95.64,1.57.64c1.23,0,2.22-1,2.2-2.23v-2.74c0-.61-.25-1.16-.65-1.56h0ZM160.85,92.92h-.02c-.73,0-1.33.61-1.32,1.35.05,3.47-1.77,6.96-4.63,8.92-2.85,1.95-6.78,2.37-9.99,1.06-3.21-1.31-5.73-4.34-6.42-7.74-.15-.72-.85-1.19-1.58-1.04-.72.15-1.2.85-1.04,1.58h.01c.87,4.33,3.95,8.03,8.03,9.68,1.59.64,3.27.95,4.96.95,2.66,0,5.31-.78,7.53-2.3,3.64-2.48,5.86-6.75,5.8-11.15,0-.73-.6-1.32-1.34-1.32h0ZM160.85,92.92h-.02c-.73,0-1.33.61-1.32,1.35.05,3.47-1.77,6.96-4.63,8.92-2.85,1.95-6.78,2.37-9.99,1.06-3.21-1.31-5.73-4.34-6.42-7.74-.15-.72-.85-1.19-1.58-1.04-.72.15-1.2.85-1.04,1.58h.01c.87,4.33,3.95,8.03,8.03,9.68,1.59.64,3.27.95,4.96.95,2.66,0,5.31-.78,7.53-2.3,3.64-2.48,5.86-6.75,5.8-11.15,0-.73-.6-1.32-1.34-1.32h0ZM153.02,83.91c-.4-.4-.95-.65-1.57-.65-1.23.01-2.22,1-2.2,2.23v2.74c0,.61.25,1.17.65,1.57s.95.64,1.57.64c1.23,0,2.22-1,2.2-2.23v-2.74c0-.61-.25-1.16-.65-1.56h0ZM146.01,89.24c-.07-1.13-.34-2.24-.79-3.27-.49-1.13-1.8-1.65-2.92-1.15-1.13.49-1.64,1.8-1.15,2.92h.01c.29.67.44,1.42.43,2.16-.02.95.57,1.81,1.47,2.13.24.09.49.13.74.13.62,0,1.25-.25,1.68-.7.55-.58.75-1.46.53-2.22h0ZM197.06,154.41h0c-6.86.65-17.93,1.75-28.4,2.78-9.44.92-18.4,1.81-23.32,2.28-1.22.12-2.11,1.2-2,2.42.11,1.15,1.07,2.01,2.21,2.01h.21c4.92-.46,13.88-1.35,23.34-2.28,10.47-1.03,21.53-2.13,28.39-2.78,1.23-.12,2.12-1.2,2-2.42s-1.23-2.13-2.42-2h-.01ZM215.74,28.86c-1.06-.61-2.42-.23-3.02.83l-6.39,11.28c-.6,1.06-.23,2.42.83,3.02.35.2.72.29,1.09.29.77,0,1.52-.4,1.93-1.13l6.39-11.28c.6-1.06.23-2.42-.83-3.02ZM223.25,45.83c-.43-1.15-1.71-1.72-2.86-1.3l-8.32,3.11c-1.16.42-1.74,1.71-1.31,2.85.33.89,1.18,1.45,2.08,1.45.25,0,.51-.04.77-.14l8.33-3.11h0c1.15-.43,1.73-1.72,1.3-2.86h.01ZM200.36,28.9c-.07-1.23-1.17-2.16-2.35-2.08-1.23.07-2.16,1.13-2.08,2.35l.59,9.4h0c.07,1.19,1.04,2.09,2.21,2.09h.14c1.23-.08,2.16-1.14,2.08-2.36l-.59-9.4ZM197.06,154.41h0c-6.86.65-17.93,1.75-28.4,2.78-9.44.92-18.4,1.81-23.32,2.28-1.22.12-2.11,1.2-2,2.42.11,1.15,1.07,2.01,2.21,2.01h.21c4.92-.46,13.88-1.35,23.34-2.28,10.47-1.03,21.53-2.13,28.39-2.78,1.23-.12,2.12-1.2,2-2.42s-1.23-2.13-2.42-2h-.01ZM136.51,161.39c-.2-2.46-1.55-4.34-3.5-4.9-1.49-.43-3.73-.26-6.39,2.53-3-1.77-5.43-2.04-7.24-.81-1.69,1.14-2.31,3.37-1.67,5.96.98,3.96,4.77,8.26,10.11,8.84h.24c.33,0,.66-.07.96-.22,5.61-2.71,7.81-7.68,7.48-11.4h0ZM146.01,89.24c-.07-1.13-.34-2.24-.79-3.27-.49-1.13-1.8-1.65-2.92-1.15-1.13.49-1.64,1.8-1.15,2.92h.01c.29.67.44,1.42.43,2.16-.02.95.57,1.81,1.47,2.13.24.09.49.13.74.13.62,0,1.25-.25,1.68-.7.55-.58.75-1.46.53-2.22h0ZM153.02,83.91c-.4-.4-.95-.65-1.57-.65-1.23.01-2.22,1-2.2,2.23v2.74c0,.61.25,1.17.65,1.57s.95.64,1.57.64c1.23,0,2.22-1,2.2-2.23v-2.74c0-.61-.25-1.16-.65-1.56h0ZM160.85,92.92h-.02c-.73,0-1.33.61-1.32,1.35.05,3.47-1.77,6.96-4.63,8.92-2.85,1.95-6.78,2.37-9.99,1.06-3.21-1.31-5.73-4.34-6.42-7.74-.15-.72-.85-1.19-1.58-1.04-.72.15-1.2.85-1.04,1.58h.01c.87,4.33,3.95,8.03,8.03,9.68,1.59.64,3.27.95,4.96.95,2.66,0,5.31-.78,7.53-2.3,3.64-2.48,5.86-6.75,5.8-11.15,0-.73-.6-1.32-1.34-1.32h0ZM160.85,92.92h-.02c-.73,0-1.33.61-1.32,1.35.05,3.47-1.77,6.96-4.63,8.92-2.85,1.95-6.78,2.37-9.99,1.06-3.21-1.31-5.73-4.34-6.42-7.74-.15-.72-.85-1.19-1.58-1.04-.72.15-1.2.85-1.04,1.58h.01c.87,4.33,3.95,8.03,8.03,9.68,1.59.64,3.27.95,4.96.95,2.66,0,5.31-.78,7.53-2.3,3.64-2.48,5.86-6.75,5.8-11.15,0-.73-.6-1.32-1.34-1.32h0ZM153.02,83.91c-.4-.4-.95-.65-1.57-.65-1.23.01-2.22,1-2.2,2.23v2.74c0,.61.25,1.17.65,1.57s.95.64,1.57.64c1.23,0,2.22-1,2.2-2.23v-2.74c0-.61-.25-1.16-.65-1.56h0ZM146.01,89.24c-.07-1.13-.34-2.24-.79-3.27-.49-1.13-1.8-1.65-2.92-1.15-1.13.49-1.64,1.8-1.15,2.92h.01c.29.67.44,1.42.43,2.16-.02.95.57,1.81,1.47,2.13.24.09.49.13.74.13.62,0,1.25-.25,1.68-.7.55-.58.75-1.46.53-2.22h0ZM146.01,89.24c-.07-1.13-.34-2.24-.79-3.27-.49-1.13-1.8-1.65-2.92-1.15-1.13.49-1.64,1.8-1.15,2.92h.01c.29.67.44,1.42.43,2.16-.02.95.57,1.81,1.47,2.13.24.09.49.13.74.13.62,0,1.25-.25,1.68-.7.55-.58.75-1.46.53-2.22h0ZM153.02,83.91c-.4-.4-.95-.65-1.57-.65-1.23.01-2.22,1-2.2,2.23v2.74c0,.61.25,1.17.65,1.57s.95.64,1.57.64c1.23,0,2.22-1,2.2-2.23v-2.74c0-.61-.25-1.16-.65-1.56h0ZM160.85,92.92h-.02c-.73,0-1.33.61-1.32,1.35.05,3.47-1.77,6.96-4.63,8.92-2.85,1.95-6.78,2.37-9.99,1.06-3.21-1.31-5.73-4.34-6.42-7.74-.15-.72-.85-1.19-1.58-1.04-.72.15-1.2.85-1.04,1.58h.01c.87,4.33,3.95,8.03,8.03,9.68,1.59.64,3.27.95,4.96.95,2.66,0,5.31-.78,7.53-2.3,3.64-2.48,5.86-6.75,5.8-11.15,0-.73-.6-1.32-1.34-1.32h0ZM160.85,92.92h-.02c-.73,0-1.33.61-1.32,1.35.05,3.47-1.77,6.96-4.63,8.92-2.85,1.95-6.78,2.37-9.99,1.06-3.21-1.31-5.73-4.34-6.42-7.74-.15-.72-.85-1.19-1.58-1.04-.72.15-1.2.85-1.04,1.58h.01c.87,4.33,3.95,8.03,8.03,9.68,1.59.64,3.27.95,4.96.95,2.66,0,5.31-.78,7.53-2.3,3.64-2.48,5.86-6.75,5.8-11.15,0-.73-.6-1.32-1.34-1.32h0ZM153.02,83.91c-.4-.4-.95-.65-1.57-.65-1.23.01-2.22,1-2.2,2.23v2.74c0,.61.25,1.17.65,1.57s.95.64,1.57.64c1.23,0,2.22-1,2.2-2.23v-2.74c0-.61-.25-1.16-.65-1.56h0ZM146.01,89.24c-.07-1.13-.34-2.24-.79-3.27-.49-1.13-1.8-1.65-2.92-1.15-1.13.49-1.64,1.8-1.15,2.92h.01c.29.67.44,1.42.43,2.16-.02.95.57,1.81,1.47,2.13.24.09.49.13.74.13.62,0,1.25-.25,1.68-.7.55-.58.75-1.46.53-2.22h0ZM146.01,89.24c-.07-1.13-.34-2.24-.79-3.27-.49-1.13-1.8-1.65-2.92-1.15-1.13.49-1.64,1.8-1.15,2.92h.01c.29.67.44,1.42.43,2.16-.02.95.57,1.81,1.47,2.13.24.09.49.13.74.13.62,0,1.25-.25,1.68-.7.55-.58.75-1.46.53-2.22h0ZM153.02,83.91c-.4-.4-.95-.65-1.57-.65-1.23.01-2.22,1-2.2,2.23v2.74c0,.61.25,1.17.65,1.57s.95.64,1.57.64c1.23,0,2.22-1,2.2-2.23v-2.74c0-.61-.25-1.16-.65-1.56h0ZM160.85,92.92h-.02c-.73,0-1.33.61-1.32,1.35.05,3.47-1.77,6.96-4.63,8.92-2.85,1.95-6.78,2.37-9.99,1.06-3.21-1.31-5.73-4.34-6.42-7.74-.15-.72-.85-1.19-1.58-1.04-.72.15-1.2.85-1.04,1.58h.01c.87,4.33,3.95,8.03,8.03,9.68,1.59.64,3.27.95,4.96.95,2.66,0,5.31-.78,7.53-2.3,3.64-2.48,5.86-6.75,5.8-11.15,0-.73-.6-1.32-1.34-1.32h0ZM160.85,92.92h-.02c-.73,0-1.33.61-1.32,1.35.05,3.47-1.77,6.96-4.63,8.92-2.85,1.95-6.78,2.37-9.99,1.06-3.21-1.31-5.73-4.34-6.42-7.74-.15-.72-.85-1.19-1.58-1.04-.72.15-1.2.85-1.04,1.58h.01c.87,4.33,3.95,8.03,8.03,9.68,1.59.64,3.27.95,4.96.95,2.66,0,5.31-.78,7.53-2.3,3.64-2.48,5.86-6.75,5.8-11.15,0-.73-.6-1.32-1.34-1.32h0ZM151.47,90.44c1.23,0,2.22-1,2.2-2.23v-2.74c0-.61-.25-1.16-.65-1.56s-.95-.65-1.57-.65c-1.23.01-2.22,1-2.2,2.23v2.74c0,.61.25,1.17.65,1.57s.95.64,1.57.64h0ZM141.16,87.74c.29.67.44,1.42.43,2.16-.02.95.57,1.81,1.47,2.13.24.09.49.13.74.13.62,0,1.25-.25,1.68-.7.55-.58.75-1.46.53-2.22-.07-1.13-.34-2.24-.79-3.27-.49-1.13-1.8-1.65-2.92-1.15-1.13.49-1.64,1.8-1.15,2.92h.01ZM190.61,57.43c-.05-.58-.34-1.13-.79-1.51v.02c-.45-.37-1.02-.55-1.63-.5l-81.46,7.8c-1.22.12-2.12,1.21-2,2.42l7.79,81.78c.11,1.15,1.07,2.01,2.21,2.01h.21l81.46-7.76c1.23-.12,2.12-1.21,2-2.42l-7.79-81.83h0ZM175.31,139.25c0-.21-.02-.42-.11-.62-1.88-3.95-4.34-7.55-7.31-10.72-.5-.54-1.35-.56-1.89-.06-.53.5-.56,1.35-.06,1.88,2.71,2.88,4.96,6.18,6.7,9.76l-35.81,3.41c.18-3.05.67-6.09,1.52-9.03.2-.7-.21-1.45-.91-1.65-.7-.21-1.45.21-1.65.91-.93,3.25-1.47,6.62-1.64,10.02l-6.65.63c.01-.54.04-1.06.06-1.39l.02-.34c.05-1.26.19-2.53.42-3.8.45-2.49,1.26-4.92,2.39-7.21,1.14-2.3,2.57-4.42,4.28-6.3,1.34-1.48,3.34-2.66,5.26-3.81l.75-.45c3.36-2.02,6.99-3.38,10.81-4.06h0c.41-.06.82-.1,1.24-.16.49-.04.96-.11,1.45-.18,2.47-.22,4.91-.16,7.28.21,5.16.8,9.86,3.02,13.59,6.42,4.54,4.14,7.55,9.72,8.51,15.75l-8.25.78h0ZM141,74.75c2.51-1.29,5.23-1.92,8.01-1.92,4.03,0,8.16,1.35,11.88,3.98,5.92,4.19,9.23,11.82,8.26,19.01-.8,5.9-4.41,11.23-9.41,13.92-1.73.93-3.68,1.56-5.76,1.91-.59.05-1.19.13-1.78.21-3.3.28-6.86-.1-10.44-1.21-3.68-1.15-6.6-2.77-8.69-4.84-2.33-2.31-3.96-5.47-4.73-9.17-1-4.86-.29-9.97,1.97-14,2.37-4.24,5.69-6.76,10.15-7.7h0c.19-.03.38-.1.55-.18,0,0-.01,0-.01,0ZM187.96,138.04c0-.06.02-.11,0-.18-1.09-7.05-4.62-13.6-9.92-18.43-3.91-3.57-8.72-6.01-13.99-7.16,5.06-3.61,8.62-9.47,9.49-15.85,1.2-8.78-2.85-18.11-10.09-23.24-7.45-5.28-16.71-6.24-24.21-2.53-5.58,1.26-9.88,4.56-12.82,9.81-2.77,4.96-3.67,11.18-2.44,17.08.94,4.55,3,8.5,5.96,11.42,2.59,2.57,6.13,4.56,10.49,5.93.28.09.56.15.84.23-.97.47-1.94.99-2.87,1.56l-.74.44c-2.11,1.26-4.5,2.67-6.29,4.65-1.98,2.19-3.66,4.65-4.97,7.32-1.31,2.66-2.24,5.48-2.77,8.38-.27,1.47-.43,2.95-.48,4.43v.27c-.04.46-.08,1.29-.09,2.05l-6.33.6-7.36-77.36,77.04-7.37,7.36,77.4-5.8.55ZM136.9,95.48c-.72.15-1.2.85-1.04,1.58h.01c.87,4.33,3.95,8.03,8.03,9.68,1.59.64,3.27.95,4.96.95,2.66,0,5.31-.78,7.53-2.3,3.64-2.48,5.86-6.75,5.8-11.15,0-.73-.6-1.32-1.34-1.32h-.02c-.73,0-1.33.61-1.32,1.35.05,3.47-1.77,6.96-4.63,8.92-2.85,1.95-6.78,2.37-9.99,1.06-3.21-1.31-5.73-4.34-6.42-7.74-.15-.72-.85-1.19-1.58-1.04h0ZM151.47,90.44c1.23,0,2.22-1,2.2-2.23v-2.74c0-.61-.25-1.16-.65-1.56s-.95-.65-1.57-.65c-1.23.01-2.22,1-2.2,2.23v2.74c0,.61.25,1.17.65,1.57s.95.64,1.57.64h0ZM141.16,87.74c.29.67.44,1.42.43,2.16-.02.95.57,1.81,1.47,2.13.24.09.49.13.74.13.62,0,1.25-.25,1.68-.7.55-.58.75-1.46.53-2.22-.07-1.13-.34-2.24-.79-3.27-.49-1.13-1.8-1.65-2.92-1.15-1.13.49-1.64,1.8-1.15,2.92h.01ZM146.01,89.24c-.07-1.13-.34-2.24-.79-3.27-.49-1.13-1.8-1.65-2.92-1.15-1.13.49-1.64,1.8-1.15,2.92h.01c.29.67.44,1.42.43,2.16-.02.95.57,1.81,1.47,2.13.24.09.49.13.74.13.62,0,1.25-.25,1.68-.7.55-.58.75-1.46.53-2.22h0ZM153.02,83.91c-.4-.4-.95-.65-1.57-.65-1.23.01-2.22,1-2.2,2.23v2.74c0,.61.25,1.17.65,1.57s.95.64,1.57.64c1.23,0,2.22-1,2.2-2.23v-2.74c0-.61-.25-1.16-.65-1.56h0ZM160.85,92.92h-.02c-.73,0-1.33.61-1.32,1.35.05,3.47-1.77,6.96-4.63,8.92-2.85,1.95-6.78,2.37-9.99,1.06-3.21-1.31-5.73-4.34-6.42-7.74-.15-.72-.85-1.19-1.58-1.04-.72.15-1.2.85-1.04,1.58h.01c.87,4.33,3.95,8.03,8.03,9.68,1.59.64,3.27.95,4.96.95,2.66,0,5.31-.78,7.53-2.3,3.64-2.48,5.86-6.75,5.8-11.15,0-.73-.6-1.32-1.34-1.32h0ZM160.85,92.92h-.02c-.73,0-1.33.61-1.32,1.35.05,3.47-1.77,6.96-4.63,8.92-2.85,1.95-6.78,2.37-9.99,1.06-3.21-1.31-5.73-4.34-6.42-7.74-.15-.72-.85-1.19-1.58-1.04-.72.15-1.2.85-1.04,1.58h.01c.87,4.33,3.95,8.03,8.03,9.68,1.59.64,3.27.95,4.96.95,2.66,0,5.31-.78,7.53-2.3,3.64-2.48,5.86-6.75,5.8-11.15,0-.73-.6-1.32-1.34-1.32h0ZM153.02,83.91c-.4-.4-.95-.65-1.57-.65-1.23.01-2.22,1-2.2,2.23v2.74c0,.61.25,1.17.65,1.57s.95.64,1.57.64c1.23,0,2.22-1,2.2-2.23v-2.74c0-.61-.25-1.16-.65-1.56h0ZM146.01,89.24c-.07-1.13-.34-2.24-.79-3.27-.49-1.13-1.8-1.65-2.92-1.15-1.13.49-1.64,1.8-1.15,2.92h.01c.29.67.44,1.42.43,2.16-.02.95.57,1.81,1.47,2.13.24.09.49.13.74.13.62,0,1.25-.25,1.68-.7.55-.58.75-1.46.53-2.22h0ZM146.01,89.24c-.07-1.13-.34-2.24-.79-3.27-.49-1.13-1.8-1.65-2.92-1.15-1.13.49-1.64,1.8-1.15,2.92h.01c.29.67.44,1.42.43,2.16-.02.95.57,1.81,1.47,2.13.24.09.49.13.74.13.62,0,1.25-.25,1.68-.7.55-.58.75-1.46.53-2.22h0ZM153.02,83.91c-.4-.4-.95-.65-1.57-.65-1.23.01-2.22,1-2.2,2.23v2.74c0,.61.25,1.17.65,1.57s.95.64,1.57.64c1.23,0,2.22-1,2.2-2.23v-2.74c0-.61-.25-1.16-.65-1.56h0ZM160.85,92.92h-.02c-.73,0-1.33.61-1.32,1.35.05,3.47-1.77,6.96-4.63,8.92-2.85,1.95-6.78,2.37-9.99,1.06-3.21-1.31-5.73-4.34-6.42-7.74-.15-.72-.85-1.19-1.58-1.04-.72.15-1.2.85-1.04,1.58h.01c.87,4.33,3.95,8.03,8.03,9.68,1.59.64,3.27.95,4.96.95,2.66,0,5.31-.78,7.53-2.3,3.64-2.48,5.86-6.75,5.8-11.15,0-.73-.6-1.32-1.34-1.32h0ZM160.85,92.92h-.02c-.73,0-1.33.61-1.32,1.35.05,3.47-1.77,6.96-4.63,8.92-2.85,1.95-6.78,2.37-9.99,1.06-3.21-1.31-5.73-4.34-6.42-7.74-.15-.72-.85-1.19-1.58-1.04-.72.15-1.2.85-1.04,1.58h.01c.87,4.33,3.95,8.03,8.03,9.68,1.59.64,3.27.95,4.96.95,2.66,0,5.31-.78,7.53-2.3,3.64-2.48,5.86-6.75,5.8-11.15,0-.73-.6-1.32-1.34-1.32h0ZM153.02,83.91c-.4-.4-.95-.65-1.57-.65-1.23.01-2.22,1-2.2,2.23v2.74c0,.61.25,1.17.65,1.57s.95.64,1.57.64c1.23,0,2.22-1,2.2-2.23v-2.74c0-.61-.25-1.16-.65-1.56h0ZM146.01,89.24c-.07-1.13-.34-2.24-.79-3.27-.49-1.13-1.8-1.65-2.92-1.15-1.13.49-1.64,1.8-1.15,2.92h.01c.29.67.44,1.42.43,2.16-.02.95.57,1.81,1.47,2.13.24.09.49.13.74.13.62,0,1.25-.25,1.68-.7.55-.58.75-1.46.53-2.22h0ZM146.01,89.24c-.07-1.13-.34-2.24-.79-3.27-.49-1.13-1.8-1.65-2.92-1.15-1.13.49-1.64,1.8-1.15,2.92h.01c.29.67.44,1.42.43,2.16-.02.95.57,1.81,1.47,2.13.24.09.49.13.74.13.62,0,1.25-.25,1.68-.7.55-.58.75-1.46.53-2.22h0ZM153.02,83.91c-.4-.4-.95-.65-1.57-.65-1.23.01-2.22,1-2.2,2.23v2.74c0,.61.25,1.17.65,1.57s.95.64,1.57.64c1.23,0,2.22-1,2.2-2.23v-2.74c0-.61-.25-1.16-.65-1.56h0ZM160.85,92.92h-.02c-.73,0-1.33.61-1.32,1.35.05,3.47-1.77,6.96-4.63,8.92-2.85,1.95-6.78,2.37-9.99,1.06-3.21-1.31-5.73-4.34-6.42-7.74-.15-.72-.85-1.19-1.58-1.04-.72.15-1.2.85-1.04,1.58h.01c.87,4.33,3.95,8.03,8.03,9.68,1.59.64,3.27.95,4.96.95,2.66,0,5.31-.78,7.53-2.3,3.64-2.48,5.86-6.75,5.8-11.15,0-.73-.6-1.32-1.34-1.32h0ZM160.85,92.92h-.02c-.73,0-1.33.61-1.32,1.35.05,3.47-1.77,6.96-4.63,8.92-2.85,1.95-6.78,2.37-9.99,1.06-3.21-1.31-5.73-4.34-6.42-7.74-.15-.72-.85-1.19-1.58-1.04-.72.15-1.2.85-1.04,1.58h.01c.87,4.33,3.95,8.03,8.03,9.68,1.59.64,3.27.95,4.96.95,2.66,0,5.31-.78,7.53-2.3,3.64-2.48,5.86-6.75,5.8-11.15,0-.73-.6-1.32-1.34-1.32h0ZM146.01,89.24c-.07-1.13-.34-2.24-.79-3.27-.49-1.13-1.8-1.65-2.92-1.15-1.13.49-1.64,1.8-1.15,2.92h.01c.29.67.44,1.42.43,2.16-.02.95.57,1.81,1.47,2.13.24.09.49.13.74.13.62,0,1.25-.25,1.68-.7.55-.58.75-1.46.53-2.22h0ZM153.02,83.91c-.4-.4-.95-.65-1.57-.65-1.23.01-2.22,1-2.2,2.23v2.74c0,.61.25,1.17.65,1.57s.95.64,1.57.64c1.23,0,2.22-1,2.2-2.23v-2.74c0-.61-.25-1.16-.65-1.56h0Z"/>
      <path d="M219.4,177.08l-11.78-123.05c-.21-2.27-1.3-4.32-3.05-5.78h0l-.46-.34-4.8-3.69-.07-.05h-.02c-1.76-1.45-3.98-2.12-6.23-1.91l-93.43,8.95c-4.68.45-8.13,4.62-7.67,9.3l11.77,122.99c.23,2.47,1.48,4.79,3.32,6.18l.13.1,4.89,3.54c1.49,1.26,3.43,2,5.48,2,.27,0,.54,0,.81-.04l93.43-8.89c4.68-.44,8.13-4.62,7.68-9.3h0ZM205.97,177.87h0l-93.43,8.9c-1.56.15-3-.6-3.81-1.84-.36-.53-.59-1.17-.65-1.85l-11.77-122.99c-.21-2.24,1.44-4.24,3.68-4.46l93.43-8.95c.13,0,.26-.02.39-.02.21,0,.41.02.62.05.71.11,1.4.41,1.98.88.84.69,1.37,1.68,1.47,2.76l11.78,123.05c.21,2.24-1.44,4.25-3.69,4.46h0Z"/>
      <path d="M136.51,161.39c.32,3.72-1.88,8.69-7.48,11.4-.3.15-.63.22-.96.22h-.24c-5.33-.58-9.12-4.88-10.11-8.84-.64-2.59-.02-4.82,1.67-5.96,1.81-1.23,4.24-.95,7.24.81,2.66-2.79,4.9-2.96,6.39-2.53,1.95.56,3.29,2.44,3.5,4.9h0Z"/>
      <path d="M146.01,89.24c-.07-1.13-.34-2.24-.79-3.27-.49-1.13-1.8-1.65-2.92-1.15-1.13.49-1.64,1.8-1.15,2.92h.01c.29.67.44,1.42.43,2.16-.02.95.57,1.81,1.47,2.13.24.09.49.13.74.13.62,0,1.25-.25,1.68-.7.55-.58.75-1.46.53-2.22h0ZM153.02,83.91c-.4-.4-.95-.65-1.57-.65-1.23.01-2.22,1-2.2,2.23v2.74c0,.61.25,1.17.65,1.57s.95.64,1.57.64c1.23,0,2.22-1,2.2-2.23v-2.74c0-.61-.25-1.16-.65-1.56h0ZM160.85,92.92h-.02c-.73,0-1.33.61-1.32,1.35.05,3.47-1.77,6.96-4.63,8.92-2.85,1.95-6.78,2.37-9.99,1.06-3.21-1.31-5.73-4.34-6.42-7.74-.15-.72-.85-1.19-1.58-1.04-.72.15-1.2.85-1.04,1.58h.01c.87,4.33,3.95,8.03,8.03,9.68,1.59.64,3.27.95,4.96.95,2.66,0,5.31-.78,7.53-2.3,3.64-2.48,5.86-6.75,5.8-11.15,0-.73-.6-1.32-1.34-1.32h0ZM160.85,92.92h-.02c-.73,0-1.33.61-1.32,1.35.05,3.47-1.77,6.96-4.63,8.92-2.85,1.95-6.78,2.37-9.99,1.06-3.21-1.31-5.73-4.34-6.42-7.74-.15-.72-.85-1.19-1.58-1.04-.72.15-1.2.85-1.04,1.58h.01c.87,4.33,3.95,8.03,8.03,9.68,1.59.64,3.27.95,4.96.95,2.66,0,5.31-.78,7.53-2.3,3.64-2.48,5.86-6.75,5.8-11.15,0-.73-.6-1.32-1.34-1.32h0ZM151.47,90.44c1.23,0,2.22-1,2.2-2.23v-2.74c0-.61-.25-1.16-.65-1.56s-.95-.65-1.57-.65c-1.23.01-2.22,1-2.2,2.23v2.74c0,.61.25,1.17.65,1.57s.95.64,1.57.64h0ZM141.16,87.74c.29.67.44,1.42.43,2.16-.02.95.57,1.81,1.47,2.13.24.09.49.13.74.13.62,0,1.25-.25,1.68-.7.55-.58.75-1.46.53-2.22-.07-1.13-.34-2.24-.79-3.27-.49-1.13-1.8-1.65-2.92-1.15-1.13.49-1.64,1.8-1.15,2.92h.01ZM190.61,57.43c-.05-.58-.34-1.13-.79-1.51v.02c-.45-.37-1.02-.55-1.63-.5l-81.46,7.8c-1.22.12-2.12,1.21-2,2.42l7.79,81.78c.11,1.15,1.07,2.01,2.21,2.01h.21l81.46-7.76c1.23-.12,2.12-1.21,2-2.42l-7.79-81.83h0ZM175.31,139.25c0-.21-.02-.42-.11-.62-1.88-3.95-4.34-7.55-7.31-10.72-.5-.54-1.35-.56-1.89-.06-.53.5-.56,1.35-.06,1.88,2.71,2.88,4.96,6.18,6.7,9.76l-35.81,3.41c.18-3.05.67-6.09,1.52-9.03.2-.7-.21-1.45-.91-1.65-.7-.21-1.45.21-1.65.91-.93,3.25-1.47,6.62-1.64,10.02l-6.65.63c.01-.54.04-1.06.06-1.39l.02-.34c.05-1.26.19-2.53.42-3.8.45-2.49,1.26-4.92,2.39-7.21,1.14-2.3,2.57-4.42,4.28-6.3,1.34-1.48,3.34-2.66,5.26-3.81l.75-.45c3.36-2.02,6.99-3.38,10.81-4.06h0c.41-.06.82-.1,1.24-.16.49-.04.96-.11,1.45-.18,2.47-.22,4.91-.16,7.28.21,5.16.8,9.86,3.02,13.59,6.42,4.54,4.14,7.55,9.72,8.51,15.75l-8.25.78h0ZM141,74.75c2.51-1.29,5.23-1.92,8.01-1.92,4.03,0,8.16,1.35,11.88,3.98,5.92,4.19,9.23,11.82,8.26,19.01-.8,5.9-4.41,11.23-9.41,13.92-1.73.93-3.68,1.56-5.76,1.91-.59.05-1.19.13-1.78.21-3.3.28-6.86-.1-10.44-1.21-3.68-1.15-6.6-2.77-8.69-4.84-2.33-2.31-3.96-5.47-4.73-9.17-1-4.86-.29-9.97,1.97-14,2.37-4.24,5.69-6.76,10.15-7.7h0c.19-.03.38-.1.55-.18,0,0-.01,0-.01,0ZM187.96,138.04c0-.06.02-.11,0-.18-1.09-7.05-4.62-13.6-9.92-18.43-3.91-3.57-8.72-6.01-13.99-7.16,5.06-3.61,8.62-9.47,9.49-15.85,1.2-8.78-2.85-18.11-10.09-23.24-7.45-5.28-16.71-6.24-24.21-2.53-5.58,1.26-9.88,4.56-12.82,9.81-2.77,4.96-3.67,11.18-2.44,17.08.94,4.55,3,8.5,5.96,11.42,2.59,2.57,6.13,4.56,10.49,5.93.28.09.56.15.84.23-.97.47-1.94.99-2.87,1.56l-.74.44c-2.11,1.26-4.5,2.67-6.29,4.65-1.98,2.19-3.66,4.65-4.97,7.32-1.31,2.66-2.24,5.48-2.77,8.38-.27,1.47-.43,2.95-.48,4.43v.27c-.04.46-.08,1.29-.09,2.05l-6.33.6-7.36-77.36,77.04-7.37,7.36,77.4-5.8.55ZM136.9,95.48c-.72.15-1.2.85-1.04,1.58h.01c.87,4.33,3.95,8.03,8.03,9.68,1.59.64,3.27.95,4.96.95,2.66,0,5.31-.78,7.53-2.3,3.64-2.48,5.86-6.75,5.8-11.15,0-.73-.6-1.32-1.34-1.32h-.02c-.73,0-1.33.61-1.32,1.35.05,3.47-1.77,6.96-4.63,8.92-2.85,1.95-6.78,2.37-9.99,1.06-3.21-1.31-5.73-4.34-6.42-7.74-.15-.72-.85-1.19-1.58-1.04h0ZM151.47,90.44c1.23,0,2.22-1,2.2-2.23v-2.74c0-.61-.25-1.16-.65-1.56s-.95-.65-1.57-.65c-1.23.01-2.22,1-2.2,2.23v2.74c0,.61.25,1.17.65,1.57s.95.64,1.57.64h0ZM141.16,87.74c.29.67.44,1.42.43,2.16-.02.95.57,1.81,1.47,2.13.24.09.49.13.74.13.62,0,1.25-.25,1.68-.7.55-.58.75-1.46.53-2.22-.07-1.13-.34-2.24-.79-3.27-.49-1.13-1.8-1.65-2.92-1.15-1.13.49-1.64,1.8-1.15,2.92h.01ZM146.01,89.24c-.07-1.13-.34-2.24-.79-3.27-.49-1.13-1.8-1.65-2.92-1.15-1.13.49-1.64,1.8-1.15,2.92h.01c.29.67.44,1.42.43,2.16-.02.95.57,1.81,1.47,2.13.24.09.49.13.74.13.62,0,1.25-.25,1.68-.7.55-.58.75-1.46.53-2.22h0ZM153.02,83.91c-.4-.4-.95-.65-1.57-.65-1.23.01-2.22,1-2.2,2.23v2.74c0,.61.25,1.17.65,1.57s.95.64,1.57.64c1.23,0,2.22-1,2.2-2.23v-2.74c0-.61-.25-1.16-.65-1.56h0ZM160.85,92.92h-.02c-.73,0-1.33.61-1.32,1.35.05,3.47-1.77,6.96-4.63,8.92-2.85,1.95-6.78,2.37-9.99,1.06-3.21-1.31-5.73-4.34-6.42-7.74-.15-.72-.85-1.19-1.58-1.04-.72.15-1.2.85-1.04,1.58h.01c.87,4.33,3.95,8.03,8.03,9.68,1.59.64,3.27.95,4.96.95,2.66,0,5.31-.78,7.53-2.3,3.64-2.48,5.86-6.75,5.8-11.15,0-.73-.6-1.32-1.34-1.32h0ZM160.85,92.92h-.02c-.73,0-1.33.61-1.32,1.35.05,3.47-1.77,6.96-4.63,8.92-2.85,1.95-6.78,2.37-9.99,1.06-3.21-1.31-5.73-4.34-6.42-7.74-.15-.72-.85-1.19-1.58-1.04-.72.15-1.2.85-1.04,1.58h.01c.87,4.33,3.95,8.03,8.03,9.68,1.59.64,3.27.95,4.96.95,2.66,0,5.31-.78,7.53-2.3,3.64-2.48,5.86-6.75,5.8-11.15,0-.73-.6-1.32-1.34-1.32h0ZM153.02,83.91c-.4-.4-.95-.65-1.57-.65-1.23.01-2.22,1-2.2,2.23v2.74c0,.61.25,1.17.65,1.57s.95.64,1.57.64c1.23,0,2.22-1,2.2-2.23v-2.74c0-.61-.25-1.16-.65-1.56h0ZM146.01,89.24c-.07-1.13-.34-2.24-.79-3.27-.49-1.13-1.8-1.65-2.92-1.15-1.13.49-1.64,1.8-1.15,2.92h.01c.29.67.44,1.42.43,2.16-.02.95.57,1.81,1.47,2.13.24.09.49.13.74.13.62,0,1.25-.25,1.68-.7.55-.58.75-1.46.53-2.22h0Z"/>
      <path d="M199.48,156.41c.12,1.23-.77,2.3-2,2.42-6.86.65-17.92,1.75-28.39,2.78-9.45.93-18.41,1.82-23.34,2.28h-.21c-1.14,0-2.1-.86-2.21-2.01-.11-1.23.78-2.3,2-2.42,4.91-.47,13.87-1.36,23.32-2.28,10.47-1.03,21.54-2.13,28.4-2.78h0c1.2-.13,2.3.77,2.42,2h.01Z"/>
    </g>
  </g>
</svg>