<svg xmlns="http://www.w3.org/2000/svg" version="1.1" xmlns:xlink="http://www.w3.org/1999/xlink" width="512" height="512" x="0" y="0" viewBox="0 0 24 24" style="enable-background:new 0 0 512 512" xml:space="preserve" class=""><g><path d="M16 22v2H8v-2c0-2.206 1.794-4 4-4s4 1.794 4 4ZM12 8c-1.103 0-2 .897-2 2s.897 2 2 2 2-.897 2-2-.897-2-2-2Zm12 1.685V19c0 2.757-2.243 5-5 5h-1v-2c0-3.309-2.691-6-6-6s-6 2.691-6 6v2H5c-2.757 0-5-2.243-5-5V9.685c0-1.664.823-3.214 2.203-4.146l7-4.724a4.98 4.98 0 0 1 5.594 0l7 4.724A4.995 4.995 0 0 1 24 9.685ZM16 10c0-2.206-1.794-4-4-4s-4 1.794-4 4 1.794 4 4 4 4-1.794 4-4Z" fill="#000000" opacity="1" data-original="#000000" class=""></path></g></svg>