<?xml version="1.0" encoding="UTF-8"?>
<svg id="Layer_1" xmlns="http://www.w3.org/2000/svg" version="1.1" viewBox="0 0 406.28 419.38">
  <!-- Generator: Adobe Illustrator 30.0.0, SVG Export Plug-In . SVG Version: 2.1.1 Build 123)  -->
  <defs>
    <style>
      .st0 {
        fill: #fff;
      }

      .st1 {
        fill: #f2c316;
      }

      .st2 {
        fill: none;
        stroke: #000;
        stroke-miterlimit: 10;
        stroke-width: 2px;
      }
    </style>
  </defs>
  <g>
    <path class="st2" d="M57.56,70.4c-9.78,8.3-26.9,23.96-37.31,58.41-6.79,22.47-14.26,49.56-17.11,72.86-3.02,24.67-2.91,48.34.76,72.9,3.81,25.5,12.09,46.4,25.95,65.97,15.48,19.43,31.77,36.72,58.29,45.13"/>
    <path class="st2" d="M265.48,49.96c14.67-16.16,30.38-32.05,50.07-41.45,27.27-13.01,46.88-8.14,62.41,7.19,12.79,12.62,15.26,26.04,20.54,42.9,6.57,20.99,9.83,90.58-10.84,144.89"/>
    <path class="st1" d="M74.37,24.02c31.74-14.92,65.09-20.34,99.05-15.2,33.96,5.12,62.89,16.59,92.45,34.07,35.86,21.2,65.62,46.91,90.61,80.69,24.78,33.49,47.05,75.24,49.44,116.83,3.33,57.93-16.87,96.29-53.78,126.77-39.52,32.62-87.11,45.27-130.28,50.46-10.21,1.22-56.19,3.4-83.75-.38-29.25-4.01-55.07-16.83-67.31-38.63-15.22-27.11-6.88-52.58.95-87.38,6.84-30.33,14.05-67.43.72-95.51-9.55-20.09-21.66-36.96-32.75-54.97-12.61-20.47-15.31-39.57-10.95-60.26,5.38-25.52,22.85-45.82,45.59-56.5h0s.01.01.01.01Z"/>
  </g>
  <g>
    <path class="st0" d="M355.46,286.57c.02,1.02-.18,2.07-.59,2.98-1.23,11.08-16.09,15.57-19.91,15.41l-198.07-7.08c-.52-.02-1.07-.07-1.59-.16-5.69-.93-10.11-5.55-10.2-10.97l-2.43-143.47c-.09-6.6,3.87-19,19.46-23.51.05-.02.09.02.11,0,2.66-1.5,5.78-2.25,9.06-2.16l184.76,6.62c9.19.34,16.8,7.49,16.96,15.98l2.46,146.36Z"/>
    <g>
      <path d="M353.01,140.2c-.16-8.49-7.76-15.64-16.96-15.98l-184.76-6.62c-3.28-.09-6.4.66-9.06,2.16-.02.02-.07-.02-.11,0-15.59,4.51-19.55,16.91-19.46,23.51l2.43,143.47c.09,5.42,4.51,10.04,10.2,10.97.52.09,1.07.14,1.59.16l198.07,7.08c3.82.16,18.69-4.32,19.91-15.41.41-.91.61-1.96.59-2.98l-2.46-146.36ZM142.28,132.06c-.07-2.5.57-5.26,2.5-6.99,1.96-1.82,3.5-1.87,6.4-1.75l184.76,6.62c.52,0,1.02.07,1.52.16,5.26.86,9.38,5.1,9.47,10.08l1.41,13.72-206.15-7.37.09-14.47ZM348.77,287.98c-.46.41-1.05.61-1.73.59l-201.21-7.21c-1.41-.05-2.59-1.16-2.62-2.41l-.93-126.7,195.18,6.99.82,119.03c.02.82.68,1.52,1.55,1.68.09,0,.2.02.32.02,1,0,1.8-.77,1.8-1.68l-.82-118.92,7.33.25.93,126.9c.02.57-.2,1.05-.61,1.46Z"/>
      <path d="M325.83,182.6c-1.27,5.67-1.59,11.47-.98,17.3.09.82-.16,1.62-.68,2.25-.59.68-1.46,1.12-2.46,1.16h-.18c-.43,0-.86-.07-1.27-.2-1.37-.48-2.34-1.64-2.5-2.98-.14-1.3-.16-2.66-.21-3.96l-.02-.8-.07-3.1-1.96,2.41-36.71,45.77-.25.32v.39c-.02,1.02-.16,1.89-.46,2.75-.48,1.32-1.3,3.23-3.03,4.6-1.27,1-2.89,1.57-4.55,1.57-.8,0-1.57-.14-2.3-.39-.36-.11-.71-.27-1.05-.46-2.75-1.48-4.12-4.76-3.23-7.81.02-.11.07-.2.11-.3.05-.11.09-.2.14-.32l.27-.71-.57-.52-24.01-22.62-.52-.48-.66.23c-.8.3-1.64.46-2.5.46-.46,0-.89-.05-1.34-.11l-.68-.14-.41.57-27.22,35.73c-.61.8-1.64,1.3-2.73,1.3-.18,0-.34-.02-.52-.05-1.32-.18-2.46-1-2.98-2.14l-11.86-26.15-.36-.77-.82.11c-.27.02-.52.05-.8.05-.14,0-.3,0-.43-.02l-.52-.02-.36.39-19.39,20.62c-.64.68-1.55,1.05-2.55,1.05-.43,0-.86-.07-1.27-.2-.46-.16-.89-.39-1.25-.71-.75-.64-1.21-1.48-1.25-2.41-.05-.82.23-1.59.8-2.21l19.5-20.73.39-.43-.11-.57c-.25-1.37-.16-2.78.3-4.21.73-2.23,1.98-4.3,3.66-5.99.64-.64,1.52-.98,2.48-.98.23,0,.46.02.68.07l.23.02.2-.05c.5-.09,1-.16,1.5-.16,1.43,0,2.78.41,3.91,1.18,2.39,1.59,3.53,4.55,2.89,7.35-.27,1.14-.77,2.18-1.62,3.32l-.41.52.27.61,9.38,20.67.8,1.73,1.14-1.52,23.69-31.09.25-.34-.02-.46c-.07-.84,0-1.66.23-2.41.61-2.16,2.12-3.73,3.23-4.89.61-.66,1.55-1.02,2.53-1.02.16,0,.32,0,.46.02l.18.02.25.05.25-.09c.36-.11.75-.18,1.12-.23.27-.05.52-.05.77-.05,1.32,0,2.55.39,3.6,1.16,2.09,1.55,2.75,4.14,1.84,7.1l-.21.68.52.48,24.85,23.42.34.3h.84l.18.02.25.05.25-.09c.36-.11.73-.18,1.12-.23.25-.05.48-.05.71-.05.18,0,.36,0,.55.02l.59.05.36-.48,38.92-48.5,1.39-1.71-2.21-.14-5.05-.27c-2-.11-3.6-1.68-3.6-3.53.02-1.71,1.5-3.05,3.37-3.05h.2l15.16.84c1.09.05,2.09.55,2.8,1.39.66.8.91,1.8.71,2.73Z"/>
    </g>
  </g>
</svg>