<?xml version="1.0" encoding="UTF-8"?>
<svg id="Layer_1" data-name="Layer 1" xmlns="http://www.w3.org/2000/svg" viewBox="0 0 305 298.83">
  <defs>
    <style>
      .cls-1 {
        fill: #fff;
      }

      .cls-2 {
        fill: #dcdcdc;
      }
    </style>
  </defs>
  <path class="cls-2" d="M130.38,1.81c57.76-3.82,144.33,2.23,164.95,67.7,14.28,45.33,11.95,105.42-13.82,146.21-32.11,50.83-110.97,86.34-170.35,81.8-26.06-1.99-35.33-12.15-54.43-26.31-13.8-10.24-21.77-13.25-32.21-28.59C-2.24,203.3-5.44,121.56,10.95,77.74,29.3,28.69,80.72,5.1,130.38,1.81ZM74.78,279.59c-.21,2.49,2.94,3.72,4.68,4.78,44.69,27.2,133.54-6,170.22-37.7,40.4-34.91,53.31-78.39,50.4-131.08-4.17-75.52-42.64-103.87-115.17-110.08C111.2-.8,26.29,14.38,8.67,98.38.32,138.17,3.3,204.1,26.3,238.86c2.06,3.12,16.75,22.86,20.56,19.79C10.68,204.95.99,130.68,23.92,69.77c.66-1.76,4.92-15.47,7.99-12.44,1.02,1.01-8.18,23.48-9.23,27.14-15.43,53.88-7.47,117.75,22.77,165.13,9.38,14.69,13.53,20.5,30.54,26.27,79.11,26.82,189.52-18.15,204.79-105.73,6.18-35.44-.75-90.62-25.63-118.26-20.9-23.22-52.38-25.67-81.71-23.45v-2.98c48.6-5.84,86.03,9.39,102.94,57.03,20.02,56.4,12.19,120.38-33.69,161.2-44.93,39.98-110.37,52.27-167.92,35.91Z"/>
  <path d="M173.27,62.5c9.54,13.58,14.73,29.83,23.28,43.99,4.57,7.57,12.06,17.21,17.79,24.07,4.42,5.28,20.01,19.36,21.97,23.87,1.71,3.93.85,6.86-.35,10.76-2.13,6.91-6.78,17.3-12.99,20.9-19.77,11.48-45.74,23.4-66.79,32.87-9.51,4.28-24.03,11.61-33.54,14.33-1.12.32-2.15.77-3.34.34-2.84-.93-27.07-42.06-30.75-48.06-2.26-3.69-3.72-8.21-6-11.94-4.51-7.37-22.73-30.67-22.83-37.05-.09-5.39,3.24-11.95,2.07-17.77l10.97-7.17c-9.5-10.62,6.65-18.81,16.39-17.39,3.41.49,7.79,4.97,8.86,4.8.36-.06,6.02-3.54,6.22-3.85,1.65-2.58-3.77-9,4.72-13.18,9.6-4.72,13.12,2.85,16.91,2.03,1.98-.42,7.63-4.97,10.29-5.77-4.13-8.88,6.47-12.56,13.86-12.03,3.43.24,7.43,3.24,9.77,2.87,3.45-.54,10.05-8.65,13.5-6.64ZM153.52,100.19c18.45-7.19,5.9-37.48-12.96-26.89-1.46,1.99,7,6.42,8.51,7.92,4.86,4.81,6.59,12.53,4.45,18.98ZM123.62,113.14c14.44-5.95-4.1-38.54-14.89-22.56,6.88,7.62,16.9,9.75,14.89,22.56ZM94.71,124.11c13.31-1.22,1.15-25.48-6.43-25.78-2.98-.12-11.64,2.94-13.54,5.32-1.31,1.65-.43,1.81,1.09,2.95,6.56,4.91,19.29,4.82,18.88,17.5ZM214.31,139.05c-9.47-12.45-19.84-24.48-26.4-38.85-32.77,18.06-68.71,29.8-100.17,50.31,9.25,22.45,25.73,38.83,39.39,58.34l1.76.83c26.26-8.69,49.49-24.2,74.46-35.74l-10.89-25.3c.45-1.91,18.49-9.67,21.85-9.58ZM81.74,162.97c-.87-4.03,1.76-8.4.78-12.2-1.22-4.74-13.78-17.9-16.23-23.66-5.09,8.83,2.54,19.85,7.66,27.21.79,1.13,6.6,10.07,7.79,8.65ZM206.33,166.96l8.97-24.91c-2.64,1.65-16.3,5.39-16.8,7.58,1.21,4.09,2.92,8.16,4.68,12.03.69,1.51,1.65,4.76,3.15,5.3ZM232.26,157.98c-3.92-3.9-7.73-9.04-11.53-12.87-.82-.82-.87-1.44-2.42-1.06,1.2,3.9-9.02,23.85-7.97,24.91l21.92-10.97ZM104.48,189.75c.31-.43.4-.83.19-1.34-7.92-8.81-13.81-19.34-17.95-30.41-6.68,7.06-.81,15.35,3.51,21.92l-2.49-7.48c.22-1.03,1.35-.62,2.02-.02,1.38,1.23,5.84,10.68,7.53,13.4,2.52,4.04,5.39,7.86,8.38,11.55-2.9,1.01-5.62-4.02-7.14-5.82-.75-.88-1.95-3.24-1.81-.19,3.27,3.47,5.16,9.64,7.94,12.99,3.21,3.86,11.88,7.37,11.49,13.43l-4.99-4.97c-.14,4.74,5.67,9.43,7.97,13.94,1.04-.46,4.26-11.93,4.01-13.05-1.04-4.67-14.06-17.67-16.97-22.82-1.6.92.37,2.24.9,3.08,3.91,6.28,8.29,12.3,12.55,18.35-.96,1.59-2.22-.3-3-.99-5.46-4.78-9.11-14.35-13.91-19.99-.61-1.87,1.55-1.29,1.77-1.59ZM123.62,228.76c34.49-13.17,66.64-31.43,99-49,2.56-.85,8.28-13.99,7.63-14.79-34.14,18.05-67.18,39.54-104.03,51.72l-2.6,12.06Z"/>
  <path class="cls-1" d="M214.31,139.05c-3.37-.09-21.41,7.66-21.85,9.58l10.89,25.3c-24.98,11.54-48.2,27.05-74.46,35.74l-1.76-.83c-13.66-19.51-30.14-35.89-39.39-58.34,31.46-20.51,67.4-32.25,100.17-50.31,6.57,14.37,16.93,26.4,26.4,38.85ZM175.44,122.12c-2.11,0-4.25-.15-6.37.11-8.65,1.04-38.78,18.97-48.48,24.33-3.39,1.87-2.29,1.98.73,4.31,1.91.46,13.78-4.74,16.6-5.97,5.42-2.37,34.61-16.33,36.59-19.23.82-1.21,1.18-2.04.93-3.55ZM184.41,131.09c-18.16,2.05-36.52,14.48-51.14,25.1-1.85,1.34-11.01,7.55-10.65,9.27l3.03,1.08c16.54-11.72,41.7-18.92,56.69-32.04,1.14-1,2.46-1.53,2.07-3.4ZM187.4,150.03c-2.06-.19-4.01,0-6.03.44-12.1,2.59-36.8,18.89-46.72,27.04-.88.72-5.21,4.25-4.06,5.4l56.8-32.88ZM188.39,159.99c-9.32,2.12-17.75,6.58-25.83,11.54-6.49,3.99-19.14,12.44-24.38,17.48-2.54,2.44-2.07,5.33,1.02,4.04,1.73-.73,4.41-2.66,6.24-3.75,12.12-7.19,29.87-17.66,40.68-26.1,1.21-.95,2.7-1.15,2.26-3.21Z"/>
  <path class="cls-1" d="M123.62,228.76l2.6-12.06c36.85-12.19,69.9-33.67,104.03-51.72.65.8-5.07,13.93-7.63,14.79-32.36,17.57-64.51,35.83-99,49Z"/>
  <path class="cls-1" d="M94.71,124.11c.41-12.69-12.33-12.6-18.88-17.5-1.52-1.14-2.4-1.3-1.09-2.95,1.9-2.38,10.56-5.44,13.54-5.32,7.58.3,19.74,24.55,6.43,25.78Z"/>
  <path class="cls-1" d="M153.52,100.19c2.13-6.45.4-14.16-4.45-18.98-1.51-1.5-9.97-5.93-8.51-7.92,18.87-10.58,31.42,19.71,12.96,26.89Z"/>
  <path class="cls-1" d="M81.74,162.97c-1.19,1.42-7-7.52-7.79-8.65-5.12-7.36-12.74-18.38-7.66-27.21,2.44,5.76,15.01,18.92,16.23,23.66.97,3.8-1.65,8.16-.78,12.2Z"/>
  <path class="cls-1" d="M104.48,189.75c-.22.3-2.37-.28-1.77,1.59,4.8,5.65,8.45,15.21,13.91,19.99.78.69,2.04,2.58,3,.99-4.26-6.04-8.64-12.07-12.55-18.35-.53-.85-2.5-2.16-.9-3.08,2.9,5.15,15.92,18.15,16.97,22.82.25,1.12-2.97,12.59-4.01,13.05-2.3-4.51-8.11-9.21-7.97-13.94l4.99,4.97c.39-6.06-8.28-9.57-11.49-13.43-2.78-3.35-4.67-9.52-7.94-12.99-.14-3.05,1.06-.69,1.81.19,1.53,1.79,4.24,6.83,7.14,5.82-3-3.69-5.87-7.51-8.38-11.55-1.7-2.72-6.15-12.17-7.53-13.4-.67-.6-1.79-1-2.02.02l2.49,7.48c-4.32-6.57-10.19-14.86-3.51-21.92,4.14,11.07,10.03,21.6,17.95,30.41.21.51.12.91-.19,1.34Z"/>
  <path class="cls-1" d="M232.26,157.98l-21.92,10.97c-1.04-1.06,9.18-21.01,7.97-24.91,1.55-.37,1.6.24,2.42,1.06,3.8,3.82,7.61,8.97,11.53,12.87Z"/>
  <path class="cls-1" d="M123.62,113.14c2.01-12.8-8.01-14.94-14.89-22.56,10.79-15.98,29.33,16.61,14.89,22.56Z"/>
  <path class="cls-1" d="M206.33,166.96c-1.5-.54-2.46-3.8-3.15-5.3-1.76-3.87-3.47-7.94-4.68-12.03.51-2.19,14.17-5.93,16.8-7.58l-8.97,24.91Z"/>
  <path d="M184.41,131.09c.39,1.87-.93,2.41-2.07,3.4-14.99,13.12-40.15,20.32-56.69,32.04l-3.03-1.08c-.36-1.72,8.79-7.93,10.65-9.27,14.62-10.61,32.99-23.05,51.14-25.1Z"/>
  <path d="M175.44,122.12c.25,1.5-.11,2.34-.93,3.55-1.98,2.9-31.17,16.86-36.59,19.23-2.82,1.23-14.69,6.43-16.6,5.97-3.02-2.33-4.12-2.43-.73-4.31,9.7-5.36,39.83-23.29,48.48-24.33,2.12-.25,4.25-.11,6.37-.11Z"/>
  <path d="M188.39,159.99c.44,2.06-1.05,2.26-2.26,3.21-10.81,8.44-28.56,18.91-40.68,26.1-1.83,1.09-4.51,3.02-6.24,3.75-3.09,1.3-3.56-1.6-1.02-4.04,5.24-5.04,17.89-13.5,24.38-17.48,8.08-4.96,16.51-9.42,25.83-11.54Z"/>
  <path d="M187.4,150.03l-56.8,32.88c-1.14-1.15,3.18-4.67,4.06-5.4,9.92-8.15,34.61-24.45,46.72-27.04,2.02-.43,3.97-.63,6.03-.44Z"/>
</svg>