<?xml version="1.0" encoding="UTF-8"?>
<svg id="Layer_1" data-name="Layer 1" xmlns="http://www.w3.org/2000/svg" viewBox="0 0 362 382.76">
  <defs>
    <style>
      .cls-1 {
        fill: #fff;
      }

      .cls-2 {
        fill: #e8e8e8;
      }

      .cls-3 {
        fill: none;
        stroke: #000;
        stroke-miterlimit: 10;
        stroke-width: 3px;
      }
    </style>
  </defs>
  <g>
    <path class="cls-2" d="M88.3,73.54c-31.05,13.61-58.31,36.98-73.66,67.21-18.1,35.64-18.41,79.26-3.15,116.2,15.26,36.95,45.31,67.05,81.14,84.78,35.83,17.73,77.08,23.41,116.77,18.71,37.01-4.39,73.54-18.03,101.49-42.68s44.45-61.09,43.64-98.35c-.44-20.12-4.31-39.72-13.21-57.77-16.12-32.69-42.68-59.8-74.28-77.77-15.92-9.05-33.17-15.81-51.05-19.8-17.8-3.97-35.74-7.2-54-6.54-25.25.9-50.49,5.85-73.68,16.02Z"/>
    <path class="cls-3" d="M31.26,177.53c-10.07,17.04-16.34,35.45-18.31,55.14-2.72,27.25,6.66,53.05,22.76,75.2,30.21,41.56,78.82,69.14,130.1,72.47,51.28,3.32,103.25-15.69,141.65-49.83,25.23-22.43,47.86-56.06,51.81-89.59,4.43-37.6-12.53-71.46-30.42-104.83-14.62-27.26-32.02-55.84-56.11-77.57-11.21-10.11-34.66-21.67-54.72-21.39-9.68.13-19.4,1.78-28.89,3.31-6.59,1.06-12.34,3.26-18.52,5.93-36.82,15.9-70.56,43.82-97.31,73.17-15.83,17.37-30.09,37.76-42.05,57.99Z"/>
  </g>
  <g>
    <path class="cls-1" d="M350.37,154.3c-9.47,66.81-73.21,114.81-80.75,120.28-.15.07-.18.18-.26.26-8.17,7.21-13.75,11.13-14.01,11.31-.78.55-1.74.85-2.7.85h-.52c-.96-.15-96.91-11.43-134.26-103.72-11.65-28.88-17.9-55.06-18.93-80.09-.37-8.76-1.81-27.92-1.81-28.1-.11-1.55.52-3.03,1.7-4.03l13.57-11.06c.11-.07.22-.11.33-.18.26-.18.55-.3.85-.48.3-.11.59-.22.89-.26.11-.04.22-.11.33-.11.78-.07,72.47-8.95,101.94-56.2.74-1.26,2.07-2.07,3.55-2.22,1.52-.11,2.92.44,3.92,1.55,25.33,27.88,77.61,28.51,114.74,20.56,2.37-.48,4.81.92,5.51,3.25,10.98,36.75,12.94,78.76,5.92,128.38Z"/>
    <path d="M321.23,50.99c-.7-2.4-3.11-3.81-5.51-3.29-28.51,6.1-68.63,5.66-87.97-15.6-.96-1.11-2.4-1.63-3.92-1.55-1.48.15-2.81.96-3.55,2.22-22.52,36.2-77.69,43-78.24,43.08-2.51.26-4.36,2.51-4.14,5.03,0,.15,1.07,15.01,1.37,21.78.85,19.52,5.69,39.93,14.79,62.41,29.14,72.14,104.2,81.01,104.94,81.09.18.04.37.04.52.04.96,0,1.92-.3,2.74-.89,2.29-1.63,55.91-39.97,63.56-94.36,5.51-38.64,3.99-71.33-4.58-99.95ZM316.5,149.61c-6.43,45.52-49.66,80.38-58.24,86.89-11.06-1.77-70.88-14.12-95.47-74.95-8.65-21.48-13.27-40.89-14.05-59.31-.22-4.62-.78-12.68-1.15-17.71,13.76-2.29,55.13-11.68,77.39-41.93,21.96,19.19,59.72,20.48,88.37,15.23,7.1,26.29,8.13,56.42,3.14,91.77ZM321.23,50.99c-.7-2.4-3.11-3.81-5.51-3.29-28.51,6.1-68.63,5.66-87.97-15.6-.96-1.11-2.4-1.63-3.92-1.55-1.48.15-2.81.96-3.55,2.22-22.52,36.2-77.69,43-78.24,43.08-2.51.26-4.36,2.51-4.14,5.03,0,.15,1.07,15.01,1.37,21.78.85,19.52,5.69,39.93,14.79,62.41,29.14,72.14,104.2,81.01,104.94,81.09.18.04.37.04.52.04.96,0,1.92-.3,2.74-.89,2.29-1.63,55.91-39.97,63.56-94.36,5.51-38.64,3.99-71.33-4.58-99.95ZM316.5,149.61c-6.43,45.52-49.66,80.38-58.24,86.89-11.06-1.77-70.88-14.12-95.47-74.95-8.65-21.48-13.27-40.89-14.05-59.31-.22-4.62-.78-12.68-1.15-17.71,13.76-2.29,55.13-11.68,77.39-41.93,21.96,19.19,59.72,20.48,88.37,15.23,7.1,26.29,8.13,56.42,3.14,91.77ZM321.23,50.99c-.7-2.4-3.11-3.81-5.51-3.29-28.51,6.1-68.63,5.66-87.97-15.6-.96-1.11-2.4-1.63-3.92-1.55-1.48.15-2.81.96-3.55,2.22-22.52,36.2-77.69,43-78.24,43.08-2.51.26-4.36,2.51-4.14,5.03,0,.15,1.07,15.01,1.37,21.78.85,19.52,5.69,39.93,14.79,62.41,29.14,72.14,104.2,81.01,104.94,81.09.18.04.37.04.52.04.96,0,1.92-.3,2.74-.89,2.29-1.63,55.91-39.97,63.56-94.36,5.51-38.64,3.99-71.33-4.58-99.95ZM316.5,149.61c-6.43,45.52-49.66,80.38-58.24,86.89-11.06-1.77-70.88-14.12-95.47-74.95-8.65-21.48-13.27-40.89-14.05-59.31-.22-4.62-.78-12.68-1.15-17.71,13.76-2.29,55.13-11.68,77.39-41.93,21.96,19.19,59.72,20.48,88.37,15.23,7.1,26.29,8.13,56.42,3.14,91.77Z"/>
    <path d="M344.45,25.92c-.7-2.33-3.14-3.73-5.51-3.25-37.12,7.95-89.41,7.32-114.74-20.56-1-1.11-2.4-1.66-3.92-1.55-1.48.15-2.81.96-3.55,2.22-29.47,47.25-101.17,56.13-101.94,56.2-.11,0-.22.07-.33.11-.3.04-.59.15-.89.26-.3.18-.59.3-.85.48-.11.07-.22.11-.33.18l-13.57,11.06c-1.18,1-1.81,2.48-1.7,4.03,0,.18,1.44,19.34,1.81,28.1,1.04,25.03,7.28,51.21,18.93,80.09,37.35,92.29,133.3,103.57,134.26,103.72h.52c.96,0,1.92-.3,2.7-.85.26-.18,5.84-4.1,14.01-11.31.07-.07.11-.18.26-.26,7.54-5.47,71.29-53.47,80.75-120.28,7.03-49.62,5.07-91.63-5.92-128.38ZM341.01,152.97c-8.5,60.05-66.11,105.79-76.1,113.29-12.87-1.96-92.25-17.27-124.76-97.62-11.28-27.84-17.23-53.02-18.27-76.95-.26-6.32-1.04-17.71-1.52-24,16.34-2.63,72.18-14.42,101.05-55.02,28.06,25.7,77.91,27.21,115.18,20.11,9.5,34.42,10.94,73.8,4.4,120.17Z"/>
    <path d="M281.96,123.83l-12.24,16.94,6.99,19.66c.66,1.9.19,3.98-1.18,5.41-1.41,1.44-3.49,1.93-5.36,1.33l-19.91-6.43-16.55,12.74c-.86.66-1.93,1.04-2.98,1.08-.88.03-1.72-.15-2.49-.54-1.79-.9-2.95-2.7-2.94-4.71l-.03-20.88-17.22-11.81c-1.64-1.11-2.51-3.09-2.25-5.07.3-1.98,1.67-3.59,3.57-4.24l19.85-6.45,5.92-20.02c.56-1.95,2.18-3.35,4.14-3.72,1.96-.28,3.96.48,5.11,2.11l12.33,16.86,20.86-.57c1.97-.03,3.86,1.03,4.76,2.8.95,1.77.78,3.91-.38,5.51Z"/>
  </g>
</svg>