<?xml version="1.0" encoding="UTF-8"?>
<svg id="Layer_1" xmlns="http://www.w3.org/2000/svg" version="1.1" viewBox="0 0 321 296.07">
  <!-- Generator: Adobe Illustrator 30.0.0, SVG Export Plug-In . SVG Version: 2.1.1 Build 123)  -->
  <defs>
    <style>
      .st0 {
        isolation: isolate;
      }

      .st1 {
        fill: #fff;
      }

      .st2 {
        fill: #f2c316;
      }
    </style>
  </defs>
  <path class="st2" d="M216.03,56.74c33.19,2.23,85.72-3.05,100.73,34.81,16.5,41.63-27.38,88.42-43.07,124.27-11.3,25.83-9.23,56.21-38.49,70.1-43.52,20.65-154.53,5.32-195.41-20.26-76.56-47.92-26.8-131.95,28.91-171.95,40.19-28.86,84.14-35.41,132.47-37.02"/>
  <g>
    <path class="st1" d="M75.15,83.66c.53-1.77,2.41-2.75,4.14-2.19,4.54,1.41,9.27,2.07,14.04,2.03,1.85-.05,3.33,1.44,3.35,3.28.03,1.84-1.44,3.35-3.27,3.36-1.49,0-2.99-.03-4.46-.13-3.92-.29-7.81-1.03-11.6-2.19-1.75-.54-2.72-2.41-2.18-4.17h-.02Z"/>
    <path class="st1" d="M95.4,110.93c1.75-.03,3.19,1.3,3.35,3.03.15,1.73-1.05,3.28-2.75,3.59l-13.55,2.31c-.28.04-.54.05-.81.04-1.48-.11-2.76-1.21-3.02-2.76-.32-1.81.9-3.53,2.7-3.84l11.78-2.01c.44-.23.92-.34,1.44-.35h.86Z"/>
    <path class="st1" d="M83.73,57.95c-.05-1.83,1.39-3.36,3.23-3.41,5.34-.16,10.68,1.03,15.45,3.37,1.65.8,2.31,2.8,1.5,4.45-.61,1.26-1.91,1.95-3.21,1.85-.41-.03-.82-.15-1.22-.33-3.81-1.87-8.08-2.82-12.34-2.7-1.79.05-3.36-1.39-3.4-3.23h0Z"/>
    <path class="st1" d="M97.56,30.81c.85-1.63,2.86-2.27,4.46-1.42l12.79,6.67c1.62.85,2.26,2.84,1.41,4.48-.63,1.22-1.9,1.87-3.2,1.79-.42-.05-.88-.16-1.27-.37l-12.79-6.67c-1.62-.85-2.26-2.84-1.41-4.48h0Z"/>
    <path class="st1" d="M121.44,14.14c-1.18-1.41-1.02-3.51.37-4.7,1.41-1.17,3.5-1.02,4.68.37l9.12,10.77c1.18,1.41,1.02,3.49-.37,4.69-.69.6-1.57.85-2.4.77-.86-.06-1.69-.45-2.29-1.17l-9.11-10.74h0Z"/>
    <path class="st1" d="M151.77,4.68c-.44-1.78.64-3.59,2.42-4.04,1.78-.44,3.59.65,4.02,2.42l2.1,8.46c.32,1.29.69,2.74,1.37,3.43,1.3,1.3,1.3,3.39,0,4.7-.7.72-1.66,1.04-2.59.98-.76-.06-1.51-.39-2.1-.97-1.99-1.99-2.66-4.62-3.11-6.52l-2.11-8.46h0Z"/>
    <path class="st1" d="M196.49,18.02l1.49-12.99c.21-1.84,1.86-3.16,3.67-2.95,1.82.21,3.14,1.86,2.92,3.69l-1.48,13c-.21,1.78-1.78,3.08-3.53,2.95h-.15c-1.82-.21-3.12-1.86-2.92-3.69h0Z"/>
    <path class="st1" d="M230.22,31.22l8.7-13.07c1.01-1.54,3.07-1.95,4.59-.93s1.94,3.1.93,4.61l-8.7,13.09c-.69,1.02-1.86,1.55-3.02,1.46-.54-.04-1.1-.21-1.58-.54-1.53-1.03-1.94-3.09-.92-4.62h0Z"/>
    <path class="st1" d="M237.32,150.87c-14.62,18.66-36.83,31.69-62.74,30.39-10.76-.53-16.75-1.41-25.49-6.18-7.65,11.57-13.84,21.54-21.34,32.93l-2.72,4.59c-4.09,6.23-7.08,11.17-11.19,17.37-.65,1-2.47,3.91-3.14,5.03-2.1,3.5-5.05,9.76-8.34,11.95-.34.23-1.62,1.21-4.57,1.17-.58,0-1.18,0-1.77.03-2.19.09-2.9-.16-4.19-.39-6.14-1.1-12.23-8.99-16.99-14.48-3.81-4.4-6.31-10.03-7.93-16-.28-.96-.29-1.81.32-2.63.05-.07.35-.36.4-.42,9.07-11.85,17.13-23.86,26.19-35.71,8.65-11.32,17.29-22.61,25.94-33.91-1.17-2.05-2.34-4.17-3.53-6.44-1.18-2.05-2.24-4.09-3.14-6.1l-.23-.45c-.29-.61-.62-1.2-.92-1.82-.21-.39-.3-.8-.3-1.27-4.87-12.8-5.85-27.35-2.75-40.97,7.23-31.77,34.61-55.24,66.58-57.11h.05c10.77-.16,21.41,2.39,30.81,7.39.49,0,.97.08,1.37.37,18.71,13.43,31.5,26.82,41.07,45.19,12.13,23.26,1.12,51.43-11.43,67.46h-.02Z"/>
    <path class="st1" d="M260.33,155.59c1.3,1.32,1.29,3.41-.03,4.71-.7.7-1.66,1.02-2.58.94-.77-.05-1.53-.37-2.12-.97l-10.8-10.98c-1.29-1.3-1.27-3.4.04-4.7s3.39-1.3,4.69.03l10.8,10.97h0Z"/>
    <path class="st1" d="M251.99,55.34c-1.02-1.54-.6-3.6.92-4.61l11.94-7.96c1.53-1.02,3.59-.6,4.6.93s.6,3.6-.93,4.6l-11.93,7.96c-.63.44-1.37.61-2.08.56-.98-.07-1.93-.6-2.52-1.48h0Z"/>
    <path class="st1" d="M261.77,115.68c1.13-1.45,3.2-1.72,4.66-.61,3.1,2.4,6.79,4.09,10.64,4.86,1.81.36,2.96,2.11,2.62,3.91-.35,1.67-1.85,2.8-3.5,2.67-.15,0-.28-.03-.4-.05-4.87-.97-9.51-3.09-13.42-6.11-1.44-1.12-1.71-3.21-.6-4.66h0Z"/>
    <path class="st1" d="M266.29,89.47l13.64.24c1.82.07,3.28,1.53,3.24,3.36-.03,1.84-1.54,3.31-3.36,3.27l-13.64-.24h-.18c-1.74-.13-3.1-1.6-3.08-3.36.04-1.84,1.54-3.31,3.37-3.27h0Z"/>
    <path class="st1" d="M285.92,226.19c-.09,1.2-.89,2.23-1.99,2.68l-11.78,4.57-2.91,12.3c-.28,1.17-1.2,2.08-2.38,2.36-1.17.27-2.41-.15-3.16-1.09l-8-9.79-12.59,1.04c-.66.05-1.32-.11-1.87-.44-.45-.27-.82-.64-1.1-1.1-.62-1.03-.61-2.32.05-3.35l6.84-10.62-4.88-11.66c-.46-1.12-.25-2.39.53-3.31.8-.9,2.03-1.29,3.2-.98l12.22,3.23,9.58-8.23c.92-.78,2.2-1,3.31-.52,1.12.49,1.86,1.54,1.93,2.74l.72,12.62,10.8,6.56c1.03.63,1.61,1.78,1.5,2.99h-.02Z"/>
    <g>
      <path d="M98.74,113.96c.15,1.73-1.05,3.28-2.75,3.59l-13.55,2.31c-.28.04-.54.05-.81.04-1.48-.11-2.76-1.21-3.02-2.76-.32-1.81.9-3.53,2.7-3.84l11.78-2.01c.44-.23.92-.34,1.44-.35h.86c1.75-.03,3.19,1.3,3.35,3.03h0Z"/>
      <path d="M96.67,86.78c.03,1.84-1.44,3.35-3.27,3.36-1.49,0-2.99-.03-4.46-.13-3.92-.29-7.81-1.03-11.6-2.19-1.75-.54-2.72-2.41-2.18-4.17.53-1.77,2.41-2.75,4.14-2.19,4.54,1.41,9.27,2.07,14.04,2.03,1.85-.05,3.33,1.44,3.35,3.28h-.02Z"/>
      <path d="M103.91,62.35c-.61,1.26-1.91,1.95-3.21,1.85-.41-.03-.82-.15-1.22-.33-3.81-1.87-8.08-2.82-12.34-2.7-1.79.05-3.36-1.39-3.4-3.23-.05-1.83,1.39-3.36,3.23-3.41,5.34-.16,10.68,1.03,15.45,3.37,1.65.8,2.31,2.8,1.5,4.45h0Z"/>
      <path d="M116.22,40.55c-.63,1.22-1.9,1.87-3.2,1.79-.42-.05-.88-.16-1.27-.37l-12.79-6.67c-1.62-.85-2.26-2.84-1.41-4.48s2.86-2.27,4.46-1.42l12.79,6.67c1.62.85,2.26,2.84,1.41,4.48h0Z"/>
      <path d="M135.23,25.27c-.69.6-1.57.85-2.4.77-.86-.06-1.69-.45-2.29-1.17l-9.11-10.74c-1.18-1.41-1.02-3.51.37-4.7,1.41-1.17,3.5-1.02,4.68.37l9.12,10.77c1.18,1.41,1.02,3.49-.37,4.69h0Z"/>
      <path d="M161.68,19.67c-.7.72-1.66,1.04-2.59.98-.76-.06-1.51-.39-2.1-.97-1.99-1.99-2.66-4.62-3.11-6.52l-2.11-8.46c-.44-1.78.64-3.59,2.42-4.04,1.78-.44,3.59.65,4.02,2.42l2.1,8.46c.32,1.29.69,2.74,1.37,3.43,1.3,1.3,1.3,3.39,0,4.7h0Z"/>
      <path d="M204.57,5.77l-1.48,13c-.21,1.78-1.78,3.08-3.53,2.95h-.15c-1.82-.21-3.12-1.86-2.92-3.69l1.49-12.99c.21-1.84,1.86-3.16,3.67-2.95,1.82.21,3.14,1.86,2.92,3.69h0Z"/>
      <path d="M244.43,21.84l-8.7,13.09c-.69,1.02-1.86,1.55-3.02,1.46-.54-.04-1.1-.21-1.58-.54-1.53-1.03-1.94-3.09-.92-4.62l8.7-13.07c1.01-1.54,3.07-1.95,4.59-.93s1.94,3.1.93,4.61h0Z"/>
      <path d="M268.52,48.3l-11.93,7.96c-.63.44-1.37.61-2.08.56-.98-.07-1.93-.6-2.52-1.48-1.02-1.54-.6-3.6.92-4.61l11.94-7.96c1.53-1.02,3.59-.6,4.6.93s.6,3.6-.93,4.6h0Z"/>
      <path d="M283.17,93.08c-.03,1.84-1.54,3.31-3.36,3.27l-13.64-.24h-.18c-1.74-.13-3.1-1.6-3.08-3.36.04-1.84,1.54-3.31,3.37-3.27l13.64.24c1.82.07,3.28,1.53,3.24,3.36h0Z"/>
      <path d="M279.68,123.85c-.35,1.67-1.85,2.8-3.5,2.67-.15,0-.28-.03-.4-.05-4.87-.97-9.51-3.09-13.42-6.11-1.44-1.12-1.71-3.21-.6-4.66,1.13-1.45,3.2-1.72,4.66-.61,3.1,2.4,6.79,4.09,10.64,4.86,1.81.36,2.96,2.11,2.62,3.91h0Z"/>
      <path d="M260.3,160.3c-.7.7-1.66,1.02-2.58.94-.77-.05-1.53-.37-2.12-.97l-10.8-10.98c-1.29-1.3-1.27-3.4.04-4.7s3.39-1.3,4.69.03l10.8,10.97c1.3,1.32,1.29,3.41-.03,4.71h0Z"/>
    </g>
    <path d="M284.42,223.19l-10.8-6.56-.72-12.62c-.06-1.2-.81-2.24-1.93-2.74-1.1-.48-2.39-.27-3.31.52l-9.58,8.23-12.22-3.23c-1.17-.3-2.4.07-3.2.98-.78.92-1,2.19-.53,3.31l4.88,11.66-6.84,10.62c-.65,1.02-.66,2.31-.05,3.35.28.46.65.84,1.1,1.1.56.33,1.21.48,1.87.44l12.59-1.04,8,9.79c.76.94,1.99,1.36,3.16,1.09,1.17-.28,2.1-1.18,2.38-2.36l2.91-12.3,11.78-4.57c1.12-.45,1.9-1.48,1.99-2.68.11-1.21-.48-2.36-1.5-2.99h.02ZM268.28,228.12c-.97.39-1.7,1.21-1.94,2.23l-1.81,7.66-4.99-6.1c-.65-.81-1.67-1.25-2.71-1.17l-7.85.65,4.26-6.64c.56-.88.65-1.98.25-2.93l-3.04-7.27,7.62,1.99c1.01.27,2.08.03,2.87-.65l5.98-5.14.44,7.86c.06,1.04.63,1.99,1.53,2.54l6.73,4.09-7.35,2.84h0v.04Z"/>
    <g class="st0">
      <path d="M248.76,83.41c-9.56-18.37-22.35-31.76-41.07-45.19-.4-.29-.88-.37-1.37-.37-9.4-5.01-20.04-7.54-30.81-7.39h-.05c-31.97,1.87-59.36,25.34-66.58,57.11-3.1,13.63-2.12,28.17,2.75,40.97,0,.48.09.89.3,1.27.3.62.63,1.21.92,1.82l.23.45c.89,1.99,1.95,4.05,3.14,6.1,1.2,2.27,2.36,4.4,3.53,6.44-8.65,11.3-17.29,22.59-25.94,33.91-9.06,11.86-17.12,23.87-26.19,35.71-.05.06-.35.35-.4.42-.61.82-.6,1.67-.32,2.63,1.62,5.97,4.12,11.6,7.93,16,4.76,5.49,10.85,13.37,16.99,14.48,1.3.23,1.99.48,4.19.39.58-.04,1.18-.03,1.77-.03,2.95.05,4.22-.93,4.57-1.17,3.29-2.19,6.25-8.45,8.34-11.95.66-1.13,2.48-4.05,3.14-5.03,4.1-6.22,7.09-11.16,11.19-17.37l2.72-4.59c7.49-11.38,13.68-21.36,21.34-32.93,8.74,4.77,14.74,5.64,25.49,6.18,25.91,1.3,48.13-11.73,62.74-30.39,12.55-16.02,23.55-44.2,11.43-67.46h.02ZM94.22,236.87c-1.09.32-2.02.27-3.07.13-8.86-1.15-16.28-11.08-19.13-20.66,1.93-2.55,3.57-5.29,5.51-7.84l2.84-4c2.66,7.29,7.44,13.57,14.13,17.17l3.64,1.75c1.08.41,4.09,1.34,5.25,1.65-2.03,3.65-6.16,9.63-9.19,11.78h0v.02h.02ZM125.81,187.49c-3.07,4.64-5.73,9.43-8.78,14.08-3.76,5.71-6.79,11.69-10.52,17.37-.32.48-.64.97-.97,1.54-1.09-.24-3.27-.97-4.3-1.33h-.04c-.25-.11-.51-.2-.76-.29l.03-.04-1.85-.78s.05.06.07.09c-.35-.16-.7-.33-1.03-.52h0c-6.76-3.45-12.23-9.82-14.01-17.81l12.31-16.05,13.79-19.11c1.87,5.98,6.66,11.71,12.3,14.33.29.13.61.27.89.4l.37.17c.81.34,2.1.82,3.71,1.15l1.3.15h1.02c.4.05,1.01-.04,1.39,0l-4.91,6.65h0ZM135.68,172.52c-.8,1.24-1.61,2.47-2.42,3.69h-.04c-.3.03-.6.03-.89.05-9.1.23-17.74-5.7-18.88-14.84-.05-.24-.15-.7-.24-.9l3.57-4.64c1.77-2.3,3.52-5.74,5.29-8.04,2.84,4.33,4.46,6.68,7.63,9.81.62.73,4.45,3.76,5.17,4.41l6.08,3.91c-1.21,1.83-4.08,4.74-5.27,6.55h0ZM200.98,153.17c-9.22,5.75-19.8,8.94-30.6,9.22-14.66.41-28.49-4.6-38.96-14.11-3.16-2.9-7.12-5.63-9.52-8.99l-7.13-13.93c-6.95-18.28-5.18-40.05,6.68-58.49,12.14-18.81,33.6-31.61,54.15-32.82,29.13-.45,53.19,22.33,57.39,51.27,3.81,26.28-9.06,53.54-32.01,67.86h0Z"/>
      <path d="M216.31,77.44c-6.73-18.73-20.96-29.01-41.19-28.87h-.05c-23.64,1.57-43.78,18.91-48.94,42.21-4.73,21.14,3.37,41.29,20.61,51.65,7.13,4.3,15.89,5.62,24.5,5.39,11.01-.29,20.49-4.73,29.26-11.86,8.84-7.18,14.16-15.39,16.96-26.66,2.63-10.51,2.41-21.94-1.17-31.86h.02ZM216.15,100.02c-.98,11.19-6.02,21.92-14.21,30.24-8.35,8.47-19.06,13.37-30.15,13.79l-.44.03c-10.52.28-19.47-1.93-27.03-9.26-.51-.48-1.83-2.05-2.13-2.4-6.79-8.2-10.43-30.69-3.86-45.13,10.56-23.22,21.68-29.56,32.46-34.53,13.15-2.96,28.33,5.83,34.63,13.71,7.24,9.1,11.83,21.44,10.76,33.57v-.02h-.03Z"/>
    </g>
  </g>
</svg>