<?xml version="1.0" encoding="UTF-8"?>
<svg id="Layer_1" xmlns="http://www.w3.org/2000/svg" version="1.1" viewBox="0 0 314.38 312">
  <!-- Generator: Adobe Illustrator 30.0.0, SVG Export Plug-In . SVG Version: 2.1.1 Build 123)  -->
  <defs>
    <style>
      .st0 {
        fill: #fff;
      }

      .st1 {
        fill: #f2c316;
      }
    </style>
  </defs>
  <path class="st1" d="M0,110.65v-24.92c4.23-13.06,8.51-25.19,17.43-35.9C51.53,8.89,117.51-9.31,167.4,10.49c61.67,24.48,127.59,133.94,122.65,199.37-3.31,43.83-57.8,65.96-93.54,79.88-31.72,12.36-110.98,41.4-127.2-4.7-10.76-30.6,23.06-58.79,7.17-95.88-14.98-34.95-52.85-28.3-68.88-59.69L0,110.65Z"/>
  <g>
    <path class="st0" d="M228.63,125.08c-1.31,18.32-13.66,32.53-27.29,46.68l-67.3,69.78c-.92.96-2.16,1.46-3.43,1.46-.64,0-1.3-.13-1.9-.39-3.33-1.46-20.1-9.11-24.18-17.81,0-.02,0-.03-.02-.04v-.06c-19.52-41.1-41.64-87.67-44.65-136.89-1.24-20.47,3.04-34.61,13.11-43.21,13.36-11.4,32.91-8.74,45.31-.23,10.33,7.1,13.78,22.76,16.83,36.58.29,1.33.58,2.64.87,3.91,10.51-8.58,32.01-23.48,46.99-16.33,1.62.76,3.16,1.67,4.66,2.64.41,0,.82-.04,1.22.06l-.02.02c27.6,7.33,41.05,36.47,39.82,53.82h-.02Z"/>
    <path class="st0" d="M314.36,82.13c-.09,1.22-.9,2.3-2.05,2.76l-12.16,4.75-2.97,12.72h0c-.29,1.22-1.23,2.16-2.44,2.45-1.22.28-2.49-.13-3.27-1.1l-8.29-10.1-13.01,1.11c-.7.06-1.36-.11-1.95-.44-.45-.28-.85-.67-1.14-1.14-.64-1.07-.63-2.4.05-3.46l7.03-10.99-5.08-12.04c-.47-1.14-.27-2.47.55-3.41.83-.94,2.1-1.34,3.3-1.03l12.63,3.29,9.87-8.54c.95-.81,2.27-1.03,3.41-.54,1.15.52,1.94,1.59,2,2.82l.78,13.04,11.17,6.76c1.07.65,1.67,1.82,1.56,3.08h.01Z"/>
    <path d="M188.81,71.26l.02-.02c-.41-.1-.82-.06-1.22-.06-1.49-.97-3.03-1.88-4.66-2.64-14.98-7.14-36.48,7.75-46.99,16.33-.29-1.27-.58-2.58-.87-3.91-3.05-13.82-6.5-29.48-16.83-36.58-12.4-8.51-31.95-11.17-45.31.23-10.07,8.6-14.35,22.74-13.11,43.21,3.01,49.22,25.13,95.79,44.65,136.89v.06s.02.02.02.04c4.08,8.69,20.85,16.35,24.18,17.81.6.26,1.26.39,1.9.39,1.27,0,2.51-.5,3.43-1.46l67.3-69.78c13.63-14.15,25.98-28.37,27.29-46.68,1.23-17.35-12.22-46.49-39.82-53.82h.02ZM197.34,108.87c-1.09,15.13-12.29,27.91-24.66,40.74l-62.51,64.83c-18.37-38.79-38.07-82.24-40.81-127.21-1.06-17.28,2.14-28.85,9.78-35.38,9.61-8.2,24.54-5.93,33.73.37,7.23,4.97,10.37,19.27,12.92,30.78.96,4.29,1.85,8.35,2.9,11.88.47,1.59,1.74,2.81,3.32,3.24,1.6.44,3.29,0,4.49-1.12,11.68-10.95,27.56-20.8,37.65-20.8,1.76,0,3.35.3,4.71.96,11.63,5.54,19.4,18.87,18.48,31.73v-.02Z"/>
    <path d="M312.8,79.05l-11.17-6.76-.78-13.04c-.06-1.23-.84-2.3-2-2.82-1.13-.49-2.46-.27-3.41.54l-9.87,8.54-12.63-3.29c-1.21-.31-2.48.09-3.3,1.03-.82.95-1.02,2.27-.55,3.41l5.08,12.04-7.03,10.99c-.68,1.06-.69,2.39-.05,3.46.29.47.69.86,1.14,1.14.58.32,1.25.5,1.95.44l13.01-1.11,8.29,10.1c.78.97,2.05,1.38,3.27,1.1,1.21-.29,2.15-1.22,2.44-2.44h0l2.97-12.73,12.16-4.75c1.15-.45,1.96-1.53,2.05-2.76.11-1.26-.49-2.43-1.56-3.08h-.01ZM296.17,84.17c-1,.39-1.74,1.24-1.99,2.3l-1.84,7.92-5.17-6.28h-.02c-.69-.84-1.74-1.28-2.8-1.2l-8.1.7,4.39-6.86c.57-.9.67-2.04.25-3.03l-3.15-7.5,7.87,2.05c1.04.27,2.15.02,2.96-.69l6.17-5.32.47,8.11c.06,1.08.65,2.05,1.59,2.62l6.96,4.2-7.58,2.96v.02h-.01Z"/>
  </g>
</svg>