<?xml version="1.0" encoding="UTF-8"?>
<svg id="Layer_1" data-name="Layer 1" xmlns="http://www.w3.org/2000/svg" viewBox="0 0 358 337.31">
  <defs>
    <style>
      .cls-1 {
        isolation: isolate;
      }

      .cls-2 {
        fill: #fff;
      }

      .cls-3 {
        stroke-linecap: round;
        stroke-width: 8px;
      }

      .cls-3, .cls-4 {
        fill: none;
        stroke: #000;
        stroke-miterlimit: 10;
      }

      .cls-5 {
        fill: #e8e8e8;
      }

      .cls-4 {
        stroke-width: 3px;
      }
    </style>
  </defs>
  <path class="cls-5" d="M111.23,123.17c-19.11,8.54-41.84,2.14-61.9,8.11-11.35,3.38-21.33,10.68-28.81,19.86s-13.79,20.17-16.88,31.6c-3.3,12.15-3.56,26.05-1.51,38.47,3.05,18.48,7.85,25.57,14.26,37.61,4.95,9.29,19.12,26.13,22.98,29.96,13.63,13.53,28.8,27.11,46.4,34.82,38.23,16.76,68.16,16.71,110.63,2.8,20.64-6.76,41.27-17.92,59.11-30.31,27.69-19.22,54.69-40.96,75.97-67.1,11.72-14.4,21-31.18,24.39-49.43,3.38-18.26.23-38.04-9.94-53.58-32.94-50.34-76.01-97.79-131.33-121.43-10.4-4.44-22.41-5-33.17-1.54s-20.2,10.91-26.06,20.58c-9.45,15.59-5.28,35.75-9.23,53.55-4.26,19.17-16.97,38-34.9,46.02Z"/>
  <path class="cls-4" d="M188.32,60.45c40.65-16.29,72.42-20.24,109.26-8.26,11.9,3.87,22.65,8.14,29.82,19.17,5.13,7.89,5.09,18.29,4.64,27.69-3.44,71.45-25.54,141.98-61.88,203.59-6.74,11.43-20.22,30.15-33.49,30.29-15.61.16-37.16-10.06-48.37-14.9-31.86-13.74-63.4-25.95-94.55-41.23-21.59-10.59-42.82-24.02-57.67-41.01-15.82-18.11-24.57-35.79-27.17-60.39-2.75-26.09,15.45-49.25,43.15-59.37,29.56-10.79,49.13-20.31,77.97-32.54,19.22-8.15,38.66-15.19,58.29-23.05Z"/>
  <g>
    <path class="cls-2" d="M293,73.19l-53,238.02c-.24,1.15-.92,2.13-1.94,2.79-.97.63-2.18.85-3.32.6h-.04s-196.85-43.82-196.85-43.82c-1.18-.28-2.16-.97-2.78-1.97-.66-.98-.88-2.19-.6-3.33l3.08-13.92-16.9-3.79c-2.4-.51-3.89-2.9-3.38-5.31L70.28,4.34c.25-1.15.94-2.17,1.94-2.79,1.01-.62,2.22-1.02,3.37-.59l196.83,43.91c2.39.55,3.92,2.91,3.37,5.3l-3.08,13.93,16.91,3.79c2.4.51,3.89,2.9,3.38,5.3Z"/>
    <g>
      <path d="M148.88,90.56c-1.46-.16-2.77.9-2.94,2.36l-.61,5.58c-.14,1.35.79,2.6,2.11,2.88l.25.06c1.49.17,2.81-.9,2.94-2.36l.6-5.58c.18-1.49-.89-2.77-2.35-2.94ZM166.49,95.45c-1.29-.75-2.88-.29-3.63,1-1.05,1.85-1.79,3.95-2.14,6.09-.45.93-.34,2.15.32,2.98.4.49.97.86,1.64,1,.41.09.85.08,1.24-.02,1.08-.28,1.9-1.23,1.99-2.34.16-1.79.71-3.52,1.59-5.08.74-1.26.29-2.88-1.01-3.63ZM177.73,110.46c-1.35-.5-2.87.33-3.32,1.77-2.14,6.78-7.96,12.41-14.78,14.37-6.82,1.97-14.74.24-20.17-4.34-5.38-4.6-8.35-12.14-7.5-19.2.16-1.45-.89-2.81-2.32-2.96-1.49-.18-2.8.85-2.97,2.34-1.06,8.91,2.51,18.07,9.34,23.89,3.45,2.92,7.58,4.89,11.96,5.82,4.31.92,8.85.8,13.15-.43,8.6-2.49,15.67-9.35,18.36-17.9.45-1.4-.32-2.91-1.75-3.36ZM177.73,110.46c-1.35-.5-2.87.33-3.32,1.77-2.14,6.78-7.96,12.41-14.78,14.37-6.82,1.97-14.74.24-20.17-4.34-5.38-4.6-8.35-12.14-7.5-19.2.16-1.45-.89-2.81-2.32-2.96-1.49-.18-2.8.85-2.97,2.34-1.06,8.91,2.51,18.07,9.34,23.89,3.45,2.92,7.58,4.89,11.96,5.82,4.31.92,8.85.8,13.15-.43,8.6-2.49,15.67-9.35,18.36-17.9.45-1.4-.32-2.91-1.75-3.36ZM162.68,106.52c.41.09.85.08,1.24-.02,1.08-.28,1.9-1.23,1.99-2.34.16-1.79.71-3.52,1.59-5.08.74-1.26.29-2.88-1.01-3.63-1.29-.75-2.88-.29-3.63,1-1.05,1.85-1.79,3.95-2.14,6.09-.45.93-.34,2.15.32,2.98.4.49.97.86,1.64,1ZM147.44,101.38l.25.06c1.49.17,2.81-.9,2.94-2.36l.6-5.58c.18-1.49-.89-2.77-2.35-2.94-1.46-.16-2.77.9-2.94,2.36l-.61,5.58c-.14,1.35.79,2.6,2.11,2.88ZM248.95,66.05L87.84,30.12c-.68-.07-1.42-.01-2,.34-.59.38-1.01.98-1.16,1.68l-35.47,159.28c-.31,1.46.6,2.85,2.05,3.2l16.46,3.66c.54.51,1.15.9,1.91,1.09.82.25,1.64.14,2.43-.13l100.06,22.25c.06.05.09.06.16.07l.18.04s.07.02.07.02l18.51,4.09c.16.07.33.14.5.18.18.04.33.03.46.06l20.39,4.53c1.46.31,2.85-.59,3.16-2.05l35.45-159.18c.31-1.46-.59-2.89-2.05-3.2ZM188.98,213.2l-.04.68c-.09,3.33-.23,4.82-.33,5.49-.06.1-.08.2-.14.3l-12.78-2.83c.77-7.88.11-15.84-2.17-23.74-.39-1.43-1.85-2.25-3.28-1.83-1.43.39-2.26,1.88-1.83,3.28,2.02,7.05,2.66,14.13,2.04,21.13l-74.37-16.55c3.99-6.61,9.52-12.59,16.19-17.42,1.17-.88,1.45-2.53.58-3.74-.88-1.16-2.53-1.44-3.73-.57-7.75,5.62-14.06,12.71-18.49,20.53l-15.14-3.38c3.2-11.42,10.08-21.67,19.53-28.96,8.22-6.32,18.22-10.08,28.93-10.85,5.25-.37,10.58,0,15.94,1l.1.02s.03.01.07.02c1.43.27,2.86.57,4.27.94,7.72,2.01,14.91,5.44,21.45,10.11l1.48,1.08c3.76,2.65,7.64,5.41,10.11,8.66,3.19,4.14,5.78,8.73,7.71,13.65,1.91,4.84,3.14,9.98,3.68,15.15.24,2.6.33,5.27.22,7.83ZM166.74,82.19c-3.16-5.33-6.72-10.42-10.53-15.27,1.81.06,3.59.22,5.33.6,5.89,6.49,11.1,13.6,15.49,21.15.4.67,1.03,1.13,1.76,1.29.63.13,1.31.02,1.89-.32,1.29-.75,1.7-2.37.96-3.65-2.79-4.82-5.95-9.46-9.37-13.89.21.07.43.2.64.28,8.05,2.48,13.73,8.05,17.34,17.04,3.49,8.71,3.86,19.44.99,29.49-2.21,7.6-5.94,14.01-10.79,18.5-4.3,3.99-10.1,6.94-17.19,8.84-12.56,3.29-24.64,1.8-33.16-4.13-8.87-6.18-14.59-17.69-14.94-30.02-.45-15.12,7.33-30.62,19.34-38.53,5-3.3,10.2-5.36,15.37-6.22,4.49,5.51,8.66,11.38,12.26,17.53.39.7,1.03,1.13,1.76,1.28.63.14,1.31.03,1.89-.32,1.28-.75,1.71-2.4.96-3.65ZM210.93,224.68l-13.72-3.04c.45-1.94.55-4.42.63-7.54v-.5c.14-3.03.06-6.07-.24-9.11-.58-5.98-2.01-11.88-4.25-17.56-2.22-5.64-5.23-10.97-8.9-15.76-3.3-4.3-7.94-7.62-12.04-10.53l-1.46-1.04c-2.27-1.61-4.65-3.06-7.09-4.42.57-.13,1.1-.2,1.64-.34,8.55-2.25,15.59-5.91,20.98-10.91,6.06-5.58,10.68-13.4,13.29-22.58,3.41-11.9,2.95-24.72-1.25-35.22-4.54-11.29-12.05-18.68-22.39-22.05-13.6-8.72-31.36-7.96-46.51,2.04-14.52,9.56-23.9,28.15-23.35,46.23.39,13.17,5.9,25.66,14.68,33.79-11.54,1.24-22.34,5.49-31.35,12.44-11.09,8.54-19.12,20.61-22.82,34.04l-11.77-2.62L89.29,35.92l155.91,34.75-34.27,154.01ZM139.46,122.26c-5.38-4.6-8.35-12.14-7.5-19.2.16-1.45-.89-2.81-2.32-2.96-1.49-.18-2.8.85-2.97,2.34-1.06,8.91,2.51,18.07,9.34,23.89,3.45,2.92,7.58,4.89,11.96,5.82,4.31.92,8.85.8,13.15-.43,8.6-2.49,15.67-9.35,18.36-17.9.45-1.4-.32-2.91-1.75-3.36-1.35-.5-2.87.33-3.32,1.77-2.14,6.78-7.96,12.41-14.78,14.37-6.82,1.97-14.74.24-20.17-4.34ZM162.86,96.45c-1.05,1.85-1.79,3.95-2.14,6.09-.45.93-.34,2.15.32,2.98.4.49.97.86,1.64,1,.41.09.85.08,1.24-.02,1.08-.28,1.9-1.23,1.99-2.34.16-1.79.71-3.52,1.59-5.08.74-1.26.29-2.88-1.01-3.63-1.29-.75-2.88-.29-3.63,1ZM147.44,101.38l.25.06c1.49.17,2.81-.9,2.94-2.36l.6-5.58c.18-1.49-.89-2.77-2.35-2.94-1.46-.16-2.77.9-2.94,2.36l-.61,5.58c-.14,1.35.79,2.6,2.11,2.88ZM148.88,90.56c-1.46-.16-2.77.9-2.94,2.36l-.61,5.58c-.14,1.35.79,2.6,2.11,2.88l.25.06c1.49.17,2.81-.9,2.94-2.36l.6-5.58c.18-1.49-.89-2.77-2.35-2.94ZM166.49,95.45c-1.29-.75-2.88-.29-3.63,1-1.05,1.85-1.79,3.95-2.14,6.09-.45.93-.34,2.15.32,2.98.4.49.97.86,1.64,1,.41.09.85.08,1.24-.02,1.08-.28,1.9-1.23,1.99-2.34.16-1.79.71-3.52,1.59-5.08.74-1.26.29-2.88-1.01-3.63ZM177.73,110.46c-1.35-.5-2.87.33-3.32,1.77-2.14,6.78-7.96,12.41-14.78,14.37-6.82,1.97-14.74.24-20.17-4.34-5.38-4.6-8.35-12.14-7.5-19.2.16-1.45-.89-2.81-2.32-2.96-1.49-.18-2.8.85-2.97,2.34-1.06,8.91,2.51,18.07,9.34,23.89,3.45,2.92,7.58,4.89,11.96,5.82,4.31.92,8.85.8,13.15-.43,8.6-2.49,15.67-9.35,18.36-17.9.45-1.4-.32-2.91-1.75-3.36ZM177.73,110.46c-1.35-.5-2.87.33-3.32,1.77-2.14,6.78-7.96,12.41-14.78,14.37-6.82,1.97-14.74.24-20.17-4.34-5.38-4.6-8.35-12.14-7.5-19.2.16-1.45-.89-2.81-2.32-2.96-1.49-.18-2.8.85-2.97,2.34-1.06,8.91,2.51,18.07,9.34,23.89,3.45,2.92,7.58,4.89,11.96,5.82,4.31.92,8.85.8,13.15-.43,8.6-2.49,15.67-9.35,18.36-17.9.45-1.4-.32-2.91-1.75-3.36ZM162.68,106.52c.41.09.85.08,1.24-.02,1.08-.28,1.9-1.23,1.99-2.34.16-1.79.71-3.52,1.59-5.08.74-1.26.29-2.88-1.01-3.63-1.29-.75-2.88-.29-3.63,1-1.05,1.85-1.79,3.95-2.14,6.09-.45.93-.34,2.15.32,2.98.4.49.97.86,1.64,1ZM147.44,101.38l.25.06c1.49.17,2.81-.9,2.94-2.36l.6-5.58c.18-1.49-.89-2.77-2.35-2.94-1.46-.16-2.77.9-2.94,2.36l-.61,5.58c-.14,1.35.79,2.6,2.11,2.88ZM248.95,66.05L87.84,30.12c-.68-.07-1.42-.01-2,.34-.59.38-1.01.98-1.16,1.68l-35.47,159.28c-.31,1.46.6,2.85,2.05,3.2l16.46,3.66c.54.51,1.15.9,1.91,1.09.82.25,1.64.14,2.43-.13l100.06,22.25c.06.05.09.06.16.07l.18.04s.07.02.07.02l18.51,4.09c.16.07.33.14.5.18.18.04.33.03.46.06l20.39,4.53c1.46.31,2.85-.59,3.16-2.05l35.45-159.18c.31-1.46-.59-2.89-2.05-3.2ZM188.98,213.2l-.04.68c-.09,3.33-.23,4.82-.33,5.49-.06.1-.08.2-.14.3l-12.78-2.83c.77-7.88.11-15.84-2.17-23.74-.39-1.43-1.85-2.25-3.28-1.83-1.43.39-2.26,1.88-1.83,3.28,2.02,7.05,2.66,14.13,2.04,21.13l-74.37-16.55c3.99-6.61,9.52-12.59,16.19-17.42,1.17-.88,1.45-2.53.58-3.74-.88-1.16-2.53-1.44-3.73-.57-7.75,5.62-14.06,12.71-18.49,20.53l-15.14-3.38c3.2-11.42,10.08-21.67,19.53-28.96,8.22-6.32,18.22-10.08,28.93-10.85,5.25-.37,10.58,0,15.94,1l.1.02s.03.01.07.02c1.43.27,2.86.57,4.27.94,7.72,2.01,14.91,5.44,21.45,10.11l1.48,1.08c3.76,2.65,7.64,5.41,10.11,8.66,3.19,4.14,5.78,8.73,7.71,13.65,1.91,4.84,3.14,9.98,3.68,15.15.24,2.6.33,5.27.22,7.83ZM166.74,82.19c-3.16-5.33-6.72-10.42-10.53-15.27,1.81.06,3.59.22,5.33.6,5.89,6.49,11.1,13.6,15.49,21.15.4.67,1.03,1.13,1.76,1.29.63.13,1.31.02,1.89-.32,1.29-.75,1.7-2.37.96-3.65-2.79-4.82-5.95-9.46-9.37-13.89.21.07.43.2.64.28,8.05,2.48,13.73,8.05,17.34,17.04,3.49,8.71,3.86,19.44.99,29.49-2.21,7.6-5.94,14.01-10.79,18.5-4.3,3.99-10.1,6.94-17.19,8.84-12.56,3.29-24.64,1.8-33.16-4.13-8.87-6.18-14.59-17.69-14.94-30.02-.45-15.12,7.33-30.62,19.34-38.53,5-3.3,10.2-5.36,15.37-6.22,4.49,5.51,8.66,11.38,12.26,17.53.39.7,1.03,1.13,1.76,1.28.63.14,1.31.03,1.89-.32,1.28-.75,1.71-2.4.96-3.65ZM210.93,224.68l-13.72-3.04c.45-1.94.55-4.42.63-7.54v-.5c.14-3.03.06-6.07-.24-9.11-.58-5.98-2.01-11.88-4.25-17.56-2.22-5.64-5.23-10.97-8.9-15.76-3.3-4.3-7.94-7.62-12.04-10.53l-1.46-1.04c-2.27-1.61-4.65-3.06-7.09-4.42.57-.13,1.1-.2,1.64-.34,8.55-2.25,15.59-5.91,20.98-10.91,6.06-5.58,10.68-13.4,13.29-22.58,3.41-11.9,2.95-24.72-1.25-35.22-4.54-11.29-12.05-18.68-22.39-22.05-13.6-8.72-31.36-7.96-46.51,2.04-14.52,9.56-23.9,28.15-23.35,46.23.39,13.17,5.9,25.66,14.68,33.79-11.54,1.24-22.34,5.49-31.35,12.44-11.09,8.54-19.12,20.61-22.82,34.04l-11.77-2.62L89.29,35.92l155.91,34.75-34.27,154.01ZM139.46,122.26c-5.38-4.6-8.35-12.14-7.5-19.2.16-1.45-.89-2.81-2.32-2.96-1.49-.18-2.8.85-2.97,2.34-1.06,8.91,2.51,18.07,9.34,23.89,3.45,2.92,7.58,4.89,11.96,5.82,4.31.92,8.85.8,13.15-.43,8.6-2.49,15.67-9.35,18.36-17.9.45-1.4-.32-2.91-1.75-3.36-1.35-.5-2.87.33-3.32,1.77-2.14,6.78-7.96,12.41-14.78,14.37-6.82,1.97-14.74.24-20.17-4.34ZM162.86,96.45c-1.05,1.85-1.79,3.95-2.14,6.09-.45.93-.34,2.15.32,2.98.4.49.97.86,1.64,1,.41.09.85.08,1.24-.02,1.08-.28,1.9-1.23,1.99-2.34.16-1.79.71-3.52,1.59-5.08.74-1.26.29-2.88-1.01-3.63-1.29-.75-2.88-.29-3.63,1ZM147.44,101.38l.25.06c1.49.17,2.81-.9,2.94-2.36l.6-5.58c.18-1.49-.89-2.77-2.35-2.94-1.46-.16-2.77.9-2.94,2.36l-.61,5.58c-.14,1.35.79,2.6,2.11,2.88ZM148.88,90.56c-1.46-.16-2.77.9-2.94,2.36l-.61,5.58c-.14,1.35.79,2.6,2.11,2.88l.25.06c1.49.17,2.81-.9,2.94-2.36l.6-5.58c.18-1.49-.89-2.77-2.35-2.94ZM166.49,95.45c-1.29-.75-2.88-.29-3.63,1-1.05,1.85-1.79,3.95-2.14,6.09-.45.93-.34,2.15.32,2.98.4.49.97.86,1.64,1,.41.09.85.08,1.24-.02,1.08-.28,1.9-1.23,1.99-2.34.16-1.79.71-3.52,1.59-5.08.74-1.26.29-2.88-1.01-3.63ZM177.73,110.46c-1.35-.5-2.87.33-3.32,1.77-2.14,6.78-7.96,12.41-14.78,14.37-6.82,1.97-14.74.24-20.17-4.34-5.38-4.6-8.35-12.14-7.5-19.2.16-1.45-.89-2.81-2.32-2.96-1.49-.18-2.8.85-2.97,2.34-1.06,8.91,2.51,18.07,9.34,23.89,3.45,2.92,7.58,4.89,11.96,5.82,4.31.92,8.85.8,13.15-.43,8.6-2.49,15.67-9.35,18.36-17.9.45-1.4-.32-2.91-1.75-3.36ZM177.73,110.46c-1.35-.5-2.87.33-3.32,1.77-2.14,6.78-7.96,12.41-14.78,14.37-6.82,1.97-14.74.24-20.17-4.34-5.38-4.6-8.35-12.14-7.5-19.2.16-1.45-.89-2.81-2.32-2.96-1.49-.18-2.8.85-2.97,2.34-1.06,8.91,2.51,18.07,9.34,23.89,3.45,2.92,7.58,4.89,11.96,5.82,4.31.92,8.85.8,13.15-.43,8.6-2.49,15.67-9.35,18.36-17.9.45-1.4-.32-2.91-1.75-3.36ZM162.68,106.52c.41.09.85.08,1.24-.02,1.08-.28,1.9-1.23,1.99-2.34.16-1.79.71-3.52,1.59-5.08.74-1.26.29-2.88-1.01-3.63-1.29-.75-2.88-.29-3.63,1-1.05,1.85-1.79,3.95-2.14,6.09-.45.93-.34,2.15.32,2.98.4.49.97.86,1.64,1ZM147.44,101.38l.25.06c1.49.17,2.81-.9,2.94-2.36l.6-5.58c.18-1.49-.89-2.77-2.35-2.94-1.46-.16-2.77.9-2.94,2.36l-.61,5.58c-.14,1.35.79,2.6,2.11,2.88ZM248.95,66.05L87.84,30.12c-.68-.07-1.42-.01-2,.34-.59.38-1.01.98-1.16,1.68l-35.47,159.28c-.31,1.46.6,2.85,2.05,3.2l16.46,3.66c.54.51,1.15.9,1.91,1.09.82.25,1.64.14,2.43-.13l100.06,22.25c.06.05.09.06.16.07l.18.04s.07.02.07.02l18.51,4.09c.16.07.33.14.5.18.18.04.33.03.46.06l20.39,4.53c1.46.31,2.85-.59,3.16-2.05l35.45-159.18c.31-1.46-.59-2.89-2.05-3.2ZM188.98,213.2l-.04.68c-.09,3.33-.23,4.82-.33,5.49-.06.1-.08.2-.14.3l-12.78-2.83c.77-7.88.11-15.84-2.17-23.74-.39-1.43-1.85-2.25-3.28-1.83-1.43.39-2.26,1.88-1.83,3.28,2.02,7.05,2.66,14.13,2.04,21.13l-74.37-16.55c3.99-6.61,9.52-12.59,16.19-17.42,1.17-.88,1.45-2.53.58-3.74-.88-1.16-2.53-1.44-3.73-.57-7.75,5.62-14.06,12.71-18.49,20.53l-15.14-3.38c3.2-11.42,10.08-21.67,19.53-28.96,8.22-6.32,18.22-10.08,28.93-10.85,5.25-.37,10.58,0,15.94,1l.1.02s.03.01.07.02c1.43.27,2.86.57,4.27.94,7.72,2.01,14.91,5.44,21.45,10.11l1.48,1.08c3.76,2.65,7.64,5.41,10.11,8.66,3.19,4.14,5.78,8.73,7.71,13.65,1.91,4.84,3.14,9.98,3.68,15.15.24,2.6.33,5.27.22,7.83ZM166.74,82.19c-3.16-5.33-6.72-10.42-10.53-15.27,1.81.06,3.59.22,5.33.6,5.89,6.49,11.1,13.6,15.49,21.15.4.67,1.03,1.13,1.76,1.29.63.13,1.31.02,1.89-.32,1.29-.75,1.7-2.37.96-3.65-2.79-4.82-5.95-9.46-9.37-13.89.21.07.43.2.64.28,8.05,2.48,13.73,8.05,17.34,17.04,3.49,8.71,3.86,19.44.99,29.49-2.21,7.6-5.94,14.01-10.79,18.5-4.3,3.99-10.1,6.94-17.19,8.84-12.56,3.29-24.64,1.8-33.16-4.13-8.87-6.18-14.59-17.69-14.94-30.02-.45-15.12,7.33-30.62,19.34-38.53,5-3.3,10.2-5.36,15.37-6.22,4.49,5.51,8.66,11.38,12.26,17.53.39.7,1.03,1.13,1.76,1.28.63.14,1.31.03,1.89-.32,1.28-.75,1.71-2.4.96-3.65ZM210.93,224.68l-13.72-3.04c.45-1.94.55-4.42.63-7.54v-.5c.14-3.03.06-6.07-.24-9.11-.58-5.98-2.01-11.88-4.25-17.56-2.22-5.64-5.23-10.97-8.9-15.76-3.3-4.3-7.94-7.62-12.04-10.53l-1.46-1.04c-2.27-1.61-4.65-3.06-7.09-4.42.57-.13,1.1-.2,1.64-.34,8.55-2.25,15.59-5.91,20.98-10.91,6.06-5.58,10.68-13.4,13.29-22.58,3.41-11.9,2.95-24.72-1.25-35.22-4.54-11.29-12.05-18.68-22.39-22.05-13.6-8.72-31.36-7.96-46.51,2.04-14.52,9.56-23.9,28.15-23.35,46.23.39,13.17,5.9,25.66,14.68,33.79-11.54,1.24-22.34,5.49-31.35,12.44-11.09,8.54-19.12,20.61-22.82,34.04l-11.77-2.62L89.29,35.92l155.91,34.75-34.27,154.01ZM139.46,122.26c-5.38-4.6-8.35-12.14-7.5-19.2.16-1.45-.89-2.81-2.32-2.96-1.49-.18-2.8.85-2.97,2.34-1.06,8.91,2.51,18.07,9.34,23.89,3.45,2.92,7.58,4.89,11.96,5.82,4.31.92,8.85.8,13.15-.43,8.6-2.49,15.67-9.35,18.36-17.9.45-1.4-.32-2.91-1.75-3.36-1.35-.5-2.87.33-3.32,1.77-2.14,6.78-7.96,12.41-14.78,14.37-6.82,1.97-14.74.24-20.17-4.34ZM162.86,96.45c-1.05,1.85-1.79,3.95-2.14,6.09-.45.93-.34,2.15.32,2.98.4.49.97.86,1.64,1,.41.09.85.08,1.24-.02,1.08-.28,1.9-1.23,1.99-2.34.16-1.79.71-3.52,1.59-5.08.74-1.26.29-2.88-1.01-3.63-1.29-.75-2.88-.29-3.63,1ZM147.44,101.38l.25.06c1.49.17,2.81-.9,2.94-2.36l.6-5.58c.18-1.49-.89-2.77-2.35-2.94-1.46-.16-2.77.9-2.94,2.36l-.61,5.58c-.14,1.35.79,2.6,2.11,2.88ZM148.88,90.56c-1.46-.16-2.77.9-2.94,2.36l-.61,5.58c-.14,1.35.79,2.6,2.11,2.88l.25.06c1.49.17,2.81-.9,2.94-2.36l.6-5.58c.18-1.49-.89-2.77-2.35-2.94ZM166.49,95.45c-1.29-.75-2.88-.29-3.63,1-1.05,1.85-1.79,3.95-2.14,6.09-.45.93-.34,2.15.32,2.98.4.49.97.86,1.64,1,.41.09.85.08,1.24-.02,1.08-.28,1.9-1.23,1.99-2.34.16-1.79.71-3.52,1.59-5.08.74-1.26.29-2.88-1.01-3.63ZM177.73,110.46c-1.35-.5-2.87.33-3.32,1.77-2.14,6.78-7.96,12.41-14.78,14.37-6.82,1.97-14.74.24-20.17-4.34-5.38-4.6-8.35-12.14-7.5-19.2.16-1.45-.89-2.81-2.32-2.96-1.49-.18-2.8.85-2.97,2.34-1.06,8.91,2.51,18.07,9.34,23.89,3.45,2.92,7.58,4.89,11.96,5.82,4.31.92,8.85.8,13.15-.43,8.6-2.49,15.67-9.35,18.36-17.9.45-1.4-.32-2.91-1.75-3.36ZM177.73,110.46c-1.35-.5-2.87.33-3.32,1.77-2.14,6.78-7.96,12.41-14.78,14.37-6.82,1.97-14.74.24-20.17-4.34-5.38-4.6-8.35-12.14-7.5-19.2.16-1.45-.89-2.81-2.32-2.96-1.49-.18-2.8.85-2.97,2.34-1.06,8.91,2.51,18.07,9.34,23.89,3.45,2.92,7.58,4.89,11.96,5.82,4.31.92,8.85.8,13.15-.43,8.6-2.49,15.67-9.35,18.36-17.9.45-1.4-.32-2.91-1.75-3.36ZM166.49,95.45c-1.29-.75-2.88-.29-3.63,1-1.05,1.85-1.79,3.95-2.14,6.09-.45.93-.34,2.15.32,2.98.4.49.97.86,1.64,1,.41.09.85.08,1.24-.02,1.08-.28,1.9-1.23,1.99-2.34.16-1.79.71-3.52,1.59-5.08.74-1.26.29-2.88-1.01-3.63ZM148.88,90.56c-1.46-.16-2.77.9-2.94,2.36l-.61,5.58c-.14,1.35.79,2.6,2.11,2.88l.25.06c1.49.17,2.81-.9,2.94-2.36l.6-5.58c.18-1.49-.89-2.77-2.35-2.94Z"/>
      <path d="M289.62,67.89l-16.91-3.79,3.08-13.93c.55-2.39-.98-4.75-3.37-5.3L75.59.96c-1.15-.43-2.36-.03-3.37.59-1,.62-1.69,1.64-1.94,2.79L17.27,242.46c-.51,2.41.98,4.8,3.38,5.31l16.9,3.79-3.08,13.92c-.28,1.14-.06,2.35.6,3.33.62,1,1.6,1.69,2.78,1.97l196.85,43.81h.04c1.14.26,2.35.04,3.32-.59,1.02-.66,1.7-1.64,1.94-2.79l53-238.02c.51-2.4-.98-4.79-3.38-5.3ZM215.2,281.56c-.45-.1-.97-.06-1.44.09l-14.3-3.19c-.63-.47-1.39-.63-2.16-.46l-15.65-3.49c-.33-.18-.68-.25-1.04-.26L26.91,240.05,78,10.6l188.15,41.99-50.95,228.97Z"/>
    </g>
    <path class="cls-1" d="M81.52,228.33c1.26-2.12,2.27-4.5,2.16-6.96-.15-3.47-2.68-6.63-5.94-7.82s-7.07-.48-9.87,1.56c-2.14-1.74-4.53-4.06-7.14-4.96s-6.06-.47-8.14,1.36c-1.83,1.61-2.02,4.42-2.19,6.85-.45,6.6,2.35,13.28,7.15,17.8,1.94,1.82,4.13,3.71,6.92,3.56,3.18-.17,6.44-1.49,9.1-3.17,3.24-2.05,5.97-4.92,7.94-8.21Z"/>
    <line class="cls-3" x1="98.01" y1="230.27" x2="188.05" y2="250.04"/>
  </g>
</svg>