<?xml version="1.0" encoding="UTF-8"?>
<svg id="Layer_1" data-name="Layer 1" xmlns="http://www.w3.org/2000/svg" viewBox="0 0 337 289.45">
  <defs>
    <style>
      .cls-1 {
        fill: #fff;
      }

      .cls-2 {
        fill: #dcdcdc;
      }
    </style>
  </defs>
  <path class="cls-2" d="M336,121.35c-1.41,20.81-10.2,31.4-17.43,48.84-2.31,5.56-3.43,12.37-5.73,18.19-17.7,44.95-61.68,71.26-106.77,82.58-15.82,3.97-31.48,8.68-47.26,12.54-85.31,20.86-124.65-22.69-150.44-98.13C-17.18,110.62,24.75,36.91,96.84,11.25c67.07-23.87,139.09-4.92,195.8,34.38,1.37.26,1.91-.07,1.49-1.49-1.13-3.81-10.38-13-12.79-17.11-1.24-2.93,1.72-3.1,3.83-1.84,2,1.2,10.96,14.89,12.98,17.91,6.87,10.24,10.16,14.53,17.89,23.97,10.25,12.51,18.46,29.01,19.96,45.31.24,2.61.18,6.32,0,8.97ZM283.83,206.71c7.53-7.5,27.57-29.35,30.74-38.52,9.34-27,3.07-80.81-10.58-106.01-4.26-7.87-24.88-20.71-33.25-25.55C232.37,14.49,185.68,1.56,141.18,5.76c-4.3.41-12.97,1.16-16.73,2.21-.8.22-2.08,1.26-1.72,1.76,2.8,1.64,15.13.18,15.94,3.51.27,1.14-.69,1.94-1.65,2.34-32.3-5.36-58.93,4.98-83.52,25.08C20.24,67.86-2.43,128.51,8.2,170.61c17.26,68.38,94.36,104.36,160.2,100.66,19.93-1.12,28.62-4.84,46.04-13.86,24.97-12.92,49.49-30.88,69.39-50.7ZM322.06,152.25c1.96-.74,2.69-3.26,3.46-5,10.51-23.94,7.04-57.31-12.43-75.72,2.12,10.69,5.89,20.87,7.67,31.68,2.72,16.53,2.71,32.37,1.3,49.04ZM308.09,187.13c-1.91-.42-2.38.97-3.39,2.08-18.24,20.07-32.96,36.26-55.49,52.14-11.54,8.13-24.21,14.47-35.79,22.5,31.48-7.25,63.48-27.19,82.53-53.49,2.08-2.87,13.84-21.35,12.14-23.23ZM164.59,275.83c-40.87.37-86.15-11.35-117.61-38.37-5-4.29-9.4-10.3-14.44-14.46-1.12-.93-1.61-2.42-3.48-1.99,13.9,31.49,37.19,56.66,72.52,62.5,16.85,2.78,43.56-.15,59.82-5.4,1.28-.41,2.92-.69,3.19-2.28Z"/>
  <g>
    <path class="cls-1" d="M265.09,139.41c-1.36,3.98-5.66,5.61-8.99,7.56-15.01,7.49-30.65,13.55-46.13,19.9-14.58,5.86-28.84,12.46-43.4,18.31-17.45,7.1-35.27,13.4-53.49,18.22-2.52.62-4.89-1.01-7.19-1.83-9.96-4.87-20.22-9.22-29.56-15.27-3.41-2.4-7.91-3.69-10.03-7.47-1.61-2.47-2.45-5.31-3.32-8.06-2.96-9.17-7.14-17.92-9.51-27.26.62-.17,1.85-.47,2.49-.62-1.73-1.6-2.99-3.58-3.41-5.88,2.15-1.38,4.63-1.93,7.15-2.15-2-1.8-3.54-4.03-3.98-6.7,13.49-1.6,25.7-8.43,39-11,9.37-.81,18.34-3.88,27.44-6.13,16.11-4.07,31.34-10.97,46.17-18.36,5.61-2.77,11.27-5.51,16.48-9,2-1.21,4.7-3.06,6.95-1.31,3.41,2.47,6.7,5.17,10.38,7.29,9.37,5.59,19.87,8.8,29.83,13.18,7.37,3.26,15.18,5.31,22.64,8.3,1.09.65,3.31,1.19,2.75,2.92-.82,2.15-3.17,3.06-4.85,4.37,4.1.15,8.01,2.23,10.46,5.57.71,1.01-.4,2.24-.47,3.36,1.58,3.78,3.53,7.86,2.59,12.06Z"/>
    <g>
      <path d="M244.7,139.07c3.7-1.77,7.27-4.06,11.43-4.59-.11,2.65-3,3.2-4.91,4.15-7.11,2.82-13.93,6.4-21.22,8.72,4.62-3.22,9.75-5.63,14.7-8.28Z"/>
      <g>
        <path d="M262.5,127.35c.07-1.12,1.18-2.35.47-3.36-2.45-3.34-6.36-5.42-10.46-5.57,1.68-1.31,4.03-2.22,4.85-4.37.56-1.73-1.66-2.27-2.75-2.92-7.46-2.99-15.27-5.04-22.64-8.3-9.96-4.38-20.46-7.59-29.83-13.18-3.68-2.12-6.97-4.82-10.38-7.29-2.25-1.75-4.95.1-6.95,1.31-5.21,3.49-10.87,6.23-16.48,9-14.83,7.39-30.06,14.29-46.17,18.36-9.1,2.25-18.07,5.32-27.44,6.13-13.3,2.57-25.51,9.4-39,11,.44,2.67,1.98,4.9,3.98,6.7-2.52.22-5,.77-7.15,2.15.42,2.3,1.68,4.28,3.41,5.88-.64.15-1.87.45-2.49.62,2.37,9.34,6.55,18.09,9.51,27.26.87,2.75,1.71,5.59,3.32,8.06,2.12,3.78,6.62,5.07,10.03,7.47,9.34,6.05,19.6,10.4,29.56,15.27,2.3.82,4.67,2.45,7.19,1.83,18.22-4.82,36.04-11.12,53.49-18.22,14.56-5.85,28.82-12.45,43.4-18.31,15.48-6.35,31.12-12.41,46.13-19.9,3.33-1.95,7.63-3.58,8.99-7.56.94-4.2-1.01-8.28-2.59-12.06ZM92.22,190.62c-8.13-3.48-15.62-8.4-23.95-11.42-.74-4.57-2.57-8.8-4.15-13.12,6.01,3.78,10.8,10.4,18.29,11.17-6.3-4.05-11.39-9.74-17.92-13.47-2.42-1.16-2.69-4.08-3.53-6.33-1.04-3.95-2.84-7.69-3.61-11.71,1.41-.35,2.37.89,3.36,1.65,6.15,5.88,13.08,10.95,19.06,17.06,10.08,9.04,20.34,17.99,31.36,25.92.03,3.02.05,6.03.22,9.05-6.42-2.82-12.67-6.03-19.13-8.8ZM74.16,155.94c-6.33-5.29-12.58-10.67-17.95-16.95,1.91-.45,3.83-.89,5.79-1.31,11.91,13.25,26.71,23.45,39.67,35.61,3.18,3.09,6.6,5.91,9.76,9,0,1.73.02,3.44.07,5.19-13.22-9.56-25.41-20.44-37.34-31.54ZM76.63,145.49c-5.14-4.7-10.53-9.22-14.61-14.88,8.48-2,16.07-6.7,24.67-8.21,16.46-3.61,33.14-6.27,49.33-11.07,8.85-2.74,17.4-6.35,25.86-10.18,7.29-3.36,14.68-6.7,21.5-10.98,2.2-1.38,4.23-3.01,6.55-4.17,4.47,2.02,8.16,5.48,12.58,7.63,8.8,4.85,18.39,7.99,27.56,12.02,7.59,3.36,15.57,5.73,23.36,8.65-11.42,7.68-23.76,13.89-35.79,20.56-23.29,12.43-47.19,23.95-72.08,32.77-10.35,3.84-20.59,8.04-31.26,10.86-11.72-11.94-24.97-22.2-37.67-33ZM115.33,182.59c15.92-4.75,31.34-10.9,46.84-16.83,17.77-7.57,35.05-16.27,52.03-25.49,12.56-7.02,25.29-13.79,37.52-21.38,1.93,2.38,3.91,4.77,6.18,6.9-7.98,4.25-15.99,8.45-24.42,11.76-13.97,6.43-28.1,12.41-42.22,18.54-17.89,8.11-36.01,15.72-54.05,23.46-7.61,3.29-15.47,5.91-23.36,8.48.25-1.83-1.46-5.22,1.48-5.44ZM242.55,148.41c-15.22,7.31-30.9,13.64-46.29,20.58-26.5,12.19-53.47,23.86-81.96,30.55,0-1.5-.05-3.01-.05-4.49l2.32.24c-.89-.62-1.8-1.16-2.67-1.68l-.1-2.57c17.77-5.09,34.43-13.25,51.44-20.41,14.51-6.36,28.92-12.98,43.62-18.94,10.16-4.1,20.07-8.77,30.28-12.78,6.72-2.52,13.07-5.88,19.5-9.07.99,2.77,1.78,5.59,2.47,8.46-5.71,4.22-12.28,6.94-18.56,10.11Z"/>
        <path d="M111.13,190.37c-11.02-7.93-21.28-16.88-31.36-25.92-5.98-6.11-12.91-11.18-19.06-17.06-.99-.76-1.95-2-3.36-1.65.77,4.02,2.57,7.76,3.61,11.71.84,2.25,1.11,5.17,3.53,6.33,6.53,3.73,11.62,9.42,17.92,13.47-7.49-.77-12.28-7.39-18.29-11.17,1.58,4.32,3.41,8.55,4.15,13.12,8.33,3.02,15.82,7.94,23.95,11.42,6.46,2.77,12.71,5.98,19.13,8.8-.17-3.02-.19-6.03-.22-9.05ZM70.88,163.92c-.33-.37.18-.89.55-.55.51.49,1.06.92,1.58,1.39,3.65,1.39,6.36,4.33,9.48,6.61,4.15,3.38,8.6,6.45,12.38,10.28-.48-.25-.94-.54-1.42-.8.09.06.18.13.26.2.89.7-.27,2.15-1.19,1.54-7.94-5.26-15.25-11.61-21.64-18.67ZM95.69,191.98c-5-2.66-9.92-5.51-14.5-8.84-2.18-1.58-4.29-3.29-6.21-5.18-1.77-1.74-3.37-3.74-5.34-5.27-.4-.31.12-.87.52-.66,2.31,1.18,3.95,2.87,5.73,4.72,1.89,1.97,3.97,3.76,6.14,5.41,4.45,3.39,9.38,6.09,14.34,8.65.78.4.09,1.58-.68,1.17Z"/>
        <path d="M233.68,114.91c1.36-1.26,2.99-2.17,4.42-3.38-.15-1.68-2.35-1.31-3.41-1.95-9.89-3.19-20.07-5.54-29.63-9.64-3.19-1.26-5.74-3.61-8.63-5.34-1.85,2.72-5.14,3.85-8.33,3.7-1.95-.14-3.39-3.26-5.34-1.82-3.78,2.71-8.08,4.59-12.41,6.22-26.64,10.06-53.63,19.63-81.64,25.24-.19,2.35.25,5.04-1.45,6.99-1.66,2.35-4.75,2.25-7.3,2.62.77,1.81,1.56,3.74,3.24,4.97,10.58,8.78,22,16.64,31.44,26.7,4.3-2.75,10.09-5.12,14.83-2.01.79,1.24.87,4.03,3.02,3.24,5.24-1.33,10.03-4.08,14.98-6.23,18.06-8.57,35.09-19.13,53.19-27.68,8.13-3.63,16.26-7.31,24.37-11.05,2.89-1.41,6.15-2.07,8.87-3.88-.72-2.15-1.63-4.64-.22-6.7ZM184.32,142.2c-17.23,8.85-34.09,18.42-51.83,26.18-.94-1.49-1.71-3.27-3.44-3.93-4.55-2.3-9.74-.47-14.06,1.45-6.82-6.3-13.84-12.48-21.58-17.67-3.61-2.79-7.27-5.56-10.28-8.99,4.94-.15,8.11-4.73,8.01-9.37,24.61-6.21,48.98-13.57,72.79-22.47,6.74-2.45,13.71-4.67,19.72-8.72,3.96,3.21,10.48,2.84,13.69-1.27,2.34,1.62,4.79,2.98,7.32,4.17,1.81.84,3.66,1.6,5.54,2.3.75.28,1.51.55,2.26.81.76.26,1.53.51,2.29.76,6.12,1.97,12.42,3.54,18.43,5.66-2.37,2.67-3.04,6.13-2.42,9.59-15.5,7.14-31.27,13.67-46.44,21.5Z"/>
        <path d="M233.18,111.11c-6.01-2.12-12.31-3.69-18.43-5.66-.76-.25-1.53-.5-2.29-.76-.75-.26-1.51-.53-2.26-.81-1.88-.69-3.73-1.45-5.54-2.3-2.53-1.19-4.98-2.55-7.32-4.17-3.21,4.11-9.73,4.48-13.69,1.27-6.01,4.05-12.98,6.27-19.72,8.72-23.81,8.9-48.18,16.26-72.79,22.47.1,4.64-3.07,9.22-8.01,9.37,3.01,3.43,6.67,6.2,10.28,8.99,7.74,5.19,14.76,11.37,21.58,17.67,4.32-1.92,9.51-3.75,14.06-1.45,1.73.66,2.5,2.44,3.44,3.93,17.74-7.76,34.6-17.33,51.83-26.18,15.17-7.83,30.94-14.36,46.44-21.5-.62-3.46.05-6.92,2.42-9.59ZM115.38,137.11c-5.09,2.72-10.01,6.28-15.74,7.32,4.3-4.03,10.18-5.79,15.74-7.32ZM124.11,140.84c-6.28,3.88-13.2,7.07-20.44,8.53,5.93-4.52,13.32-6.55,20.44-8.53ZM112.96,152.71c-1.43.61-2.96.49-4.45.24,6.03-2.07,11.84-4.82,18.09-6.15-4.49,2.05-8.99,4.2-13.64,5.91ZM175.15,139.16c-8.45,4.72-18.44,6.72-28.06,5.66-4.89-.74-10.5-2.74-12.35-7.76-1.46-3.09-.08-6.57,2.02-8.97,3.88-4.5,9.4-7.39,15.18-8.5,4-.75,7.46-3.24,11.59-3.51,5.88-.82,12.46,0,17.06,4.02,1.87,1.66,3.95,3.76,3.68,6.48-.4,5.49-4.57,9.94-9.12,12.58ZM183.28,115.19c3.46-4.7,9.69-7.12,15.42-7.2-4.84,2.92-9.69,6.33-15.42,7.2ZM202.53,113.38c-4.67,3.26-9.88,6.06-15.54,7.05,4.17-4.01,9.76-6.53,15.54-7.05ZM192.85,124.21c2.34-3.86,6.99-5.12,11.14-5.91-3.11,2.87-6.82,5.44-11.14,5.91Z"/>
        <path d="M198.7,107.99c-4.84,2.92-9.69,6.33-15.42,7.19,3.46-4.7,9.69-7.12,15.42-7.19Z"/>
        <path d="M202.53,113.38c-4.67,3.26-9.89,6.06-15.55,7.04,4.18-4,9.76-6.53,15.55-7.04Z"/>
        <path d="M180.59,120.1c-4.6-4.02-11.18-4.84-17.06-4.02-4.13.27-7.59,2.76-11.59,3.51-5.78,1.11-11.3,4-15.18,8.5-2.1,2.4-3.48,5.88-2.02,8.97,1.85,5.02,7.46,7.02,12.35,7.76,9.62,1.06,19.61-.94,28.06-5.66,4.55-2.64,8.72-7.09,9.12-12.58.27-2.72-1.81-4.82-3.68-6.48ZM180.02,130.81c-3.36,5.09-9.32,7.61-14.93,9.44-6.97,1.95-14.58,3.16-21.6.81-2.8-.96-5.86-2.64-6.68-5.73-.71-2.5.87-4.84,2.45-6.6,4.45-5.02,10.85-7.71,17.23-9.22,4.27-1.19,8.7-.32,13.02.12,3.98.47,8.09,1.86,10.85,4.95,1.88,1.65.7,4.4-.34,6.23Z"/>
        <path d="M203.99,118.3c-3.11,2.87-6.82,5.44-11.15,5.91,2.35-3.86,6.99-5.12,11.15-5.91Z"/>
        <path d="M115.38,137.11c-5.09,2.72-10.01,6.28-15.74,7.32,4.3-4.03,10.18-5.78,15.74-7.32Z"/>
        <path d="M124.11,140.84c-6.28,3.88-13.2,7.07-20.44,8.53,5.93-4.52,13.32-6.55,20.44-8.53Z"/>
        <path d="M126.6,146.8c-4.5,2.05-9,4.2-13.64,5.91-1.43.62-2.97.49-4.45.25,6.03-2.08,11.84-4.82,18.09-6.15Z"/>
        <path d="M216.42,152.26c4.41-1.54,8.79-3.22,13.31-4.42-5.59,3.24-11.81,5.19-17.64,7.95-11.12,4.95-22.78,8.57-33.72,13.93,11.84-7.48,24.97-12.6,38.05-17.46Z"/>
        <path d="M93.45,180.85c.48.26.93.55,1.41.8-3.78-3.83-8.23-6.9-12.38-10.28-3.11-2.28-5.82-5.21-9.47-6.61,6.47,5.8,13.63,10.71,20.44,16.09Z"/>
        <path d="M135.76,186.05c12.66-4.84,25.55-9.12,38.57-12.87-8.54,4.67-17.89,7.63-26.9,11.23-10.34,3.53-20.51,7.63-31.09,10.44.18-.42.52-1.26.69-1.68,6.41-1.9,12.43-4.89,18.73-7.12Z"/>
      </g>
    </g>
  </g>
</svg>