<?xml version="1.0" encoding="UTF-8"?>
<svg id="Layer_1" xmlns="http://www.w3.org/2000/svg" version="1.1" viewBox="0 0 282 293.06">
  <!-- Generator: Adobe Illustrator 30.0.0, SVG Export Plug-In . SVG Version: 2.1.1 Build 123)  -->
  <defs>
    <style>
      .st0 {
        fill: none;
      }

      .st1 {
        fill: #fff;
      }

      .st2 {
        fill: #f2c316;
      }
    </style>
  </defs>
  <path class="st2" d="M107.01,292.1c-58.94-3.47-87.19-57.14-95.87-109.42l-4.27-34.09c.26-5.94-.35-12.01,0-17.94C12.77,32.15,62.16-27.57,165.2,14.57c66.96,27.38,126.08,85.88,114.49,164.34-9.49,64.28-95.44,107.72-153.83,113.17-1.76.16-16.94.14-18.85.03h0Z"/>
  <g>
    <path class="st1" d="M232.24,86.85c-.72,15.68-5.37,34.09-7.4,49.9-2.78,21.78-4.56,43.77-7.76,65.48-.89,6.01-2.46,26.45-8.26,28.36-4.99,1.64-20.46-1.74-26.54-2.7-45.46-7.2-90.62-17.05-136.03-24.61-3.52-1.29-19.84-16.66-21.42-19.91-1.75-3.6-1.68-16.48-.34-21.78v-.06c.11-.45.24-.84.37-1.17,1.41-3.49,5.13-3.38,6.14-.06.08.26.14.56.19.86l7.42-50.35,1.87-12.64c-.15.16-.31.27-.48.33-4.53,1.54-5.18-1.46-5.14-4.66,0-.76.06-1.53.1-2.25.66-10.59,3.08-26.68,4.95-37.32,1.14-6.53,3.86-22,11.54-23.21,44.48,4.29,88.58,13.8,132.7,21.27,7.85,1.32,21.96,1.37,28.34,5.48,1.87,1.21,16.28,15.56,17.39,17.36,2.05,3.3,2.56,7.87,2.38,11.68h-.02Z"/>
    <g>
      <path d="M229.86,75.17c-1.1-1.79-15.52-16.15-17.39-17.36-6.38-4.11-20.49-4.16-28.34-5.48-44.12-7.47-88.22-16.98-132.7-21.27-7.68,1.21-10.4,16.68-11.54,23.21-1.88,10.64-4.29,26.72-4.95,37.32-.05.73-.09,1.49-.1,2.25-.04,3.2.61,6.2,5.14,4.66.17-.06.33-.17.48-.33,2.69-2.78,3.53-20.22,3.87-23.98,53.91,7.55,107.62,17.43,161.21,27.19l-14.73,107.96-157.06-27.38c-7.02-2.34-1.67-14.8-2.58-20.79-.05-.3-.1-.59-.19-.86-1.01-3.32-4.73-3.43-6.14.06-.13.33-.25.72-.37,1.17v.06c-1.34,5.3-1.41,18.18.34,21.78,1.58,3.25,17.9,18.62,21.42,19.91,45.41,7.57,90.58,17.41,136.03,24.61,6.07.96,21.55,4.34,26.54,2.7,5.8-1.91,7.38-22.35,8.26-28.36,3.21-21.72,4.98-43.7,7.76-65.48,2.03-15.81,6.68-34.22,7.4-49.9.18-3.81-.33-8.38-2.38-11.68h.02ZM206.79,94.75l-159.93-26.36-1.19-.71c-1.18-1.62,2.99-21.77,4.26-24.99,1.46-3.7,2.45-5.81,7.05-5.15l150.13,25.62c1.16.38,2.05,1.08,2.41,2.29.86,2.87-1.6,28.34-2.73,29.29h0Z"/>
      <path d="M66.35,111.94c0,.27-.04.55-.1.82l-.24.93c-.1.41-.27.78-.52,1.13l-25.96,36.36c-.43.6-1.01,1.13-1.71,1.4-.7.26-1.43.3-2.13.15-1.75-.41-2.84-2.16-2.68-3.94l.68-7.91c-.25.08-.52.19-.81.3-1.75.73-4.27,2.08-7.07,3.56-6.46,3.44-14.37,7.55-17.49,6.01-1.33-.66-10.57-16.02-8.4-18.68l20.62-9.51c.3-.67-12.85-2.75-8.95-7.78.94-1.22,2.41-1.91,3.93-2.05l15.4-1.35,6.43-.57,25.35-2.21c1.23-.1,2.41.47,3.08,1.49.37.55.56,1.2.56,1.85h0Z"/>
      <path d="M182.43,113.76h0c.02,1.42-1.23,2.54-2.63,2.37-38.99-4.74-77.75-12.93-116.46-19.39-.44-.08-.86-.27-1.19-.58-2.13-1.94-.61-4.32,2.4-4.22l115.93,19.53c1.12.19,1.94,1.15,1.96,2.29h0Z"/>
      <path d="M173.75,188.09h0c-.09.99-.82,1.8-1.78,2.01l-1.61.36c-.29.07-.58.08-.88.02l-115.07-19.76c-2.66-.92-2.21-5.33.65-5.39l116.81,20.28c1.18.21,2,1.28,1.89,2.48h0Z"/>
      <path d="M96.61,116.52l82.38,16.06c3.2,1.7,1.51,4.77-1.7,4.6l-79.87-15.1c-2.99,0-3.29-4.87-.82-5.56h.01Z"/>
      <path d="M91.56,152.86l82.66,15.07,1.24.75c1.21,2.62.4,5.45-2.89,5-25.37-6.95-53.38-8.74-78.58-15.31-1.13-.29-2.32-.5-3.43-.75-3.03-.71-2.06-5.3,1-4.74h0v-.02Z"/>
      <path d="M176.96,151.43c.77.39,1.18,1.25.99,2.1h0c-.19.81-.89,1.41-1.71,1.45-1.76.11-3.54-.04-5.29-.29-20.96-2.98-48.75-8.32-69.32-13.34-3.55-.87-11.81-2.37-8.47-5.43,1.08-.99,2.59-1.33,4.04-1.06l79.78,16.56h-.02Z"/>
      <path class="st1" d="M209.52,65.46c-.36-1.21-1.25-1.91-2.41-2.29L56.98,37.55c-4.59-.66-5.58,1.45-7.05,5.15-1.27,3.22-5.44,23.37-4.26,24.99l1.19.71,159.93,26.36c1.12-.95,3.58-26.42,2.73-29.29h0ZM69.98,62.73c-11.31,2.6-14.39-13.29-4.3-15.56,12.68-2.86,13.81,13.39,4.3,15.56ZM89.79,66.65c-9.68.74-12.12-13.56-2.5-15.73,13.2-2.97,14.14,14.85,2.5,15.73ZM113.34,70.38c-13.58,2.12-14.38-14.39-2.51-15.73,10.87-1.24,11.73,14.3,2.51,15.73Z"/>
      <path d="M110.83,54.65c-11.87,1.35-11.07,17.86,2.51,15.73,9.23-1.43,8.36-16.97-2.51-15.73ZM112.84,64.65c-.32.3-.67.56-1.04.75-.24.13-.49.24-.75.3-.47.13-.94.16-1.41.04-.41-.1-.72-.26-.95-.46-1.13-.95-.43-2.81.87-4.11,1.24-1.26,3.01-2.02,4.27-1.04.06.04.1.08.15.13,1.05,1.02.25,3.09-1.15,4.39h.01Z"/>
      <path d="M65.68,47.16c-10.09,2.27-7.01,18.17,4.3,15.56,9.51-2.18,8.38-18.42-4.3-15.56ZM70.31,56.03c-.07.08-.15.16-.24.23-1.26,1.08-3.43,1.36-4.5.47-.25-.22-.45-.5-.56-.86-.57-1.94.95-3.17,2.56-3.61.24-.06.46-.11.69-.14.53-.08,1.03-.07,1.44.04.24.06.43.15.59.26.06.04.11.08.14.13.05.05.08.09.11.14.81,1.39.52,2.55-.25,3.34h.02Z"/>
      <path d="M87.29,50.91c-9.62,2.17-7.18,16.47,2.5,15.73,11.64-.89,10.7-18.71-2.5-15.73ZM87.21,60.62c-.25-.25-.45-.57-.58-.99-.05-.14-.08-.27-.09-.42-.38-2.59,3.08-3.72,4.84-3.32.39.09.69.25.85.49,2.18,3.17-3.05,6.11-5.02,4.24Z"/>
      <path class="st1" d="M113.84,60.13c2.04,1.58-1.32,6.35-4.19,5.61-4.22-1.09,1.31-7.84,4.19-5.61Z"/>
      <path class="st1" d="M70.56,52.69c2.38,4.07-4.69,6.09-5.54,3.18-1.02-3.48,4.68-4.66,5.54-3.18Z"/>
      <path class="st1" d="M92.23,56.39c2.46,3.59-4.56,6.89-5.6,3.24s4.66-4.61,5.6-3.24Z"/>
    </g>
    <polyline class="st0" points="31.18 161.16 34.13 141.17 38.61 110.81 40.47 98.17"/>
  </g>
</svg>