<?xml version="1.0" encoding="UTF-8"?>
<svg id="Layer_1" data-name="Layer 1" xmlns="http://www.w3.org/2000/svg" viewBox="0 0 393 356.84">
  <defs>
    <style>
      .cls-1 {
        stroke-width: .25px;
      }

      .cls-1, .cls-2, .cls-3 {
        fill: none;
        stroke: #000;
        stroke-miterlimit: 10;
      }

      .cls-4 {
        fill: #fefefe;
      }

      .cls-2 {
        stroke-linecap: round;
        stroke-width: 7px;
      }

      .cls-5 {
        fill: #e8e8e8;
      }

      .cls-3 {
        stroke-width: 3px;
      }
    </style>
  </defs>
  <g>
    <path class="cls-5" d="M11.71,213.14c-.7,15.73,1.41,31.36,6.35,46.31,4.93,14.95,13.85,28.37,25.4,39.34,28.44,27.02,69.01,35.16,108.24,35.61,39.23.45,78.33-6.88,116.02-17.79,39.74-11.5,83.29-32.21,109.83-66.91,8.6-11.25,14.39-25.77,14.49-39.93s-5.96-32.88-10.47-41.59c-31.86-61.49-110.38-133.8-172.64-155.21-42.17-14.5-64.89-2.3-79.45,2.95C84.77,32.01,15.94,117.99,11.71,213.14Z"/>
    <path class="cls-3" d="M51.95,280c17.59,24.84,49.23,48.85,81.57,60.92,37.77,14.11,67.89,15.34,102.25,11.96,19.2-1.89,40.28-9.96,55.25-22.15,15.82-12.88,27.38-26.55,35.83-48.09,7.45-18.99,13.81-37.59,18.48-57.45,5.54-23.54,9.72-49.14,7.83-73.71-1.12-14.5-6.34-28.18-12.51-41.35-6.17-13.17-15.94-25.51-28.03-33.6-15.61-10.44-35.03-14-53.81-14.32-54.09-.94-105.68,3.77-160.07,14.05-16.67,3.15-34.33,9-50.39,14.47s-28.5,11.43-37.1,26.05c-5.62,9.56-8.95,24.09-8.8,35.18s2.08,27.64,5.04,38.33c9.51,34.36,23.83,60.61,44.43,89.7Z"/>
  </g>
  <g>
    <path class="cls-4" d="M235.55,109.39c-.15-.21-.32-.39-.5-.56-14.4-16.24-33.19-28.71-55.14-35.09-18.16-5.28-37.3-5.97-55.46-2.02-2.08.45-3.4,2.49-2.95,4.57.39,1.8,1.97,3.02,3.72,3.04-3.64.68-7.13,1.62-10.45,2.73,5.38-20.95,9.36-54.66-12.58-74.41C94.19.46,82.16-1.14,70.78,3.5c-11.96,4.87-19.87,15.27-20.63,27.14-1.05,16.23,14.36,44.29,45.87,60.04-5.02,2.95-8.73,5.68-10.7,7.22,1.31-1.34,1.47-3.47.3-5.01-1.29-1.7-3.7-2.02-5.39-.73-20.68,15.74-35.11,37.66-41.74,63.38-16.22,62.92,20.73,128.67,82.34,146.57.66.2,1.31.37,1.97.55,19.02,5.17,38.52,5.31,57.01.64.27-.03.5-.1.75-.19,9.48-2.45,18.69-6.15,27.42-11.13,27.06-15.42,46.33-40.86,54.27-71.67,10.36-40.24-1.03-81.63-26.7-110.92ZM83.97,52.81l-.11-.03c-7.02-1.91-13.23-9.58-11.26-18.83,3.95-8.35,11.67-9.09,17.06-7.23,5.93,2.07,11,7.74,8.98,15.73-2.42,8.26-7.91,12.14-14.67,10.36Z"/>
    <path class="cls-4" d="M349.12,142.82c-2.3-9.64-10.37-16.21-21.58-17.58-9.89-1.2-29.33.22-48.52,23.19-.59.71-.87,1.63-.77,2.54.09.92.56,1.76,1.29,2.33.6.47,1.29,1.03,2.07,1.65,6.76,5.45,19.21,15.47,32.41,18.94,7.88,2.07,16.03,1.81,23.41-3.1,9.47-6.33,14.17-17.57,11.69-27.97ZM326.51,153.22c-2.44,3.02-6.76,4.8-10.96,2-4.37-3.19-5.48-7.04-3.05-10.59,2.56-3.74,8.36-5.8,13.41-2.76,3.95,4.01,2.82,8.6.6,11.35Z"/>
    <g>
      <g>
        <g>
          <path d="M102.19,7.65C94.19.46,82.16-1.14,70.78,3.5c-11.96,4.87-19.87,15.27-20.63,27.14-1.05,16.23,14.36,44.29,45.87,60.04,3.35,1.68,6.87,3.21,10.58,4.58.12.04.22.08.33.1.89.25,1.84.16,2.67-.24.94-.45,1.66-1.26,1.99-2.25.99-2.95,2.12-6.63,3.18-10.81,5.38-20.95,9.36-54.66-12.58-74.41ZM83.97,52.81l-.11-.03c-7.02-1.91-13.23-9.58-11.26-18.83,3.95-8.35,11.67-9.09,17.06-7.23,5.93,2.07,11,7.74,8.98,15.73-2.42,8.26-7.91,12.14-14.67,10.36Z"/>
          <path d="M235.55,109.39c-.15-.21-.32-.39-.5-.56-14.4-16.24-33.19-28.71-55.14-35.09-18.16-5.28-37.3-5.97-55.46-2.02-2.08.45-3.4,2.49-2.95,4.57.39,1.8,1.97,3.02,3.72,3.04h0c.28,0,.57-.03.85-.09,10.33-2.24,21.02-2.86,31.63-1.89-1.99,9.45-9.6,17.22-16.24,23l-1.96,1.69c-7.67,6.62-15.6,13.47-19.31,23.51-.57,1.55-1.03,3.15-1.49,4.76-.92,3.2-1.78,6.23-3.54,8.58-1.16,1.54-2.72,2.79-4.36,4.11-2.29,1.84-4.67,3.75-6.23,6.64-3.38,6.27-1.1,14,2.67,18.86,2.06,2.67,4.52,4.81,6.89,6.87,1.79,1.56,3.49,3.04,5.01,4.71,1.37,1.5,2.77,2.87,4.14,4.2,4.52,4.41,8.1,7.89,8.63,14.27.65,7.65-10.37,42.3-16.14,55.4-.68-.55-1.35-1.13-1.97-1.71l-14.3-13.45c-5.19-4.88-7.15-8.56-6.35-11.95.7-2.95,3.48-5.23,6.41-7.65.57-.46,1.13-.93,1.67-1.38,4.83-4.11,9.11-10.77,6.61-17.17-1.71-4.39-6.24-7.04-11.86-6.94-1.74.04-3.38.3-4.96.54-1.68.25-3.25.49-4.68.43-5.38-.24-10.03-5.9-9.94-12.11.02-1.21.17-2.53.33-3.94.46-4.1.99-8.76-1.76-12.63-2.79-3.95-7.16-4.57-10.68-5.08-1.07-.15-2.12-.29-3.13-.54-3.16-.94-6.17-3.59-7.48-7.14-1.36-3.71-1.21-14.46.67-18.18.02-.02.01-.04.02-.06,7.04-13.96,16.95-26.11,29.35-35.81,0,0,.01,0,.04-.03.37-.3.74-.58,1.12-.87.15-.12.29-.24.43-.38,1.31-1.34,1.47-3.47.3-5.01-1.29-1.7-3.7-2.02-5.39-.73-20.68,15.74-35.11,37.66-41.74,63.38-16.22,62.92,20.73,128.67,82.34,146.57.66.2,1.31.37,1.97.55,19.02,5.17,38.52,5.31,57.01.64.27-.03.5-.1.75-.19,9.48-2.45,18.69-6.15,27.42-11.13,27.06-15.42,46.33-40.86,54.27-71.67,10.36-40.24-1.03-81.63-26.7-110.92ZM125.32,295.34c1.81-2.2,3.25-4.7,4.66-7.15.65-1.12,1.3-2.21,1.95-3.25,2.4,2.62,5.99,3.75,7.85,4.32l18.64,5.64c1.74.53,3.54,1.08,4.75,2.2.34.32.64.77.87,1.26-12.8,1.41-25.87.41-38.72-3.02ZM254.79,218.39c-7.41,28.77-25.38,52.53-50.62,66.9-6.71,3.83-13.74,6.84-20.95,9.07-.87-5.84-4.59-11.02-9.85-12.95-2.16-.79-4.33-1.01-6.25-1.19-1.28-.12-2.47-.24-3.53-.5-2.38-.53-4.62-2.07-7.01-3.63-1.13-.73-2.25-1.46-3.4-2.13-7.29-4.2-14.73-4.6-20.41-1.09-4.42,2.73-6.98,7.19-9.46,11.49-1.97,3.42-3.86,6.61-6.38,8.39-54-19.17-85.63-78.45-70.99-135.3.15-.57.33-1.13.49-1.71.01.05.02.1.04.16,2.2,5.95,7.11,10.34,12.78,11.92,1.33.35,2.67.54,3.96.72,2.87.41,4.68.74,5.5,1.89,1.05,1.49.73,4.32.38,7.32-.17,1.53-.36,3.11-.38,4.7-.14,10.36,7.76,19.47,17.3,19.91,2.18.1,4.22-.21,6.18-.52,1.4-.21,2.72-.41,3.95-.44,1.72-.03,3.93.48,4.54,2.03.91,2.35-1.54,6.06-4.42,8.51-.51.44-1.04.87-1.56,1.31-3.63,2.97-7.73,6.34-9.03,11.82-2.17,9.22,5.63,16.57,8.57,19.33l14.3,13.45c3.83,3.6,7.17,5.48,10.03,6.26,3.95,1.07,6.98.05,9.13-1.41,3.94-2.68,5.5-7.51,6.54-10.69l12.92-39.85c1.8-5.55,4.26-13.15,2.42-20.3-1.6-6.27-6.02-10.58-9.56-14.03l-16.08-15.69c-1.33-1.3-2.7-2.63-3.37-4.13-.52-1.14-.54-2.52-.06-3.25.5-.78,1.65-1.17,3.48-1.75,1.86-.59,3.98-1.27,5.87-2.83,3.01-2.48,4.72-6.66,4.97-12.1.04-1.01.05-2.02.05-3.03.01-2.29.01-4.44.55-6.32.95-3.36,3.79-6.46,8.42-9.21,1.2-.71,2.44-1.38,3.68-2.04,3.34-1.81,6.8-3.66,9.86-6.52,4.37-4.06,7.19-9.49,9.68-14.28l1.54-2.92c2.35-4.44,4.39-8.41,6.15-13.4,1.01.26,2.01.48,3,.77,17.75,5.16,33.3,14.58,45.9,26.85-6.3.79-12.96,2.96-17.55,7.37-4.08,3.93-6.41,9.73-6.22,15.51.14,3.87,1.46,7.62,3.63,10.61-3.29,2.21-6.58,4.84-9.14,8.49-3.27,4.63-4.03,10.63-2.32,18.32,1.24,5.54.63,9.96-1.8,13.13-2.42,3.17-5.79,4.01-6.78,4.06-2.12.1-5.3.42-8.17,2.13-3.25,1.94-5.4,5.3-5.64,8.78-.4,5.77,3.86,9.2,6.97,11.7l1.16.95c4.15,3.47,6.89,8.87,7.5,14.81.63,6.04-.95,12.42-4.35,17.48-.47.71-.98,1.4-1.49,2.09-1.28,1.73-2.6,3.52-3.59,5.74-1.52,3.39-2.18,8.64.94,12.26.94,1.09,2.26,2.1,4.06,2.59,2.65.72,6.37.32,11.51-2.56l8.49-4.76c6.29-3.53,13.43-7.53,19.1-13.58,6.6-7.02,10.06-16.03,9.28-24.09-.54-5.47-2.93-10.25-4.88-14.16-1.92-3.81-3.73-7.43-4.21-11.33-.47-3.82.66-7.57,2.79-9.35,2.82-2.34,7.22-1.04,10.12,1.43,2.15,1.85,3.98,4.28,5.9,6.86,1.43,1.91,2.9,3.88,4.59,5.7,4.19,4.53,9.08,6.93,13.78,6.99-.59,4.42-1.41,8.84-2.55,13.24ZM246.57,175.83c-7.79-7.9-15.31-11.88-22.36-11.84-5.3.04-10.15,2.32-14.44,6.78-6.15,6.39-4.75,19.05-3.16,28.01.38,2.14.91,4.39,1.46,6.72,1.46,6.19,2.96,12.6,1.9,18.03-1.27,6.59-6.63,10.91-11.82,15.09-3.23,2.61-6.82,4.64-10.48,6.47,4.14-6.46,6.08-14.45,5.29-22.05-.82-7.9-4.55-15.16-10.22-19.92-.41-.34-.84-.69-1.28-1.04-2.56-2.06-4.23-3.53-4.12-5.17.06-.96.85-2.06,1.9-2.69,1.07-.64,2.49-.97,4.59-1.06,3.68-.17,8.99-2.42,12.55-7.07,2.66-3.48,5.38-9.69,3.19-19.49-1.21-5.45-.85-9.44,1.1-12.21,2.72-3.86,6.91-6.45,10.96-8.95,1.1-.69,1.78-1.87,1.83-3.17.03-1.29-.59-2.52-1.65-3.26-2.48-1.74-4.1-4.96-4.22-8.41-.12-3.58,1.36-7.3,3.86-9.71,4.39-4.21,12.63-5.78,19.1-5.56,16.43,19.14,26.44,43.65,27.68,69.42-4.13-1.68-8.31-5.52-11.66-8.92Z"/>
        </g>
        <path d="M349.12,142.82c-2.3-9.64-10.37-16.21-21.58-17.58-9.89-1.2-29.33.22-48.52,23.19-.59.71-.87,1.63-.77,2.54.09.92.56,1.76,1.29,2.33.6.47,1.29,1.03,2.07,1.65,6.76,5.45,19.21,15.47,32.41,18.94,7.88,2.07,16.03,1.81,23.41-3.1,9.47-6.33,14.17-17.57,11.69-27.97ZM326.51,153.22c-2.44,3.02-6.76,4.8-10.96,2-4.37-3.19-5.48-7.04-3.05-10.59,2.56-3.74,8.36-5.8,13.41-2.76,3.95,4.01,2.82,8.6.6,11.35Z"/>
      </g>
      <path class="cls-2" d="M129.02,22.39c5.66-.91,11.44-1.32,17.21-1.22"/>
      <path class="cls-2" d="M165.87,22.38c6.6,1.16,13.19,2.32,19.79,3.48"/>
      <path class="cls-2" d="M201.48,30.55c5.22,1.96,10.31,4.26,15.24,6.88"/>
      <path class="cls-2" d="M229.09,43.87c5.26,2.63,10.19,5.92,14.64,9.75"/>
      <path class="cls-2" d="M255.36,63.32c3.59,2.5,6.85,5.46,9.67,8.79"/>
      <path class="cls-2" d="M272.66,81.58c2.82,3.54,5.65,7.07,8.47,10.61"/>
      <path class="cls-2" d="M287.69,102.31c2.97,6.18,5.94,12.36,8.92,18.54"/>
    </g>
    <path class="cls-1" d="M127.52,78.94c-.77.12-1.53.25-2.29.39h-.01c-3.64.68-7.13,1.62-10.45,2.73-7.27,2.43-13.68,5.64-18.75,8.62-5.02,2.95-8.73,5.68-10.7,7.22-1.04.8-1.59,1.28-1.59,1.28"/>
  </g>
</svg>