<?xml version="1.0" encoding="UTF-8"?>
<svg id="Layer_1" data-name="Layer 1" xmlns="http://www.w3.org/2000/svg" viewBox="0 0 310 296.41">
  <defs>
    <style>
      .cls-1 {
        fill: #fff;
      }

      .cls-2 {
        fill: #dcdcdc;
      }
    </style>
  </defs>
  <g>
    <path class="cls-1" d="M100.28,130.89c1.07-1.45,24.61-6.04,26-4.63-1.26,11.41-1.2,22.94-1.04,34.45.15,10.6,2.96,22.76,0,32.8-2.45,3.37-14.3,3.31-16.66,1.28-1.73-1.49-1.83-16.47-2.36-20.07-1.25-8.44-3.47-16.75-4.7-25.2-.52-3.61-2.82-16.5-1.24-18.63Z"/>
    <path class="cls-1" d="M131.34,105.96c.53-1.89,9.29-2.15,11.68-2.33,4.42-.32,15.08-2.24,16.12,3.23l-.95,82.7c-1.06,5.52-15.69,3.3-19.99,2.03l-1.95-12.02c.56-24.65-1.25-49.27-4.91-73.61Z"/>
    <path class="cls-1" d="M163.08,149.82c.39-2.01,22.43-4.19,25.5-3.62,1.11.21,1.86.5,2.49,1.49-1.36,11.03,1.82,26.42,0,36.88-1.52,8.67-17.97,8.17-24.5,5.55.18-13.51-.6-27.06-3.49-40.3Z"/>
    <path class="cls-1" d="M202.07,155.62l-3.03-33.34c5.38.97,15.8-1.33,20.44,0,2.91.83,4.12,8.71,4.47,11.47,1.95,15.52-.98,34.67.91,50.72-.42,2.29-.83,4.77-3.12,5.85-2.43,1.16-16.39,2.26-18.46.49-2.39-2.05-.98-29.69-1.21-35.19Z"/>
    <path class="cls-1" d="M250.88,193.04c-.39,8.56-7.73,12.5-14.47,15.94-1.38-3.54,2.17-6.86,2.99-9.97-38.18,1.67-76.35,5.53-114.55,6.99-8.36.32-23.38,1.62-31.04.85-1.45-.15-4.09-.28-5.15-1.13-3.7-2.96-2.04-23.48-2.25-29.2-.98-26.64-3.63-53.48-1.01-80.16l-3.49,3.99c-1.32.33-2.46-1.13-2.48-2.43,0-.83,5.57-14.21,6.07-14.92,4.46-6.23,17.09,8.88,14.85,11.37l-10.94-6.98,2.97,114.62c9.12-.27,18.28-.58,27.41-1.01,37.05-1.74,74.49-4.42,111.64-5.05,3.24-.05,7.18.82,10.47,1.07-1.99-4.04-12.86-2.63-12.96-7.46-.05-2.15,19.71,3.22,21.94,3.48Z"/>
    <g>
      <path d="M159.14,106.86l-.95,82.7c-1.06,5.52-15.69,3.3-19.99,2.03l-1.95-12.02c.56-24.65-1.25-49.27-4.91-73.61.53-1.89,9.29-2.15,11.68-2.33,4.42-.32,15.08-2.24,16.12,3.23Z"/>
      <path d="M250.88,193.04c-.39,8.56-7.73,12.5-14.47,15.94-1.38-3.54,2.17-6.86,2.99-9.97-38.18,1.67-76.35,5.53-114.55,6.99-8.36.32-23.38,1.62-31.04.85-1.45-.15-4.09-.28-5.15-1.13-3.7-2.96-2.04-23.48-2.25-29.2-.98-26.64-3.63-53.48-1.01-80.16l-3.49,3.99c-1.32.33-2.46-1.13-2.48-2.43,0-.83,5.57-14.21,6.07-14.92,4.46-6.23,17.09,8.88,14.85,11.37l-10.94-6.98,2.97,114.62c9.12-.27,18.28-.58,27.41-1.01,37.05-1.74,74.49-4.42,111.64-5.05,3.24-.05,7.18.82,10.47,1.07-1.99-4.04-12.86-2.63-12.96-7.46-.05-2.15,19.71,3.22,21.94,3.48Z"/>
      <path d="M223.95,133.75c-.35-2.76-1.56-10.64-4.47-11.47-4.64-1.33-15.06.97-20.44,0l3.03,33.34c.23,5.5-1.18,33.14,1.21,35.19,2.07,1.77,16.03.67,18.46-.49,2.29-1.08,2.7-3.56,3.12-5.85-1.89-16.05,1.04-35.2-.91-50.72ZM204.02,127.25l6.98.02-6.97,4.97v-4.99ZM205.52,135.24c.3-.49,7.98-7.23,8.49-7.46,1.63-.72,3.26-.6,4.96-.51.31,1.85-1.3,2.87-2.46,4-3.41,3.31-8.03,6.45-11.48,9.94.1-1.88-.53-4.28.49-5.97ZM209.66,182.73c-.54.5-3.5,2.51-3.63,2.34-1.98-10.85,6.04-16.35,13.93-21.93-.24,2.81.7,6.34-.5,8.95-.61,1.33-8.15,9.09-9.8,10.64ZM211,186.05c.72-1.36,7.86-9.2,8.97-7.96.82,7.26-2.5,8.14-8.97,7.96ZM208,170.11c-2.79-.89-1.08-5.8-.01-7.5.79-1.26,11.47-11.13,11.97-10.43,2.04,9.17-9.37,11.02-11.96,17.93ZM213,150.17l6.96-7.96c.85,4.21-2.39,9.85-6.96,7.96ZM206.03,150.18c-1.85-5.54,1.78-7.51,5.5-10.93.83-.77,7.83-6.72,8.44-6.01,3.61,4.26-11.3,14.46-13.94,16.94Z"/>
      <path d="M125.24,160.71c-.16-11.51-.22-23.04,1.04-34.45-1.39-1.41-24.93,3.18-26,4.63-1.58,2.13.72,15.02,1.24,18.63,1.23,8.45,3.45,16.76,4.7,25.2.53,3.6.63,18.58,2.36,20.07,2.36,2.03,14.21,2.09,16.66-1.28,2.96-10.04.15-22.2,0-32.8ZM122.08,132.48l-1.84,22.22c.19,9.27,2.74,23.55,1.39,32.2-.22,1.4-.37,3.5-1.97,4.06-.85.3-8-.65-8.29-.95-.52-.56-.85-13.05-1.17-15.29-.95-6.83-4.58-18.24-4.56-24.24.01-2.99,7.16-12.62,5.68-14.25-1.98-.39-2.35.95-3.19,2.28-1.2,1.9-1.08,4.94-2.78,5.69l-1.08-9.33c.16-.84,15.71-4.61,16.56-4.5.42.05,1.77,1.34,1.25,2.11Z"/>
      <path d="M191.07,147.69c-.63-.99-1.38-1.28-2.49-1.49-3.07-.57-25.11,1.61-25.5,3.62,2.89,13.24,3.67,26.79,3.49,40.3,6.53,2.62,22.98,3.12,24.5-5.55,1.82-10.46-1.36-25.85,0-36.88ZM187.12,168.66c-.11,2.26-1.13,14.76-1.52,15.42-1.55,2.61-13.39,3.45-16.47,1.97,2.64-10.76-1.24-21.88.02-32.87l17.93-2c-.24,5.79.32,11.69.04,17.48Z"/>
      <path d="M113.32,141.22c-1.82,2.61.67,4.61.56,6.05-.09,1.12-3.34,8.81-4.04,8.87-2.26.21-.33-3.8-.42-4.32-.15-.98-2.2-.06-1.98-1.92.16-1.29,3.99-10.7,5.88-8.68Z"/>
      <path d="M179.1,164.14c1.26,1.35-4.36,9.51-5.98,7.96.09-1.4,4.03-10.03,5.98-7.96Z"/>
      <path d="M178.11,159.16c.46.35-5.35,10.57-6.98,8.95,1.39-1.48,3.77-11.41,6.98-8.95Z"/>
    </g>
  </g>
  <path class="cls-2" d="M309.1,146.42c.17,4.29.34,9.75,0,13.95-3.51,43.56-30.23,100.11-70.68,120.14-59.7,29.55-126.1,12.54-179.66-20.67C2.14,224.74-13.03,143.68,13.07,84.95,44.49,14.28,149.52-21.43,217.48,15.34c47.89,25.91,89.38,75.15,91.62,131.08ZM273.24,68.67c.7-.69-4.64-7.04-5.46-7.98C213.67-1.4,141.23-13.69,69.72,29.01-6.69,74.63-19.89,190.62,48.64,248.05c1.72,1.44,11.95,9.29,13.41,8l-19.34-25.99C15.42,193.43.31,96.36,39.67,65.72c2.54-1.98,6.34-5.34,7.44-.54-12.25,7.12-18.89,19.89-22.63,33.18-15.58,55.46,6.05,125.68,50,162.7,27.77,23.39,96.81,17.02,129.79,7.22,112.32-33.38,138.4-154.15,37.01-219.94-14.15-9.18-24.89-11.86-39.56-18.22-5.07-2.2-3.61-4.71,1.04-4.09,13.29,1.78,42.53,19.6,53.45,28.31,4.95,3.95,8.95,8.53,13.55,12.36,1.12.93,1.61,2.42,3.48,1.99ZM288.18,218.18c-1.53-1.69-7.48,7.91-8.45,8.98-36.46,40.31-98.23,57.05-151.42,53.8-6.75-.41-14.36-2.57-20.94-2.99-1.98-.13-1.56.21-1.48,1.98,65.12,24.58,156.91,12,182.29-61.77Z"/>
</svg>