<?xml version="1.0" encoding="UTF-8"?>
<svg id="Layer_1" xmlns="http://www.w3.org/2000/svg" version="1.1" viewBox="0 0 303.83 262.6">
  <!-- Generator: Adobe Illustrator 30.0.0, SVG Export Plug-In . SVG Version: 2.1.1 Build 123)  -->
  <defs>
    <style>
      .st0 {
        fill: #fff;
      }

      .st1 {
        fill: #f2c316;
      }

      .st2 {
        fill: none;
        stroke: #000;
        stroke-linecap: round;
        stroke-miterlimit: 10;
        stroke-width: 4px;
      }
    </style>
  </defs>
  <path class="st1" d="M136.56.12c61.02,10.15,153.05,90.89,167.2,151.19C309.23,270.77,2.4,316.45,0,174.46v-9.96C7.67,99.58,55.74-4.01,136.56.12Z"/>
  <g>
    <path class="st0" d="M230.66,146.38c-4.69,14.08-11.37,24.22-23.71,35.8,2.34,15.84-4.9,35.57-19.56,53.21-.59.72-1.46,1.14-2.37,1.14-.07,0-.12-.03-.18-.03-.97-.05-1.89-.54-2.4-1.36l-7.07-10.69s-.05-.07-.07-.13c-.15-.27-.3-.59-.37-.91,0-.05-.03-.09-.03-.09v-.03c-1.08-6.22-2.15-12.13-3.54-17.7-11.49,4.95-23.58,7.48-35.38,7.48-10.16,0-20.12-1.86-29.34-5.6-17.43-7.09-32.17-23.47-40.43-36.8-.16-.26-.33-.52-.47-.77-.88-1.07-1.73-2.18-2.55-3.29-7.08-9.59-12.05-20.73-14.19-32.51-1.7-9.51-1.55-19.32.42-29.12,7.05-34.8,37.49-62.87,75.74-69.83,19.48-3.54,39.13-.07,53.91,9.5,3.15,2.04,6.15,4.44,9.06,7.11,24.46,16.85,35.34,37.15,40.18,51.23,6.27,18.32,5.33,34.41,2.35,43.38h0Z"/>
    <g>
      <path d="M228.31,103c-4.84-14.08-15.72-34.38-40.18-51.23-2.91-2.68-5.91-5.08-9.06-7.11-14.78-9.57-34.43-13.04-53.91-9.5-38.25,6.97-68.69,35.03-75.74,69.83-1.97,9.8-2.12,19.6-.42,29.12,2.14,11.78,7.11,22.92,14.19,32.51.82,1.12,1.66,2.22,2.55,3.29.15.25.32.51.47.77,8.26,13.33,23,29.71,40.43,36.8,9.23,3.74,19.19,5.6,29.34,5.6,11.8,0,23.88-2.53,35.38-7.48,1.39,5.57,2.46,11.48,3.54,17.7v.03s.03.05.03.09c.07.33.22.64.37.91.03.06.03.11.07.13l7.07,10.69c.51.82,1.43,1.31,2.4,1.36.06,0,.1.03.18.03.91,0,1.79-.43,2.37-1.14,14.66-17.64,21.9-37.38,19.56-53.21,12.33-11.58,19.02-21.72,23.71-35.8,2.98-8.97,3.92-25.06-2.35-43.38h0ZM211.25,130.32c-2.58,13.99-10.36,27.26-22.49,38.4-.79.74-1.16,1.79-.97,2.87,2.96,15.09-.07,30.88-8.08,43.48-2.01-10.66-4.47-20.88-8.99-29.96-.45-.9-1.26-1.5-2.18-1.66-.2-.06-.4-.08-.6-.08-.46,0-.91.11-1.36.33-1.77.84-3.52,1.64-5.31,2.35-1.45.6-2.91,1.15-4.4,1.66-.41.15-.82.29-1.23.43-1.13.38-2.26.74-3.4,1.07-1.17.35-2.35.67-3.53.98-3.16.79-6.34,1.4-9.52,1.83-.97.14-1.94.27-2.91.36-.47.06-.95.1-1.42.15h-.02c-11.58,1-23.02-.38-33.42-4.22-7.8-2.88-15.02-7.19-21.33-12.56h0c-.06-.05-.12-.1-.18-.16-1.03-.88-2.05-1.79-3.02-2.74-1.85-1.76-3.61-3.62-5.27-5.57h-.03c-.51-.59-1-1.2-1.49-1.8-.07-.08-.14-.18-.2-.26-.95-1.19-1.86-2.41-2.72-3.67-.11-.16-.23-.32-.33-.48v-.02c-.15-.21-.3-.43-.43-.64-5.58-8.22-9.51-17.56-11.28-27.36-1.56-8.75-1.43-17.76.4-26.8,6.54-32.34,35-58.46,70.77-64.97,17.95-3.25,35.96-.13,49.43,8.59,9.54,6.18,17.92,15.73,24.89,28.34,6.92,12.55,14.4,31.75,10.66,52.13h0l-.04-.02Z"/>
      <g>
        <path d="M140.02,139.44c17.19-4.31,27.3-21.48,25.63-38.79-1.38-14.35-12.1-27.57-27.05-28.91-2.38-.21-4.61-.46-6.79-.52-3.13-.09-6.18.17-9.47,1.39-18.91,7.02-28.88,35.09-16.21,51.65l4.83,5.65c-6.19,0-13,.29-18.77,2.79-2.37,1.04-4.63,2.28-6.74,3.72,0,0-.02,0-.02.02-1.06.71-2.06,1.46-3.07,2.29-.51.41-.99.82-1.47,1.26-2.4,2.12-4.58,4.5-6.49,7.07-.41.53-.76,1.03-1.13,1.58-.72,1.04-1.4,2.1-2.05,3.21-1.66,2.83-3.15,5.75-4.84,8.57-.15.26-.31.52-.46.78l3.19,5.09c.26-.34.51-.7.76-1.05,1.51-2.06,2.93-4.16,4.29-6.31,1.39-2.21,2.63-4.51,4.11-6.67,1.4-2.06,2.99-4,4.75-5.77,3.51-3.54,7.67-6.43,12.28-8.35,3.74-1.57,9.82-2.08,13.91-2.15.73,0,1.46,0,2.19.02,12.51.38,25.06,6.02,32.56,16.18,5.76,7.79,8.09,17.89,6.7,27.46-.03.23-.06.45-.09.67,0,.04-.02.08-.02.12-.05.26-.08.52-.14.78-.27,1.48.62,2.94,2.06,3.39.25.08.48.12.74.14h.14c1.41.05,2.72-.89,3.08-2.33.02-.06.03-.1.04-.16.26-1.43.46-2.92.6-4.36.96-10.85-2.23-22-9.04-30.54-2.35-2.98-5.11-5.51-8.01-7.91h0ZM117.81,127.59c-9.41-7.44-13.33-17.3-10.09-29.11,2.84-10.38,11.84-21.46,23.18-21.12,1.23.04,2.49.21,3.78.53l-5.22,2.3c-1.09.74-4.98,2.26-5.5,3.23-.74,1.31.23,2.79,1.59,2.84.19,0,.39-.02.59-.07,3.96-2.18,8.08-4.2,12.34-5.78.77-.29,3.71-1.45,4.25-1.47h.07c.62.02,2.63.85,3.12,1.15.16.09.27.33-.04.4-3.91,1.45-7.57,3.41-11.27,5.28-1.29,1.19-.82,3.3,1.04,3.4h.03c.96.03,4.74-2.31,5.9-2.86,2.62-1.25,5.36-2.28,8.05-3.35.07-.02.13-.03.19-.03.18,0,.33.08.49.17.4.26,1.89,1.81,2.31,2.28,11.24,12.49,8.62,33.44-4.61,43.54-4.61,3.53-9.54,5.08-14.45,4.93-5.42-.17-10.83-2.39-15.74-6.27h0Z"/>
        <path d="M150.22,109c-.11-.02-.21-.04-.31-.04-1.7-.06-2.41,2.59-3.31,3.84-3.19,4.45-7.85,6.35-12.41,6.21-7.47-.22-14.66-5.94-14.63-14.92,0-1.83,1.31-4.92-1.12-5.49-.14-.03-.27-.05-.39-.06-2.27-.07-2.25,4.39-2.22,5.98.17,10.84,9.02,17.96,18.29,18.24,5.04.16,10.21-1.71,14.16-6.1,1.23-1.36,5.61-6.89,1.94-7.66h-.02.02Z"/>
        <path d="M129.29,101.64c.26,0,.52-.04.79-.15,1.53-.62,2.05-3.78,2.12-5.33.07-1.29-.55-2.59-1.67-2.62-.32,0-.68.08-1.07.31-1.37.77-.86,1.98-1.14,3.22-.28,1.18-1.22,2.42-.58,3.57.35.63.93.98,1.55,1h0Z"/>
        <path d="M140.11,103.9c.21,0,.44-.02.67-.08,1.39-.41,2.12-3.73,2.83-4.96.14-1.17-.76-2.19-1.84-2.23-.29,0-.59.06-.88.2-.33.17-.71.64-.89.98-.4.7-1.55,3.25-1.66,3.97-.2,1.2.7,2.09,1.79,2.13h-.02Z"/>
        <path class="st2" d="M134.17,163.82c4.57,9.76,3.56,20.45,1.68,31.03"/>
        <path class="st2" d="M93.02,151.64c-8.13,7.09-11.54,17.25-14.1,27.69"/>
      </g>
      <path d="M156.8,179.79l-1.57,11.44c-2.13.71-4.6.91-6.8.46.73-3.91,1.47-7.82,2.21-11.73,1.66-.72,4.38-.48,6.17-.16h0Z"/>
    </g>
  </g>
</svg>