<?xml version="1.0" encoding="UTF-8"?>
<svg id="Layer_1" data-name="Layer 1" xmlns="http://www.w3.org/2000/svg" viewBox="0 0 360 296.4">
  <defs>
    <style>
      .cls-1 {
        fill: #fff;
      }

      .cls-2 {
        fill: #dcdcdc;
      }
    </style>
  </defs>
  <path class="cls-2" d="M128.62,295.66h-22.94c-23.38-1.99-31.49-10.67-50.17-19.13-16.67-7.55-31.69-6.53-43.38-24.41C-4.6,226.53.15,164.07,8.45,135.2,18.76,99.37,53.82,47.3,83.83,25.16c48.96-36.13,130.19-27.74,182.77-3.43,86.03,39.76,134.75,147.75,43.41,212.53-44.35,31.46-125.73,55.97-179.8,60.48l-1.59.92ZM227.54,13.83c-.47.29-.61,1.74-1.15,2.28l-1.52.56c-3.73-1.78-7.06-5.82-11.21-6.82-18.69-4.48-49.39-2.04-68.27,2.08C43.81,34.12-35.39,158.98,35.46,251.73c7.74,10.13,16.5,19.65,29.13,22.71,61.52,14.89,143.2-2.85,198.33-32.42,58.72-31.5,74.57-74.6,60.86-139.91-9.97-47.51-42.38-73.38-89.44-81.04-1.42-.9-1.42-2.12-.05-3.01,2.04-1.31,6.17.81,7-1.45-3.07-.86-11.04-4.46-13.76-2.78ZM137.59,8.64c-22.14,1.27-46.75,13.15-62.35,28.87-1.15,1.16-2.78,2.12-2.46,4.01l27.9-17.46,36.92-15.42ZM71.78,280.72c.56,1.78,2.77,2.45,4.3,3.16,36.18,16.88,97.14,1.18,134.31-9.65,66.45-19.36,155.8-56.62,143.47-141.39-3.69-25.36-21.47-58-41.25-74.39-1.12-.93-1.61-2.42-3.49-1.99,2.97,6.33,7.24,11.84,10.14,18.26,14.51,32.11,17.88,84.62,2.99,116.95-26.41,57.35-133.88,89.02-192.15,92.01-19.61,1.01-38.88-1.29-58.33-2.97ZM43.85,267.75c-12.44-13.47-23-28.37-29.68-45.57-2.37-6.1-3.68-13.07-5.93-18.99-.48-1.26-.59-2.93-2.27-3.21-1.38,28.85,4.48,62.24,37.88,67.76Z"/>
  <path d="M230.34,110.28c8.29-4.06,19.96-6.24,26.91,1.51,14.66,16.35-12.68,48.36-29.86,52.85-4.5,1.18-9.19-.86-11.01,3.96,14.99.98,40.19,10.86,25.33,29.3-7.12,8.84-29.84,13.4-40.94,14.9-27.37,3.7-89.23,1.9-112.71-11.65-28.66-16.54,16.27-31.39,30.58-33.07-18.99-16.69-26.32-50.28-17.43-73.72,2.89-7.62,9.71-9.31,17.2-10.71,21.31-4.01,63.64-2.77,85.23.98,13.4,2.32,30.25,9.01,26.69,25.65ZM222.35,102.31c.7-3.9-4.6-5.8-7.44-7-25.15-10.66-71.71-12.22-98.1-5.29-3.06.8-6.64,1.79-9.12,3.82,0,5.16,16.37-.67,19.72-1.2,31.3-5.01,65.88-3.4,94.94,9.67ZM223.36,108.29c-2.51,1.05-5.1,2.08-7.78,2.69-22.92,5.29-81.82,1.75-103.61-7.48-2.45-1.04-4.6-2.71-6.8-4.17-.31-.1-1.49,2.34-1.49,2.48v23.92c0,40.36,58.98,66.49,92.73,51.81,8.09-3.52,19.91-15.65,21.53-24.43.48-2.58-.74-3.77-.63-5.33.05-.7,1.78-.55,2.35-1.85.62-1.42,3.69-15.96,3.69-17.21v-20.43ZM222.36,157.12c19.37,2.57,52.53-47.76,18.45-44.85-8.48.72-12.08,4.35-10.48,12.97,16.91-1.99,11.36,14.99,2.33,21.75-4.91,3.67-8.84,3.02-10.3,10.13ZM227.36,142.18c4.23-2.21,9.27-6.25,7.02-11.49l-5.03-.46-1.99,11.96ZM134.6,177.07c-3.7-.19-7.78-5.08-10.73-5.81-2.7-.67-23.72,7.06-27.54,8.91-9.98,4.83-18.81,9.96-4.59,17.3,19.55,10.1,75.43,12.85,98.08,10.36,10.45-1.15,38.06-5.74,45.53-12.3,15.73-13.81-14.86-18.33-23.49-20.39l-6.45,4.42c9.96,2.57,11.31,10.29,1.28,14.24-19.87,7.83-60.79,6.34-81.28-.07-3.84-1.2-12.32-5.13-7.77-10.2l16.95-6.45Z"/>
  <path class="cls-1" d="M223.36,108.29v20.43c0,1.25-3.08,15.79-3.69,17.21-.56,1.3-2.3,1.15-2.35,1.85-.11,1.56,1.1,2.75.63,5.33-1.62,8.78-13.44,20.91-21.53,24.43-33.75,14.68-92.73-11.46-92.73-51.81v-23.92c0-.14,1.17-2.59,1.49-2.48,2.2,1.46,4.35,3.13,6.8,4.17,21.79,9.23,80.69,12.77,103.61,7.48,2.67-.62,5.26-1.65,7.78-2.69ZM184.27,174.83c2.36-1.32,3.53-8.83-.79-9.73.78,3.92-1.1,6.47-2,9.96.92-.05,1.92.26,2.79-.23ZM180.47,176.06c.75-.86-1.48-10.81-4.98-9.96-.75.86,1.48,10.81,4.98,9.96ZM170.48,169.1c-1.87-.39-2.19.14-2.5,1.96-.76,4.5,3.04,8.3,7.5,8l-5-9.95Z"/>
  <path class="cls-1" d="M134.6,177.07l-16.95,6.45c-4.55,5.07,3.92,9,7.77,10.2,20.5,6.41,61.41,7.9,81.28.07,10.03-3.95,8.68-11.67-1.28-14.24l6.45-4.42c8.63,2.06,39.22,6.59,23.49,20.39-7.48,6.56-35.08,11.15-45.53,12.3-22.65,2.5-78.54-.26-98.08-10.36-14.22-7.34-5.39-12.47,4.59-17.3,3.82-1.85,24.84-9.57,27.54-8.91,2.95.73,7.03,5.62,10.73,5.81Z"/>
  <path class="cls-1" d="M222.36,157.12c1.45-7.11,5.39-6.45,10.3-10.13,9.03-6.76,14.58-23.74-2.33-21.75-1.6-8.63,2.01-12.25,10.48-12.97,34.08-2.91.92,47.42-18.45,44.85Z"/>
  <path class="cls-1" d="M222.35,102.31c-29.06-13.07-63.64-14.68-94.94-9.67-3.34.53-19.72,6.36-19.72,1.2,2.48-2.03,6.06-3.02,9.12-3.82,26.39-6.93,72.95-5.37,98.1,5.29,2.84,1.2,8.14,3.1,7.44,7Z"/>
  <path d="M170.48,169.1l5,9.95c-4.46.31-8.27-3.49-7.5-8,.31-1.82.63-2.35,2.5-1.96Z"/>
  <path d="M180.47,176.06c-3.5.86-5.72-9.1-4.98-9.96,3.5-.86,5.72,9.1,4.98,9.96Z"/>
  <path d="M184.27,174.83c-.87.49-1.87.18-2.79.23.9-3.49,2.78-6.04,2-9.96,4.32.89,3.15,8.41.79,9.73Z"/>
</svg>