<?xml version="1.0" encoding="UTF-8"?>
<svg id="Layer_1" data-name="Layer 1" xmlns="http://www.w3.org/2000/svg" viewBox="0 0 407 368.7">
  <defs>
    <style>
      .cls-1, .cls-2 {
        fill: none;
      }

      .cls-3 {
        fill: #fefeff;
      }

      .cls-4 {
        fill: #e8e8e8;
      }

      .cls-2 {
        stroke: #000;
        stroke-miterlimit: 10;
        stroke-width: 3px;
      }
    </style>
  </defs>
  <g>
    <path class="cls-4" d="M21.2,141.82c41.23-51.89,113.13-72.67,174.38-66.91,50.29,4.73,125.14,36.58,177.13,75.62,9.71,7.29,18.24,16.28,25.33,26.14s8.93,20.67,8.16,32.79c-.99,15.72-6.96,23.52-13.78,33.53-5.74,8.42-13.61,15.2-21.63,21.5-24.86,19.53-53.26,35.1-79.56,52.63-10.44,6.96-18,17.63-26.57,26.79s-18.61,17.75-30.83,20.58c-12.85,2.97-26.68,4.17-39.44.82-35.18-9.24-59.85-26.64-86.77-44.67-27.38-18.34-54.06-38.09-74.62-63.84-10.61-13.29-18.99-27.47-23.09-43.98-5.75-23.13-3.53-52.33,11.3-71Z"/>
    <path class="cls-2" d="M310.31,291.19c18.86-63.68-5.46-134.62-45.42-181.55C232.08,71.1,162.9,28.02,100.95,7.83c-11.57-3.77-23.85-5.6-36.02-5.74-12.17-.14-22.09,4.57-31.6,12.17-12.33,9.86-15.29,19.24-19.58,30.59-3.61,9.55-4.64,19.91-5.2,30.11-1.72,31.63,1.84,63.88,2.59,95.55.3,12.56-4.11,24.91-6.69,37.21-2.58,12.3-3.86,25.48.85,37.13,4.95,12.25,11.93,24.29,22.02,32.82,27.82,23.55,56.28,33.78,86.57,45.49,30.8,11.91,62.34,22.44,95.3,24.5,17.01,1.06,33.46-.23,49.36-6.36,22.29-8.59,44.96-27.21,51.75-50.11Z"/>
    <path class="cls-1" d="M264.65,343.91c-8.57,9.16-19.05,19.39-31.27,22.22-12.85,2.97-26.25,2.52-39-.82"/>
  </g>
  <g>
    <path class="cls-3" d="M380.35,235.72c-1.09,1.32-2.32,2.43-3.6,3.4-3.15,2.35-6.72,3.8-9.76,5.02-51.45,20.76-153.18,54.19-183.13,63.95-2.49.8-5.04.67-7.36-.25-1.59-.11-3.9-.69-7.68-4.35-8.82-8.5-25.67-33.71-60.12-108.59l-41.38-27.88c-1.36-.9-1.75-2.73-.87-4.09l12.32-19.07-6.62-6.06c-.58-.54-.93-1.28-.96-2.07s.25-1.56.79-2.14l29.75-32.04-29.29-38.23c-1-1.29-.77-3.11.54-4.15L138.97,7.96c.62-.49,1.42-.7,2.21-.6.77.09,1.49.5,1.97,1.13l17.22,22.31,63.72-22.7c1.54-.55,3.25.25,3.8,1.8l22.99,64.37,1.41,3.69c19.09-7.75,38.8-13.92,58.65-18.34,8.6-1.91,18.5-3.63,27.19.35,10.08,4.61,15.16,15.27,19.15,26.11,14.78,40.12,24.16,82.52,27.89,126,.71,8.4.62,17.08-4.82,23.64Z"/>
    <g>
      <path d="M196.59,109c1.38-.98,2.07-2.76,1.59-4.49-.61-2.2-2.89-3.49-5.09-2.88l-38.01,10.52c-2.21.62-3.48,2.9-2.88,5.1.61,2.21,2.89,3.5,5.1,2.89l37.99-10.53c.49-.13.92-.34,1.3-.61Z"/>
      <path d="M122.59,56.47h.01c.25-.21.42-.47.53-.75.23-.57.16-1.23-.24-1.74-.03-.04-.08-.08-.11-.12-.56-.6-1.44-.74-2.14-.35-.09.05-.17.1-.25.16l-5.15,4-13.75,10.69c-.63.45-.83,1.25-.61,1.94.06.2.16.39.29.57.28.36.68.57,1.1.65.03,0,.06.02.1.02.45.05.92-.06,1.31-.36l18.9-14.71h.01Z"/>
      <path d="M181.62,57.95c-1.08-2.43-3.6-4.06-6.26-4.05-1.96.01-4.03,1.08-5.68,2.92-1.78,2.01-2.7,4.5-2.46,6.65.3,2.59,2.26,4.74,4.68,5.08,1.32.2,2.57-.15,3.63-.51,1.34-.44,2.83-.97,4.08-1.98.28-.22.54-.47.8-.75,1.79-1.96,2.28-4.92,1.21-7.36ZM177.78,62.9c-.81.87-2.15,1.36-3.36,1.75-.73.25-1.45.45-2.01.37-.8-.11-1.54-.99-1.64-1.96-.06-.55.06-1.22.34-1.9.28-.68.7-1.37,1.24-1.96.26-.3.53-.56.81-.79.74-.59,1.53-.93,2.22-.94,1.23-.01,2.47.8,2.97,1.93.5,1.12.26,2.59-.57,3.5Z"/>
      <path d="M139.8,32.16l.02-.02c.76-.61.89-1.72.29-2.49-.07-.09-.14-.16-.22-.23,0,0-.02-.02-.03-.03-.03-.02-.06-.04-.09-.06-.63-.47-1.52-.49-2.16,0l-30.82,23.97-10.72,8.33c-.68.55-.87,1.46-.51,2.21,0,.01.01.02.02.03.05.09.1.18.17.27.08.1.16.18.25.26.04.04.09.06.14.09.05.04.1.08.15.1.61.34,1.38.31,1.96-.15l39.47-30.7,2.07-1.61Z"/>
      <path d="M123.57,133.65l-12.96,14.92c-.65.74-.56,1.87.18,2.51.66.57,1.62.58,2.29.04.08-.06.15-.13.23-.22l12.95-14.92c.65-.74.57-1.87-.17-2.51-.75-.65-1.86-.56-2.52.18Z"/>
      <path d="M105.53,127.05l24.38-27.23c.66-.74.59-1.86-.13-2.52-.74-.66-1.86-.6-2.52.14l-29.22,32.62-3.18,3.55c-.65.73-.59,1.86.14,2.51.67.6,1.64.6,2.31.07.07-.06.14-.13.21-.2l8-8.94h.01Z"/>
      <path d="M170.87,99.44l.28-.38c-.12.05-.23.1-.35.16h-.01s.01.01.01.01l.07.21Z"/>
      <path d="M385.17,212.08c-3.73-43.48-13.11-85.88-27.89-126-3.99-10.84-9.07-21.5-19.15-26.11-8.69-3.98-18.59-2.26-27.19-.35-19.85,4.42-39.56,10.59-58.65,18.34l-1.41-3.69-22.99-64.37c-.55-1.55-2.26-2.35-3.8-1.8l-63.72,22.7-17.22-22.31c-.48-.63-1.2-1.04-1.97-1.13-.79-.1-1.59.11-2.21.6l-65.99,51.21c-1.31,1.04-1.54,2.86-.54,4.15l29.29,38.23-29.75,32.04c-.54.58-.82,1.35-.79,2.14s.38,1.53.96,2.07l6.62,6.06-12.32,19.07c-.88,1.36-.49,3.19.87,4.09l41.38,27.88c34.45,74.88,51.3,100.09,60.12,108.59,3.78,3.66,6.09,4.24,7.68,4.35,2.32.92,4.87,1.05,7.36.25,29.95-9.76,131.68-43.19,183.13-63.95,3.04-1.22,6.61-2.67,9.76-5.02,1.28-.97,2.51-2.08,3.6-3.4,5.44-6.56,5.53-15.24,4.82-23.64ZM223.29,14.7l21.17,59.29,1.96,6.41c-1.57.66-3.21,1.36-4.89,2.01l-3.45-8.3-16.63-46.56c-.33-.93-1.35-1.41-2.28-1.08l-67.64,24.11c-.45.16-.81.5-1.01.92-.2.43-.23.91-.07,1.36l11.67,32.66-5.75,1.93-15.5-43.39,82.42-29.36ZM192.3,71.47c-1.1.19-1.72,1.04-1.99,1.4l-3.12,4.27c-.81.26-1.61.52-2.41.79l-19.28,6.46-11.09-31.05,64.28-22.91,11.22,31.39-5.81-4.57c-.39-.3-.88-.43-1.37-.36-.48.08-.92.35-1.2.76l-12.3,17.97c-3.31-1.2-6.77-1.45-10.29-1.13-1.52-.91-3.06-1.77-4.63-2.6-.36-.18-1.1-.57-2.01-.42ZM193.34,75.42c-.18.04-.37.09-.56.13l.23-.31c.11.06.22.12.33.18ZM223.4,61.24l8.54,6.73c.06.05.13.06.2.1l2.6,7.3,3.18,8.34c-5.71,1.9-11.5,2.85-16.01.46-1.49-.79-2.9-1.97-4.4-3.25-1.55-1.3-3.14-2.64-5.02-3.75l10.91-15.93ZM78.95,62.05l61.31-47.57,14.22,18.42-18.41,6.56c-.74.26-1.35.81-1.69,1.52-.33.72-.37,1.53-.11,2.28l16,44.76-17.27-15.82c-1.21-1.12-3.1-1.02-4.19.16l-22.98,24.76-26.88-35.07ZM143.27,194.94l-55.15-50.55-9.75-8.94,52.79-56.87,13.89,12.73c-4.57,1.73-9.88,4.38-13.22,9.3-2.46,3.64-3.39,7.65-3.5,11.71l-9.3,10.38-16.4,18.31c-.65.74-.59,1.87.13,2.52.67.6,1.65.61,2.32.07.07-.06.14-.13.21-.21l19.99-22.31,3.29-3.68c.1.95.24,1.89.39,2.83v.06s.02.05.03.09h0s16.7,76.77,16.7,76.77l-2.42-2.21ZM374.02,230.47c-2.27,2.72-5.77,4.29-10.12,6.03-51.19,20.67-152.7,54.02-182.59,63.75-.73.23-1.46.18-2.07-.15,0,0-.01-.01-.01-.02-.05-.02-.1-.07-.15-.09-.38-.25-.81-.7-.99-1.5-2.96-12.47-9.06-38.23-15.87-67.52-1.98-8.5-4.02-17.3-6.06-26.16-6.79-29.48-13.6-59.63-18.27-81.66-1.18-5.54-2.12-11.24-.38-15.74l.17-.18c.29-.33.44-.75.45-1.16.16-.29.33-.57.52-.85.77-1.11,1.72-2.06,2.84-2.89,2.63-1.97,6.12-3.27,10.01-4.57l.43-.14,7.21-2.42,5.75-1.92,3.38-1.13,10.52-3.52,5.86-1.96,2.74-.92c6.22-2.09,12.67-3.96,17.77-2.75.87.2,1.7.49,2.48.89,1.54.78,3.01,2.01,4.55,3.33.64.54,1.28,1.08,1.96,1.61,1.19.95,2.46,1.85,3.9,2.62,10.42,5.51,22.92.21,32.04-3.66,20.32-8.63,41.4-15.4,62.65-20.13,7.29-1.63,15.61-3.11,21.95-.21,7.71,3.53,11.72,12.94,14.86,21.47,14.19,38.54,23.28,79.22,27.1,120.94-60.07,24.5-120.24,44.74-183.85,61.85-2.21.58-3.5,2.84-2.91,5.03.59,2.2,2.85,3.51,5.03,2.91,63.06-16.94,122.76-36.98,182.32-61.16.02,4.47-.62,8.83-3.22,11.98Z"/>
    </g>
  </g>
</svg>