<?xml version="1.0" encoding="UTF-8"?>
<svg id="Layer_1" data-name="Layer 1" xmlns="http://www.w3.org/2000/svg" viewBox="0 0 294 239.25">
  <defs>
    <style>
      .cls-1 {
        fill: #f3c300;
      }

      .cls-2 {
        fill: #c29c00;
      }
    </style>
  </defs>
  <path class="cls-1" d="M293.21,5.95l-.05.34c-.03.25-.07.5-.15.79-.04.25-.08.55-.21.83l-.02.17-90.78,207.09c-.65,1.54-2.01,2.67-3.61,3.05-1.6.41-3.3-.01-4.61-1.05l-43.21-35.27-73.99,55.68s-.18.06-.22.09c-.43.29-.84.49-1.3.64-.18.05-.31.12-.49.18-.62.13-1.27.16-1.9.07l-.42-.06c-.33-.09-.61-.26-.93-.39-.2-.11-.45-.15-.65-.26-.59-.35-1.09-.8-1.48-1.33-.08-.1-.11-.19-.14-.28-.31-.47-.55-.93-.69-1.47-.09-.23-.1-.48-.14-.75-.01-.3-.14-.58-.1-.87l3.22-106.3L2.97,76.78c-1.67-1.23-2.49-3.32-2.07-5.32.42-2.04,1.98-3.66,3.97-4.1L286.53.79l.17-.02c.22-.05.44-.02.65-.03.31-.04.61-.09.91-.04.13-.03.22-.06.3-.05.34.05.62.22.95.31.16.07.33.05.54.12.04.01.08.06.11.1.09.02.21.03.25.08.15.11.31.22.42.32.24.16.43.32.58.47.11.1.28.17.39.27.07.09.11.14.14.23.08.06.12.06.15.11.15.15.17.37.27.55.18.24.36.48.49.76v.04c.07.1.06.18.08.32.09.27.09.52.14.83.04.26.13.53.14.79Z"/>
  <path class="cls-2" d="M293.07,5.16c-.05-.31-.05-.56-.14-.83-.02-.14-.01-.22-.08-.32v-.04c-.13-.28-.31-.52-.49-.76-.1-.18-.12-.4-.27-.55-.03-.05-.07-.05-.15-.11-.03-.09-.07-.14-.14-.23-.11-.1-.28-.17-.39-.27-.15-.15-.34-.31-.58-.47-.11-.1-.27-.21-.42-.32-.04-.05-.16-.06-.25-.08-.03-.04-.07-.09-.11-.1-.21-.07-.38-.05-.54-.12-.33-.09-.61-.26-.95-.31-.08-.01-.17.02-.3.05-.3-.05-.6,0-.91.04-.21.01-.43-.02-.65.03l-.17.02L4.87,67.36c-1.99.44-3.55,2.06-3.97,4.1-.42,2,.4,4.09,2.07,5.32l68.37,50.07-3.22,106.3c-.04.29.09.57.1.87.04.27.05.52.14.75.14.54.38,1,.69,1.47.03.09.06.18.14.28.39.53.89.98,1.48,1.33.2.11.45.15.65.26.32.13.6.3.93.39l.42.06c.63.09,1.28.06,1.9-.07.18-.06.31-.13.49-.18.46-.15.87-.35,1.3-.64.04-.03.18-.06.22-.09l73.99-55.68,43.21,35.27c1.31,1.04,3.01,1.46,4.61,1.05,1.6-.38,2.96-1.51,3.61-3.05L292.78,8.08l.02-.17c.13-.28.17-.58.21-.83.08-.29.12-.54.15-.79l.05-.34c-.01-.26-.1-.53-.14-.79ZM18.53,75.02L252.28,19.78,77.11,117.94l-58.58-42.92ZM86.21,217.08l27.96-64.93,27.95,22.84-55.91,42.09ZM195.07,204.53l-74.5-60.85L274.58,23.1l-79.51,181.43Z"/>
</svg>