<?xml version="1.0" encoding="UTF-8"?>
<svg id="Layer_1" xmlns="http://www.w3.org/2000/svg" version="1.1" viewBox="0 0 24 24">
  <!-- Generator: Adobe Illustrator 30.0.0, SVG Export Plug-In . SVG Version: 2.1.1 Build 123)  -->
  <defs>
    <style>
      .st0 {
        fill: #757575;
      }

      .st1 {
        fill: #f3c300;
      }
    </style>
  </defs>
  <circle class="st0" cx="10" cy="4" r="1"/>
  <circle class="st0" cx="4" cy="4" r="1"/>
  <circle class="st0" cx="7" cy="4" r="1"/>
  <circle class="st0" cx="10" cy="4" r="1"/>
  <path class="st0" d="M19.5,0H4.5C2.02,0,0,2.02,0,4.5v13c0,2.48,2.02,4.5,4.5,4.5h1c.28,0,.5-.22.5-.5s-.22-.5-.5-.5h-1c-1.93,0-3.5-1.57-3.5-3.5V8h22v9.5c0,1.27-.69,2.45-1.81,3.06-.24.14-.32.44-.19.68.14.25.44.33.68.2,1.43-.79,2.32-2.3,2.32-3.94V4.5C24,2.02,21.98,0,19.5,0ZM23,7H1v-2.5c0-1.93,1.57-3.5,3.5-3.5h15c1.93,0,3.5,1.57,3.5,3.5v2.5Z"/>
  <circle class="st0" cx="4" cy="4" r="1"/>
  <circle class="st0" cx="7" cy="4" r="1"/>
  <circle class="st0" cx="10" cy="4" r="1"/>
  <path class="st1" d="M19,15.34c-.06-.51-.42-.95-.94-1.15l-4.73-1.88c-.86-.34-1.84-.34-2.7,0l-4.71,1.88c-.57.23-.93.74-.93,1.33s.36,1.09.93,1.32l2.08.84v3.71c0,.88.51,1.68,1.31,2.05s1.71.56,2.69.56,1.89-.19,2.69-.56,1.31-1.17,1.31-2.05v-3.72l2-.8v3.63c0,.28.22.5.5.5s.5-.22.5-.5c0,0,.02-5.11,0-5.16ZM15,21.39c0,.49-.28.94-.73,1.14-1.34.62-3.19.63-4.54,0-.45-.2-.73-.65-.73-1.14v-3.31l1.63.66c.43.17.89.26,1.36.26s.92-.09,1.35-.26l1.66-.67v3.32ZM17.69,15.92l-4.73,1.89c-.62.25-1.34.25-1.96,0l-4.71-1.89c-.27-.11-.3-.32-.3-.4,0-.09.03-.29.3-.4l4.71-1.88c.62-.25,1.33-.25,1.96,0l4.73,1.88c.19.07.3.22.3.4,0,.08-.02.29-.3.4Z"/>
  <circle class="st0" cx="4" cy="4" r="1"/>
  <circle class="st0" cx="7" cy="4" r="1"/>
</svg>