<?xml version="1.0" encoding="UTF-8"?>
<svg id="Layer_1" xmlns="http://www.w3.org/2000/svg" version="1.1" viewBox="0 0 24 24">
  <!-- Generator: Adobe Illustrator 30.0.0, SVG Export Plug-In . SVG Version: 2.1.1 Build 123)  -->
  <defs>
    <style>
      .st0 {
        fill: #757575;
      }

      .st1 {
        fill: #f3c300;
      }
    </style>
  </defs>
  <path class="st1" d="M15.94,2.83c-.16-.42-.57-.71-1.02-.71h-1.4l-.5-1.41C12.86.28,12.45,0,12,0s-.86.28-1.02.71l-.5,1.41h-1.4c-.45,0-.86.28-1.01.71-.16.42-.03.9.32,1.2l1.12.92-.44,1.32c-.14.44.02.92.38,1.2.19.14.42.21.65.21s.43-.06.6-.18l1.31-.87,1.33.86c.39.25.89.23,1.25-.05.37-.28.51-.76.37-1.2l-.46-1.3,1.12-.91c.34-.29.47-.77.32-1.2ZM13.6,4.39c-.17.13-.23.35-.16.55l.57,1.63-.13.08-1.6-1.04c-.17-.11-.39-.11-.55,0l-1.58,1.06s-.04,0-.05,0l-.08-.1.55-1.65c.06-.19,0-.41-.16-.54l-1.39-1.13.06-.14h1.75c.22,0,.4-.13.47-.33l.62-1.74h.15l.62,1.74c.08.2.26.33.48.33h1.75l.06.14-1.38,1.13Z"/>
  <path class="st1" d="M23.94,5.72h-.01c-.15-.42-.56-.71-1.01-.71h-1.4l-.5-1.41c-.16-.42-.57-.71-1.02-.71s-.86.29-1.02.71l-.5,1.41h-1.4c-.45,0-.86.29-1.01.71-.16.42-.03.9.32,1.2l1.12.92-.44,1.32c-.14.44.01.92.38,1.2.19.14.41.21.65.21.22,0,.42-.06.6-.18l1.31-.87,1.33.86c.38.25.89.23,1.25-.05.37-.28.51-.76.37-1.2l-.46-1.3,1.12-.91c.34-.29.47-.77.32-1.2ZM21.6,7.28c-.17.13-.23.35-.16.55l.57,1.63-.13.09-1.6-1.05c-.17-.11-.39-.11-.55,0l-1.58,1.06s-.04.01-.05.01l-.08-.1.55-1.65c.06-.19,0-.41-.16-.54l-1.39-1.13.06-.14h1.75c.22,0,.4-.13.48-.33l.62-1.74h.15l.62,1.74c.07.2.26.33.47.33h1.75l.06.14-1.38,1.13Z"/>
  <path class="st1" d="M7.93,5.72c-.15-.42-.56-.71-1.01-.71h-1.4l-.5-1.41c-.16-.42-.57-.71-1.02-.71s-.86.29-1.02.71l-.5,1.41h-1.4c-.45,0-.86.29-1.01.71-.16.42-.03.9.32,1.2l1.12.92-.44,1.32c-.14.44.01.92.38,1.2.19.14.41.21.65.21.22,0,.42-.06.6-.18l1.31-.87,1.33.86c.38.25.89.23,1.25-.05.37-.28.51-.76.37-1.2l-.46-1.3,1.11-.91c.35-.29.48-.77.32-1.2ZM5.6,7.28c-.17.13-.23.35-.16.55l.57,1.63-.13.09-1.6-1.05c-.17-.11-.39-.11-.55,0l-1.58,1.06s-.04.01-.05.01l-.08-.1.55-1.65c.06-.19,0-.41-.16-.54l-1.39-1.13.06-.14h1.75c.22,0,.4-.13.48-.33l.62-1.74h.15l.62,1.74c.07.2.26.33.47.33h1.75l.06.14-1.38,1.13Z"/>
  <path class="st0" d="M19.32,15.1c-.57-.7-1.42-1.1-2.32-1.1h-4.18l.58-3.33c.02-.34.02-.52,0-.53-.12-.45-.4-.8-.79-.99s-.85-.2-1.28-.02c-.25.11-.5.37-.68.71l-2.19,4.16h-1.46c-1.65,0-3,1.35-3,3v4c0,1.65,1.35,3,3,3h8.38c1.9,0,3.55-1.35,3.92-3.22l.64-3.19c.18-.89-.05-1.79-.62-2.49ZM8,23h-1c-1.1,0-2-.9-2-2v-4c0-1.1.9-2,2-2h1v8ZM18.96,17.39l-.64,3.2c-.28,1.4-1.51,2.41-2.94,2.41h-6.38v-8.16c.14-.09.26-.22.34-.37l2.2-4.16c.1-.19.18-.25.18-.25.16-.07.32-.07.45-.01.1.05.18.14.25.29l-.59,3.49c-.05.29.03.58.22.81s.47.36.77.36h4.18c.6,0,1.17.27,1.55.73.38.47.53,1.07.41,1.66Z"/>
</svg>