<?xml version="1.0" encoding="UTF-8"?>
<svg id="Layer_1" xmlns="http://www.w3.org/2000/svg" version="1.1" viewBox="0 0 24 24">
  <!-- Generator: Adobe Illustrator 30.0.0, SVG Export Plug-In . SVG Version: 2.1.1 Build 123)  -->
  <defs>
    <style>
      .st0 {
        fill: #757575;
      }

      .st1 {
        fill: #f3c300;
      }
    </style>
  </defs>
  <path class="st0" d="M9,0C5.69,0,3,2.69,3,6s2.69,6,6,6,6-2.69,6-6S12.31,0,9,0ZM9,11c-2.76,0-5-2.24-5-5S6.24,1,9,1s5,2.24,5,5-2.24,5-5,5Z"/>
  <path class="st0" d="M1,23.5v-.5c0-4.23,3.31-7.74,7.53-7.99.28-.02.49-.25.47-.53-.02-.27-.25-.5-.53-.47C3.72,14.29,0,18.24,0,23v.5c0,.28.22.5.5.5s.5-.22.5-.5Z"/>
  <path class="st1" d="M17.5,11c-3.58,0-6.5,2.92-6.5,6.5s2.92,6.5,6.5,6.5,6.5-2.92,6.5-6.5-2.92-6.5-6.5-6.5ZM17.5,23c-3.03,0-5.5-2.47-5.5-5.5s2.47-5.5,5.5-5.5,5.5,2.47,5.5,5.5-2.47,5.5-5.5,5.5Z"/>
  <path class="st1" d="M20.84,16.85l-2.7,2.61c-.36.36-.84.54-1.31.54s-.95-.18-1.32-.53l-1.36-1.35c-.2-.19-.2-.51-.01-.71.2-.19.52-.2.71,0l1.36,1.34c.34.33.89.33,1.23,0l2.7-2.62c.2-.19.52-.18.71.01.19.2.19.52,0,.71h-.01Z"/>
</svg>