<?xml version="1.0" encoding="UTF-8"?>
<svg id="Layer_1" xmlns="http://www.w3.org/2000/svg" version="1.1" viewBox="0 0 512 512">
  <!-- Generator: Adobe Illustrator 30.0.0, SVG Export Plug-In . SVG Version: 2.1.1 Build 123)  -->
  <defs>
    <style>
      .st0 {
        fill: #757575;
      }

      .st1 {
        fill: #f3c300;
      }
    </style>
  </defs>
  <path class="st0" d="M512,202.67v213.33c0,52.91-43.09,96-96,96H96c-52.91,0-96-43.09-96-96V160c0-52.91,43.09-96,96-96h192c5.97,0,10.67,4.69,10.67,10.67s-4.69,10.67-10.67,10.67H96c-34.35,0-63.36,23.25-72.11,54.83l179.2,179.2c29.01,29.23,76.37,29.01,105.6,0l99.63-102.83c4.05-4.27,10.88-4.27,15.15-.21,4.27,4.05,4.27,10.88.21,15.15l-99.63,103.04c-18.77,18.77-43.52,28.16-68.05,28.16s-49.07-9.39-67.84-28.16L21.33,167.68v248.32c0,41.17,33.49,74.67,74.67,74.67h320c41.17,0,74.67-33.49,74.67-74.67v-213.33c0-5.97,4.69-10.67,10.67-10.67s10.67,4.69,10.67,10.67Z"/>
  <path class="st1" d="M426.67,0C379.52,0,341.33,38.19,341.33,85.33s38.19,85.34,85.34,85.34,85.33-38.19,85.33-85.34S473.81,0,426.67,0ZM426.67,149.33c-35.2,0-64-28.8-64-64s28.8-64,64-64,64,28.8,64,64-28.8,64-64,64Z"/>
</svg>