<?xml version="1.0" encoding="UTF-8"?>
<svg id="Layer_1" xmlns="http://www.w3.org/2000/svg" version="1.1" viewBox="0 0 512 512">
  <!-- Generator: Adobe Illustrator 30.0.0, SVG Export Plug-In . SVG Version: 2.1.1 Build 123)  -->
  <defs>
    <style>
      .st0 {
        fill: #757575;
      }

      .st1 {
        fill: #f3c300;
      }
    </style>
  </defs>
  <path class="st0" d="M506.03,200.32c4.05,18.13,5.97,36.91,5.97,55.68,0,141.23-114.77,256-256,256S0,397.23,0,256,114.77,0,256,0C274.77,0,293.55,2.13,311.68,5.97c5.76,1.28,9.39,7.04,8.11,12.8-1.28,5.76-7.04,9.39-12.8,8.11-16.64-3.63-33.92-5.55-50.99-5.55C126.51,21.33,21.33,126.51,21.33,256s105.17,234.67,234.67,234.67,234.67-105.17,234.67-234.67c0-17.28-1.92-34.35-5.55-50.99-1.28-5.76,2.35-11.52,8.11-12.8,5.76-1.28,11.52,2.35,12.8,8.11h0Z"/>
  <path class="st0" d="M285.87,109.65c5.76,1.07,11.31-2.56,12.59-8.32,1.07-5.76-2.56-11.31-8.32-12.59-11.09-2.35-22.61-3.41-34.13-3.41-94.08,0-170.67,76.59-170.67,170.67s76.59,170.67,170.67,170.67,170.67-76.59,170.67-170.67c0-11.52-1.07-23.04-3.41-34.13-1.07-5.76-6.83-9.39-12.59-8.32-5.76,1.28-9.6,6.83-8.32,12.59,1.92,9.81,2.99,19.84,2.99,29.87,0,82.35-66.99,149.33-149.33,149.33s-149.33-66.99-149.33-149.33,66.99-149.33,149.33-149.33c10.03,0,20.05,1.07,29.87,2.99Z"/>
  <path class="st0" d="M246.83,192.64c5.76-.85,9.81-6.19,8.96-12.16s-6.19-10.03-12.16-8.96c-41.81,5.97-73.17,42.24-73.17,84.48,0,47.15,38.19,85.33,85.33,85.33,42.24,0,78.51-31.36,84.48-73.17.85-5.76-3.2-11.31-8.96-12.16s-11.31,3.2-12.16,8.96c-4.48,31.36-31.79,54.83-63.36,54.83-35.2,0-64-28.8-64-64,0-31.57,23.47-58.88,54.83-63.36l.21.21Z"/>
  <path class="st1" d="M511.15,91.95c-1.71-4.06-5.55-6.62-9.82-6.62h-74.66V10.67c0-4.27-2.56-8.11-6.62-9.82-3.84-1.7-8.53-.64-11.52,2.35l-51.62,51.41c-10.03,10.03-15.58,23.47-15.58,37.76v63.15l.22-.21-92.8,92.8c-4.27,4.26-4.27,10.88,0,15.14,1.92,2.14,4.9,3.2,7.46,3.2s5.34-1.06,7.47-3.2l92.8-92.8h63.15c14.29,0,27.73-5.54,37.76-15.57l51.41-51.41c2.99-2.99,4.05-7.47,2.35-11.52ZM442.24,139.95c-5.97,5.97-14.08,9.38-22.61,9.38h-56.96v-56.96c0-8.53,3.41-16.64,9.38-22.61l33.28-33.28v59.52c0,5.97,4.7,10.67,10.67,10.67h59.52l-33.28,33.28Z"/>
</svg>