<?xml version="1.0" encoding="UTF-8"?>
<svg id="Layer_1" data-name="Layer 1" xmlns="http://www.w3.org/2000/svg" viewBox="0 0 22 22">
  <defs>
    <style>
      .cls-1 {
        fill: #757575;
      }

      .cls-2 {
        fill: #f3c300;
      }
    </style>
  </defs>
  <path class="cls-1" d="M17.49,1c1.93,0,3.5,1.57,3.5,3.5v12.99c0,1.93-1.57,3.5-3.5,3.5H4.5c-1.93,0-3.5-1.57-3.5-3.5V4.5c0-1.93,1.57-3.5,3.5-3.5h12.99M17.49,0H4.5C2.02,0,0,2.02,0,4.5v12.99c0,2.49,2.02,4.5,4.5,4.5h12.99c2.49,0,4.5-2.02,4.5-4.5V4.5c0-2.49-2.02-4.5-4.5-4.5h0Z"/>
  <path class="cls-2" d="M15.5,10.5h-4v-4c0-.28-.22-.5-.5-.5s-.5.22-.5.5v4h-4c-.28,0-.5.22-.5.5s.22.5.5.5h4v4c0,.28.22.5.5.5s.5-.22.5-.5v-4h4c.28,0,.5-.22.5-.5s-.22-.5-.5-.5Z"/>
</svg>