<?xml version="1.0" encoding="UTF-8"?>
<svg id="Layer_1" xmlns="http://www.w3.org/2000/svg" version="1.1" viewBox="0 0 24 24">
  <!-- Generator: Adobe Illustrator 30.0.0, SVG Export Plug-In . SVG Version: 2.1.1 Build 123)  -->
  <defs>
    <style>
      .st0 {
        fill: #757575;
      }

      .st1 {
        fill: #f3c300;
      }
    </style>
  </defs>
  <path class="st0" d="M18.09,5.39l-3.48-3.48C13.38.68,11.75,0,10.01,0h-5.51C2.02,0,0,2.02,0,4.5v15c0,2.48,2.02,4.5,4.5,4.5h9c.28,0,.5-.22.5-.5s-.22-.5-.5-.5H4.5c-1.93,0-3.5-1.57-3.5-3.5V4.5c0-1.93,1.57-3.5,3.5-3.5h5.51c.34,0,.67.04.99.1v5.4c0,1.38,1.12,2.5,2.5,2.5h5.39c.03.18.08.36.09.54.02.28.27.48.54.46.27-.02.48-.26.46-.54-.13-1.54-.8-2.98-1.89-4.07ZM13.5,8c-.83,0-1.5-.67-1.5-1.5V1.38c.7.27,1.35.68,1.9,1.23l3.49,3.49c.54.54.94,1.19,1.22,1.9h-5.11Z"/>
  <path class="st1" d="M23.85,23.15l-5.25-5.26,2.29-2.29.44.43c.45.47,1.17-.25.7-.7l-4.68-4.68c-.19-.2-.51-.2-.7,0-.2.19-.2.51,0,.7l.4.41-5.29,5.3-.41-.41c-.19-.2-.51-.2-.7,0-.2.19-.2.51,0,.7l4.68,4.68c.45.47,1.17-.25.7-.7l-.43-.44,2.29-2.29,5.26,5.25c.45.47,1.17-.25.7-.7ZM14.89,20.18l-2.42-2.42,5.29-5.29,2.42,2.42-5.29,5.29Z"/>
  <path class="st0" d="M4,8.5c0-.28.22-.5.5-.5h4c.28,0,.5.22.5.5s-.22.5-.5.5h-4c-.28,0-.5-.22-.5-.5Z"/>
  <path class="st0" d="M13.5,12H4.5c-.28,0-.5-.22-.5-.5s.22-.5.5-.5h9c.28,0,.5.22.5.5s-.22.5-.5.5Z"/>
  <path class="st0" d="M10.5,15h-6c-.28,0-.5-.22-.5-.5s.22-.5.5-.5h6c.28,0,.5.22.5.5s-.22.5-.5.5Z"/>
  <path class="st0" d="M7.5,17c.28,0,.5.22.5.5s-.22.5-.5.5h-3c-.28,0-.5-.22-.5-.5s.22-.5.5-.5h3Z"/>
</svg>