<?xml version="1.0" encoding="UTF-8"?>
<svg id="Layer_1" xmlns="http://www.w3.org/2000/svg" version="1.1" viewBox="0 0 22.1 22.11">
  <!-- Generator: Adobe Illustrator 30.0.0, SVG Export Plug-In . SVG Version: 2.1.1 Build 123)  -->
  <defs>
    <style>
      .st0 {
        fill: #757575;
      }

      .st1 {
        fill: #f3c300;
      }
    </style>
  </defs>
  <g>
    <path class="st0" d="M4.59,11.53v6.4c0,.28.22.5.5.5s.5-.22.5-.5v-6.4c0-.28-.22-.5-.5-.5s-.5.22-.5.5Z"/>
    <path class="st0" d="M9.17,9.7v8.24c0,.28.22.5.5.5s.5-.22.5-.5v-8.24c0-.28-.22-.5-.5-.5s-.5.22-.5.5Z"/>
    <path class="st0" d="M13.76,12.45v5.49c0,.28.22.5.5.5s.5-.22.5-.5v-5.49c0-.28-.22-.5-.5-.5s-.5.22-.5.5Z"/>
    <path class="st0" d="M18.35,8.76v9.17c0,.28.22.5.5.5s.5-.22.5-.5v-9.17c0-.28-.22-.5-.5-.5s-.5.22-.5.5Z"/>
    <path class="st1" d="M20.32.15l-5.94,5.94c-.16.16-.37.24-.59.24s-.43-.09-.59-.24l-2.71-2.71c-.34-.34-.8-.53-1.29-.53s-.95.19-1.29.53L3.81,7.47c-.19.19-.19.51,0,.71.09.09.21.15.33.15h0s.02,0,.02,0c.14,0,.27-.06.35-.15l4.1-4.1c.16-.16.36-.24.59-.24s.43.09.59.24l2.71,2.71c.34.34.8.53,1.29.53s.95-.19,1.29-.53L21.03.86c.19-.19.19-.51,0-.71-.09-.09-.21-.15-.35-.15s-.26.05-.36.15Z"/>
  </g>
  <path class="st0" d="M21.6,22.11H4.5c-2.48,0-4.5-2.02-4.5-4.5V.51C0,.23.22,0,.5,0s.5.22.5.5v17.1c0,1.93,1.57,3.5,3.5,3.5h17.09c.28,0,.5.22.5.5s-.22.5-.5.5Z"/>
</svg>