<?xml version="1.0" encoding="UTF-8"?>
<svg id="Layer_1" xmlns="http://www.w3.org/2000/svg" version="1.1" viewBox="0 0 512 512">
  <!-- Generator: Adobe Illustrator 30.0.0, SVG Export Plug-In . SVG Version: 2.1.1 Build 123)  -->
  <defs>
    <style>
      .st0 {
        fill: #757575;
      }

      .st1 {
        fill: #f3c300;
      }
    </style>
  </defs>
  <path class="st0" d="M106.67,320c0-23.53,19.14-42.67,42.67-42.67h138.67c5.89,0,10.67,4.78,10.67,10.67s-4.78,10.67-10.67,10.67h-138.67c-11.75,0-21.33,9.58-21.33,21.33v42.67c0,11.75,9.58,21.33,21.33,21.33h160c5.89,0,10.67,4.78,10.67,10.67s-4.78,10.67-10.67,10.67h-160c-23.53,0-42.67-19.14-42.67-42.67v-42.67Z"/>
  <path class="st0" d="M117.33,213.33h85.33c5.89,0,10.67-4.78,10.67-10.67s-4.78-10.67-10.67-10.67h-85.33c-5.89,0-10.67,4.78-10.67,10.67s4.78,10.67,10.67,10.67Z"/>
  <path class="st0" d="M117.33,128h85.33c5.89,0,10.67-4.78,10.67-10.67s-4.78-10.67-10.67-10.67h-85.33c-5.89,0-10.67,4.78-10.67,10.67s4.78,10.67,10.67,10.67Z"/>
  <path class="st0" d="M443.69,178.69c-6.16-24.11-18.73-46.15-36.31-63.72l-74.32-74.35C306.84,14.42,272,0,234.99,0h-117.66C64.41,0,21.33,43.07,21.33,96v320c0,52.93,43.08,96,96,96h234.67c5.89,0,10.67-4.78,10.67-10.67s-4.78-10.66-10.67-10.66H117.33c-41.17,0-74.66-33.5-74.66-74.67V96c0-41.17,33.49-74.67,74.66-74.67h117.66c7.12,0,14.14.62,21.01,1.86v115.48c0,29.39,23.91,53.33,53.33,53.33h124.01c3.31,0,6.4-1.51,8.43-4.12,2.03-2.6,2.73-5.99,1.92-9.19ZM309.33,170.67c-17.64,0-32-14.36-32-32h.02V29.18c15.04,5.83,28.85,14.77,40.62,26.52l74.33,74.35c11.58,11.58,20.59,25.43,26.45,40.62h-109.42Z"/>
  <path class="st1" d="M464.85,357.99l-73-11.73c-16.92-2.71-29.18-17.13-29.18-34.24,0-19.11,15.55-34.69,34.69-34.69h59.73c13.29,0,25.69,7.15,32.36,18.67,2.97,5.12,9.49,6.83,14.57,3.9,5.1-2.94,6.85-9.47,3.9-14.57-10.45-18.09-29.91-29.33-50.82-29.33h-19.75v-32c0-5.89-4.78-10.67-10.67-10.67s-10.67,4.78-10.67,10.67v32h-18.65c-30.89,0-56.02,25.13-56.02,56.02,0,27.65,19.84,50.92,47.15,55.32l73,11.73c16.92,2.71,29.18,17.13,29.18,34.24,0,19.11-15.55,34.69-34.69,34.69h-59.73c-13.29,0-25.69-7.15-32.36-18.67-2.97-5.12-9.56-6.85-14.57-3.9-5.1,2.94-6.85,9.47-3.9,14.57,10.45,18.09,29.91,29.33,50.82,29.33h19.75v32c0,5.89,4.78,10.67,10.67,10.67s10.67-4.78,10.67-10.67v-32h18.65c30.89,0,56.02-25.13,56.02-56.02,0-27.65-19.84-50.92-47.15-55.32Z"/>
</svg>