<?xml version="1.0" encoding="UTF-8"?>
<svg id="Layer_1" xmlns="http://www.w3.org/2000/svg" version="1.1" viewBox="0 0 24 24">
  <!-- Generator: Adobe Illustrator 30.0.0, SVG Export Plug-In . SVG Version: 2.1.1 Build 123)  -->
  <defs>
    <style>
      .st0 {
        fill: #757575;
      }

      .st1 {
        fill: #f3c300;
      }
    </style>
  </defs>
  <path class="st0" d="M5,12s.7,0,1-.1l-1,.1ZM18,11.93c.3.06.76.07.93.07l-.93-.07Z"/>
  <path class="st0" d="M24,19.5c0,.28-.22.5-.5.5h-5.2l-4.2,3.28c-.6.46-1.34.72-2.1.72s-1.5-.26-2.1-.72l-4.06-3.17c-.09-.07-.2-.11-.31-.11H.5c-.28,0-.5-.22-.5-.5s.22-.5.5-.5h5.03c.33,0,.66.11.92.32l4.07,3.17c.84.66,2.12.66,2.96,0l3.59-2.8-3.94-3.55c-.2-.17-.5-.16-.69.03l-1.26,1.28c-.58.57-1.56.57-2.13,0-.58-.59-.58-1.54,0-2.12l2.1-2.07-.81-.74c-.37-.34-.84-.52-1.34-.52-.44,0-1.24.25-2.24.7-.45.19-.94.27-1.42.3H.5c-.28,0-.5-.22-.5-.5s.22-.5.5-.5h4.5s.7,0,1-.1c.12-.03.24-.07.36-.12.8-.35,1.9-.78,2.62-.78.76,0,1.48.28,2.03.78l.85.77.76-.75c.54-.51,1.27-.8,2.04-.8.72,0,2.05.46,3.03.84.1.04.2.06.31.09.3.06.76.07.93.07h4.57c.28,0,.5.22.5.5s-.22.5-.5.5h-4.92c-.43-.02-.86-.07-1.26-.23-1.24-.48-2.23-.77-2.67-.77-.5,0-.99.19-1.36.54l-3.53,3.49c-.2.2-.2.52,0,.71.19.2.51.2.71,0l1.25-1.28c.56-.57,1.47-.6,2.08-.06l4,3.6h5.7c.28,0,.5.22.5.5Z"/>
  <path class="st1" d="M15.5,2h-.55C14.72.86,13.71,0,12.5,0h-1C10.29,0,9.28.86,9.05,2h-.55c-1.93,0-3.5,1.57-3.5,3.5v6.5l1-.1v-4.9h5.5v1.5c0,.28.22.5.5.5s.5-.22.5-.5v-1.5h5.5v4.93l.93.07h.07v-6.5c0-1.93-1.57-3.5-3.5-3.5ZM11.5,1h1c.65,0,1.2.42,1.41,1h-3.82c.21-.58.76-1,1.41-1ZM18,6H6v-.5c0-1.38,1.12-2.5,2.5-2.5h7c1.38,0,2.5,1.12,2.5,2.5v.5Z"/>
  <path class="st0" d="M6,11.9c-.3.1-1,.1-1,.1l1-.1Z"/>
  <path class="st0" d="M18.93,12c-.17,0-.63-.01-.93-.07l.93.07Z"/>
</svg>