<?xml version="1.0" encoding="UTF-8"?>
<svg id="Layer_1" xmlns="http://www.w3.org/2000/svg" version="1.1" viewBox="0 0 24 24">
  <!-- Generator: Adobe Illustrator 30.0.0, SVG Export Plug-In . SVG Version: 2.1.1 Build 123)  -->
  <defs>
    <style>
      .st0 {
        fill: #757575;
      }

      .st1 {
        fill: #f3c300;
      }
    </style>
  </defs>
  <path class="st0" d="M9,0C5.69,0,3,2.69,3,6s2.69,6,6,6,6-2.69,6-6S12.31,0,9,0ZM9,11c-2.76,0-5-2.24-5-5S6.24,1,9,1s5,2.24,5,5-2.24,5-5,5Z"/>
  <path class="st1" d="M21,20.5c0,.27-.22.5-.5.5h-4c-.28,0-.5-.23-.5-.5s.22-.5.5-.5h4c.28,0,.5.22.5.5Z"/>
  <path class="st1" d="M21,17.5c0,.28-.22.5-.5.5h-4c-.28,0-.5-.22-.5-.5s.22-.5.5-.5h4c.28,0,.5.22.5.5Z"/>
  <path class="st1" d="M21,14.5c0,.27-.22.5-.5.5h-4c-.28,0-.5-.23-.5-.5s.22-.5.5-.5h4c.28,0,.5.22.5.5Z"/>
  <path class="st1" d="M21.5,11h-6c-1.38,0-2.5,1.12-2.5,2.5v8c0,1.38,1.12,2.5,2.5,2.5h6c1.38,0,2.5-1.12,2.5-2.5v-8c0-1.38-1.12-2.5-2.5-2.5ZM23,21.5c0,.83-.67,1.5-1.5,1.5h-6c-.83,0-1.5-.67-1.5-1.5v-8c0-.83.67-1.5,1.5-1.5h6c.83,0,1.5.67,1.5,1.5v8Z"/>
  <path class="st1" d="M21,20.5c0,.27-.22.5-.5.5h-4c-.28,0-.5-.23-.5-.5s.22-.5.5-.5h4c.28,0,.5.22.5.5Z"/>
  <path class="st1" d="M21,17.5c0,.28-.22.5-.5.5h-4c-.28,0-.5-.22-.5-.5s.22-.5.5-.5h4c.28,0,.5.22.5.5Z"/>
  <path class="st1" d="M16,14.5c0-.28.22-.5.5-.5h4c.28,0,.5.22.5.5s-.22.5-.5.5h-4c-.28,0-.5-.23-.5-.5Z"/>
  <path class="st1" d="M21,14.5c0,.27-.22.5-.5.5h-4c-.28,0-.5-.23-.5-.5s.22-.5.5-.5h4c.28,0,.5.22.5.5Z"/>
  <path class="st1" d="M21,17.5c0,.28-.22.5-.5.5h-4c-.28,0-.5-.22-.5-.5s.22-.5.5-.5h4c.28,0,.5.22.5.5Z"/>
  <path class="st1" d="M21,20.5c0,.27-.22.5-.5.5h-4c-.28,0-.5-.23-.5-.5s.22-.5.5-.5h4c.28,0,.5.22.5.5Z"/>
  <path class="st0" d="M10.99,14.72c-.05.27-.31.45-.58.4-.47-.08-.94-.12-1.41-.12-4.41,0-8,3.59-8,8v.5c0,.28-.22.5-.5.5s-.5-.22-.5-.5v-.5c0-4.96,4.04-9,9-9,.53,0,1.07.05,1.59.14.27.05.45.31.4.58h0Z"/>
</svg>