<?xml version="1.0" encoding="UTF-8"?>
<svg id="Layer_1" xmlns="http://www.w3.org/2000/svg" version="1.1" viewBox="0 0 24 24">
  <!-- Generator: Adobe Illustrator 30.0.0, SVG Export Plug-In . SVG Version: 2.1.1 Build 123)  -->
  <defs>
    <style>
      .st0 {
        fill: #757575;
      }

      .st1 {
        fill: #f3c300;
      }
    </style>
  </defs>
  <path class="st1" d="M10,8c-1.1,0-2,.9-2,2s.9,2,2,2,2-.9,2-2-.9-2-2-2ZM10,11c-.55,0-1-.45-1-1s.45-1,1-1,1,.45,1,1-.45,1-1,1Z"/>
  <path class="st1" d="M16,8.58c-1.06-1.41-2.96-3.08-6-3.08s-4.94,1.67-6,3.08c-.63.83-.63,2.01,0,2.85,1.06,1.4,2.96,3.07,6,3.07s4.94-1.67,6-3.08c.63-.83.63-2.01,0-2.84ZM15.2,10.82c-.92,1.23-2.57,2.68-5.2,2.68s-4.28-1.45-5.2-2.68c-.37-.48-.37-1.16,0-1.64.92-1.22,2.57-2.68,5.2-2.68s4.28,1.46,5.2,2.68c.37.48.37,1.16,0,1.64Z"/>
  <path class="st0" d="M23.85,23.15l-6.44-6.45c1.6-1.78,2.59-4.12,2.59-6.7C20,4.49,15.51,0,10,0S0,4.49,0,10s4.49,10,10,10c2.58,0,4.92-.99,6.7-2.6l6.45,6.45c.45.47,1.17-.25.7-.7ZM10,19c-4.96,0-9-4.04-9-9S5.04,1,10,1s9,4.04,9,9-4.04,9-9,9Z"/>
  <path class="st1" d="M10,8c-1.1,0-2,.9-2,2s.9,2,2,2,2-.9,2-2-.9-2-2-2ZM10,11c-.55,0-1-.45-1-1s.45-1,1-1,1,.45,1,1-.45,1-1,1Z"/>
  <path class="st1" d="M16,8.58c-1.06-1.41-2.96-3.08-6-3.08s-4.94,1.67-6,3.08c-.63.83-.63,2.01,0,2.85,1.06,1.4,2.96,3.07,6,3.07s4.94-1.67,6-3.08c.63-.83.63-2.01,0-2.84ZM15.2,10.82c-.92,1.23-2.57,2.68-5.2,2.68s-4.28-1.45-5.2-2.68c-.37-.48-.37-1.16,0-1.64.92-1.22,2.57-2.68,5.2-2.68s4.28,1.46,5.2,2.68c.37.48.37,1.16,0,1.64Z"/>
  <path class="st1" d="M10,8c-1.1,0-2,.9-2,2s.9,2,2,2,2-.9,2-2-.9-2-2-2ZM10,11c-.55,0-1-.45-1-1s.45-1,1-1,1,.45,1,1-.45,1-1,1Z"/>
  <path class="st1" d="M16,8.58c-1.06-1.41-2.96-3.08-6-3.08s-4.94,1.67-6,3.08c-.63.83-.63,2.01,0,2.85,1.06,1.4,2.96,3.07,6,3.07s4.94-1.67,6-3.08c.63-.83.63-2.01,0-2.84ZM15.2,10.82c-.92,1.23-2.57,2.68-5.2,2.68s-4.28-1.45-5.2-2.68c-.37-.48-.37-1.16,0-1.64.92-1.22,2.57-2.68,5.2-2.68s4.28,1.46,5.2,2.68c.37.48.37,1.16,0,1.64Z"/>
  <path class="st1" d="M10,8c-1.1,0-2,.9-2,2s.9,2,2,2,2-.9,2-2-.9-2-2-2ZM10,11c-.55,0-1-.45-1-1s.45-1,1-1,1,.45,1,1-.45,1-1,1Z"/>
  <path class="st1" d="M10,8c-1.1,0-2,.9-2,2s.9,2,2,2,2-.9,2-2-.9-2-2-2ZM10,11c-.55,0-1-.45-1-1s.45-1,1-1,1,.45,1,1-.45,1-1,1Z"/>
</svg>