<?xml version="1.0" encoding="UTF-8"?>
<svg id="Layer_1" xmlns="http://www.w3.org/2000/svg" version="1.1" viewBox="0 0 24 24">
  <!-- Generator: Adobe Illustrator 30.0.0, SVG Export Plug-In . SVG Version: 2.1.1 Build 123)  -->
  <defs>
    <style>
      .st0 {
        fill: #757575;
      }

      .st1 {
        fill: #f3c300;
      }
    </style>
  </defs>
  <path class="st1" d="M17,14.49c0,.66.45,1.26,1.08,1.44l4.11,1.17c1.07.3,1.81,1.29,1.81,2.4,0,1.38-1.12,2.49-2.5,2.49h-1v1.5c0,.28-.22.5-.5.5s-.5-.22-.5-.5v-1.5h-1c-1.38,0-2.49-1.12-2.49-2.49,0-.28.22-.5.5-.5s.5.22.5.5c0,.82.67,1.5,1.5,1.5h3.01c.82,0,1.5-.67,1.5-1.5,0-.66-.45-1.25-1.08-1.44l-4.11-1.17c-1.07-.3-1.81-1.29-1.81-2.4,0-1.38,1.12-2.49,2.5-2.49h1v-1.5c0-.28.22-.5.5-.5s.5.22.5.5v1.5h1c1.38,0,2.49,1.12,2.49,2.49,0,.28-.22.5-.5.5s-.5-.22-.5-.5c0-.82-.67-1.49-1.5-1.49h-3.01c-.82,0-1.5.67-1.49,1.49Z"/>
  <path class="st0" d="M22.5,0h-5C17.22,0,17,.22,17,.5s.22.5.5.5h4.79l-5.51,5.51c-.71.71-1.85.71-2.56,0l-2.73-2.73c-1.1-1.1-2.88-1.1-3.98,0L.15,11.15c-.19.19-.19.51,0,.71.1.1.23.15.35.15s.26-.05.35-.15l7.36-7.36c.71-.71,1.85-.71,2.56,0l2.73,2.73c1.1,1.1,2.88,1.1,3.98,0l5.51-5.51v4.79c0,.28.22.5.5.5s.5-.22.5-.5V1.5C24,.67,23.33,0,22.5,0Z"/>
  <path class="st0" d="M12.5,9c-.28,0-.5.22-.5.5v14c0,.28.22.5.5.5s.5-.22.5-.5v-14c0-.28-.22-.5-.5-.5Z"/>
  <path class="st0" d="M7.5,8c-.28,0-.5.22-.5.5v15c0,.28.22.5.5.5s.5-.22.5-.5v-15c0-.28-.22-.5-.5-.5Z"/>
  <path class="st0" d="M2.5,13c-.28,0-.5.22-.5.5v10c0,.28.22.5.5.5s.5-.22.5-.5v-10c0-.28-.22-.5-.5-.5Z"/>
</svg>