<?xml version="1.0" encoding="UTF-8"?>
<svg id="Layer_1" xmlns="http://www.w3.org/2000/svg" version="1.1" viewBox="0 0 24 24">
  <!-- Generator: Adobe Illustrator 30.0.0, SVG Export Plug-In . SVG Version: 2.1.1 Build 123)  -->
  <defs>
    <style>
      .st0 {
        fill: #757575;
      }

      .st1 {
        fill: #f3c300;
      }
    </style>
  </defs>
  <path class="st1" d="M10.5,13h-1c-.28,0-.5.22-.5.5s.22.5.5.5h1c.28,0,.5-.22.5-.5s-.22-.5-.5-.5Z"/>
  <path class="st1" d="M14.5,13h-1c-.28,0-.5.22-.5.5s.22.5.5.5h1c.28,0,.5-.22.5-.5s-.22-.5-.5-.5Z"/>
  <path class="st1" d="M18.5,13h-1c-.28,0-.5.22-.5.5s.22.5.5.5h1c.28,0,.5-.22.5-.5s-.22-.5-.5-.5Z"/>
  <path class="st1" d="M10.5,18h-1c-.28,0-.5.22-.5.5s.22.5.5.5h1c.28,0,.5-.22.5-.5s-.22-.5-.5-.5Z"/>
  <path class="st1" d="M6.5,13h-1c-.28,0-.5.22-.5.5s.22.5.5.5h1c.28,0,.5-.22.5-.5s-.22-.5-.5-.5Z"/>
  <path class="st1" d="M6.5,18h-1c-.28,0-.5.22-.5.5s.22.5.5.5h1c.28,0,.5-.22.5-.5s-.22-.5-.5-.5Z"/>
  <path class="st1" d="M14.5,18h-1c-.28,0-.5.22-.5.5s.22.5.5.5h1c.28,0,.5-.22.5-.5s-.22-.5-.5-.5Z"/>
  <path class="st1" d="M18.5,18h-1c-.28,0-.5.22-.5.5s.22.5.5.5h1c.28,0,.5-.22.5-.5s-.22-.5-.5-.5Z"/>
  <path class="st0" d="M19.5,2h-1.5V.5C18,.22,17.78,0,17.5,0s-.5.22-.5.5v1.5H7V.5C7,.22,6.78,0,6.5,0s-.5.22-.5.5v1.5h-1.5C2.02,2,0,4.02,0,6.5v13c0,2.48,2.02,4.5,4.5,4.5h15c2.48,0,4.5-2.02,4.5-4.5V6.5c0-2.48-2.02-4.5-4.5-4.5ZM4.5,3h15c1.93,0,3.5,1.57,3.5,3.5v1.5H1v-1.5c0-1.93,1.57-3.5,3.5-3.5ZM19.5,23H4.5c-1.93,0-3.5-1.57-3.5-3.5v-10.5h22v10.5c0,1.93-1.57,3.5-3.5,3.5Z"/>
</svg>