<?xml version="1.0" encoding="UTF-8"?>
<svg id="Layer_1" xmlns="http://www.w3.org/2000/svg" version="1.1" viewBox="0 0 24 24">
  <!-- Generator: Adobe Illustrator 30.0.0, SVG Export Plug-In . SVG Version: 2.1.1 Build 123)  -->
  <defs>
    <style>
      .st0 {
        fill: #757575;
      }

      .st1 {
        fill: #f3c300;
      }
    </style>
  </defs>
  <path class="st1" d="M21,14c0-1.1-.9-2-2-2h-2c-1.1,0-2,.9-2,2-1.65,0-3,1.35-3,3v4c0,1.65,1.35,3,3,3h6c1.65,0,3-1.35,3-3v-4c0-1.65-1.35-3-3-3ZM17,13h2c.55,0,1,.45,1,1h-4c0-.55.45-1,1-1ZM23,21c0,1.1-.9,2-2,2h-6c-1.1,0-2-.9-2-2v-2h4.5v1.5c0,.28.22.5.5.5s.5-.22.5-.5v-1.5h4.5v2ZM23,18h-10v-1c0-1.1.9-2,2-2h6c1.1,0,2,.9,2,2v1Z"/>
  <path class="st0" d="M10,23.5c0,.28-.22.5-.5.5h-5c-2.48,0-4.5-2.02-4.5-4.5V4.5C0,2.02,2.02,0,4.5,0h7C13.98,0,16,2.02,16,4.5v5c0,.28-.22.5-.5.5s-.5-.22-.5-.5v-5c0-1.93-1.57-3.5-3.5-3.5h-7c-1.93,0-3.5,1.57-3.5,3.5v15c0,1.93,1.57,3.5,3.5,3.5h5c.28,0,.5.22.5.5Z"/>
  <path class="st0" d="M7,13.5c0,.28-.22.5-.5.5h-2c-.28,0-.5-.22-.5-.5s.22-.5.5-.5h2c.28,0,.5.22.5.5Z"/>
  <path class="st0" d="M12,13.5c0,.28-.22.5-.5.5h-2c-.28,0-.5-.22-.5-.5s.22-.5.5-.5h2c.28,0,.5.22.5.5Z"/>
  <path class="st0" d="M7,17.5c0,.28-.22.5-.5.5h-2c-.28,0-.5-.22-.5-.5s.22-.5.5-.5h2c.28,0,.5.22.5.5Z"/>
  <path class="st0" d="M7,5.5c0,.28-.22.5-.5.5h-2c-.28,0-.5-.22-.5-.5s.22-.5.5-.5h2c.28,0,.5.22.5.5Z"/>
  <path class="st0" d="M12,5.5c0,.28-.22.5-.5.5h-2c-.28,0-.5-.22-.5-.5s.22-.5.5-.5h2c.28,0,.5.22.5.5Z"/>
  <path class="st0" d="M7,9.5c0,.28-.22.5-.5.5h-2c-.28,0-.5-.22-.5-.5s.22-.5.5-.5h2c.28,0,.5.22.5.5Z"/>
  <path class="st0" d="M12,9.5c0,.28-.22.5-.5.5h-2c-.28,0-.5-.22-.5-.5s.22-.5.5-.5h2c.28,0,.5.22.5.5Z"/>
</svg>