<?xml version="1.0" encoding="UTF-8"?>
<svg id="Layer_1" xmlns="http://www.w3.org/2000/svg" version="1.1" viewBox="0 0 24 24">
  <!-- Generator: Adobe Illustrator 30.0.0, SVG Export Plug-In . SVG Version: 2.1.1 Build 123)  -->
  <defs>
    <style>
      .st0 {
        fill: #757575;
      }

      .st1 {
        fill: #f3c300;
      }
    </style>
  </defs>
  <path class="st1" d="M17,13.5c0,.28-.22.5-.5.5H7.5c-.28,0-.5-.22-.5-.5s.22-.5.5-.5h9c.28,0,.5.22.5.5Z"/>
  <path class="st1" d="M14,17.5c0,.28-.22.5-.5.5h-6c-.28,0-.5-.22-.5-.5s.22-.5.5-.5h6c.28,0,.5.22.5.5Z"/>
  <path class="st1" d="M14,17.5c0,.28-.22.5-.5.5h-6c-.28,0-.5-.22-.5-.5s.22-.5.5-.5h6c.28,0,.5.22.5.5Z"/>
  <path class="st1" d="M17,13.5c0,.28-.22.5-.5.5H7.5c-.28,0-.5-.22-.5-.5s.22-.5.5-.5h9c.28,0,.5.22.5.5Z"/>
  <path class="st0" d="M20.1,5.39l-3.49-3.49C15.38.68,13.75,0,12.01,0h-5.51C4.02,0,2,2.02,2,4.5v15c0,2.48,2.02,4.5,4.5,4.5h11c2.48,0,4.5-2.02,4.5-4.5v-9.51c0-1.74-.68-3.37-1.9-4.6ZM14,1.38c.7.27,1.35.68,1.9,1.23l3.49,3.49c.55.55.96,1.2,1.23,1.9h-5.12c-.83,0-1.5-.67-1.5-1.5V1.38ZM21,19.5c0,1.93-1.57,3.5-3.5,3.5H6.5c-1.93,0-3.5-1.57-3.5-3.5V4.5c0-1.93,1.57-3.5,3.5-3.5h5.52c.33,0,.66.04.98.1v5.4c0,1.38,1.12,2.5,2.5,2.5h5.4c.06.32.1.65.1.99v9.51Z"/>
  <path class="st1" d="M14,17.5c0,.28-.22.5-.5.5h-6c-.28,0-.5-.22-.5-.5s.22-.5.5-.5h6c.28,0,.5.22.5.5Z"/>
  <path class="st1" d="M17,13.5c0,.28-.22.5-.5.5H7.5c-.28,0-.5-.22-.5-.5s.22-.5.5-.5h9c.28,0,.5.22.5.5Z"/>
</svg>