<?xml version="1.0" encoding="UTF-8"?>
<svg id="Layer_1" xmlns="http://www.w3.org/2000/svg" version="1.1" viewBox="0 0 24 24">
  <!-- Generator: Adobe Illustrator 30.0.0, SVG Export Plug-In . SVG Version: 2.1.1 Build 123)  -->
  <defs>
    <style>
      .st0 {
        fill: #757575;
      }

      .st1 {
        fill: #f3c300;
      }
    </style>
  </defs>
  <path class="st0" d="M12,13c1.65,0,3-1.35,3-3s-1.35-3-3-3-3,1.35-3,3,1.35,3,3,3ZM12,8c1.1,0,2,.9,2,2s-.9,2-2,2-2-.9-2-2,.9-2,2-2Z"/>
  <path class="st0" d="M12,15c-1.97,0-3.66,1.47-3.94,3.43-.04.27.15.53.42.57.27.04.53-.15.57-.42.21-1.47,1.48-2.57,2.95-2.57s2.74,1.1,2.95,2.57c.04.25.25.43.49.43.02,0,.05,0,.07,0,.27-.04.46-.29.42-.57-.28-1.95-1.98-3.43-3.94-3.43Z"/>
  <path class="st0" d="M15.72,14.29c.4-.19.83-.29,1.28-.29,1.47,0,2.74,1.1,2.95,2.57.04.25.25.43.49.43.02,0,.05,0,.07,0,.27-.04.46-.29.42-.57-.28-1.95-1.98-3.43-3.94-3.43-.6,0-1.18.13-1.72.39-.25.12-.35.42-.23.67s.42.35.67.23Z"/>
  <path class="st0" d="M8.67,13.39c-.54-.26-1.12-.39-1.72-.39-1.97,0-3.66,1.47-3.94,3.43-.04.27.15.53.42.57.02,0,.05,0,.07,0,.24,0,.46-.18.49-.43.21-1.47,1.48-2.57,2.95-2.57.45,0,.88.1,1.28.29.25.12.55.01.67-.23s.01-.55-.23-.67Z"/>
  <path class="st0" d="M15.8,6.4c.35-.26.76-.4,1.2-.4,1.1,0,2,.9,2,2,0,.95-.67,1.77-1.6,1.96-.27.06-.44.32-.39.59.05.24.26.4.49.4.03,0,.07,0,.1-.01,1.39-.28,2.4-1.52,2.4-2.94,0-1.65-1.35-3-3-3-.66,0-1.28.21-1.8.6-.22.16-.27.48-.1.7.17.22.48.27.7.1h0Z"/>
  <path class="st0" d="M4,8c0,1.42,1.01,2.66,2.4,2.94.03,0,.07.01.1.01.23,0,.44-.16.49-.4.05-.27-.12-.53-.39-.59-.93-.19-1.6-1.01-1.6-1.96,0-1.1.9-2,2-2,.44,0,.85.14,1.2.4.22.17.53.12.7-.1.17-.22.12-.53-.1-.7-.52-.39-1.15-.6-1.8-.6-1.65,0-3,1.35-3,3h0Z"/>
  <path class="st1" d="M.5,7c.28,0,.5-.22.5-.5v-2c0-1.93,1.57-3.5,3.5-3.5h2c.28,0,.5-.22.5-.5S6.78,0,6.5,0h-2C2.02,0,0,2.02,0,4.5v2c0,.28.22.5.5.5Z"/>
  <path class="st1" d="M6.5,23h-2c-1.93,0-3.5-1.57-3.5-3.5v-2c0-.28-.22-.5-.5-.5s-.5.22-.5.5v2c0,2.48,2.02,4.5,4.5,4.5h2c.28,0,.5-.22.5-.5s-.22-.5-.5-.5Z"/>
  <path class="st1" d="M23.5,17c-.28,0-.5.22-.5.5v2c0,1.93-1.57,3.5-3.5,3.5h-2c-.28,0-.5.22-.5.5s.22.5.5.5h2c2.48,0,4.5-2.02,4.5-4.5v-2c0-.28-.22-.5-.5-.5Z"/>
  <path class="st1" d="M19.5,0h-2C17.22,0,17,.22,17,.5s.22.5.5.5h2c1.93,0,3.5,1.57,3.5,3.5v2c0,.28.22.5.5.5s.5-.22.5-.5v-2C24,2.02,21.98,0,19.5,0Z"/>
</svg>