<?xml version="1.0" encoding="UTF-8"?>
<svg id="Layer_1" xmlns="http://www.w3.org/2000/svg" version="1.1" viewBox="0 0 511.96 511.96">
  <!-- Generator: Adobe Illustrator 30.0.0, SVG Export Plug-In . SVG Version: 2.1.1 Build 123)  -->
  <defs>
    <style>
      .st0 {
        fill: #757575;
      }

      .st1 {
        fill: #bababa;
      }

      .st2 {
        fill: #f3c300;
      }
    </style>
  </defs>
  <path class="st1" d="M191.98,191.98c-23.46,0-42.66,19.2-42.66,42.66s19.2,42.66,42.66,42.66,42.66-19.2,42.66-42.66-19.2-42.66-42.66-42.66ZM191.98,255.98c-11.73,0-21.33-9.6-21.33-21.33s9.6-21.33,21.33-21.33,21.33,9.6,21.33,21.33-9.6,21.33-21.33,21.33Z"/>
  <path class="st1" d="M318.69,207.77l-106.66,191.98c-1.92,3.63-5.55,5.55-9.39,5.55-1.71,0-3.63-.43-5.12-1.28-5.12-2.99-7.04-9.39-4.27-14.51l106.66-191.98c2.99-5.12,9.39-7.04,14.51-4.27,5.33,2.99,7.04,9.39,4.27,14.51Z"/>
  <path class="st1" d="M319.97,319.97c-23.46,0-42.66,19.2-42.66,42.66s19.2,42.66,42.66,42.66,42.66-19.2,42.66-42.66-19.2-42.66-42.66-42.66ZM319.97,383.97c-11.73,0-21.33-9.6-21.33-21.33s9.6-21.33,21.33-21.33,21.33,9.6,21.33,21.33-9.6,21.33-21.33,21.33Z"/>
  <path class="st0" d="M475.05,145.69l-27.09-21.33V53.33c0-5.97-4.69-10.67-10.67-10.67s-10.67,4.69-10.67,10.67v54.4l-111.56-87.25c-34.77-27.31-83.41-27.31-118.39,0L36.9,145.69C13.44,164.04,0,191.56,0,221.42v194.54c0,52.9,43.09,95.99,95.99,95.99h319.97c52.9,0,95.99-43.09,95.99-95.99v-194.54c0-29.86-13.44-57.38-36.9-75.73ZM490.63,415.97c0,41.17-33.49,74.66-74.66,74.66H95.99c-41.17,0-74.66-33.49-74.66-74.66v-194.54c0-23.25,10.45-44.58,28.58-58.88L209.9,37.33c13.65-10.67,29.86-16,46.08-16s32.42,5.33,46.08,16l159.99,125.22c18.13,14.29,28.58,35.62,28.58,58.88v194.54Z"/>
  <path class="st1" d="M191.98,191.98c-23.46,0-42.66,19.2-42.66,42.66s19.2,42.66,42.66,42.66,42.66-19.2,42.66-42.66-19.2-42.66-42.66-42.66ZM191.98,255.98c-11.73,0-21.33-9.6-21.33-21.33s9.6-21.33,21.33-21.33,21.33,9.6,21.33,21.33-9.6,21.33-21.33,21.33Z"/>
  <path class="st1" d="M318.69,207.77l-106.66,191.98c-1.92,3.63-5.55,5.55-9.39,5.55-1.71,0-3.63-.43-5.12-1.28-5.12-2.99-7.04-9.39-4.27-14.51l106.66-191.98c2.99-5.12,9.39-7.04,14.51-4.27,5.33,2.99,7.04,9.39,4.27,14.51Z"/>
  <path class="st1" d="M319.97,319.97c-23.46,0-42.66,19.2-42.66,42.66s19.2,42.66,42.66,42.66,42.66-19.2,42.66-42.66-19.2-42.66-42.66-42.66ZM319.97,383.97c-11.73,0-21.33-9.6-21.33-21.33s9.6-21.33,21.33-21.33,21.33,9.6,21.33,21.33-9.6,21.33-21.33,21.33Z"/>
  <path class="st2" d="M318.69,207.77l-106.66,191.98c-1.92,3.63-5.55,5.55-9.39,5.55-1.71,0-3.63-.43-5.12-1.28-5.12-2.99-7.04-9.39-4.27-14.51l106.66-191.98c2.99-5.12,9.39-7.04,14.51-4.27,5.33,2.99,7.04,9.39,4.27,14.51Z"/>
  <path class="st2" d="M319.97,319.97c-23.46,0-42.66,19.2-42.66,42.66s19.2,42.66,42.66,42.66,42.66-19.2,42.66-42.66-19.2-42.66-42.66-42.66ZM319.97,383.97c-11.73,0-21.33-9.6-21.33-21.33s9.6-21.33,21.33-21.33,21.33,9.6,21.33,21.33-9.6,21.33-21.33,21.33Z"/>
  <path class="st2" d="M191.98,191.98c-23.46,0-42.66,19.2-42.66,42.66s19.2,42.66,42.66,42.66,42.66-19.2,42.66-42.66-19.2-42.66-42.66-42.66ZM191.98,255.98c-11.73,0-21.33-9.6-21.33-21.33s9.6-21.33,21.33-21.33,21.33,9.6,21.33,21.33-9.6,21.33-21.33,21.33Z"/>
</svg>